<svg xmlns="http://www.w3.org/2000/svg" viewBox="0 0 20 20">
  <g fill="#333333">
    <path d="M9 2.5c-.5523 0-1 .4477-1 1v2c0 .5523.4477 1 1 1h2c.5523 0 1-.4477 1-1v-2c0-.5523-.4477-1-1-1H9z" />
    <path d="M2 6h5.5c0 .5523.4477 1 1 1h3c.5523 0 1-.4477 1-1H18c.5523 0 1 .4477 1 1v10c0 .5523-.4477 1-1 1H2c-.5523 0-1-.4477-1-1V7c0-.5523.4477-1 1-1z" />
  </g>
  <g fill="#FFFFFF">
    <path d="M2.1481 15.1901l2.0741-2.6997c.1743-.225.3108-.4532.4096-.6846.1046-.2314.1569-.4918.1569-.781v-.1928c0-.2379-.0697-.4371-.2092-.5978-.1394-.1607-.3573-.241-.6536-.241-.2788 0-.4938.0835-.6448.2506-.1511.1607-.2266.3792-.2266.6556v.1832H2v-.2506c0-.3022.0494-.5657.1481-.7907.1046-.2314.247-.4242.427-.5785.1802-.1543.3922-.27.6362-.3471.2498-.0771.52-.1157.8105-.1157.3137 0 .5897.0482.8279.1446.244.0964.4473.2282.61.3953.1627.1672.2847.3697.366.6075.0871.2314.1307.4853.1307.7617 0 .3214-.0494.6203-.1481.8967-.093.27-.215.5271-.366.7713a5.5868 5.5868 0 01-.4968.7039c-.1859.225-.3689.4499-.549.6749l-.8017.9931v.0193H6V16H2.1481v-.8099z" />
    <path fill-rule="evenodd" clip-rule="evenodd" d="M14.4462 9h1.1261L18 16h-1.3015l-.48-1.4902h-2.5108L13.2092 16H12l2.4462-7zm1.4215 4.3922l-.8954-2.804h-.0185l-.9046 2.804h1.8185z" />
    <path d="M12 9H8v7h1.119v-2.9453h2.4718v-1.1389H9.119v-1.7671H12V9z" />
  </g>
</svg>
