<svg xmlns="http://www.w3.org/2000/svg" viewBox="0 0 20 20">
  <path d="M1 3.5C1 2.1193 2.1193 1 3.5 1h13C17.8807 1 19 2.1193 19 3.5v13c0 1.3807-1.1193 2.5-2.5 2.5h-13C2.1193 19 1 17.8807 1 16.5v-13z" fill="#333333" />
  <path fill-rule="evenodd" clip-rule="evenodd" d="M3.5 2C2.6716 2 2 2.6716 2 3.5V8h16V3.5c0-.8284-.6716-1.5-1.5-1.5h-13zM2 15v1.5c0 .8284.6716 1.5 1.5 1.5h13c.8284 0 1.5-.6716 1.5-1.5V15H2z" fill="#FFFFFF" />
  <path d="M6.5 9h-3v1h3v1h-2v1h2v1h-3v1h3c.5523 0 1-.4477 1-1v-3c0-.5523-.4477-1-1-1z" fill="#FFFFFF" />
  <path fill-rule="evenodd" clip-rule="evenodd" d="M8.5 9h1l1 2 1-2h1v5h-1v-3l-.5 1.5h-1L9.5 11v3h-1V9zM16.5 9v1h-2v.9869h2v1.0575L14.5 12v2h-1V9h3z" fill="#FFFFFF" />
</svg>
