<svg xmlns="http://www.w3.org/2000/svg" viewBox="0 0 160 130">
  <path fill-rule="evenodd" clip-rule="evenodd" d="M0 13.9656C0 6.2526 6.2616 0 13.9584 0h84.0832C105.751 0 112 6.2484 112 13.9656v19.7151c13.628 5.4964 23.247 18.8474 23.247 34.4434 0 9.1945-3.344 17.6062-8.878 24.0905 2.094-.0959 4.687.9065 7.112 3.0875l23.45 19.9449c3.796 3.415 4.114 8.993.711 12.396-3.403 3.403-8.98 3.082-12.396-.711l-19.945-23.45c-2.181-2.426-3.183-5.0182-3.087-7.1126-3.024 2.5812-6.468 4.6856-10.214 6.1976v9.467c0 7.713-6.262 13.966-13.9584 13.966H13.9584C6.2494 126 0 119.752 0 112.034V13.9656zm101.5 78.6831c3.853-.5252 7.424-1.9371 10.5-4.0235 6.563-4.4509 10.876-11.9711 10.876-20.498 0-8.5268-4.313-16.047-10.876-20.498-3.076-2.0863-6.647-3.4983-10.5-4.0234a24.9734 24.9734 0 00-3.3732-.228c-9.2617 0-17.3358 5.0885-21.579 12.6222-2.0186 3.5839-3.1701 7.7212-3.1701 12.1272 0 .6301.0235 1.2546.0698 1.8728.3972 5.309 2.4696 10.1513 5.6901 14 3.0654 3.6633 7.171 6.4264 11.8624 7.835 2.2569.6776 4.6494 1.0417 7.1268 1.0417 1.1442 0 2.2702-.0777 3.3732-.228zM76.0839 98c6.1641 4.555 13.7877 7.248 22.0398 7.248 1.1382 0 2.2643-.051 3.3763-.151v3.873c0 3.602-2.9002 6.53-6.4614 6.53H16.9614c-3.5695 0-6.4614-2.921-6.4614-6.53V17.0303c0-3.6025 2.9001-6.5303 6.4614-6.5303h78.0772c3.5695 0 6.4614 2.9206 6.4614 6.5303v14.1212A37.5784 37.5784 0 0098.1237 31c-2.4365 0-4.8182.2348-7.1237.6829V28H56v14h15.7483c-3.8754 3.9125-6.8865 8.6825-8.7231 14H56v14h5.0466c.2483 4.9894 1.4819 9.7196 3.51 14H56v14h20.0839zM33.055 44.331L18.933 33.9958l4.1341-5.6489 8.4732 6.2012 15.237-20.8199 5.6488 4.1341L33.055 44.331zM18.933 61.9958L33.055 72.331l19.3711-26.4687-5.6488-4.1341-15.237 20.8199-8.4732-6.2012-4.1341 5.6489zm14.122 38.3352L18.933 89.9958l4.1341-5.6489 8.4732 6.2012 15.237-20.8199 5.6488 4.1341L33.055 100.331z" fill="#EEEEEE" />
</svg>
