<svg xmlns="http://www.w3.org/2000/svg" viewBox="0 0 20 20">
  <path fill-rule="evenodd" clip-rule="evenodd" d="M2 2.995C2 1.8933 2.8945 1 3.994 1H16.006C17.1072 1 18 1.8926 18 2.995V17.005C18 18.1068 17.1055 19 16.0059 19H3.9941C2.8928 19 2 18.1074 2 17.0049V2.9951zm1.5.4379v13.1342c0 .5157.4131.9329.923.9329H15.577c.5088 0 .9231-.4183.9231-.9329V3.4329c0-.5157-.4131-.9329-.9231-.9329H4.4231c-.5088 0-.9231.4183-.9231.9329zm1.2047 2.4237L6.7221 7.333l2.7673-3.7812-.807-.5906-2.1766 2.9743-1.2105-.886-.5906.807zM10 5h5v2h-5V5zm5 4h-5v2h5V9zm0 4h-5v2h5v-2zM4.7047 9.8566l2.0174 1.4764 2.7673-3.7812-.807-.5906-2.1766 2.9743-1.2105-.886-.5906.807zm0 4l2.0174 1.4764 2.7673-3.7812-.807-.5906-2.1766 2.9743-1.2105-.8859-.5906.807z" fill="currentColor" />
</svg>
