<svg xmlns="http://www.w3.org/2000/svg" viewBox="0 0 30 17">
  <g fill="#666" fill-rule="evenodd">
    <path d="M15.829 9.543c-.87-1.454-.347-3.317 1.169-4.164l-1.63-2.724c-.465.264-1.007.415-1.585.415-1.742 0-3.154-1.371-3.154-3.063H7.37c.004.522-.131 1.052-.42 1.535-.87 1.454-2.804 1.948-4.322 1.106L.998 5.372c.469.257.875.634 1.164 1.117.869 1.451.348 3.312-1.161 4.16l1.63 2.723c.464-.261 1.003-.41 1.578-.41 1.736 0 3.144 1.363 3.153 3.046h3.259c-.002-.517.134-1.04.42-1.519.869-1.451 2.798-1.947 4.315-1.109l1.63-2.724c-.466-.258-.87-.633-1.157-1.113zm-6.831 1.705c-1.854 0-3.358-1.451-3.358-3.24 0-1.789 1.504-3.24 3.358-3.24s3.358 1.45 3.358 3.24c0 1.79-1.504 3.24-3.358 3.24zM20 5l5 7 5-7z" />
  </g>
</svg>
