<svg xmlns="http://www.w3.org/2000/svg" viewBox="0 0 20 20">
  <g fill="#333333">
    <path d="M10.0016 14.2932l-3.646-2.6683 1.0674-1.4584 2.1876 1.601 3.9338-5.3753 1.4584 1.0674-5.0012 6.8336z" />
    <path d="M12 15v-2.5906l1-1.3664V15c0 .5523-.4477 1-1 1H6c-.5523 0-1-.4477-1-1V9c0-.5523.4477-1 1-1h5.7483l-.7319 1H6v6h6z" />
    <path fill-rule="evenodd" clip-rule="evenodd" d="M3.994 1C2.8946 1 2 1.8932 2 2.995V17.005C2 18.1074 2.8928 19 3.994 19H16.006C17.1055 19 18 18.1068 18 17.0049V2.9951C18 1.8926 17.1072 1 16.0059 1H3.9941zM3.5 16.5671V3.4329c0-.5147.4143-.9329.923-.9329H15.577c.51 0 .9231.4172.9231.9329v13.1342c0 .5146-.4143.9329-.9231.9329H4.4231c-.51 0-.9231-.4172-.9231-.9329z" />
  </g>
</svg>
