<svg xmlns="http://www.w3.org/2000/svg" viewBox="0 0 20 20">
  <g fill-rule="evenodd" clip-rule="evenodd">
    <path d="M4.5594 17.5937C4.5372 17.7022 4.5 18 4.5 18h1.0008a6.7144 6.7144 0 01.0391-.2065 10.174 10.174 0 01.1863-.755c.1802-.6298.4793-1.4641.954-2.2938.9465-1.6538 2.5578-3.2455 5.3198-3.2455s4.3733 1.5917 5.3197 3.2455c.4748.8297.7739 1.664.9541 2.2938.0898.3139.1494.5745.1863.755.0184.0902.0312.1601.0391.2065H19.5s-.0372-.2978-.0594-.4063a11.1792 11.1792 0 00-.2046-.8297c-.1951-.6817-.5214-1.596-1.0474-2.515C17.1336 12.4056 15.2424 10.5 12 10.5s-5.1336 1.9056-6.1886 3.749c-.526.919-.8523 1.8333-1.0474 2.515a11.1792 11.1792 0 00-.2046.8297z" fill="#333333" />
    <path d="M8.9048 12.6737l-5.7621 3.3268-.75-1.2991 5.655-3.2649A2.007 2.007 0 018 11c0-1.1046.8954-2 2-2 .5222 0 .9976.2 1.3538.5278L16.25 6.7009 17 8l-5.0031 2.8886A1.963 1.963 0 0112 11c0 1.1045-.8954 2-2 2-.4043 0-.7806-.12-1.0952-.3263z" fill="#1651B0" />
    <g fill="#1651B0">
      <path d="M17.502 4.7c.3387 0 .6822.0866.9973.2687.9569.5523 1.2847 1.775.7324 2.731C18.8606 8.3416 18.1892 8.7 17.498 8.7a1.9868 1.9868 0 01-.9982-.2677c-.956-.5523-1.2838-1.775-.7315-2.732.3702-.641 1.0426-1.0002 1.7337-1.0002zM2.502 13.5c.3387 0 .6822.0866.9973.2687.9569.5523 1.2847 1.7751.7324 2.731-.3711.6419-1.0425 1.0003-1.7336 1.0003a1.9874 1.9874 0 01-.9983-.2678c-.956-.5523-1.2838-1.7751-.7315-2.732C1.1385 13.8593 1.8109 13.5 2.502 13.5z" />
    </g>
    <g fill="#FFFFFF">
      <path d="M17.5025 5.2c-.5357 0-1.0343.2879-1.3007.7502a1.4873 1.4873 0 00-.1499 1.1381c.1038.3869.3517.71.6984.9109.2282.1312.4868.2007.7483.2007.5348 0 1.0334-.287 1.3008-.7502.4133-.716.1675-1.6347-.5495-2.048a1.4906 1.4906 0 00-.7474-.2017zM2.5025 14c-.5357 0-1.0343.2879-1.3007.7502a1.4871 1.4871 0 00-.1499 1.1381c.1038.3869.3517.7101.6984.9109.2282.1312.4868.2008.7483.2008.5348 0 1.0334-.287 1.3008-.7503.4133-.716.1675-1.6347-.5495-2.048A1.4908 1.4908 0 002.5025 14z" />
    </g>
    <path d="M4 2h2v2h2v2H6v2H4V6H2V4h2V2z" fill="#1651B0" />
  </g>
</svg>
