<svg xmlns="http://www.w3.org/2000/svg" viewBox="0 0 20 20">
  <g fill-rule="evenodd" clip-rule="evenodd">
    <path d="M1 10c0-4.9622 4.0378-9 9-9s9 4.0378 9 9c0 1.4359-.3381 2.7944-.9389 4h-.0923v-3.03H14l-.0022.003H9.027V4.495C6.4068 4.956 4.4103 7.2493 4.4103 10c0 3.0824 2.5073 5.5897 5.5897 5.5897.3412 0 .6755-.0307 1-.0895V17.97h3v.0911c-1.2056.6008-2.5641.9389-4 .9389-4.9622 0-9-4.0378-9-9z" fill="#333333" />
    <path d="M10 1.973c4.4328 0 8.027 3.5941 8.027 8.027a8.1 8.1 0 01-.0583.972v-.002h-1.4773a6.6146 6.6146 0 00.0712-.97H9.9999V3.4373c-3.6243 0-6.5627 2.9384-6.5627 6.5627 0 3.6243 2.9384 6.5627 6.5627 6.5627.34 0 .674-.0259 1-.0757v1.4783a8.1078 8.1078 0 01-1 .0617c-4.4328 0-8.027-3.5941-8.027-8.027 0-4.4329 3.5942-8.027 8.027-8.027z" fill="#EEEEEE" />
    <path d="M12 15h3v-3h2v3h3v2h-3v3h-2v-3h-3v-2z" fill="#1651B0" />
  </g>
</svg>
