<svg xmlns="http://www.w3.org/2000/svg" viewBox="0 0 20 20">
  <g fill="#333333">
    <path d="M16.2749 4.125c0 1.1736-.9514 2.125-2.125 2.125s-2.125-.9514-2.125-2.125S12.9763 2 14.1499 2s2.125.9514 2.125 2.125zM8.2631 8.563A2.8391 2.8391 0 017.192 7.0861c-.4696-.0928-.9872-.1278-1.5421-.1278-1.7974 0-4.25.7084-4.25 4.25 0 1.5965 1.7005 1.9935 3.5417 2.0976.0095-3.0927 1.6289-4.3234 3.3215-4.7429zM11.6122 8.5076a2.8398 2.8398 0 00.9706-1.3443c.5288-.1514 1.0727-.205 1.5671-.205 2.1896 0 3.7977.544 4.1687 3.0417h-4.2255c-.5667-.8637-1.4227-1.2989-2.4809-1.4924z" />
    <path d="M13.9999 11.7471c-.473-2.1754-2.0255-2.6638-4.1-2.6638-1.7974 0-4.25.7084-4.25 4.25 0 1.8002 2.162 2.0752 4.25 2.125.3748-.0084.7445-.0234 1.1-.0511V13h3v-1.2529zM5.6499 6.25c1.1736 0 2.125-.9514 2.125-2.125S6.8235 2 5.6499 2s-2.125.9514-2.125 2.125.9514 2.125 2.125 2.125zM12.0249 6.25c0 1.1736-.9514 2.125-2.125 2.125s-2.125-.9514-2.125-2.125.9514-2.125 2.125-2.125 2.125.9514 2.125 2.125z" />
  </g>
  <path fill-rule="evenodd" clip-rule="evenodd" d="M12 14h3v-3h2v3h3v2h-3v3h-2v-3h-3v-2z" fill="#1651B0" />
</svg>
