<svg xmlns="http://www.w3.org/2000/svg" viewBox="0 0 20 20">
  <path d="M11 19c0-4 3.2727-5.6 5.7273-5.6V11L20 14.2l-3.2727 3.2V15c-1.8288-.0012-4.9091 1.2-4.9091 4H11z" fill="#999999" />
  <g fill="#333333">
    <path d="M10 4.0526c0 1.1337-.8955 2.0527-2 2.0527-1.1046 0-2-.919-2-2.0527C6 2.919 6.8954 2 8 2c1.1045 0 2 .919 2 2.0526zM10.4595 8.3395c-.4738-.3447-.8332-.8442-1.0082-1.4266-.442-.0897-.929-.1234-1.4513-.1234-1.5326 0-3.5711.5615-3.9412 3.2105H7v2.8976c.1103.0091.2215.0168.3333.0233.009-2.9874 1.533-4.1762 3.1262-4.5814z" />
    <path d="M10 14.8155V13H8.0006A2.1777 2.1777 0 018 12.9474c0-3.421 2.3083-4.1053 4-4.1053 2.2936 0 3.9092.651 3.9963 3.8298-1.6248.2053-3.3733.9302-4.426 2.3136-.5449-.0239-1.0833-.0717-1.5703-.17zM12 8.1579c1.1045 0 2-.919 2-2.0526 0-1.1337-.8955-2.0527-2-2.0527-1.1046 0-2 .919-2 2.0527 0 1.1336.8954 2.0526 2 2.0526z" />
  </g>
  <path fill-rule="evenodd" clip-rule="evenodd" d="M1 14h3v-3h2v3h3v2H6v3H4v-3H1v-2z" fill="#1651B0" />
</svg>
