<svg xmlns="http://www.w3.org/2000/svg" viewBox="0 0 20 20">
  <g fill-rule="evenodd" clip-rule="evenodd">
    <path d="M15 13h2v2h2v2h-2v2h-2v-2h-2v-2h2v-2z" fill="#1651B0" />
    <path d="M17.3166 7.387l-11 9-.6333-.774 11-9 .6333.774z" fill="#999999" />
    <path d="M9 11.5C9 10.1183 10.1198 9 11.499 9 12.8802 9 14 10.1183 14 11.5S12.8802 14 11.499 14C10.1198 14 9 12.8817 9 11.5z" fill="#1651B0" />
    <path d="M10 11.5c0-.829.6719-1.5 1.4994-1.5.8287 0 1.5006.671 1.5006 1.5s-.6719 1.5-1.5006 1.5C10.6719 13 10 12.329 10 11.5z" fill="#FFFFFF" />
    <path d="M8.7905 7.4409C10.5496 5.8575 11.5 3.623 11.5 1h1c0 2.877-1.0496 5.3924-3.0405 7.1842C7.4728 9.9722 4.5939 11 1 11v-1c3.4061 0 6.0272-.9722 7.7905-2.5591z" fill="#333333" />
  </g>
</svg>
