<svg xmlns="http://www.w3.org/2000/svg" viewBox="0 0 20 20">
  <g fill="#333333">
    <path d="M3.5005 17.4991C1.3863 12.5527 1.2768 7.5814 3.1135 2.5H1.7496c-.0784.0538-.1667.1338-.2127.2275C-.0908 6.0898-.3858 9.687.4654 13.4806c.259 1.1554.725 2.1727 1.1907 3.1892.0982.2144.1964.4287.2926.6443.0336.0763.1046.1847.1593.186l1.3925-.0009zM17.5393 14.5c1.0474-3.958.8186-7.9379-.6466-11.9983l1.3828.0088c.0636.0025.1447.1038.1858.1876 1.2906 2.6152 1.7345 5.4706 1.4614 8.5624-.1013 1.1546-.3518 2.2222-.693 3.2395h-1.6904zM13 13.039c-.3466-.1864-.5953-.5484-.7781-1.1061-.1004-.306-.1898-.6158-.2791-.9253-.1325-.459-.2649-.9177-.4329-1.3634-.2534-.67-.1014-1.1687.3773-1.6761l.0858-.0908c.4368-.4637.4464-.474 1.1436-.2867.6573.1762 1.316.2587 1.9547-.0725.844-.4387 1.188-1.58.7147-2.3574-.432-.7125-1.4841-.8912-2.2747-.3263-.3814.2725-.7147.635-1.0014 1.01-.339.4426-.6507.906-.9723 1.3841a68.173 68.173 0 01-.4251.627c-.0596-.2012-.1142-.3978-.1677-.5903-.1138-.4099-.2228-.802-.3643-1.182-.3213-.865-.9853-1.3325-1.908-1.4312-1.0214-.11-1.9787.155-2.9147.515-.6494.25-.696.3287-.7054 1.0349.0689-.0197.1375-.0405.206-.0613.1491-.0452.298-.0903.4487-.1237 1.0667-.2425 1.7214.0975 2.056 1.12.2773.8542.5199 1.7203.7623 2.586l.091.3251c.032.1137.0107.2812-.056.3762-.1088.1574-.2323.3048-.3558.4521-.0942.1124-.1884.2248-.2761.3416-.236.315-.5054.3975-.8734.22-.1773-.0862-.3853-.1225-.584-.1512-.7493-.1075-1.468-.075-2.0267.5375-.5133.5637-.5947 1.5224-.1773 2.0849.4133.5587 1.22.7499 1.9493.3912.34-.1675.672-.42.9067-.7125.3722-.4652.7138-.9543 1.0553-1.4433.1465-.2099.2931-.4199.442-.6278.0622-.0884.1262-.1751.2043-.2809l.0491-.0666c.0562.198.1089.3905.1603.5787.1146.4189.2234.8168.353 1.2075.3214.9649 1.0401 1.4337 2.0374 1.5261.5429.0504 1.0652-.0059 1.5755-.1247V13.039z" />
  </g>
  <path fill-rule="evenodd" clip-rule="evenodd" d="M11 15h3v-3h2v3h3v2h-3v3h-2v-3h-3v-2z" fill="#1651B0" />
</svg>
