<svg xmlns="http://www.w3.org/2000/svg" viewBox="0 0 20 20">
  <g fill="#333333">
    <path d="M0 4V3c0-1.6568 1.3432-3 3-3h1v1H3c-1.1046 0-2 .8954-2 2v1H0zM1.924 16.4792c-.595-.5949-.5588-1.5433.0798-2.0918l6.905-5.9175a4.9807 4.9807 0 01-.4092-1.9812c0-2.7618 2.2385-5 5-5a4.973 4.973 0 011.4529.2147l.7965.243-3.1888 3.1889c-.1938.1937-.1938.5131 0 .7068l1.586 1.586c.1936.1937.5137.1937.7064.0005l3.1893-3.1893.2429.7965c.1421.4655.2148.954.2148 1.4529 0 1.3245-.5149 2.5287-1.3555 3.4233a5.0083 5.0083 0 00-.8536-.5577c.7459-.7266 1.2091-1.742 1.2091-2.8656 0-.095-.0033-.1894-.0098-.2831l-1.9296 1.9296c-.5829.5844-1.5368.5844-2.1212 0l-1.5859-1.586c-.5843-.5842-.5843-1.5368 0-2.121l1.9296-1.9297a4.0903 4.0903 0 00-.2831-.0098c-2.2092 0-4 1.7905-4 4 0 .6627.162 1.3017.4675 1.8762l.188.3537-7.5197 6.4456c-.1776.1701-.1811.4311-.0042.6079l1.586 1.586c.1823.1828.4554.1723.624-.0241L9 12.4814V14h.0155l-3.4152 3.9851c-.5481.6383-1.497.675-2.0907.0797L1.924 16.4792zM17 0h-1v1h1c1.1046 0 2 .8954 2 2v1h1V3c0-1.6568-1.3431-3-3-3zM20 16v1c0 1.6569-1.3431 3-3 3h-1v-1h1c1.1046 0 2-.8954 2-2v-1h1zM3 20h1v-1H3c-1.1046 0-2-.8954-2-2v-1H0v1c0 1.6569 1.3432 3 3 3zM8 1V0h4v1H8zM8 19v1h4v-1H8zM19 8h1v4h-1V8zM1 8H0v4h1V8z" />
    <path fill-rule="evenodd" clip-rule="evenodd" d="M12.6362 17.3494l-.035.934c-.007.226.148.459.359.539 0 0 .116.044.294.095.178.05.3.073.3.073.225.041.479-.078.59-.277l.455-.811c.018-.031.089-.076.14-.079l.32-.037c.035-.006.115.02.139.046l.631.682c.158.171.435.222.657.114l.511-.286c.189-.121.293-.394.232-.611l-.254-.923c.001-.05.021-.099.045-.126l.198-.254c.021-.029.096-.066.133-.065l.929.035c.228.009.463-.145.544-.359 0 0 .044-.116.095-.294.05-.178.072-.299.072-.299.003-.014.008-.065.009-.079.006-.205-.112-.415-.285-.512l-.811-.456c-.031-.018-.076-.089-.079-.139l-.039-.335c.002-.05.029-.109.047-.124l.682-.631c.166-.154.231-.419.114-.657l-.287-.51c-.125-.195-.388-.296-.611-.232l-.894.251c-.035.01-.116-.009-.155-.043l-.254-.199c-.029-.02-.067-.094-.066-.132l.036-.933c.006-.227-.149-.459-.36-.539 0 0-.116-.045-.294-.095-.178-.051-.299-.073-.299-.073-.226-.042-.479.077-.591.276l-.455.811c-.018.031-.089.076-.14.079l-.319.038c-.035.006-.114-.021-.139-.046l-.631-.683c-.158-.17-.435-.222-.657-.114l-.51.286c-.19.121-.294.393-.233.611l.255.924c-.002.05-.022.099-.046.127l-.198.253c-.021.03-.096.067-.132.066l-.93-.036c-.228-.008-.462.146-.544.359 0 0-.044.116-.094.294-.051.178-.073.3-.073.3-.002.013-.007.065-.008.078-.005.204.112.416.285.513l.811.455c.031.018.076.089.079.14l.038.334c-.002.05-.029.109-.046.124l-.682.632c-.166.153-.232.417-.114.656l.285.511c.125.195.388.296.611.233l.895-.251c.034-.01.116.009.155.043l.253.198c.03.019.067.093.066.13zm.3629-2.893c.024-.826.716-1.48 1.542-1.457.826.024 1.48.716 1.457 1.542-.024.827-.716 1.481-1.542 1.457-.827-.023-1.481-.716-1.457-1.542z" />
  </g>
</svg>
