<svg xmlns="http://www.w3.org/2000/svg" viewBox="0 0 21 20">
  <g fill-rule="evenodd" clip-rule="evenodd">
    <path d="M2.2365 12.9113h-.2999c-.6454 0-1.1801.4735-1.2758 1.0921a1.3043 1.3043 0 00-.0153.0257v4.0466c0 .7131.578 1.2912 1.2911 1.2912h16.7846c.7131 0 1.2912-.5781 1.2912-1.2912v-3.8733c0-.7131-.5781-1.2911-1.2912-1.2911h-3.5735l3.7341-2.1559c.6175-.3566.8291-1.1462.4726-1.7637l-1.9367-3.3545c-.3565-.6175-1.1462-.829-1.7637-.4726L2.2365 12.9113z" fill="#333333" />
    <path d="M19.421 10.1505a1.2892 1.2892 0 00-.0667-1.1588l-1.9367-3.3545c-.3565-.6175-1.1461-.829-1.7637-.4726L2.2364 12.9113h-.0001L15.654 5.1645c.6175-.3565 1.4072-.145 1.7637.4726l1.9367 3.3544c.2124.368.2232.797.0666 1.159zM11.5042 8.306l-5.0317 2.905.9816 1.7003h6.4024l4.7025-2.715a.6457.6457 0 00.2363-.8819L16.8586 5.96a.6456.6456 0 00-.8819-.2363l-3.9135 2.2595 2.5823 4.4725-.5591.3228-2.5822-4.4725zm-5.5908 3.2278l.7953 1.3775H3.5275l2.386-1.3775zm-3.9768 2.023H7.101v5.1645H1.9366a.6455.6455 0 01-.6456-.6455v-3.8734c0-.3566.289-.6456.6456-.6456zm11.6201 5.1645h-5.81v-5.1645h5.81v5.1645zm.6456-5.1645v5.1645h4.5189a.6456.6456 0 00.6456-.6455v-3.8734a.6456.6456 0 00-.6456-.6456h-4.5189zm-9.6835 2.5823a.6455.6455 0 11-1.291 0 .6455.6455 0 011.291 0zm.6456 0c0 .713-.578 1.2911-1.2911 1.2911s-1.2912-.5781-1.2912-1.2911c0-.7131.5781-1.2912 1.2912-1.2912.713 0 1.291.5781 1.291 1.2912z" fill="#FFFFFF" />
    <path d="M1 4h3V1h2v3h3v2H6v3H4V6H1V4z" fill="#1651B0" />
  </g>
</svg>
