<svg xmlns="http://www.w3.org/2000/svg" viewBox="0 0 20 20">
  <path d="M15.0059 1C16.1071 1 17 1.8926 17 2.9951V10h-1.5V3.4326c-.0001-.5154-.4131-.9325-.9229-.9326H3.4229c-.5086.0001-.9227.4182-.9229.9326v13.1348c.0002.5154.4131.9325.9228.9326H11V19H2.9941C1.8928 19 1 18.1073 1 17.0049V2.9951C1 1.8933 1.8946 1 2.9941 1H15.006zm-4.9893 8H5v6h6v1H5c-.5523 0-1-.4477-1-1V9c0-.5523.4477-1 1-1h5.748l-.7314 1zm3.9863-1.54l-5.001 6.833-3.6464-2.668 1.0674-1.459 2.1875 1.6016 3.9335-5.375 1.459 1.0674z" fill="#333333" />
  <path fill-rule="evenodd" clip-rule="evenodd" d="M12 14h3v-3h2v3h3v2h-3v3h-2v-3h-3v-2z" fill="#1651B0" />
</svg>
