<svg xmlns="http://www.w3.org/2000/svg" viewBox="0 0 20 20">
  <g fill="#333333">
    <path d="M7 6.1053c1.1046 0 2-.919 2-2.0527C9 2.919 8.1046 2 7 2s-2 .919-2 2.0526c0 1.1337.8954 2.0527 2 2.0527zM8.4513 6.9129c.175.5824.5344 1.0819 1.0082 1.4266-1.593.4052-3.1172 1.594-3.1261 4.5814C4.6004 12.8203 3 12.4369 3 10.8947c0-3.421 2.3083-4.1052 4-4.1052.5223 0 1.0094.0337 1.4513.1234zM13 6.1053c0 1.1336-.8954 2.0526-2 2.0526s-2-.919-2-2.0526c0-1.1337.8954-2.0527 2-2.0527s2 .919 2 2.0527z" />
    <path d="M14.993 12.5712c-1.6282.226-3.3822.9978-4.4334 2.4139C8.7424 14.904 7 14.5564 7 12.9474c0-3.421 2.3083-4.1053 4-4.1053 2.2692 0 3.8748.6371 3.993 3.7291z" />
  </g>
  <path d="M10 19c0-4 3.2727-5.6 5.7273-5.6V11L19 14.2l-3.2727 3.2V15c-1.8288-.0012-4.9091 1.2-4.9091 4H10z" fill="#1651B0" />
</svg>
