<svg xmlns="http://www.w3.org/2000/svg" viewBox="0 0 20 20">
  <path fill-rule="evenodd" clip-rule="evenodd" d="M6.2734 12.0195A5.4775 5.4775 0 015 8.5C5 5.4624 7.4624 3 10.5 3c2.869 0 5.225 2.1967 5.4776 5H19v1h-3.0224c-.2526 2.8033-2.6086 5-5.4776 5a5.4775 5.4775 0 01-3.5195-1.2734l-2.127 2.127L7 17H2v-5l2.1464 2.1464 2.127-2.1269zm1.4178-.0035A4.481 4.481 0 0010.5 13c2.3163 0 4.2238-1.75 4.4725-4h-1.0079c-.2427 1.6961-1.7014 3-3.4646 3a3.4845 3.4845 0 01-2.096-.6968l-.7128.7128zm.0056-1.4199l-.7127.7127A4.4808 4.4808 0 016 8.5C6 6.0147 8.0147 4 10.5 4c2.3163 0 4.2238 1.75 4.4725 4h-1.0079c-.2427-1.6962-1.7014-3-3.4646-3C8.567 5 7 6.567 7 8.5c0 .7862.2592 1.5118.6968 2.0961zm1.4245-.0103A2.488 2.488 0 0010.5 11c1.2095 0 2.2184-.8589 2.45-2h-2.2429l-1.5858 1.5858zM12.95 8H10.2929l-.1465.1464-1.7322 1.7323A2.4884 2.4884 0 018 8.5C8 7.1193 9.1193 6 10.5 6c1.2095 0 2.2184.8589 2.45 2z" fill="#333333" />
</svg>
