<svg xmlns="http://www.w3.org/2000/svg" viewBox="0 0 20 20">
  <path fill-rule="evenodd" clip-rule="evenodd" d="M7.6968 10.5961A3.4845 3.4845 0 017 8.5C7 6.567 8.567 5 10.5 5c1.7632 0 3.2219 1.3038 3.4646 3H19v1h-5.0354c-.2427 1.6961-1.7014 3-3.4646 3a3.4845 3.4845 0 01-2.096-.6968l-3.5504 3.5504L7 17H2v-5l2.1464 2.1464 3.5504-3.5503zm1.4245-.0103A2.488 2.488 0 0010.5 11c1.2095 0 2.2184-.8589 2.45-2h-2.2429l-1.5858 1.5858zM12.95 8H10.2929l-.1465.1464-1.7322 1.7323A2.4884 2.4884 0 018 8.5C8 7.1193 9.1193 6 10.5 6c1.2095 0 2.2184.8589 2.45 2z" fill="#333333" />
</svg>
