<svg xmlns="http://www.w3.org/2000/svg" viewBox="0 0 20 20">
  <defs>
    <clippath id="clip0_23297_809">
      <path fill="#fff" d="M0 0h20v20H0z" />
    </clippath>
  </defs>
  <g fill-rule="evenodd" clip-rule="evenodd" fill="#333333" clip-path="url(#clip0_23297_809)">
    <path d="M12.7645 5.7518c.2246.1114.3534.2915.3873.541.0347.2504-.0346.5047-.2078.761-.1847.2696-.4146.4605-.687.5734-.2725.1147-.5159.1188-.732.0175-.1461-.0559-.3134-.1313-.5002-.2279l-.2296-.1021-.353-.157a34.5749 34.5749 0 01-.729-.3384L6.8192 9.713c.113.2722.2232.5184.3296.7379.1063.2195.196.4116.268.5738.0966.1868.172.3541.2279.5001.102.2153.097.4596-.0167.7312-.1138.2733-.3038.5023-.5733.687-.2573.1741-.5115.2434-.762.2086-.2495-.0338-.4295-.1626-.541-.3872L1.1928 2.7573c-.089-.1792-.1022-.378-.0397-.6001.0617-.2212.1898-.429.3824-.6217.1936-.1936.3996-.3199.6217-.3824.222-.0625.4219-.0501.601.0388l10.0063 4.56zm-6.5532-.5287c.6296.2902 1.2429.5747 1.8364.85L6.0731 8.0477a483.2487 483.2487 0 01-.8491-1.8373c-.291-.6305-.5611-1.2311-.8127-1.7992.569.2508 1.1686.5217 1.8.8119z" />
    <path d="M6.8285 17.5567l-1.4143-1.4142 9.8995-9.8994-1.4142-1.4143 4.9502-.7075-.7076 4.9502-1.4142-1.4142-9.8994 9.8994z" />
  </g>
</svg>
