<svg xmlns="http://www.w3.org/2000/svg" viewBox="0 0 20 20">
  <path fill-rule="evenodd" clip-rule="evenodd" d="M13.9668 13.8318c.0642.2565.0353.4937-.0867.7118-.1219.218-.3048.3591-.5488.4232-.2567.0642-.4942.0353-.7124-.0865-.2183-.1219-.3595-.3047-.4237-.5483-.0513-.154-.1027-.3399-.154-.558a182.5665 182.5665 0 01-.183-.6445 42.96 42.96 0 01-.2214-.8176H8.3632a19.228 19.228 0 00-.231.8176c-.0642.2501-.122.465-.1734.6445-.0513.2181-.1027.404-.154.558-.0642.2436-.2054.4264-.4237.5483-.2182.1218-.4557.1507-.7124.0865-.244-.0641-.4269-.2052-.5489-.4232-.1219-.2181-.1508-.4553-.0866-.7118l3.081-11.1584c.0514-.2053.1573-.3688.3177-.4906C9.5924 2.0609 9.7818 2 10 2c.2182 0 .4076.061.5681.1828.1604.1218.2663.2853.3177.4906l3.081 11.1584zm-2.8499-3.3668a664.9066 664.9066 0 00-.5585-2.0585A171.9957 171.9957 0 0010 6.4056a172.5715 172.5715 0 00-.5584 2.0009 653.518 653.518 0 00-.5585 2.0585h2.2338zM17 18v-2H3v2h14z" fill="#333333" />
</svg>
