<svg xmlns="http://www.w3.org/2000/svg" viewBox="0 0 100 100">
  <path fill="#fff" d="M0 0h100v100H0z" />
  <path d="M100 0v100H0V0h100zM.5 99.5h99V.5H.5v99z" fill="#333" />
  <path d="M49.9951 67.9951h-.5v-2.7002h.5v2.7002zm1.0059-5.2842l.0136.1758.0049.0733A13.177 13.177 0 0150 63c-.0016 0-.0033-.001-.0049-.001v1.3965h-.5v-1.4053a13.4976 13.4976 0 01-.5156-.0302l.0381-.4981a12.6688 12.6688 0 001.9648 0l.0186.249zm-5.7862-1.1591c.5995.2486 1.223.4517 1.8653.6054l-.0586.2422.001.001-.0586.2422a12.8972 12.8972 0 01-1.9405-.6299l.1914-.4609zm9.7608.4609c-.6238.2587-1.2721.47-1.9404.6299l-.0577-.2422-.0576-.2432a12.4079 12.4079 0 001.8653-.6054l.1904.4609zM49.9951 40H50c5.5228 0 10 4.4772 10 10h1.7002v.5h-1.7129C59.7268 55.7905 55.3552 60 50 60c-.0016 0-.0033-.001-.0049-.001v1.6963h-.5v-1.708c-5.1226-.2547-9.2301-4.364-9.4824-9.4873h-1.7129V50H40c0-5.3536 4.2068-9.7253 9.4951-9.9883v-1.7168h.5V40zm-8.1133 19.5059a12.5566 12.5566 0 001.587 1.1543l-.2618.4248a13.0374 13.0374 0 01-1.6484-1.2022l.3232-.3769zm16.5586.3769a13.0302 13.0302 0 01-1.6484 1.2022l-.2608-.4248a12.5566 12.5566 0 001.587-1.1543l.3222.3769zM49.9951 40.5v3.1953h-.5v-3.1816C44.4831 40.7761 40.5 44.9227 40.5 50h3.2002v.5h-3.1865c.2513 4.847 4.135 8.7315 8.9814 8.9854v-3.1905h.5v3.2041c.0016 0 .0033.001.0049.001 5.079 0 9.2263-3.9857 9.4863-9h-3.1865V50H59.5c0-5.2467-4.2533-9.5-9.5-9.5h-.0049zM39.3398 56.5312a12.5566 12.5566 0 001.1543 1.587l-.1894.1621-.1885.1601a13.0366 13.0366 0 01-1.2021-1.6484l.4257-.2608zm21.7452.2608a13.0302 13.0302 0 01-1.2022 1.6484l-.1875-.1601-.1894-.1621a12.5566 12.5566 0 001.1543-1.587l.4248.2608zm-11.0899-1.3965h-.5v-1.8008h.5v1.8008zm-12.1523-2.4756c.1537.6423.3568 1.2658.6054 1.8653l-.2314.0947-.2305.0957a12.911 12.911 0 01-.6299-1.9404l.4864-.1153zm24.5566.0576l.2432.0577a12.8997 12.8997 0 01-.6299 1.9404l-.2305-.0947-.2304-.0957c.2486-.5995.4517-1.223.6054-1.8653l.2422.0576zM49.9951 50h2.7051v.5h-2.7051v2.1953h-.5V50.5h-2.1953V50h2.1953v-2.7051h.5V50zm-12.706-1.002l.249.0196a12.6688 12.6688 0 000 1.9648l-.499.0371a12.9009 12.9009 0 01-.0293-.5195h-1.4102V50H37c0-.3434.0129-.6838.0391-1.0205l.25.0185zm25.6709-.0185c.0261.3367.04.677.04 1.0205h1.4004v.5h-1.4102a13.4752 13.4752 0 01-.0302.5195l-.2491-.0175-.249-.0196a12.6688 12.6688 0 000-1.9648l.249-.0196.2491-.0185zM34.7002 50.5H32V50h2.7002v.5zm11.7002 0h-1.8008V50h1.8008v.5zm9 0h-1.8008V50h1.8008v.5zM68 50.5h-2.7002V50H68v.5zm-29.7822-5.3809l.2304.0957a12.4079 12.4079 0 00-.6054 1.8653l-.2432-.0586-.2432-.0576a12.9123 12.9123 0 01.6299-1.9405l.2315.0957zm23.7949-.0957c.2587.6238.47 1.2721.6299 1.9405l-.2422.0586-.001-.001-.2422.0586a12.4079 12.4079 0 00-.6054-1.8653l.4609-.1914zm-12.0176 1.3721h-.5v-1.8008h.5v1.8008zm-9.501-4.5137a12.5566 12.5566 0 00-1.1543 1.587l-.4257-.2618a13.0366 13.0366 0 011.2021-1.6484l.3779.3232zm19.3887-.3232a13.0374 13.0374 0 011.2022 1.6484l-.4248.2618a12.5566 12.5566 0 00-1.1543-1.587l.3769-.3232zm-16.414-2.2188a12.5566 12.5566 0 00-1.587 1.1543l-.3232-.3779c.4529-.3871.9311-.7456 1.4346-1.0683l.2138-.1338.2618.4257zm13.3232-.4257a13.0366 13.0366 0 011.6484 1.2021l-.3222.3779a12.5566 12.5566 0 00-1.587-1.1543l.2608-.4257zm-9.7695-1.3145l.0576.2432a12.4079 12.4079 0 00-1.8653.6054l-.1914-.4619a12.9123 12.9123 0 011.9405-.6299l.0586.2432zm6.0127-.2432a12.911 12.911 0 011.9404.6299l-.1904.4619a12.4079 12.4079 0 00-1.8653-.6054l.1153-.4864zM49.9951 37H50c.3431 0 .6831.013 1.0195.0391l-.0175.25-.001-.001-.0186.25a12.6688 12.6688 0 00-1.9648 0l-.0196-.25-.0185-.249c.171-.0133.3428-.0238.5156-.0303v-1.4141h.5V37zm0-2.3047h-.5v-2.7002h.5v2.7002z" fill="#333" />
</svg>
