<svg xmlns="http://www.w3.org/2000/svg" viewBox="0 0 200 130">
  <path fill-rule="evenodd" clip-rule="evenodd" d="M30.7692 33.8c0-16.2593 10.7498-28.6 23.077-28.6 12.3271 0 23.0769 12.3407 23.0769 28.6 0 16.2593-10.7498 28.6-23.0769 28.6-12.3272 0-23.077-12.3407-23.077-28.6zm46.1539 28.6h-8.0012c7.9849-6.0667 13.1294-16.7842 13.1294-28.6 0-11.8158-5.1445-22.5333-13.1294-28.6h8.0012c4.5404 0 8.9648 2.7992 12.3713 7.9805 3.3945 5.1631 5.5774 12.4456 5.5774 20.6195 0 8.1739-2.1829 15.4564-5.5774 20.6195C85.8879 59.6008 81.4635 62.4 76.9231 62.4zm38.0119-7.9805c-3.406 5.1813-7.83 7.9805-12.371 7.9805h-2.8728c6.7948-5.1622 11.5318-13.6918 12.7938-23.4h7.727c-.707 6.0449-2.621 11.3807-5.277 15.4195zM64.4114 67.6H43.2809c4.6229 3.5123 8.2936 8.5835 10.5653 14.5242 2.2716-5.9407 5.9424-11.0119 10.5652-14.5242zm-10.5652 42.676c2.2716 5.94 5.9424 11.012 10.5652 14.524H43.2809c4.6229-3.512 8.2936-8.584 10.5653-14.524zM94.563 124.8h77.232c12.327 0 23.077-12.341 23.077-28.6 0-16.2593-10.75-28.6-23.077-28.6H94.563c7.985 6.0667 13.129 16.7842 13.129 28.6 0 11.816-5.144 22.533-13.129 28.6zM79.4872 67.6c-12.3272 0-23.0769 12.3407-23.0769 28.6 0 16.259 10.7497 28.6 23.0769 28.6 12.3271 0 23.0768-12.341 23.0768-28.6 0-16.2593-10.7497-28.6-23.0768-28.6zm76.4688-5.2h8.147c4.54 0 8.964-2.7992 12.371-7.9805 2.655-4.0388 4.569-9.3746 5.277-15.4195h-15.353c-.732 7.0159-2.926 13.3692-6.17 18.304-1.256 1.9097-2.688 3.6314-4.272 5.096zm23.828 1.3579c9.092-5.7262 15.088-17.2021 15.088-29.9579h-20.513c0-18.2032-12.21-33.8-28.205-33.8H53.8462C37.851 0 25.641 15.5968 25.641 33.8c0 11.8158 5.1445 22.5333 13.1294 28.6H28.2051C12.21 62.4 0 77.9968 0 96.2 0 114.403 12.21 130 28.2051 130H171.795C187.79 130 200 114.403 200 96.2c0-15.0242-8.318-28.2728-20.216-32.4421zM51.2821 96.2c0-16.2593-10.7498-28.6-23.077-28.6-12.3271 0-23.0769 12.3407-23.0769 28.6 0 16.259 10.7498 28.6 23.0769 28.6 12.3272 0 23.077-12.341 23.077-28.6zM114.93 62.4h8.147c4.54 0 8.965-2.7992 12.371-7.9805 2.656-4.0388 4.57-9.3746 5.277-15.4195h-15.353c-.731 7.0159-2.925 13.3692-6.17 18.304-1.255 1.9097-2.688 3.6314-4.272 5.096zm20.513 0h8.147c4.54 0 8.965-2.7992 12.371-7.9805 2.655-4.0388 4.569-9.3746 5.277-15.4195h-15.353c-.732 7.0159-2.925 13.3692-6.17 18.304-1.255 1.9097-2.688 3.6314-4.272 5.096zm33.788-28.6c0-13.7581-7.697-24.7105-17.534-27.7545 1.242 1.2676 2.381 2.6968 3.403 4.2505 4.029 6.1291 6.438 14.4466 6.438 23.504h7.693zM90.159 61.5546c9.8365-3.0441 17.533-13.9965 17.533-27.7546h7.693c0-8.1739-2.183-15.4564-5.578-20.6195C106.401 7.9992 101.976 5.2 97.4359 5.2h-8.1468c1.5838 1.4646 3.0166 3.1863 4.2722 5.096C97.5909 16.4251 100 24.7426 100 33.8c0 9.0574-2.4091 17.3749-6.4387 23.504-1.0215 1.5537-2.1603 2.9829-3.4023 4.2506zM120.513 33.8h15.384c0-8.1739-2.182-15.4564-5.577-20.6195C126.914 7.9992 122.489 5.2 117.949 5.2h-8.147c1.584 1.4646 3.017 3.1863 4.272 5.096 4.03 6.1291 6.439 14.4466 6.439 23.504zm20.513 0h15.384c0-8.1739-2.183-15.4564-5.577-20.6195C147.426 7.9992 143.002 5.2 138.462 5.2h-8.147c1.584 1.4646 3.016 3.1863 4.272 5.096 4.03 6.1291 6.439 14.4466 6.439 23.504zm45.885 5.2c-.624 5.9853-2.313 11.4884-4.81 16.0398 3.68-4.088 6.326-9.6401 7.266-16.0398h-2.456zM46.1538 33.8c0-3.8661 1.035-7.2486 2.5734-9.5886 1.5505-2.3583 3.4108-3.4114 5.119-3.4114 1.7081 0 3.5684 1.0531 5.1189 3.4114 1.5385 2.34 2.5734 5.7225 2.5734 9.5886 0 3.8661-1.0349 7.2486-2.5734 9.5886-1.5505 2.3583-3.4108 3.4114-5.1189 3.4114-1.7082 0-3.5685-1.0531-5.119-3.4114-1.5384-2.34-2.5734-5.7225-2.5734-9.5886zm7.6924-18.2c-3.9563 0-7.2242 2.439-9.3859 5.7269-2.1736 3.3061-3.4347 7.7236-3.4347 12.4731s1.2611 9.167 3.4347 12.4731C46.622 49.561 49.8899 52 53.8462 52c3.9562 0 7.2241-2.439 9.3858-5.7269 2.1736-3.3061 3.4347-7.7236 3.4347-12.4731s-1.2611-9.167-3.4347-12.4731C61.0703 18.039 57.8024 15.6 53.8462 15.6zM20.5128 96.2c0-3.8661 1.0349-7.2486 2.5734-9.5886C24.6366 84.2532 26.497 83.2 28.2051 83.2c1.7082 0 3.5685 1.0532 5.1189 3.4114 1.5385 2.34 2.5734 5.7225 2.5734 9.5886 0 3.866-1.0349 7.249-2.5734 9.589-1.5504 2.358-3.4107 3.411-5.1189 3.411-1.7081 0-3.5685-1.053-5.1189-3.411-1.5385-2.34-2.5734-5.723-2.5734-9.589zM28.2051 78c-3.9563 0-7.2242 2.439-9.3858 5.7269-2.1736 3.3061-3.4347 7.7236-3.4347 12.4731 0 4.75 1.2611 9.167 3.4347 12.473 2.1616 3.288 5.4295 5.727 9.3858 5.727 3.9563 0 7.2242-2.439 9.3859-5.727 2.1736-3.306 3.4346-7.723 3.4346-12.473 0-4.7495-1.261-9.167-3.4346-12.4731C35.4293 80.439 32.1614 78 28.2051 78zm46.1632 8.6114c-1.5385 2.34-2.5734 5.7225-2.5734 9.5886 0 3.866 1.0349 7.249 2.5734 9.589 1.5504 2.358 3.4107 3.411 5.1189 3.411 1.7082 0 3.5685-1.053 5.1189-3.411 1.5385-2.34 2.5734-5.723 2.5734-9.589 0-3.8661-1.0349-7.2486-2.5734-9.5886-1.5504-2.3582-3.4107-3.4114-5.1189-3.4114-1.7082 0-3.5685 1.0532-5.1189 3.4114zm-4.267-2.8845C72.263 80.439 75.5309 78 79.4872 78c3.9563 0 7.2242 2.439 9.3858 5.7269 2.1736 3.3061 3.4347 7.7236 3.4347 12.4731 0 4.75-1.2611 9.167-3.4347 12.473-2.1616 3.288-5.4295 5.727-9.3858 5.727-3.9563 0-7.2242-2.439-9.3859-5.727-2.1736-3.306-3.4346-7.723-3.4346-12.473 0-4.7495 1.261-9.167 3.4346-12.4731zm38.3417-10.1654a2.5402 2.5402 0 013.627 0l5.128 5.2c1.001 1.0154 1.001 2.6616 0 3.677a2.539 2.539 0 01-3.626 0l-5.129-5.2c-1.001-1.0154-1.001-2.6616 0-3.677zm76.923 18.2a2.5402 2.5402 0 013.627 0c1.001 1.0154 1.001 2.6616 0 3.677l-5.129 5.1995a2.5378 2.5378 0 01-3.626 0c-1.001-1.0149-1.001-2.6611 0-3.6765l5.128-5.2zm-25.641 5.2l5.129-5.2a2.539 2.539 0 013.626 0c1.001 1.0154 1.001 2.6616 0 3.677l-5.128 5.1995a2.539 2.539 0 01-3.627 0c-1.001-1.0149-1.001-2.6611 0-3.6765zm-11.758-5.2a2.539 2.539 0 00-3.626 0l-5.128 5.2c-1.002 1.0154-1.002 2.6616 0 3.6765a2.5378 2.5378 0 003.626 0l5.128-5.1995c1.001-1.0154 1.001-2.6616 0-3.677zm-24.139 0a2.539 2.539 0 013.626 0c1.001 1.0154 1.001 2.6616 0 3.677l-5.128 5.1995a2.5378 2.5378 0 01-3.626 0c-1.002-1.0149-1.002-2.6611 0-3.6765l5.128-5.2zm8.754-18.2a2.539 2.539 0 00-3.626 0c-1.001 1.0154-1.001 2.6616 0 3.677l5.128 5.2a2.5402 2.5402 0 003.627 0c1.001-1.0154 1.001-2.6616 0-3.677l-5.129-5.2zm16.887 0a2.539 2.539 0 013.626 0l5.128 5.2c1.002 1.0154 1.002 2.6616 0 3.677a2.539 2.539 0 01-3.626 0l-5.128-5.2c-1.001-1.0154-1.001-2.6616 0-3.677zm20.513 0c-1.002 1.0154-1.002 2.6616 0 3.677l5.128 5.2a2.539 2.539 0 003.626 0c1.002-1.0154 1.002-2.6616 0-3.677l-5.128-5.2a2.539 2.539 0 00-3.626 0zm-61.539 36.4005a2.539 2.539 0 013.627 0l5.128 5.2c1.001 1.015 1.001 2.661 0 3.676a2.5378 2.5378 0 01-3.626 0l-5.129-5.2c-1.001-1.015-1.001-2.661 0-3.676zm24.139 0a2.5378 2.5378 0 00-3.626 0c-1.001 1.015-1.001 2.661 0 3.676l5.128 5.2a2.539 2.539 0 003.627 0c1.001-1.015 1.001-2.661 0-3.676l-5.129-5.2zm16.887 0a2.5378 2.5378 0 013.626 0l5.128 5.2c1.002 1.015 1.002 2.661 0 3.676a2.5378 2.5378 0 01-3.626 0l-5.128-5.2c-1.001-1.015-1.001-2.661 0-3.676zm20.513 0c-1.002 1.015-1.002 2.661 0 3.676l5.128 5.2a2.5378 2.5378 0 003.626 0c1.002-1.015 1.002-2.661 0-3.676l-5.128-5.2a2.5378 2.5378 0 00-3.626 0z" fill="#EEEEEE" />
</svg>
