<svg xmlns="http://www.w3.org/2000/svg" viewBox="0 0 20 20">
  <path fill-rule="evenodd" clip-rule="evenodd" d="M1.182 15.7248l.365 1.3631 2.994 1.7287 1.363-.3655 8.2876-14.3543a.7908.7908 0 00-.2892-1.0802l-3.3529-1.9358a.7907.7907 0 00-1.08.2897L1.182 15.7248z" fill="#FFFFFF" />
  <path fill-rule="evenodd" clip-rule="evenodd" d="M7.0103 5.9134l-2.9032 5.0317 4.4698 2.5823 2.9032-5.0317-4.4698-2.5823zm.3226-.559l4.4698 2.5822 2.2581-3.9135a.6458.6458 0 00-.2362-.8819l-3.3523-1.9366a.645.645 0 00-.8813.2363L7.3329 5.3544zm-6.129 10.6223l2.5806-4.4725 4.4698 2.5822-2.5806 4.4726a.6449.6449 0 01-.8813.2363L1.44 16.8586a.6458.6458 0 01-.2361-.8819zm-.5588.9688c.1095.19.2689.3546.4723.4722l3.3524 1.9367a1.905 1.905 0 00.022.0124h1.2467a1.2851 1.2851 0 00.4939-.485l8.3871-14.536c.3563-.6175.1449-1.4071-.4723-1.7636L10.7949.6455c-.6172-.3565-1.4063-.145-1.7627.4726L.6452 15.654v1.2915z" fill="#333333" />
  <path d="M4.107 10.9452l2.9033-5.0317L11.48 8.4958l-2.9032 5.0316-4.4698-2.5822z" fill="#999999" />
  <path d="M7.3329 5.3544l2.258-3.9135a.645.645 0 01.8814-.2363l3.3523 1.9366a.6458.6458 0 01.2362.882l-2.2581 3.9134-4.4698-2.5822z" fill="#666666" />
  <g>
    <path d="M1.547 13.8865l-.365 1.3632 1.8328 3.1746a.7908.7908 0 001.0801.2897l14.5291-8.3884a.7908.7908 0 00.2892-1.0803l-1.9364-3.3539a.7907.7907 0 00-1.0801-.2897L1.547 13.8865z" fill="#FFFFFF" />
    <path fill-rule="evenodd" clip-rule="evenodd" d="M6.4686 11.2109l5.0285-2.905 2.5806 4.4725.5588-.3228-2.5807-4.4725 3.9111-2.2595a.645.645 0 01.8813.2363l1.9355 3.3544a.6459.6459 0 01-.2362.8819L4.0207 18.5885a.6449.6449 0 01-.8813-.2363l-1.9355-3.3544a.6458.6458 0 01.2361-.8819l4.4698-2.5823 2.5807 4.4726.5587-.3228-2.5806-4.4725zM.645 14.029c.1095-.19.2689-.3546.4723-.4722l14.5269-8.3923c.6172-.3565 1.4063-.145 1.7626.4726l1.9355 3.3544c.3563.6176.1449 1.4072-.4723 1.7638L4.3432 19.1476c-.6171.3565-1.4063.1449-1.7626-.4726L.6451 15.3205V14.029z" fill="#333333" />
    <path d="M6.4685 11.2108l5.0285-2.905 2.5807 4.4726-5.0286 2.905-2.5806-4.4726z" fill="#D7D7D7" />
    <path d="M12.0558 7.983l3.9111-2.2594a.645.645 0 01.8813.2363l1.9355 3.3544a.6457.6457 0 01-.2362.8818l-3.9111 2.2595-2.5806-4.4726z" fill="#999999" />
  </g>
  <g>
    <path fill-rule="evenodd" clip-rule="evenodd" d="M18.7097 13.4113H1.9355c-.4362 0-.7904.3539-.7904.7911v3.8733c0 .4373.3542.7912.7904.7912h16.7742c.4361 0 .7903-.3539.7903-.7912v-3.8733c0-.4372-.3542-.7911-.7903-.7911z" fill="#FFFFFF" />
    <path fill-rule="evenodd" clip-rule="evenodd" d="M1.9355 13.5568h5.1613v5.1645H1.9355a.6454.6454 0 01-.6452-.6456v-3.8733a.6454.6454 0 01.6452-.6456zm11.6129 5.1645H7.7419v-5.1645h5.8065v5.1645zm.6451 0h4.5162a.6453.6453 0 00.6451-.6456v-3.8733a.6453.6453 0 00-.6451-.6456h-4.5162v5.1645zM.6451 14.2024c0-.7131.5777-1.2911 1.2904-1.2911h16.7742c.7126 0 1.2903.578 1.2903 1.2911v3.8733c0 .7131-.5777 1.2912-1.2903 1.2912H1.9355c-.7127 0-1.2904-.5781-1.2904-1.2912v-3.8733zm3.871 1.9367a.6453.6453 0 01-.6451.6455.6453.6453 0 01-.6452-.6455.6454.6454 0 01.6452-.6456c.3563 0 .6451.289.6451.6456zm.6452 0c0 .713-.5777 1.2911-1.2903 1.2911-.7127 0-1.2904-.5781-1.2904-1.2911 0-.7131.5777-1.2912 1.2904-1.2912.7126 0 1.2903.5781 1.2903 1.2912z" fill="#333333" />
    <path d="M7.742 13.5568h5.8064v5.1645H7.7419v-5.1645z" fill="#FFFFFF" />
    <path d="M14.1936 13.5568h4.5161c.3563 0 .6452.289.6452.6455v3.8734a.6455.6455 0 01-.6452.6456h-4.5161v-5.1645z" fill="#D7D7D7" />
  </g>
</svg>
