<svg xmlns="http://www.w3.org/2000/svg" viewBox="0 0 20 20">
  <g fill-rule="evenodd" clip-rule="evenodd">
    <path d="M17.9805 18.6955l-.344-.363c-2.041-2.157-4.753-3.344-7.636-3.344-2.884 0-5.596 1.187-7.637 3.344l-.344.363-.726-.687.343-.364c2.233-2.358 5.202-3.656 8.364-3.656 3.161 0 6.13 1.298 8.363 3.656l.344.364-.727.687z" fill="#1651B0" />
    <path d="M18 2.9884l-1.7432 1.7432C12.4813 2.285 7.5247 2.278 3.743 4.7314L2 2.9884v3.889l4 .111-1.5325-1.5325c3.3685-2.0865 7.7009-2.0804 11.0648.0002L14 6.9883h4v9.9996h1v-10h-1V2.9884zM2 16.9878H1v-10h1v10z" fill="#333333" />
  </g>
</svg>
