<svg xmlns="http://www.w3.org/2000/svg" viewBox="0 0 20 20">
  <path fill-rule="evenodd" clip-rule="evenodd" d="M3 4h5.1138c.312.2938.588.6339.8262 1l.0032.0048c.4555.7014.7725 1.498.939 2.2473.0377.1694.0677.3363.0898.4993.0114.084.0208.167.028.2486H7v.8l4.5 4.5L16 8.8V8h-3c0-.0827-.0017-.1656-.005-.2488a6.4786 6.4786 0 00-.04-.5022c-.0901-.7594-.3146-1.5254-.6636-2.249a7.4106 7.4106 0 00-.5825-1H14l3 3v11H6l-3-3V4z" fill="#333333" />
  <path fill-rule="evenodd" clip-rule="evenodd" d="M9.8818 7.25c-.167-.7504-.485-1.548-.9418-2.25H4.3536l2.25 2.25h3.2782zM4 5.3536V14.5l2.25 2.25V7.6036L4 5.3536zM6.75 17V7.75h3.2218c.0115.0845.021.168.0282.25H7v.8l4.5 4.5L16 8.8V17H6.75zM16 7.75h-3.005a6.4702 6.4702 0 00-.0398-.5H15.75L13.5 5h-1.2086c.4647.9634.7086 2.002.7086 3h3v-.25z" fill="#FFFFFF" />
  <path d="M5.5 1.5c5 0 7 4 7 7h3l-4 4-4-4h3c.0015-2.2351-1.5-6-5-6v-1z" fill="#333333" />
</svg>
