<svg xmlns="http://www.w3.org/2000/svg" viewBox="0 0 20 20">
  <path d="M1 1h14l4 4v14H5l-4-4V1z" fill="#333333" />
  <g fill="#FFFFFF">
    <path d="M2 10.3536V14.5l3.25 3.25v-4.1464L2 10.3536zM5.75 18H18V5.75h-4.25v8h-8V18zM17.75 5.25L14.5 2h-4.1464l3.25 3.25H17.75z" />
  </g>
  <g fill="#999999">
    <path d="M2 2.3535v7.293l3.25 3.25v-7.293L2 2.3536zM9.6464 2H2.3537l3.25 3.25h7.2929L9.6465 2zM13.25 13.25h-7.5v-7.5h7.5v7.5z" />
  </g>
  <g>
    <path fill="#1651B0" d="M0 0h10v8H0z" />
    <path fill-rule="evenodd" clip-rule="evenodd" d="M9 4H7v1h2V4zM6 4H4v1h2V4zM3.0005 4H1v1h2.0007l-.0002-1zM4 6h2v1H4V6zm5 1H7V6h2v1zM3.0008 6H1v1h2.001l-.0002-1z" fill="#FFFFFF" />
    <path fill-rule="evenodd" clip-rule="evenodd" d="M4 1h2v2H4V1zm3 0v2h2V1H7zM3.0001 1H1v2h2.0004l-.0003-2z" fill="#90CEF1" />
  </g>
</svg>
