<svg xmlns="http://www.w3.org/2000/svg" viewBox="0 0 20 20">
  <g fill-rule="evenodd" clip-rule="evenodd">
    <path d="M18 5c0 1.1046-1.567 2-3.5 2S11 6.1046 11 5V2c0-1.1 1.6012-1.9986 3.5-2 1.8988-.0014 3.5.9 3.5 2v3zM3 8v2H1v6.312L3.678 19H19v-6.358l-1.1116-1.1391C17.9613 11.3422 18 11.1737 18 11c0-1.1046-1.567-2-3.5-2-1.2955 0-2.4266.4022-3.0318 1H10V8c0-1.1-1.6012-2.0014-3.5-2-1.8988.0014-3.5.9-3.5 2z" fill="#333333" />
    <path d="M15 7h-1v1.5h1V7z" fill="#333333" />
    <path d="M14.5 3c1.3807 0 2.5-.4477 2.5-1s-1.1193-1-2.5-1-2.5.4477-2.5 1 1.1193 1 2.5 1zm0 3c1.3807 0 2.5-.4477 2.5-1V3s-1.12.6025-2.5.6025S12 3 12 3v2c0 .5523 1.1193 1 2.5 1zm-8 3C7.8807 9 9 8.5523 9 8S7.8807 7 6.5 7 4 7.4477 4 8s1.1193 1 2.5 1zM9 11c0 .5523-1.1193 1-2.5 1S4 11.5523 4 11V9s1.12.6025 2.5.6025S9 9 9 9v2zm8 0c0 .5523-1.1193 1-2.5 1s-2.5-.4477-2.5-1c0-.4838.8589-.8873 2-.98V11h1v-.98c1.1411.0927 2 .4962 2 .98zm-14 .0058l-.467.0003.6467.6283c-.1156-.1976-.1786-.4089-.1797-.6286zm.9139 1.3419l.8751.8504h13.189l-.8664-.8665c-.641.4102-1.5735.6684-2.6116.6684-1.9321 0-3.4985-.8946-3.5-1.9984l-1 .0005c-.002 1.1036-1.5682 1.998-3.5 1.998-1.0244 0-1.946-.2515-2.5861-.6524zM1.978 15.6361l2.311 2.37v-4.308l-2.311-2.249v4.187zm16.001-1.938H4.789v4.308l13.19-.006v-4.302z" fill="#FFFFFF" />
  </g>
</svg>
