<svg xmlns="http://www.w3.org/2000/svg" viewBox="0 0 20 20">
  <path d="M5 4h-.5C3.6716 4 3 4.6716 3 5.5v12c0 .8284.6716 1.5 1.5 1.5h11c.8284 0 1.5-.6716 1.5-1.5v-12c0-.8284-.6716-1.5-1.5-1.5H15v3H5V4z" fill="#FFFFFF" />
  <g fill="#333333">
    <path d="M4.5 4H5v1h-.5a.5.5 0 00-.5.5v12a.5.5 0 00.5.5h11a.5.5 0 00.5-.5v-12a.5.5 0 00-.5-.5H15V4h.5c.8284 0 1.5.6716 1.5 1.5v12c0 .8284-.6716 1.5-1.5 1.5h-11c-.8284 0-1.5-.6716-1.5-1.5v-12C3 4.6716 3.6716 4 4.5 4z" />
    <path d="M6 8h8v1H6V8zM6 10h6v1H6v-1zM6 15h6v1H6v-1zM14 13H6v1h8v-1z" />
  </g>
  <path fill-rule="evenodd" clip-rule="evenodd" d="M8 3c0-1.1046.8954-2 2-2s2 .8954 2 2h1c.5523 0 1 .4477 1 1v2H6V4c0-.5523.4477-1 1-1h1zm2 1c.5523 0 1-.4477 1-1s-.4477-1-1-1-1 .4477-1 1 .4477 1 1 1z" fill="#333333" />
</svg>
