<svg xmlns="http://www.w3.org/2000/svg" viewBox="0 0 110 140">
  <g fill="#EEEEEE">
    <path fill-rule="evenodd" clip-rule="evenodd" d="M55 0c-8.6788 0-15.7143 6.9645-15.7143 15.5556h-7.8571c-4.3394 0-7.8572 3.4822-7.8572 7.7777v15.5556h62.8572V23.3333c0-4.2955-3.5178-7.7777-7.8572-7.7777h-7.8571C70.7143 6.9645 63.6788 0 55 0zm7.8571 15.5556c0 4.2955-3.5177 7.7777-7.8571 7.7777-4.3394 0-7.8571-3.4822-7.8571-7.7777 0-4.2956 3.5177-7.7778 7.8571-7.7778 4.3394 0 7.8571 3.4822 7.8571 7.7778z" />
    <path d="M11.7857 23.3333h3.9286v7.7778h-3.9286c-2.1697 0-3.9286 1.7411-3.9286 3.8889v93.333c0 2.148 1.759 3.889 3.9286 3.889h86.4286c2.1697 0 3.9287-1.741 3.9287-3.889V35c0-2.1478-1.759-3.8889-3.9287-3.8889h-3.9286v-7.7778h3.9286C104.723 23.3333 110 28.5567 110 35v93.333c0 6.444-5.277 11.667-11.7857 11.667H11.7857C5.2767 140 0 134.777 0 128.333V35c0-6.4433 5.2766-11.6667 11.7857-11.6667z" />
    <path d="M23.5714 62.2222v-7.7778h62.8572v7.7778H23.5714zM70.7143 77.7778V70H23.5714v7.7778h47.1429zM23.5714 116.667v-7.778h47.1429v7.778H23.5714zM23.5714 101.111v-7.7777h62.8572v7.7777H23.5714z" />
  </g>
</svg>
