<svg xmlns="http://www.w3.org/2000/svg" viewBox="0 0 20 20">
  <g fill="#333333">
    <path d="M16.364 16.364l-1.4143-1.4143c-2.7336 2.7337-7.1658 2.7337-9.8994 0-1.271-1.271-1.9842-2.9424-2.046-4.7023-.0677-1.9307.653-3.8043 2.046-5.1972 2.6498-2.6498 6.8955-2.731 9.6432-.2437L12.5 7H18V1.5l-1.8909 1.8909C12.579.1233 7.0671.205 3.6361 3.636 1.7978 5.4741.921 7.9095 1.0055 10.3175c.077 2.1963.9538 4.3699 2.6304 6.0465 3.5148 3.5147 9.2132 3.5147 12.728 0z" />
    <path d="M11 12.8293c1.1652-.4118 2-1.5231 2-2.8293s-.8348-2.4175-2-2.8293V4H9v3.1707C7.8348 7.5825 7 8.6937 7 10c0 1.3062.8348 2.4175 2 2.8293V16h2v-3.1707z" />
  </g>
</svg>
