<svg xmlns="http://www.w3.org/2000/svg" viewBox="0 0 20 20">
  <path d="M18.5695 12.0923a.2861.2861 0 00-.421 0l-4.3092 4.2882-1.9703-2.1013a.292.292 0 00-.4269 0l-1.3539 1.3994c-.1176.1237-.1176.325 0 .4494l3.5129 3.7837c.0683.0719.1604.0969.2494.0844.0915.0143.1871-.01.2577-.0844l5.8045-5.9887c.1164-.1225.1164-.3213 0-.4438l-1.3432-1.3869z" fill="#009400" />
  <g fill="#333333">
    <path d="M18.1318 11.0202a1.2855 1.2855 0 011.1589.3794l.5503.5681c.0333-.2322.0607-.4678.0817-.7072.2731-3.0918-.1708-5.9472-1.4614-8.5624-.0412-.0838-.1222-.1851-.1858-.1876l-1.3829-.0088c1.0367 2.873 1.4545 5.7055 1.2392 8.5185zM18.0867 17.2438l-.2475.2554c.0761-.0099.1738-.1015.2143-.1865l.0332-.0689zM11.5377 7.2285c-.1389.2064-.2796.4156-.4251.627a35.258 35.258 0 01-.1679-.5908c-.1139-.4099-.2227-.8015-.3641-1.1816-.3214-.865-.9854-1.3324-1.908-1.4311-1.0214-.11-1.9788.155-2.9148.515-.6494.25-.696.3287-.7054 1.0349.069-.0197.1376-.0405.2062-.0613.149-.0452.2978-.0903.4485-.1237 1.0667-.2425 1.7214.0975 2.056 1.12.2774.8542.5199 1.7204.7623 2.586l.0911.3251c.032.1137.0107.2812-.056.3762-.1089.1574-.2324.3048-.3559.4521-.0942.1124-.1884.2248-.2761.3416-.236.315-.5053.3975-.8733.22-.1774-.0862-.3854-.1225-.584-.1512-.7494-.1075-1.4681-.075-2.0268.5375-.5133.5637-.5947 1.5224-.1773 2.0849.4133.5587 1.22.7499 1.9494.3912.34-.1675.672-.42.9066-.7125.3723-.4652.7139-.9544 1.0553-1.4434.1466-.2099.2932-.4198.4421-.6277.0621-.0884.1261-.1751.2042-.2809l.0491-.0666c.0563.198.1089.3905.1604.5787.1145.419.2233.8168.353 1.2075.172.5166.458.8911.8397 1.1416l.495-.5116c.5114-.532 1.3603-.5337 1.8721.005l.0045.0048.6542.6976c.3403-.0929.6758-.2107 1.0093-.34.6093-.235.676-.3337.6906-1.0249-.0601.0168-.1198.0339-.1792.0508-.1339.0381-.266.0758-.3981.1104-1.1547.2937-1.7867-.0375-2.1534-1.1562-.1004-.3061-.1898-.6158-.2791-.9254-.1325-.459-.2649-.9176-.4329-1.3633-.2533-.67-.1013-1.1687.3774-1.6761l.0857-.0908c.4368-.4637.4465-.474 1.1436-.2867.6574.1762 1.316.2587 1.9547-.0725.844-.4387 1.188-1.58.7147-2.3574-.432-.7125-1.484-.8912-2.2747-.3263-.3814.2725-.7147.635-1.0014 1.01-.339.4426-.6506.906-.9722 1.3841z" />
    <path fill-rule="evenodd" clip-rule="evenodd" d="M3.1135 2.5c-1.8367 5.0814-1.7272 10.0527.387 14.9991L2.108 17.5c-.0547-.0013-.1257-.1097-.1593-.186C1.3962 16.0762.779 14.8796.4654 13.4805-.3857 9.687-.0908 6.0897 1.537 2.7275c.046-.0937.1343-.1737.2127-.2275h1.3639z" />
  </g>
  <path fill="#333333" d="M0 0h10v8H0z" />
  <path fill-rule="evenodd" clip-rule="evenodd" d="M9 4H7v1h2V4zM6 4H4v1h2V4zM3.0005 4H1v1h2.0007l-.0002-1zM4 6h2v1H4V6zm5 1H7V6h2v1zM3.0008 6H1v1h2.001l-.0002-1z" fill="#FFFFFF" />
  <path fill-rule="evenodd" clip-rule="evenodd" d="M4 1h2v2H4V1zm3 0v2h2V1H7zM3.0001 1H1v2h2.0004l-.0003-2z" fill="#999999" />
</svg>
