<svg xmlns="http://www.w3.org/2000/svg" viewBox="0 0 20 20">
  <g fill="#333333">
    <path d="M3.636 16.364c3.5148 3.5147 9.2132 3.5147 12.728 0l-1.4143-1.4143c-2.7336 2.7337-7.1658 2.7337-9.8994 0-1.271-1.271-1.9842-2.9424-2.046-4.7023-.0677-1.9307.653-3.8043 2.046-5.1972 2.6498-2.6498 6.8955-2.731 9.6432-.2437L12.5 7H18V1.5l-1.8909 1.8909C12.579.1233 7.0671.205 3.6361 3.636 1.7978 5.4741.921 7.9095 1.0055 10.3175c.077 2.1963.9538 4.3699 2.6304 6.0465z" />
    <path d="M15 13.6943l-2.1855-4.2225-1.8099 1.3164L15 13.6943zM14.4109 14H6.5891l-1.1548.8399-.3493-.48.915-.6656 2.1855-4.2225 1.8099 1.3164L6 13.6943l-.158.3056.747.0001 3.911-2.8447L14.4109 14zM8.4616 8.9383L10.5 5l2.0385 3.9385L10.5 10.4212 8.4616 8.9383l-.2761.5335-2.5183-1.8319.3494-.48 2.445 1.7784zM15.5659 14.8399L14.4109 14l.7474-.0001L15 13.6943l.9153.6656-.3494.48zM15.333 7.64l-2.5185 1.8318-.276-.5333 2.4451-1.7786.3494.48z" />
  </g>
</svg>
