<svg xmlns="http://www.w3.org/2000/svg" viewBox="0 0 46 60">
  <path d="M31.9496 19.4852l1.4142 1.4142-4.5962 1.0607 1.0606-4.5962 1.4143 1.4142 6.3639-6.3639.7071.7071-6.3639 6.3639z" fill="#333333" />
  <path d="M5 18h9v21h19v9H5V18z" fill="#EEEEEE" />
  <path fill-rule="evenodd" clip-rule="evenodd" d="M17 18h-4v22h20v-6L17 18zm2 18c1.6569 0 3-1.3431 3-3s-1.3431-3-3-3-3 1.3431-3 3 1.3431 3 3 3z" fill="#D7D7D7" />
  <g fill="#999999" fill-rule="evenodd" clip-rule="evenodd">
    <path d="M22 33c0 1.6569-1.3431 3-3 3s-3-1.3431-3-3 1.3431-3 3-3 3 1.3431 3 3zm-1 0c0 1.1046-.8954 2-2 2s-2-.8954-2-2 .8954-2 2-2 2 .8954 2 2z" />
    <path d="M33 48V34L17 18H5v30h28zM6 19v28h26v-7H13V19H6zm8 20h18v-4.5858L16.5858 19H14v20z" />
  </g>
</svg>
