<svg xmlns="http://www.w3.org/2000/svg" viewBox="0 0 46 60">
  <g fill="#333333">
    <path d="M12.7676 14.7678l3.8891-.3536L15.2425 13l4.2426-4.2426 1.4142 1.4142.7071-.7071-2.1213-2.1214-4.9498 4.9498-1.4142-1.4142-.3535 3.8891zM36.8092 38.8094l3.8891-.3536-1.4142-1.4142 4.9497-4.9497-2.1213-2.1213-.7071.7071 1.4142 1.4142-4.2426 4.2426-1.4142-1.4142-.3536 3.8891zM33.6272 22.8995l.7071-.7071 2.8285 2.8284-.7071.7071-2.8285-2.8284zM26.5562 14.4142l-.7071.7071 2.8284 2.8284.7071-.7071-2.8284-2.8284zM39.2841 28.5563l.7071-.7071 1.4142 1.4142-.7071.7072-1.4142-1.4143zM32.213 20.0711l-.7071.7071 1.4142 1.4142.7071-.7071-1.4142-1.4142zM23.7277 13l.7071-.7071 1.4143 1.4142-.7072.7071L23.7277 13zM37.8699 25.7279l-.7071.7071 1.4142 1.4142.7071-.7071-1.4142-1.4142zM29.3846 18.6568l.7071-.7071 1.4142 1.4143-.7071.7071-1.4142-1.4143zM22.3135 10.1716l-.7071.7071 1.4142 1.4142.7071-.7071-1.4142-1.4142z" />
  </g>
  <path d="M5 18h9v21h19v9H5V18z" fill="#EEEEEE" />
  <path fill-rule="evenodd" clip-rule="evenodd" d="M17 18h-4v22h20v-6L17 18zm2 18c1.6569 0 3-1.3431 3-3s-1.3431-3-3-3-3 1.3431-3 3 1.3431 3 3 3z" fill="#D7D7D7" />
  <g fill="#999999" fill-rule="evenodd" clip-rule="evenodd">
    <path d="M22 33c0 1.6569-1.3431 3-3 3s-3-1.3431-3-3 1.3431-3 3-3 3 1.3431 3 3zm-1 0c0 1.1046-.8954 2-2 2s-2-.8954-2-2 .8954-2 2-2 2 .8954 2 2z" />
    <path d="M33 48V34L17 18H5v30h28zM6 19v28h26v-7H13V19H6zm8 20h18v-4.5858L16.5858 19H14v20z" />
  </g>
</svg>
