<svg xmlns="http://www.w3.org/2000/svg" viewBox="0 0 20 20">
  <g fill="none" fill-rule="evenodd">
    <path d="M18.5 10c0 4.6941-3.8059 8.5-8.5 8.5-4.6941 0-8.5-3.8059-8.5-8.5 0-4.6941 3.8059-8.5 8.5-8.5 4.6941 0 8.5 3.8059 8.5 8.5z" fill="#DD5228" fill-rule="nonzero" />
    <path d="M17.5 10c0-4.1419-3.3581-7.5-7.5-7.5S2.5 5.8581 2.5 10s3.3581 7.5 7.5 7.5 7.5-3.3581 7.5-7.5z" fill="#FFF" />
    <path d="M7.0097 9.3276c.056-1.9413.3551-3.84.8973-5.3276H6l4.059-4L12 4h-1.9262C9.4199 5.287 9.0647 7.3135 9.008 9.404c.751.022 1.4894.0355 2.2083.0393 1.844.0099 3.4593-.045 4.7836-.1713V7l4 2.938L16 13v-1.7194c-1.365.1216-2.9757.1724-4.7943.1627a94.2169 94.2169 0 01-2.1605-.0374c.1168 1.7946.4597 3.4742 1.0286 4.5941H12l-1.928 4L6 16h1.907c-.4807-1.3188-.7703-2.9607-.8688-4.669a134.3979 134.3979 0 01-2.0623-.1106A133.198 133.198 0 013 11.0849V13l-3-3 3-3v2.079c.6382.0495 1.3433.0989 2.0981.145.6393.0392 1.2778.074 1.9116.1036z" fill="#DD5228" fill-rule="nonzero" />
  </g>
</svg>
