<svg xmlns="http://www.w3.org/2000/svg" viewBox="0 0 30 13">
  <rect width="30" height="13" rx="6.5" fill="#1651B0" />
  <path fill-rule="evenodd" clip-rule="evenodd" d="M8.73 9.17a1.4879 1.4879 0 01-.38.05c-.32 0-.59-.0867-.81-.26-.2133-.1733-.32-.4167-.32-.73V7.05c0-.1867.0333-.3467.1-.48.0667-.14.15-.2533.25-.34.1067-.0933.2233-.16.35-.2.1333-.0467.2633-.07.39-.07.32 0 .5833.0867.79.26.2133.1667.32.4067.32.72v1.27c0 .1867-.0333.3433-.1.47-.06.1267-.1433.23-.25.31-.1.08-.2133.14-.34.18zm-1 .9c.2267.12.4833.18.77.18s.56-.0433.82-.13c.26-.0867.49-.2167.69-.39.2-.1733.3567-.39.47-.65.12-.26.18-.5633.18-.91V6.93c0-.3267-.0533-.6167-.16-.87-.1067-.2533-.25-.4633-.43-.63-.18-.1733-.3933-.3033-.64-.39-.2467-.0867-.51-.13-.79-.13-.2333 0-.48.0533-.74.16-.2533.1-.4767.2767-.67.53h-.01V3H6v7.13h1.17v-.51h.03c.1333.1733.31.3233.53.45zm10.4623.06c.1734.0533.36.08.56.08.0467 0 .1067-.0033.18-.01.0734 0 .15-.0067.23-.02a3.4777 3.4777 0 00.26-.03c.0867-.0067.1634-.02.23-.04V9.07c-.12.02-.2233.0333-.31.04a4.2836 4.2836 0 01-.32.01c-.14 0-.2566-.0333-.35-.1-.0866-.0667-.13-.1967-.13-.39V5.98h1.11v-.97h-1.11V3.46h-1.22v1.55h-.69v.97h.69v2.94c0 .2267.0367.4233.11.59.0734.16.1734.2933.3.4.1334.1.2867.1733.46.22zm4.6504-.94c-.1467.0533-.3434.08-.59.08-.2867 0-.5134-.0533-.68-.16-.16-.1133-.24-.2767-.24-.49 0-.2267.0766-.3867.23-.48.16-.1.37-.15.63-.15h1.2v.25c0 .14-.0134.2733-.04.4a.727.727 0 01-.16.32c-.08.0933-.1967.17-.35.23zm-2.21.63c.3266.2733.7566.41 1.29.41.1666 0 .3166-.01.45-.03.1333-.0133.26-.04.38-.08s.2333-.0967.34-.17c.1066-.0733.2166-.17.33-.29h.02v.1c.0066.04.0133.0867.02.14a.9988.9988 0 01.01.14c.0066.04.0133.07.02.09h1.21c-.0134-.0267-.0267-.0867-.04-.18a4.2936 4.2936 0 01-.03-.32 56.5697 56.5697 0 00-.02-.34V6.54c0-.3133-.06-.5733-.18-.78-.12-.2133-.2834-.38-.49-.5-.2-.1267-.4334-.2167-.7-.27-.26-.0533-.5334-.08-.82-.08-.24 0-.48.0267-.72.08-.24.0467-.46.13-.66.25-.1934.12-.35.2767-.47.47-.12.1867-.18.42-.18.7v.14h1.1v-.18c0-.1667.0866-.2933.26-.38.1733-.0867.3933-.13.66-.13.3133 0 .5533.06.72.18.1733.12.26.3167.26.59v.47h-1.36c-.2467 0-.4834.0367-.71.11-.2267.0733-.43.1767-.61.31-.1734.1333-.3134.3-.42.5-.1.1933-.15.4133-.15.66 0 .4867.1633.8667.49 1.14zm-5.8005-2.75v-.14c0-.1733-.03-.32-.09-.44-.0533-.1267-.1267-.23-.22-.31a.8245.8245 0 00-.32-.17 1.0734 1.0734 0 00-.36-.06c-.1333 0-.2667.02-.4.06a.923.923 0 00-.35.18c-.1.08-.1833.1867-.25.32-.0667.1333-.1.2967-.1.49v.07h2.09zm-.95 3.18c-.3133 0-.6133-.0433-.9-.13-.2867-.0867-.54-.2167-.76-.39-.22-.1733-.3967-.39-.53-.65-.1267-.26-.19-.5667-.19-.92v-1c0-.36.06-.6767.18-.95.1267-.28.2967-.5133.51-.7.2133-.1933.46-.34.74-.44.2867-.1.59-.15.91-.15.28 0 .55.0433.81.13.2667.08.5033.2033.71.37.2067.16.3733.3667.5.62.1267.2533.19.55.19.89v.99h-3.31v.28c0 .16.03.3067.09.44.0667.1267.1533.2333.26.32.1133.0867.2433.1533.39.2.1467.0467.3.07.46.07.2067 0 .41-.06.61-.18.2-.1267.3667-.2867.5-.48l.94.54c-.2.4-.49.69-.87.87-.3733.18-.7867.27-1.24.27z" fill="#FFFFFF" />
</svg>
