<svg xmlns="http://www.w3.org/2000/svg" viewBox="0 0 20 20">
  <path d="M16.5 19h-13C2.121 19 1 17.879 1 16.5v-13C1 2.122 2.121 1 3.5 1h13C17.879 1 19 2.122 19 3.5v13c0 1.379-1.121 2.5-2.5 2.5z" fill="#333333" />
  <g fill="#FFFFFF">
    <path d="M6 5.5c0-.364.136-.5.5-.5s.5.136.5.5v2c0 .364-.136.5-.5.5S6 7.864 6 7.5v-2zM6.5 12c-.364 0-.5.136-.5.5v2c0 .364.136.5.5.5s.5-.136.5-.5v-2c0-.364-.136-.5-.5-.5zM10 5.5c0-.364.136-.5.5-.5s.5.136.5.5v2c0 .364-.136.5-.5.5s-.5-.136-.5-.5v-2zM13.5 12c-.364 0-.5.136-.5.5v2c0 .364.136.5.5.5s.5-.136.5-.5v-2c0-.364-.136-.5-.5-.5z" />
    <path fill-rule="evenodd" clip-rule="evenodd" d="M2 3.5C2 2.673 2.673 2 3.5 2h13c.827 0 1.5.673 1.5 1.5v13c0 .827-.673 1.5-1.5 1.5h-13c-.827 0-1.5-.673-1.5-1.5v-13zM6.5 9C5.589 9 5 8.411 5 7.5v-2C5 4.589 5.589 4 6.5 4S8 4.589 8 5.5v2C8 8.411 7.411 9 6.5 9zm0 7c-.911 0-1.5-.589-1.5-1.5v-2c0-.911.589-1.5 1.5-1.5s1.5.589 1.5 1.5v2c0 .911-.589 1.5-1.5 1.5zM9 7.5c0 .911.589 1.5 1.5 1.5S12 8.411 12 7.5v-2c0-.911-.589-1.5-1.5-1.5S9 4.589 9 5.5v2zm4.5 8.5c-.911 0-1.5-.589-1.5-1.5v-2c0-.911.589-1.5 1.5-1.5s1.5.589 1.5 1.5v2c0 .911-.589 1.5-1.5 1.5zm.5-7h1V4h-2v1h1v4zm-4 7v-4H9v-1h2v5h-1z" />
  </g>
</svg>
