<svg xmlns="http://www.w3.org/2000/svg" viewBox="0 0 20 20">
  <g fill-rule="evenodd" clip-rule="evenodd">
    <path d="M4.5 1L1 8.875l2.5 6.75L7 19h8.5l3.5-6.75-3-6.75L12 1H4.5z" fill="#333333" />
    <path d="M14.8921 18H7.5756L5.364 12.25h12.5096L14.8921 18z" fill="#777777" />
    <path d="M15 5.75l2.6835 6H5.3908l2.7692-6H15z" fill="#999999" />
    <path d="M4.3585 15.0636L2.387 9.7405l2.3988 2.3988 2.0396 5.3032-2.4669-2.3789zM2.133 8.788l2.8335-6.3754L7.705 5.5424l-2.7818 6.0272c-.8579-.8579-2.7904-2.7815-2.7904-2.7815z" fill="#666666" />
    <path d="M11.5509 2l2.8889 3.25H8.1134L5.2696 2h6.2813z" fill="#FFFFFF" />
  </g>
</svg>
