<svg xmlns="http://www.w3.org/2000/svg" viewBox="0 0 200 175">
  <path fill-rule="evenodd" clip-rule="evenodd" d="M22 78v18h26V78H22zm0 24h26v18H22v-18zm0 24h26v18H22v-18zm0-54V54h26v18H22zm0-24h26V30H22v18zm32 54v18h26v-18H54zm32 0v18h26v-18H86zm0 24h26v6h.957l16.428 17.478h42.591L155 131.8h-5V0H0v150h110v7.537L126.615 175v-22.836L110 134.701V144H86v-18zm58 5.8V126h-26v5.8h26zM118 102v18h26v-18h-26zm26-6h-26V78h26v18zm0-24h-26V54h26v18zm-32 0V54H86v18h26zm32-24h-26V30h26v18zm-32 0V30H86v18h26zm0 48V78H86v18h26zm-32 30H54v18h26v-18zm0-48v18H54V78h26zm0-24v18H54V54h26zm0-24v18H54V30h26zm79.05 55H182l15.231 16.119h-22.154L159.05 85zm17.412 20.149v47.015h-45.693V175H200v-69.851h-23.538zM155 86.3433l17.308 17.4627v41.642L155 127.985V86.3433z" fill="#EEEEEE" />
</svg>
