<svg xmlns="http://www.w3.org/2000/svg" viewBox="0 0 20 20">
  <path fill-rule="evenodd" clip-rule="evenodd" d="M7 4c-3.3083 0-6 2.6917-6 6s2.6917 6 6 6 6-2.6917 6-6-2.6917-6-6-6z" fill="#FFFFFF" />
  <path d="M13 4c-3.3083 0-6 2.6917-6 6s2.6917 6 6 6 6-2.6917 6-6-2.6917-6-6-6z" fill="#999999" />
  <path fill-rule="evenodd" clip-rule="evenodd" d="M.5 10c0 3.584 2.916 6.5 6.5 6.5a6.4601 6.4601 0 003-.7347 6.46 6.46 0 003 .7347c3.584 0 6.5-2.916 6.5-6.5S16.584 3.5 13 3.5a6.4601 6.4601 0 00-3 .7347A6.4602 6.4602 0 007 3.5C3.416 3.5.5 6.416.5 10zm8.5041-5.1233A5.4848 5.4848 0 007 4.5c-3.0371 0-5.5 2.4629-5.5 5.5s2.4629 5.5 5.5 5.5c.7071 0 1.383-.1335 2.0041-.3767C7.481 13.9326 6.5 12.0787 6.5 10c0-2.0787.9809-3.9326 2.5041-5.1233zM10 14.6103C8.495 13.6288 7.5 11.9304 7.5 10c0-1.9304.995-3.6288 2.5-4.6103 1.505.9815 2.5 2.68 2.5 4.6103 0 1.9304-.995 3.6288-2.5 4.6103zm.9959.513C12.5191 13.9326 13.5 12.0787 13.5 10c0-2.0787-.9809-3.9326-2.5041-5.1233A5.4847 5.4847 0 0113 4.5c3.0371 0 5.5 2.4629 5.5 5.5s-2.4629 5.5-5.5 5.5a5.484 5.484 0 01-2.0041-.3767z" fill="#333333" />
</svg>
