<svg xmlns="http://www.w3.org/2000/svg" viewBox="0 0 20 20">
  <path fill-rule="evenodd" clip-rule="evenodd" d="M18 5l-4-4-4 4h3v14h2V5h3zm-12.0464.1797a9.8024 9.8024 0 01-.6451.8065h-.0101a425.9344 425.9344 0 01-2.117 2.4597V9.464H8V8.0527H5.4193v-.0201c.1714-.1815.5142-.5545.6855-.746.0583-.0613.1174-.1244.1778-.1889.1383-.1476.2828-.302.4372-.4563a6.7867 6.7867 0 00.5947-.7157c.1815-.242.3226-.504.4436-.7863.121-.2722.1814-.5645.1915-.877 0-.3024-.0504-.5847-.1512-.8468-.1008-.262-.252-.4838-.4536-.6754-.2016-.1814-.4537-.3327-.756-.4435-.3025-.1008-.6452-.1613-1.0384-.1613-.373 0-.7157.0504-1.0282.131-.3125.0907-.5847.2218-.8065.3932-.2218.1814-.4032.3931-.5242.6552C3.0605 3.577 3 3.8693 3 4.212v.3528h1.623v-.2117c0-.242.0605-.4536.1814-.6149.121-.1613.3327-.242.615-.242.2923 0 .494.0807.6149.2218.121.1412.1814.3125.1814.504v.1513c0 .2923-.0907.5645-.262.8064zM4.7867 12.169v4.4859H3.3855v1.2097h4.365v-1.2097H6.4701v-6.0282H5.694c-.5087.1034-1.445.2806-2.0712.3991l-.2877.0545c.0202.3024.0807.8871.111 1.1794.3326-.0201.9979-.0605 1.3406-.0907z" fill="#333333" />
</svg>
