<svg xmlns="http://www.w3.org/2000/svg" viewBox="0 0 20 20">
  <path d="M16.0839 15.0771C14.6026 15.6495 12.567 16 10 16c-2.567 0-4.6026-.3505-6.084-.9229C3.3339 15.4435 3 15.9129 3 16.5c0 1.8071 1 3 7 3s7-1.1929 7-3c0-.5871-.3338-1.0565-.9161-1.4229z" fill="#333333" />
  <g fill="#FFFFFF">
    <path d="M4.5 17c0-.3395.5677-.7009 1.5-.9839v1.9679c-.9323-.283-1.5-.6444-1.5-.984zM15.5 17c0 .3396-.5677.701-1.5.984v-1.9679c.9323.283 1.5.6444 1.5.9839z" />
    <path d="M4.5 17c0-.3395.5677-.7009 1.5-.9839v1.9679c-.9323-.283-1.5-.6444-1.5-.984zM15.5 17c0 .3396-.5677.701-1.5.984v-1.9679c.9323.283 1.5.6444 1.5.9839z" />
  </g>
  <path fill-rule="evenodd" clip-rule="evenodd" d="M10 6c-5.9069 0-9 1.8559-9 4v2c0 2.1441 3.0931 4 9 4s9-1.8559 9-4v-2c0-2.1441-3.0931-4-9-4z" fill="#1651B0" />
  <g fill="#90CEF1">
    <path d="M18 10c0-.4652-.4464-1.1347-1.3822-1.6962C15.2521 7.4843 13.0725 7 10 7s-5.2521.4844-6.6178 1.3038C2.4465 8.8653 2 9.5348 2 10c0 .4652.4464 1.1347 1.3822 1.6963C4.748 12.5156 6.9276 13 10 13s5.2521-.4844 6.6178-1.3037C17.5536 11.1347 18 10.4652 18 10z" />
    <path d="M18 12v-.6839c-.9164 1.1431-3.226 2.1839-8 2.1839s-7.0836-1.0408-8-2.1839V12c0 .4652.4464 1.1347 1.3822 1.6963C4.748 14.5156 6.9276 15 10 15s5.2521-.4844 6.6178-1.3037C17.5536 13.1347 18 12.4652 18 12z" />
  </g>
  <g fill="#333333">
    <path d="M3 9.5L6 12h8l3-2.5V4.0542a1 1 0 00-.47-.848L13 1H7L3.47 3.2062a1 1 0 00-.47.848V9.5zM6 15.644c.3182.0633.6515.119 1 .1664v2.4733c-.4226-.0833-.756-.1907-1-.3221V15.644zM14 17.9616c-.244.1314-.5774.2388-1 .3221v-2.4733a16.5798 16.5798 0 001-.1664v2.3176z" />
  </g>
  <g fill="#FFFFFF">
    <path d="M6.748 2.168A1 1 0 017.3029 2h5.3944a1 1 0 01.5547.168L16 4l-2.2261 1.7809A1 1 0 0113.1492 6H6.8508a1 1 0 01-.6247-.2191L4 4l2.748-1.832zM4 5l1.7071 1.7071A1 1 0 016 7.4142V11L4 9V5zM7 8c0-.5523.4477-1 1-1h4c.5523 0 1 .4477 1 1v3H7V8zM14.2929 6.7071A1.0001 1.0001 0 0014 7.4142V11l2-2V5l-1.7071 1.7071zM7 18.2644v-2.4541c.899.1223 1.899.1897 3 .1897s2.101-.0674 3-.1897v2.4541c-.6374.1484-1.6504.2356-3 .2356s-2.3625-.0872-3-.2356z" />
  </g>
</svg>
