<svg xmlns="http://www.w3.org/2000/svg" viewBox="0 0 20 20">
  <g fill-rule="evenodd" clip-rule="evenodd">
    <path d="M2.4688 9.174c.476-1.2835.9546-2.1759 1.4173-2.7964.6556.3306 1.0258.6891 1.238 1.0485.2134.3615.2969.7715.3066 1.2578.0082.4102-.0352.8396-.084 1.3215a68.93 68.93 0 00-.032.3216c-.1158 1.2009-.1917 2.625.6699 4.0698.154.2581.336.5141.55.7676-.8937.6498-1.564 1.8101-2.0208 3.7193l.9725.2328c.4564-1.9072 1.0841-2.7963 1.7592-3.2262 1.0036.8943 2.4681 1.7556 4.5729 2.5756l.3631-.9317c-1.7303-.6742-2.9583-1.3562-3.8289-2.0256.1928-.0263.3962-.0395.6115-.0428.4522-.0068.9262.0296 1.4456.0695.1119.0087.2259.0174.3422.0259 1.2856.0943 2.7774.1537 4.2982-.5354.6479-.2935 1.2876-.7161 1.9146-1.3101.5579.2556 1.1778.5073 1.8661.7548l.3384-.941c-.5412-.1946-1.0332-.3899-1.4804-.5853.6004-.7142 1.1872-1.6065 1.7561-2.716l-.8898-.4563c-.599 1.1682-1.2043 2.0555-1.8054 2.7295-1.5658-.7997-2.4357-1.5923-2.9157-2.3352-.6738-1.043-.6371-2.0729-.5242-3.1527.0093-.089.0193-.1795.0293-.271l.0001-.0002c.0492-.4464.101-.9165.0913-1.3619-.0119-.5521-.1169-1.117-.4546-1.645-.3485-.545-.9117-1.001-1.7619-1.3784.1045-.3772.197-.7998.2787-1.2717l-.9853-.1705c-.0724.418-.1513.7797-.2349 1.0928-.6171-.1922-1.3421-.3584-2.1898-.5007l-.1655.9862c.817.1371 1.4846.2927 2.0303.461-.2326.5182-.4806.7885-.7146.9336-.2177.135-.469.1917-.7868.1984-.2722.0057-.5564-.0244-.8894-.0597h-.0001a49.4443 49.4443 0 00-.2273-.0238c-.8373-.0849-1.8732-.1463-2.9228.5112-.2723.1706-.5393.3855-.801.6528-.6834-.2577-1.514-.4763-2.516-.6585l-.179.9839c.8137.148 1.479.3156 2.0235.4973-.4876.7042-.9553 1.6304-1.4028 2.8369l.9376.3477zm13.5321 4.0638c-1.5004-.8078-2.4407-1.6527-3.0068-2.5289-.873-1.3513-.7952-2.6868-.6789-3.7993.0107-.1025.0216-.202.0322-.299.0487-.4446.0915-.8351.0834-1.2085-.0095-.4395-.0908-.805-.2973-1.1279-.2107-.3293-.5831-.6613-1.2482-.9683-.2991.688-.6693 1.1488-1.1253 1.4316-.4206.2608-.8669.3394-1.2929.3484-.342.0072-.7034-.0315-1.0381-.0673h-.0005l-.0005-.0001h-.0003a35.4236 35.4236 0 00-.1992-.021c-.807-.0818-1.545-.1036-2.2911.3638a3.0956 3.0956 0 00-.3509.257c.6534.3697 1.1045.801 1.3987 1.2994.3309.5604.4336 1.1583.4453 1.7462.0096.4767-.0416.9795-.0907 1.4631v.0001c-.0102.0996-.0202.1984-.0297.296-.1132 1.1741-.1519 2.3125.5334 3.4615.158.2648.3573.5348.6086.8086.4868-.1638.993-.2196 1.4968-.2272.5028-.0077 1.0326.0332 1.5533.0734h.0001c.1081.0084.2158.0167.3228.0245 1.2721.0933 2.5399.1276 3.8123-.4489.4462-.2022.9023-.4842 1.3635-.8772z" fill="#333333" />
    <path d="M12.9941 10.7089c.5661.8762 1.5064 1.7211 3.0068 2.5289-.4612.393-.9173.675-1.3635.8771-1.2724.5766-2.5402.5423-3.8124.449-.1069-.0078-.2146-.0162-.3227-.0245h-.0001c-.5207-.0402-1.0506-.0811-1.5533-.0735-.5038.0077-1.01.0635-1.4968.2272-.2513-.2737-.4506-.5437-.6086-.8085-.6852-1.149-.6466-2.2874-.5333-3.4615.0094-.0976.0195-.1964.0296-.296v-.0001c.0492-.4835.1003-.9864.0908-1.4631-.0118-.588-.1145-1.1858-.4453-1.7462-.2943-.4984-.7454-.9297-1.3987-1.2994.1189-.1002.236-.185.3508-.257.746-.4674 1.4841-.4456 2.291-.3638.0651.0066.1317.0137.1993.021h.0013c.3347.0359.696.0746 1.0381.0674.426-.009.8723-.0876 1.2929-.3484.456-.2828.8262-.7436 1.1253-1.4316.6651.307 1.0376.639 1.2482.9684.2065.3229.2878.6884.2973 1.1278.0081.3734-.0347.764-.0833 1.2085-.0107.097-.0216.1965-.0323.299-.1163 1.1126-.1941 2.448.6789 3.7993z" fill="#999999" />
    <path d="M9.092 5.0117c.2474.321.4329.6617.5703 1.0203.3374.8807.3672 1.8373.3952 2.7362l.0048.1532c.0029.088.0058.176.0092.2636l.0728.0028c.8343.0321 1.4165.032 1.9205-.2322.0763-.04.1532-.0876.2304-.1445.0451.3333.1246.6742.2545 1.0193l-.0205.0108c-.7669.4022-1.6098.3771-2.3916.3471.0566.5313.1579 1.0569.3542 1.5818.3441.9198.9945 1.8711 2.2895 2.8161-.5186.046-1.0371.0349-1.5563.0044-.8411-.8035-1.3564-1.6323-1.6698-2.4701-.2492-.6663-.3654-1.3263-.4253-1.9566-.513.0045-1.0427.0492-1.6092.2017-.3923.1056-.8081.265-1.2489.5057a18.327 18.327 0 01.0385-.4483c.0094-.0976.0194-.1963.0296-.2959v-.0002c.014-.139.0284-.2794.0413-.4205A6.4822 6.4822 0 017.2607 9.4c.6485-.1746 1.2556-.2278 1.8093-.2357a57.4659 57.4659 0 01-.0072-.2107L9.06 8.8631c-.0305-.9547-.0561-1.7548-.3314-2.4733-.1798-.4693-.4748-.9202-.994-1.3398.2431.0233.4927.0408.7327.0358.2052-.0043.4152-.0248.6248-.074z" fill="#FFFFFF" />
  </g>
</svg>
