<svg xmlns="http://www.w3.org/2000/svg" viewBox="0 0 20 20">
  <g fill-rule="evenodd" clip-rule="evenodd">
    <path d="M16.25 1.716h2v-1h-2v1zm-4 0h2v-1h-2v1zm-4 0h2v-1h-2v1zm-4 0h2v-1h-2v1zm-2 1h1v-2h-1v2zm0 4h1v-2h-1v2zm0 4.0001h1v-2h-1v2zm0 4h1v-2h-1v2zm0 2h2v-1h-2v1zm4 0h2v-1h-2v1zm4 0h2v-1h-2v1zm4 0h2v-1h-2v1zm3 0h1v-2h-1v2zm0-4h1v-2h-1v2zm0-4h1v-2h-1v2zm0-4h1v-2h-1v2z" fill="#999999" />
    <path d="M10.25 3.5v13.043l2.558-2.504 1.782 3.357 3.174-1.694-1.539-2.909h3.223L10.25 3.5z" fill="#333333" />
    <path d="M14.3249 11.6569h2.373l-5.289-5.342v7.431l1.668-1.621 1.912 3.613 1.163-.626-1.826-3.45" fill="#FFFFFF" />
  </g>
</svg>
