<svg xmlns="http://www.w3.org/2000/svg" viewBox="0 0 20 20">
  <path fill-rule="evenodd" clip-rule="evenodd" d="M4.965 18c1.104 0 2-.895 2-2 0-.506-.188-.968-.501-1.32.367-.417.904-.68 1.501-.68h5.0001c2.206 0 4-1.794 4-4l.001-.268c.597-.346.999-.992.999-1.732 0-1.105-.896-2-2-2s-2 .895-2 2c0 .74.402 1.386 1 1.73V10c0 1.103-.898 2-2 2h-5c-.728 0-1.412.195-2 .538L6 8c1.13-.583 1.965-1.694 1.965-3 0-1.657-1.343-3-3-3s-3 1.343-3 3c0 1.307.836 2.419 2.035 3l-.035 6.268c-.598.346-1 .992-1 1.732 0 1.105.895 2 2 2zm-2-13c0-1.105.895-2 2-2 1.104 0 2 .895 2 2s-.896 2-2 2c-1.105 0-2-.895-2-2z" fill="currentColor" />
</svg>
