<svg xmlns="http://www.w3.org/2000/svg" viewBox="0 0 20 20">
  <g fill-rule="evenodd" clip-rule="evenodd">
    <path d="M8.5 1C14.2991 1 19 5.7009 19 11.5a.5.5 0 01-1 0C18 6.2531 13.7469 2 8.5 2a.5.5 0 010-1zm3 18C5.7009 19 1 14.2991 1 8.5a.5.5 0 011 0c0 5.2469 4.2531 9.5 9.5 9.5a.5.5 0 010 1z" fill="#999999" />
    <path d="M14.7505 3.2016A1.4907 1.4907 0 0115.4985 3c.5183 0 1.0227.2695 1.3003.7502.4142.7177.1683 1.6347-.5486 2.049a1.515 1.515 0 01-.0605.0331C15.8503 9.2452 14.0472 10.25 10 10.25c-2.4638 0-4.232 1.445-4.6534 4.0118.18.123.336.2872.4522.4884.4142.7177.1683 1.6347-.5486 2.049A1.4902 1.4902 0 014.5015 17a1.4994 1.4994 0 01-1.3003-.7502c-.4142-.7169-.1684-1.634.5493-2.0482a1.5091 1.5091 0 01.0964-.0512C4.348 10.7845 6.7498 8.75 10 8.75c3.2839 0 4.4446-.5316 4.6948-2.9845a1.4957 1.4957 0 01-.4936-.5157c-.4142-.717-.1684-1.634.5493-2.0482z" fill="#333333" />
  </g>
</svg>
