<svg xmlns="http://www.w3.org/2000/svg" viewBox="0 0 20 20">
  <path fill-rule="evenodd" clip-rule="evenodd" d="M6.8013 14.9884H2l-1-1v-6l1-1 5.2943.0102L8.4279 5.865 7.5256 3.158l.9487-.3162L9.572 6.1351 7.6084 8.0988l2 4-2.0366 2.0366.9027 2.7187-.949.3151-.7242-2.1808zm3.5903-7.087l2 3.9999-1.9634 1.9634 1.0973 3.3045.949-.3151-.6195-1.8657H18l1-1v-6l-1-1h-5.2813l.8533-.8533-1.0977-3.2932-.9487.3163.9023 2.7068-2.0363 2.0363z" fill="#999999" />
  <path fill-rule="evenodd" clip-rule="evenodd" d="M2 14h5l1.5-2-2-4H2v6zm9.5 0H18V8h-6.5l2 4-2 2z" fill="#FFFFFF" />
  <path d="M12 6.6648L13.3352 8l4.6679-4.6679L18 7h2V0h-7v2l3.6643.0005L12 6.6648z" fill="#333333" />
</svg>
