<svg xmlns="http://www.w3.org/2000/svg" viewBox="0 0 20 20">
  <path fill="#333333" d="M1 1h18v18H1z" />
  <path fill-rule="evenodd" clip-rule="evenodd" d="M8 2h4v6c0 .5523-.4477 1-1 1H9c-.5523 0-1-.4477-1-1V2zm-6 9c2.0667 0 3.1991.5339 4.2937 1.05C7.3176 12.5328 8.3084 13 10 13c1.5 0 3 0 4.5-2S17 9 18 9v9H2v-7zm0-9h2L2 4V2zm0 3.5L5.5 2H7L2 7V5.5zm0 3V10l5-5V3.5l-5 5zm2.6322 1.8678a7.875 7.875 0 00-1.2261-.2739L7 6.5V8l-2.3678 2.3678zm1.0847.4153c.1965.0876.3872.1775.5768.2669l.0002.0001c.1491.0703.2975.1403.4474.2085l1.4355-1.4353a2.008 2.008 0 01-.8189-.6812l-1.641 1.641zm3.3367 1.1633a6.6969 6.6969 0 01-1.2355-.2645L9.5 10H11l-1.9464 1.9464zm1.4568.0432c.537-.0214 1.1164-.0771 1.6748-.1748L18 6V4.5l-7.4896 7.4896zM18 8c-.1788 0-.3496.004-.5123.0123L18 7.5V8zm0-5V2h-.5L13 6.5V8l5-5zm-3.5-1H16l-3 3V3.5L14.5 2z" fill="#FFFFFF" />
</svg>
