<svg xmlns="http://www.w3.org/2000/svg" viewBox="0 0 20 20">
  <g fill="#333333" fill-rule="evenodd" clip-rule="evenodd">
    <path d="M16 2H4c-.5523 0-1 .4477-1 1v14c0 .5523.4477 1 1 1h12c.5523 0 1-.4477 1-1V3c0-.5523-.4477-1-1-1zM4 1c-1.1046 0-2 .8954-2 2v14c0 1.1046.8954 2 2 2h12c1.1046 0 2-.8954 2-2V3c0-1.1046-.8954-2-2-2H4z" />
    <path d="M14.5 5h-9v2h9V5zm-10-1v4h11V4h-11zM6.5 10h-1v1h1v-1zm-2-1v3h3V9h-3zM10.5 10h-1v1h1v-1zm-2-1v3h3V9h-3zM14.5 10h-1v1h1v-1zm-2-1v3h3V9h-3zM6.5 14h-1v1h1v-1zm-2-1v3h3v-3h-3zM10.5 14h-1v1h1v-1zm-2-1v3h3v-3h-3zM14.5 14h-1v1h1v-1zm-2-1v3h3v-3h-3z" />
  </g>
</svg>
