<svg xmlns="http://www.w3.org/2000/svg" viewBox="0 0 20 20">
  <path d="M12.5 8.5l4 2v1h-2v3h-3v.002L11 14.5H7.9004c-.497 0-.9004.4033-.9004.9004V16.5H4l-4-2v-6h12.5z" fill="#333333" />
  <path d="M15.5 11.5h-1v3h-.7275c-.3211-.5951-.9495-1-1.6729-1H7.9004C6.851 13.5 6 14.351 6 15.4004V15.5H4.501v-4.0996H15.5V11.5zm-11.7998-.2109v3.9423L1 13.8818V9.7461l2.7002 1.543zm10.7627-.6895H4.1055L2.1816 9.5h10.0821l2.1992 1.0996z" fill="#FFFFFF" />
  <path d="M8 6.707l1.3047-1.3047L13 7.25v4H7l-4-2v-4h3.543L8 6.707z" fill="#333333" />
  <path d="M12 10.25H7.4004V8.1504H12V10.25zM6.5996 7.9814v1.9502L4 8.6318V6.4961l2.5996 1.4853zm4.3633-.6318H7.1055L5.1816 6.25H7.543L8 6.707l.457-.457h.3067l2.1992 1.0996z" fill="#999999" />
  <path d="M7 0h2v3h2L8 6 5 3h2V0z" fill="#1651B0" />
  <path fill-rule="evenodd" clip-rule="evenodd" d="M15 17h-3v-2h3v-3h2v3h3v2h-3v3h-2v-3z" fill="#1651B0" />
</svg>
