<svg xmlns="http://www.w3.org/2000/svg" viewBox="0 0 20 20">
  <g fill="#999999">
    <path d="M13.6006.0098A.5004.5004 0 0114 .5v.7998l-.0088.0957a.4998.4998 0 01-.1308.251l-.6299.6543v.3974l.6299.6553.0595.0752A.5004.5004 0 0114 3.7002V4.5a.5.5 0 01-.5.5h-2v.5c0 .5523-.4477 1-1 1H10V14c0 .8284-.6716 1.5-1.5 1.5S7 14.8284 7 14V6.5h-.5c-.5523 0-1-.4477-1-1V5h-2a.5.5 0 01-.5-.5v-.7998c0-.1292.05-.2535.1397-.3467l.6298-.6553v-.3974l-.6298-.6543A.5004.5004 0 013 1.2998V.5l.0098-.1006A.5005.5005 0 013.5 0h10l.1006.0098z" fill="#333333" />
    <path d="M9 6.5V14a.5.5 0 01-1 0V6.5h1z" fill="#999" />
    <path d="M10.5 5.5h-4V5h4v.5zM13 1.0977l-.6299.6562a.5003.5003 0 00-.1396.3457v.8008a.5003.5003 0 00.1396.3457L13 3.9014V4H4v-.0986l.6299-.6553a.5001.5001 0 00.1396-.3457v-.8008A.5001.5001 0 004.63 1.754L4 1.0977V1h9v.0977z" fill="#FFFFFF" />
  </g>
  <path fill-rule="evenodd" clip-rule="evenodd" d="M15 15h-3v-2h3v-3h2v3h3v2h-3v3h-2v-3z" fill="#1651B0" />
</svg>
