<svg xmlns="http://www.w3.org/2000/svg" viewBox="0 0 20 20">
  <path d="M11 3h3l.9746 4H15l3 2.5V17H6l-3-2.5V7.871l-.6182-.285-.6914-3.465L2 3h3V2h6v1zM6 3h4v-.25H6V3z" fill="#333333" />
  <path d="M17 15v1H6.9004v-1H17zM6.0996 10.1875v5.5918L4 14.0303V8.4375l2.0996 1.75zM17 13v1.3008H6.9004V13H17zm-8-2.5996V11.5h6v-1.0996h2v1.9004H6.9004v-1.9004H9zm5 0v.3496h-4v-.3496h4z" fill="#D7D7D7" />
  <path d="M14.8555 8.1816l1.7011 1.418h-9.912L4.7245 8h9.9004l.2305.1816zM13.9453 7H3.8525l-.623-3h9.9853l.7305 3z" fill="#999999" />
</svg>
