<svg xmlns="http://www.w3.org/2000/svg" viewBox="0 0 20 20">
  <path d="M3.7249 2h3.3023L10.5 5V2h3L17 5v2.4468l1.4018 1.3617v5.3568l1.4583 2.3732c.4005.6516-.1067 1.4615-.9151 1.4615H4.4845c-.2971 0-.5804-.1164-.7801-.3205l-3.431-3.5074c-.3394-.3469-.3657-.8685-.0627-1.2433L2 11V5.5h1.7249V2z" fill="#333333" />
  <path fill-rule="evenodd" clip-rule="evenodd" d="M6 15.0001h11.9l1.0241 1.6c.2108.3505-.0423.8-.4521.8H5s.8572-2.0796 1-2.4zm-.55-.3217L2.5 11.6001l-1.3945 1.6158a.5248.5248 0 00.049.6873L4.3 17.0001l1.15-2.3217z" fill="#666666" />
  <path d="M5.4209 9.0002v4.7637L3 11.3499V7.0002l2.4209 2zm.4824-4.4843l.751.5918.376.2959.0097 2.8007-.3652-.2968-.7314-.5918-1.464-1.1846-.079-2.7998 1.503 1.1846zm6.5996 0l1.128.8877.0097 2.8007-.3662-.2968-.7314-.5918-1.4639-1.1846L11 3.3313l1.5029 1.1846z" fill="#EEEEEE" />
  <path d="M9.6997 9.1995h4.5V5.4827h2.1006v3.7168h1.2002v5.2002H6.1001V9.1995h1.5V5.4827h2.0996v3.7168zm-2.6992-.5h-1L2.9937 6.3313h1.079l2.9278 2.3682zm6.1992 0h-2.6992V6.5002l2.6992 2.1993zm4.3008 0h-.5v-.5l.5.5zm-8-3.6993H7.3999l-2.872-2.3037h2.124l2.8486 2.3037zm6.5713 0h-2.0996l-2.8721-2.3037h2.124l2.8477 2.3037z" fill="#FFFFFF" />
</svg>
