<svg xmlns="http://www.w3.org/2000/svg" viewBox="0 0 17 17">
  <path fill-rule="evenodd" clip-rule="evenodd" d="M7.1355 2.2518c-.551-.5413-1.208-.8463-2.0166-.8463-1.4172 0-2.566 1.077-2.566 2.4057 0 .5985.1993 1.0117.5981 1.4711C1.6532 5.4777.5 6.6833.5 8.1414c0 .5255 0 .9623.4114 1.4426 0 0 2.9787 2.9112 5.0528 4.8556 1.0361.8231 1.4887 1.1547 2.566 1.1547.8504 0 1.9411-.4985 2.4606-1.155l.5582.9133H16.5v-4.5697L7.1355 2.2518z" fill="#333333" />
  <path fill-rule="evenodd" clip-rule="evenodd" d="M10.1158 5.9717L6.1713 2.3872c-.407-.3083-.6614-.3083-1.0525-.3083-1.0204 0-1.8476.7754-1.8476 1.732 0 .6331.308.9623.9032 1.489l3.3295 3.046c.0178-1.3143 1.1598-2.3746 2.5659-2.3746.0153 0 .0307.0002.046.0004zM3.9043 6.04a2.9679 2.9679 0 00-.3251-.0158c-1.2472 0-2.2582.9478-2.2582 2.117 0 .5067.1275 1.0287.5067 1.3363l3.6248 3.3252a2.7521 2.7521 0 01-.0016-.0955c0-1.4447 1.132-2.6415 2.6098-2.8534-.171-.1527-.354-.3242-.557-.5145L4.0924 6.2166a116.7992 116.7992 0 01-.1881-.1766zm4.6259 8.8323c1.2754 0 2.3094-.9693 2.3094-2.1651 0-1.1957-1.034-2.1651-2.3095-2.1651-1.2754 0-2.3094.9694-2.3094 2.1651 0 1.1958 1.034 2.1651 2.3095 2.1651zm7.2453-3.6858h-3.8582v3.3811h3.8582v-3.3811zm-.5736-.7733l-3.6529.0004c.6125-.433 1.0868-1.2988 1.0868-2.0366 0-.1439-.0134-.2848-.0393-.4217l2.6054 2.4579zm-5.1321-.3041c1.0204 0 1.8475-.7755 1.8475-1.732 0-.9567-.8271-1.7322-1.8475-1.7322s-1.8476.7755-1.8476 1.7321.8272 1.7321 1.8476 1.7321z" fill="#FFFFFF" />
  <path fill-rule="evenodd" clip-rule="evenodd" d="M10.1158 5.9717L6.1713 2.3872c-.407-.3083-.6614-.3083-1.0525-.3083-1.0204 0-1.8476.7754-1.8476 1.732 0 .6331.308.9623.9032 1.489l3.3295 3.046c.0178-1.3143 1.1598-2.3746 2.5659-2.3746.0153 0 .0307.0002.046.0004z" fill="#EEEEEE" />
  <path fill-rule="evenodd" clip-rule="evenodd" d="M3.9043 6.04a2.9679 2.9679 0 00-.3251-.0158c-1.2472 0-2.2582.9478-2.2582 2.117 0 .5067.1275 1.0287.5067 1.3363l3.6248 3.3252a2.7521 2.7521 0 01-.0016-.0955c0-1.4447 1.132-2.6415 2.6098-2.8534-.171-.1527-.354-.3242-.557-.5145L4.0924 6.2166a121.3648 121.3648 0 01-.1881-.1766z" fill="#D7D7D7" />
  <path d="M15.202 10.413l-3.6529.0005c.6125-.433 1.0868-1.2989 1.0868-2.0367 0-.1438-.0135-.2848-.0393-.4217l2.6054 2.4579z" fill="#999999" />
</svg>
