<svg xmlns="http://www.w3.org/2000/svg" viewBox="0 0 20 20">
  <path d="M17.872 8.0169l.257.9658-6.1628 1.6443 6.4773 2.9878L6.855 16.858l-.2697-.9628 8.9713-2.5112-6.5232-3.0105 8.8386-2.3566z" fill="#1651B0" />
  <g fill="#999999">
    <path d="M11.6006 2.0098A.5004.5004 0 0112 2.5v.7998l-.0088.0957a.4998.4998 0 01-.1308.251l-.6299.6543v.3974l.6299.6553.0595.0752A.5004.5004 0 0112 5.7002V6.5a.5.5 0 01-.5.5h-2v.5c0 .5523-.4477 1-1 1H8V16c0 .8284-.6716 1.5-1.5 1.5S5 16.8284 5 16V8.5h-.5c-.5523 0-1-.4477-1-1V7h-2a.5.5 0 01-.5-.5v-.7998c0-.1292.05-.2535.1397-.3467l.6298-.6553v-.3974l-.6299-.6543A.5004.5004 0 011 3.2998V2.5l.0098-.1006A.5005.5005 0 011.5 2h10l.1006.0098z" fill="#333333" />
    <path d="M7 8.5V16a.5.5 0 01-1 0V8.5h1z" fill="#999" />
    <path d="M8.5 7.5h-4V7h4v.5zM11 3.0977l-.6299.6562a.5003.5003 0 00-.1396.3457v.8008a.5003.5003 0 00.1396.3457L11 5.9014V6H2v-.0986l.6299-.6553a.5001.5001 0 00.1396-.3457v-.8008A.5001.5001 0 002.63 3.754L2 3.0977V3h9v.0977z" fill="#FFFFFF" />
  </g>
</svg>
