<svg xmlns="http://www.w3.org/2000/svg" viewBox="0 0 20 20">
  <path d="M12.875 10H15l.1006.0098A.5004.5004 0 0115.5 10.5v.7998l-.0088.0957a.4998.4998 0 01-.1308.251l-.6299.6543v.3974l.6299.6553.0595.0752a.5005.5005 0 01.0801.2715V14.5a.5.5 0 01-.5.5h-2v.5c0 .5523-.4477 1-1 1H8c-.5523 0-1-.4477-1-1V15H5a.5.5 0 01-.5-.5v-.7998c0-.1292.05-.2535.1396-.3467l.63-.6553v-.3974l-.63-.6543a.5005.5005 0 01-.1396-.3467V10.5l.0098-.1006A.5004.5004 0 015 10h2.125L8 3h4l.875 7z" fill="#333333" />
  <path d="M8.1328 10h3.7344l-.75-6H8.8828l-.75 6z" fill="#999999" />
  <path d="M12 15.5H8V15h4v.5zm2.5-4.4023l-.6299.6562a.5003.5003 0 00-.1396.3457v.8008a.5003.5003 0 00.1396.3457l.6299.6553V14h-9v-.0986l.6299-.6553a.5001.5001 0 00.1396-.3457v-.8008a.5001.5001 0 00-.1396-.3457L5.5 11.0977V11h9v.0977z" fill="#FFFFFF" />
</svg>
