<svg xmlns="http://www.w3.org/2000/svg" viewBox="0 0 20 20">
  <path d="M18.5 13v4H6l-4-2v-4h12.5l4 2z" fill="#333333" />
  <path d="M14.2637 12L17.5 13.6182V16H6.2363L3 14.3818V12h11.2637z" fill="#EEEEEE" />
  <path d="M14.2344 3c.1959 0 .3892.0384.5693.1123l.1748.085 2.7656 1.581c.4673.267.7558.7636.7559 1.3018V17h-1V6.08a.4954.4954 0 00-.0078-.08H15v5h-1V6H6.5v10.5h-1V5.8086L3 4.5586V15H2V4.5C2 3.6716 2.6716 3 3.5 3h10.7344zM6.1182 5h9.999l-1.6348-.9346-.0586-.0283A.5003.5003 0 0014.2344 4H4.1182l2 1z" fill="#333333" />
  <path d="M17.5 6.08v6.42L15 11.25V6h2.4922a.4954.4954 0 01.0078.08zm-12-.2714V11H3V4.5586l2.5 1.25zm8.5 4.3691L11.5 8.75h-5V6H14v4.1777zM14.2344 4a.5003.5003 0 01.1894.0371l.0586.0283L16.1172 5h-9.999l-2-1h10.1162z" fill="#FFFFFF" />
  <path d="M6 8.75h5.5l3.5 2v4H9l-3-2v-4z" fill="#333333" />
  <path d="M14.2002 11.5v2.4502H9.25V11.5h4.9502zM8.75 11.3828v2.2383l-1.9502-1.2998V10.083L8.75 11.3828zM13.8262 11h-4.751L6.9004 9.5498h4.3877L13.8262 11z" fill="#999999" />
  <path d="M11 10a.5.5 0 01-1 0V8H9V6h3v2h-1v2z" fill="#333333" />
</svg>
