<svg xmlns="http://www.w3.org/2000/svg" viewBox="0 0 20 20">
  <path fill-rule="evenodd" clip-rule="evenodd" d="M8.4486 2.8753C7.9903 2.3415 7.2877 2 6.5 2 5.1193 2 4 3.0493 4 4.3438c0 .583.1943.9856.5828 1.4332C3.1234 5.9673 2 7.142 2 8.5625c0 .512 0 .9375.4009 1.4055 0 0 4.0784 4.0126 6.0991 5.907C9.5095 16.677 9.9504 17 11 17c.8284 0 1.5784-.3148 2.1213-.8238L14 17h5v-4.6875l-8-7.5h-.4791L8.4486 2.8753z" fill="#333" />
  <path fill-rule="evenodd" clip-rule="evenodd" d="M12.5448 7.6254L7.5254 2.9567C7.129 2.6562 6.881 2.6562 6.5 2.6562c-.9941 0-1.8.7556-1.8 1.6875 0 .6169.3.9375.8799 1.4507l4.4203 4.144C10.0175 8.658 11.1301 7.625 12.5 7.625c.0149 0 .0299.0001.0448.0004zm-7.228-1.11A2.8937 2.8937 0 005 6.5c-1.215 0-2.2.9234-2.2 2.0625 0 .4937.1242 1.0022.4936 1.302l4.708 4.416A2.6871 2.6871 0 018 14.1875c0-1.4075 1.1028-2.5735 2.5426-2.78-.1665-.1488-.3448-.3158-.5426-.5012L5.5 6.6875c-.0631-.0591-.1242-.1164-.1833-.172zM11 16.297c1.2426 0 2.25-.9444 2.25-2.1094s-1.0074-2.1094-2.25-2.1094c-1.2427 0-2.25.9444-2.25 2.1094s1.0073 2.1094 2.25 2.1094zM18.3 12.5h-4v3.7812h4V12.5zm-.9886-.7393h-3.2c.5434-.4299.8886-1.0731.8886-1.792 0-.1401-.0131-.2774-.0383-.4108l2.3497 2.2028zM12.5 11.6563c.9941 0 1.8-.7556 1.8-1.6875 0-.932-.8059-1.6875-1.8-1.6875-.9941 0-1.8.7555-1.8 1.6875 0 .9319.8059 1.6875 1.8 1.6875z" fill="#fff" />
  <path fill="#90CEF1" d="M0 0h10v4H0z" />
  <path fill="#fff" d="M0 4h10v4H0z" />
  <path fill-rule="evenodd" clip-rule="evenodd" d="M6 0H0v8h10V0H6zm0 1H4v2h2V1zm0 3H4v1h2V4zm1 1V4h2v1H7zM6 6H4v1h2V6zm1 1h2V6H7v1zm0-4V1h2v2H7zM1 1h2.0001l.0003 2H1V1zm0 3h2.0005l.0002 1H1V4zm0 2h2.0008l.0001 1H1V6z" fill="#1651B0" />
</svg>
