<svg xmlns="http://www.w3.org/2000/svg" viewBox="0 0 20 20">
  <path d="M18.5 18v-6l-4-2H2v6l4 2h3v-1.0996c0-.4971.4033-.9004.9004-.9004H13l1.1924.0049a.9003.9003 0 01.8076.8955V18h3.5z" fill="#333333" />
  <path d="M17.5 17H16v-.0996C16 15.851 15.149 15 14.0996 15H9.9004C8.851 15 8 15.851 8 16.9004V17H6.501v-4.0996H17.5V17zm-2.5156-.2695a.9054.9054 0 01.0156.1699.905.905 0 00-.0186-.1816l.003.0117zm-9.2842-3.9414v3.9423L3 15.3818v-4.1357l2.7002 1.543zm10.7627-.6895H6.1055L4.1816 11h10.0821l2.1992 1.0996z" fill="#FFFFFF" />
  <path d="M10 8.207l1.3047-1.3047L15 8.75v4H9l-4-2v-4h3.543L10 8.207z" fill="#333333" />
  <path d="M14 11.75H9.4004V9.6504H14V11.75zM8.5996 9.4815v1.9501L6 10.1318V7.9961l2.5996 1.4854zm4.3633-.6319H9.1055L7.1816 7.75H9.543l.457.457.457-.457h.3067l2.1992 1.0996z" fill="#999999" />
  <path d="M9 1.5h2v3h2l-3 3-3-3h2v-3z" fill="#1651B0" />
</svg>
