<svg xmlns="http://www.w3.org/2000/svg" viewBox="0 0 20 20">
  <path d="M3.7249 2h3.3023L10.5 5V2h3L17 5v2.4468l1.4018 1.3617v5.3568l1.4583 2.3732c.4005.6516-.1067 1.4615-.9151 1.4615H4.4845c-.2971 0-.5804-.1164-.7801-.3205l-3.431-3.5074c-.3394-.3469-.3657-.8685-.0627-1.2433L2 11V5.5h1.7249V2z" fill="#333" />
  <path fill-rule="evenodd" clip-rule="evenodd" d="M6 15h11.9l1.0241 1.6c.2108.3505-.0423.8-.4521.8H5s.8572-2.0796 1-2.4zm-.55-.3217L2.5 11.6l-1.3945 1.6158a.525.525 0 00.049.6874L4.3 17l1.15-2.3217z" fill="#666" />
  <path fill-rule="evenodd" clip-rule="evenodd" d="M7.0405 8.204l-.3659-.2962-.7317-.5922-1.4635-1.1843-.0794-2.8 1.5032 1.1843.7516.5922.3758.2961.0099 2.8zM3 11.35V7l2.421 2v4.7643L3 11.35zm10.2746-3.4422l.3659.2961-.0099-2.8-.3758-.296-.7516-.5923L11 3.3313l.0794 2.8 1.4635 1.1843.7317.5922z" fill="#EEE" />
  <path fill-rule="evenodd" clip-rule="evenodd" d="M7.4 5L4.528 2.6966h2.1239L9.5 5H7.4zM4.073 6.3313L7 8.7H6L2.9937 6.3313H4.073zM10.5 6.5l2.7 2.2h-2.7V6.5zm7 2.2l-.5-.5v.5h.5zm-6.4-6.0034L13.9722 5h2.1l-2.8483-2.3034H11.1zM9.7 5.483H7.6V9.2H6.1v5.2h11.4V9.2h-1.2V5.483h-2.1V9.2H9.7V5.483z" fill="#fff" />
</svg>
