<svg xmlns="http://www.w3.org/2000/svg" viewBox="0 0 20 20">
  <path d="M12.4444 8l3.3334.0019L18 10.2222V18h-7.7778L8 15.7778v-3.3334h4.4444V8z" fill="#333333" />
  <g fill="#FFFFFF">
    <path d="M8.5557 14v1.4999l1.8056 1.8056v-2.3034L9.3593 14h-.8036zM14.0001 9.3576l1.0022 1.0037h2.3037l-1.8059-1.8059h-1.5v.8022zM10.6391 17.4443h6.8055v-6.8052h-2.3611v4.4445h-4.4444v2.3607z" />
  </g>
  <g fill="#D7D7D7">
    <path d="M14 9.7534v4.0501l.8056.8056v-4.0514L14 9.7534zM13.8036 14H9.752l.8057.8057h4.0517L13.8036 14z" />
  </g>
  <path d="M3 4c0-1.1046.776-2 1.7333-2h9.5334C15.224 2 16 2.8954 16 4v1c0 1.1046-.776 2-1.7333 2H14v7H5V7h-.2667C3.776 7 3 6.1046 3 5V4z" fill="#333333" />
  <g fill="#FFFFFF">
    <path d="M13.2866 13.4999l.2134-1.2804V9.3548a.8207.8207 0 00-.2679-.138c-.4043-.1197-.7883.1204-.8576.5363L11.75 13.5h1.5366zM5.5 13.4999v-3l.1245-.7468c.0693-.416.4533-.656.8576-.5362.4044.1198.676.5541.6067.9701l-.5522 3.3129H5.5zM8.7866 13.4999H7.25l.6245-3.7468c.0693-.416.4533-.656.8576-.5362.4044.1198.676.5541.6066.9701l-.5521 3.3129zM11.0366 13.4999H9.5l.6245-3.7468c.0693-.416.4533-.656.8576-.5362.4044.1198.676.5541.6066.9701l-.5521 3.3129z" />
  </g>
  <path d="M4.7333 2.5h9.5334C14.883 2.5 15.5 3.102 15.5 4v1c0 .898-.617 1.5-1.2333 1.5H4.7333C4.117 6.5 3.5 5.898 3.5 5V4c0-.898.617-1.5 1.2333-1.5z" fill="#999999" />
</svg>
