<svg xmlns="http://www.w3.org/2000/svg" viewBox="0 0 20 20">
  <path d="M15.1426 6.7275h2.5713c.71 0 1.2861.6102 1.2861 1.3633v9.5459c-.0002.753-.5762 1.3633-1.2861 1.3633H2.2861c-.71 0-1.286-.6103-1.2861-1.3633V8.0908c0-.753.576-1.3633 1.2861-1.3633h5.1426L8.714 4h5.1435l1.2852 2.7275zm-6.919 1.3633H2.2861v9.5459H17.714V8.0908h-3.3653l-1.2861-2.7275H9.5088L8.2236 8.0908zm3.0625 0c2.13.0003 3.8564 1.8317 3.8565 4.0908 0 2.2592-1.7264 4.0906-3.8565 4.0909-2.1302 0-3.8574-1.8315-3.8574-4.0909.0001-2.2592 1.7273-4.0908 3.8574-4.0908zm0 1.3633c-1.42 0-2.5721 1.2214-2.5722 2.7275 0 1.5063 1.152 2.7276 2.5722 2.7276 1.42-.0003 2.5713-1.2215 2.5713-2.7276-.0001-1.506-1.1514-2.7273-2.5713-2.7275zm-1.0927-6.5645l-.8184.5743-1.3262-1.8897L8.8672 1l1.3262 1.8897zm4.7558-1.3154L13.623 3.464l-.8183-.5743L14.1299 1l.8193.5742zM12 3h-1V.42h1V3z" fill="#333333" />
</svg>
