<svg xmlns="http://www.w3.org/2000/svg" viewBox="0 0 20 20">
  <path fill-rule="evenodd" clip-rule="evenodd" d="M9.372 11.324v-.3h-1.14v.18c0 1.044-.78 1.62-1.944 1.62-1.236 0-2.088-.72-2.088-1.932V7.988c0-1.26.9-1.944 2.04-1.944 1.164 0 2.004.576 2.004 1.62v.168h1.128v-.3C9.372 5.96 7.992 5 6.264 5 4.38 5 3 6.236 3 8.072v2.892c0 1.98 1.524 2.892 3.324 2.892 1.524 0 3.048-.816 3.048-2.532zm7.8 2.388l-2.316-3.444c1.284-.312 1.98-1.296 1.98-2.532 0-.852-.336-1.572-.924-2.016-.504-.396-1.152-.564-1.92-.564h-3.084v8.556h1.188v-3.336h1.524l2.208 3.336h1.344zm-3.408-4.344c1.2 0 1.884-.54 1.884-1.632 0-1.152-.9-1.572-1.908-1.572h-1.644v3.204h1.668z" fill="#333333" />
</svg>
