<svg xmlns="http://www.w3.org/2000/svg" viewBox="0 0 20 20">
  <g fill="#333333">
    <path d="M6 4h8v2H6V4zM12 11.2321l3-1.73-3-1.73V9H6.4C5.6268 9 5 9.6715 5 10.5v1h.9333v-1c0-.2761.209-.5.4667-.5H12v1.2321zM15 12.5021v1c0 .8284-.6268 1.5-1.4 1.5H8V16.23L5 14.5l3-1.73v1.2321h5.6c.2577 0 .4667-.2239.4667-.5v-1H15z" />
    <path fill-rule="evenodd" clip-rule="evenodd" d="M3.994 1C2.8946 1 2 1.8932 2 2.995V17.005C2 18.1074 2.8928 19 3.994 19H16.006C17.1055 19 18 18.1068 18 17.0049V2.9951C18 1.8926 17.1072 1 16.0059 1H3.9941zM3.5 16.5671V3.4329c0-.5147.4143-.9329.923-.9329H15.577c.51 0 .9231.4172.9231.9329v13.1342c0 .5146-.4143.9329-.9231.9329H4.4231c-.51 0-.9231-.4172-.9231-.9329z" />
  </g>
</svg>
