<svg xmlns="http://www.w3.org/2000/svg" viewBox="0 0 20 20">
  <g fill="#333333">
    <path d="M6 4h8v2H6V4zM12.5 9.5v1.23l3-1.73-3-1.73V8.5h-.7639A2.5 2.5 0 009.5 9.882l-.2325.465c.0656.0993.1256.2032.1797.3114l.3913.7826.5559-1.1118A1.5 1.5 0 0111.7361 9.5H12.5zM8.1615 12.559l-.056.1118A1.5 1.5 0 016.764 13.5H5v1h1.764a2.5003 2.5003 0 001.919-.8977l-.5215-1.0433z" />
    <path d="M5 9.5h1.764A2.5 2.5 0 019 10.882l1.3944 2.7888a1.5 1.5 0 001.3417.8292H12.5v-1.23l3 1.73-3 1.73V15.5h-.7639A2.5 2.5 0 019.5 14.1181l-1.3944-2.7889A1.5 1.5 0 006.7639 10.5H5v-1z" />
    <path fill-rule="evenodd" clip-rule="evenodd" d="M3.994 1C2.8946 1 2 1.8932 2 2.995V17.005C2 18.1074 2.8928 19 3.994 19H16.006C17.1055 19 18 18.1068 18 17.0049V2.9951C18 1.8926 17.1072 1 16.0059 1H3.9941zM3.5 16.5671V3.4329c0-.5147.4143-.9329.923-.9329H15.577c.51 0 .9231.4172.9231.9329v13.1342c0 .5146-.4143.9329-.9231.9329H4.4231c-.51 0-.9231-.4172-.9231-.9329z" />
  </g>
</svg>
