<svg xmlns="http://www.w3.org/2000/svg" viewBox="0 0 20 20">
  <path d="M8.3216 16.964c-.612-.18-1.152-.468-1.602-.846-.468-.36-.828-.828-1.08-1.368-.27-.54-.396-1.152-.396-1.872V8.594c0-.702.126-1.332.378-1.908.252-.576.594-1.062 1.044-1.458.45-.396.972-.702 1.584-.918.594-.216 1.242-.324 1.9621-.324.612 0 1.206.09 1.782.27.576.18 1.062.432 1.494.774.432.342.774.756 1.026 1.242.252.504.378 1.062.378 1.692v.558h-1.674v-.36c0-.432-.09-.81-.252-1.134-.162-.324-.378-.594-.648-.81-.288-.216-.612-.378-.972-.486-.378-.108-.774-.18-1.17-.18-.432 0-.828.072-1.206.198s-.72.306-1.008.558c-.288.252-.522.576-.702.936-.18.378-.252.81-.252 1.296v4.194c0 .468.072.864.252 1.224.162.36.396.666.684.918.288.252.63.45 1.026.576.396.144.828.198 1.296.198.396 0 .792-.054 1.152-.162.36-.108.666-.288.936-.486.234-.216.45-.486.612-.81.144-.324.234-.702.234-1.134v-.234h1.674v.45c0 .648-.126 1.224-.378 1.71-.252.504-.576.918-.99 1.242-.432.342-.918.594-1.476.774-.576.18-1.17.252-1.782.252-.684 0-1.332-.09-1.944-.27l.018-.018z" fill="#333333" />
</svg>
