<svg xmlns="http://www.w3.org/2000/svg" viewBox="0 0 20 20">
  <g fill-rule="evenodd" clip-rule="evenodd">
    <path d="M5.063 3.5077c-.6357 1.323-.0796 2.9097 1.2431 3.5452l2.153.9469c1.2708.5602 2.7547-.0428 3.4173-1.346.6647-1.3074.1192-2.8608-1.1838-3.436l-2.093-.9573C7.2861 1.6287 5.6985 2.185 5.063 3.5077zm7.2 3.7909c-.6357 1.323-.0796 2.9097 1.2431 3.5452l2.1531.9469c1.2707.5602 2.7546-.0428 3.4172-1.346.6647-1.3074.1192-2.8609-1.1838-3.436l-2.093-.9573c-1.3135-.6318-2.9011-.0755-3.5366 1.2472zm-11 2c-.6357 1.323-.0796 2.9097 1.2431 3.5452l2.153.9469c1.2708.5602 2.7547-.0428 3.4173-1.346.6647-1.3074.1192-2.8609-1.1838-3.436l-2.093-.9573c-1.3135-.6318-2.9011-.0755-3.5366 1.2472zm8.2431 7.0443c-1.3227-.6355-1.8788-2.2222-1.2431-3.5452.6355-1.3227 2.2231-1.879 3.5366-1.2472l2.093.9573c1.303.5752 1.8485 2.1286 1.1838 3.436-.6626 1.3032-2.1465 1.9062-3.4172 1.346l-2.153-.9469z" fill="#333333" />
    <path d="M16.0626 10.8758c.7671.3378 1.6923-.0384 2.1224-.8842.4046-.7958.0817-1.7205-.6961-2.068-.7667-.338-1.6924.0381-2.1225.8842-.4057.7979-.08 1.7254.6962 2.068zm-1.8099-.7958c-.1256-.5557-.0635-1.1633.2223-1.7254.2833-.5573.7169-.9866 1.2197-1.2516l-.3197-.1462c-.8245-.3965-1.8145-.0497-2.2106.775-.3966.8253-.05 1.8144.7595 2.2037l.3288.1445zm-.0677 5.4089c-.4302.8461-1.3559 1.2223-2.1231.8839l-.0852-.0374c-.7138-.3712-1.0007-1.259-.6103-2.0268.4301-.8461 1.3558-1.2222 2.1225-.8841l.0013-.0029c.7768.3479 1.0991 1.272.6948 2.0673zm-3.9331.0881c-.1245-.5547-.0621-1.1608.2231-1.7216.284-.5586.7189-.9885 1.2232-1.2534l-.3232-.1478c-.8245-.3966-1.8145-.0497-2.2106.7749-.3966.8254-.05 1.8145.7595 2.2037l.328.1442zm-5.1896-2.7014c.7671.3381 1.6926-.0381 2.1227-.884.4046-.7958.0817-1.7205-.696-2.068-.7668-.338-1.6925.0381-2.1226.8842-.4056.7978-.08 1.7251.6959 2.0678zM3.2527 12.08l-.3288-.1445c-.8095-.3893-1.1561-1.3784-.7595-2.2038.3961-.8246 1.386-1.1714 2.2106-.775l.3197.1463c-.5028.265-.9364.6943-1.2197 1.2516-.2858.5621-.348 1.1697-.2223 1.7254z" fill="#999999" />
    <path d="M10.9851 6.1989c-.43.8458-1.3552 1.222-2.1223.8841-.7762-.3426-1.102-1.27-.6963-2.068.4302-.846 1.3559-1.2222 2.1226-.884.7777.3474 1.1006 1.2721.696 2.0678zm-3.9322.0884c-.1256-.5557-.0636-1.1633.2222-1.7255.2834-.5572.717-.9865 1.2198-1.2515l-.3197-.1462c-.8246-.3965-1.8145-.0497-2.2107.7749-.3965.8254-.0499 1.8145.7596 2.2037l.3288.1446z" fill="#FFFFFF" />
    <path d="M2.1142 5.268l-.4512.8925 1.7824.9012.4512-.8924-1.7824-.9012zM4.764 7.7236l.4472-.8944 2.6833 1.3416-.4473.8944L4.764 7.7235zm4 2l.4472-.8944 2.6833 1.3416-.4473.8944L8.764 9.7235zm4.4472 1.1056l-.4472.8944 2.6832 1.3416.4473-.8944-2.6833-1.3416zm3.5528 2.8944l.4472-.8944L19 13.7235l-.4472.8944-1.7888-.8944z" fill="#333333" />
  </g>
</svg>
