<svg xmlns="http://www.w3.org/2000/svg" viewBox="0 0 20 20">
  <path fill-rule="evenodd" clip-rule="evenodd" d="M3 1c-1.1046 0-2 .8954-2 2v14c0 1.1046.8954 2 2 2h14c1.1046 0 2-.8954 2-2V3c0-1.1046-.8954-2-2-2H3zm1 2c-.5523 0-1 .4477-1 1v6.5c0 .5523.4477 1 1 1h1v-3c0-.5523.4477-1 1-1h1.2543C6.4285 7.497 5.76 6.8266 5.76 6c0-.8284.6715-1.5 1.5-1.5.8284 0 1.5.6716 1.5 1.5 0 .8266-.6686 1.497-1.4944 1.5h1.8419a1 1 0 01.6802.267L12 9.8199l1.1221-1.1375a.5003.5003 0 01.6407-.06l1.5472-3.888.3298.1456-1.4901 4.1609.0507.0577a.5.5 0 01-.0114.6722L12.5638 11.5H16c.5523 0 1-.4477 1-1V4c0-.5523-.4477-1-1-1H4zm7.3423 8.5L9.5 9.8199V11.5h1.8423zm-6.593 4c-.69-.0004-1.2493-.5599-1.2493-1.25 0-.6904.5596-1.25 1.25-1.25S6 13.5596 6 14.25c0 .6901-.5592 1.2496-1.2492 1.25H5.5c.5523 0 1 .4477 1 1v1H3v-1c0-.5523.4477-1 1-1h.7492zM8.75 14.25c0 .6901.5592 1.2496 1.2492 1.25H9.25c-.5523 0-1 .4477-1 1v1h3.5v-1c0-.5523-.4477-1-1-1h-.7492c.69-.0004 1.2492-.5599 1.2492-1.25 0-.6904-.5596-1.25-1.25-1.25s-1.25.5596-1.25 1.25zm6.4992 1.25c-.69-.0004-1.2492-.5599-1.2492-1.25 0-.6904.5596-1.25 1.25-1.25s1.25.5596 1.25 1.25c0 .6901-.5592 1.2496-1.2492 1.25H16c.5523 0 1 .4477 1 1v1h-3.5v-1c0-.5523.4477-1 1-1h.7492z" fill="currentColor" />
</svg>
