<svg xmlns="http://www.w3.org/2000/svg" viewBox="0 0 200 170">
  <g fill="#EEEEEE">
    <path fill-rule="evenodd" clip-rule="evenodd" d="M84.4443 6.4193C84.4443 2.874 87.3171 0 90.8545 0h70.6365c3.54 0 8.418 2.0211 10.941 4.5607l23.037 23.1885c2.502 2.5188 4.531 7.4524 4.531 11.013v71.1008c0 3.564-2.857 6.453-6.377 6.453h-69.179v36.209c0 9.651-7.738 17.475-17.284 17.475H17.284C7.7383 170 0 162.176 0 152.525V75.6333c0-9.6514 7.7383-17.4754 17.284-17.4754h67.1603V6.4193zM117.531 152.525v-36.209H101.16l-3.8539 10.879 4.0239 4.001c.198.197.198.519 0 .716L77.0881 156.02l-21.087-20.971v27.961h51.1599c5.727 0 10.37-4.695 10.37-10.485zm-14.083-42.671h90.132V98.6942h-23.555V70.5863c0-1.6592-.633-2.3212-2.219-2.3212-1.743 0-4.582.9931-6.325 2.3212v28.1079h-12.069V58.069h9.277l.711 2.5705c2.614-1.9085 6.342-3.4001 10.465-3.4001 6.342 0 12.844 2.4887 12.844 10.944v20.0899h10.871V38.7622l-32.099.0097.01-32.31H90.8641V109.854h8.2594l6.6445-16.881c-3.852-4.7147-5.495-12.0451-5.495-22.2191 0-19.7344 6.182-28.8516 22.672-28.8516 16.413 0 22.516 9.1213 22.516 28.8516 0 19.7302-6.107 28.7699-22.516 28.7699-6.201 0-10.944-1.2777-14.449-3.9214l-5.048 14.2516zm-6.868 6.462l-2.8733 7.3-2.2092-2.197a.497.497 0 00-.7028 0l-13.7066 13.63-20.7948-20.68a.9968.9968 0 00-.7029-.29H14.8271c-.5522 0-1 .451-1 1.007v47.327c-4.0277-1.439-6.9135-5.323-6.9135-9.888V75.6333c0-5.7909 4.643-10.4852 10.3704-10.4852h67.1603v44.7479c0 3.545 2.8553 6.42 6.3774 6.42H96.58zM167.901 9.693l22.469 23.0863h-22.469V9.693zm-44.956 77.8079c5.866 0 8.484-2.9832 8.484-16.747s-2.618-16.8328-8.484-16.8328c-5.947 0-8.483 3.1508-8.483 16.8287 0 13.6821 2.536 16.7511 8.483 16.7511z" />
    <path d="M34.5679 114.079c7.6365 0 13.8272-6.259 13.8272-13.98 0-7.7214-6.1907-13.9806-13.8272-13.9806s-13.8272 6.2592-13.8272 13.9806c0 7.721 6.1907 13.98 13.8272 13.98z" />
  </g>
</svg>
