<svg xmlns="http://www.w3.org/2000/svg" viewBox="0 0 20 20">
  <path fill-rule="evenodd" clip-rule="evenodd" d="M3 1c-1.1046 0-2 .8954-2 2v14c0 1.1046.8954 2 2 2h6.999c-.0044-.3092.0633-.6274.2163-.9334l.2833-.5666H8.25v-1c0-.5523.4477-1 1-1h.7492c-.69-.0004-1.2492-.5599-1.2492-1.25 0-.6904.5596-1.25 1.25-1.25s1.25.5596 1.25 1.25c0 .6901-.5592 1.2496-1.2492 1.25h.7492a.9957.9957 0 01.6349.2274L13.4986 11.5h-.9348l1.6252-1.7292c.2121-.2257.1457-.5192-.0393-.73L15.6398 4.88l-.3298-.1456-1.5472 3.888a.5003.5003 0 00-.6407.06L12 9.82l-2.2123-2.053a1 1 0 00-.6802-.267h-1.842C8.0916 7.497 8.76 6.8267 8.76 6c0-.8284-.6716-1.5-1.5-1.5-.8285 0-1.5.6716-1.5 1.5 0 .8266.6685 1.497 1.4943 1.5H6c-.5523 0-1 .4477-1 1v3H4c-.5523 0-1-.4477-1-1V4c0-.5523.4477-1 1-1h12c.5523 0 1 .4477 1 1 0 2.1435-.0106 6.6462-.0106 6.6462a2.066 2.066 0 01.3249.4743L19 14.4919V3c0-1.1046-.8954-2-2-2H3zm6.5 10.5h1.8423L9.5 9.8199V11.5zm-4.7508 4c-.69-.0004-1.2492-.5599-1.2492-1.25 0-.6904.5596-1.25 1.25-1.25S6 13.5596 6 14.25c0 .6901-.5592 1.2496-1.2492 1.25H5.5c.5523 0 1 .4477 1 1v1H3v-1c0-.5523.4477-1 1-1h.7492z" fill="currentColor" />
  <path d="M14.5828 11.5677c.3785-.7569 1.4586-.7569 1.837 0l3.4731 6.9461c.3414.6828-.1551 1.4862-.9185 1.4862h-6.9461c-.7634 0-1.26-.8034-.9186-1.4862l3.4731-6.9461z" fill="#FAB601" />
  <path fill-rule="evenodd" clip-rule="evenodd" d="M14.9879 16.4057c0 .2834.2295.5135.5135.5135a.5134.5134 0 00.5135-.5135v-2.0539a.5134.5134 0 00-.5135-.5135.5134.5134 0 00-.5135.5135v2.0539zm.5135 1.0269a.5138.5138 0 01.5135.5135.5138.5138 0 01-.5135.5135.5137.5137 0 01-.5135-.5135c0-.2834.23-.5135.5135-.5135z" fill="#FFFFFF" />
</svg>
