<svg xmlns="http://www.w3.org/2000/svg" viewBox="0 0 14 14">
  <path fill-rule="evenodd" clip-rule="evenodd" d="M12.9231 7c0-3.2712-2.6519-5.923-5.9231-5.923V0c3.866 0 7 3.134 7 7s-3.134 7-7 7-7-3.134-7-7a6.9716 6.9716 0 011.5013-4.3321L.194 1.378h3.4661l.0092 3.4291-1.396-1.3773C1.5222 4.4228 1.077 5.6592 1.077 7c0 3.2712 2.6519 5.9231 5.9231 5.9231S12.9231 10.2712 12.9231 7zM4.075 6.5374s.107-2.253 2.035-2.5179c1.575-.2164 2.465 1.4358 2.465 1.4358s.9-.4328 1.575.2164c.675.6492.45 1.515.45 1.515s.9.1094.9 1.2984C11.5 10 9.25 10 9.25 10h-4.5S2.5 9.7703 2.5 8.0523c0-1.515 1.575-1.515 1.575-1.515z" fill="#FFFFFF" />
</svg>
