<svg xmlns="http://www.w3.org/2000/svg" viewBox="0 0 20 20">
  <path fill-rule="evenodd" clip-rule="evenodd" d="M17.9816 17.3152h-1.623c-1.149 0-2.299.004-3.449-.004-.202-.002-.319.057-.429.238-1.165 1.934-3.79 1.935-4.953.003-.108-.18-.222-.243-.426-.242-1.526.008-3.051.005-4.576.005h-.499c0-.45.043-.883-.008-1.305-.087-.7.127-1.181.744-1.58 1.083-.699 1.497-1.782 1.52-3.034.021-1.145.031-2.289.066-3.433.064-2.085 1.518-4.305 4.009-5.041.406-.12.524-.27.506-.677-.031-.744.432-1.233 1.103-1.245.68-.011 1.17.457 1.188 1.135.017.625.017.625.6.813 2.399.773 3.903 2.88 3.937 5.518.012.904.038 1.808.026 2.711-.019 1.457.499 2.638 1.751 3.437.415.266.568.581.524 1.069-.048.523-.011 1.054-.011 1.632z" fill="#1651B0" />
</svg>
