<svg xmlns="http://www.w3.org/2000/svg" viewBox="0 0 20 20">
  <g fill="#666666">
    <path d="M17.9816 17.3152h-1.623c-.2872 0-.5744.0002-.8617.0005-.8619.0007-1.725.0015-2.5873-.0045-.202-.002-.319.057-.429.238-1.165 1.934-3.79 1.935-4.953.003-.108-.18-.222-.243-.426-.242-.7511.0039-1.502.0052-2.2528.0055l10.8514-8.2981.0031.179c.0115.6604.0231 1.3208.0143 1.9806-.019 1.457.499 2.638 1.751 3.437.415.266.568.581.524 1.069-.0332.3613-.0258.7265-.018 1.1083.0035.1708.007.3451.007.5237zM14.7555 5.2223c-.6831-1.0597-1.713-1.8591-3.0009-2.2741-.583-.188-.583-.188-.6-.813-.018-.678-.508-1.146-1.188-1.135-.671.012-1.134.501-1.103 1.245.018.407-.1.557-.506.677-2.491.736-3.945 2.956-4.009 5.041-.0243.7948-.0366 1.5896-.0488 2.3847-.0054.3493-.0108.6988-.0172 1.0483-.018.9823-.2768 1.8606-.9105 2.531L.3926 16.2056l1.2149 1.5888 17-13-1.2149-1.5888-2.6371 2.0167z" />
  </g>
</svg>
