<svg xmlns="http://www.w3.org/2000/svg" viewBox="0 0 20 20">
  <path d="M3 6c0-1.6569 1.3431-3 3-3h8c1.6569 0 3 1.3431 3 3v8c0 1.6569-1.3431 3-3 3H6c-1.6569 0-3-1.3431-3-3V6z" fill="#FFFFFF" />
  <path fill-rule="evenodd" clip-rule="evenodd" d="M14 4H6c-1.1046 0-2 .8954-2 2v8c0 1.1046.8954 2 2 2h8c1.1046 0 2-.8954 2-2V6c0-1.1046-.8954-2-2-2zM6 3C4.3431 3 3 4.3431 3 6v8c0 1.6569 1.3431 3 3 3h8c1.6569 0 3-1.3431 3-3V6c0-1.6569-1.3431-3-3-3H6z" fill="#009400" />
  <path fill-rule="evenodd" clip-rule="evenodd" d="M17.9209 1.816c.6539.5087.7717 1.451.2631 2.105l-7 9a1.5002 1.5002 0 01-2.2447.1397l-3-3c-.5857-.5858-.5857-1.5355 0-2.1213.5858-.5858 1.5356-.5858 2.1214 0L9.8592 9.738l5.9568-7.6587c.5086-.654 1.451-.7718 2.1049-.2632z" fill="#009400" />
</svg>
