<svg xmlns="http://www.w3.org/2000/svg" viewBox="0 0 20 20">
  <path fill-rule="evenodd" clip-rule="evenodd" d="M13.199 1.7501c-.953-.218-1.9719-.336-3.0308-.336-5.3183 0-9.6296 2.9772-9.6296 6.6498 0 2.3457 1.7587 4.4077 4.4153 5.5915L.9425 18.5521l7.3432-3.9654c.6088.0833 1.2382.127 1.8824.127 5.3183 0 9.6296-2.9772 9.6296-6.6498 0-.65-.135-1.2783-.3868-1.872a3.9823 3.9823 0 01-2.4111.808c-2.2092 0-4-1.7908-4-4 0-.4364.0699-.8566.1991-1.2498z" fill="#333333" />
  <path d="M20 3c0 1.6569-1.3431 3-3 3s-3-1.3431-3-3c0-1.6568 1.3431-3 3-3s3 1.3432 3 3z" fill="#1651B0" />
</svg>
