<svg xmlns="http://www.w3.org/2000/svg" viewBox="0 0 20 20">
  <g fill="#333333">
    <path d="M10.0041.3999l-4.8 2.6459V8.354l4.8 2.6459 4.8-2.6459V3.0458l-4.8-2.6459zM0 11.6428l4.8-2.646 4.8 2.646v5.3082l-4.8 2.6459L0 16.951v-5.3082zM10.4041 11.6428l4.8-2.646 4.8 2.646v5.3082l-4.8 2.6459-4.8-2.6459v-5.3082z" />
  </g>
  <g fill="#FFFFFF">
    <path d="M6.3423 3.2134l3.6615 1.7435 3.6616-1.7436-3.6615-1.9132-3.6616 1.9133zM14.0039 3.9382l-3.6001 1.7143v4.2386l3.6001-1.8812V3.9382zM9.6038 9.891V5.6525L6.004 3.9383v4.0716l3.6 1.881zM1.1382 11.8104l3.6615 1.7435 3.6616-1.7436L4.7998 9.897l-3.6616 1.9134zM8.7998 12.5352l-3.6 1.7143v4.2386l3.6-1.8812v-4.0717zM4.3997 18.488v-4.2385L.7998 12.5353v4.0716l3.6 1.8811zM11.5423 11.8104l3.6616-1.9134 3.6615 1.9133-3.6616 1.7436-3.6615-1.7435zM11.2039 12.5353v4.0716l3.5999 1.8811v-4.2385l-3.5999-1.7142zM15.6038 18.4881l3.6001-1.8812v-4.0717l-3.6001 1.7143v4.2386z" />
  </g>
</svg>
