<svg xmlns="http://www.w3.org/2000/svg" viewBox="0 0 20 20">
  <path fill-rule="evenodd" clip-rule="evenodd" d="M13.5196 3.2038l-.0672-.0007c-1.5606.0007-2.8369 1.277-2.8369 2.837l.0007 3.6154c0 1.5599 1.2763 2.8362 2.8362 2.8362h.0665c.1301 0 .2574-.0099.3832-.0269v-1.3237a1.4864 1.4864 0 01-.3825.0502h-.0665c-.8471 0-1.5365-.6894-1.5365-1.5365V6.0415c0-.8472.6894-1.5366 1.5365-1.5366h.0665c.8471 0 1.5365.6894 1.5358 1.5358l.0007 1.6356a3.9817 3.9817 0 011.2997.8938l.0007-2.5294c-.0007-1.5605-1.277-2.8369-2.8369-2.8369zm-.0679 5.275c-.1301 0-.2567.0107-.3825.0276l.0007 1.323a1.5125 1.5125 0 01.3825-.0502h.0665c.8471 0 1.5365.6894 1.5365 1.5366v3.6147c0 .8471-.6894 1.5365-1.5365 1.5365h-.0665c-.8478-.0007-1.5365-.6894-1.5365-1.5365v-1.6348a3.9866 3.9866 0 01-1.3004-.8945v2.53c0 1.5599 1.2763 2.8362 2.8369 2.8369l.0672-.0007c1.5599 0 2.8362-1.2763 2.8362-2.8362v-3.6147c.0007-1.5606-1.2763-2.8377-2.8369-2.837h-.0665l-.0007-.0007zM2 7h2v2c0 1.6569 1.3431 3 3 3h2v-1H7c-1.1046 0-2-.8954-2-2V7h2L4.5 4 2 7z" fill="#333333" />
</svg>
