<svg xmlns="http://www.w3.org/2000/svg" viewBox="0 0 20 20">
  <path fill-rule="evenodd" clip-rule="evenodd" d="M10.5 2.5c0-.829-.6719-1.5-1.4994-1.5-.5472 0-1.026.2926-1.2882.73H5.5027C3.4203 1.73 1.73 3.42 1.73 5.5v3.77h2.2676c.277 0 .6797.2348.8113.4716l1.536 2.7647c.5461.9831 1.7215 1.0322 2.346.0954L10.5 9.8881l1.8091 2.7136c.6412.9619 1.8331.8492 2.2993-.1996l1.1905-2.6787c.1005-.226.4505-.4534.7011-.4534h.23v7.46H4.2877c-.2621-.4374-.7407-.73-1.2871-.73-.8287 0-1.5006.671-1.5006 1.5S2.1719 19 3.0006 19c.5464 0 1.025-.2926 1.287-.73H18.27V7.73H16.5c-.859 0-1.7607.5856-2.1084 1.368l-1.027 2.3108-1.6737-2.5105c-.6094-.9142-1.773-.9132-2.3818 0L7.5598 11.522 6.1551 8.9937C5.7508 8.2659 4.8316 7.73 3.9976 7.73H3.27V5.5c0-1.2294 1.0007-2.23 2.2327-2.23h2.2097c.2621.4374.741.73 1.2882.73C9.828 4 10.5 3.329 10.5 2.5z" fill="#333333" />
</svg>
