<svg xmlns="http://www.w3.org/2000/svg" viewBox="0 0 20 20">
  <path fill-rule="evenodd" clip-rule="evenodd" d="M3 3H2v1h16V3h-1V2h-4l-1-1H8L7 2H3v1zM2 17H1v2h7v-3h3.2486L13 12.4972V11h.7534c.7988-1.3723 2.8345-1.3322 3.5609.1205L18 12.4919V5H2v12zM7 7H3v2h4V7zm-4 4h4v2H3v-2zm9-4H8v2h4V7zm-4 4h4v2H8v-2zm9-4h-4v2h4V7z" fill="currentColor" />
  <path d="M14.5828 11.5677c.3785-.7569 1.4586-.7569 1.837 0l3.4731 6.9461c.3414.6828-.1551 1.4862-.9185 1.4862h-6.9461c-.7634 0-1.26-.8034-.9186-1.4862l3.4731-6.9461z" fill="#FAB601" />
  <path fill-rule="evenodd" clip-rule="evenodd" d="M14.9879 16.4057c0 .2834.2295.5135.5135.5135a.5134.5134 0 00.5135-.5135v-2.0539a.5134.5134 0 00-.5135-.5135.5134.5134 0 00-.5135.5135v2.0539zm.5135 1.0269a.5138.5138 0 01.5135.5135.5138.5138 0 01-.5135.5135.5137.5137 0 01-.5135-.5135c0-.2834.23-.5135.5135-.5135z" fill="#FFFFFF" />
</svg>
