<svg xmlns="http://www.w3.org/2000/svg" viewBox="0 0 20 20">
  <g fill="#333333" fill-rule="evenodd" clip-rule="evenodd">
    <path d="M10.5 6c2.4853 0 4.5 2.0147 4.5 4.5S12.9853 15 10.5 15 6 12.9853 6 10.5 8.0147 6 10.5 6zm0 1C8.567 7 7 8.567 7 10.5S8.567 14 10.5 14s3.5-1.567 3.5-3.5S12.433 7 10.5 7z" />
    <path d="M10.5 4c3.5899 0 6.5 2.9101 6.5 6.5S14.0899 17 10.5 17 4 14.0899 4 10.5 6.9101 4 10.5 4zm0 1C7.4624 5 5 7.4624 5 10.5S7.4624 16 10.5 16s5.5-2.4624 5.5-5.5S13.5376 5 10.5 5z" />
  </g>
</svg>
