<svg xmlns="http://www.w3.org/2000/svg" viewBox="0 0 20 20">
  <path fill-rule="evenodd" clip-rule="evenodd" d="M4 16v.7572L15.6846 5.959c.489-.103.9191-.2097 1.2806-.318.3614-.1083.6749-.2243.9153-.3498L3 19.043V16h1zm0-1v-3H3v3h1zm-1-4h1V8H3v3zm0-4h1V4H3v3zm0-4h1V1H3v2z" fill="#1651B0" />
  <path fill-rule="evenodd" clip-rule="evenodd" d="M5.554 9.8561l.1928 1.5002-2.2386-1.7288L5.237 7.3889l.1887 1.4686c.6228-.1486 1.2768-.1972 1.9456-.03.5911.1478 1.1603.4554 1.71.9578l1.053-.948-.148 2.8245-2.8245-.148 1.1721-1.0555c-.4198-.3658-.8222-.565-1.2051-.6607-.5014-.1253-1.0197-.0863-1.5748.0585z" fill="#1651B0" />
  <path d="M4 3c3.8432 0 6.9435.2913 9.5757.6839 1.3187.1966 2.3798.4165 3.1025.633.2145.0643.3908.126.531.1831-.1402.0572-.3165.1188-.531.183-.7227.2166-1.7838.4365-3.1025.6331C10.9435 5.7087 7.8432 6 4 6H3v1h1c3.8887 0 7.0385-.2945 9.7232-.6948 1.3399-.1998 2.454-.4281 3.242-.6643.3904-.117.7251-.2429.9719-.3801.1223-.068.2471-.1519.3473-.2572.0982-.1032.2156-.2737.2156-.5036 0-.23-.1174-.4004-.2156-.5036-.1002-.1053-.225-.1891-.3473-.2572-.2468-.1372-.5815-.2632-.9719-.3801-.788-.2362-1.9021-.4645-3.242-.6643C11.0385 2.2945 7.8887 2 4 2v1z" fill="#999999" />
</svg>
