<svg xmlns="http://www.w3.org/2000/svg" viewBox="0 0 160 160">
  <path fill-rule="evenodd" clip-rule="evenodd" d="M50.5264 0H0v65.641l33.6843.0001v61.5379L96.8421 160 160 127.179V53.3333L96.8421 24.6154 84.2105 30.359V0H50.5264zm46.3158 82.0514L60.3509 65.6411l23.8596-.0001V38.5011l12.6317-5.6805L151.579 57.436 96.8422 82.0514zM33.6843 8.2051h16.8421v16.4103H33.6843V8.2051zm0 24.6154h16.8421v8.2053H33.6843v-8.2053zm25.2631 0v8.2053h16.8421v-8.2053H58.9474zM33.6843 49.2309h16.8421v8.205H33.6843v-8.205zm42.1052 8.205H58.9474v-8.205h16.8421v8.205zM58.9474 8.2051v16.4103h16.8421V8.2051H58.9474zm-33.6831 0H8.4211v16.4103h16.8455l-.0023-16.4103zm.0034 24.6154H8.421v8.2053h16.8478l-.0011-8.2053zm.0022 16.4104H8.4211v8.205H25.271l-.0011-8.205zm67.3617 41.0257L42.1053 65.6412v57.4358l50.5263 24.616V90.2566zm58.9474-24.6154l-50.527 24.6154v57.4364l50.527-24.616V65.6412z" fill="#EEEEEE" />
</svg>
