<svg xmlns="http://www.w3.org/2000/svg" viewBox="0 0 20 20">
  <path fill-rule="evenodd" clip-rule="evenodd" d="M2 2h16v16H2V2zm1 4h14v11H3V6zm7.7399 4.7942c-.0651.1101-.131.2217-.1993.3345-.028-.1075-.0536-.2124-.0787-.3152-.0533-.2186-.1043-.4275-.1706-.6302-.1507-.4613-.462-.7106-.8944-.7633-.4788-.0587-.9275.0827-1.3663.2747-.3043.1333-.3262.1753-.3306.552a5.6152 5.6152 0 00.0965-.0327h.0001c.0699-.0241.1396-.0482.2103-.066.5-.1293.8069.052.9637.5973.13.4557.2437.9176.3573 1.3793v.0001l.0427.1733c.015.0607.005.15-.0262.2007-.051.0839-.109.1625-.1668.2411a4.305 4.305 0 00-.1295.1822c-.1106.168-.2369.212-.4093.1173-.0832-.046-.1807-.0653-.2738-.0806-.3513-.0574-.6881-.04-.95.2866-.2406.3007-.2787.812-.0831 1.112.1937.298.5718.4.9137.2087.1594-.0893.315-.224.425-.38.1745-.2482.3346-.5091.4947-.7699v-.0001c.0687-.1119.1374-.2238.2072-.3347.0291-.0471.0591-.0933.0957-.1498l.023-.0355c.0264.1056.051.2083.0752.3087.0537.2234.1047.4356.1655.644.1506.5146.4875.7646.955.814.4675.0493.9025-.0934 1.33-.282.2856-.1254.3168-.178.3237-.5467l-.084.0271h-.0001a8.117 8.117 0 01-.1865.0589c-.5413.1567-.8375-.02-1.0094-.6167a15.7602 15.7602 0 01-.1308-.4935c-.0621-.2449-.1242-.4894-.2029-.7271-.1188-.3574-.0475-.6234.1768-.894l.0402-.0485c.2048-.2473.2093-.2527.5361-.1529.3081.094.6169.138.9162-.0386.3957-.234.5569-.8427.335-1.2574-.2025-.38-.6956-.4753-1.0662-.174-.1788.1454-.335.3387-.4694.5387-.1589.2361-.305.4832-.4557.7382zm2.5057 5.2045c1.0644-2.638 1.1169-5.282.1969-7.9934.0576 0 .1146-.0002.1712-.0004.177-.0008.3495-.0015.5219.0051.0319.0013.0725.0553.0931.1.6469 1.394.8694 2.916.7325 4.564-.0993 1.204-.485 2.2307-.9368 3.226-.0213.0473-.0738.0927-.1125.094-.1539.0069-.3085.0061-.48.0053h-.0007a36.3794 36.3794 0 00-.1856-.0006zm-6.4875-.0014C5.6963 13.36 5.6413 10.714 6.5637 8.0047h-.6056c-.0082 0-.0168-.0011-.0254-.0023-.0196-.0025-.0392-.005-.054.0056-.0393.0287-.0837.0633-.1068.1133-.8175 1.7927-.9656 3.7107-.5381 5.7334.13.616.364 1.1584.598 1.7004.0493.1143.0986.2286.147.3436.0168.0406.0525.0933.08.094.1697.0061.3398.0056.5254.005.0564-.0002.1142-.0004.174-.0004z" fill="#333333" />
</svg>
