<svg xmlns="http://www.w3.org/2000/svg" viewBox="0 0 20 20">
  <path fill-rule="evenodd" clip-rule="evenodd" d="M6 14.9998C7.1887 12.6255 9.6084 11 12.3998 11c2.7913 0 5.211 1.6255 6.3997 3.9998C17.6105 17.3745 15.1911 19 12.3998 19 9.6084 19 7.1887 17.3745 6 14.9998zm6.3998-1.2748c0 .6627-.5373 1.1999-1.2 1.1999-.6626 0-1.1999-.5372-1.1999-1.1999s.5373-1.2 1.1999-1.2c.6627 0 1.2.5373 1.2 1.2zm3.1555-.6036c.7521.4798 1.3892 1.122 1.8681 1.8785-.4789.7567-1.116 1.399-1.8681 1.8788a5.858 5.858 0 01-3.1555.9214 5.8574 5.8574 0 01-3.1554-.9214c-.7522-.4798-1.3893-1.1221-1.8681-1.8788.4788-.7565 1.1159-1.399 1.868-1.8785a5.7424 5.7424 0 01.148-.0913A3.1975 3.1975 0 009.2 14.125c0 1.7674 1.4326 3.1999 3.1999 3.1999 1.7674 0 3.1999-1.4325 3.1999-3.1999 0-.3847-.0682-.7534-.1924-1.0949.0496.0298.0989.06.148.0913z" fill="#333333" />
  <path fill="#90CEF1" d="M1 1h18v7H1z" />
  <path fill-rule="evenodd" clip-rule="evenodd" d="M19 7H1v7h4.4088c1.4322-2.3912 4.0218-4 6.991-4 2.7162 0 5.1148 1.3464 6.6002 3.4064V7z" fill="#FFFFFF" />
  <path fill-rule="evenodd" clip-rule="evenodd" d="M6.4 1H19v12.4064C17.5146 11.3464 15.116 10 12.3998 10c-2.375 0-4.5071 1.0293-5.9983 2.665l-.0001-.865H2.8v1.7999h2.8642a8.3534 8.3534 0 00-.5584.9523l-.224.4476.2002.4002H1V1h5.4zm1.8 1.8h3.5999v3.6h-3.6V2.8zm0 5.4h3.5999V10h-3.6V8.2zm5.3999 0V10h3.6V8.2h-3.6zm0-5.4v3.6h3.6V2.8h-3.6zm-7.1997 0H2.8v3.6h3.6007l-.0005-3.6zm.0007 5.4H2.8V10h3.6013l-.0003-1.8z" fill="#1651B0" />
</svg>
