<svg xmlns="http://www.w3.org/2000/svg" viewBox="0 0 20 20">
  <path d="M17 8.7568A4.4915 4.4915 0 0015.5 8.5c-.8281 0-1.604.226-2.2705.6162l-.0957-.0967-.0752-.0693c-.7948-.6824-2.0584-.1257-2.0586.9531v5.2969H3V4h14v4.7568zm0 6.4434h-.29a5.7043 5.7043 0 00.29-.2031v.2031zm-1.3203-5.6953A3.4817 3.4817 0 0117 9.8369v1.1651a2.4872 2.4872 0 00-.1904-.1309C16.1932 10.3292 15.3852 10 14.5 10c-.2647 0-.5226-.0085-.7705-.0176A3.4834 3.4834 0 0115.5 9.5l.1797.0049zM12 9.9033c.0002-.2225.2693-.334.4268-.1767l.2353.2353c-.2419.006-.4641.0252-.6621.0693v-.1279z" fill="#1651B0" />
  <path d="M7.2012 13.7998H4.4004v-1.3994h2.8008v1.3994zm3.7988 0H8.5996v-1.3994H11v1.3994zM7.2012 11H4.4004V9.5996h2.8008V11zm3.8379-1.4004c-.0232.096-.0391.1968-.0391.3037V11H8.5996V9.5996h2.4395zm4.5605.5801A3.4868 3.4868 0 0014.5 10c-.2647 0-.5226-.0085-.7705-.0176a3.497 3.497 0 01.9512-.3828h.9189v.5801z" fill="#FFFFFF" />
  <path d="M7.2002 8.2002H4.4004V5.4004h2.7998v2.7998zm4.2002 0H8.5996V5.4004h2.8008v2.7998zm4.1992 0h-2.7998V5.4004h2.7998v2.7998z" fill="#90CEF1" />
  <path d="M13.835 11.135A2.49 2.49 0 0115.5 10.5c1.3807 0 2.5 1.1193 2.5 2.5s-1.1193 2.5-2.5 2.5c-.715 0-1.3593-.2995-1.8156-.7813a.5.5 0 10-.726.6876c.6373.6729 1.5407 1.0937 2.5416 1.0937 1.933 0 3.5-1.567 3.5-3.5s-1.567-3.5-3.5-3.5c-.9159 0-1.7495.352-2.3729.9272l-.7003-.7004c-.1575-.1575-.4268-.046-.4268.1768V12.05a.25.25 0 00.25.25h2.1465c.2227 0 .3342-.2692.1767-.4267l-.7382-.7383z" fill="#333333" />
</svg>
