<svg xmlns="http://www.w3.org/2000/svg" viewBox="0 0 20 20">
  <g fill="#333333">
    <path d="M0 4V3c0-1.6568 1.3432-3 3-3h1v1H3c-1.1046 0-2 .8954-2 2v1H0zM16 0h1c1.6569 0 3 1.3432 3 3v1h-1V3c0-1.1046-.8954-2-2-2h-1V0zM20 17v-1h-1v1c0 1.1046-.8954 2-2 2h-1v1h1c1.6569 0 3-1.3431 3-3zM4 20H3c-1.6568 0-3-1.3431-3-3v-1h1v1c0 1.1046.8954 2 2 2h1v1zM8 0v1h4V0H8zM8 20v-1h4v1H8zM20 8h-1v4h1V8z" />
    <path fill-rule="evenodd" clip-rule="evenodd" d="M12.6362 17.3494l-.035.934c-.007.226.148.459.359.539 0 0 .116.044.294.095.178.05.3.073.3.073.225.041.479-.078.59-.277l.455-.811c.018-.031.089-.076.14-.079l.32-.037c.035-.006.115.02.139.046l.631.682c.158.171.435.222.657.114l.511-.286c.189-.121.293-.394.232-.611l-.254-.923c.001-.05.021-.099.045-.126l.198-.254c.021-.029.096-.066.133-.065l.929.035c.228.009.463-.145.544-.359 0 0 .044-.116.095-.294.05-.178.072-.299.072-.299.003-.014.008-.065.009-.079.006-.205-.112-.415-.285-.512l-.811-.456c-.031-.018-.076-.089-.079-.139l-.039-.335c.002-.05.029-.109.047-.124l.682-.631c.166-.154.231-.419.114-.657l-.287-.51c-.125-.195-.388-.296-.611-.232l-.894.251c-.035.01-.116-.009-.155-.043l-.254-.199c-.029-.02-.067-.094-.066-.132l.036-.933c.006-.227-.149-.459-.36-.539 0 0-.116-.045-.294-.095-.178-.051-.299-.073-.299-.073-.226-.042-.479.077-.591.276l-.455.811c-.018.031-.089.076-.14.079l-.319.038c-.035.006-.114-.021-.139-.046l-.631-.683c-.158-.17-.435-.222-.657-.114l-.51.286c-.19.121-.294.393-.233.611l.255.924c-.002.05-.022.099-.046.127l-.198.253c-.021.03-.096.067-.132.066l-.93-.036c-.228-.008-.462.146-.544.359 0 0-.044.116-.094.294-.051.178-.073.3-.073.3-.002.013-.007.065-.008.078-.005.204.112.416.285.513l.811.455c.031.018.076.089.079.14l.038.334c-.002.05-.029.109-.046.124l-.682.632c-.166.153-.232.417-.114.656l.285.511c.125.195.388.296.611.233l.895-.251c.034-.01.116.009.155.043l.253.198c.03.019.067.093.066.13zm.3629-2.893c.024-.826.716-1.48 1.542-1.457.826.024 1.48.716 1.457 1.542-.024.827-.716 1.481-1.542 1.457-.827-.023-1.481-.716-1.457-1.542z" />
  </g>
  <g fill-rule="evenodd" clip-rule="evenodd">
    <path d="M13 2H0v10h9.5997C10.2886 10.6524 11.517 9.6265 13 9.207V2z" fill="#333333" />
    <path d="M9 6h3v2H9V6zM5 6h3v2H5V6zM1 6h3v2H1V6zm7 3H5v2h3V9zm4 .5997A5.521 5.521 0 0010.2572 11H9V9h3v.5997zM1 9h3v2H1V9z" fill="#FFFFFF" />
    <path d="M5 3h3v2H5V3zm4 0v2h3V3H9zM4 3H1v2h3V3z" fill="#999999" />
  </g>
</svg>
