<svg xmlns="http://www.w3.org/2000/svg" viewBox="0 0 20 20">
  <path d="M17 8.416A4.9834 4.9834 0 0015 8c-2.7612 0-5 2.2381-5 5 0 .7897.1838 1.5362.5098 2.2002H3V4h14v4.416z" fill="#1651B0" />
  <path d="M7.2002 8.2002H4.4004V5.4004h2.7998v2.7998zm4.2002 0H8.5996V5.4004h2.8008v2.7998zm4.1992-.164a4.9998 4.9998 0 00-2 .164h-.7998V5.4004h2.7998V8.036z" fill="#90CEF1" />
  <path d="M7.2012 13.7998H4.4004v-1.3994h2.8008v1.3994zm2.8359-1.3994A5.0482 5.0482 0 0010 13c0 .2723.0226.5393.0645.7998H8.5996v-1.3994h1.4375zM7.2011 11H4.4005V9.5996h2.8008V11zm4.1339-1.4004A5.0044 5.0044 0 0010.417 11H8.5996V9.5996h2.7354z" fill="#FFFFFF" />
  <path fill-rule="evenodd" clip-rule="evenodd" d="M15 9c-2.209 0-4 1.7905-4 4 0 2.2095 1.791 4 4 4s4-1.7905 4-4c0-2.2095-1.791-4-4-4zm0 .75c-1.7945 0-3.25 1.4549-3.25 3.25 0 1.7945 1.4555 3.25 3.25 3.25s3.25-1.4555 3.25-3.25c0-1.7951-1.4555-3.25-3.25-3.25zm1.25 5L14.5 13v-2h.75v1.75l1.5 1.5-.5.5z" fill="#333333" />
</svg>
