<svg xmlns="http://www.w3.org/2000/svg" viewBox="0 0 20 20">
  <path fill-rule="evenodd" clip-rule="evenodd" d="M18 2H2v16h16V2zm-1 4H3v11h14V6zm-4.0253 8.825c.048.149.027.285-.065.411-.091.126-.228.207-.411.245-.193.036-.371.02-.535-.051-.164-.07-.269-.175-.317-.316a2.8824 2.8824 0 01-.116-.322l-.0289-.0782a85.818 85.818 0 01-.1081-.2938c-.053-.144-.108-.301-.166-.472h-2.455c-.068.171-.125.328-.174.472-.048.145-.091.269-.13.372-.038.126-.077.233-.115.322-.048.141-.154.246-.318.316-.164.071-.341.087-.534.051-.183-.038-.32-.119-.412-.245-.091-.126-.113-.262-.065-.411l2.311-7.437c.039-.118.118-.212.238-.283.121-.07.263-.105.426-.105.164 0 .306.035.426.105.121.071.2.165.239.283l2.31 7.437zM10.0002 9.5L11 13H9l1.0002-3.5z" fill="#333333" />
</svg>
