<svg xmlns="http://www.w3.org/2000/svg" viewBox="0 0 20 20">
  <path fill-rule="evenodd" clip-rule="evenodd" d="M2 2.995C2 1.8933 2.8945 1 3.994 1H16.006C17.1072 1 18 1.8926 18 2.995v6.8076a5.9708 5.9708 0 00-1-.4612V2.995C17 2.445 16.5551 2 16.0059 2H3.9941C3.446 2 3 2.4461 3 2.995V17.005c0 .5501.445.9951.994.9951h5.8083a6.018 6.018 0 00.7247 1H3.994C2.8929 19 2 18.1074 2 17.0049V2.9951zM9.083 14A6.0406 6.0406 0 009 15H5v-1h4.083zm1.4447-3a6.0216 6.0216 0 00-.725 1H5v-1h5.5277zM15 9V8H5v1h10zm0-4H5v1h10V5z" fill="#333333" />
  <path d="M15 10c-2.762 0-5 2.2389-5 5 0 2.762 2.238 5.0009 5 5.0009S20 17.762 20 15c0-2.7611-2.238-5-5-5z" fill="#333333" />
  <path fill-rule="evenodd" clip-rule="evenodd" d="M17.5009 13.3832l-1.6163 1.6163 1.6163 1.6164V17.5h-.8841l-1.6163-1.6164L13.3841 17.5H12.5v-.8841l1.6164-1.6164L12.5 13.3832V12.5h.8841l1.6164 1.6164L16.6168 12.5h.8841v.8832z" fill="#FFFFFF" />
</svg>
