<svg xmlns="http://www.w3.org/2000/svg" viewBox="0 0 20 20">
  <path d="M2.0001 3.4999s5.5-1.9997 11-2.4998c5.5-.5 6 4.5 6 4.5s1.0004 5.5-1 8c-2.0003 2.5001-5 4.9999-5 4.9999s-2.9175-5.9999-6.4175-5.9999c-3.5 0-5.0825 2.5-5.0825 2.5s-.5-1.5-.5-5.5c0-4.0001 1-6.0002 1-6.0002z" fill="#999999" />
  <path fill-rule="evenodd" clip-rule="evenodd" d="M4.5 8C5.3284 8 6 8.6716 6 9.5S5.3284 11 4.5 11 3 10.3284 3 9.5 3.6716 8 4.5 8zm12-4c.8284 0 1.5.6716 1.5 1.5S17.3284 7 16.5 7 15 6.3284 15 5.5 15.6716 4 16.5 4zM13 8.5c0-.8284-.6716-1.5-1.5-1.5S10 7.6716 10 8.5s.6716 1.5 1.5 1.5S13 9.3284 13 8.5zM7.5 3C8.3284 3 9 3.6716 9 4.5S8.3284 6 7.5 6 6 5.3284 6 4.5 6.6716 3 7.5 3zM15 13.5c0-.8284-.6716-1.5-1.5-1.5s-1.5.6716-1.5 1.5.6716 1.5 1.5 1.5 1.5-.6716 1.5-1.5z" fill="#FFFFFF" />
  <path fill-rule="evenodd" clip-rule="evenodd" d="M5.5 9.5c0-.5523-.4477-1-1-1s-1 .4477-1 1 .4477 1 1 1 1-.4477 1-1zm.5 0C6 8.6716 5.3284 8 4.5 8S3 8.6716 3 9.5 3.6716 11 4.5 11 6 10.3284 6 9.5zm11.5-4c0-.5523-.4477-1-1-1s-1 .4477-1 1 .4477 1 1 1 1-.4477 1-1zm.5 0c0-.8284-.6716-1.5-1.5-1.5S15 4.6716 15 5.5 15.6716 7 16.5 7 18 6.3284 18 5.5zm-6.5 2c.5523 0 1 .4477 1 1s-.4477 1-1 1-1-.4477-1-1 .4477-1 1-1zm0-.5c.8284 0 1.5.6716 1.5 1.5s-.6716 1.5-1.5 1.5S10 9.3284 10 8.5 10.6716 7 11.5 7zm-3-2.5c0-.5523-.4477-1-1-1s-1 .4477-1 1 .4477 1 1 1 1-.4477 1-1zm.5 0C9 3.6716 8.3284 3 7.5 3S6 3.6716 6 4.5 6.6716 6 7.5 6 9 5.3284 9 4.5zm4.5 8c.5523 0 1 .4477 1 1s-.4477 1-1 1-1-.4477-1-1 .4477-1 1-1zm0-.5c.8284 0 1.5.6716 1.5 1.5s-.6716 1.5-1.5 1.5-1.5-.6716-1.5-1.5.6716-1.5 1.5-1.5z" fill="#333333" />
</svg>
