<svg xmlns="http://www.w3.org/2000/svg" viewBox="0 0 20 20">
  <path fill-rule="evenodd" clip-rule="evenodd" d="M14.9057 16.3198C13.551 17.3729 11.8487 18 10 18c-4.4183 0-8-3.5817-8-8s3.5817-8 8-8 8 3.5817 8 8c0 1.8487-.6271 3.551-1.6801 4.9056l2.9227 2.9228c.3906.3905.3906 1.0237 0 1.4142-.3905.3906-1.0236.3906-1.4142 0l-2.9227-2.9228z" fill="#333333" />
  <path d="M17 10c0 3.866-3.134 7-7 7s-7-3.134-7-7 3.134-7 7-7 7 3.134 7 7z" fill="#D7D7D7" />
  <path d="M7 9.6429L10 6l3 3.6429h-2V14.5H9V9.6429H7z" fill="#333333" />
</svg>
