<svg xmlns="http://www.w3.org/2000/svg" viewBox="0 0 20 20">
  <g fill-rule="evenodd" clip-rule="evenodd">
    <path d="M14.9057 16.3198C13.551 17.3729 11.8487 18 10 18c-4.4183 0-8-3.5817-8-8s3.5817-8 8-8 8 3.5817 8 8c0 1.8487-.6271 3.551-1.6801 4.9056l2.9227 2.9228c.3906.3905.3906 1.0237 0 1.4142-.3905.3906-1.0236.3906-1.4142 0l-2.9227-2.9228z" fill="#333333" />
    <path d="M17 10c0 3.866-3.134 7-7 7s-7-3.134-7-7 3.134-7 7-7 7 3.134 7 7z" fill="#FFFFFF" />
    <path d="M13.7638 6.1986a.3057.3057 0 00-.4496 0l-4.603 4.5724-2.0956-2.2405a.3134.3134 0 00-.4573 0L5.0941 9.6433c-.1255.132-.1255.3467 0 .4794l3.3657 3.6586c.0728.0767.1717.0972.2667.0838.0976.0154.199-.0045.2744-.0838l5.906-6.1575c.1241-.1307.1241-.2504 0-.381l-1.1431-1.044z" fill="#333333" />
  </g>
</svg>
