<svg xmlns="http://www.w3.org/2000/svg" viewBox="0 0 20 20">
  <path fill-rule="evenodd" clip-rule="evenodd" d="M14.9057 16.3198C13.551 17.3729 11.8487 18 10 18c-4.4183 0-8-3.5817-8-8s3.5817-8 8-8 8 3.5817 8 8c0 1.8487-.6271 3.551-1.6801 4.9056l2.9227 2.9228c.3906.3905.3906 1.0237 0 1.4142-.3905.3906-1.0236.3906-1.4142 0l-2.9227-2.9228z" fill="#333333" />
  <path d="M17 10c0 3.866-3.134 7-7 7s-7-3.134-7-7 3.134-7 7-7 7 3.134 7 7z" fill="#DD979B" />
  <path fill-rule="evenodd" clip-rule="evenodd" d="M11.4723 10.0071l2.4508 2.4399a.2595.2595 0 010 .3687l-1.1132 1.1073a.2612.2612 0 01-.3704 0l-2.4469-2.4353-2.432 2.4353a.262.262 0 01-.3712 0L6.077 12.8157a.2595.2595 0 010-.3687l2.432-2.4353-2.432-2.4206a.2615.2615 0 010-.3693l1.1125-1.1073a.2633.2633 0 01.3711 0l2.4281 2.416 2.4509-2.454a.2633.2633 0 01.3711 0l1.1125 1.1073a.2602.2602 0 010 .3693l-2.4508 2.454z" fill="#333333" />
</svg>
