<svg xmlns="http://www.w3.org/2000/svg" viewBox="0 0 20 20">
  <path fill-rule="evenodd" clip-rule="evenodd" d="M14.9057 16.3198C13.551 17.3729 11.8487 18 10 18c-4.4183 0-8-3.5817-8-8s3.5817-8 8-8 8 3.5817 8 8c0 1.8487-.6271 3.551-1.6801 4.9056l2.9227 2.9228c.3906.3905.3906 1.0237 0 1.4142-.3905.3906-1.0236.3906-1.4142 0l-2.9227-2.9228z" fill="#333333" />
  <path d="M17 10c0 3.866-3.134 7-7 7s-7-3.134-7-7 3.134-7 7-7 7 3.134 7 7z" fill="#DD979B" />
  <path fill-rule="evenodd" clip-rule="evenodd" d="M9.8585 5.5c-.8504 0-1.4915.7726-1.3348 1.6083l.8503 4.5351a.493.493 0 00.969 0l.8503-4.535C11.35 6.2725 10.7088 5.5 9.8585 5.5zm1.0228 7.9773c0 .5648-.4579 1.0227-1.0228 1.0227-.5648 0-1.0227-.4579-1.0227-1.0227 0-.5649.4579-1.0228 1.0227-1.0228.5649 0 1.0228.4579 1.0228 1.0228z" fill="#333333" />
</svg>
