<svg xmlns="http://www.w3.org/2000/svg" viewBox="0 0 20 20">
  <path fill-rule="evenodd" clip-rule="evenodd" d="M4.7676 11.3996C3.2186 10.4517 2.5 9.2436 2.5 8.1199c0-1.0534.6268-2.1739 1.9826-3.0958C5.8311 4.107 7.7773 3.4919 10 3.4919s4.1689.6152 5.5174 1.5322C16.8732 5.946 17.5 7.0665 17.5 8.1199c0 1.0535-.6268 2.174-1.9826 3.0959-1.3485.917-3.2947 1.5322-5.5174 1.5322-.2621 0-.521-.0086-.7758-.0253-.4584-.0301-.9372.0602-1.3728.2935l-2.122 1.1364c.411-1.0586-.07-2.2072-.9618-2.753zm-.4015 5.1776l4.1964-2.2474c.1723-.0923.3678-.1312.563-.1184.2878.0188.5795.0285.8745.0285 4.9706 0 9-2.74 9-6.12S14.9706 2 10 2 1 4.74 1 8.12c0 1.8064 1.151 3.4301 2.9815 4.5503.3627.222.5067.688.2953 1.0557l-.9999 1.74-.0318.0554-.149.2594-.1857.3231c-.2993.5208.2743 1.106.8053.8216l.3295-.1764.2645-.1417.0564-.0302zm5.491-7.4018c.5523 0 1-.4453 1-.9946 0-.5493-.4477-.9946-1-.9946-.5522 0-1 .4453-1 .9946 0 .5493.4478.9946 1 .9946zm-2.5-.9946c0 .5493-.4477.9946-1 .9946-.5522 0-1-.4453-1-.9946 0-.5493.4478-.9946 1-.9946.5523 0 1 .4453 1 .9946zm6 .9946c.5523 0 1-.4453 1-.9946 0-.5493-.4477-.9946-1-.9946-.5522 0-1 .4453-1 .9946 0 .5493.4478.9946 1 .9946z" fill="#1651B0" />
</svg>
