<svg xmlns="http://www.w3.org/2000/svg" viewBox="0 0 20 20">
  <path fill-rule="evenodd" clip-rule="evenodd" d="M10.544 7H7.0694V5.784c0-.8718-1.0377-1.3261-1.6783-.7348l-4.0257 3.716c-.429.396-.429 1.0736 0 1.4696l4.0257 3.716c.6406.5913 1.6783.1369 1.6783-.7348V12h3.4746a5.9558 5.9558 0 01-.4611-1.5H5.5694v1.75l-3-2.75 3-2.75V8.5h4.5135A5.9563 5.9563 0 0110.544 7z" fill="#333333" />
  <path d="M20 9.5c0 2.2091-1.7909 4-4 4-2.2091 0-4-1.7909-4-4 0-2.2091 1.7909-4 4-4 2.2091 0 4 1.7909 4 4z" fill="#769FCC" />
</svg>
