<svg xmlns="http://www.w3.org/2000/svg" viewBox="0 0 20 20">
  <path fill-rule="evenodd" clip-rule="evenodd" d="M19.5624 10l-3.7576-7.2942H4.1951L.4375 10l3.7576 7.2943h11.6097L19.5624 10zm-1.1125.0001l-3.2485 6.2942H4.7954l-3.1455-6.2942 3.147-6.3h10.403l3.25 6.3zM9.81 11.52v.25c0 1.43-1.27 2.11-2.54 2.11-1.5 0-2.77-.76-2.77-2.41V9.06c0-1.53 1.15-2.56 2.72-2.56 1.44 0 2.59.8 2.59 2.11v.25h-.94v-.14c0-.87-.7-1.35-1.67-1.35-.95 0-1.7.57-1.7 1.62v2.42c0 1.01.71 1.61 1.74 1.61.97 0 1.62-.48 1.62-1.35v-.15h.95zm5.74-4.89v.87h-3.47v2.18h2.84v.86h-2.84v3.22h-.99V6.63h4.46z" fill="#333333" />
</svg>
