<svg xmlns="http://www.w3.org/2000/svg" viewBox="0 0 20 20">
  <path fill-rule="evenodd" clip-rule="evenodd" d="M7 2h6v4h4v8h-3V9.4142c0-.2652-.1054-.5196-.2929-.707l-3.4142-3.4143A1 1 0 009.5858 5H7V2zM6 5H3c-.5523 0-1 .4477-1 1v12c0 .5523.4477 1 1 1h10c.5523 0 1-.4477 1-1v-3h3c.5523 0 1-.4477 1-1V5.4142c0-.2652-.1054-.5196-.2929-.707l-3.4142-3.4143A1 1 0 0013.5858 1H7c-.5523 0-1 .4477-1 1v3zm10.5858 0L14 2.4142V5h2.5858zM9 10V6H3v12h10v-8H9zm1-3.5858L12.5858 9H10V6.4142z" fill="#333333" />
</svg>
