<svg xmlns="http://www.w3.org/2000/svg" viewBox="0 0 20 20">
  <g fill-rule="evenodd" clip-rule="evenodd">
    <path d="M14.9 3.5c0 1.0493-.8507 1.9-1.9 1.9s-1.9-.8507-1.9-1.9.8507-1.9 1.9-1.9 1.9.8507 1.9 1.9zM12 6.855V8.5c0 .5523-.4477 1-1 1H9a3 3 0 00-2.4 1.2l-.6.8V8.855C7.4457 8.4249 8.5 7.0856 8.5 5.5 8.5 3.567 6.933 2 5 2S1.5 3.567 1.5 5.5c0 1.5855 1.0543 2.9248 2.5 3.355v6.4126c-.5978.3458-1 .9921-1 1.7324 0 1.1046.8954 2 2 2s2-.8954 2-2c0-.7261-.387-1.3618-.9658-1.7122L8.2 11.9a1 1 0 01.8-.4h2c1.6569 0 3-1.3432 3-3V6.855c1.4457-.4302 2.5-1.7695 2.5-3.355C16.5 1.567 14.933 0 13 0S9.5 1.567 9.5 3.5c0 1.5855 1.0543 2.9248 2.5 3.355zM5 7.4c1.0493 0 1.9-.8507 1.9-1.9S6.0493 3.6 5 3.6s-1.9.8507-1.9 1.9.8507 1.9 1.9 1.9z" fill="#333333" />
    <path d="M11 14h3v-3h2v3h3v2h-3v3h-2v-3h-3v-2z" fill="#1651B0" />
  </g>
</svg>
