<svg xmlns="http://www.w3.org/2000/svg" viewBox="0 0 194 185">
  <circle cx="96.503" cy="92.266" fill="#333" r="1.953" />
  <circle cx="96.503" cy="92.265" fill="#fff" r="1.432" />
  <circle cx="96.503" cy="92.266" r=".651" fill="#333" />
  <path d="M96.519 31.5739l35.14-30.3246V41.743l25.651 7.4232v20.3704l34.896 10.0985-34.896 30.2259v60.92L96.4425 153.19l-35.0963 30.352v-40.495l-25.521-7.422v-20.322L.7989 105.156l35.0263-30.3386V14.0098L96.519 31.5739z" fill="#EEF2F6" />
  <path d="M64.6727 64.9566c.218-.218.3871-.4547.5073-.71a1.957 1.957 0 00.1917-.8186c.0049-.2958-.0549-.445-.1794-.4474-.1217-.0054-.2885.0979-.5007.3101l-.6408.6408-.0277 1.6748.6496-.6497zm-1.0465-1.1044l1.1579-1.1579c.1503-.1503.2883-.2596.414-.328.1257-.0683.2333-.0898.3227-.0645.0924.0182.1637.0862.2139.2039.0503.1137.0736.2788.07.4954-.0024.1458-.0195.3022-.0512.4692a3.6688 3.6688 0 01-.1389.5137 3.862 3.862 0 01-.2303.5191 3.6775 3.6775 0 01-.3213.5057l.8405.9479-.4773.4773-.8106-.9163-.601.601-.0292 1.756-.4331.4331.0739-4.4556zM66.4007 61.0777l.3977-.3978-.0121.7312-.3977.3977.0121-.7311zm-.0216 1.2998l.3978-.3977-.0523 3.1558-.3978.3978.0523-3.1559zM68.2063 63.1684c.0648-.0648.1299-.1442.1952-.2382a2.1824 2.1824 0 00.1791-.3205 2.382 2.382 0 00.128-.38 1.8688 1.8688 0 00.0549-.4235l.0108-.6562c.0021-.125-.0123-.2171-.0432-.2764-.0279-.0663-.0663-.1078-.1153-.1243-.049-.0166-.1071-.0077-.1743.0268-.0672.0344-.1376.0884-.2113.1621-.0648.0648-.1298.1442-.1952.2382a1.877 1.877 0 00-.17.2929 2.1486 2.1486 0 00-.1274.3487 1.6148 1.6148 0 00-.0497.3754l-.0137.8249c-.0035.2083.0424.3284.1374.3604.0952.0277.2267-.0424.3947-.2103zm-.0954 1.8223c-.0855.0854-.1707.1563-.2556.2126-.0851.0604-.1654.1019-.2411.1243-.0728.0195-.1394.0185-.1999-.0029-.0576-.0202-.1032-.0689-.1367-.1461l.3747-.5774c.0595.0798.13.1097.2115.0896.0843-.0187.181-.0826.29-.1917.1856-.1856.3283-.4041.4281-.6554.1027-.2502.1562-.5065.1605-.769l.0085-.5124-.0044.0044c-.0767.257-.1732.4846-.2895.6828-.1133.1911-.2362.353-.3688.4856-.2592.2592-.4623.3619-.6092.3081-.1469-.0539-.2173-.2642-.2112-.6308l.0128-.7686a2.8508 2.8508 0 01.0753-.61 3.5578 3.5578 0 01.1921-.5793c.0814-.1879.1725-.3569.2735-.5071.1041-.1573.212-.2919.324-.4038.1296-.1297.2541-.2091.3734-.2382.1222-.0321.2113.0099.2674.1259l.0088-.0088.0078-.4687.3889-.3889-.0501 3.0183c-.003.1834-.0265.379-.0706.5869a3.5396 3.5396 0 01-.1886.6311 3.7728 3.7728 0 01-.3189.62 3.174 3.174 0 01-.4527.5695zM69.8275 57.6509l.3977-.3977-.0297 1.7935.0133-.0133c.0797-.2641.1807-.5023.303-.7148.1253-.2196.2558-.3971.3913-.5326.2416-.2416.4226-.3222.5429-.2418.1234.0733.1824.2724.177.5973l-.0353 2.131-.3978.3977.0324-1.9497c.0044-.2666-.0336-.4212-.114-.4637-.0804-.0466-.1928.0022-.3371.1466-.1621.162-.3004.3782-.415.6485a2.1909 2.1909 0 00-.1745.8259l-.0303 1.831-.3978.3978.0739-4.4557zM72.8895 59.026c-.0766.0766-.15.1357-.2202.1772-.0703.0457-.1315.0659-.1836.0606-.052-.0053-.0935-.0375-.1244-.0968-.0279-.0663-.0407-.1683-.0384-.3057l.0334-2.0123-.358.358.0076-.4562.3579-.358.0162-.9748.3977-.3978-.0161.9749.5745-.5745-.0076.4562-.5745.5745-.031 1.8685c-.0024.1458.021.2207.0702.2248.0492-.0001.1166-.0428.202-.1283a2.8827 2.8827 0 00.1593-.1716 4.5714 4.5714 0 00.1509-.1877l-.0081.4874a2.8808 2.8808 0 01-.2219.2772c-.0797.0921-.1417.1602-.1859.2044zM37.152 16.983l2.761.7787.0091.5437-2.1716-.6124.0227 1.3685 1.8166.5124.0091.5437-1.8167-.5124.0332 1.9998-.5895-.1663-.0739-4.4557zM40.5505 19.2353l.5233.1476.0098.5936.0121.0034c.0543-.0966.1208-.1732.1997-.2298a.7913.7913 0 01.2614-.1253.9524.9524 0 01.2928-.0356c.1038.0002.2038.0139.3.0411.0842.0237.1605.0515.2289.0832l.0087.5249a1.0171 1.0171 0 00-.1446-.0532 1.6638 1.6638 0 00-.1324-.0436c-.1404-.0395-.2723-.054-.3959-.0432-.1236.0066-.2308.0386-.3217.0959-.0868.0584-.1553.1428-.2054.2531-.05.1102-.0737.2466-.071.4091l.028 1.6873-.5414-.1527-.0523-3.1558zM44.1189 22.9847c.2206.0622.398.05.5323-.0365.1383-.0854.2052-.2614.2008-.5281l-.0136-.8186c-.0037-.225-.0729-.4228-.2074-.5934-.1346-.1748-.3243-.2967-.5689-.3657-.2165-.0611-.3939-.0468-.5321.0427-.1383.0854-.2053.2573-.201.5156l.0134.8124c.0038.2291.073.4311.2076.6059.1387.1759.3283.2978.5689.3657zm.008.4811a2.0369 2.0369 0 01-.5187-.2271 1.7514 1.7514 0 01-.4249-.35 1.6773 1.6773 0 01-.2831-.4655c-.0707-.1733-.1078-.36-.1111-.56l-.0129-.7811c-.0036-.2125.0295-.3877.099-.5257.0695-.1421.1635-.2503.282-.3247.1185-.0744.2555-.1166.411-.1267.1555-.01.3175.0087.4859.0562.1845.052.3574.1298.5188.2334.1654.1047.3071.2276.4252.3687.1181.1411.2126.3005.2834.478.0708.1775.1078.3663.1111.5663l.0122.7311c.0034.2083-.0296.3835-.0991.5257-.0655.1432-.1575.252-.276.3264-.1185.0744-.2555.1187-.4109.1329-.1555.0101-.3195-.0092-.4919-.0579zM46.0841 20.7959l.5234.1476.0082.4937.012.0034c.1011-.1581.2352-.2592.4021-.3033.1708-.0472.3525-.0437.545.0106.3289.0927.5792.2649.751.5166.1758.2486.2663.5354.2717.8603l.0353 2.131-.5413-.1527-.0324-1.9497c-.0044-.2667-.0638-.4783-.1781-.635-.1145-.1608-.2699-.2689-.4664-.3243-.2206-.0622-.4058-.0357-.5555.0797-.1458.1123-.2164.3122-.2116.5996l.0304 1.831-.5414-.1527-.0524-3.1558zM50.407 25.2121a1.2965 1.2965 0 01-.3015-.1285.9804.9804 0 01-.2547-.1963.9687.9687 0 01-.1782-.2741c-.0417-.1072-.0637-.2295-.0659-.367l-.0334-2.0122-.4873-.1374-.0075-.4562.4872.1374-.0161-.9748.5413.1526.0162.9749.782.2206.0076.4561-.782-.2205.031 1.8685c.0024.1458.0381.2554.1072.3288.069.0692.1616.1202.2779.153a1.809 1.809 0 00.2164.0486c.064.0098.132.0165.2039.0202l.0081.4874c-.0918.0032-.1917-.0063-.2999-.0286-.108-.018-.1921-.0355-.2523-.0525zM71.7066 46.8669l-1.3415-.3783.3845-.3845 3.2664.9212-.3845.3845-1.3354-.3766-2.7666 2.7666-.5895-.1663 2.7666-2.7666zM72.9026 50.3885a1.348 1.348 0 00.668.0184c.2287-.0488.4374-.1675.6259-.3561l.579-.5789c.1591-.1591.2196-.3045.1815-.4361-.0351-.1345-.1749-.2363-.4196-.3053-.2165-.0611-.4406-.0657-.6723-.014-.2288.0488-.4345.1646-.6172.3472l-.5745.5746c-.162.162-.2255.3103-.1904.4449.0391.1356.179.2374.4196.3053zm-.3403.3403c-.1845-.0521-.3377-.1198-.4599-.2034-.125-.0806-.2109-.1747-.2575-.2823-.0427-.1064-.0436-.2238-.0027-.352.0408-.1282.132-.2631.2734-.4045l.5524-.5524a1.9086 1.9086 0 01.5016-.3628 2.4002 2.4002 0 01.576-.2059 2.4271 2.4271 0 01.5874-.0553c.1947.0059.3763.0325.5447.08.1845.052.3363.1213.4555.2078.1232.0876.2046.1861.2443.2955.0397.1094.0376.2297-.0062.3609-.0437.1312-.1363.2675-.2778.4089l-.517.5171a1.9505 1.9505 0 01-.5016.3628 2.2597 2.2597 0 01-.57.2075 2.604 2.604 0 01-.5919.0597c-.1947-.0058-.3782-.033-.5507-.0816zM76.2309 51.3271c.0882.0249.1833.0404.2852.0465.1088.0042.218-.0046.3274-.0267a1.2469 1.2469 0 00.3215-.1133 1.0937 1.0937 0 00.3004-.2155l.6541-.6541c.1443-.1444.1926-.28.1446-.4068-.041-.1287-.1718-.2241-.3924-.2863-.0922-.026-.1977-.0388-.3164-.0383-.1118-.0013-.2289.0129-.3511.0426a1.7262 1.7262 0 00-.3705.1392 1.3058 1.3058 0 00-.3225.2376l-.4906.4906c-.0884.0884-.1479.1736-.1785.2556-.0236.0802-.0264.155-.0083.2243.025.0675.0704.1275.1361.18.0697.0537.1567.0952.261.1246zm.6316-2.3205l.5233.1476-.327.3271.012.0034c.121-.049.2411-.0869.3605-.1137a2.2336 2.2336 0 01.3539-.0531c.1137-.0058.22-.0041.3189.0049.099.009.1865.0243.2627.0458.1645.0463.2957.1079.3937.1847.105.0749.1723.1619.2019.2609.0335.1001.0268.2096-.0202.3286-.044.116-.1308.2388-.2605.3684l-.6364.6364a1.9776 1.9776 0 01-.4956.3645 2.2675 2.2675 0 01-.5326.2011 2.1518 2.1518 0 01-.5381.0522c-.1797-.0054-.3478-.0301-.5042-.0742-.1845-.052-.321-.134-.4096-.2459-.0847-.1107-.1066-.2302-.0657-.3584l-.0181-.0051-1.1667 1.1667-.5414-.1527 3.0892-3.0892z" fill="#1651B0" />
  <path fill-rule="evenodd" clip-rule="evenodd" d="M132.05.3962v41.0533l25.651 7.4231V69.243l35.304 10.2168-35.304 30.5802v61.261l-61.1633-17.677-35.5822 30.772V143.34l-25.5209-7.422v-20.321L0 105.331l35.4346-30.692V13.4901l60.9895 17.6497L132.05.3962zM95.7183 31.749L36.2158 14.5295v59.4307l34.4097-29.9159 8.1214 2.3503 16.9714-14.6457zM79.6424 46.6537L96.6138 32.008l34.6542 10.0287v19.5571L79.6424 46.6537zm-1.6013.35l-7.2241-2.0906-34.6012 30.0823V115.01l24.7397 7.167V61.7479l17.0856-14.7442zM60.9555 122.99l-24.7397-7.167v19.509l24.7397 7.195V122.99zm.7813 20.576v39.122l33.9057-29.322-33.9057-9.8zm35.5057 9.449l59.6775 17.247v-59.546l-34.671 30.031-8.106-2.348-16.9005 14.616zm16.0065-14.876l-16.9017 14.617-34.6105-10.003v-19.537l51.5122 14.923zm.704-.609l-52.2162-15.127V62.1056l17.1998-14.8428 52.3314 15.1443v60.1489l-17.315 14.974zm.895.259l7.211 2.089 34.861-30.195V69.8302l-24.87-7.197v60.2798l-17.202 14.876zm17.202-75.9692l24.87 7.1971v-19.557l-24.87-7.1971v19.557zm25.651 8.2365v38.9497l33.706-29.1954-33.706-9.7543zM35.4346 114.783V75.6726L1.5979 104.981l33.8367 9.802zm95.8334-73.5596L97.3196 31.399 131.268 2.1024v39.121z" fill="#769FCC" />
</svg>
