<svg xmlns="http://www.w3.org/2000/svg" viewBox="0 0 20 20">
  <path fill-rule="evenodd" clip-rule="evenodd" d="M1.9985 1C1.4475 1 1 1.4448 1 1.9934v16.0132c0 .5485.4448.9934.9934.9934h16.0132c.5485 0 .9934-.447.9934-.9985V6.9985c0-.551-.316-1.3145-.7058-1.7043l-3.5884-3.5884C14.3128 1.3128 13.553 1 13.0015 1H1.9985zM2.5 17.5v-15h10.5015s.0086 0 .0288.0025a.8277.8277 0 01.0802.0147 1.476 1.476 0 01.2295.0746 1.473 1.473 0 01.2153.1093.8298.8298 0 01.0672.0464.2764.2764 0 01.0226.019l3.5883 3.5882s.006.0061.0176.0212a.8152.8152 0 01.0462.067c.037.059.0757.1335.1102.2168.0345.0834.0597.1634.0754.2313a.8365.8365 0 01.0147.0802.3083.3083 0 01.0025.0275V17.5h-15z" fill="currentColor" />
</svg>
