<svg xmlns="http://www.w3.org/2000/svg" viewBox="0 0 194 184">
  <circle cx="96.503" cy="91.869" fill="#666" r="1.953" />
  <circle cx="96.503" cy="91.869" fill="#fff" r="1.432" />
  <circle cx="96.503" cy="91.869" r=".651" fill="#666" />
  <path d="M96.519 31.1776L131.659.853v40.4938L157.31 48.77v20.3703l34.896 10.0986-34.896 30.2261v60.92l-60.8675-17.591-35.0963 30.352v-40.495l-25.521-7.422v-20.322L.7989 104.76l35.0263-30.3389V13.6135L96.519 31.1776z" fill="#fff" />
  <path d="M64.6727 64.5604c.218-.218.3871-.4547.5073-.7101.123-.2582.187-.5311.1917-.8186.0049-.2958-.0549-.4449-.1794-.4474-.1217-.0054-.2885.098-.5007.3101l-.6408.6409-.0277 1.6747.6496-.6496zm-1.0465-1.1045l1.1579-1.1579c.1503-.1502.2883-.2595.414-.3279.1257-.0684.2333-.0899.3227-.0646.0924.0182.1637.0862.2139.204.0503.1136.0736.2787.07.4954-.0024.1458-.0195.3022-.0512.4691a3.67 3.67 0 01-.1389.5138 3.8675 3.8675 0 01-.2303.5191 3.6775 3.6775 0 01-.3213.5057l.8405.9479-.4773.4773-.8106-.9164-.601.6011-.0292 1.756-.4331.4331.0739-4.4557zM66.4007 60.6815l.3977-.3978-.0121.7312-.3977.3977.0121-.7311zm-.0216 1.2998l.3978-.3978-.0523 3.1559-.3978.3977.0523-3.1558zM68.2063 62.7721c.0648-.0648.1299-.1442.1952-.2382.0683-.101.128-.2079.1791-.3205a2.3808 2.3808 0 00.128-.3799 1.8704 1.8704 0 00.0549-.4236l.0108-.6562c.0021-.1249-.0123-.217-.0432-.2763-.0279-.0664-.0663-.1078-.1153-.1244-.049-.0166-.1071-.0076-.1743.0268-.0672.0344-.1376.0885-.2113.1621-.0648.0649-.1298.1443-.1952.2382a1.8781 1.8781 0 00-.17.293 2.1452 2.1452 0 00-.1274.3487 1.6141 1.6141 0 00-.0497.3754l-.0137.8249c-.0035.2083.0424.3284.1374.3603.0952.0278.2267-.0423.3947-.2103zm-.0954 1.8224c-.0855.0854-.1707.1563-.2556.2125-.0851.0605-.1654.1019-.2411.1244-.0728.0195-.1394.0185-.1999-.003-.0576-.0202-.1032-.0689-.1367-.146l.3747-.5775c.0595.0798.13.1097.2115.0897.0843-.0188.181-.0827.29-.1917.1856-.1856.3283-.4041.4281-.6555.1027-.2501.1562-.5064.1605-.7689l.0085-.5124-.0044.0044c-.0767.2569-.1732.4845-.2895.6828-.1133.1911-.2362.3529-.3688.4855-.2592.2593-.4623.362-.6092.3081-.1469-.0539-.2173-.2641-.2112-.6307l.0128-.7687a2.8516 2.8516 0 01.0753-.61 3.5642 3.5642 0 01.1921-.5793c.0814-.1878.1725-.3569.2735-.507.1041-.1573.212-.2919.324-.4039.1296-.1296.2541-.209.3734-.2381.1222-.0321.2113.0098.2674.1259l.0088-.0088.0078-.4687.3889-.3889-.0501 3.0183c-.003.1833-.0265.3789-.0706.5868a3.5372 3.5372 0 01-.1886.6311 3.7649 3.7649 0 01-.3189.62 3.1748 3.1748 0 01-.4527.5696zM69.8275 57.2547l.3977-.3978-.0297 1.7935.0133-.0132c.0797-.2641.1807-.5024.303-.7148.1253-.2196.2558-.3971.3913-.5327.2416-.2416.4226-.3222.5429-.2418.1234.0733.1824.2724.177.5974l-.0353 2.131-.3978.3977.0324-1.9497c.0044-.2667-.0336-.4212-.114-.4637-.0804-.0467-.1928.0022-.3371.1466-.1621.162-.3004.3782-.415.6484a2.1918 2.1918 0 00-.1745.826l-.0303 1.831-.3978.3977.0739-4.4556zM72.8895 58.6297c-.0766.0766-.15.1357-.2202.1773-.0703.0457-.1315.0659-.1836.0606-.052-.0053-.0935-.0376-.1244-.0968-.0279-.0664-.0407-.1683-.0384-.3058l.0334-2.0122-.358.358.0076-.4562.3579-.358.0162-.9749.3977-.3977-.0161.9749.5745-.5746-.0076.4562-.5745.5745-.031 1.8685c-.0024.1459.021.2208.0702.2249.0492-.0001.1166-.0429.202-.1283.059-.059.1121-.1162.1593-.1716a4.5786 4.5786 0 00.1509-.1878l-.0081.4875a2.8808 2.8808 0 01-.2219.2772c-.0797.092-.1417.1601-.1859.2043zM37.152 16.5868l2.761.7787.0091.5437-2.1716-.6125.0227 1.3686 1.8166.5123.0091.5437-1.8167-.5123.0332 1.9997-.5895-.1662-.0739-4.4557zM40.5505 18.839l.5233.1476.0098.5937.0121.0034c.0543-.0967.1208-.1733.1997-.2298a.7874.7874 0 01.2614-.1253.9524.9524 0 01.2928-.0356 1.109 1.109 0 01.3.041 1.531 1.531 0 01.2289.0833l.0087.5249a1.005 1.005 0 00-.1446-.0532 1.6243 1.6243 0 00-.1324-.0436c-.1404-.0396-.2723-.054-.3959-.0432-.1236.0066-.2308.0385-.3217.0958-.0868.0585-.1553.1428-.2054.2531-.05.1103-.0737.2467-.071.4092l.028 1.6872-.5414-.1527-.0523-3.1558zM44.1189 22.5884c.2206.0622.398.0501.5323-.0365.1383-.0854.2052-.2614.2008-.528l-.0136-.8187c-.0037-.2249-.0729-.4227-.2074-.5934-.1346-.1748-.3243-.2967-.5689-.3657-.2165-.061-.3939-.0468-.5321.0428-.1383.0854-.2053.2572-.201.5155l.0134.8124c.0038.2291.073.4311.2076.6059.1387.176.3283.2979.5689.3657zm.008.4812a2.0369 2.0369 0 01-.5187-.2271 1.7537 1.7537 0 01-.4249-.35 1.6788 1.6788 0 01-.2831-.4655c-.0707-.1734-.1078-.36-.1111-.56l-.0129-.7812c-.0036-.2124.0295-.3876.099-.5256.0695-.1421.1635-.2504.282-.3248.1185-.0744.2555-.1166.411-.1266.1555-.0101.3175.0087.4859.0562.1845.052.3574.1298.5188.2333.1654.1047.3071.2276.4252.3688.1181.1411.2126.3004.2834.478.0708.1775.1078.3662.1111.5662l.0122.7312c.0034.2083-.0296.3835-.0991.5256-.0655.1433-.1575.2521-.276.3265-.1185.0744-.2555.1187-.4109.1329-.1555.01-.3195-.0093-.4919-.0579zM46.0841 20.3997l.5234.1476.0082.4937.012.0033c.1011-.158.2352-.2591.4021-.3033.1708-.0472.3525-.0436.545.0107.3289.0927.5792.2649.751.5165.1758.2487.2663.5354.2717.8604l.0353 2.131-.5413-.1527-.0324-1.9498c-.0044-.2666-.0638-.4782-.1781-.6349-.1145-.1608-.2699-.2689-.4664-.3244-.2206-.0622-.4058-.0356-.5555.0797-.1458.1123-.2164.3122-.2116.5997l.0304 1.831-.5414-.1527-.0524-3.1558zM50.407 24.8159a1.2969 1.2969 0 01-.3015-.1286.9779.9779 0 01-.2547-.1962.9706.9706 0 01-.1782-.2742c-.0417-.1071-.0637-.2294-.0659-.3669l-.0334-2.0122-.4873-.1374-.0075-.4562.4872.1374-.0161-.9749.5413.1527.0162.9749.782.2205.0076.4562-.782-.2205.031 1.8685c.0024.1458.0381.2554.1072.3288.069.0692.1616.1202.2779.153.0802.0226.1524.0388.2164.0486.064.0097.132.0165.2039.0202l.0081.4874c-.0918.0031-.1917-.0064-.2999-.0286-.108-.018-.1921-.0355-.2523-.0525zM71.7066 46.4707l-1.3415-.3783.3845-.3845 3.2664.9212-.3845.3845-1.3354-.3766-2.7666 2.7665-.5895-.1662 2.7666-2.7666zM72.9026 49.9922c.2206.0622.4432.0684.668.0184.2287-.0488.4374-.1675.6259-.356l.579-.579c.1591-.1591.2196-.3044.1815-.436-.0351-.1346-.1749-.2363-.4196-.3053-.2165-.0611-.4406-.0658-.6723-.014-.2288.0488-.4345.1645-.6172.3472l-.5745.5745c-.162.1621-.2255.3104-.1904.4449.0391.1357.179.2375.4196.3053zm-.3403.3403c-.1845-.052-.3377-.1198-.4599-.2033-.125-.0806-.2109-.1747-.2575-.2823-.0427-.1065-.0436-.2238-.0027-.352.0408-.1283.132-.2631.2734-.4045l.5524-.5525a1.9109 1.9109 0 01.5016-.3628 2.4042 2.4042 0 01.576-.2058 2.4221 2.4221 0 01.5874-.0553c.1947.0058.3763.0325.5447.08.1845.052.3363.1213.4555.2077.1232.0877.2046.1862.2443.2956.0397.1094.0376.2297-.0062.3609-.0437.1311-.1363.2675-.2778.4089l-.517.517a1.9458 1.9458 0 01-.5016.3628 2.26 2.26 0 01-.57.2076 2.6154 2.6154 0 01-.5919.0597c-.1947-.0058-.3782-.033-.5507-.0817zM76.2309 50.9309c.0882.0249.1833.0404.2852.0464.1088.0043.218-.0046.3274-.0266a1.2469 1.2469 0 00.3215-.1133 1.094 1.094 0 00.3004-.2156l.6541-.654c.1443-.1444.1926-.28.1446-.4069-.041-.1286-.1718-.2241-.3924-.2863-.0922-.026-.1977-.0387-.3164-.0382-.1118-.0013-.2289.0129-.3511.0426a1.7257 1.7257 0 00-.3705.1391 1.3087 1.3087 0 00-.3225.2377l-.4906.4906c-.0884.0884-.1479.1736-.1785.2556-.0236.0802-.0264.1549-.0083.2243.025.0675.0704.1275.1361.18.0697.0537.1567.0952.261.1246zm.6316-2.3205l.5233.1476-.327.327.012.0034c.121-.049.2411-.0868.3605-.1136a2.246 2.246 0 01.3539-.0532c.1137-.0057.22-.004.3189.005.099.009.1865.0242.2627.0457.1645.0464.2957.108.3937.1847.105.075.1723.1619.2019.2609.0335.1001.0268.2097-.0202.3286-.044.116-.1308.2389-.2605.3685l-.6364.6364a1.9776 1.9776 0 01-.4956.3645 2.2672 2.2672 0 01-.5326.201 2.1566 2.1566 0 01-.5381.0523c-.1797-.0054-.3478-.0301-.5042-.0742-.1845-.0521-.321-.134-.4096-.2459-.0847-.1107-.1066-.2302-.0657-.3585l-.0181-.0051-1.1667 1.1668-.5414-.1527 3.0892-3.0892z" fill="#666" />
  <path fill-rule="evenodd" clip-rule="evenodd" d="M132.05 0v41.0532l25.651 7.4232v20.3704l35.304 10.2167-35.304 30.5795v61.262l-61.1633-17.677L60.9555 184v-41.056l-25.5209-7.422v-20.321L0 104.935l35.4346-30.6923V13.0939l60.9895 17.6497L132.05 0zM95.7183 31.3526L36.2158 14.1333V73.564l34.4097-29.9159 8.1214 2.3503 16.9714-14.6458zM79.6424 46.2575l16.9714-14.6457 34.6542 10.0286v19.5571l-51.6256-14.94zm-1.6013.3499l-7.2241-2.0906-34.6012 30.0824v40.0138l24.7397 7.168V61.3516l17.0856-14.7442zM60.9555 122.594l-24.7397-7.167v19.509l24.7397 7.194v-19.536zm.7813 20.576v39.121l33.9057-29.322-33.9057-9.799zm35.5057 9.448l59.6775 17.248V110.32l-34.671 30.031-8.106-2.349-16.9005 14.616zm16.0065-14.875L96.3473 152.36l-34.6105-10.003V122.82l51.5122 14.923zm.704-.609l-52.2162-15.127V61.7094l17.1998-14.8428 52.3314 15.1442v60.1482l-17.315 14.975zm.895.259l7.211 2.089 34.861-30.196V69.434l-24.87-7.1971v60.2801l-17.202 14.876zm17.202-75.9694l24.87 7.1971V49.0636l-24.87-7.1971v19.5571zm25.651 8.2365V108.61l33.706-29.1957-33.706-9.7542zM35.4346 114.387V75.2763L1.5979 104.585l33.8367 9.802zm95.8334-73.5599l-33.9484-9.8244L131.268 1.7061v39.121z" fill="#666" />
</svg>
