<svg xmlns="http://www.w3.org/2000/svg" viewBox="0 0 20 20">
  <path d="M1 3.5C1 2.1193 2.1193 1 3.5 1h13C17.8807 1 19 2.1193 19 3.5v13c0 1.3807-1.1193 2.5-2.5 2.5h-13C2.1193 19 1 17.8807 1 16.5v-13z" fill="#333333" />
  <path d="M2 3.5C2 2.6716 2.6716 2 3.5 2h13c.8284 0 1.5.6716 1.5 1.5v13c0 .8284-.6716 1.5-1.5 1.5h-13c-.8284 0-1.5-.6716-1.5-1.5v-13z" fill="#FFFFFF" />
  <path fill-rule="evenodd" clip-rule="evenodd" d="M16 6.25L10 3 4 6.25l6 3.25 6-3.25zM9.5 10.5L3.5 7v6.5l6 3.5v-6.5z" fill="#333333" />
  <path d="M10.5 10.5l6-3.5v6.5l-6 3.5v-6.5z" fill="#999999" />
</svg>
