<svg xmlns="http://www.w3.org/2000/svg" viewBox="0 0 20 20">
  <rect x="1" y="1" width="18" height="18" rx="2.5" fill="#333333" />
  <g fill="#FFFFFF">
    <path d="M3.5 2C2.6716 2 2 2.6716 2 3.5V8h16V3.5c0-.8284-.6716-1.5-1.5-1.5h-13zM18 15H2v1.5c0 .8284.6716 1.5 1.5 1.5h13c.8284 0 1.5-.6716 1.5-1.5V15z" />
  </g>
  <path d="M4.5 9c-.5523 0-1 .4477-1 1v3c0 .5523.4477 1 1 1H7v-.9948H5a.5.5 0 01-.5-.5V10.5A.5.5 0 015 10h2V9H4.5zM8 13h1.5a.5.5 0 000-1H9c-.5523 0-1-.4477-1-1v-1c0-.5523.4477-1 1-1h2v1H9.5a.5.5 0 000 1h.5c.5523 0 1 .4477 1 1v1c0 .5523-.4477 1-1 1H8v-1z" fill="#FFFFFF" />
  <path fill-rule="evenodd" clip-rule="evenodd" d="M12 9h1.25l1 4 1-4h1.25l-1.25 5h-2L12 9z" fill="#FFFFFF" />
</svg>
