<svg xmlns="http://www.w3.org/2000/svg" viewBox="0 0 20 20">
  <g fill-rule="evenodd" clip-rule="evenodd">
    <path d="M8.9006 3.1486a15.3978 15.3978 0 012.1987 0l.0714-.9975a16.403 16.403 0 00-2.3415 0l.0714.9975zm-3.238.5905a14.9997 14.9997 0 012.145-.4726l-.1433-.9896a16.0002 16.0002 0 00-2.2879.504l.2862.9582zm6.5297-.4726a14.9989 14.9989 0 012.145.4726l.2862-.9581a15.9986 15.9986 0 00-2.2879-.5041l-.1433.9896zM2.6343 5.024a14.797 14.797 0 011.988-.9317l-.3562-.9344a15.7987 15.7987 0 00-2.1222.9947l.4905.8715zm12.7434-.9317c.69.263 1.3542.575 1.9879.9318l.4905-.8715a15.8 15.8 0 00-2.1222-.9947l-.3562.9344zM.8074 6.2402c.288-.2246.5851-.4389.8907-.6423l-.5542-.8324a15.6467 15.6467 0 00-.9514.686l.615.7887zm17.4945-.6423c.3055.2034.6026.4177.8906.6423l.6149-.7886a15.646 15.646 0 00-.9514-.6861l-.5541.8324zM.7747 8.7101l-.488-1.8123.9656-.26.488 1.8123-.9656.26zm.732 2.7185l-.488-1.8123.9656-.26.488 1.8123-.9655.26zm.7321 2.7185l-.488-1.8123.9656-.26.488 1.8123-.9656.26zm.488 1.8124l-.244-.9062.9657-.26.244.9062-.9656.26zm16.4999-7.2494l.488-1.8123-.9656-.26-.488 1.8123.9656.26zm-.7321 2.7185l.488-1.8123-.9656-.26-.488 1.8123.9656.26zm-.7321 2.7185l.4881-1.8123-.9656-.26-.4881 1.8123.9656.26zm-.488 1.8124l.244-.9062-.9656-.26-.244.9062.9656.26z" fill="#999999" />
    <path d="M10 14.75c-3.7359 0-6.2394 1.7223-7.2988 4.5159l-1.4025-.5318C2.611 15.2737 5.7358 13.25 10 13.25c4.2641 0 7.389 2.0237 8.7012 5.4841l-1.4025.5318C16.2393 16.4723 13.7358 14.75 10 14.75z" fill="#333333" />
    <path d="M7.1863 12.2674l.162.2522.0085.0126c.0763.1125.165.2419.2658.3877l.0086.0126.009.0122c.1212.1664.2681.3489.4353.4957l.0093.0082.0095.008c.196.1647.4158.2778.6477.3393.2827.0785.551.0628.7815.0072.4554-.1098.8294-.3991 1.0674-.8351.2103-.3854.3183-.871.1899-1.3992-.1007-.4142-.3606-.8361-.5954-1.1796l-3.047-4.5445c-.1444-.2245-.2692-.4134-.3725-.5618a3.352 3.352 0 00-.4613-.5545 2.0491 2.0491 0 00-.8125-.4938c-.3157-.1068-.6264-.1104-.909-.0616l-.3228.0807c-.2647.0877-.5247.2317-.7466.4584-.2222.2254-.391.501-.4955.8185l-.0032.0095-.003.0096c-.0763.2463-.1237.5136-.1531.786l-.001.0103c-.0215.2163-.0402.4017-.056.5564l-.0002.0018-.5773 5.4612c-.0256.2266-.0441.4298-.0504.5947a2.4735 2.4735 0 00.066.6801c.1288.5296.4484.9197.8318 1.1665.3915.2521.8412.3497 1.2954.2402.3973-.0958.8738-.3514 1.1002-.9381l.0048-.0129c.1197-.322.1765-.7574.2134-1.1755l.0262-.2973 1.4745-.3557zm.423-1.2716l.573.892c.074.109.1607.2355.2601.3795.1018.1397.1894.2417.2627.3062a.6085.6085 0 00.2443.1258c.0912.0265.1929.0262.305-.0008.1922-.0464.3376-.1598.4362-.3404.1009-.1848.1295-.3671.0858-.5469-.042-.1728-.1814-.4322-.4182-.7782L6.3015 6.474c-.1474-.2294-.2679-.4112-.3616-.5454a2.173 2.173 0 00-.3094-.3732.9717.9717 0 00-.3991-.2396c-.152-.053-.3273-.0555-.5259-.0076-.1954.0472-.3501.1293-.464.2463a1.0092 1.0092 0 00-.2436.4003c-.0476.1533-.0833.341-.1073.5633-.0216.218-.0405.4054-.0566.5624l-.578 5.4693c-.0249.2187-.0396.3884-.0442.5089a1.233 1.233 0 00.0316.3395c.0446.1833.1534.3306.3263.442.1729.1113.349.1453.5284.102.2115-.051.3474-.1547.4077-.311.0595-.1599.1077-.4497.1448-.8692l.0947-1.0753 2.864-.6909zm-.6711-1.0866l-2.1048.5077.265-3.451 1.8398 2.9433z" fill="#333333" />
    <path d="M10.2157 13.1842l.0052.0115.0055.0113c.2731.5652.7649.779 1.1571.8658l2.0037.4435c.3734.0826.7217.1371 1.041.1576l.0108.0006c.3358.0169.6678-.0093.9893-.093l.0087-.0022.0087-.0025c.5465-.1541 1.0375-.48 1.4504-.9642l.0033-.0039c.4148-.4905.6967-1.08.8468-1.7359.1613-.7044.1546-1.4117-.0869-2.055a2.8465 2.8465 0 00-.0938-.2215c.3596-.4303.5954-.9518.7248-1.517.0824-.3604.1151-.7256.0909-1.0888-.0228-.3596-.0984-.7004-.2252-1.0162-.1219-.309-.285-.5843-.4898-.819a2.417 2.417 0 00-.8467-.6303c-.281-.1264-.6009-.2246-.9495-.3018l-2.1245-.4702c-.3956-.0876-.9215-.0937-1.4084.288-.4911.3849-.7124.994-.821 1.4684l-1.3817 6.0371c-.1089.4758-.1668 1.0928.0813 1.6377zm1.4298-.2557l2.0037.4434c.3458.0766.6531.1235.9217.1407.2694.0136.5157-.0086.7389-.0667.3583-.101.6724-.3097.9421-.626.2706-.32.4573-.7046.5602-1.1539.2223-.9714-.0589-1.7205-.8437-2.2473.7412-.2273 1.2038-.7427 1.3877-1.5462.0535-.2337.0728-.4616.0578-.6836-.0141-.2257-.0612-.4376-.1412-.6357-.0791-.2017-.1833-.3763-.3124-.5238-.1509-.1754-.3358-.3122-.5545-.4105s-.4846-.1821-.7977-.2514l-2.1244-.4702c-.2833-.0627-.507-.0297-.6711.099-.1604.1257-.2811.3656-.3622.7199l-1.3817 6.0371c-.0795.3469-.0764.6143.009.802.0893.1848.2786.3092.5678.3732zm1.3396-3.4506l1.3819.3059c.4622.1023.7887.2705.9794.5046.1908.234.2398.5538.147.9592-.1814.7925-.7208 1.0894-1.6183.8908l-1.4267-.3158.5367-2.3447zm.267-1.1668l.4752-2.0763 1.0779.2386c.483.1069.8269.254 1.0315.4412.2054.1836.2618.4781.169.8835-.0435.19-.12.3533-.2297.4902-.1447.1944-.3168.3098-.5162.3462-.1965.0371-.4602.019-.7912-.0542l-1.2165-.2692z" fill="#333333" />
  </g>
</svg>
