<svg xmlns="http://www.w3.org/2000/svg" viewBox="0 0 20 20">
  <path fill-rule="evenodd" clip-rule="evenodd" d="M6 3.5v6C6 10.8807 4.8807 12 3.5 12S1 10.8807 1 9.5v-6C1 2.1193 2.1193 1 3.5 1S6 2.1193 6 3.5zm13 2v6c0 1.3807-1.1193 2.5-2.5 2.5S14 12.8807 14 11.5v-6C14 4.1193 15.1193 3 16.5 3S19 4.1193 19 5.5zm-7 11v-6C12 9.1193 10.8807 8 9.5 8S7 9.1193 7 10.5v6C7 17.8807 8.1193 19 9.5 19s2.5-1.1193 2.5-2.5z" fill="#333333" />
  <path fill-rule="evenodd" clip-rule="evenodd" d="M5 3.5C5 4.3284 4.3284 5 3.5 5S2 4.3284 2 3.5 2.6716 2 3.5 2 5 2.6716 5 3.5zM3.5 6c.5628 0 1.0822-.186 1.5-.4998V9.5c0 .8284-.6716 1.5-1.5 1.5S2 10.3284 2 9.5V5.5002A2.4889 2.4889 0 003.5 6z" fill="#FFFFFF" />
  <path fill-rule="evenodd" clip-rule="evenodd" d="M18 5.5c0 .8284-.6716 1.5-1.5 1.5S15 6.3284 15 5.5 15.6716 4 16.5 4s1.5.6716 1.5 1.5zM16.5 8c.5628 0 1.0822-.186 1.5-.4998V11.5c0 .8284-.6716 1.5-1.5 1.5s-1.5-.6716-1.5-1.5V7.5002A2.4888 2.4888 0 0016.5 8zm-7 5c.5628 0 1.0822-.186 1.5-.4998V16.5c0 .8284-.6716 1.5-1.5 1.5S8 17.3284 8 16.5v-3.9998A2.4892 2.4892 0 009.5 13zm1.5-2.5c0 .8284-.6716 1.5-1.5 1.5S8 11.3284 8 10.5 8.6716 9 9.5 9s1.5.6716 1.5 1.5z" fill="#999999" />
  <path d="M6.4302 15.6187c.6053.0124.87.0325 1.1865.1093.5737.1392 1.0409.4529 1.4764 1.0626 1.3373 1.8721 4.0473 2.1032 6.2223.8282 2.3054-1.3514 3.1264-3.8544 1.6133-6.376a.4999.4999 0 00-.6859-.1715.4999.4999 0 00-.1715.6859c1.2102 2.0172.5878 3.9148-1.2617 4.999-1.7675 1.0361-3.9021.8541-4.9027-.5468-.5758-.806-1.2485-1.2576-2.0544-1.4532-.4101-.0995-.7249-.1234-1.4019-.1373C4.483 14.5788 4 13.9401 4 9.5a.5.5 0 00-1 0c0 4.9367.854 6.0661 3.4302 6.1187z" fill="#333333" />
</svg>
