<svg xmlns="http://www.w3.org/2000/svg" viewBox="0 0 20 20">
  <path d="M18.2306 3.8103C18.6896 3.554 19 3.0632 19 2.5c0-.8284-.6716-1.5-1.5-1.5S16 1.6716 16 2.5c0 .5458.2915 1.0235.7273 1.286-.1525 4.3277-1.0615 8.228-2.3243 9.5161A1.4939 1.4939 0 0013.5 13a1.493 1.493 0 00-.8861.2896c-.5744-.5782-1.2351-1.7291-2.1232-3.6099a1426.0276 1426.0276 0 00-.3173-.673 68.688 68.688 0 00-.3189-.6666c-.69-1.4197-1.2576-2.3854-1.8588-2.9545C7.9372 4.6106 7.2899 4 6.5 4c-.7534 0-1.377.5554-1.4839 1.2791-1.9173 1.455-3.0773 5.7528-3.245 10.9096C1.3111 16.4449 1 16.9361 1 17.5c0 .8284.6716 1.5 1.5 1.5S4 18.3284 4 17.5c0-.5456-.2913-1.0231-.7268-1.2856.1619-4.4697 1.1505-8.2236 2.3477-9.4989.247.179.5507.2845.8791.2845.2687 0 .5209-.0706.739-.1944.3486.4446.7679 1.1646 1.2665 2.1903.0935.1924.191.3966.3118.652l.205.4349.112.2375c1.1477 2.4303 1.9585 3.8317 2.8961 4.4818C12.1702 15.4857 12.7751 16 13.5 16c.7349 0 1.3464-.5285 1.4751-1.2262 2.0422-1.4209 3.1026-5.85 3.2555-10.9635z" fill="#333333" />
  <path fill="#1651B0" d="M0 0h10v8H0z" />
  <path fill-rule="evenodd" clip-rule="evenodd" d="M9 4H7v1h2V4zM6 4H4v1h2V4zM3.0005 4H1v1h2.0007l-.0002-1zM4 6h2v1H4V6zm5 1H7V6h2v1zM3.0008 6H1v1h2.001l-.0002-1z" fill="#FFFFFF" />
  <path fill-rule="evenodd" clip-rule="evenodd" d="M4 1h2v2H4V1zm3 0v2h2V1H7zM3.0001 1H1v2h2.0004l-.0003-2z" fill="#90CEF1" />
</svg>
