<svg xmlns="http://www.w3.org/2000/svg" viewBox="0 0 20 20">
  <path fill-rule="evenodd" clip-rule="evenodd" d="M16.0706 7.3973c.1294.134.2558.2757.379.4252l-1.0469.8236.341.4468 1.047-.8236c.2121.2997.4124.6266.5989.9826l-1.1882.5813.2417.5092 1.1934-.5839c.1491.3294.2874.6811.4135 1.0561l-1.2657.403.1665.5393 1.2673-.4034c.0962.3333.1835.6837.2611 1.0517l-1.1886.3783.1666.5394 1.1297-.3597c.0569.323.1067.6586.149 1.0073l-1.1533.2266.1057.5549 1.1084-.2177c.0403.4264.07.8713.0884 1.3353H1.1149c.0184-.464.048-.9089.0884-1.3353l1.1085.2177.1057-.5549-1.1534-.2266a19.078 19.078 0 01.149-1.0073l1.1298.3597.1666-.5394-1.1887-.3784c.0776-.368.1649-.7183.2611-1.0517l1.2673.4035.1666-.5393-1.2658-.403c.1261-.3751.2644-.7267.4136-1.056l1.1934.5838.2417-.5092-1.1883-.5813c.1865-.356.3868-.683.599-.9827l1.047.8237.341-.4468-1.047-.8236a7.2288 7.2288 0 01.379-.4252 6.9243 6.9243 0 01.4741-.4471l.903 1.0035.411-.3812-.873-.9701a6.9981 6.9981 0 011.1483-.6735l.56 1.095.494-.2606-.538-1.052c.4304-.163.8819-.29 1.3525-.3832l.1737 1 .5482-.0982-.1726-.9941c.4217-.0587.8574-.0924 1.3057-.1023V6.261H10.2838V5.1335c.4483.01.8839.0436 1.3057.1023l-.1726.9941.5482.0982.1736-1c.4707.0932.9222.2203 1.3526.3833l-.5381 1.052.4941.2604.56-1.0949a6.997 6.997 0 011.1482.6735l-.8729.97.411.3813.9029-1.0035c.1636.1403.3216.2893.4741.4471zM.0008 15.8662C.3325 7.1523 4.5322 4.1088 9.7163 4.0029V4h.5675v.0029c5.184.106 9.3837 3.1495 9.7154 11.8633.0237.6239-.4774 1.1338-1.0923 1.1338H1.0931c-.615 0-1.116-.5099-1.0923-1.1338zm4.4865-2.2574c.1783-1.7761.7811-2.9508 1.5596-3.7085C6.9902 8.9822 8.35 8.5218 10 8.5218c1.6499 0 3.0098.4604 3.9532 1.3785.7784.7577 1.3812 1.9324 1.5596 3.7085h-2.961c-.4295-.9982-1.4104-1.6957-2.5518-1.6957s-2.1223.6975-2.5518 1.6957h-2.961zm7.1828 1.1304H16.6802c0-.3946-.0167-.7713-.0491-1.1304C16.2295 9.1595 13.4138 7.3914 10 7.3914s-6.2295 1.768-6.631 6.2174a12.5769 12.5769 0 00-.0492 1.1304H8.33c0-.4343.1608-.8304.4252-1.1304.3058-.3469.7502-.5653 1.2448-.5653.4946 0 .939.2184 1.2448.5653.2645.3.4253.6961.4253 1.1304z" fill="#333333" />
</svg>
