<svg xmlns="http://www.w3.org/2000/svg" viewBox="0 0 20 20">
  <path fill-rule="evenodd" clip-rule="evenodd" d="M1.7778 0C.7959 0 0 .796 0 1.7778v12.4444C0 15.2041.796 16 1.7778 16h7.9275l-1.6668 3.4632c-.15.3115.1651.643.4839.509l3.9676-1.6683L20 10.4185 17.3715 7.79 16 9.23V1.7779C16 .7959 15.2041 0 14.2222 0H1.7778zM15 10.2801V1.7778a.889.889 0 00-.8889-.889H1.8889a.8889.8889 0 00-.889.889V14a.889.889 0 00.889.8889h8.7218l1.4814-1.5555h-1.6v-8h2.6667v6.88L15 10.2801zM9.3334 2.6667H6.6667v10.6666h2.6667V2.6667zM5.5079 8H2.8412v5.3333h2.6667V8zm4.7291 8.4265l-.9112 1.71.6157.5872 1.7975-.7953-1.502-1.5019zm8.6365-6.008l-1.502-1.502-6.759 7.1345 1.502 1.5019 6.759-7.1344z" fill="#333333" />
</svg>
