<svg xmlns="http://www.w3.org/2000/svg" viewBox="0 0 160 150">
  <path fill-rule="evenodd" clip-rule="evenodd" d="M80.9635 0H0v66.1594h16.5416l.0073.6865c0 3.2418-.9554 5.9956-2.8661 8.212-1.9108 2.2163-4.3802 3.4486-7.392 3.6884-1.5626.1736-2.68.5789-3.3438 1.2405-.672.6533-1.004 1.5713-1.004 2.7539 0 1.1164.332 2.0095 1.004 2.6629.6639.645 1.7812 1.0668 3.3438 1.2405 2.9552.2398 5.4083 1.4637 7.3434 3.6883 1.9431 2.2247 2.9147 4.962 2.9147 8.2204v31.9802c0 5.921 2.0564 10.899 6.1775 14.927 3.0118 3.018 6.8414 4.532 11.4806 4.532 1.4412 0 2.5342-.356 3.2547-1.067.7287-.711 1.093-1.596 1.093-2.663 0-1.067-.3805-1.985-1.1334-2.754-.5182-.537-1.7084-.893-3.5624-1.067-2.8419-.231-5.2222-1.447-7.1329-3.638-1.9108-2.192-2.8661-4.946-2.8661-8.262v-31.98c0-3.6801-.6639-6.8144-1.9998-9.4194-.9878-2.0096-2.9552-4.1433-5.9104-6.3927 2.9552-2.2494 5.0117-4.5236 6.1775-6.8392 1.1659-2.3156 1.7408-5.3341 1.7408-9.0638v-.6865h8.5173v41.3496l48.5781 24.81 48.5786-24.81V57.8895L80.9635 33.0798V0zm0 41.3497v24.8097H57.63l23.3334 11.9169L116.919 59.713 80.9635 41.3497zm-24.289-8.27h16.1927v8.27H56.6745v-8.27zm-24.2891 0h16.1927v8.27H32.3854v-8.27zm-24.289 0h16.1969l.0011 8.27H8.0964v-8.27zM48.578 49.6196H32.3854v8.2699h16.1927v-8.2699zm8.0964 8.2699h16.1927v-8.2699H56.6745v8.2699zM8.0963 49.6196h16.1992l.001 8.2699H8.0963v-8.2699zM32.3855 8.2699h16.1927v16.5399H32.3854V8.2699zm24.2891 0v16.5399h16.1927V8.2699H56.6745zm-32.3844 0H8.0964v16.5399h16.1959l-.0022-16.5399zM145.993 82.6497c-2.955-2.2494-4.922-4.3831-5.91-6.3927-1.336-2.605-2-5.7393-2-9.4194V34.8578c0-3.3163-.955-6.0702-2.866-8.2617-1.911-2.1915-4.291-3.4072-7.133-3.6388-1.854-.1736-3.044-.5293-3.562-1.0668-.753-.7691-1.134-1.6871-1.134-2.7539 0-1.0668.365-1.9517 1.093-2.6629.721-.7112 1.814-1.0668 3.255-1.0668 4.639 0 8.469 1.5134 11.481 4.5319 4.121 4.0275 6.177 9.006 6.177 14.9272v31.9798c0 3.2584.972 5.9957 2.915 8.2204 1.935 2.2246 4.388 3.4485 7.343 3.6883 1.563.1737 2.68.5955 3.344 1.2405.672.6534 1.004 1.5465 1.004 2.663 0 1.1826-.332 2.1005-1.004 2.7538-.664.6616-1.781 1.0669-3.344 1.2405-3.012.2399-5.481 1.4721-7.392 3.6884-1.91 2.2164-2.866 4.9702-2.866 8.2121v31.9802c0 5.574-1.741 10.205-5.222 13.91-3.481 3.705-7.619 5.557-12.436 5.557-1.449 0-2.534-.356-3.255-1.067-.728-.711-1.093-1.629-1.093-2.762 0-1.067.348-1.952 1.045-2.663.575-.529 1.797-.885 3.651-1.067 2.899-.289 5.287-1.554 7.182-3.771 1.878-2.224 2.825-4.97 2.825-8.212V98.561c0-3.7297.575-6.7482 1.741-9.0638 1.166-2.3156 3.206-4.5981 6.161-6.8475zM40.4817 66.6475l36.434 18.6076.0072 36.7299-36.4412-18.611V66.6475zm44.5304 18.6071l36.4329-18.6071v36.7265l-36.4257 18.604-.0072-36.7234z" fill="#EEEEEE" />
</svg>
