<svg xmlns="http://www.w3.org/2000/svg" viewBox="0 0 20 20">
  <path d="M1 2.4409C1 1.6451 1.6709 1 2.4956 1h9.0089C12.3304 1 13 1.6447 13 2.4409v10.1182C13 13.3549 12.3291 14 11.5045 14h-9.009C1.6695 14 1 13.3553 1 12.5591V2.4409z" fill="#333333" />
  <path fill-rule="evenodd" clip-rule="evenodd" d="M2 12.3159V2.6841C2 2.3067 2.3187 2 2.71 2h8.58c.3922 0 .71.306.71.6841v9.6318c0 .3774-.3187.6841-.71.6841H2.71c-.3922 0-.71-.306-.71-.6841zM10 4H4v1h6V4zm0 3H4v1h6V7zm-6 3h6v1H4v-1z" fill="#FFFFFF" />
  <path fill-rule="evenodd" clip-rule="evenodd" d="M7 14c0 .7052.365 1.3252.9164 1.6813l2.4264 2.4388C10.7024 18.651 11.3105 19 12 19h6v-3l-4-3h-1v-1h5V9l-3.0004-3H9c-1.1046 0-2 .8954-2 2v6z" fill="#1651B0" />
  <path fill-rule="evenodd" clip-rule="evenodd" d="M16.0858 8.5l-1.5-1.5h-4.3786l1.5152 1.5152c.0912-.01.1838-.0152.2776-.0152h4.0858zM8 8v.2928l1.7078 1.7078a2.51 2.51 0 01.9657-1.12L8.8108 7.0178C8.349 7.1063 8 7.5124 8 8zm0 1.707V14c0 .3516.1807.6615.459.8413L9.5 15.8667V11.207L8 9.707zM11.9975 18H17v-1.5h-5V11h5V9.5h-5c-.1036 0-.2047.0105-.3023.0305C11.0142 9.6704 10.5 10.275 10.5 11v5.9032A1.5743 1.5743 0 0011.9975 18zm4.0023-11H16l2 2-2.0002-2zm-2.4997 7H13v1.5h2.75L13.5001 14z" fill="#FFFFFF" />
</svg>
