<svg xmlns="http://www.w3.org/2000/svg" viewBox="0 0 20 20">
  <g fill-rule="evenodd" clip-rule="evenodd">
    <path d="M3 6c0-2.3976 3.2049-4 7-4s7 1.6024 7 4v9c0 2.3976-3.2049 4-7 4s-7-1.6024-7-4V6z" fill="#888888" />
    <path d="M16 6c0 1.6569-2.6863 3-6 3S4 7.6569 4 6s2.6863-3 6-3 6 1.3431 6 3zm-6 4c-2.5107 0-4.763-.7013-6-1.8701V15c0 1.6569 2.6863 3 6 3s6-1.3431 6-3V8.1299C14.763 9.2987 12.5107 10 10 10z" fill="#FFFFFF" />
    <path d="M10.0032 0L6.9847 5H9v2h2V5h2.0216l-3.0184-5zM3 7.5C.8752 7.5-.443 9.3542.1406 11.2947c.5202 1.7294 2.2826 2.9227 4.8395 3.1614V16.5l4.0185-3-4.0185-3v1.9479c-1.6716-.19-2.6595-.8786-2.9146-1.7268C1.858 10.0314 2.2565 9.5 3 9.5v-2zm16.8569 3.7976c-.5231 1.7202-2.2819 2.9098-4.8306 3.1554V16.5l-4.0185-3 4.0185-3v1.9366C18.2969 12.0046 18.8686 9.5131 17 9.5v-2c2.1219.015 3.445 1.8638 2.8569 3.7976z" fill="#333333" />
  </g>
</svg>
