<svg xmlns="http://www.w3.org/2000/svg" viewBox="0 0 20 20">
  <g fill="none" fill-rule="evenodd">
    <path d="M2.998 7c0-2.3976 3.2048-4 7-4 3.795 0 7 1.6024 7 4v9c0 2.3976-3.205 4-7 4-3.7952 0-7-1.6024-7-4V7z" fill="#DD5228" fill-rule="nonzero" />
    <path d="M3.998 7v9c0 1.6569 2.6862 3 6 3 3.3137 0 6-1.3431 6-3V7c0-1.6569-2.6863-3-6-3-3.3138 0-6 1.3431-6 3z" fill="#FFF" />
    <path d="M9.998 11c-3.7952 0-7-1.6024-7-4 0-2.3976 3.2048-4 7-4 3.795 0 7 1.6024 7 4 0 2.3976-3.205 4-7 4z" fill="#DD5228" fill-rule="nonzero" />
    <path d="M9.998 10c3.3137 0 6-1.3431 6-3s-2.6863-3-6-3c-3.3138 0-6 1.3431-6 3s2.6862 3 6 3z" fill="#FFF" />
    <path d="M15.0242 13.4366c3.2752-.4317 3.8708-2.9235 2.0021-2.9366l.0142-2c2.1218.015 3.4025 1.8639 2.8143 3.7976-.5231 1.7202-2.2818 2.9098-4.8306 3.1554V17.5l-4.0185-3 4.0185-3v1.9366zM4.978 13.448V11.5l4.0185 3-4.0185 3v-2.044C2.4211 15.2175.6587 14.0242.1386 12.2948-.445 10.3542.873 8.5 2.998 8.5h-.0292v2c-.7434 0-1.1128.5314-.9054 1.221.2551.8483 1.243 1.5369 2.9146 1.7269zM6.9827 6l3.0184-5 3.0185 5H10.998v2h-2V6H6.9827z" fill="#DD5228" fill-rule="nonzero" />
  </g>
</svg>
