<svg xmlns="http://www.w3.org/2000/svg" viewBox="0 0 20 20">
  <g fill="none" fill-rule="evenodd">
    <g opacity=".6">
      <path d="M3.5 16c0 1.433 2.679 3.5 6.5 3.5s6.5-2.067 6.5-3.5V7.25c0-1.433-2.679-3.5-6.5-3.5S3.5 5.5 3.5 7.25V16z" fill="#FFF" />
      <path d="M3.5 16c0 1.433 2.679 3.5 6.5 3.5s6.5-2.067 6.5-3.5V7.25c0-1.433-2.679-3.5-6.5-3.5S3.5 5.5 3.5 7.25V16h0zM16.5 7.25c0-1.75-2.679-3.5-6.5-3.5" stroke="#999" />
      <path d="M3.5 7.25c0 1.75 2.679 3.5 6.5 3.5s6.5-1.75 6.5-3.5" stroke="#999" />
      <path d="M5 13.4479V11.5l4 3-4 3v-2.044C2.4548 15.2175.7005 14.0242.1828 12.2948-.3982 10.3542.8848 8.5 3 8.5v2c-.74 0-1.1077.5314-.9013 1.221.254.8483 1.2374 1.5369 2.9013 1.7269zM15 13.4366c3.2602-.4317 3.853-2.9235 1.993-2.9366l.014-2c2.1121.015 3.3869 1.8639 2.8015 3.7976-.5208 1.7202-2.2714 2.9098-4.8085 3.1554V17.5l-4-3 4-3v1.9366z" fill="#999" fill-rule="nonzero" />
      <path d="M11 6v2.5H9V6H6l4-5 4 5h-3z" fill="#999" />
    </g>
    <path d="M16.6648 2H13V0h7.0026v7H18.002l-.0014-3.6653L13.3352 8 12 6.6648 16.6648 2z" fill="#999" fill-rule="nonzero" />
  </g>
</svg>
