<svg xmlns="http://www.w3.org/2000/svg" viewBox="0 0 20 20">
  <path fill-rule="evenodd" clip-rule="evenodd" d="M12.207 3.5L8.585 7.121A3.5041 3.5041 0 019.5 7c1.933 0 3.5 1.567 3.5 3.5 0 .3164-.0434.6226-.1221.9141L17.5 6.793l.707.707L8.5 17.207l-.707-.707 2.6211-2.6221A3.5018 3.5018 0 019.5 14C7.567 14 6 12.433 6 10.5c0-.3166.0423-.6233.121-.915L2.5 13.207l-.707-.707L11.5 2.793l.707.707zM9.5 8C8.1193 8 7 9.1193 7 10.5S8.1193 13 9.5 13s2.5-1.1193 2.5-2.5S10.8807 8 9.5 8z" fill="#333333" />
</svg>
