<svg xmlns="http://www.w3.org/2000/svg" viewBox="0 0 20 20">
  <path fill-rule="evenodd" clip-rule="evenodd" d="M2.8536 12.8535l3.2668-3.2668a3.5048 3.5048 0 00-.1203.9133C6 12.433 7.567 14 9.5 14c.316 0 .6221-.0419.9132-.1204l-2.2668 2.2668-.3535.3536.707.7071.3536-.3536 9-9 .3536-.3536-.7071-.707-.3536.3535-4.2668 4.2668a3.5038 3.5038 0 00.1204-.9132c0-1.933-1.567-3.5-3.5-3.5-.316 0-.6221.0418-.9132.1203l3.2667-3.2668.3536-.3535-.7071-.7071-.3536.3535-9 9-.3535.3536.707.7071.3536-.3536zM12.0001 10.5c0 1.3807-1.1193 2.5-2.5 2.5S7 11.8807 7 10.5C7 9.1192 8.1194 8 9.5 8S12 9.1191 12 10.5z" fill="#333333" />
</svg>
