<svg xmlns="http://www.w3.org/2000/svg" viewBox="0 0 20 20">
  <path d="M1 3.5C1 2.1193 2.1193 1 3.5 1h13C17.8807 1 19 2.1193 19 3.5v13c0 1.3807-1.1193 2.5-2.5 2.5h-13C2.1193 19 1 17.8807 1 16.5v-13z" fill="#333333" />
  <path fill-rule="evenodd" clip-rule="evenodd" d="M2 3.5C2 2.6716 2.6716 2 3.5 2h13c.8284 0 1.5.6716 1.5 1.5V8H2V3.5zM18 15v1.5c0 .8284-.6716 1.5-1.5 1.5h-13c-.8284 0-1.5-.6716-1.5-1.5V15h16z" fill="#FFFFFF" />
  <path d="M16.5 9h-3v5h3v-.9948h-2V12l2 .0444v-1.0575h-2V10h2V9z" fill="#FFFFFF" />
  <path fill-rule="evenodd" clip-rule="evenodd" d="M3 9h2c1.1046 0 2 .8954 2 2v1c0 1.1046-.8954 2-2 2H3V9zm2 1H4v3h1c.5523 0 1-.4477 1-1v-1c0-.5523-.4477-1-1-1zM11.25 14l-.375-1.5h-1.25L9.25 14H8l1.25-5h2l1.25 5h-1.25zm-1-4l.375 1.5h-.75l.375-1.5z" fill="#FFFFFF" />
</svg>
