<svg xmlns="http://www.w3.org/2000/svg" viewBox="0 0 20 20">
  <path d="M14.5926 16.0066c.3936.3935 1.0292.396 1.4197.0055.3905-.3906.3881-1.0262-.0055-1.4197l-4.5907-4.5907 4.5907-4.5908c.3936-.3935.396-1.0291.0055-1.4196-.3905-.3906-1.0261-.3881-1.4197.0054l-4.5907 4.5907-4.5907-4.5907c-.3936-.3935-1.0292-.396-1.4197-.0055-.3905.3906-.388 1.0262.0055 1.4197l4.5907 4.5908-4.5907 4.5907c-.3936.3935-.396 1.0291-.0055 1.4197.3905.3905 1.0261.388 1.4197-.0055l4.5907-4.5907 4.5907 4.5907z" fill="#666666" />
</svg>
