<svg xmlns="http://www.w3.org/2000/svg" viewBox="0 0 20 20">
  <path fill-rule="evenodd" clip-rule="evenodd" d="M10.9999 15c2.6171 0 4.7645-2.0106 4.9819-4.5714H6.018C6.2354 12.9894 8.383 15 11 15zM6.0322 9.4286h9.9354C15.6841 6.9363 13.5681 5 10.9999 5 8.4317 5 6.3158 6.9363 6.0322 9.4286zM5.577 7.4294a5.9615 5.9615 0 00-.5501 1.9992H2.5782l2.9987-1.9992zm1.4616-1.9359L.2788 10l6.7598 4.5065C8.0953 15.4362 9.4818 16 10.9999 16c3.3137 0 6-2.6863 6-6s-2.6863-6-6-6c-1.5181 0-2.9046.5638-3.9614 1.4935zM5.577 12.5706a5.9645 5.9645 0 01-.562-2.142H2.364l3.213 2.142z" fill="#333333" />
</svg>
