<svg xmlns="http://www.w3.org/2000/svg" viewBox="0 0 20 20">
  <path fill-rule="evenodd" clip-rule="evenodd" d="M8.0653 10.8881A6.0477 6.0477 0 018 10c0-.7912.1532-1.5466.4314-2.2383L3.3108 5.0045l4.7545 5.8836zM3.4797 3.9597l7.9164.6333a6.0262 6.0262 0 00-2.5149 2.2752L3.4797 3.9597zM14.0162 4L.6035 2.927l8.396 10.3901C10.0744 14.9342 11.9127 16 14 16c3.3137 0 6-2.6863 6-6 0-3.3083-2.6775-5.9912-5.9838-6zm4.9657 6.4286C18.7645 12.9894 16.6171 15 14 15c-2.617 0-4.7645-2.0106-4.9819-4.5714h9.9638zm-.0142-1H9.0323C9.3159 6.9362 11.4318 5 14 5c2.5682 0 4.6842 1.9362 4.9677 4.4286z" fill="#333333" />
</svg>
