<svg xmlns="http://www.w3.org/2000/svg" viewBox="0 0 20 20">
  <path fill-rule="evenodd" clip-rule="evenodd" d="M11 15c2.6171 0 4.7645-2.0106 4.9819-4.5714H6.0181C6.2355 12.9894 8.383 15 11 15zM6.0323 9.4286h9.9354C15.6841 6.9363 13.5682 5 11 5 8.4318 5 6.3159 6.9363 6.0323 9.4286zM5.577 7.4294a5.9613 5.9613 0 00-.5501 1.9992H2.5782L5.577 7.4294zm1.4616-1.9359L.279 10l6.7597 4.5065C8.0954 15.4362 9.482 16 11 16c3.3137 0 6-2.6863 6-6s-2.6863-6-6-6c-1.5182 0-2.9046.5638-3.9614 1.4935zM5.577 12.5706a5.9643 5.9643 0 01-.562-2.142H2.364l3.213 2.142z" fill="#333" />
</svg>
