<svg xmlns="http://www.w3.org/2000/svg" viewBox="0 0 20 20">
  <path fill-rule="evenodd" clip-rule="evenodd" d="M12.7904 5.8504l-2.058 1.8523.5352.5946 2.1565-1.9409c.8396.7893 1.4063 1.8656 1.5436 3.0721H5.0323C5.3158 6.9362 7.4318 5 10 5c1.0333 0 1.9934.3134 2.7904.8504zm.7623-.686C12.5582 4.4324 11.3296 4 10 4c-3.3137 0-6 2.6863-6 6s2.6863 6 6 6 6-2.6863 6-6c0-1.6937-.7018-3.2235-1.8304-4.3145L16.1535 3.9H20v-.8h-4.1535l-.1141.1027-2.1797 1.9617zM10 15c2.6171 0 4.7645-2.0107 4.9819-4.5715H5.0181C5.2355 12.9893 7.383 15 10 15z" fill="#333333" />
</svg>
