<svg xmlns="http://www.w3.org/2000/svg" viewBox="0 0 20 20">
  <path fill-rule="evenodd" clip-rule="evenodd" d="M7.3965 10c0 .3018.0223.5983.0653.8881L2.7073 5.0045 7.828 7.7617A5.9835 5.9835 0 007.3965 10zm3.396-5.407l-7.9163-.6334 5.4015 2.9086a6.0268 6.0268 0 012.5148-2.2752zM0 2.927L13.4127 4a5.982 5.982 0 012.2236.432L16.8204 3.1H20v.8h-2.8204l-.7958.8954C18.1842 5.8308 19.3965 7.7738 19.3965 10c0 3.3137-2.6863 6-6 6-2.0873 0-3.9256-1.0658-5.0005-2.6829L0 2.927zm14.9211 2.3097L12.701 7.7343l.598.5315 2.4031-2.7036c1.4408.75 2.4704 2.181 2.6621 3.8664H8.4288C8.7123 6.9362 10.8283 5 13.3965 5c.5317 0 1.0439.083 1.5246.2367zM13.3965 15c2.617 0 4.7645-2.0106 4.9819-4.5714H8.4146C8.632 12.9894 10.7794 15 13.3965 15z" fill="#333333" />
</svg>
