<svg xmlns="http://www.w3.org/2000/svg" viewBox="0 0 20 20">
  <path fill-rule="evenodd" clip-rule="evenodd" d="M10.088 16.9995a6.9938 6.9938 0 01-2.247-.3388l8.8195-8.8195.0002-.0002a6.9937 6.9937 0 01.3388 2.2476l-.0003-.0003-6.9112 6.9112zm1.6248-.2106c2.4972-.628 4.4614-2.5977 5.0816-5.098-.002.0075-.004.0149-.0058.0222l-5.0758 5.0758zm4.5423-9.9346l-.0076-.0143-9.4077 9.4077a7.0128 7.0128 0 01-1.5324-1.0534l9.8867-9.8867v-.0004c.4191.4636.777.9835 1.061 1.547zM14.4822 4.623a.356.356 0 01-.0098-.008l-9.8575 9.8575a7.0023 7.0023 0 01-.9957-1.59l9.2632-9.2632-.0001-.0002a7.004 7.004 0 011.5999 1.0039zm-2.6307-1.3755a.6975.6975 0 01-.0091-.0024L3.245 11.8425A7.0084 7.0084 0 013 10c0-.174.0063-.3464.0188-.5171l6.4641-6.464A7.0982 7.0982 0 0110 3c.6409 0 1.2618.0861 1.8515.2475zm-4.1502.1387C5.6845 4.087 4.087 5.6845 3.3862 7.7013l4.3151-4.3151zM18 10c0 4.4183-3.5817 8-8 8s-8-3.5817-8-8 3.5817-8 8-8 8 3.5817 8 8z" fill="#333333" />
</svg>
