<svg xmlns="http://www.w3.org/2000/svg" viewBox="0 0 20 20">
  <path fill-rule="evenodd" clip-rule="evenodd" d="M13.1805 5.4993l-2.4482 2.2034.5352.5946 2.6335-2.3701c1.1244.8023 1.9025 2.0587 2.0666 3.5013H6.0322C6.3158 6.9362 8.4317 5 11 5c.7818 0 1.5216.1794 2.1806.4993zm.7917-.7126C13.096 4.2861 12.0814 4 10.9999 4c-1.5181 0-2.9046.5638-3.9614 1.4935L.2788 10l6.7597 4.5065C8.0953 15.4361 9.4818 16 11 16c3.3137 0 6-2.6863 6-6 0-1.9362-.9171-3.6582-2.3406-4.7553L16.1534 3.9h3.8465v-.8h-4.1535l-1.8742 1.6867zm2.0096 5.6418C15.7644 12.9893 13.617 15 10.9999 15c-2.617 0-4.7645-2.0107-4.9819-4.5715h9.9638zm-10.955-1a5.9617 5.9617 0 01.5501-1.9991L2.5782 9.4285h2.4486zm-.0118 1c.0538.7622.2499 1.485.562 2.1421l-3.2131-2.1421h2.651z" fill="#333333" />
</svg>
