<svg xmlns="http://www.w3.org/2000/svg" viewBox="0 0 20 20">
  <path fill-rule="evenodd" clip-rule="evenodd" d="M19 11.26c0 .195-.071.364-.214.506-.142.143-.311.214-.506.214h-2.52c0 1.283-.251 2.37-.753 3.262l2.34 2.351c.142.142.214.311.214.506s-.071.364-.214.506c-.135.142-.304.214-.506.214s-.372-.071-.506-.214l-2.227-2.216c-.037.037-.094.086-.169.146-.075.06-.233.167-.472.321-.24.154-.484.291-.731.411-.248.12-.555.229-.922.326s-.731.146-1.091.146V7.661h-1.44V17.74c-.383 0-.763-.051-1.142-.152-.379-.101-.705-.225-.979-.371a9.3807 9.3807 0 01-.743-.438c-.221-.146-.384-.268-.489-.365l-.169-.157L3.7 18.584c-.15.157-.33.236-.54.236-.18 0-.341-.06-.484-.18-.142-.135-.219-.302-.231-.501-.011-.199.047-.373.174-.523l2.272-2.554c-.434-.855-.651-1.882-.651-3.082H1.72c-.195 0-.364-.071-.506-.214-.143-.142-.214-.311-.214-.506s.072-.364.214-.506c.142-.142.311-.214.506-.214h2.52V7.233L2.294 5.287c-.143-.142-.214-.311-.214-.506s.071-.364.214-.506c.142-.143.311-.214.506-.214s.364.071.506.214l1.946 1.946h9.494l1.946-1.946c.142-.142.311-.214.506-.214s.364.071.506.214c.142.142.214.311.214.506s-.071.364-.214.506l-1.946 1.946v3.307h2.52c.195 0 .364.071.506.214.142.143.214.311.214.506H19zm-5.4-6.48H6.401c0-.997.351-1.847 1.052-2.548.701-.701 1.551-1.052 2.548-1.052.997 0 1.847.351 2.548 1.052.701.701 1.052 1.551 1.051 2.548z" fill="#333333" />
</svg>
