<svg xmlns="http://www.w3.org/2000/svg" viewBox="0 0 20 20">
  <path fill-rule="evenodd" clip-rule="evenodd" d="M11 1H3.5C2.121 1 1 2.122 1 3.5v13C1 17.879 2.121 19 3.5 19h7l.0309-.0309-.0194.0324c1.7255-.1585 5.1264-3.3589 5.1264-3.3589s3.1991-3.3996 3.3588-5.1264l-.0323.0194L19 10.5V8h-3V6l-3.5 3.5L11 8 9.5 6.5 13 3h-2V1z" fill="#333333" />
  <path fill-rule="evenodd" clip-rule="evenodd" d="M11 2H3.5C2.673 2 2 2.673 2 3.5v13c0 .827.673 1.5 1.5 1.5h7.4168c.1528-.6655.1118-1.3401.0706-2.0176-.0788-1.2954-.1583-2.6016 1.1152-3.8751 1.2735-1.2735 2.5797-1.194 3.8751-1.1152.6791.0413 1.3553.0824 2.0223-.0716V8h-2V6l-3.5 3.5L11 8 9.5 6.5 13 3h-2V2zm2.1121 14.47c-.3568.2744-.7293.5439-1.0934.7804.024-.488-.0064-.9472-.033-1.35-.0088-.1333-.0172-.2604-.023-.3804-.0524-1.0665.0115-1.87.847-2.7055.8355-.8355 1.6391-.8994 2.7056-.8471.12.0059.2471.0143.3804.0231.4027.0266.8618.0569 1.3497.033-.2366.3642-.5061.7369-.7806 1.0938-.3934.5115-.784.9736-1.0772 1.3088a26.6474 26.6474 0 01-.351.3936c-.0419.0459-.0745.0812-.0961.1046l-.0101.0108-.0109.0102c-.0234.0216-.0587.0542-.1046.0961a27.6905 27.6905 0 01-.3937.3512c-.3353.2932-.7976.6839-1.3091 1.0774z" fill="#FFFFFF" />
  <path fill-rule="evenodd" clip-rule="evenodd" d="M4 15l3-9 4 5 2-1.5 1.3632 2.4991c-.5501.085-1.0459.3078-1.5535.8154-.6941.6942-.8557 1.3663-.8604 2.1855H4zm10.8601 0H16l-.4287-.7859c-.0645.0752-.126.146-.1837.212a26.6474 26.6474 0 01-.351.3936c-.0419.0459-.0745.0812-.0961.1046l-.0101.0108-.0109.0102-.0594.0547z" fill="#333333" />
  <path d="M11 6.6648L12.3352 8l4.6679-4.6679L17 7h2V0h-7v2l3.6643.0005L11 6.6648z" fill="#333333" />
</svg>
