<svg xmlns="http://www.w3.org/2000/svg" viewBox="0 0 20 20">
  <g fill-rule="evenodd" clip-rule="evenodd">
    <path d="M3.5 19h7l.0309-.0309a5.5408 5.5408 0 01-.0194.0324c1.7255-.1585 5.1264-3.3589 5.1264-3.3589s3.1991-3.3996 3.3588-5.1264a3.4488 3.4488 0 01-.0323.0194L19 10.5v-7C19 2.122 17.879 1 16.5 1h-13C2.121 1 1 2.122 1 3.5v13C1 17.879 2.121 19 3.5 19z" fill="#333333" />
    <path d="M3.5 2C2.673 2 2 2.673 2 3.5v13c0 .827.673 1.5 1.5 1.5h7.4168c.1528-.6655.1118-1.3401.0706-2.0176-.0788-1.2954-.1583-2.6016 1.1152-3.8751 1.2735-1.2735 2.5797-1.194 3.8751-1.1152.6791.0413 1.3553.0824 2.0223-.0716V3.5c0-.827-.673-1.5-1.5-1.5h-13zm8.5187 15.2504c.3641-.2365.7366-.506 1.0934-.7804.5115-.3935.9738-.7842 1.3091-1.0774.1671-.1463.3016-.2674.3937-.3512.0459-.0419.0812-.0745.1046-.0961l.0109-.0102.0101-.0108c.0216-.0234.0542-.0587.0961-.1046.0838-.092.2048-.2265.351-.3936.2932-.3352.6838-.7973 1.0772-1.3088.2745-.3569.544-.7296.7806-1.0938-.4879.0239-.947-.0064-1.3497-.033-.1333-.0088-.2604-.0172-.3804-.0231-1.0665-.0523-1.8701.0116-2.7056.8471-.8355.8355-.8994 1.639-.847 2.7055.0058.12.0142.2471.023.3804.0266.4028.057.862.033 1.35z" fill="#FFFFFF" />
    <path d="M13 6.5c0-.828.671-1.5 1.5-1.5s1.5.672 1.5 1.5S15.329 8 14.5 8 13 7.328 13 6.5zM4 15l3-9 4 5 2-1.5 1.3632 2.4991c-.5501.085-1.0459.3078-1.5535.8154-.6941.6942-.8557 1.3663-.8604 2.1855H4zm10.8601 0H16l-.4287-.7859c-.0645.0752-.126.146-.1837.212a26.6474 26.6474 0 01-.351.3936c-.0419.0459-.0745.0812-.0961.1046l-.0101.0108-.0109.0102-.0594.0547z" fill="#333333" />
  </g>
</svg>
