<svg xmlns="http://www.w3.org/2000/svg" viewBox="0 0 20 20">
  <path fill-rule="evenodd" clip-rule="evenodd" d="M17 4H4.5l-2-2H15l2 2zM2 3v11.8571L4 17V5L2 3zm15 2H5v12h3.8026C8.292 16.1175 8 15.0929 8 14c0-3.313 2.686-6 6-6 1.0929 0 2.1175.2922 3 .8028V5z" fill="#999999" />
  <path d="M14 9c-2.762 0-5 2.2389-5 5 0 2.762 2.238 5.0009 5 5.0009S19 16.762 19 14c0-2.7611-2.238-5-5-5z" fill="#333333" />
  <path fill-rule="evenodd" clip-rule="evenodd" d="M16.5009 12.3832l-1.6163 1.6163 1.6163 1.6164V16.5h-.8841l-1.6163-1.6164L12.3841 16.5H11.5v-.8841l1.6164-1.6164L11.5 12.3832V11.5h.8841l1.6164 1.6164L15.6168 11.5h.8841v.8832z" fill="#FFFFFF" />
</svg>
