<svg xmlns="http://www.w3.org/2000/svg" viewBox="0 0 20 20">
  <path fill-rule="evenodd" clip-rule="evenodd" d="M6.829 3.369C8.152 2.258 9.651 1 11.994 1c.829 0 1.695.153 2.647.469l.337.112.191.299c.604.947.953 1.848 1.29 2.72.413 1.069.804 2.079 1.664 3.214l1.216 1.604h-1.4653C16.8285 8.5334 15.4766 8 14 8c-3.314 0-6 2.687-6 6 0 .1057.0027.2108.0081.3152-.4972.0664-1.0545.1028-1.6821.1028h-.502l-.3-.403c-.801-1.076-1.696-2.759-2.561-4.387-.547-1.03-1.064-2.002-1.486-2.682L.5 5.375l1.849.043.135.002c1.9006 0 3.0323-.9496 4.342-2.0485l.003-.0025z" fill="#999999" />
  <path d="M14 9c-2.762 0-5 2.2389-5 5 0 2.762 2.238 5.0009 5 5.0009S19 16.762 19 14c0-2.7611-2.238-5-5-5z" fill="#333333" />
  <path fill-rule="evenodd" clip-rule="evenodd" d="M16.5009 12.3832l-1.6163 1.6163 1.6163 1.6164V16.5h-.8841l-1.6163-1.6164L12.3841 16.5H11.5v-.8841l1.6164-1.6164L11.5 12.3832V11.5h.8841l1.6164 1.6164L15.6168 11.5h.8841v.8832z" fill="#FFFFFF" />
</svg>
