<svg xmlns="http://www.w3.org/2000/svg" viewBox="0 0 20 20">
  <path fill-rule="evenodd" clip-rule="evenodd" d="M16.8655 5.7188l-4.289 4.2943 4.289 4.2691a.4548.4548 0 010 .6457l-1.9467 1.9382c-.1783.1785-.4695.1785-.6488 0l-4.2816-4.2617-4.2573 4.2617a.46.46 0 01-.6489 0l-1.9477-1.9382a.4547.4547 0 010-.6457l4.2563-4.2617L3.1345 5.785a.456.456 0 010-.6468L5.0822 3.2a.46.46 0 01.6489 0L9.98 7.4281l4.29-4.2942c.1793-.1785.4705-.1785.6488 0l1.9467 1.9382a.4579.4579 0 010 .6467z" fill="#BD3039" />
</svg>
