<svg xmlns="http://www.w3.org/2000/svg" viewBox="0 0 20 20">
  <path fill-rule="evenodd" clip-rule="evenodd" d="M1 2v14l3 3h7v-1l1 1h7V4l-3-3h-4v4.196h.6927v.8191l-4.6633 4.7032-4.6342-4.7032v-.819H6c-.1485-2.9224-2.2476-3.0395-4.3625-3.1575A45.7032 45.7032 0 011 2zm9.8146 3.196L9.5033 3.7537c.1017.429.1803.9079.2467 1.4425h1.0646z" fill="#333333" />
  <path fill-rule="evenodd" clip-rule="evenodd" d="M8.3723 10.3724L11 13v5l1 1V6.7138l-3.6276 3.6586zm2.4422-5.1763L9.5032 3.7537c.1018.429.1804.9078.2467 1.4424h1.0646z" fill="#D7D7D7" />
  <path fill-rule="evenodd" clip-rule="evenodd" d="M2.4432 2.0896L4.8536 4.5h1.0656c-.3702-1.9324-1.8419-2.2818-3.476-2.4104zM5.9868 5H5v.196h1A5.8477 5.8477 0 005.9868 5zM4.5 5.196H3.3952v.8191L4.5 7.1364V18L2 15.5V2.3535l2.5 2.5v.3426zM5 7.6439l2 2.0298V13.5h3V18H5V7.6438zM10 13H7.5v-2.5L10 13z" fill="#FFFFFF" />
  <path fill-rule="evenodd" clip-rule="evenodd" d="M16 5v8.5h-3V18h5V5h-2zm-4 11.5l.5.7501V13h3V4.8536l-2.5-2.5V10.5h-1v6zm3.8536-12l-2.5-2.5H15.5L18 4.5h-2.1464z" fill="#999999" />
  <path d="M1.0016.5001c6 0 8 1.1787 8 5.1787h3l-4 4-4-4h3c0-4-3-4.1787-6-4.1787v-1z" fill="#333333" />
</svg>
