<svg xmlns="http://www.w3.org/2000/svg" viewBox="0 0 180 180">
  <g fill="#EEEEEE">
    <path fill-rule="evenodd" clip-rule="evenodd" d="M48.2316 0l36.1737.0206 24.1157 24.1552v84.6152H24.1158L0 84.6154V48.3516h48.2316V0zm8.1927 6.044h24.9665l19.5942 19.6429H75.9869L56.4243 6.0439zm-2.1638 2.1692v44.0456l19.5941 19.6428V27.8244L54.2605 8.2132zm-2.1316 46.1824H8.1605l19.5941 19.6429h43.9685L52.1289 54.3956zm-46.1 2.1369v25.0609L25.623 101.236V76.1754L6.029 56.5325zm22.6086 46.2145h73.8545V28.7088H76.8691v48.3517H28.6375v25.6865zM166.587 179.353c3.653-1.455 4.315-7.734 3.626-9.391-.875-2.106-6.1-12.663-6.92-14.239H180l-44.842-44.954v66.277l14.638-14.675 8.47 16.982s4.668 1.456 8.321 0zm-27.5-11.815v-47.26l31.429 31.507h-13.75s7.12 13.192 9.822 19.692c.572 1.377-.693 3.088-1.965 3.938-1.271.85-3.928 0-3.928 0l-9.822-19.692-11.786 11.815z" />
    <path d="M132.529 106.596c1.219-.593 1.728-2.064 1.136-3.286l-5.709-11.8003c-.591-1.2219-2.058-1.7321-3.277-1.1394-1.219.5926-1.728 2.0637-1.137 3.2857l5.709 11.8c.591 1.222 2.059 1.733 3.278 1.14zM137.636 104.335c-.553 1.239 0 2.694 1.237 3.249 1.236.555 2.687.001 3.241-1.239l5.347-11.9694c.554-1.2395.001-2.6943-1.236-3.2494-1.236-.5552-2.687-.0004-3.241 1.2391l-5.348 11.9697zM145.521 108.633c-1.303.371-2.059 1.732-1.689 3.038.371 1.306 1.727 2.064 3.031 1.693l12.583-3.588c1.303-.371 2.059-1.731 1.689-3.038-.371-1.306-1.727-2.064-3.031-1.692l-12.583 3.587zM129.448 112.167c.331-1.317-.466-2.654-1.78-2.985l-12.687-3.201c-1.314-.332-2.647.467-2.977 1.784-.331 1.317.466 2.654 1.78 2.985l12.687 3.201c1.314.332 2.647-.467 2.977-1.784zM129.579 118.601c-.794-1.1-2.327-1.347-3.425-.551l-10.601 7.685c-1.098.796-1.344 2.333-.55 3.434.794 1.1 2.327 1.347 3.425.551l10.601-7.685c1.098-.796 1.344-2.333.55-3.434z" />
  </g>
</svg>
