<svg xmlns="http://www.w3.org/2000/svg" viewBox="0 0 200 95">
  <g fill="#EEEEEE">
    <path fill-rule="evenodd" clip-rule="evenodd" d="M111.903 0c3.868 0 8.513 2.5282 11.246 4.9234l11.247 9.8568.652.5766c2.733 2.3952 4.971 5.8894 4.971 9.2801v4.2761h-5.623v-4.2761l-22.493.0049V4.9234l-43.5806.005c-.7591 0-1.4058.5667-1.4058 1.232v28.6264l-5.6232-6.0347V4.9234C61.2934 1.5377 63.0535 0 66.9166 0h44.9864zm5.154 6.5712v13.1373h14.761L117.057 6.5711z" />
    <path d="M70.1031 78.8535l60.8249-.0044v-4.9237H70.1031v4.9281zM128.239 59.843h2.689v7.0646h-11.33V47.8525c0-1.1248-.432-1.5736-1.512-1.5736-1.188 0-3.122.6732-4.309 1.5736v19.0551h-8.222v-27.541h6.32l.484 1.7426c1.781-1.2938 4.321-2.305 7.13-2.305 4.32 0 8.75 1.6872 8.75 7.4193V59.843z" />
    <path fill-rule="evenodd" clip-rule="evenodd" d="M87.5234 67.47c-11.2345 0-15.4462-6.1254-15.4462-19.5039 0-13.3785 4.2117-19.5594 15.4462-19.5594 11.1813 0 15.3396 6.1837 15.3396 19.5594S98.702 67.47 87.5234 67.47zm5.7797-19.5039c0 9.3308-1.7837 11.3533-5.7797 11.3533-4.0519 0-5.7797-2.0806-5.7797-11.3561 0-9.2727 1.7278-11.4087 5.7797-11.4087 3.996 0 5.7797 2.0806 5.7797 11.4115z" />
    <path d="M135.052 33.0435h19.587l6.186 10.3261H200V95h-64.948V33.0435zM49.4845 41.3044v36.1413H15.4639V95h51.5464V41.3044H49.4845zM37.1134 25.8152h16.4948l11.3402 12.3913H48.4536L37.1134 25.8152z" />
    <path d="M46.3918 40.2717L34.0206 26.8478v32.0109l12.3712 13.4239V40.2717zM32.9897 61.9565l12.3711 13.4239H14.433L2.0619 61.9565h30.9278zM12.3711 77.4457L0 64.0217v17.5544L12.3711 95V77.4457z" />
  </g>
</svg>
