<svg xmlns="http://www.w3.org/2000/svg" viewBox="0 0 20 20">
  <path fill-rule="evenodd" clip-rule="evenodd" d="M10.0005 1.4887c.7603 0 1.5065.0995 2.2258.2944l.4825.1307-.2615.9652-.4826-.1307a7.4983 7.4983 0 00-1.9642-.2597c-3.076 0-5.7189 1.8508-6.876 4.4997H7v5h5v5.2308c3.1712-.8752 5.5004-3.781 5.5004-7.2305v-.5h1v.5c0 4.6942-3.8059 8.5-8.5 8.5-4.6948 0-8.5-3.8055-8.5-8.5 0-4.695 3.8049-8.5 8.5-8.5zm.9996 15.9339v-4.4343h-5v-5H2.77a7.5103 7.5103 0 00-.2696 2.0004c0 4.1422 3.3575 7.4999 7.5 7.4999a7.561 7.561 0 00.9996-.066z" fill="#999999" />
  <path d="M12 6.6648L13.3352 8l4.6679-4.6679L18 7h2V0h-7v2l3.6643.0005L12 6.6648z" fill="#333333" />
</svg>
