<svg xmlns="http://www.w3.org/2000/svg" viewBox="0 0 20 20">
  <path fill-rule="evenodd" clip-rule="evenodd" d="M6.9502 13.257L5.5 14.7071 4.793 14l1.45-1.4501a4.711 4.711 0 01-1.0506-2.973c0-2.6127 2.118-4.7308 4.7307-4.7308a4.7108 4.7108 0 012.973 1.0507l1.5162-1.5162.7071.7071-1.5162 1.5162a4.7105 4.7105 0 011.0507 2.973c0 2.6127-2.118 4.7308-4.7308 4.7308a4.711 4.711 0 01-2.973-1.0507zm.7121-.7122a3.7145 3.7145 0 002.2608.7629c2.0605 0 3.7308-1.6704 3.7308-3.7308 0-.85-.2842-1.6335-.7628-2.2609l-5.2288 5.2288zm4.5217-5.9359a3.7144 3.7144 0 00-2.2608-.7628c-2.0605 0-3.7308 1.6704-3.7308 3.7308 0 .8499.2842 1.6335.7628 2.2608L12.184 6.609z" fill="#333333" />
</svg>
