<svg xmlns="http://www.w3.org/2000/svg" viewBox="0 0 20 20">
  <path fill-rule="evenodd" clip-rule="evenodd" d="M8.1083 11.2786c.1785-1.0092.3902-2.2005.6348-3.5739h1.297c.8594.0534 1.4094.258 1.6854 1.1012.2311.712.4332 1.4338.6352 2.1552l.0759.2708c.0267.0948.0089.2344-.0467.3135-.0907.1312-.1936.254-.2965.3767-.0785.0937-.157.1874-.2301.2848-.1967.2624-.4212.3312-.7278.1833-.1478-.0719-.3211-.1021-.4867-.1261-.6245-.0895-1.2234-.0625-1.689.4479-.4277.4698-.4955 1.2687-.1477 1.7375.3444.4656 1.0167.6249 1.6245.326.2833-.1396.56-.35.7555-.5937.3102-.3878.5949-.7954.8795-1.2029.1221-.1749.2442-.3498.3683-.5231.0518-.0737.1051-.1459.1702-.2341a18.245 18.245 0 00.041-.0555c.0468.165.0907.3255.1335.4823.0955.3491.1861.6806.2942 1.0062.2678.8041.8667 1.1948 1.6979 1.2718.8311.0771 1.6044-.1458 2.3645-.4406.5077-.1958.5633-.2781.5755-.8541-.0502.0141-.0999.0283-.1494.0423a16.3252 16.3252 0 01-.3317.0921c-.9622.2448-1.4889-.0313-1.7945-.9635-.0837-.2551-.1582-.5132-.2326-.7712-.1104-.3825-.2207-.7647-.3607-1.136-.2111-.5584-.0845-.974.3144-1.3969l.0715-.0756c.364-.3864.372-.395.953-.239.5478.147 1.0967.2157 1.6289-.0603.7034-.3657.99-1.3167.5956-1.9645-.36-.5938-1.2367-.7427-1.8956-.272-.3178.2272-.5956.5292-.8345.8417-.2825.3689-.5422.755-.8102 1.1535-.1157.172-.233.3463-.3542.5225-.0498-.1679-.0953-.3318-.1399-.4924-.0949-.3416-.1856-.668-.3035-.9846-.2678-.7208-.8188-.998-1.5877-1.0802l-3.603-.002.1835-.9591c.1712-.8785.3376-1.568.499-2.0684.1615-.5004.3425-.8813.5432-1.1426.0636.1556.1443.3641.2422.6255a4.112 4.112 0 00.3596.734 2.242 2.242 0 00.4844.5629c.1908.1585.4183.2377.6826.2377.2299 0 .4049-.039.5247-.1168.1199-.0778.2337-.1862.3413-.3252a1.276 1.276 0 00.1945-.4087c.0416-.1501.0624-.2864.0624-.4087 0-.1835-.0257-.3683-.0771-.5546-.0513-.1863-.1504-.3545-.2972-.5046-.1615-.1612-.3829-.2877-.6642-.3795C11.6801 2.046 11.3266 2 10.9009 2c-.4893 0-.9773.1223-1.4642.367-.4869.2446-.9162.5615-1.288.9508-.3866.3947-.7157.8437-.9872 1.347-.2716.5031-.4588 1.016-.5615 1.5387l-.1248.6422H5.0661l-.1762.859h1.4239L5 14.7607c-.1566.8563-.3254 1.5416-.5064 2.0559-.181.5143-.3743.8994-.5798 1.1551a274.1334 274.1334 0 00-.246-.6255c-.1051-.2669-.2262-.5087-.3632-.7256-.137-.2224-.3022-.4128-.4954-.5713-.1933-.1585-.422-.2377-.6863-.2377-.3425 0-.6153.1237-.8183.3712-.203.2474-.3046.5323-.3046.8548 0 .1835.027.3698.0807.5588.0539.1891.1566.3614.3083.5171.1566.1557.373.2836.6495.3837.2765.1001.6373.1501 1.0826.1501.4942 0 .975-.1112 1.4422-.3336.4673-.2224.9015-.5338 1.3028-.9341.3816-.3781.7131-.8271.9944-1.347.2814-.5199.4832-1.0495.6056-1.5888.2495-1.1009.4636-2.156.6422-3.1651z" fill="#888888" />
</svg>
