<svg xmlns="http://www.w3.org/2000/svg" viewBox="0 0 30 20">
  <g fill="#1651B0">
    <path d="M17.0046 4.8092h2.5016l-6.613 10.3528h-2.5017l6.6131-10.3528zm1.9385 9.0388c.1829 0 .3129-.0481.3899-.1444.077-.1059.1155-.2118.1155-.3176v-2.1081c0-.1059-.0433-.1974-.13-.2744-.0866-.0866-.2117-.1299-.3754-.1299-.1636 0-.2936.0433-.3898.1299-.0867.077-.13.1685-.13.2744v2.1369c0 .1059.0385.207.1155.3033.0867.0866.2214.1299.4043.1299zm.0145 1.4583c-.2696 0-.5487-.0336-.8375-.101-.2888-.0578-.5535-.1589-.7941-.3032-.2311-.1444-.4236-.337-.5776-.5776-.1444-.2407-.2166-.5439-.2166-.9097v-2.0792c0-.3561.0722-.6546.2166-.8952.1444-.2407.3321-.4332.5631-.5776.231-.154.4861-.2647.7653-.332.2888-.0674.5727-.1011.8519-.1011.2791 0 .5583.0337.8374.101.2888.0674.5487.1781.7798.3321.231.1444.4187.3418.5631.592.154.2503.231.5583.231.9241v2.0359c0 .3466-.077.6402-.231.8808a1.8394 1.8394 0 01-.5631.592c-.2311.1444-.491.2503-.7798.3177-.2791.0674-.5486.101-.8085.101zm-8.0463-6.1799c.1829 0 .3129-.048.3899-.1444.077-.1058.1155-.2117.1155-.3176V6.5563c0-.1059-.0481-.1973-.1444-.2743-.0866-.0867-.2118-.13-.3754-.13-.1637 0-.2888.0433-.3754.13-.0867.077-.13.1684-.13.2743v2.137c0 .1059.0385.207.1155.3032.0867.0866.2214.13.4043.13zm.0145 1.4584c-.2696 0-.5487-.0289-.8375-.0866-.2888-.0674-.5535-.1733-.7942-.3177-.231-.1444-.4235-.337-.5775-.5776-.1444-.2406-.2166-.5438-.2166-.9096V6.614c0-.3561.0722-.6545.2166-.8952.1444-.2406.3273-.438.5487-.592.231-.154.486-.2647.7652-.332.2888-.0674.5728-.1011.8519-.1011.2792 0 .5632.0337.8519.101.2888.0674.5487.1781.7797.3321.2311.154.4188.3562.5632.6065.154.2503.231.5583.231.924v2.036c0 .3465-.077.6401-.231.8807a1.8403 1.8403 0 01-.5632.5921c-.231.1443-.4909.2502-.7797.3176-.2791.0674-.5486.1011-.8085.1011z" />
    <path fill-rule="evenodd" clip-rule="evenodd" d="M20 2H10c-4.4183 0-8 3.5817-8 8s3.5817 8 8 8h10c4.4183 0 8-3.5817 8-8s-3.5817-8-8-8zM10 0C4.4771 0 0 4.4771 0 10c0 5.5228 4.4771 10 10 10h10c5.5228 0 10-4.4772 10-10 0-5.5229-4.4772-10-10-10H10z" />
  </g>
</svg>
