<svg xmlns="http://www.w3.org/2000/svg" viewBox="0 0 20 20">
  <path d="M16.93 3.54A16.5 16.5 0 0 0 12.87 2c-.18.33-.39.77-.53 1.12a15.27 15.27 0 0 0-4.67 0A11.6 11.6 0 0 0 7.12 2a16.46 16.46 0 0 0-4.07 1.54C.44 7.09-.27 10.53.08 13.92a16.57 16.57 0 0 0 5.07 2.59c.41-.56.77-1.16 1.08-1.79a10.8 10.8 0 0 1-1.7-.83c.14-.1.28-.21.42-.32a11.8 11.8 0 0 0 10.1 0c.13.11.28.22.42.32-.54.33-1.11.61-1.71.84.31.63.67 1.23 1.08 1.79a16.51 16.51 0 0 0 5.08-2.59c.41-4-.7-7.41-2.99-10.38ZM6.68 11.86c-1.01 0-1.84-.94-1.84-2.09s.8-2.1 1.84-2.1c1.03 0 1.86.95 1.84 2.1 0 1.15-.81 2.09-1.84 2.09Zm6.64 0c-1.01 0-1.84-.94-1.84-2.09s.8-2.1 1.84-2.1c1.03 0 1.86.95 1.84 2.1 0 1.15-.8 2.09-1.84 2.09Z"/>
</svg>
