<svg xmlns="http://www.w3.org/2000/svg" viewBox="0 0 20 20">
  <path fill-rule="evenodd" clip-rule="evenodd" d="M17 1H3v16h3.5v-1H4V2h12v7l1-1V1zM7 4H6v1h1V4zM6 8h1v1H6V8zm1-2H6v1h1V6zm1-2h6v1H8V4zm6 2H8v1h6V6zM8 8h6v1H8V8zm9.6202 1H19L9 19H7.5l1.6235-1.5033C8.232 16.8551 7.5 15.9981 7 14.9999c1.1147-2.226 3.3832-3.75 6.0001-3.75.7135 0 1.4013.1136 2.0465.3237L17.6202 9zm-9.3297 5.9999c.4486-.7092 1.0462-1.3117 1.7511-1.7614a5.5682 5.5682 0 01.139-.0853 2.9911 2.9911 0 00-.1807 1.0265c0 .6857.2303 1.3176.6176 1.8227l-.686.6863a5.7129 5.7129 0 01-1.641-1.6888zm4.6965-1.3667c-.0825-.54-.5491-.9538-1.1118-.9538-.6216 0-1.125.5037-1.125 1.1253 0 .5628.4135 1.0294.9535 1.1118l1.2833-1.2833zm.0131 3.5464a2.9914 2.9914 0 01-.7702-.1002l3.67-3.67c.0654.2457.1002.5037.1002.7703 0 1.6566-1.3433 2.9999-3 2.9999zM19 14.9999c-.5074-1.0137-1.2543-1.8816-2.164-2.5265l-.8097.8096a5.7077 5.7077 0 011.6832 1.7169c-.4486.7091-1.0462 1.3116-1.7511 1.7613a5.4915 5.4915 0 01-2.9583.8636 5.4973 5.4973 0 01-1.1863-.1293l-.9135.9135a6.6021 6.6021 0 002.0998.3408c2.617 0 4.8852-1.524 5.9999-3.7499z" fill="#333333" />
</svg>
