<svg xmlns="http://www.w3.org/2000/svg" viewBox="0 0 20 20">
  <path fill-rule="evenodd" clip-rule="evenodd" d="M20 3H10v1h10V3zm-2 3h-8v1h8V6zm-8 7h10v1H10v-1zm8 3h-8v1h8v-1z" fill="#666666" />
  <g fill="#FFFFFF">
    <path d="M1 1c-.5523 0-1 .4477-1 1v6c0 .5523.4477 1 1 1h5c.5523 0 1-.4477 1-1V3.706a1 1 0 00-.3002-.7144l-1.7415-1.706A1 1 0 004.2585 1H1zM1 11c-.5523 0-1 .4477-1 1v6c0 .5523.4477 1 1 1h5c.5523 0 1-.4477 1-1v-4.294c0-.2688-.1082-.5263-.3002-.7144l-1.7415-1.706A1 1 0 004.2585 11H1z" />
  </g>
  <g fill="#333333" fill-rule="evenodd" clip-rule="evenodd">
    <path d="M1 1c-.5523 0-1 .4477-1 1v6c0 .5523.4477 1 1 1h5c.5523 0 1-.4477 1-1V3.706a1 1 0 00-.3002-.7144l-1.7415-1.706A1 1 0 004.2585 1H1zm0 .8h2.6v2.6h2.6V8a.2.2 0 01-.2.2H1A.2.2 0 01.8 8V2a.2.2 0 01.2-.2zm5.14 1.7631a.2.2 0 01.0296.0369H4.4V1.8587L6.14 3.563zM1 11c-.5523 0-1 .4477-1 1v6c0 .5523.4477 1 1 1h5c.5523 0 1-.4477 1-1v-4.294c0-.2688-.1082-.5263-.3002-.7144l-1.7415-1.706A1 1 0 004.2585 11H1zm0 .8h2.6v2.6h2.6V18a.2.2 0 01-.2.2H1a.2.2 0 01-.2-.2v-6a.2.2 0 01.2-.2zm5.14 1.7631a.2017.2017 0 01.0296.0369H4.4v-1.7413l1.74 1.7044z" />
  </g>
</svg>
