<svg xmlns="http://www.w3.org/2000/svg" viewBox="0 0 20 20">
  <path fill-rule="evenodd" clip-rule="evenodd" d="M19 9.258c0 .6774-.1912 1.2976-.5741 1.8611.0704.251.1055.5137.1056.7878 0 .5862-.1487 1.1342-.4455 1.6441.0236.16.0351.3236.0351.491 0 .7687-.2343 1.4462-.7031 2.0323.0078 1.0581-.3244 1.8935-.9961 2.5063-.672.6128-1.5587.9194-2.6602.9194H12.25a9.695 9.695 0 01-2.2208-.257c-.7304-.1714-1.5761-.4206-2.5371-.748-.9063-.3044-1.4453-.4567-1.6172-.4567H2c-.5523 0-1-.4477-1-1V8.8077c0-.5523.4477-1 1-1h3.711c.2811-.1827.8163-.7727 1.6054-1.7698.4532-.5709.871-1.0581 1.254-1.4616.1874-.1903.3262-.5157.416-.9762.0898-.4605.209-.942.3574-1.4443.1484-.5024.3906-.9136.7265-1.2332C10.375.6408 10.7264.5 11.1251.5c.6562 0 1.2459.1236 1.7695.371.5235.2475.922.6337 1.1955 1.159.2732.5253.4103 1.2332.4103 2.1238 0 .7078-.1878 1.4387-.5627 2.1922h2.0626c.8124 0 1.5156.2892 2.1095.8677.5936.579.8902 1.2601.8902 2.0442zm-16.5.0497v7.2306h3.3749c.4154 0 .9655.1554 2.1008.5369.9169.3123 1.7168.5481 2.396.7074A8.195 8.195 0 0012.25 18h1.5117c.7451 0 1.2695-.1813 1.6492-.5275.343-.3129.5119-.738.5072-1.3872l-.0039-.5322.3324-.4156c.2546-.3184.3745-.6651.3745-1.0955a1.859 1.859 0 00-.0191-.2725l-.0765-.5194.2642-.4538c.1638-.2814.2418-.5693.2418-.8887 0-.1396-.017-.2663-.0499-.3835l-.1882-.6714.3919-.5767c.214-.315.3147-.6415.3147-1.018 0-.3734-.1289-.6695-.4368-.9698-.3153-.3072-.6436-.4422-1.0629-.4422H11.516l1.0788-2.1682c.276-.5547.4056-1.0597.4056-1.524 0-.6679-.0924-1.1457-.2408-1.4311-.1231-.2365-.2803-.3889-.5058-.4955C11.9375 2.0778 11.5665 2 11.1251 2a.0666.0666 0 01-.0109-.0006s-.002.0027-.0098.0097c-.1389.1322-.2459.3138-.3221.5719-.1354.4582-.2432.8937-.3236 1.3061-.141.7233-.3886 1.3042-.8003 1.7218-.3496.3683-.7391.8224-1.1658 1.3598-.9016 1.1394-1.491 1.789-1.964 2.0966l-.3729.2424H2.5z" fill="#333333" />
</svg>
