<svg xmlns="http://www.w3.org/2000/svg" viewBox="0 0 20 20">
  <g fill="#333333">
    <path d="M8.022.1829C3.7378.7949 3.5 5.9999 3.5 5.9999S0 6 0 9.5C0 13.4694 5 14 5 14h.5v-1.5s-4-.1428-4-3c0-2.5 3.4486-2.2487 3.4486-2.2487s-.5115-4.658 2.6891-5.6307C10.8384.648 13 5 13 5s2.1555-1.1495 3.2127 0c1.1438 1.2436.2126 3.4753.2126 3.4753s2.1634.0342 2.1634 1.7507c0 2.3081-4.0887 2.274-4.0887 2.274V14h.5s5 0 5-3.5c0-2.7472-2-3-2-3s.5-2-1-3.5-3.5-.5-3.5-.5S11.5221-.3171 8.022.1829zM18 18v-2H2v2h16z" />
    <path d="M10 4L6 9h2v5h4V9h2l-4-5z" />
  </g>
</svg>
