<svg xmlns="http://www.w3.org/2000/svg" viewBox="0 0 20 20">
  <path d="M1 1.9934C1 1.4448 1.4475 1 1.9985 1h11.003c.5515 0 1.3113.3128 1.7043.7058l3.5884 3.5884C18.684 5.684 19 6.4475 19 6.9985v11.003c0 .5515-.4449.9985-.9934.9985H1.9934C1.4448 19 1 18.5551 1 18.0066V1.9934z" fill="#333333" />
  <g fill="#FFFFFF">
    <path d="M8.3188 11.9492c0 2.13-.4078 2.5916-1.3214 2.5916-.9265 0-1.3215-.4749-1.3215-2.5922 0-2.1167.395-2.6043 1.3214-2.6043.9137 0 1.3215.475 1.3215 2.6049z" />
    <path fill-rule="evenodd" clip-rule="evenodd" d="M2 18h16v-1.727h-3.6691v-4.3497c0-.2568-.0986-.3592-.3457-.3592-.2715 0-.7137.1536-.9852.3592v4.3497h-1.88V9.9862h1.4451l.1108.3978c.4072-.2954.9879-.5262 1.6301-.5262.9879 0 2.0007.3852 2.0007 1.6936v3.1089H18V6.9985L13 7l.0015-5H2v16zm4.9973-1.5986c-2.5686 0-3.5316-1.3983-3.5316-4.4522 0-3.054.963-4.4648 3.5316-4.4648 2.5566 0 3.5074 1.4115 3.5074 4.4648s-.9514 4.4522-3.5073 4.4522z" />
    <path d="M14 2.5l3.5 3.5726H14V2.5z" />
  </g>
</svg>
