<svg xmlns="http://www.w3.org/2000/svg" viewBox="0 0 20 20">
  <path fill-rule="evenodd" clip-rule="evenodd" d="M17.5988 10.557l-.2612.3845.1255.4476c.0453.1617.0684.3337.0684.5183 0 .4082-.1015.7828-.3097 1.1405l-.1761.3025.051.3462c.0162.1103.0244.2253.0244.3454 0 .5432-.158 1.0001-.484 1.4078l-.2216.277.0026.3548c.0057.7855-.2176 1.3473-.6702 1.7602-.4771.4352-1.1224.6582-1.9862.6582H12.25a8.694 8.694 0 01-1.9925-.2306c-.6964-.1634-1.5116-.4037-2.443-.7209-1.059-.3558-1.6054-.5102-1.9396-.5102H2V8.8077h4.0075l.2485-.1616c.4091-.266.9805-.8958 1.8446-1.9877.4357-.5488.8347-1.0139 1.1951-1.3937.337-.3418.5483-.8377.6722-1.4733.0835-.4283.1951-.8792.3349-1.3522.1003-.3395.2523-.5976.4569-.7923.1115-.1029.2213-.1469.3654-.1469.513 0 .9569.093 1.3423.2751.3249.1536.5625.384.7357.7167.1901.3655.2973.9201.2973 1.662 0 .5454-.149 1.1257-.458 1.7468l-.7192 1.4454h3.6771c.5503 0 1.0036.1864 1.4118.584.4031.3933.5879.8177.5879 1.328 0 .4768-.1309.9013-.4012 1.299z" fill="#1651B0" />
</svg>
