<svg xmlns="http://www.w3.org/2000/svg" viewBox="0 0 18 18">
  <g fill-rule="evenodd" clip-rule="evenodd">
    <path d="M1 1.883C1 1.3953 1.3978 1 1.8876 1h9.7804c.4902 0 1.1656.278 1.5149.6274l3.1897 3.1897C16.7191 5.1636 17 5.8422 17 6.332v9.7804c0 .4902-.3955.8876-.883.8876H1.883A.8831.8831 0 011 16.117V1.883z" fill="#888888" />
    <path d="M11.6667 6.3333l.0013-4.4444H1.889V16.111H16.111v-1.5348h-3.2614v-3.8664c0-.2283-.0877-.3193-.3074-.3193-.2413 0-.6343.1366-.8756.3193v3.8664H9.9955V8.988H11.28l.0985.3536c.362-.2625.8782-.4677 1.449-.4677.8781 0 1.7784.3424 1.7784 1.5054v2.7635h1.5052V6.332l-4.4444.0013zm.8889-3.9998l3.1111 3.1757h-3.1111V2.3335zm-9.3638 8.3991c0 2.7146.856 3.9575 3.1392 3.9575 2.272 0 3.1176-1.2435 3.1176-3.9575S8.6035 6.7639 6.331 6.7639c-2.2833 0-3.1392 1.2541-3.1392 3.9687zm3.1392 2.3038c.8121 0 1.1746-.4103 1.1746-2.3036S7.1432 8.4173 6.331 8.4173c-.8235 0-1.1746.4334-1.1746 2.3149 0 1.8821.3511 2.3042 1.1746 2.3042z" fill="#FFFFFF" />
  </g>
</svg>
