<svg xmlns="http://www.w3.org/2000/svg" viewBox="0 0 20 20">
  <path fill-rule="evenodd" clip-rule="evenodd" d="M8.1997 4.5878l.6.801 2.533-1.9-2.533-1.901-.6.801.8215.616L4.9999 3v3h1V4l2.981.0026-.7812.5852zM4.9999 7h1v1.082l4.135-1.654 2.0184 2.0182 2.2104-.5526.2425.9702-2.7597.6899L9.8648 7.572l-5 2-2.0183-2.0183-2.2104.5526-.2425-.9701 2.7597-.69L4.9999 8.293v-1.293zm3.7998 11.3888l-.6-.801.7805-.5847L4.9999 17v-2.482l-.135.054-2.0184-2.0183-2.2104.5526-.2425-.9701 2.7597-.69 1.9816 1.9817 5-2 2.0184 2.0183 2.2104-.5526.2425.9702-2.7597.6899-1.9817-1.9817-3.865 1.546V16l3.0216.0049-.8217-.6161.6-.801 2.533 1.901-2.533 1.9z" fill="#999999" />
  <path d="M12 6.6648L13.3352 8l4.6679-4.6679L18 7h2V0h-7v2l3.6643.0005L12 6.6648z" fill="#333333" />
</svg>
