<svg xmlns="http://www.w3.org/2000/svg" viewBox="0 0 20 20">
  <g fill-rule="evenodd" clip-rule="evenodd">
    <path d="M6.0994 6.7139l-1.829 9.9124 12.5046-3.3346-2.6592-9.928L6.0994 6.714zM5.2143 6L3 18l15-4-3.2143-12-9.5714 4z" fill="#333333" />
    <path d="M13.0007 1.2688A1.9875 1.9875 0 0113.998 1c.6911 0 1.3635.3593 1.7337 1.0002.5523.957.2245 2.1797-.7315 2.732A1.9868 1.9868 0 0114.002 5c-.6912 0-1.3626-.3584-1.7337-1.0002-.5523-.956-.2245-2.1787.7324-2.731zm-10 14A1.9867 1.9867 0 013.998 15c.6911 0 1.3635.3593 1.7337 1.0002.5523.957.2245 2.1797-.7315 2.732A1.9874 1.9874 0 014.002 19c-.691 0-1.3625-.3584-1.7336-1.0002-.5523-.956-.2245-2.1787.7324-2.731zM16.998 11c-.3387 0-.6822.0866-.9973.2688-.9569.5523-1.2847 1.775-.7324 2.731C15.6394 14.6416 16.3108 15 17.002 15c.3396 0 .6832-.0857.9982-.2678.956-.5523 1.2838-1.775.7315-2.732C18.3615 11.3593 17.6891 11 16.998 11zM4.5007 4.7688A1.9874 1.9874 0 015.498 4.5c.6911 0 1.3635.3593 1.7337 1.0003.5523.9569.2245 2.1796-.7315 2.732A1.987 1.987 0 015.502 8.5c-.691 0-1.3625-.3584-1.7336-1.0003-.5523-.9559-.2245-2.1786.7324-2.731z" fill="#1651B0" />
    <path d="M15.2982 2.2502c-.2664-.4623-.765-.7502-1.3007-.7502-.2606 0-.5202.0695-.7474.2018-.717.4133-.9628 1.332-.5495 2.048.2674.4632.766.7502 1.3008.7502.2615 0 .5201-.0695.7483-.2008a1.4926 1.4926 0 00.6984-.9109 1.4873 1.4873 0 00-.1499-1.138zm-10 14c-.2664-.4622-.765-.7502-1.3007-.7502a1.49 1.49 0 00-.7474.2018c-.717.4133-.9628 1.332-.5495 2.048.2674.4632.766.7502 1.3008.7502.2615 0 .52-.0695.7483-.2008a1.4925 1.4925 0 00.6984-.9109 1.4873 1.4873 0 00-.1499-1.1381zM16.9975 11.5c.5357 0 1.0343.288 1.3007.7502.2008.3468.2537.7513.1499 1.1381a1.4926 1.4926 0 01-.6984.9109 1.5027 1.5027 0 01-.7483.2008 1.5056 1.5056 0 01-1.3008-.7502c-.4133-.716-.1675-1.6347.5495-2.048a1.4899 1.4899 0 01.7474-.2018zM6.7982 5.7503C6.5318 5.288 6.0332 5 5.4975 5c-.2606 0-.5201.0695-.7474.2018-.717.4133-.9628 1.332-.5495 2.048C4.468 7.713 4.9666 8 5.5014 8c.2615 0 .52-.0695.7483-.2008a1.4925 1.4925 0 00.6984-.9109 1.4872 1.4872 0 00-.1499-1.138z" fill="#FFFFFF" />
  </g>
</svg>
