<svg xmlns="http://www.w3.org/2000/svg" viewBox="0 0 20 20">
  <path fill-rule="evenodd" clip-rule="evenodd" d="M20 2v14.988H0V2h20zm-1 .988L15 3v13l4-.012v-13zm-18 0L14 3v13l-13-.012v-13zM13 10h-2.0354C10.7453 11.5328 9.5328 12.7453 8 12.9646v2.0238H7v-2.0238C5.4672 12.7453 4.2547 11.5328 4.0354 10H2V9h2.0354C4.2547 7.4672 5.4672 6.2547 7 6.0354v-2.047h1v2.047C9.5328 6.2547 10.7453 7.4672 10.9646 9H13v1zM8 7.05c.9796.1989 1.7512.9704 1.95 1.95H8V7.05zM5.05 9c.1989-.9796.9704-1.7511 1.95-1.95V9H5.05zM8 10h1.95c-.1988.9796-.9704 1.7512-1.95 1.95V10zm-1 0v1.95c-.9796-.1988-1.7511-.9704-1.95-1.95H7zm9-1.0116v1h2v-1h-2zm0-3v-1h2v1h-2zm0 7v1h2v-1h-2z" fill="#333333" />
</svg>
