<svg xmlns="http://www.w3.org/2000/svg" viewBox="0 0 20 20">
  <g fill-rule="evenodd" clip-rule="evenodd">
    <path d="M2 14.9884h5L8.5 13.5l-2-7 1-1.5116H2l-1 1v8l1 1zm16-10h-5L11.5 6.5l2 7-1 1.4884H18l1-1v-8l-1-1z" fill="#1651B0" />
    <path d="M6.5 6H2v8h6l.5-1-2-7zM18 6h-6l-.5.5 2 7v.5H18V6z" fill="#FFFFFF" />
    <path d="M7.9741 1.3303l-.9486.3162.9022 2.7069-1.9895 1.9895 2 7-2.0105 2.0105 1.0978 3.2931.9486-.3162-.9022-2.7068 1.9895-1.9895-2-7 2.0105-2.0105L7.974 1.3303zm4.0514.3162l.9022 2.7069-1.9895 1.9895 2 7-2.0105 2.0105 1.0978 3.2931.9486-.3162-.9022-2.7068 1.9895-1.9895-2-7 2.0105-2.0105-1.0978-3.2932-.9486.3162z" fill="#333333" />
  </g>
</svg>
