<svg xmlns="http://www.w3.org/2000/svg" viewBox="0 0 20 20">
  <path fill-rule="evenodd" clip-rule="evenodd" d="M2.7649 2.014c1.4968.0589 2.7192.3136 3.547.9862V5H3.5v6H13V5h-2.5V3H10c-.2622-.3895-.591-.72-.9723-1H13c.688 0 1.514.513 2 .999l2 2 .116.117c.486.486.884 1.195.884 1.883v11c0 .687-.312 1-1 1L3 19c-.687 0-1-.314-1-1.001v-15c0-.603.2412-.9172.7649-.985z" fill="#333333" />
  <path fill-rule="evenodd" clip-rule="evenodd" d="M3.25 3l3.0614-.0003c.657.5335 1.0655 1.33 1.1656 2.5003H3.793l.854.854 4 4 .353.353.354-.354 3.6444-3.6444L13 5.5V7l4-.001v10.75c0 .135-.114.251-.25.251H3.25c-.135 0-.25-.115-.25-.25V3.25c0-.135.114-.25.25-.25zM13 5.5h-2.518c-.0725-1.0268-.3538-1.8469-.794-2.5006L13 2.999V5.5zm1-2.001V6l2.5-.001-2.5-2.5zM7 13v3c0 .5-.484 1-1 1H4v-5h2c.547 0 1 .406 1 1zm-2 3h1v-3H5v3zm4 1H8v-5h1v3l1-2 1 2v-3h1v5h-1l-1-2-1 2zm4-5v1h1v4h1v-4h1v-1h-3z" fill="#FFFFFF" />
  <path d="M2 1c5 0 7.979 1.021 8 5h3l-4 4-4-4h3c-.042-3.958-3-4.5-6-4.5V1z" fill="#333333" />
</svg>
