<svg xmlns="http://www.w3.org/2000/svg" viewBox="0 0 20 20">
  <path d="M17 4c0 4.3825-2.2687 6.5-7 6.5-5.2687 0-8 2.5492-8 7.5h1c0-4.3825 2.2687-6.5 7-6.5 5.2687 0 8-2.5492 8-7.5h-1z" fill="#333333" />
  <path fill-rule="evenodd" clip-rule="evenodd" d="M4 2h2v2h2v2H6v2H4V6H2V4h2V2zM9.9975 8.5c-.4233 0-.8528.1083-1.2466.336-1.1962.6903-1.606 2.2188-.9156 3.4137.464.8024 1.3033 1.2503 2.1671 1.2503.4246 0 .8541-.1071 1.2479-.3347 1.1949-.6904 1.6047-2.2188.9143-3.415C11.7019 8.9492 10.8614 8.5 9.9976 8.5" fill="#1651B0" />
  <path fill-rule="evenodd" clip-rule="evenodd" d="M9.9975 9.5c.5357 0 1.0343.288 1.3007.7502.2008.3468.2537.7513.1499 1.1381a1.4926 1.4926 0 01-.6984.9109 1.5027 1.5027 0 01-.7483.2008 1.5056 1.5056 0 01-1.3008-.7502c-.4133-.716-.1675-1.6347.5495-2.048A1.4907 1.4907 0 019.9975 9.5" fill="#FFFFFF" />
</svg>
