<svg xmlns="http://www.w3.org/2000/svg" viewBox="0 0 10 10">
  <g fill-rule="evenodd" clip-rule="evenodd">
    <path d="M10 5c0-2.7615-2.2385-5-5-5S0 2.2385 0 5s2.2385 5 5 5 5-2.2385 5-5" fill="#999999" />
    <path d="M5.5005 8.5045v-3.009L6.852 6.845c.4755-.4765.771-1.133.773-1.8575.004-1.4495-1.1675-2.6215-2.6175-2.617-1.4495.0045-2.6285 1.183-2.6325 2.633-.0035 1.125.702 2.083 1.696 2.4535l-.31.82C2.436 7.7835 1.4955 6.5065 1.5 5.006c.0055-1.933 1.5775-3.505 3.5105-3.5105C6.943 1.49 8.5055 3.052 8.5 4.985c-.003.967-.3975 1.8435-1.0335 2.479l1.023 1.021-2.989.0195z" fill="#FFFFFF" />
  </g>
</svg>
