<svg xmlns="http://www.w3.org/2000/svg" viewBox="0 0 20 20">
  <path fill-rule="evenodd" clip-rule="evenodd" d="M12.0002 3.5l-3 2.5V4H6.0044v1h-1V3h3.9958V1l3 2.5zM6.0044 6h-1v2h1V6zm-1 4.9956V9h1v1.5902l.8811.8811-.7071.7071L5.5 11.5v1.6942a2.2462 2.2462 0 001.091-.6032l.2945.2945.7071-.7071 1.4142 1.4142-.707.7071-.2946-.2945c-.6582.6582-1.5314 1.1016-2.5052 1.2157v1.0056c1.2502-.1181 2.3728-.6746 3.2123-1.5142l.2945.2945.7071-.7071.943.9429 2.5355-2.5355-1.4142-1.4142 3.8891-.3536-.3536 3.8891-1.4142-1.4142-3.2426 3.2427-.5304-.5304C8.8145 17.4385 7.002 18.25 5 18.25V11l.0044-.0044zM9.773 15.773l-.7071-.7071c-.9302.9301-2.1775 1.5431-3.5659 1.6627v1.0032c1.6647-.1219 3.1617-.8475 4.273-1.9588zm-2.1213-2.1213l-.7072-.7072a2.7437 2.7437 0 01-1.4445.7602v1.0123c.8356-.1114 1.5841-.4978 2.1517-1.0653z" fill="#999999" />
  <path d="M12 6.6648L13.3352 8l4.6679-4.6679L18 7h2V0h-7v2l3.6643.0005L12 6.6648z" fill="#333333" />
</svg>
