<svg xmlns="http://www.w3.org/2000/svg" viewBox="0 0 20 20">
  <path fill-rule="evenodd" clip-rule="evenodd" d="M15.1791 16.8584c.164-.226.202-.472.116-.74l-4.113-11.6c-.068-.213-.21-.382-.423-.509-.215-.127-.467-.191-.759-.191-.291 0-.544.064-.758.191-.215.127-.355.296-.424.509l-4.113 11.6c-.086.268-.047.514.116.74.162.227.406.373.733.441.342.066.659.036.951-.091.291-.126.479-.317.565-.569.068-.161.137-.354.205-.581.069-.186.146-.41.232-.669.086-.26.188-.543.308-.851h4.37c.103.308.202.591.295.851.0574.1567.1098.3006.1573.431.0309.0851.0598.1645.0867.238.069.227.138.42.206.581.086.252.274.443.566.569.291.127.608.157.951.091.325-.068.569-.214.732-.441zm-4.433-6.38c.257.734.505 1.448.745 2.14h-2.981c.239-.692.488-1.406.745-2.14.257-.733.506-1.426.745-2.08.24.654.489 1.347.746 2.08z" fill="#333333" />
</svg>
