<svg xmlns="http://www.w3.org/2000/svg" viewBox="0 0 20 20">
  <path d="M20 10c0-5.523-4.477-10-10-10S0 4.477 0 10s4.477 10 10 10 10-4.477 10-10" fill="#FAB601" />
  <path d="M11.001 17.009v-6.018l2.703 2.699c.951-.953 1.542-2.266 1.546-3.715.008-2.899-2.335-5.243-5.235-5.234-2.899.009-5.257 2.366-5.265 5.266-.007 2.25 1.404 4.166 3.392 4.907l-.62 1.64c-2.65-.987-4.531-3.541-4.522-6.542.011-3.866 3.155-7.01 7.021-7.021C13.886 2.98 17.011 6.104 17 9.97c-.006 1.934-.795 3.687-2.067 4.958l2.046 2.042-5.978.039z" fill="#333333" />
</svg>
