<svg xmlns="http://www.w3.org/2000/svg" viewBox="0 0 20 20">
  <path d="M17.9963 14.3873c.6386.5485.6747 1.4969.0797 2.0919l-1.5855 1.5855c-.5938.5953-1.5426.5587-2.0907-.0797l-5.918-6.9052a4.9741 4.9741 0 01-1.9813.4088c-2.7618 0-5-2.2385-5-5 0-.4989.0727-.9873.2147-1.4529l.243-.7964.5888.5888 2.6005 2.6005c.1927.1932.5128.1932.7064-.0005L7.44 5.842c.1938-.1937.1938-.5132 0-.7069L4.2511 1.9464l.7965-.243a4.9725 4.9725 0 011.4529-.2147c2.7615 0 5 2.2381 5 5 0 .6901-.141 1.361-.4091 1.9812l6.0791 5.2106.8258.7068z" fill="#333333" />
  <path fill-rule="evenodd" clip-rule="evenodd" d="M9.845 8.7186l.188-.3537a3.9817 3.9817 0 00.4675-1.8763c0-2.2095-1.7908-4-4-4-.095 0-.1894.0033-.2831.0098L8.147 4.4281c.5843.5843.5843 1.5368 0 2.1211l-1.586 1.586c-.5843.5843-1.5382.5843-2.121 0L2.5102 6.2055a4.0858 4.0858 0 00-.0098.2832c0 2.2092 1.7905 3.9999 4 3.9999.664 0 1.3029-.1616 1.8757-.4671l.354-.1888.261.3046 6.1677 7.1967c.1685.1963.4417.2069.624.0241l1.586-1.586c.1769-.1769.1734-.4378-.0042-.608L9.845 8.7186z" fill="#FFFFFF" />
</svg>
