<svg xmlns="http://www.w3.org/2000/svg" viewBox="0 0 20 20">
  <g fill-rule="evenodd" clip-rule="evenodd">
    <path d="M14 3.5L11 6V4H9v2H8V3h3V1l3 2.5zM8 7h1v1.5H8V7zm3 12l3-2.5-3-2.5v2H9v-2.5H8V17h3v2z" fill="#333333" />
    <path d="M12.8648 7.5721l-6 2-2.0183-2.0183-2.2104.5526-.2426-.9702 2.7598-.6899L7.1349 8.428l6-2 2.0184 2.0183 2.2104-.5526.2425.9701-2.7597.69-1.9817-1.9817zm0 5l-6 2-2.0183-2.0183-2.2104.5526-.2426-.9702 2.7598-.6899 1.9816 1.9817 6-2 2.0184 2.0183 2.2104-.5526.2425.9701-2.7597.69-1.9817-1.9817z" fill="#999999" />
  </g>
</svg>
