<svg xmlns="http://www.w3.org/2000/svg" viewBox="0 0 20 20">
  <g fill-rule="evenodd" clip-rule="evenodd">
    <path d="M11.9727 4.102c1.2676.2077 2.2682.7476 3.2721 1.7515l.7071-.707c-1.1809-1.181-2.3949-1.8154-3.9071-2.0452a1.502 1.502 0 01.0536.3987c0 .214-.0449.4177-.1257.602zm-2.7487 0a1.4948 1.4948 0 01-.1257-.602c0-.138.0187-.2717.0536-.3987-1.5122.2298-2.7262.8642-3.9071 2.0451l.7071.7071C6.956 4.8496 7.9564 4.3097 9.224 4.102zM4.1032 14.25c-1.1142-1.9298-1.3797-3.6131-.818-5.7096l.966.2589c-.4906 1.8308-.2678 3.2432.718 4.9507.9858 1.7075 2.0976 2.6066 3.9284 3.0972l-.2588.9659c-2.0964-.5618-3.4215-1.6333-4.5356-3.5631zM10.0984 9v1h-1v1h1v1h1v-1h1v-1h-1V9h-1zm2.4595 8.8131c2.0964-.5618 3.4215-1.6333 4.5356-3.5631 1.1142-1.9298 1.3797-3.6131.8179-5.7096l-.9659.2589c.4906 1.8308.2679 3.2432-.718 4.9507-.9858 1.7075-2.0976 2.6066-3.9284 3.0972l.2588.9659zm3.9617-10.0559l-.6-1 .8575-.5145.6 1-.8575.5145zM4.3602 6.259l-.55 1 .8763.482.55-1-.8763-.482zm6.9222 11.8018H9.931v-1h1.3514v1z" fill="#333333" />
    <path d="M10.5981 6c-1.3807 0-2.5-1.1193-2.5-2.5s1.1193-2.5 2.5-2.5c1.3808 0 2.5 1.1193 2.5 2.5s-1.1192 2.5-2.5 2.5z" fill="#1651B0" />
    <path d="M10.5981 5c.8285 0 1.5-.6716 1.5-1.5s-.6715-1.5-1.5-1.5c-.8284 0-1.5.6716-1.5 1.5s.6716 1.5 1.5 1.5z" fill="#FFFFFF" />
  </g>
</svg>
