<svg xmlns="http://www.w3.org/2000/svg" viewBox="0 0 20 20">
  <path fill-rule="evenodd" clip-rule="evenodd" d="M7.3118 3l.0035.0029c.3248.2646.5887.5938.7843 1.001L7 4 4.5 5.5l2.2 1.91 3.3 3.3h.3679L13.53 7.18l1.677-1.68L12 4l-.8139.0006c-.1291-.3685-.2954-.6992-.4944-.9957L10.6884 3H18c.438 0 1 .297 1 1v14c0 .562-.594 1-1 1H2c-.438 0-1-.578-1-1V4c0-.391.469-1 1-1h5.3118z" fill="#333333" />
  <path fill-rule="evenodd" clip-rule="evenodd" d="M8.0977 4c.1998.4143.3288.9096.3793 1.5H4.793l.854.854 4 4 .353.353.354-.354 3.1712-3.1712A2.0104 2.0104 0 0013.5 7.5c0 1.1046.8954 2 2 2s2-.8954 2-2-.8954-2-2-2a2.015 2.015 0 00-.3182.0252L15.207 5.5H11.482c-.0395-.5591-.1409-1.057-.2961-1.5H17.75c.162 0 .25.088.25.25v13.5c0 .15-.112.25-.25.25H2.25c-.138 0-.25-.047-.25-.25V4.25c0-.132.059-.25.25-.25h5.8477zM6.7022 7.4093l1.9866 1.9866 2.4451 3.2181 1.939-1.882L17.4599 17H2.7529l3.9493-9.5907zM4.247 16H15.54l-2.613-3.732-1.906 1.851-3.891-5.121L4.247 16zM15.5 8.5c-.5523 0-1-.4477-1-1s.4477-1 1-1 1 .4477 1 1-.4477 1-1 1z" fill="#FFFFFF" />
  <path d="M3 1c5 0 7.979 1.021 8 5h3l-4 4-4-4h3c-.042-3.958-3-4.5-6-4.5V1z" fill="#333333" />
</svg>
