<svg xmlns="http://www.w3.org/2000/svg" viewBox="0 0 20 20">
  <path fill-rule="evenodd" clip-rule="evenodd" d="M8.0968 4H3v14h14V4h-5.4044c.1853.266.351.5416.4979.8235h.7889v2.3426c.049.2815.0824.5604.1007.8339v.12h.7228v-.0023h2.4706v2.4705h-1.9646l-1.3295 1.3296v1.9646h-2.4706v-1.6708l-1.6234-1.6234H7.1177V8.1176h2.4705V8.12h.3928L9.975 8c-.0503-.5212-.1774-1.1018-.3868-1.6779v.972H7.1176V4.8235H8.818c-.2122-.3022-.4521-.5803-.7212-.8235zm-1.8027.8235H3.8235v2.4706h2.4706V4.8235zm7.4118 0h2.4706v2.4706h-2.4706V4.8235zM6.2941 8.1176H3.8235v2.4706h2.4706V8.1176zm0 3.2942H3.8235v2.4706h2.4706v-2.4706zm.8236 0h2.4705v2.4706H7.1176v-2.4706zm6.5882 0h2.4706v2.4706h-2.4706v-2.4706zm-7.4118 3.2941H3.8235v2.4706h2.4706v-2.4706zm.8236 0h2.4705v2.4706H7.1176v-2.4706zm5.7647 0h-2.4706v2.4706h2.4706v-2.4706zm.8235 0h2.4706v2.4706h-2.4706v-2.4706z" fill="#333" />
  <path d="M5.5 1.5c5 0 7 4 7 7h3l-4 4-4-4h3c.0015-2.2351-1.5-6-5-6v-1z" fill="#333" />
</svg>
