<svg xmlns="http://www.w3.org/2000/svg" viewBox="0 0 20 20">
  <path fill-rule="evenodd" clip-rule="evenodd" d="M0 3h4l1 1v3h3l1 1H5v3h2.4998v1H5v3h1.5545c.0995.3604.3186.4096.5209.4551.2224.05.4245.0954.4244.5449H5v3h2.5677c.1873.6667.6974 1 .6974 1H0V3zm16.9998 17H17V3h-3l-1 1-1 1v2h-2L9 8H16.9998v12zM13 4h3v3h-3V4zM4 7H1V4h3v3zm0 4H1V8h3v3zm0 4H1v-3h3v3zm0 4H1v-3h3v3z" fill="#333333" />
  <path d="M8 3c0-2-3-2-5-2V0c2 0 7 0 7 3h3L9 7 5 3h3z" fill="#333333" />
  <g fill="#333333">
    <path d="M16.998 9.301c0-.171.1202-.3004.3578-.3004.3817 0 .6969.1219.9447.365.3392.3243.5084.7251.5084 1.2019v2.5751c0 .2624.08.4828.2399.662.1592.1791.3611.2776.6043.297.463.0503.4624.5856 0 .6359-.2479.0193-.4511.1185-.6083.297-.1573.1785-.2359.4002-.2359.6613v2.5751c0 .4488-.1432.8217-.4297 1.12-.2865.2984-.627.4475-1.0234.4475-.239 0-.3578-.1267-.3578-.3083 0-.229.1937-.2818.3864-.3003.2385-.0233.4351-.1252.591-.3037.1546-.1791.2325-.4002.2325-.6612v-2.5685c0-.3003.0473-.5434.1433-.7298.0959-.1865.2638-.3703.507-.5514-.2432-.1811-.4051-.3529-.4864-.5147-.1099-.2098-.1645-.4622-.1645-.7585v-2.5751c0-.2671-.0787-.4888-.2359-.6653s-.3531-.2743-.587-.293c-.1926-.0176-.3864-.079-.3864-.3076z" />
    <path fill-rule="evenodd" clip-rule="evenodd" d="M13.5068 10.4237l3.9976 1.9978v3.9955l-3.9976 1.9977-3.9977-1.9977v-3.9955l3.9977-1.9978zm-.0002.6659l-2.9589 1.4787 2.9589 1.4787 2.9589-1.4787-2.9589-1.4787zm-.333 3.5355l-2.9984-1.4984v2.9573l2.999 1.4987-.0006-2.9576zm3.6644-1.4984l-2.9981 1.4982.0006 2.9571 2.9975-1.498v-2.9573z" />
    <path fill-rule="evenodd" clip-rule="evenodd" d="M8.643 14.938c-.0814-.1618-.2433-.3336-.4865-.5148.2432-.1811.4125-.3642.5084-.5507.096-.1864.1433-.4295.1433-.7298v-2.5685c0-.2617.0773-.4828.2318-.6612.156-.1792.3525-.2804.591-.3037.1929-.0184.3865-.072.3865-.301 0-.182-.1186-.3083-.3578-.3083-.3965 0-.737.1492-1.0234.4475-.2865.2983-.4584.6712-.4584 1.1201l.028 2.5751c0 .261-.0787.4828-.236.6612-.1572.1785-.3604.2777-.6082.297-.4624.0503-.463.5856 0 .636.2432.0193.445.1178.6043.297.1599.1791.2398.3995.2398.6619v2.5751c0 .4768.1693.8777.5084 1.202.2479.243.563.3649.9448.3649.2379 0 .3578-.129.3578-.3003 0-.2286-.1937-.29-.3864-.3077-.234-.0186-.4298-.1165-.587-.293-.1573-.1764-.2359-.3982-.2359-.6652v-2.5751c0-.2964-.0546-.5488-.1646-.7585z" />
  </g>
</svg>
