<svg xmlns="http://www.w3.org/2000/svg" viewBox="0 0 20 20">
  <g fill-rule="evenodd" clip-rule="evenodd">
    <path d="M11 .5742l8.414 8.414L16 12.4022l-8.414-8.414L11 .5742zM3.4245 7.9884l7.575 7.846v2.154h-10v-10h2.425z" fill="#333333" />
    <path d="M18 8.9882l-7-7-2 2 7 7 2-2zm-8.0005 7.2502l-7-7.25h-1v8h8v-.75z" fill="#FFFFFF" />
    <path d="M8 5.988H7v-1h1v1zm-2 2H5v-1h1v1zm8 5h1v-1h-1v1zm-1 2h-1v-1h1v1zm-2-2.9996l-1.1465-1.1465 1.5-1.5-.707-.707-1.5 1.5L8 8.9884v3h3z" fill="#1651B0" />
  </g>
</svg>
