<svg xmlns="http://www.w3.org/2000/svg" viewBox="0 0 20 20">
  <path fill-rule="evenodd" clip-rule="evenodd" d="M0 3h4l1 1v3h3l.0808.0808A1.296 1.296 0 007.7002 8H5v3h2.7002v1H5v3h2.7002v.6715c0 .1118.0144.2221.0422.3285H5v3h3v-2.498c.0255.0307.0525.0603.081.0888l.919.919V19h1.4902l.4171.4171V20H0V3zm16.7683 17H17v-.0959L16.7683 20zM17 6.7V3h-3l-1 1-1 1v1.7h1V4h3v2.7h1zM4 7H1V4h3v3zm0 4H1V8h3v3zm0 4H1v-3h3v3zm0 4H1v-3h3v3z" fill="#333333" />
  <path d="M8 3c0-2-3-2-5-2V0c2 0 7 0 7 3h3L9 7 5 3h3z" fill="#333333" />
  <path fill-rule="evenodd" clip-rule="evenodd" d="M8.9164 16.6813C8.365 16.3252 8 15.7052 8 15V9c0-1.1046.8954-2 2-2h5.9996L19 10v3h-5v1h1l4 3v3h-6c-.6895 0-1.2976-.349-1.6572-.8799l-2.4264-2.4388z" fill="#333333" />
  <g fill="#FFFFFF">
    <path fill-rule="evenodd" clip-rule="evenodd" d="M17.8103 9.8h-4.8101c-.0829 0-.1645.0046-.2447.0135l-.1432.0158L10.483 7.7h5.2273l2.1 2.1zm-9.1101-.3828V9c0-.6342.4538-1.1617 1.0543-1.2767l.1562-.03 2.2413 2.2414-.319.2a2.2106 2.2106 0 00-.8502.986l-.176.4032-2.1066-2.1067zm0 .5657l2.1 2.1v5.5004l-1.5311-1.5081A1.298 1.298 0 018.7002 15V9.9829zM12.9975 19.3c-.8246-.0012-1.5398-.539-1.7832-1.306l-.0141-.0443V12c0-.9941.8059-1.7999 1.8-1.8h5.3v2.1h-5v4.9h5v2.1h-5.3027zm1.5936-4.6l3.1499 2.1h-4.0408v-2.1h.8909z" />
    <path d="M14.5911 14.7l3.1499 2.1h-4.0408v-2.1h.8909z" />
  </g>
  <path d="M11.2142 17.994c.2435.7671.9587 1.3048 1.7833 1.3061h5.3027l-.0001-2.1h-4.9999v-4.9h5v-2.1h-5.3c-.9941 0-1.8.8059-1.8 1.8v5.9497l.014.0442z" fill="#999999" />
</svg>
