<svg xmlns="http://www.w3.org/2000/svg" viewBox="0 0 20 20">
  <g fill-rule="evenodd" clip-rule="evenodd">
    <path d="M18 6.9884v-4l-1.744 1.937-.001-.001c-3.775-2.445-8.731-2.453-12.512.001 0-.001-1.743-1.937-1.743-1.937v4h4l-1.531-1.337c3.366-2.088 7.698-2.082 11.061-.002L14 6.9884h4zM.6465 7.342l.707-.7071 3 3-.707.7071-3-3zm15 2.2929l.7071.7071 3-3-.7071-.7071-3 3zm-9 3.7071l.707-.7071 1 1-.707.7071-1-1zm6.7071 0l-.7071-.7071-1 1 .7071.7071 1-1z" fill="#333333" />
    <path d="M15 8.9884c-1.103 0-2 .897-2 2s.897 2 2 2 2-.897 2-2-.897-2-2-2m-10 0c-1.103 0-2 .897-2 2s.897 2 2 2 2-.897 2-2-.897-2-2-2m5 5c-1.103 0-2 .897-2 2s.897 2 2 2 2-.897 2-2-.897-2-2-2" fill="#1651B0" />
    <path d="M6 10.9884c0-.552-.448-1-1-1s-1 .448-1 1 .448 1 1 1 1-.448 1-1zm10 0c0-.552-.448-1-1-1s-1 .448-1 1 .448 1 1 1 1-.448 1-1zm-6 4c.552 0 1 .448 1 1s-.448 1-1 1-1-.448-1-1 .448-1 1-1z" fill="#FFFFFF" />
  </g>
</svg>
