<svg xmlns="http://www.w3.org/2000/svg" viewBox="0 0 20 20">
  <path fill-rule="evenodd" clip-rule="evenodd" d="M17 0h1v15h-7.5v1.5L14 20H6l3.5-3.5V15H2V0h15zm0 14V1H3v13h14zm-3.033-2.399c.064.198.035.38-.087.547-.122.168-.305.277-.548.326-.257.05-.495.027-.713-.067-.219-.093-.359-.234-.424-.421-.051-.119-.103-.262-.154-.429l-.0721-.1955-.1109-.3005c-.07-.192-.144-.402-.221-.629H8.363c-.09.227-.167.437-.231.629s-.122.358-.173.496c-.051.167-.103.31-.154.429-.064.187-.205.328-.423.421-.219.094-.456.117-.713.067-.244-.049-.427-.158-.549-.326-.122-.167-.151-.349-.087-.547l3.082-8.583c.051-.158.156-.283.317-.377.16-.094.35-.141.568-.141.219 0 .407.047.568.141.161.094.267.219.318.377l3.081 8.583zm-3.408-4.173c.192.542.378 1.071.558 1.583H8.883c.18-.512.366-1.041.559-1.583.192-.543.379-1.056.558-1.539.18.483.366.996.559 1.539z" fill="#333333" />
</svg>
