<svg xmlns="http://www.w3.org/2000/svg" viewBox="0 0 20 20">
  <path fill-rule="evenodd" clip-rule="evenodd" d="M18.5 10.66l-4 4.34-4-4.3415.7524-.6585 2.7492 2.9628L14 6h-4V5h9v1h-4l.0012 6.9603L17.75 10l.75.66zM8.6465 5.6464L7.4529 6.8401A3.9827 3.9827 0 005 6C2.791 6 1 7.7909 1 10c0 .9244.3136 1.7755.8401 2.4528L.6465 13.6464l.707.7072 1.1937-1.1937A3.9823 3.9823 0 005 14c2.2092 0 4-1.7909 4-4a3.9827 3.9827 0 00-.84-2.4528l1.1936-1.1936-.7071-.7072zM5 7c.648 0 1.2479.2054 1.7383.5546l-4.1836 4.1837A2.9864 2.9864 0 012 10c0-1.6569 1.3432-3 3-3zm0 6a2.9865 2.9865 0 01-1.7382-.5546l4.1836-4.1837A2.9863 2.9863 0 018 10c0 1.6569-1.3431 3-3 3z" fill="#333333" />
</svg>
