<svg xmlns="http://www.w3.org/2000/svg" viewBox="0 0 20 20">
  <g fill-rule="evenodd" clip-rule="evenodd">
    <path d="M1.0291 3L2 3.0023 1.9709 16 1 15.9977 1.0291 3zm17 0L19 3.0023 18.9709 16 18 15.9977 18.0291 3zM2 5.49L5 8V6.0016h10v2l3-2.5058-3-2.4942v2H5V3L2 5.49z" fill="#333333" />
    <path d="M2 14.5C2 12.5697 3.5697 11 5.5 11S9 12.5697 9 14.5 7.4303 18 5.5 18 2 16.4303 2 14.5zm6 0C8 13.12 6.88 12 5.5 12S3 13.12 3 14.5 4.12 17 5.5 17 8 15.88 8 14.5zm6.5-3.5c-1.9303 0-3.5 1.5697-3.5 3.5s1.5697 3.5 3.5 3.5 3.5-1.5697 3.5-3.5-1.5697-3.5-3.5-3.5zm2.5 3.5c0-1.38-1.12-2.5-2.5-2.5S12 13.12 12 14.5s1.12 2.5 2.5 2.5 2.5-1.12 2.5-2.5z" fill="#1651B0" />
  </g>
</svg>
