<svg xmlns="http://www.w3.org/2000/svg" viewBox="0 0 20 20">
  <g fill-rule="evenodd" clip-rule="evenodd">
    <path d="M17.9748 7.825c.048.149.027.285-.065.411-.091.126-.228.207-.411.245-.193.036-.371.02-.535-.051-.164-.07-.269-.175-.317-.316a2.8824 2.8824 0 01-.116-.322l-.0288-.078c-.0317-.0858-.0679-.1839-.1082-.294-.053-.144-.108-.301-.166-.472h-2.455c-.068.171-.125.328-.174.472-.048.145-.091.269-.13.372-.038.126-.076.233-.115.322-.048.141-.154.246-.318.316-.164.071-.341.087-.534.051-.183-.038-.32-.119-.412-.245-.091-.126-.113-.262-.065-.411l2.311-6.437c.039-.118.118-.212.238-.283.121-.07.263-.105.426-.105.164 0 .306.035.427.105.12.071.199.165.238.283l2.31 6.437zm-2.137-1.943l-.0377-.1073c-.1232-.3503-.2498-.7105-.3813-1.0797-.144-.407-.284-.792-.419-1.155-.134.363-.274.748-.419 1.155-.144.407-.284.803-.418 1.187h1.675zM12 11.9884H7v-5H2.5v1H6v5h5v5h1v-6z" fill="#333333" />
    <path d="M12.2263 1.783a8.4984 8.4984 0 00-2.2258-.2943c-4.6952 0-8.5 3.8048-8.5 8.5 0 4.6944 3.8052 8.4999 8.5 8.4999 4.6941 0 8.5-3.8058 8.5-8.5v-.5h-1v.5c0 4.1419-3.3582 7.5-7.5 7.5-4.1425 0-7.5-3.3577-7.5-7.5 0-4.1428 3.3571-7.5 7.5-7.5.6718 0 1.3301.0878 1.9642.2597l.4826.1307.2615-.9652-.4825-.1307z" fill="#1651B0" />
  </g>
</svg>
