<svg xmlns="http://www.w3.org/2000/svg" viewBox="0 0 20 20">
  <g fill-rule="evenodd" clip-rule="evenodd">
    <path d="M7.3118 3H2c-.531 0-1 .609-1 1v14c0 .422.562 1 1 1h16c.406 0 1-.438 1-1V4c0-.703-.562-1-1-1h-7.3116c.2003.2976.3677.6297.4975 1H17.75c.162 0 .25.088.25.25v13.5c0 .15-.112.25-.25.25H2.25c-.138 0-.25-.047-.25-.25V4.25c0-.132.059-.25.25-.25h5.8477c-.1961-.4068-.4606-.7357-.786-1zM5 16h3v1h8v-2H6v-2h2v1h8v-2H6v-2h2v1h8V9s-3.99-.03-4 0c-.01.03-2 2-2 2L8 9H6V8h1L5 6H4v2h1v8z" fill="#333333" />
    <path d="M8.743 5.75H5.396L10 10.354l4.603-4.604h-3.358c-.163-4.387-4.052-5-8.245-5h-.25v1H3c2.894 0 5.584.492 5.743 4z" fill="#333333" />
  </g>
</svg>
