<svg xmlns="http://www.w3.org/2000/svg" viewBox="0 0 20 20">
  <g fill-rule="evenodd" clip-rule="evenodd">
    <path d="M3.6465 4.342l-2-2 .707-.707 2 2-.707.707zm2 2l-1-1 .707-.707 1 1-.707.707zm7 7l-6-6 .707-.707 6 6-.707.707zm2 2l-1-1 .707-.707 1 1-.707.707zm1 1l2 2 .707-.707-2-2-.707.707z" fill="#333333" />
    <path d="M1 2.9884c0-1.103.897-2 2-2s2 .897 2 2-.897 2-2 2-2-.897-2-2zm14 14c0-1.103.897-2 2-2s2 .897 2 2-.897 2-2 2-2-.897-2-2z" fill="#1651B0" />
    <path d="M4 2.9884c0-.552-.448-1-1-1s-1 .448-1 1 .448 1 1 1 1-.448 1-1zm14 14c0-.552-.448-1-1-1s-1 .448-1 1 .448 1 1 1 1-.448 1-1z" fill="#FFFFFF" />
  </g>
</svg>
