<svg xmlns="http://www.w3.org/2000/svg" viewBox="0 0 20 20">
  <g fill-rule="evenodd" clip-rule="evenodd">
    <path d="M10.5002 5c.6143 0 1.1424-.3693 1.3743-.898 1.2676.2077 2.2683.7476 3.2722 1.7515l.7071-.707c-1.181-1.181-2.395-1.8154-3.9071-2.0452C11.772 2.4664 11.1906 2 10.5002 2c-.6904 0-1.2718.4664-1.4464 1.1013-1.5122.2298-2.7262.8642-3.9072 2.0451l.7072.7072c1.0039-1.004 2.0045-1.5439 3.272-1.7516.232.5287.76.898 1.3744.898zM8.5407 17.8131c-1.8076-.4843-3.0417-1.3477-4.0616-2.8132L4.5002 15a1.494 1.494 0 00.9606-.3479c.8525 1.1376 1.8616 1.7993 3.3387 2.1951l-.2588.9659zm-4.4224-5.764a1.5022 1.5022 0 00-.8566.6044c-.4549-1.3207-.4771-2.6108-.0746-4.113l.966.2588c-.3204 1.1955-.3366 2.2125-.0348 3.2498zM11.0002 10V9h-1v1h-1v1h1v1h1v-1h1v-1h-1zm6.8131-1.4595c.4025 1.5022.3803 2.7923-.0746 4.113.165.2409.2615.5324.2615.8465 0 .8214-.6602 1.4886-1.4789 1.4999-1.0199 1.4655-2.254 2.3289-4.0616 2.8132l-.2588-.9659c1.4772-.3958 2.4862-1.0575 3.3387-2.1951a1.4967 1.4967 0 01-.5394-1.1521c0-.8284.6716-1.5 1.5-1.5.132 0 .26.0171.3819.0491.3018-1.0373.2856-2.0543-.0347-3.2498l.9659-.2588zm-.5343-1.2977l-.8575.5145-.6-1 .8575-.5145.6 1zM3.7121 7.259l.8762.482.55-1-.8762-.482-.55 1zm7.4722 9.8018v1H9.8329v-1h1.3514z" fill="#333333" />
    <path d="M10.5 6C9.1193 6 8 4.8807 8 3.5S9.1193 1 10.5 1 13 2.1193 13 3.5 11.8807 6 10.5 6zm6 10c-1.3807 0-2.5-1.1193-2.5-2.5s1.1193-2.5 2.5-2.5 2.5 1.1193 2.5 2.5-1.1193 2.5-2.5 2.5zM2 13.5C2 14.8807 3.1193 16 4.5 16S7 14.8807 7 13.5 5.8807 11 4.5 11 2 12.1193 2 13.5z" fill="#1651B0" />
    <path d="M10.5 5c.8284 0 1.5-.6716 1.5-1.5S11.3284 2 10.5 2 9 2.6716 9 3.5 9.6716 5 10.5 5zm6 10c.8284 0 1.5-.6716 1.5-1.5s-.6716-1.5-1.5-1.5-1.5.6716-1.5 1.5.6716 1.5 1.5 1.5zM6 13.5c0 .8284-.6716 1.5-1.5 1.5S3 14.3284 3 13.5 3.6716 12 4.5 12s1.5.6716 1.5 1.5z" fill="#FFFFFF" />
  </g>
</svg>
