<svg xmlns="http://www.w3.org/2000/svg" viewBox="0 0 20 20">
  <g fill-rule="evenodd" clip-rule="evenodd">
    <path d="M5 11v7.25c2.002 0 3.8145-.8115 5.1265-2.1235l-.3535-.3535c-1.1113 1.1113-2.6083 1.8369-4.273 1.9588v-1.0032c1.3884-.1196 2.6357-.7326 3.5659-1.6627l-.3536-.3536c-.8395.8396-1.9621 1.3961-3.2123 1.5142v-1.0056c.9738-.1141 1.847-.5575 2.5052-1.2157l-.3536-.3535c-.5675.5675-1.316.9539-2.1516 1.0653v-1.0123a2.7437 2.7437 0 001.4445-.7602l-.3535-.3535a2.2462 2.2462 0 01-1.091.6032V11.5L5 11z" fill="#1651B0" />
    <path d="M9.0002 6l3-2.5-3-2.5v2H5.0044v2h1V4h2.9958v2zM5.0044 6h1v2h-1V6zm1 4.5902l.8811.8811-.7071.7071L5 11l.0044-.0044V9h1v1.5902zm4.6525 4.6524l2.5355-2.5355-1.4142-1.4142 3.8891-.3536-.3536 3.8891-1.4142-1.4142-3.2426 3.2427-1.65-1.6501.707-.7071.943.9429zm-2.3572-.9429l.7071-.7071-1.4142-1.4142-.7071.7071 1.4142 1.4142z" fill="#333333" />
  </g>
</svg>
