<svg xmlns="http://www.w3.org/2000/svg" viewBox="0 0 20 20">
  <path fill-rule="evenodd" clip-rule="evenodd" d="M10.0989 2c.2023.4377.3333.9412.381 1.5165h3.7272L9 8.7235l-5.2071-5.207H7.451c-.0788-.5234-.2344-.8927-.4242-1.1571A1.6906 1.6906 0 006.679 2H0v17h20V2h-9.9011z" fill="#FFFFFF" />
  <path d="M8 4.0165c-.159-3.508-3-3-5-3v-1c2 0 7-.5 7 4h3l-4 4-4-4h3z" fill="#333333" />
  <path fill-rule="evenodd" clip-rule="evenodd" d="M0 2h5l.5 1H1v15h13v-3h5V3h-7l-.5-1H20v17H0V2zm15 14h4v2h-4v-2zM6 8.75l1.5561-.8591-.5646-.4973L5 8.5V14l4.5 2.25L14 14V8.5l-2.604-1.4467-.7004.6022L13 8.75 9.5 10.5 6 8.75zm0 .75L9 11v4l-3-1.5v-4zm7 4v-4L10 11v4l3-1.5z" fill="#333333" />
</svg>
