<svg xmlns="http://www.w3.org/2000/svg" viewBox="0 0 20 20">
  <g fill-rule="evenodd" clip-rule="evenodd">
    <path d="M10 18v-2h8v1h-7v2H2v-1h8z" fill="#1651B0" />
    <path d="M2.5 5.9884c-.911 0-1.5-.589-1.5-1.5v-2c0-.911.589-1.5 1.5-1.5s1.5.589 1.5 1.5v2c0 .911-.589 1.5-1.5 1.5zM3 8v9H2V8h1zm7 0h1v7h-1V8zm7 0v7h1V8h-1zM2 2.4884c0-.364.136-.5.5-.5s.5.136.5.5v2c0 .364-.136.5-.5.5s-.5-.136-.5-.5v-2zm14 .5h1.5c.275 0 .5-.225.5-.5s-.225-.5-.5-.5H16v-1h1.5c.827 0 1.5.673 1.5 1.5s-.673 1.5-1.5 1.5H17v1h2v1h-3v-3zm-6 3h1v-5H9v1h1v4z" fill="#333333" />
  </g>
</svg>
