<svg xmlns="http://www.w3.org/2000/svg" viewBox="0 0 20 20">
  <g fill-rule="evenodd" clip-rule="evenodd">
    <path d="M2 1.9884h1v12H2v-12zM17 4.5L14 7V5H6v1.9884l-3-2.5 3-2.5V4h8V2l3 2.5zm0 0v9.4884h1v-12h-1V4.5z" fill="#333333" />
    <path d="M.5 16.9884c0-1.103.897-2 2-2s2 .897 2 2-.897 2-2 2-2-.897-2-2zm15 0c0-1.103.897-2 2-2s2 .897 2 2-.897 2-2 2-2-.897-2-2z" fill="#1651B0" />
    <path d="M3.5 16.9884c0-.552-.448-1-1-1s-1 .448-1 1 .448 1 1 1 1-.448 1-1zm15 0c0-.552-.448-1-1-1s-1 .448-1 1 .448 1 1 1 1-.448 1-1z" fill="#FFFFFF" />
  </g>
</svg>
