<svg xmlns="http://www.w3.org/2000/svg" viewBox="0 0 20 20">
  <path fill-rule="evenodd" clip-rule="evenodd" d="M4 1.5a.5.5 0 011 0v2a.5.5 0 01-1 0v-2zM10 3H6v.5C6 4.3284 5.3284 5 4.5 5S3 4.3284 3 3.5V3H2c-.5523 0-1 .4477-1 1v11c0 .5523.4477 1 1 1h7.207A5.5041 5.5041 0 019 14.5c0-.1685.0076-.3353.0224-.5H2V6h12v3.0224a5.5712 5.5712 0 011 0V4c0-.5523-.4477-1-1-1h-1v.5c0 .8284-.6716 1.5-1.5 1.5S10 4.3284 10 3.5V3zM3 9V7h2v2H3zm2 2v2H3v-2h2zm2-4h2v2H7V7zm0 4h2v2H7v-2zm6-4v2h-2V7h2zm-1.5-6a.5.5 0 00-.5.5v2a.5.5 0 001 0v-2a.5.5 0 00-.5-.5zM15 14v-2.5h-1V15h3v-1h-2zm-.5 5c2.4853 0 4.5-2.0147 4.5-4.5S16.9853 10 14.5 10 10 12.0147 10 14.5s2.0147 4.5 4.5 4.5zm3.5-4.5c0 1.933-1.567 3.5-3.5 3.5S11 16.433 11 14.5s1.567-3.5 3.5-3.5 3.5 1.567 3.5 3.5z" fill="currentColor" />
</svg>
