<svg xmlns="http://www.w3.org/2000/svg" viewBox="0 0 20 20">
  <path d="M6.312 3.0002c-.8279-.6726-2.0503-.9274-3.5471-.9861C2.2412 2.0818 2 2.3959 2 2.999v15C2 18.686 2.313 19 3 19l14-.001c.688 0 1-.313 1-1v-11c0-.688-.398-1.397-.884-1.883L17 4.999l-2-2C14.514 2.513 13.688 2 13 2H9.0277c.381.2799.7097.6102.9718.9993H9.688c.4403.6538.7216 1.4739.7941 2.5007H13l-.0016 1.2086L9 10.707 3.793 5.5h3.684c-.1-1.17-.5084-1.9663-1.165-2.4998z" fill="#333333" />
  <g fill="#FFFFFF">
    <path d="M6 16H5v-3h1v3z" />
    <path fill-rule="evenodd" clip-rule="evenodd" d="M3.25 3l3.0614-.0003c.657.5335 1.0655 1.33 1.1656 2.5003H3.793L9 10.707l3.9984-3.9984L13 5.5V7l4-.001v10.75c0 .135-.114.251-.25.251H3.25c-.135 0-.25-.115-.25-.25V3.25c0-.135.114-.25.25-.25zM6 12c.547 0 1 .406 1 1v3c0 .5-.484 1-1 1H4v-5h2zm2 0v.8l1.2954 1.6998L8 16.2v.8h.8l1.1995-1.5763L11.2 16.999 12 17v-.8l-1.2925-1.6956L12 12.8V12h-.8l-1.1976 1.5794L8.8 12.002 8 12zm5 0v5h1v-2h1v-1h-1v-1h2v-1h-3z" />
    <path d="M13 5.5h-2.518c-.0725-1.0268-.3538-1.8469-.794-2.5006L13 2.999V5.5zM14 3.499V6l2.5-.001-2.5-2.5z" />
  </g>
  <path d="M2 1c5 0 7.979 1.021 8 5h3l-4 4-4-4h3c-.042-3.958-3-4.5-6-4.5V1z" fill="#333333" />
</svg>
