<svg xmlns="http://www.w3.org/2000/svg" viewBox="0 0 20 20">
  <path fill-rule="evenodd" clip-rule="evenodd" d="M1 14l3 4h1.4117v1h2.1177v-1h3.0589v1h2.1176v-1h3.0587v1h2.1177v-1H19V1h-7v2H1v11z" fill="#333333" />
  <path d="M2 4h11V2h5v15H4.5L2 13.7506V4z" fill="#D7D7D7" />
  <path fill-rule="evenodd" clip-rule="evenodd" d="M16.5 3.5a.9996.9996 0 01-.5.8662v2.7196a1.5 1.5 0 01-.4393 1.0606l-1.7072 1.7071a.5.5 0 11-.704-.7101l1.7041-1.704A.5003.5003 0 0015 7.0857V4.3662a.9996.9996 0 01-.5-.8662c0-.5523.4477-1 1-1s1 .4477 1 1zM4 7a.9996.9996 0 00.8662-.5h3.3005a.5.5 0 01.3.1l1.7312 1.2985a.5.5 0 10.5961-.803L9.0667 5.8a1.5 1.5 0 00-.9-.3H4.8662A.9996.9996 0 004 5c-.5523 0-1 .4477-1 1s.4477 1 1 1zm2 8c0 .5523-.4477 1-1 1s-1-.4477-1-1c0-.3701.201-.6933.5-.8662v-.413a1.5 1.5 0 011.0256-1.4231l.8051-.2683a.5.5 0 11.3165.9486l-.8053.2684a.5001.5001 0 00-.342.4744v.413c.299.1729.5001.496.5001.8662zm-1.1338-5A.9996.9996 0 014 10.5c-.5523 0-1-.4477-1-1s.4477-1 1-1a.9996.9996 0 01.8662.5H6.5a.5.5 0 110 1H4.8662zM14 15c0 .5523-.4477 1-1 1a.9996.9996 0 01-.8662-.5h-.8977a1.4991 1.4991 0 01-.6708-.1584l-.7782-.389a.5002.5002 0 11.4444-.8959l.781.3905a.5002.5002 0 00.2236.0528h.8977A.9996.9996 0 0113 14c.5523 0 1 .4477 1 1zm3 0c0 .5523-.4477 1-1 1s-1-.4477-1-1a.9995.9995 0 01.5-.8662V13.5a.5.5 0 00-.5-.5h-1.5a.5.5 0 010-1h1.5001c.8284 0 1.4999.6716 1.4999 1.5v.6338c.2989.1729.5.4961.5.8662zm-9-5c0-.5523.4477-1 1-1h2c.5523 0 1 .4477 1 1v2c0 .5523-.4477 1-1 1H9c-.5523 0-1-.4477-1-1v-2zm1 0h2v2H9v-2z" fill="#333333" />
  <g fill="#FFFFFF">
    <path d="M16 3.5a.5.5 0 11-1 0 .5.5 0 011 0zM4.5 6a.5.5 0 11-1 0 .5.5 0 011 0zM5 15.5a.5.5 0 100-1 .5.5 0 000 1zM4.5 9.5a.5.5 0 11-1 0 .5.5 0 011 0zM13 15.5a.5.5 0 10-.0001-1.0001A.5.5 0 0013 15.5zM16.5 15a.5.5 0 11-1.0001-.0001A.5.5 0 0116.5 15zM11 10H9v2h2v-2z" />
  </g>
</svg>
