<svg xmlns="http://www.w3.org/2000/svg" viewBox="0 0 20 20">
  <path fill-rule="evenodd" clip-rule="evenodd" d="M10.5767 10.675L17 3.9305l-2.2482-2.2481-6.4233 6.7445-1.3545 2.8143c-.1997.4148.2199.8561.6443.6777l2.9584-1.2439zm-1.927-1.6058l-.7794 1.4626.5266.5022 1.5374-.6801-1.2846-1.2847zm7.3868-5.1387L14.7518 2.646 8.9708 8.748l1.2847 1.2847 5.781-6.1022z" fill="#333333" />
  <path fill-rule="evenodd" clip-rule="evenodd" d="M13.5 13c.8285 0 1.5-.6716 1.5-1.5s-.6715-1.5-1.5-1.5c-.8284 0-1.5.6716-1.5 1.5 0 .176.0303.3449.086.5019-.6648.7742-1.4635 1.6112-2.54 2.1366-.7557.3689-1.6407.5715-2.7022.4377-1.0702-.1349-2.364-.6178-3.9169-1.6928l-.8538 1.2332c1.6971 1.175 3.2158 1.7755 4.5831 1.9478 1.376.1735 2.5535-.0926 3.5478-.5779 1.3062-.6375 2.3107-1.678 3.0283-2.5103.0869.0156.1764.0238.2677.0238z" fill="#999999" />
  <path fill-rule="evenodd" clip-rule="evenodd" d="M3.9327 2.9458C3.7428 3.5565 3.1732 4 2.5 4 1.6716 4 1 3.3284 1 2.5S1.6716 1 2.5 1c.434 0 .825.1843 1.0989.479.609-.0961 1.2205-.1316 1.811-.0824 1.595.133 2.8046.8751 3.3016 2.3662.3357 1.007-.0429 1.9522-.9497 2.9337-.4974.5384-.749.7527-2.22 1.9483-1.8491 1.5028-2.7112 2.4689-2.7396 3.3857C3.4858 12.1703 4 12.7751 4 13.5c0 .1932-.0365.3779-.103.5475.7879.7792 1.8608 1.3893 3.1622 1.842 1.022.3555 2.1212.5922 3.2256.7309A1.498 1.498 0 0111.5 16c.8284 0 1.5.6716 1.5 1.5s-.6716 1.5-1.5 1.5c-.6101 0-1.1352-.3643-1.3695-.8872-1.2124-.1502-2.4231-.4097-3.564-.8065-1.5667-.545-2.8792-1.3061-3.8532-2.3213A1.5156 1.5156 0 012.5 15c-.8284 0-1.5-.6716-1.5-1.5 0-.3389.1124-.6515.302-.9027-.3602-1.6494.791-3.0824 3.2936-5.1165 1.3955-1.1342 1.6384-1.341 2.0645-1.8023.575-.6224.7531-1.067.6284-1.4413-.2823-.8468-.9527-1.2582-2.0031-1.3457-.4276-.0357-.8872-.0128-1.3527.0543z" fill="#333333" />
</svg>
