<svg xmlns="http://www.w3.org/2000/svg" viewBox="0 0 20 20">
  <path d="M5.3868 4.887C9.4288.8451 15.0019-.2697 17.8847 2.6142c.1238.1238.2402.2525.3493.3858h-1.3928c-2.4913-1.981-7.162-.9707-10.7371 2.6043C4.232 7.476 3.0635 9.648 2.659 11.6505l-1.118.6987c.2464-2.4753 1.5904-5.2069 3.8457-7.4622z" fill="#333333" />
  <path fill-rule="evenodd" clip-rule="evenodd" d="M19.4764 7.4482l-.9972-.0754a7.6616 7.6616 0 01-.0247.265l-.0016-.0002c-.1075.9555-.3994 1.9648-.8684 2.9733l.9067.4217c.0332-.0713.0655-.1426.0971-.214l.0061.0027c.5-1.1361.7994-2.2818.882-3.373zm-2.6977 6.358l-.7836-.6213-.0497.0624-.0102-.0082c-.3179.3951-.6646.782-1.0394 1.1568a14.431 14.431 0 01-1.1568 1.0393l.0082.0102a13.5913 13.5913 0 01-.0624.0498l.6213.7836c.449-.3561.8863-.745 1.3069-1.1657a15.2115 15.2115 0 001.1657-1.3069zm-5.4576 4.2882l-.0027-.0061c.0714-.0316.1428-.064.2141-.0971l-.4218-.9068c-1.0084.4691-2.0177.761-2.9731.8687l.0002.0015a7.4432 7.4432 0 01-.2653.0248l.0755.9972c1.0913-.0827 2.237-.3822 3.3731-.8822zm-6.6347.3725l.4018-.9062a4.5305 4.5305 0 01-.1202-.0554c-.4305-.2061-.82-.4775-1.158-.8153-.3378-.3381-.6093-.7278-.8154-1.1583a4.5189 4.5189 0 01-.0554-.1202l-.9062.4017a5.491 5.491 0 00.0708.1515 5.2418 5.2418 0 001.01 1.421 5.24 5.24 0 001.4211 1.0104c.0501.0244.1006.048.1515.0708zm-3.163-5.9152l.997.0755a7.6428 7.6428 0 01.0248-.2652l.0016.0002c.1077-.9554.3996-1.9646.8687-2.973l-.9067-.4218a12.4278 12.4278 0 00-.0971.2141l-.0062-.0027c-.5 1.136-.7995 2.2816-.8822 3.3729z" fill="#333333" />
  <g fill="#1651B0">
    <path d="M17.4997 1.003c-.339 0-.683.086-.998.268-.955.552-1.283 1.774-.731 2.73.37.64 1.042.999 1.733.999.338 0 .682-.086.997-.268.955-.551 1.283-1.773.731-2.729-.37-.641-1.042-1-1.732-1zM2.4967 10c-.339 0-.682.0859-.997.2679-.956.551-1.284 1.773-.731 2.73.369.64 1.041.999 1.732.999.339 0 .683-.086.997-.268.955-.552 1.282-1.774.731-2.73-.37-.64-1.042-.999-1.732-.999zM9.5013 8.2694c.315-.182.658-.268.997-.268.69 0 1.362.359 1.732.999.551.956.224 2.178-.731 2.73a1.983 1.983 0 01-.997.268c-.691 0-1.363-.359-1.732-.999-.553-.957-.225-2.179.731-2.73z" />
  </g>
  <g fill="#FFFFFF">
    <path d="M17.4997 1.503c.534 0 1.032.287 1.3.749.2.347.253.751.149 1.137-.104.387-.351.71-.698.911-.228.132-.487.2-.747.2-.535 0-1.033-.286-1.3-.749-.2-.347-.254-.75-.15-1.137.104-.387.352-.709.698-.91.228-.131.487-.201.748-.201zM2.4967 10.4999c.535 0 1.032.286 1.3.749.413.715.167 1.634-.548 2.047-.229.131-.487.201-.749.201-.534 0-1.032-.287-1.3-.749-.2-.347-.254-.751-.15-1.137.105-.387.353-.71.7-.911.228-.13.485-.2.747-.2zM11.7989 9.2504a1.5041 1.5041 0 00-1.3-.749c-.262 0-.519.07-.747.2-.347.201-.595.524-.7.911-.104.386-.05.79.15 1.137.268.462.766.749 1.3.749.262 0 .52-.07.749-.201.715-.413.961-1.332.548-2.047z" />
  </g>
</svg>
