<svg xmlns="http://www.w3.org/2000/svg" viewBox="0 0 141 142">
  <defs>
    <clippath id="clip0_18608_6617">
      <path fill="#fff" transform="translate(.208)" d="M0 0h140v142H0z" />
    </clippath>
  </defs>
  <g fill="#EEEEEE" clip-path="url(#clip0_18608_6617)">
    <path d="M127.046 69.083l-10.42.9116-5.121.4481-22.7402 1.9895-5.1267.4485-.1675.0147-6.995-9.1877c-1.1008-1.4458-2.6979-2.2136-4.3114-2.0725L43.9684 64.102c-2.8313.2477-4.8909 3.1699-4.5999 6.5271l.7803 9.5291.4979 6.0818 1.4704 18.602.5269 6.079 1.8985 21.851c.291 3.357 2.8223 5.878 5.6535 5.63l82.024-7.176c2.831-.248 4.89-3.17 4.6-6.527l-4.121-49.9852c-.291-3.3571-2.821-5.8783-5.653-5.6308zm-15.541 1.3597l5.121-.4481-1.868-21.3493c-.291-3.3572-2.821-5.8783-5.653-5.6308l-22.612 1.9783-5.1267.4485-15.8368 1.3856-6.995-9.1877c-1.1008-1.4458-2.698-2.2136-4.3114-2.0725l-28.1958 2.4668c-2.8313.2477-4.8909 3.1699-4.5999 6.5271l2.9313 32.7043.5476 6.0775 2.0456 22.8266c.2911 3.357 2.8224 5.878 5.6536 5.63l10.0385-.878-.5269-6.079-10.0392.878-1.6789-18.5835-.3791-4.2415-.1641-1.8363-.3791-4.2415-2.9233-32.7058 28.1965-2.4668 8.3 10.8517 18.9402-1.6571 4.948-.4329 22.6409-1.9808 1.926 22.0172zm6.029 5.5972l10.039-.8783 4.12 49.9854-82.0246 7.176-1.0763-12.454-.5269-6.08-2.2925-27.9975-.4979-6.0818-.7803-9.5297 28.1965-2.4669 6.8505 8.9986 1.893 2.4865 7.3399-.6422 23.6326-2.0676 5.127-.4485z" />
    <path fill-rule="evenodd" clip-rule="evenodd" d="M91.6239 15.2764l-10.0392.8783-5.1267.4486-28.41 2.4855-6.9951-9.1876c-1.1007-1.4459-2.6979-2.2136-4.3114-2.0725L8.5458 10.2954c-2.8313.2477-4.8909 3.1698-4.5999 6.5271l3.5706 43.6088.527 6.0792 1.0445 12.091c.2911 3.3572 2.8223 5.8778 5.6536 5.6301l15.2783-1.3367-.1641-1.8363-.3791-4.2415-15.2627 1.3353-1.0445-12.0903-.5269-6.0793-3.5707-43.6095 28.1965-2.4669 8.7434 11.4851 30.973-2.7098 5.1267-.4485 10.0386-.8782 1.8877 22.8011 5.1267-.4485-1.8877-22.8005c-.291-3.3571-2.8217-5.8783-5.6529-5.6308z" />
  </g>
</svg>
