<svg xmlns="http://www.w3.org/2000/svg" viewBox="0 0 200 180">
  <g fill="#EEEEEE" fill-rule="evenodd" clip-rule="evenodd">
    <path d="M46.8678 150.208c8.4999 6.693 18.3273 7.282 28.0284 4.07 6.552-2.169 10.9577-7.149 11.1558-15.513.2868-12.111-5.9738-24.726-10.9404-34.734-.3198-.644-.6341-1.278-.941-1.9-3.2834-6.6518-5.7741-9.1326-10.1919-10.8749-5.4817-2.162-10.7577-1.4951-16.3037-.6062-4.8383.9943-9.8652 2.7626-12.7995 7.1974-3.7672 5.8667-3.7363 14.1427-2.5879 20.9057 1.8418 10.848 5.9758 24.498 14.5802 31.455zm21.2841-8.903c1.6876-1.109 2.0122-3.155 1.7297-5.106-.0689-.423-.166-.868-.2969-1.353-.9827-4.19-2.5995-8.198-4.2147-12.201-1.0073-2.497-2.014-4.992-2.8657-7.529-.108-.306-.2145-.614-.3211-.923-.6315-1.826-1.2688-3.67-2.2751-5.309-1.101-1.869-2.6129-3.235-4.7209-3.525-1.9039-.259-4.0586.057-5.6328 1.24-4.9606 3.944-2.2924 14.185-.8549 19.236 1.5702 4.802 3.777 9.995 7.3527 13.614 2.9634 3.043 8.4518 4.159 12.0997 1.856z" />
    <path d="M200 23.8274l-69.637 60.2481-1.06.3343c6.607 22.4402 16.741 41.9652 31.309 58.3312l.046.052c.291.326.583.651.877.975.801.881 1.615 1.753 2.443 2.616 1.837 1.915.19 5.387-2.489 5.372-1.143-.006-2.273.016-3.39.066-.458.02-.913.045-1.367.075l-.069.004c-14.477.953-26.975 6.423-40.375 12.286-17.9417 7.851-37.4996 16.409-65.5864 15.78-2.4936-.056-4.8489-1.189-6.4666-3.053C17.8824 146.541.415 117.629.0002 63.5655c-.019-2.4918 1.1497-4.8758 3.2658-6.2509 8.8792-5.7697 26.9115-14.3133 66.684-24.4349l-.0097-.0309c2.4416-.6008 4.8963-1.2 7.3649-1.7977a637.03 637.03 0 01.9419-.2282l40.7509 21.6336L179.628 0 200 23.8274zM178.792 9.3898l11.641 13.6156-62.701 54.5363-11.641-13.6156 62.701-54.5363zm-73.348 58.3758l-12.4732 3.1997c-5.3473 1.3718-10.8614-1.5651-12.6072-6.7149l-7.711-22.7451c-38.2094 9.6986-55.3881 17.737-63.4653 22.7828.2798 25.644 4.5577 44.9519 11.6494 61.3029 7.1734 16.539 17.4289 30.532 30.2921 45.368 23.5257.485 40.5265-5.956 56.8052-12.994 1.564-.677 3.136-1.367 4.72-2.062 11.353-4.986 23.274-10.22 36.766-12.268-3.689-4.553-7.075-9.307-10.176-14.253-7.213-.472-11.204 1.134-20.907 7.111-2.074-9.89-5.695-20.754-11.203-27.019-2.394-1.654-6.625.647-8.2063 2.786 5.3083 11.093 8.3373 18.02 11.0153 27.279-2.716 1.304-5.16 2.726-7.546 4.113-1.846 1.073-3.6576 2.126-5.5321 3.089-2.7421-12.524-6.2899-19.697-9.5843-26.358-2.6444-5.346-5.1255-10.362-6.8955-17.551 1.8777-.823 3.8118-1.319 5.7683-1.82 1.9071-.489 3.8357-.983 5.754-1.7911.1201.1917.2398.3835.3595.5754.4193.6717.8386 1.3437 1.2715 2.0067 3.4425-4.4321 8.4336-6.9777 13.8626-7.1971 4.376.0026 8.729 1.7452 11.224 5.7071 2.614 5 3.64 7.948 4.64 10.82 1.008 2.898 1.99 5.719 4.55 10.491 2.66-.985 4.43-1.39 6.068-1.506-5.474-10.268-9.869-21.2727-13.324-32.9525l-25.1312 7.9203c-2.8062.8844-5.2364-2.1085-3.7316-4.5958l13.7478-22.7244zm-1.829 12.6052l9.008-13.5889 3.907 4.5689 7.734 9.0468-15.856 5.317-4.793-5.3438zM90.761 62.657l18.977-4.8681-27.2543-14.4686 6.176 18.2175c.291.8583 1.21 1.3478 2.1013 1.1192z" />
  </g>
</svg>
