<svg xmlns="http://www.w3.org/2000/svg" viewBox="0 0 20 20">
  <g fill-rule="evenodd" clip-rule="evenodd">
    <path d="M17.7335 6.644l-2.2897-.7221L15 3c0-1-2.5-2-5-2-2.214 0-4.428.7843-4.9056 1.6583l-1.383-.436-1.4026 4.0245 14.0105 4.5343 1.4142-4.1372zM2 18v-4h16v4H2z" fill="#FFFFFF" />
    <path d="M5 3c0-1 2.5-2 5-2s5 1 5 2l.5203 3.426s-.493-.7376-1.1881-1.019l-.2601-1.885c-.0451-.3267-.2476-.61-.5525-.7357C12.8073 2.4925 11.4036 2 10 2c-1.5579 0-3.1157.6067-3.7284.875-.168.0736-.2716.2409-.2716.4244-.706.0456-1.1606.7396-1.1606.7396L5 3zM3.0596 1.0129l2.0832.7087-.5155.788-.9158-.2874-1.4027 4.0246 2.3463.7593.3547-2.1287c.2572-1.5519 2.9327-1.301 6.021-.2975 2.5021.813 4.2627 1.9772 4.459 3.2968l.4644 2.7862.3651.1182 1.4142-4.1372-1.8249-.5732-.1227-.9846L19 6l-2 6-.8682-.2713.5795 3.4772c.0255.0958.0387.1943.0387.2941 0 1.5154-2.9382 2.25-6.75 2.25s-6.75-.7346-6.75-2.25c0-.0998.0131-.1983.0387-.2941l1.1864-7.12L1 7l2.0596-5.9871zM3.1734 13H1v6h18v-6h-2.1436L17 14h1v4H2v-4h1l.1734-1z" fill="#333333" />
    <path d="M5.4394 8.3744L4.255 15.4632a.1403.1403 0 00-.005.0367c0 .5611 2.2364 1.25 5.75 1.25s5.75-.6889 5.75-1.25c0-.0119-.0016-.024-.0251-.1297l-.6648-3.9894-9.6207-3.0064zm9.441 1.928l-.3797-2.2787c-.1138-.765-1.4823-1.7466-3.7789-2.4928-1.5343-.4985-2.8447-.7654-3.7578-.7606-.7214.0039-.9431.1223-.9677.2705l-.3782 2.264 9.2623 2.9976z" fill="#999999" />
  </g>
</svg>
