<svg xmlns="http://www.w3.org/2000/svg" viewBox="0 0 20 20">
  <g fill-rule="evenodd" clip-rule="evenodd">
    <path d="M3 1c-1.1046 0-2 .8954-2 2v10c0 .6546.3145 1.2358.8006 1.6006l3.5988 3.5988C5.7642 18.6855 6.3454 19 7 19h10c1.1046 0 2-.8954 2-2V7c0-.6546-.3145-1.2358-.8006-1.6006l-3.5988-3.5988C14.2358 1.3145 13.6546 1 13 1H3z" fill="#333333" />
    <path d="M5 16c0 .1486.0162.2934.047.4327l-2.5894-2.5893-.0567-.0426A.9969.9969 0 012 13V4l3 3v9zM7 5a2.017 2.017 0 00-.2743.0187L3.7071 2H13a.9969.9969 0 01.8008.4009l.0426.0567 2.6019 2.5922A2.0063 2.0063 0 0016 5H7zM5.0953 6.3882a2.0058 2.0058 0 011.0815-1.2115L3 2c-.5523 0-1 .4477-1 1v.293l3.0953 3.0952z" fill="#FFFFFF" />
    <path d="M17 18a.996.996 0 00.4903-.1282A1.4965 1.4965 0 0018 16.7451V8c0-.8284-.6716-1.5-1.5-1.5H8c-.8284 0-1.5.6716-1.5 1.5v8.7451c0 .5249.2696.9869.678 1.2549H17zM5.5 16V7.5L6 8v8.7451c0 .1402.0144.277.0419.4091A1.4971 1.4971 0 015.5 16zm.0125-9.1946l.5828.5828a2.0058 2.0058 0 011.0815-1.2115l-.6125-.6124c-.556.1685-.9754.651-1.0518 1.2411zM8 6a2.017 2.017 0 00-.2743.0187L7.2071 5.5H16c.5067 0 .9547.2512 1.2263.636A1.995 1.995 0 0016.5 6H8z" fill="#999999" />
  </g>
</svg>
