<svg xmlns="http://www.w3.org/2000/svg" viewBox="0 0 70 70">
  <path fill-rule="evenodd" clip-rule="evenodd" d="M0 14.5L42 4v66H28V60H14v10H0V14.5zM45.5 18H70v52H45.5V18zM14 18H7v10.5h7V18zm3.5 0h7v10.5h-7V18zM35 18h-7v10.5h7V18zM7 32h7v10.5H7V32zm7 14H7v10.5h7V46zm3.5-14h7v10.5h-7V32zm7 14h-7v10.5h7V46zM28 32h7v10.5h-7V32zm7 14h-7v10.5h7V46zm14-21h7v7h-7v-7zm7 10.5h-7v7h7v-7zM49 46h7v7h-7v-7zm7 10.5h-7v7h7v-7zM59.5 25h7v7h-7v-7zm7 10.5h-7v7h7v-7zm-7 10.5h7v7h-7v-7zm7 10.5h-7v7h7v-7z" fill="#D7D7D7" />
</svg>
