<svg xmlns="http://www.w3.org/2000/svg" viewBox="0 0 20 20">
  <g fill="#999999">
    <path d="M9.5 7.9687V1.8074h1v6.1613h-1zM11.594 8.505l1.6813-5.5775-.9574-.2887-1.6813 5.5776.9574.2887zM15.2439 4.9796l-2.6071 4.2362-.8516-.5242 2.6071-4.2361.8516.524zM13.8144 10.361l2.9125-2.9656-.7135-.7007-2.9125 2.9656.7135.7007zM17.942 9.9392l-2.9736 1.8335-.5249-.8512 2.9736-1.8335.5249.8512zM15.802 13.6727l2.825-1.4433-.455-.8905-2.825 1.4433.455.8905zM19.2494 14.7484l-2.8835.9575-.3152-.9491 2.8835-.9575.3152.9491zM19.5753 17.0112l-3.078.5124-.1642-.9864 3.078-.5124.1642.9864zM.4247 17.0112l3.078.5124.1642-.9864-3.078-.5124-.1642.9864zM3.6341 15.7059l-2.8835-.9575.3152-.9491 2.8835.9575-.3152.9491zM1.373 12.2294l2.825 1.4433.455-.8905-2.825-1.4433-.455.8905zM5.0316 11.7727L2.058 9.9392l.5249-.8512 2.9736 1.8335-.5248.8512zM3.2731 7.3954l2.9125 2.9656.7135-.7007-2.9125-2.9656-.7135.7007zM7.3632 9.2157L4.756 4.9796l.8516-.5241 2.6071 4.2361-.8516.5242zM6.7247 2.9275L8.406 8.505l.9574-.2887-1.6813-5.5776-.9574.2887z" />
  </g>
  <path d="M17.75 18c0-4.9618-3.6919-10.75-7.75-10.75v1.5c3.0521 0 6.25 5.0137 6.25 9.25h1.5z" fill="#333333" />
  <path fill-rule="evenodd" clip-rule="evenodd" d="M10 7.25c-4.0581 0-7.75 5.7882-7.75 10.75h1.5c0-4.2363 3.1979-9.25 6.25-9.25v-1.5z" fill="#1651B0" />
</svg>
