<svg xmlns="http://www.w3.org/2000/svg" viewBox="0 0 20 20">
  <g fill="#333333">
    <path d="M8.03 1.2083L11.876 3.5 8.03 6V1.2082z" />
    <path fill-rule="evenodd" clip-rule="evenodd" d="M3.737 12.701c.1085 1.5654 1.3334 2.502 3.259 2.502 1.134 0 2.215-.36 3.331-.847l.324.918c-1.134.559-2.538.937-3.799.937-3.259 0-4.285-2.16-4.285-3.781 0-2.305 1.692-4.104 4.015-4.104 2.215 0 3.673 1.386 3.673 3.619 0 .252-.018.504-.072.756H3.737zM6.6 9.333c1.351 0 2.521.954 2.521 2.358H3.737c.27-1.349 1.495-2.358 2.863-2.358z" />
    <path d="M19 3h-6v1h6V3zM13 6h6v1h-6V6zM19 9h-6v1h6V9zM13 12h6v1h-6v-1zM19 15h-6v1h6v-1z" />
  </g>
</svg>
