<svg xmlns="http://www.w3.org/2000/svg" viewBox="0 0 190 190">
  <path fill-rule="evenodd" clip-rule="evenodd" d="M71 17.8828L63 0l-8 17.8828h5.0376v16.8894H29v31.9162H18v-5.092L0 69.5443l18 7.9479v-4.7146h11v6.7016l15 14.9024h16V108.29h4V94.3816h19.5783l4.203 4.1756-3.4077 3.3858 18.3844 7.025-7.0706-18.2653-3.5722 3.5488L89 91.1566V49.6745L74 34.7722h-7.8333V17.8828H71zM36.1201 39.7396h23.9175V50.668H52v.0011h-4.8788L36.1201 39.7396zM74 50.668v.0011h8.5011L71.5 39.7396h-5.3333V50.668H74zm-26.0001 2.9816h12.0377v8.5095c-2.0647.8182-3.7058 2.4663-4.5056 4.5293h-7.5321L48 61.5964l-.0001-7.9468zM48 78.4857l-.0001 10.9284h30.5784L65.9977 76.9154c-.9258.372-1.9377.5768-2.9977.5768-3.2594 0-6.0635-1.9365-7.3103-4.7146h-7.6898L48 78.4857zm-3.0001-25.7091v13.9118H34V41.8483l10.9999 10.9283zm0 20.001H34v4.2179l10.9999 10.9282V72.7776zm25.3681-.1317L84 86.1891V53.6496H66.1667v8.5937C69.0099 63.4622 71 66.2723 71 69.5443c0 1.1004-.2251 2.1486-.632 3.1016zm75.017 14.7812H170l16.923 18.3709h-24.615l-16.923-18.3709zm18.461 22.9639v53.583h-50.769V190H190v-79.609h-26.154zm-23.077-21.433l18.462 19.902v47.459l-18.462-19.902V88.958zm-1.538 52.052l18.461 19.902h-46.154L93.0769 141.01H114v-6.889h4v6.889h21.231zM90 144.072l18.462 19.902V190L90 170.098v-26.026zm8-13.925v-3.974h20v3.974H98zm-38-3.974v3.974h20v-3.974H60zm0-12.915h4v7.948h-4v-7.948zm25 16.889v-3.974h8v3.974h-8z" fill="#EEEEEE" />
</svg>
