<svg xmlns="http://www.w3.org/2000/svg" viewBox="0 0 20 20">
  <g fill="#FFFFFF">
    <path fill-rule="evenodd" clip-rule="evenodd" d="M18.254 10.534c.1229.295.0048 1.4123-.647 1.6713-.6517.259-1.4844 0-1.4844 0l-1.5111-3.0221L12 11.7947V0l8 8h-2.9806c.1462.2805 1.0784 2.1592 1.2346 2.534zm-5.5531-8.842v8.4105l2.1026-2.1026 1.7522 3.5044s.474.1512.7009 0c.2269-.1513.4525-.4559.3505-.7009-.482-1.1567-1.7522-3.5044-1.7522-3.5044h2.453l-5.607-5.607z" />
    <path d="M5.5 10v3.5H2V12l-2 2 2 2v-1.5h3.5v4h-1L6 20l1.5-1.5h-1v-4H10V16l2-2-2-2v1.5H6.5V10H8L6 8l-2 2h1.5z" />
  </g>
</svg>
