<svg xmlns="http://www.w3.org/2000/svg" viewBox="0 0 203 195">
  <path d="M6.5134 177.023v-60.559c0-.5.325-1.969 1.4063-3.004l4.8081-4.956c.8868-.857 2.586-1.008 4.7826-.622l54.0295 15.57c1.6993.262 6.4996 3.716 6.4996 8.481v53.961c.056.712-.0576 2.336-.9605 3.134-.893.788-4.455 3.423-6.1801 4.683a9.1678 9.1678 0 01-.0563.042c-1.0912.78-2.7933 1.042-5.3541.34l-58.975-17.07z" fill="#EEF2F6" />
  <path fill-rule="evenodd" clip-rule="evenodd" d="M14.5983 107.479c.8429-.101 1.8431-.039 2.9554.157l.0131.002 54.0276 15.569c.4733.077 1.1194.362 1.8115.799.7063.446 1.4818 1.065 2.2026 1.826 1.4387 1.519 2.681 3.632 2.681 6.101v53.951c.0287.38.0124.984-.1268 1.6-.1395.618-.4102 1.282-.9182 1.731-.9038.798-4.4768 3.441-6.1967 4.697-.0198.015-.0397.03-.0598.044-1.1772.841-2.9677 1.091-5.5655.379l-.0035-.001-59.1556-17.123v-60.747c0-.288.0901-.812.3146-1.392.2255-.582.5938-1.241 1.1655-1.789l4.8105-4.959c.4964-.479 1.2024-.745 2.0443-.845zm-5.2302 4.847c.8665-.267 1.9481-.298 3.2861.064l4.3336-4.338c-.8859-.128-1.6695-.156-2.3302-.077-.7767.093-1.3628.331-1.7533.706l-3.5362 3.645zm8.2149-4.163l53.4769 15.41-4.4445 4.376-53.4115-15.402 4.3791-4.384zm-4.9242 4.747c-2.2866-.656-3.6999-.098-4.5663.731-.5075.485-.8413 1.077-1.0482 1.612-.2083.538-.2808.999-.2809 1.211v60.371l58.7912 17.017c.0005 0 .0011.001.0016.001 2.522.691 4.1349.415 5.14-.303.0003 0 .0006-.001.001-.001l.0522-.038c.0003 0 .0006 0 .0009-.001 1.0374-.774 1.4789-2.084 1.55-3.492v-54.046c0-1.774-.7699-3.438-1.8765-4.772-1.1066-1.333-2.5326-2.314-3.8106-2.731L12.6588 112.91zm54.4858 15.22c1.2724.505 2.6107 1.482 3.6639 2.751 1.0625 1.28 1.8495 2.875 1.9744 4.609l5.0055-3.683c-.0413-2.244-1.182-4.194-2.543-5.631-.6918-.731-1.4349-1.323-2.1065-1.747-.6094-.385-1.1432-.621-1.5172-.707l-4.4771 4.408zm10.6449 4.297l-4.9892 3.671v53.425l4.9892-3.754v-53.342zm.0091 53.961l-5.0053 3.766c-.0499.78-.2117 1.559-.5365 2.249 1.7813-1.316 3.9874-2.972 4.6568-3.563.3948-.348.6323-.894.7614-1.466.0787-.349.1141-.694.1236-.986z" fill="#769FCC" />
  <path d="M74.7355 164.73c-3.2691-.164-.8185-8.386 1.8233-7.653 2.0612.571.4899 7.769-1.8233 7.653z" fill="#EEF2F6" />
  <path fill-rule="evenodd" clip-rule="evenodd" d="M73.9431 164.146c.1942.193.454.317.805.334.4391.022.9009-.305 1.3294-.954.4192-.636.7587-1.512.9663-2.421.2078-.908.2783-1.826.1774-2.54-.104-.737-.3698-1.148-.7292-1.247-.5137-.143-1.0688.135-1.5991.781-.5219.636-.9604 1.565-1.2209 2.533-.2612.97-.3345 1.945-.1592 2.671.0871.361.2319.646.4303.843zm.5633-6.364c.57-.695 1.3119-1.17 2.1192-.946.6712.186.9819.889 1.0907 1.659.1119.793.0315 1.774-.185 2.722-.2167.948-.575 1.885-1.0365 2.584-.4524.686-1.0544 1.215-1.7718 1.179-.4663-.024-.8451-.194-1.1323-.479-.283-.281-.4624-.659-.564-1.081-.2022-.838-.1106-1.904.1624-2.918.2737-1.017.7389-2.016 1.3173-2.72z" fill="#769FCC" />
  <path d="M131.033 69.5918V9.0324c0-.4992.325-1.969 1.407-3.0034l4.808-4.9562c.886-.8565 2.586-1.0084 4.782-.6216l54.03 15.5692c1.699.2625 6.499 3.7162 6.499 8.4811v53.9614c.056.7124-.057 2.3364-.96 3.1335-.893.7885-4.455 3.4239-6.18 4.6839a6.7815 6.7815 0 01-.057.0412c-1.091.78-2.793 1.0427-5.354.3408l-58.975-17.0705z" fill="#EEF2F6" />
  <path fill-rule="evenodd" clip-rule="evenodd" d="M139.118.0475c.843-.1006 1.843-.0384 2.956.1575l.013.0023 54.027 15.5687c.474.0772 1.12.3618 1.812.7989.706.4461 1.482 1.0646 2.202 1.8258 1.439 1.5195 2.681 3.6326 2.681 6.1008v53.9518c.029.3791.013.9833-.127 1.5996-.139.6178-.41 1.2824-.918 1.7309-.904.7981-4.477 3.4411-6.196 4.6974-.02.0147-.04.0292-.06.0436-1.177.8415-2.968 1.0906-5.566.3786l-.003-.0009-59.156-17.1229V9.0324c0-.288.09-.8112.315-1.3912.225-.5826.594-1.2414 1.165-1.7896L137.074.893c.496-.4794 1.202-.7449 2.044-.8454zm-5.23 4.8475c.866-.2674 1.948-.2977 3.286.0638l4.334-4.3382c-.886-.1274-1.67-.1555-2.331-.0766-.776.0927-1.362.3304-1.753.706l-3.536 3.645zm8.215-4.1627l53.477 15.41-4.445 4.3759-53.411-15.4023 4.379-4.3836zm-4.924 4.7468c-2.287-.6565-3.7-.0983-4.567.7306-.507.4856-.841 1.0774-1.048 1.612-.208.5382-.281.9994-.281 1.2107v60.3715l58.791 17.0173.002.0004c2.522.691 4.135.4151 5.14-.3028 0-.0003.001-.0005.001-.0007l.052-.0382c.001-.0002.001-.0004.001-.0007 1.037-.7741 1.479-2.0841 1.55-3.4926V28.5407c0-1.7739-.77-3.4382-1.876-4.7715-1.107-1.3333-2.533-2.3142-3.811-2.7312L137.179 5.4791zm54.485 15.2197c1.273.5052 2.611 1.482 3.664 2.751 1.063 1.2801 1.85 2.8753 1.975 4.6094l5.005-3.6833c-.041-2.2438-1.182-4.194-2.543-5.6315-.692-.7306-1.435-1.3226-2.106-1.7468-.61-.3848-1.144-.621-1.518-.7068l-4.477 4.408zm10.645 4.2971l-4.989 3.6712V82.092l4.989-3.7538V24.9959zm.009 53.9611l-5.005 3.7659c-.05.7804-.212 1.5593-.536 2.2491 1.781-1.3164 3.987-2.9719 4.656-3.563.395-.3486.633-.8946.762-1.4662.078-.3486.114-.6939.123-.9858z" fill="#769FCC" />
  <path d="M199.29 56.3337c-2.842-.1428-.712-7.2902 1.585-6.6534 1.792.4969.426 6.7544-1.585 6.6534z" fill="#EEF2F6" />
  <path fill-rule="evenodd" clip-rule="evenodd" d="M198.624 55.8032c.163.1617.381.2658.678.2807.364.0183.756-.253 1.127-.8151.362-.5482.656-1.3062.836-2.0934.18-.7877.24-1.5812.153-2.1968-.09-.6383-.318-.9765-.61-1.0575-.427-.1185-.898.11-1.356.6685-.45.5484-.83 1.3518-1.055 2.1899-.227.8406-.289 1.6818-.139 2.3061.075.3101.199.5518.366.7176zm.441-5.5308c.498-.6069 1.156-1.033 1.877-.8331.603.1674.877.7977.971 1.4693.098.6942.028 1.552-.161 2.3782-.189.8266-.502 1.6451-.906 2.2574-.394.5983-.927 1.0713-1.569 1.0391-.413-.0208-.75-.1713-1.006-.4253-.251-.2499-.409-.585-.499-.9552-.177-.7361-.096-1.6687.142-2.5533.239-.8869.645-1.7599 1.151-2.3771z" fill="#769FCC" />
  <path d="M39.3689 124.363c-33.124-6.104-30.5933 25.234-26.3349 33.335l18.557 21.566c.8356.526 10.3716 6 21.3258 3.978 26.4995-6.327 18.1626-48.681-13.5479-58.879z" fill="#EEF2F6" />
  <path fill-rule="evenodd" clip-rule="evenodd" d="M13.2421 157.557l18.5135 21.514c1.004.62 10.376 5.905 21.1095 3.927 6.5503-1.566 10.9338-5.351 13.3489-10.3 2.4194-4.959 2.8721-11.105 1.5132-17.391-2.7172-12.569-12.664-25.628-28.4195-30.701-8.2377-1.516-14.2256-.699-18.5137 1.474-4.2873 2.172-6.906 5.715-8.3764 9.71-1.4719 3.999-1.7907 8.447-1.4742 12.404.3155 3.943 1.2598 7.373 2.2987 9.363zm7.3259-31.923c4.4177-2.238 10.53-3.05 18.8462-1.517l.0158.003.0154.005c15.9461 5.128 26.0174 18.341 28.7706 31.076 1.3767 6.369.9269 12.634-1.5526 17.716-2.483 5.088-6.9926 8.97-13.6886 10.569l-.0126.003c-11.0484 2.039-20.6526-3.478-21.5044-4.014l-.0318-.02-18.6001-21.615-.0132-.025c-1.0851-2.065-2.0474-5.578-2.3677-9.582-.3205-4.006-.0002-8.531 1.5034-12.616 1.5051-4.089 4.1984-7.743 8.6196-9.983z" fill="#769FCC" />
  <path d="M17.8396 156.538c-.3905-1.708.7926-4.492 3.149-6.5 1.8731-2.11 4.6832-3.634 7.3737-3.634 9.2673-.748 23.1681 15.246 13.3731 24.923-1.6593 2.169-4.5302 3.498-9.0084 3.177l-14.8874-17.966z" fill="#EEF2F6" />
  <path fill-rule="evenodd" clip-rule="evenodd" d="M35.6057 148.833c-2.4265-1.528-4.9789-2.361-7.2233-2.18l-.01.001h-.0101c-1.6003 0-3.2549.559-4.7191 1.472 1.2318-.506 2.6277-.799 4.161-.765 2.8631.064 6.1787 1.265 9.7771 4.292 2.5739 2.165 4.7304 5.707 5.7146 9.4.7304 2.741.8221 5.597-.0684 8.047 1.175-1.845 1.6538-3.837 1.6039-5.849-.0691-2.789-1.1562-5.627-2.8422-8.156-1.6854-2.529-3.9604-4.735-6.3835-6.262zm6.3177 22.66c2.4904-2.467 3.48-5.343 3.4079-8.254-.0721-2.908-1.2028-5.836-2.926-8.422-1.7238-2.586-4.0495-4.842-6.5331-6.407-2.4768-1.56-5.1333-2.446-7.5199-2.256-2.7694.003-5.6326 1.564-7.539 3.705-1.1983 1.024-2.1008 2.246-2.6558 3.436-.5541 1.187-.774 2.37-.5616 3.298l.0132.058 14.9935 18.095.1065.008c4.5288.324 7.4892-1.016 9.2143-3.261zm-14.1303-23.632c-2.7251-.06-4.9922.961-6.6423 2.367-1.1515.981-2.0142 2.151-2.5402 3.278-.5161 1.106-.6967 2.146-.5395 2.919l14.78 17.837c4.3568.289 7.1036-1.018 8.6858-3.086 2.0402-2.667 2.238-6.383 1.2758-9.994-.9614-3.608-3.068-7.056-5.5532-9.146-3.532-2.971-6.7416-4.114-9.4664-4.175z" fill="#769FCC" />
  <path d="M23.7585 158.212l3.99-3.503c10.1728 1.005 8.8049 8.136 8.8049 9.81l-3.9162 3.648-8.8787-9.955z" fill="#EEF2F6" />
  <path fill-rule="evenodd" clip-rule="evenodd" d="M27.6651 154.449l.108.011c5.1533.509 7.4472 2.583 8.4216 4.803.7957 1.813.6892 3.699.6305 4.737-.0119.211-.0218.386-.0218.52v.108l-4.1827 3.896-9.2164-10.334 4.2608-3.741zm.1666.519l-3.7188 3.265 8.5409 9.577 3.6511-3.401c.0033-.136.012-.296.0217-.475.0571-1.055.1509-2.783-.5898-4.47-.8785-2.002-2.9631-3.982-7.9051-4.496z" fill="#769FCC" />
  <path d="M15.3526 155.839l17.1403 5.013v17.361l-9.89 8.543c-1.134 1.226-2.1525.935-3.2146.876l-3.7149-1.033c-1.3155 0-2.46-2.637-2.46-6.58l-4.5049 3.764c-1.2875.389-1.9808.253-2.328.179-1.7-.363-6.4098-1.087-6.1035-6.103-.2506-3.902 1.2265-8.445 5.1034-13.373l9.9722-8.647z" fill="#EEF2F6" />
  <path fill-rule="evenodd" clip-rule="evenodd" d="M15.2919 155.561l17.451 5.104v17.663l-9.9661 8.608c-.6012.646-1.1881.906-1.7739.987-.4177.058-.8422.022-1.2358-.012-.135-.011-.2664-.023-.3926-.03l-.027-.001-3.7101-1.031c-.4046-.012-.7716-.221-1.0849-.552-.3218-.34-.6029-.824-.8352-1.418-.4234-1.083-.7006-2.57-.747-4.331l-4.1406 3.459-.0488.015c-1.3366.404-2.0738.265-2.4525.184-.0775-.016-.162-.034-.2528-.052-.887-.183-2.3649-.487-3.6327-1.287-.7035-.444-1.3503-1.046-1.8-1.87-.4484-.822-.6925-1.85-.6163-3.138-.2508-3.976 1.2594-8.572 5.1574-13.527l.0147-.019 10.0932-8.752zm-1.8285 24.466c.0007 1.947.2841 3.556.7195 4.67.2183.558.47.979.7327 1.257.2621.277.5189.395.7578.395h.0341l2.8142.782c-.3834-.546-.6631-1.288-.8445-2.143-.2857-1.346-.3413-3.031-.1345-4.84.4001-3.502 1.7894-7.512 4.4637-10.455l-3.5178-1.248c-.2275.142-.6987.455-1.1062 1.013-.7709 1.057-1.6964 2.774-2.4576 4.698-.7603 1.922-1.3485 4.029-1.4614 5.871zm5.4801-11.951l3.452 1.225 9.5881-8.337-16.5702-4.846-9.5335 8.266 3.6382 1.169 7.603-6.564 9.0365 2.728-7.2141 6.359zm-9.8655-2.14l-3.6081-1.158c-3.7706 4.841-5.1867 9.277-4.9434 13.065l.001.015-.001.016c-.074 1.213.1556 2.151.5554 2.884.4004.734.9799 1.277 1.628 1.686 1.0144.641 2.1774.943 3.0514 1.133-1.9994-2.833-1.643-6.815-.5683-10.264.5765-1.85 1.367-3.572 2.142-4.926.3875-.677.7727-1.264 1.1273-1.731.2147-.283.4222-.526.6157-.72zm-2.5631 17.798c.3362.068.9635.152 2.0728-.176l4.3832-3.662c.132-1.889.7316-4.01 1.489-5.924.7566-1.912 1.6785-3.639 2.4705-4.742v-9.415l-7.2 6.215-.0087.006c-.223.161-.5193.472-.8613.923-.339.446-.7124 1.014-1.0915 1.676-.7585 1.325-1.5337 3.014-2.0985 4.827-1.1275 3.618-1.3885 7.631.8445 10.272zm10.9155-24.129v9.036c.3665-.36.7076-.568.8474-.653.0119-.007.0224-.014.0313-.019l6.8438-6.033-7.7225-2.331zm14.8125 1.796l-9.6209 8.365c-2.7449 2.864-4.1785 6.903-4.5826 10.439-.2021 1.768-.1451 3.398.1269 4.68.2677 1.26.7306 2.126 1.3007 2.501.1356.008.2656.02.3918.03.3755.032.7177.061 1.0757.012.4693-.065.9554-.269 1.4849-.842l.0095-.01 9.814-8.477v-16.698z" fill="#769FCC" />
  <path d="M8.8888 179.252c-4.0055-.616-.5954-10.266 2.2574-9.475 2.5519.707-.2555 9.783-2.2574 9.475z" fill="#EEF2F6" />
  <path fill-rule="evenodd" clip-rule="evenodd" d="M7.906 178.47c.2442.276.5755.466 1.0208.535.149.023.3408-.036.5781-.235.2347-.196.4821-.503.7272-.9.4891-.793.9398-1.897 1.2519-3.041.3125-1.144.4799-2.306.4181-3.213-.0309-.454-.1182-.828-.2601-1.101-.139-.268-.3247-.431-.5626-.497-.559-.155-1.2127.188-1.8594.977-.6323.772-1.1875 1.891-1.5347 3.063-.3479 1.174-.4776 2.369-.2898 3.292.0935.46.263.84.5104 1.12zm3.3069-8.934l-.0668.241.0668-.241c.4001.111.6849.386.873.748.1853.358.2816.807.3151 1.298.067.984-.1141 2.205-.4347 3.379-.3209 1.176-.788 2.327-1.3086 3.171-.2597.421-.5401.778-.8322 1.022-.2894.242-.6231.399-.9747.345-.556-.085-.9944-.331-1.3192-.698-.3215-.363-.5205-.832-.626-1.351-.2103-1.034-.0602-2.318.3003-3.534.3613-1.219.9432-2.403 1.6274-3.238.6699-.817 1.5122-1.383 2.3796-1.142z" fill="#769FCC" />
  <path d="M21.7799 182.98c-4.0055-.616-.5954-10.266 2.2574-9.475 2.552.707-.2555 9.783-2.2574 9.475z" fill="#EEF2F6" />
  <path fill-rule="evenodd" clip-rule="evenodd" d="M20.7971 182.198c.2442.276.5755.467 1.0209.535.1488.023.3407-.036.578-.234.2347-.197.4821-.504.7272-.901.4891-.793.9398-1.897 1.2519-3.041.3125-1.144.48-2.305.4182-3.213-.031-.454-.1183-.828-.2601-1.101-.139-.268-.3248-.431-.5627-.497-.5589-.155-1.2127.189-1.8594.977-.6323.772-1.1875 1.891-1.5347 3.063-.3479 1.174-.4776 2.369-.2898 3.293.0935.459.2629.839.5105 1.119zm3.307-8.934l-.0668.241.0668-.241c.4.111.6848.386.8729.749.1853.357.2816.806.3151 1.297.067.984-.114 2.205-.4346 3.379-.321 1.176-.788 2.327-1.3087 3.171-.2597.421-.5401.778-.8322 1.022-.2894.242-.6231.399-.9747.345-.556-.085-.9944-.331-1.3192-.698-.3215-.363-.5205-.832-.626-1.351-.2103-1.034-.0602-2.318.3003-3.534.3613-1.219.9432-2.403 1.6274-3.237.6699-.818 1.5122-1.384 2.3797-1.143z" fill="#769FCC" />
  <path d="M138.553 19.8904L32.0435 112.062l39.389 11.352c3.0231.607 6.8168 5.216 6.7048 8.684v35.945L188.468 72.4447c11.393-12.5875 9.096-32.3416-6.156-47.4098-11.118-11.6688-31.974-17.549-43.759-5.1445z" fill="#EEF2F6" />
  <path fill-rule="evenodd" clip-rule="evenodd" d="M160.64 13.6816c-8.018-1.3681-16.086.2547-21.906 6.3811l-.009.0088L32.5556 111.95l38.9365 11.221c1.5924.324 3.3387 1.678 4.6647 3.357 1.3293 1.683 2.2877 3.757 2.2306 5.574v35.393L188.293 72.2657c11.263-12.4573 9.029-32.0502-6.157-47.053l-.005-.0053c-5.523-5.7968-13.469-10.1571-21.491-11.5258zm21.85 11.1781c-5.594-5.8706-13.635-10.2837-21.765-11.671-8.132-1.3874-16.381.2498-22.345 6.5207L31.5314 112.175l39.8418 11.482.0101.002c1.4279.287 3.0853 1.538 4.3811 3.179 1.2944 1.639 2.1764 3.601 2.1231 5.252l-.0001 36.5L188.643 72.6238l.01-.0113c11.511-12.7175 9.148-32.624-6.163-47.7528z" fill="#769FCC" />
  <path d="M136.192 9.0106L21.0746 108.697l4.3052 1.382L138.815 11.8262c0-1.1161-.187-3.1684-2.623-2.8156z" fill="#EEF2F6" />
  <path fill-rule="evenodd" clip-rule="evenodd" d="M136.299 9.2483L21.5744 108.595l3.748 1.203L138.564 11.7126c-.007-.5391-.07-1.2106-.364-1.72-.153-.266-.368-.484-.672-.6194-.294-.1308-.69-.1932-1.229-.125zm2.334.4943c.388.671.432 1.5233.432 2.0836v.1142L25.4372 110.36l-4.8625-1.56L136.083 8.7736l.073-.0105c.643-.093 1.161-.0308 1.575.1532.416.185.705.4838.902.8263z" fill="#769FCC" />
  <path d="M193.452 76.0271L78.1223 175.864v5.057L196.075 78.8427c0-1.061-.815-2.7062-2.623-2.8156z" fill="#EEF2F6" />
  <path fill-rule="evenodd" clip-rule="evenodd" d="M193.366 75.7715l.101.0061c.986.0597 1.705.5407 2.173 1.1479.463.6008.685 1.3308.685 1.9173v.1143L77.8723 181.469v-5.719L193.366 75.7715zm.171.5131L78.3723 175.978v4.397L195.822 78.7314c-.026-.4579-.212-1.0256-.578-1.5007-.376-.4872-.936-.8716-1.707-.9461z" fill="#769FCC" />
  <path d="M190.217 24.6216L74.5317 124.961c.6713.757 2.092 2.391 2.4054 2.874L192.84 27.4373c0-1.1161-.186-3.1684-2.623-2.8157z" fill="#EEF2F6" />
  <path fill-rule="evenodd" clip-rule="evenodd" d="M190.325 24.8593L74.8863 124.984c.329.374.7669.876 1.173 1.355.36.424.7036.839.9216 1.128L192.59 27.3237c-.008-.5391-.07-1.2106-.364-1.7201-.154-.2659-.368-.4839-.673-.6194-.293-.1307-.69-.1931-1.228-.1249zm2.334.4944c.387.671.431 1.5233.431 2.0836v.1142L76.8837 128.212l-.1563-.241c-.1459-.225-.5671-.741-1.0493-1.309a97.456 97.456 0 00-1.3333-1.535l-.1678-.189L190.109 24.3847l.072-.0105c.644-.0931 1.162-.0308 1.576.1532.415.185.704.4837.902.8263z" fill="#769FCC" />
  <path d="M13.2392 123.191l-2.8027.833-3.1056-2.575v-3.238l1.3824-1.364 2.5943-.568 3.1435 2.348v3.617l-1.2119.947z" fill="#EEF2F6" />
  <path fill-rule="evenodd" clip-rule="evenodd" d="M11.3657 116.01l3.3354 2.492v3.864l-1.3453 1.051-2.9761.885-3.2988-2.736v-3.46l1.5083-1.488 2.7765-.608zm-2.5283 1.066l-.641.632 2.0968-.588.3636-.442-1.8194.398zm2.5119-.454l-.5586.68 2.4501 1.954.7985-.624-2.69-2.01zm2.8518 2.518l-.7119.556v2.982l.7119-.556v-2.982zm-1.2119 3.865v-3.31l-2.6085-2.08-2.7998.785v2.931l2.9124 2.416 2.4959-.742z" fill="#769FCC" />
  <path d="M10.1899 122.171c1.9795.549 1.9289-2.631 0-3.258-1.9288-.626-1.9794 2.71 0 3.258z" fill="#EEF2F6" />
  <path fill-rule="evenodd" clip-rule="evenodd" d="M8.9743 120.104c-.0057.745.431 1.591 1.2824 1.827.4308.119.7018.027.8676-.13.1773-.169.2841-.457.2813-.816-.0057-.721-.4521-1.56-1.2929-1.834-.4132-.134-.6768-.047-.8425.111-.18.171-.293.472-.2959.842zm-.0488-1.204c.3244-.309.7905-.403 1.3417-.224 1.088.353 1.6314 1.417 1.6383 2.305.0036.447-.1276.889-.4373 1.182-.3211.305-.7861.404-1.345.249-1.1282-.312-1.6558-1.409-1.6489-2.312.0035-.454.1411-.905.4512-1.2z" fill="#769FCC" />
  <path d="M67.2854 138.788l-2.8026.834-3.1056-2.576v-3.238l1.3824-1.363 2.5943-.569 3.1435 2.349v3.617l-1.212.946z" fill="#EEF2F6" />
  <path fill-rule="evenodd" clip-rule="evenodd" d="M65.412 131.608l3.3354 2.491v3.864l-1.3453 1.051-2.9761.885-3.2988-2.735v-3.461l1.5083-1.487 2.7765-.608zm-2.5283 1.065l-.6411.633 2.0969-.589.3635-.442-1.8193.398zm2.5118-.453l-.5585.68 2.45 1.953.7986-.624-2.6901-2.009zm2.8519 2.517l-.712.556v2.983l.712-.556v-2.983zm-1.212 3.865v-3.31l-2.6084-2.08-2.7998.785v2.932l2.9124 2.415 2.4958-.742z" fill="#769FCC" />
  <path d="M64.2362 137.769c1.9795.548 1.9289-2.631 0-3.258-1.9289-.627-1.9795 2.709 0 3.258z" fill="#EEF2F6" />
  <path fill-rule="evenodd" clip-rule="evenodd" d="M63.0206 135.701c-.0058.745.4311 1.591 1.2823 1.827.4308.119.7018.027.8677-.13.1773-.168.284-.457.2812-.815-.0056-.722-.452-1.561-1.2929-1.834-.4132-.135-.6767-.047-.8425.11-.18.172-.293.472-.2958.842zm-.0488-1.204c.3244-.309.7904-.403 1.3417-.224 1.088.354 1.6313 1.417 1.6383 2.306.0035.446-.1276.888-.4373 1.182-.3211.304-.7861.404-1.3451.249-1.1281-.313-1.6558-1.409-1.6488-2.313.0035-.454.1411-.905.4512-1.2z" fill="#769FCC" />
  <path d="M67.2854 192.889l-2.8026.833-3.1056-2.575v-3.239l1.3824-1.363 2.5943-.568 3.1435 2.348v3.617l-1.212.947z" fill="#EEF2F6" />
  <path fill-rule="evenodd" clip-rule="evenodd" d="M65.412 185.708l3.3354 2.492v3.864l-1.3453 1.051-2.9761.885-3.2988-2.736v-3.46l1.5083-1.488 2.7765-.608zm-2.5283 1.066l-.6411.632 2.0969-.588.3635-.443-1.8193.399zm2.5118-.454l-.5585.68 2.45 1.953.7986-.624-2.6901-2.009zm2.8519 2.517l-.712.557v2.982l.712-.556v-2.983zm-1.212 3.865v-3.31l-2.6084-2.079-2.7998.785v2.931l2.9124 2.415 2.4958-.742z" fill="#769FCC" />
  <path d="M64.2362 191.869c1.9795.549 1.9289-2.631 0-3.258-1.9289-.627-1.9795 2.71 0 3.258z" fill="#EEF2F6" />
  <path fill-rule="evenodd" clip-rule="evenodd" d="M63.0206 189.801c-.0058.745.4311 1.591 1.2823 1.827.4308.12.7018.027.8677-.13.1773-.168.284-.457.2812-.815-.0056-.721-.452-1.561-1.2929-1.834-.4132-.134-.6767-.047-.8425.111-.18.171-.293.471-.2958.841zm-.0488-1.204c.3244-.308.7904-.403 1.3417-.224 1.088.354 1.6313 1.418 1.6383 2.306.0035.446-.1276.889-.4373 1.182-.3211.304-.7861.404-1.3451.249-1.1281-.313-1.6558-1.409-1.6488-2.313.0035-.454.1411-.904.4512-1.2z" fill="#769FCC" />
</svg>
