<svg xmlns="http://www.w3.org/2000/svg" viewBox="0 0 203 195">
  <path d="M6.5818 177.023v-60.559c0-.5.325-1.969 1.4063-3.004l4.808-4.956c.8869-.857 2.5861-1.008 4.7826-.622l54.0296 15.57c1.6992.262 6.4996 3.716 6.4996 8.481v53.961c.056.712-.0577 2.336-.9605 3.134-.893.788-4.455 3.423-6.1802 4.683a6.8758 6.8758 0 01-.0563.042c-1.0912.78-2.7932 1.042-5.354.34l-58.9751-17.07z" fill="#fff" />
  <path fill-rule="evenodd" clip-rule="evenodd" d="M14.6667 107.479c.8429-.101 1.8431-.039 2.9554.157l.0131.002 54.0276 15.569c.4733.077 1.1193.362 1.8114.799.7064.446 1.4819 1.065 2.2026 1.826 1.4387 1.519 2.6811 3.632 2.6811 6.101v53.951c.0287.38.0123.984-.1268 1.6-.1395.618-.4102 1.282-.9182 1.731-.9039.798-4.4768 3.441-6.1968 4.697-.0197.015-.0397.03-.0598.044-1.1771.841-2.9677 1.091-5.5655.379l-.0034-.001-59.1556-17.123v-60.747c0-.288.09-.812.3145-1.392.2255-.582.5938-1.241 1.1655-1.789l4.8106-4.959c.4963-.479 1.2024-.745 2.0443-.845zm-5.2302 4.847c.8664-.267 1.9481-.298 3.286.064l4.3337-4.338c-.8859-.128-1.6695-.156-2.3303-.077-.7767.093-1.3628.331-1.7533.706l-3.5361 3.645zm8.2148-4.163l53.4769 15.41-4.4444 4.376-53.4115-15.402 4.379-4.384zm-4.9242 4.747c-2.2865-.656-3.6998-.098-4.5662.731-.5076.485-.8414 1.077-1.0483 1.612-.2083.538-.2808.999-.2808 1.211v60.371l58.7912 17.017c.0005 0 .001.001.0015.001 2.5221.691 4.135.415 5.1401-.303.0003 0 .0006-.001.0009-.001l.0523-.038c.0003 0 .0006 0 .0009-.001 1.0373-.774 1.4788-2.084 1.55-3.492v-54.046c0-1.774-.7699-3.438-1.8765-4.772-1.1066-1.333-2.5327-2.314-3.8106-2.731L12.7271 112.91zm54.4859 15.22c1.2724.505 2.6106 1.482 3.6639 2.751 1.0624 1.28 1.8494 2.875 1.9744 4.609l5.0054-3.683c-.0412-2.244-1.182-4.194-2.5429-5.631-.6918-.731-1.435-1.323-2.1066-1.747-.6094-.385-1.1431-.621-1.5171-.707l-4.4771 4.408zm10.6449 4.297l-4.9892 3.671v53.425l4.9892-3.754v-53.342zm.0091 53.961l-5.0053 3.766c-.0499.78-.2117 1.559-.5365 2.249 1.7813-1.316 3.9873-2.972 4.6567-3.563.3949-.348.6324-.894.7614-1.466.0788-.349.1142-.694.1237-.986z" fill="#666" />
  <path d="M74.8039 164.73c-3.2692-.164-.8185-8.386 1.8232-7.653 2.0612.571.49 7.769-1.8232 7.653z" fill="#fff" />
  <path fill-rule="evenodd" clip-rule="evenodd" d="M74.0114 164.146c.1943.193.454.317.805.334.4392.022.901-.305 1.3294-.954.4193-.636.7587-1.512.9664-2.421.2077-.908.2782-1.826.1774-2.54-.1041-.737-.3699-1.148-.7293-1.247-.5136-.143-1.0687.135-1.599.781-.522.636-.9604 1.565-1.221 2.533-.2612.97-.3344 1.945-.1592 2.671.0871.361.2319.646.4303.843zm.5634-6.364c.57-.695 1.3119-1.17 2.1191-.946.6712.186.982.889 1.0907 1.659.112.793.0316 1.774-.185 2.722-.2166.948-.5749 1.885-1.0364 2.584-.4524.686-1.0544 1.215-1.7719 1.179-.4663-.024-.845-.194-1.1322-.479-.283-.281-.4624-.659-.564-1.081-.2022-.838-.1106-1.904.1624-2.918.2737-1.017.7389-2.016 1.3173-2.72z" fill="#666" />
  <path d="M131.102 69.5918V9.0324c0-.4992.325-1.969 1.406-3.0034l4.808-4.9562c.887-.8565 2.586-1.0084 4.783-.6216l54.029 15.5692c1.699.2625 6.5 3.7162 6.5 8.4811v53.9614c.056.7124-.058 2.3364-.961 3.1335-.893.7885-4.455 3.4239-6.18 4.6839-.019.0139-.037.0276-.056.0412-1.091.78-2.794 1.0427-5.354.3408l-58.975-17.0705z" fill="#fff" />
  <path fill-rule="evenodd" clip-rule="evenodd" d="M139.186.0475c.843-.1006 1.844-.0384 2.956.1575l.013.0023 54.028 15.5687c.473.0772 1.119.3618 1.811.7989.706.4461 1.482 1.0646 2.203 1.8258 1.438 1.5195 2.681 3.6326 2.681 6.1008v53.9518c.028.3791.012.9833-.127 1.5996-.14.6178-.41 1.2824-.918 1.7309-.904.7981-4.477 3.4411-6.197 4.6974-.02.0147-.04.0292-.06.0436-1.177.8415-2.968 1.0906-5.565.3786l-.004-.0009-59.155-17.1229V9.0324c0-.288.09-.8112.314-1.3912.226-.5826.594-1.2414 1.166-1.7896l4.81-4.9587c.496-.4794 1.203-.7449 2.044-.8454zm-5.23 4.8475c.867-.2674 1.948-.2977 3.286.0638l4.334-4.3382c-.886-.1274-1.67-.1555-2.33-.0766-.777.0927-1.363.3304-1.754.706l-3.536 3.645zm8.215-4.1627l53.477 15.41-4.444 4.3759-53.412-15.4023 4.379-4.3836zm-4.924 4.7468c-2.287-.6565-3.7-.0983-4.566.7306-.508.4856-.842 1.0774-1.049 1.612-.208.5382-.28.9994-.28 1.2107v60.3715l58.791 17.0173.001.0004c2.522.691 4.135.4151 5.14-.3028.001-.0003.001-.0005.001-.0007l.053-.0382v-.0007c1.038-.7741 1.479-2.0841 1.55-3.4926V28.5407c0-1.7739-.769-3.4382-1.876-4.7715-1.107-1.3333-2.533-2.3142-3.811-2.7312L137.247 5.4791zm54.486 15.2197c1.272.5052 2.61 1.482 3.664 2.751 1.062 1.2801 1.849 2.8753 1.974 4.6094l5.005-3.6833c-.041-2.2438-1.182-4.194-2.542-5.6315-.692-.7306-1.435-1.3226-2.107-1.7468-.609-.3848-1.143-.621-1.517-.7068l-4.477 4.408zm10.645 4.2971l-4.99 3.6712V82.092l4.99-3.7538V24.9959zm.009 53.9611l-5.006 3.7659c-.049.7804-.211 1.5593-.536 2.2491 1.781-1.3164 3.987-2.9719 4.657-3.563.395-.3486.632-.8946.761-1.4662.079-.3486.114-.6939.124-.9858z" fill="#666" />
  <path d="M199.358 56.3337c-2.842-.1428-.712-7.2902 1.585-6.6534 1.792.4969.426 6.7544-1.585 6.6534z" fill="#fff" />
  <path fill-rule="evenodd" clip-rule="evenodd" d="M198.692 55.8032c.163.1617.381.2658.679.2807.363.0183.756-.253 1.126-.8151.362-.5482.656-1.3062.836-2.0934.18-.7877.241-1.5812.154-2.1968-.09-.6383-.319-.9765-.611-1.0575-.427-.1185-.897.11-1.356.6685-.45.5484-.829 1.3518-1.055 2.1899-.226.8406-.289 1.6818-.138 2.3061.075.3101.198.5518.365.7176zm.442-5.5308c.498-.6069 1.155-1.033 1.876-.8331.604.1674.877.7977.972 1.4693.098.6942.027 1.552-.162 2.3782-.189.8266-.501 1.6451-.905 2.2574-.395.5983-.928 1.0713-1.569 1.0391-.413-.0208-.75-.1713-1.006-.4253-.252-.2499-.41-.585-.499-.9552-.178-.7361-.097-1.6687.141-2.5533.239-.8869.645-1.7599 1.152-2.3771z" fill="#666" />
  <path d="M39.4372 124.363c-33.124-6.104-30.5932 25.234-26.3349 33.335l18.5571 21.566c.8356.526 10.3716 6 21.3257 3.978 26.4996-6.327 18.1627-48.681-13.5479-58.879z" fill="#fff" />
  <path fill-rule="evenodd" clip-rule="evenodd" d="M13.3105 157.557l18.5134 21.514c1.0041.62 10.3761 5.905 21.1095 3.927 6.5503-1.566 10.9338-5.351 13.349-10.3 2.4194-4.959 2.8721-11.105 1.5132-17.391-2.7172-12.569-12.6641-25.628-28.4196-30.701-8.2376-1.516-14.2256-.699-18.5137 1.474-4.2873 2.172-6.9059 5.715-8.3763 9.71-1.4719 3.999-1.7907 8.447-1.4742 12.404.3155 3.943 1.2598 7.373 2.2987 9.363zm7.3259-31.923c4.4177-2.238 10.53-3.05 18.8461-1.517l.0159.003.0154.005c15.9461 5.128 26.0174 18.341 28.7705 31.076 1.3768 6.369.9269 12.634-1.5526 17.716-2.4829 5.088-6.9925 8.97-13.6885 10.569l-.0126.003c-11.0485 2.039-20.6527-3.478-21.5044-4.014l-.0318-.02-18.6001-21.615-.0133-.025c-1.0851-2.065-2.0474-5.578-2.3676-9.582-.3205-4.006-.0002-8.531 1.5034-12.616 1.5051-4.089 4.1983-7.743 8.6196-9.983z" fill="#666" />
  <path d="M17.9079 156.538c-.3904-1.708.7927-4.492 3.1491-6.5 1.8731-2.11 4.6832-3.634 7.3737-3.634 9.2672-.748 23.1681 15.246 13.3731 24.923-1.6593 2.169-4.5303 3.498-9.0085 3.177l-14.8874-17.966z" fill="#fff" />
  <path fill-rule="evenodd" clip-rule="evenodd" d="M35.674 148.833c-2.4264-1.528-4.9788-2.361-7.2232-2.18l-.01.001h-.0101c-1.6004 0-3.2549.559-4.7191 1.472 1.2318-.506 2.6276-.799 4.161-.765 2.8631.064 6.1786 1.265 9.7771 4.292 2.5738 2.165 4.7303 5.707 5.7145 9.4.7304 2.741.8222 5.597-.0684 8.047 1.1751-1.845 1.6538-3.837 1.604-5.849-.0691-2.789-1.1562-5.627-2.8422-8.156-1.6855-2.529-3.9605-4.735-6.3836-6.262zm6.3178 22.66c2.4904-2.467 3.48-5.343 3.4079-8.254-.0721-2.908-1.2028-5.836-2.9261-8.422-1.7238-2.586-4.0494-4.842-6.5331-6.407-2.4768-1.56-5.1332-2.446-7.5199-2.256-2.7693.003-5.6326 1.564-7.539 3.705-1.1982 1.024-2.1008 2.246-2.6557 3.436-.5542 1.187-.774 2.37-.5617 3.298l.0133.058 14.9935 18.095.1065.008c4.5287.324 7.4892-1.016 9.2143-3.261zm-14.1303-23.632c-2.7251-.06-4.9922.961-6.6423 2.367-1.1516.981-2.0142 2.151-2.5402 3.278-.5162 1.106-.6967 2.146-.5396 2.919l14.7801 17.837c4.3567.289 7.1036-1.018 8.6857-3.086 2.0403-2.667 2.238-6.383 1.2759-9.994-.9614-3.608-3.0681-7.056-5.5533-9.146-3.5319-2.971-6.7415-4.114-9.4663-4.175z" fill="#666" />
  <path d="M23.8269 158.212l3.99-3.503c10.1727 1.005 8.8048 8.136 8.8048 9.81l-3.9161 3.648-8.8787-9.955z" fill="#fff" />
  <path fill-rule="evenodd" clip-rule="evenodd" d="M27.7335 154.449l.108.011c5.1533.509 7.4472 2.583 8.4215 4.803.7958 1.813.6892 3.699.6306 4.737-.0119.211-.0218.386-.0218.52v.108l-4.1828 3.896-9.2163-10.334 4.2608-3.741zm.1665.519l-3.7188 3.265 8.5409 9.577 3.6511-3.401c.0034-.136.012-.296.0217-.475.0572-1.055.1509-2.783-.5897-4.47-.8785-2.002-2.9632-3.982-7.9052-4.496z" fill="#666" />
  <path d="M15.421 155.839l17.1402 5.013v17.361l-9.8899 8.543c-1.134 1.226-2.1525.935-3.2146.876l-3.715-1.033c-1.3154 0-2.4599-2.637-2.4599-6.58l-4.505 3.764c-1.2875.389-1.9807.253-2.328.179-1.7-.363-6.4097-1.087-6.1034-6.103-.2506-3.902 1.2264-8.445 5.1034-13.373l9.9722-8.647z" fill="#fff" />
  <path fill-rule="evenodd" clip-rule="evenodd" d="M15.3603 155.561l17.4509 5.104v17.663l-9.9661 8.608c-.6011.646-1.1881.906-1.7739.987-.4176.058-.8421.022-1.2357-.012-.1351-.011-.2664-.023-.3927-.03l-.027-.001-3.71-1.031c-.4047-.012-.7717-.221-1.085-.552-.3218-.34-.6029-.824-.8352-1.418-.4233-1.083-.7006-2.57-.7469-4.331l-4.1406 3.459-.0488.015c-1.3366.404-2.0739.265-2.4526.184-.0775-.016-.162-.034-.2527-.052-.887-.183-2.3649-.487-3.6327-1.287-.7036-.444-1.3503-1.046-1.8-1.87-.4484-.822-.6925-1.85-.6164-3.138-.2507-3.976 1.2594-8.572 5.1574-13.527l.0147-.019 10.0933-8.752zm-1.8285 24.466c.0007 1.947.2841 3.556.7195 4.67.2182.558.4699.979.7327 1.257.262.277.5189.395.7577.395h.0341l2.8142.782c-.3834-.546-.6631-1.288-.8444-2.143-.2857-1.346-.3413-3.031-.1346-4.84.4002-3.502 1.7894-7.512 4.4638-10.455l-3.5178-1.248c-.2275.142-.6988.455-1.1063 1.013-.7709 1.057-1.6963 2.774-2.4575 4.698-.7603 1.922-1.3485 4.029-1.4614 5.871zm5.48-11.951l3.4521 1.225 9.5881-8.337-16.5703-4.846-9.5335 8.266 3.6382 1.169 7.603-6.564 9.0365 2.728-7.2141 6.359zm-9.8655-2.14l-3.608-1.158c-3.7706 4.841-5.1867 9.277-4.9434 13.065l.001.015-.001.016c-.074 1.213.1555 2.151.5553 2.884.4005.734.98 1.277 1.628 1.686 1.0144.641 2.1775.943 3.0515 1.133-1.9994-2.833-1.643-6.815-.5683-10.264.5765-1.85 1.367-3.572 2.142-4.926.3874-.677.7726-1.264 1.1272-1.731.2148-.283.4222-.526.6158-.72zm-2.563 17.798c.3362.068.9635.152 2.0728-.176l4.3832-3.662c.132-1.889.7316-4.01 1.4889-5.924.7566-1.912 1.6786-3.639 2.4706-4.742v-9.415l-7.2 6.215-.0088.006c-.2229.161-.5192.472-.8613.923-.3389.446-.7123 1.014-1.0915 1.676-.7584 1.325-1.5336 3.014-2.0985 4.827-1.1274 3.618-1.3884 7.631.8445 10.272zm10.9155-24.129v9.036c.3665-.36.7075-.568.8473-.653.012-.007.0225-.014.0314-.019l6.8438-6.033-7.7225-2.331zm14.8124 1.796l-9.6208 8.365c-2.7449 2.864-4.1785 6.903-4.5826 10.439-.2021 1.768-.1452 3.398.1269 4.68.2676 1.26.7306 2.126 1.3007 2.501.1356.008.2655.02.3918.03.3755.032.7177.061 1.0756.012.4694-.065.9555-.269 1.485-.842l.0095-.01 9.8139-8.477v-16.698z" fill="#666" />
  <path d="M8.9572 179.252c-4.0055-.616-.5955-10.266 2.2573-9.475 2.552.707-.2555 9.783-2.2573 9.475z" fill="#fff" />
  <path fill-rule="evenodd" clip-rule="evenodd" d="M7.9743 178.47c.2443.276.5755.466 1.0209.535.1489.023.3408-.036.578-.235.2348-.196.4822-.503.7273-.9.489-.793.9397-1.897 1.2519-3.041.3125-1.144.4799-2.306.4181-3.213-.0309-.454-.1183-.828-.2601-1.101-.139-.268-.3247-.431-.5627-.497-.5589-.155-1.2127.188-1.8594.977-.6322.772-1.1874 1.891-1.5346 3.063-.348 1.174-.4776 2.369-.2898 3.292.0934.46.2629.84.5104 1.12zm3.307-8.934l-.0668.241.0668-.241c.4.111.6848.386.8729.748.1853.358.2817.807.3151 1.298.067.984-.114 2.205-.4346 3.379-.321 1.176-.788 2.327-1.3086 3.171-.2597.421-.5402.778-.8322 1.022-.2894.242-.6232.399-.9747.345-.556-.085-.9944-.331-1.3192-.698-.3215-.363-.5206-.832-.6261-1.351-.2102-1.034-.0602-2.318.3004-3.534.3612-1.219.9431-2.403 1.6274-3.238.6698-.817 1.5121-1.383 2.3796-1.142z" fill="#666" />
  <path d="M21.8483 182.98c-4.0055-.616-.5955-10.266 2.2573-9.475 2.552.707-.2555 9.783-2.2573 9.475z" fill="#fff" />
  <path fill-rule="evenodd" clip-rule="evenodd" d="M20.8654 182.198c.2443.276.5756.467 1.0209.535.1489.023.3408-.036.5781-.234.2347-.197.4821-.504.7272-.901.489-.793.9397-1.897 1.2519-3.041.3125-1.144.4799-2.305.4181-3.213-.0309-.454-.1182-.828-.2601-1.101-.139-.268-.3247-.431-.5627-.497-.5589-.155-1.2127.189-1.8593.977-.6323.772-1.1875 1.891-1.5347 3.063-.3479 1.174-.4776 2.369-.2898 3.293.0935.459.2629.839.5104 1.119zm3.307-8.934l-.0668.241.0668-.241c.4001.111.6848.386.8729.749.1853.357.2817.806.3152 1.297.067.984-.1141 2.205-.4347 3.379-.321 1.176-.788 2.327-1.3086 3.171-.2597.421-.5401.778-.8322 1.022-.2894.242-.6232.399-.9747.345-.556-.085-.9944-.331-1.3192-.698-.3215-.363-.5205-.832-.6261-1.351-.2102-1.034-.0601-2.318.3004-3.534.3612-1.219.9431-2.403 1.6274-3.237.6699-.818 1.5121-1.384 2.3796-1.143z" fill="#666" />
  <path d="M138.621 19.8904L32.1118 112.062l39.3891 11.352c3.023.607 6.8167 5.216 6.7048 8.684v35.945L188.536 72.4447c11.393-12.5875 9.096-32.3416-6.156-47.4098-11.117-11.6688-31.974-17.549-43.759-5.1445z" fill="#fff" />
  <path fill-rule="evenodd" clip-rule="evenodd" d="M160.709 13.6816c-8.019-1.3681-16.086.2547-21.907 6.3811l-.008.0088L32.624 111.95l38.9364 11.221c1.5925.324 3.3388 1.678 4.6647 3.357 1.3293 1.683 2.2877 3.757 2.2306 5.574v35.393L188.361 72.2657c11.263-12.4573 9.029-32.0502-6.157-47.053l-.005-.0053c-5.523-5.7968-13.468-10.1571-21.49-11.5258zm21.849 11.1781c-5.594-5.8706-13.634-10.2837-21.765-11.671-8.132-1.3874-16.381.2498-22.345 6.5207L31.5997 112.175l39.8419 11.482.01.002c1.4279.287 3.0853 1.538 4.3812 3.179 1.2943 1.639 2.1763 3.601 2.1231 5.252l-.0002 36.5L188.711 72.6238l.01-.0113c11.511-12.7175 9.149-32.624-6.163-47.7528z" fill="#666" />
  <path d="M136.26 9.0106L21.1429 108.697l4.3053 1.382L138.883 11.8262c0-1.1161-.186-3.1684-2.623-2.8156z" fill="#fff" />
  <path fill-rule="evenodd" clip-rule="evenodd" d="M136.367 9.2483L21.6427 108.595l3.748 1.203L138.632 11.7126c-.007-.5391-.069-1.2106-.363-1.72-.154-.266-.368-.484-.673-.6194-.294-.1308-.69-.1932-1.229-.125zm2.335.4943c.387.671.431 1.5233.431 2.0836v.1142L25.5056 110.36l-4.8625-1.56L136.152 8.7736l.072-.0105c.643-.093 1.162-.0308 1.575.1532.416.185.705.4838.903.8263z" fill="#666" />
  <path d="M193.521 76.0271L78.1907 175.864v5.057L196.144 78.8427c0-1.061-.815-2.7062-2.623-2.8156z" fill="#fff" />
  <path fill-rule="evenodd" clip-rule="evenodd" d="M193.434 75.7715l.102.0061c.985.0597 1.704.5407 2.172 1.1479.463.6008.686 1.3308.686 1.9173v.1143L77.9407 181.469v-5.719L193.434 75.7715zm.171.5131L78.4407 175.978v4.397L195.89 78.7314c-.026-.4579-.212-1.0256-.578-1.5007-.375-.4872-.936-.8716-1.707-.9461z" fill="#666" />
  <path d="M190.286 24.6216L74.6001 124.961c.6712.757 2.092 2.391 2.4054 2.874L192.909 27.4373c0-1.1161-.187-3.1684-2.623-2.8157z" fill="#fff" />
  <path fill-rule="evenodd" clip-rule="evenodd" d="M190.393 24.8593L74.9546 124.984c.329.374.767.876 1.173 1.355.36.424.7037.839.9216 1.128L192.658 27.3237c-.007-.5391-.07-1.2106-.364-1.7201-.153-.2659-.368-.4839-.672-.6194-.294-.1307-.69-.1931-1.229-.1249zm2.334.4944c.388.671.432 1.5233.432 2.0836v.1142L76.952 128.212l-.1563-.241c-.1459-.225-.567-.741-1.0493-1.309a96.935 96.935 0 00-1.3333-1.535l-.1677-.189L190.177 24.3847l.073-.0105c.643-.0931 1.161-.0308 1.575.1532.416.185.705.4837.902.8263z" fill="#666" />
  <path d="M13.3075 123.191l-2.8026.833-3.1056-2.575v-3.238l1.3824-1.364 2.5943-.568 3.1435 2.348v3.617l-1.212.947z" fill="#fff" />
  <path fill-rule="evenodd" clip-rule="evenodd" d="M11.4341 116.01l3.3354 2.492v3.864l-1.3453 1.051-2.9761.885-3.2988-2.736v-3.46l1.5083-1.488 2.7765-.608zm-2.5283 1.066l-.6411.632 2.0969-.588.3635-.442-1.8193.398zm2.5118-.454l-.5585.68 2.45 1.954.7986-.624-2.6901-2.01zm2.8519 2.518l-.712.556v2.982l.712-.556v-2.982zm-1.212 3.865v-3.31l-2.6084-2.08-2.7998.785v2.931l2.9123 2.416 2.4959-.742z" fill="#666" />
  <path d="M10.2583 122.171c1.9795.549 1.9289-2.631 0-3.258-1.9289-.626-1.9795 2.71 0 3.258z" fill="#fff" />
  <path fill-rule="evenodd" clip-rule="evenodd" d="M9.0427 120.104c-.0058.745.431 1.591 1.2823 1.827.4308.119.7018.027.8677-.13.1773-.169.284-.457.2812-.816-.0056-.721-.452-1.56-1.2929-1.834-.4132-.134-.6767-.047-.8425.111-.18.171-.293.472-.2958.842zm-.0488-1.204c.3244-.309.7904-.403 1.3417-.224 1.0879.353 1.6313 1.417 1.6383 2.305.0035.447-.1277.889-.4373 1.182-.3211.305-.7861.404-1.3451.249-1.1281-.312-1.6558-1.409-1.6488-2.312.0035-.454.141-.905.4512-1.2z" fill="#666" />
  <path d="M67.3538 138.788l-2.8027.834-3.1055-2.576v-3.238l1.3823-1.363 2.5944-.569 3.1434 2.349v3.617l-1.2119.946z" fill="#fff" />
  <path fill-rule="evenodd" clip-rule="evenodd" d="M65.4804 131.608l3.3353 2.491v3.864l-1.3453 1.051-2.976.885-3.2988-2.735v-3.461l1.5082-1.487 2.7766-.608zm-2.5284 1.065l-.6411.633 2.097-.589.3635-.442-1.8194.398zm2.5119-.453l-.5586.68 2.4501 1.953.7986-.624-2.6901-2.009zm2.8518 2.517l-.7119.556v2.983l.7119-.556v-2.983zm-1.2119 3.865v-3.31l-2.6084-2.08-2.7998.785v2.932l2.9123 2.415 2.4959-.742z" fill="#666" />
  <path d="M64.3046 137.769c1.9794.548 1.9288-2.631 0-3.258-1.9289-.627-1.9795 2.709 0 3.258z" fill="#fff" />
  <path fill-rule="evenodd" clip-rule="evenodd" d="M63.0889 135.701c-.0057.745.4311 1.591 1.2824 1.827.4308.119.7018.027.8676-.13.1773-.168.2841-.457.2813-.815-.0057-.722-.452-1.561-1.2929-1.834-.4132-.135-.6768-.047-.8425.11-.1801.172-.293.472-.2959.842zm-.0488-1.204c.3244-.309.7905-.403 1.3417-.224 1.088.354 1.6314 1.417 1.6384 2.306.0035.446-.1277.888-.4373 1.182-.3212.304-.7862.404-1.3451.249-1.1282-.313-1.6558-1.409-1.6489-2.313.0035-.454.1411-.905.4512-1.2z" fill="#666" />
  <path d="M67.3538 192.889l-2.8027.833-3.1055-2.575v-3.239l1.3823-1.363 2.5944-.568 3.1434 2.348v3.617l-1.2119.947z" fill="#fff" />
  <path fill-rule="evenodd" clip-rule="evenodd" d="M65.4804 185.708l3.3353 2.492v3.864l-1.3453 1.051-2.976.885-3.2988-2.736v-3.46l1.5082-1.488 2.7766-.608zm-2.5284 1.066l-.6411.632 2.097-.588.3635-.443-1.8194.399zm2.5119-.454l-.5586.68 2.4501 1.953.7986-.624-2.6901-2.009zm2.8518 2.517l-.7119.557v2.982l.7119-.556v-2.983zm-1.2119 3.865v-3.31l-2.6084-2.079-2.7998.785v2.931l2.9123 2.415 2.4959-.742z" fill="#666" />
  <path d="M64.3046 191.869c1.9794.549 1.9288-2.631 0-3.258-1.9289-.627-1.9795 2.71 0 3.258z" fill="#fff" />
  <path fill-rule="evenodd" clip-rule="evenodd" d="M63.0889 189.801c-.0057.745.4311 1.591 1.2824 1.827.4308.12.7018.027.8676-.13.1773-.168.2841-.457.2813-.815-.0057-.721-.452-1.561-1.2929-1.834-.4132-.134-.6768-.047-.8425.111-.1801.171-.293.471-.2959.841zm-.0488-1.204c.3244-.308.7905-.403 1.3417-.224 1.088.354 1.6314 1.418 1.6384 2.306.0035.446-.1277.889-.4373 1.182-.3212.304-.7862.404-1.3451.249-1.1282-.313-1.6558-1.409-1.6489-2.313.0035-.454.1411-.904.4512-1.2z" fill="#666" />
</svg>
