<svg xmlns="http://www.w3.org/2000/svg" viewBox="0 0 111 111">
  <path d="M32.4221 38.8269c1.3383-3.6088 6.0819-4.4155 8.5381-1.4521l33.1582 40.0068c2.4558 2.9633.7833 7.4735-3.0108 8.1192l-51.2265 8.7129c-3.7943.6452-6.8642-3.0584-5.5264-6.667l18.0674-48.7198zm53.9014 9.8008c.6416-.899 1.8909-1.1074 2.79-.4658l1.6279 1.1621c.8988.6417 1.1073 1.8901.4659 2.7891l-1.1622 1.6279c-.6415.899-1.89 1.1081-2.789.4668l-1.6279-1.1621c-.8991-.6416-1.1085-1.8909-.4668-2.79l1.1621-1.628zM63.0002 36.9998c1.1044.0002 1.9999.8956 2 2 0 1.1045-.8956 1.9998-2 2-1.1045 0-2-.8954-2-2 .0001-1.1045.8955-2 2-2z" fill="#90CEF1" />
  <path d="M78 72.9996c1.1045 0 1.9998.8956 2 2 0 1.1046-.8954 2-2 2s-2-.8954-2-2c.0002-1.1044.8955-2 2-2zm-32-46c1.1045 0 1.9998.8956 2 2 0 1.1046-.8954 2-2 2s-2-.8954-2-2c.0002-1.1044.8955-2 2-2zm26.874-6.5918c1.0813-.225 2.14.4687 2.3653 1.5499l.8154 3.916c.225 1.0814-.4694 2.1411-1.5508 2.3662l-3.916.8144c-1.0812.225-2.14-.4686-2.3652-1.5498l-.8155-3.916c-.225-1.0814.4694-2.1411 1.5508-2.3662l3.916-.8145z" fill="#666666" />
  <path d="M30.1934 44.998c-.6702 5.685-.9007 10.9622-.3116 16.2656.9965 8.9694 4.4082 18.1547 12.7803 29.2373l-8.7959 1.4961c-6.4405-9.2684-9.9076-17.7099-11.4023-26.1543l7.7295-20.8447zm19.3984 2.791c-.059 4.1591.0997 8.1778.6103 12.2432 1.0584 8.4247 3.6564 17.1058 9.2286 27.4541l-8.292 1.4101c-5.1383-10.0922-7.7613-19.0087-8.8741-27.8662-.9268-7.3779-.7873-14.6845-.2832-22.4228l7.6104 9.1816zm26.7803 12.4414c3.3391-2.1566 6.136-3.3257 8.6015-3.0674 2.884.3025 4.2478 2.3925 4.9033 3.461.3962.6457.5288.9035.7334 1.1797.302-.0601 1.0127-.2791 2.3438-1.0928 1.4136-.8641 3.2608-.4184 4.125.9951.8638 1.4135.4182 3.2599-.9951 4.124-2.6762 1.6361-5.331 2.6019-7.7803 1.5918-1.1898-.4907-1.9639-1.3156-2.4658-1.9814-.4453-.5909-.8783-1.3566-1.0752-1.6778-.239-.3895-.3728-.5559-.4473-.6318-.3189-.0144-1.6002.1458-4.6875 2.1397-1.3915.8986-3.2484.4994-4.1474-.8916-.8989-1.3917-.4999-3.2495.8916-4.1485zm7.8906-25.2266c.5501-1.5626 2.2634-2.3838 3.8262-1.8339 1.5624.5499 2.3833 2.2625 1.8339 3.8252-1.419 4.0327-3.2606 6.8472-6.1757 7.7529-1.4159.4398-2.7323.3028-3.753.0762-.9301-.2067-1.9637-.5854-2.54-.7715-1.4325-.4626-1.7704-.3702-2.1201-.1406-.672.4412-2.0353 1.9886-3.6485 6.9697-.5104 1.5762-2.2021 2.441-3.7783 1.9306-1.5762-.5104-2.4401-2.203-1.9297-3.7793 1.6715-5.161 3.5508-8.4876 6.0645-10.1377 2.8357-1.861 5.6277-1.0785 7.2558-.5527.9539.3081 1.4333.4988 1.9971.624.4722.1049.6323.0631.6719.0508.0109-.003.242-.0637.6533-.6045.4457-.5861 1.0148-1.625 1.6426-3.4092zM55.9902 15.2724c1.2301-1.1098 3.1274-1.0122 4.2373.2178 1.1098 1.23 1.0122 3.1273-.2177 4.2373-1.3807 1.2459-1.4597 2.0103-1.4444 2.4863.0278.8617.4073 1.7122 1.1182 3.5137.6124 1.5519 1.4282 3.7778 1.0576 6.3506-.3856 2.6757-1.9453 5.1582-4.7978 7.583-1.2625 1.073-3.1565.9196-4.2295-.3428-1.0729-1.2623-.9193-3.1554.3427-4.2285 2.1473-1.8252 2.6347-3.0938 2.7461-3.8672.1262-.8761-.1103-1.7982-.7002-3.293-.4914-1.2454-1.4637-3.3411-1.5341-5.5224-.0828-2.5669.9933-4.9434 3.4218-7.1348z" fill="#1651B0" />
</svg>
