<svg xmlns="http://www.w3.org/2000/svg" viewBox="0 0 20 20">
  <path fill-rule="evenodd" clip-rule="evenodd" d="M11.8386 7.1272c.7626.4232 1.3214 1.1692 1.4919 2.0534h1.8877V7.7521l2.6667 2-2.6667 2v-1.4286h-1.8877c-.1705.8842-.7293 1.6302-1.4919 2.0534l.5833 1.7954 1.3587-.4415-1.0781 3.1542-2.7261-1.9181 1.3586-.4415-.5834-1.7955a3.0405 3.0405 0 01-.3667.0222 2.9895 2.9895 0 01-2.0468-.8067l-1.5276 1.1099.8397 1.1558-3.333-.0506.9819-3.1855.8397 1.1557 1.527-1.1094a2.9888 2.9888 0 01-.281-1.2692c0-.4537.1008-.8838.281-1.2692l-1.527-1.1095-.8397 1.1557-.9818-3.1854 3.333-.0506-.8398 1.1557 1.5276 1.1099a2.9895 2.9895 0 012.0468-.8066c.1241 0 .2465.0075.3667.0221l.5834-1.7955-1.3586-.4414 2.7261-1.9182 1.0781 3.1542-1.3587-.4414-.5833 1.7953zm-1.4219 4.6567c-1.1045 0-2-.8954-2-2s.8955-2 2-2c1.1046 0 2 .8954 2 2s-.8954 2-2 2z" fill="#333333" />
</svg>
