<svg xmlns="http://www.w3.org/2000/svg" viewBox="0 0 20 20">
  <path d="M12.3333 7l4 .0023L19 9.6667V19H9.6667L7 16.3333v-4h5.3333V7z" fill="#333333" />
  <g fill="#FFFFFF">
    <path d="M13 7.857l2.25 2.2949v4.7445l-2.25-2.25V7.857zM13.5137 7.6668L15.5562 9.75h2.527L16 7.6668h-2.4863z" />
    <path d="M18.3333 10.25H15.75v5.5h-5.5v2.5834h8.0833V10.25zM9.75 18.0835v-2.48l-2.0834-2.0834v2.48L9.75 18.0835z" />
    <path d="M7.8537 13.0001l2.2499 2.2499h4.7929l-2.2499-2.2499h-4.793z" />
  </g>
  <path d="M1 1v4.5L2.5 7H7V2.5L5.5 1H1z" fill="#333333" />
  <path fill-rule="evenodd" clip-rule="evenodd" d="M1.5 1.7123V5.25l1.1 1.1V2.8122l-1.1-1.1zM2.9 6.5h3.6V2.9001H2.9V6.5zM6.35 2.6001L5.25 1.5H1.712l1.1001 1.1001h3.538z" fill="#D7D7D7" />
  <g fill="#1651B0">
    <path d="M5 9h1v1H4V8h1v1zM10 10H9V9h2v2h-1v-1zM6.5 9v1h2V9h-2z" />
  </g>
</svg>
