<svg xmlns="http://www.w3.org/2000/svg" viewBox="0 0 20 20">
  <path fill-rule="evenodd" clip-rule="evenodd" d="M3.5 6S3.7378.795 8.022.1829c3.5001-.5 5.478 3.317 5.478 3.317s2-1 3.5.5 1 3.5 1 3.5 2 .253 2 3.0001c0 3.3416-4.0191 3.5-6.5 3.5l1-1.5s4.0887.0341 4.0887-2.274c0-1.7165-2.1634-1.7506-2.1634-1.7506S17.3565 6.2436 16.2127 5C15.1555 3.8506 13 5 13 5S10.8384.648 7.6377 1.6206c-3.2006.9728-2.6891 5.6307-2.6891 5.6307S1.5 7 1.5 9.5c0 2.8573 4 3 4 3l1 1.5C3.6684 14 0 13.0123 0 9.5 0 6 3.5 6 3.5 6zM18 16v2H2v-2h16zM6 10l4 5 4-5h-2V5H8v5H6z" fill="#333333" />
</svg>
