<svg xmlns="http://www.w3.org/2000/svg" viewBox="0 0 20 20">
  <path d="M1 1.9908v16.0184c0 .5432.4465.9908.9908.9908h16.0184c.5432 0 .9908-.4465.9908-.9908V1.9908C19 1.4476 18.5535 1 18.0092 1H1.9908C1.4476 1 1 1.4465 1 1.9908zm-1 0C0 .8913.8982 0 1.9908 0h16.0184C19.1087 0 20 .8982 20 1.9908v16.0184C20 19.1087 19.1018 20 18.0092 20H1.9908C.8913 20 0 19.1018 0 18.0092V1.9908z" fill="#999999" />
  <g fill="#333333">
    <path d="M13.5 2h1v2.063C15.3626 4.285 16 5.068 16 6c0 .932-.6374 1.715-1.5 1.937V10h-1V7.937C12.6374 7.715 12 6.932 12 6c0-.932.6374-1.715 1.5-1.937V2z" />
    <path fill-rule="evenodd" clip-rule="evenodd" d="M4 8l6-3v1L5.559 8.2205 10 10.441l1.1895-.5948a4.015 4.015 0 00.8992.6685l-1.5886.7943.0008 4.4405L15 13.5V11c.3453 0 .6804-.0438 1-.126V14l-6 3-6-3V8zm5.5 3.309L5 9.059V13.5l4.501 2.2505L9.5 11.309z" />
  </g>
</svg>
