<svg xmlns="http://www.w3.org/2000/svg" viewBox="0 0 20 20">
  <path d="M16 4.3v11.4c0 1.9107-2.716 3.3-6 3.3s-6-1.3893-6-3.3V4.3C4 2.3893 6.716 1 10 1s6 1.3893 6 3.3z" fill="#333333" />
  <path fill-rule="evenodd" clip-rule="evenodd" d="M10 6.5c1.9782 0 3.7222-.4543 4.6917-1.1714.1995.213.3083.44.3083.6714 0 1.0467-2.2245 2-5 2s-5-.9533-5-2c0-.2314.1088-.4583.3083-.6714C6.2778 6.0457 8.0218 6.5 10 6.5zm4.6917.8286C13.7222 8.0457 11.9782 8.5 10 8.5c-1.9782 0-3.7222-.4543-4.6917-1.1714C5.1088 7.5416 5 7.7686 5 8c0 1.0467 2.2245 2 5 2s5-.9533 5-2c0-.2314-.1088-.4583-.3083-.6714zM10 10.5c1.9782 0 3.7222-.4543 4.6917-1.1714.1995.213.3083.44.3083.6714 0 1.0467-2.2245 2-5 2s-5-.9533-5-2c0-.2314.1088-.4583.3083-.6714C6.2778 10.0457 8.0218 10.5 10 10.5zm0 2c1.9782 0 3.7222-.4543 4.6917-1.1714.1995.2131.3083.44.3083.6714 0 1.0467-2.2245 2-5 2s-5-.9533-5-2c0-.2314.1088-.4583.3083-.6714C6.2778 12.0457 8.0218 12.5 10 12.5z" fill="#999999" />
  <path fill-rule="evenodd" clip-rule="evenodd" d="M5 4c0 1.0466 2.2245 2 5 2s5-.9534 5-2c0-1.0467-2.2245-2-5-2s-5 .9533-5 2zm5 10.5c2.3403 0 4.3528-.6359 5.1429-1.5905V15.7c0 1.2374-2.2728 2.4-5.1429 2.4-2.87 0-5.1428-1.1626-5.1428-2.4v-2.7904C5.6472 13.8641 7.6598 14.5 10 14.5z" fill="#FFFFFF" />
</svg>
