<svg xmlns="http://www.w3.org/2000/svg" viewBox="0 0 20 20">
  <path d="M4.1172 3.5116c.7388.4213 1.092.4824 1.6309.702 1.047-.3368 2.14-.3457 3.0204.0963.5389-.7208 1.4372-1.057 2.3442-1.0998 1.1471-.054 2.3979.3492 3.1237 1.1204.9345-.1755 1.8508-.4913 2.6711-.977L20 8.9025l-.1693.1325c-.6505.5106-1.1085 1.3728-1.5414 2.1662-.2098.3846-.4182.7588-.6364 1.0359a2.2219 2.2219 0 01-.145.165c.2168.332.3217.6831.3104 1.0281a1.4895 1.4895 0 01-.4622 1.034 1.5014 1.5014 0 01-1.2689.3957c-.0863.2816-.2716.5324-.5732.6923-.4108.2177-.9158.1992-1.4635-.0275-.1067.2481-.296.4443-.5245.5735-.39.2203-.8917.2618-1.4168.1139a1.1496 1.1496 0 01-.1294.2808c-.2047.3163-.5518.4968-1.0023.5067-.4006.0086-.898-.1155-1.52-.3849a.9787.9787 0 00.1859-.1807l.4223-.654c.4361.1697.7186.2177.8904.2141.1504-.0034.2106-.0381.217-.1945l-.7795-.541.037-.0638c.1659-.3273.1819-.7304.0681-1.0851l.7522.5224.6461.3967c.5628.3447.9759.2855 1.1425.1915.1016-.0576.1284-.1326.0788-.2376l-3.1236-2.6778-.0701-.0727a.5061.5061 0 01.0126-.6353.4949.4949 0 01.6189-.1158l.0827.0579 3.1373 2.6709c.774.5807 1.1732.5063 1.2747.4527.0651-.0347.1616-.1566.0516-.3899l-3.5888-3.7323-.0632-.0806c-.1243-.1968-.0992-.4613.073-.6304a.4956.4956 0 01.6276-.055l.0769.0648 3.7892 3.9406c.2553.1594.5056.095.6549-.0471a.4797.4797 0 00.1508-.3359c.0044-.1324-.0405-.326-.2306-.5587-.4887-.5983-1.701-1.8605-2.966-3.101-1.2701-1.2455-2.5416-2.4178-3.1528-2.8535l.002-.004c-.6876.7083-1.2672 1.0736-1.7497 1.1607-.2657.048-.5066.0129-.7084-.1011-.2-.1132-.341-.292-.43-.493-.175-.395-.1685-.908-.0205-1.36.116-.3541.3298-.6964.6451-.9289-.8157-.3445-1.7014-.1525-2.5018.1336-.6819-.3034-1.3899-.5186-2.0454-.8857L1.3964 8.6354c.4985.2905.9307.6875 1.3127 1.0516.268.2556.5117.4935.7473.7002-.0706.0754-.1233.1586-.1751.2474l-.2287.4331c-.0332.0701-.0659.1389-.0895.213-.3365-.2784-.6499-.5883-.938-.8631-.5172-.493-.98-.8942-1.4899-1.087L0 9.1283 3.2852 3l.832.5116zm4.9705 10.5039c.2099-.3303.6049-.3757.8817-.1002.2765.2754.3302.7666.1206 1.0968l-.6656 1.0478c-.2098.3301-.6039.3743-.8806.0991-.2768-.2755-.3315-.7665-.1217-1.0968l.6656-1.0467zm-1.5939-1.6163c.2679-.4246.7742-.4837 1.1307-.1316.3565.3523.4284.9832.1606 1.4081L7.733 15.345c-.2677.4248-.775.4837-1.1316.1316-.3561-.3523-.428-.9824-.1606-1.4071l1.0529-1.6703zm-1.986-.9407c.2343-.3529.6709-.4208 1.011-.1414.3396.2795.462.8068.2948 1.2146l-.6773 1.2923c-.2198.4161-.6922.5132-1.0548.216-.3627-.298-.4786-.8786-.2588-1.2952l.685-1.2863zm-1.957-.602c.22-.4162.6932-.5119 1.0558-.214.3624.298.4775.8768.2579 1.2932l-.2287.433c-.22.4164-.6922.5138-1.0548.2161-.3626-.298-.4786-.8787-.2589-1.2952l.2287-.4331z" fill="#094174" />
</svg>
