<svg xmlns="http://www.w3.org/2000/svg" viewBox="0 0 20 20">
  <path d="M10.7998 8.1416l-.5498-.2705-.1465 2.2324-2.2324.1465.2402.4873h-.9111v2.6289L7 13.5l1.2207.8154h-4.621V17H0V2.6846L10.7998 0v8.1416zm-9 5.2793h1.7998v-2.6836H1.7998v2.6836zm2.7002 0h1.7998v-2.6836H4.5v2.6836zM18 10.1758l-1.1035-.0723-.0176-.2617h.2207v-1.789h-.3379L16.75 7.871l-.3682.1816h-1.082v.5332l-.5566.2744-.3428-.5136v-.294h-.1973l-.5976-.8945h.7949v-1.79h-1.8008v1.79h.7949l-.5976.8945h-.1973v.294l-.3428.5137-.5566-.2745V3.5791H18v6.5967zm-16.2002-.334h1.7998V7.1582H1.7998v2.6836zm2.7002 0h1.7998V7.1582H4.5v2.6836zm2.7002 0H9V7.1582H7.2002v2.6836zm8.0996-2.6836h1.7998v-1.79h-1.7998v1.79zm-13.5-.8955h1.7998V3.5791H1.7998v2.6836zm2.7002 0h1.7998V3.5791H4.5v2.6836zm2.7002 0H9V3.5791H7.2002v2.6836z" fill="currentColor" />
  <path d="M13.5 8l1.052 1.574 1.698-.8371.124 1.8891 1.8891.124-.8371 1.698L19 13.5l-1.574 1.052.8371 1.698-1.8891.124-.124 1.8891-1.698-.8371L13.5 19l-1.052-1.574-1.698.8371-.124-1.8891-1.8891-.124.837-1.698L8 13.5l1.574-1.052-.8371-1.698 1.8891-.124.124-1.8891 1.698.837L13.5 8z" fill="#094174" />
</svg>
