<svg xmlns="http://www.w3.org/2000/svg" viewBox="0 0 200 200">
  <path d="M41.1715 35.1159c7.3885 4.2126 10.9196 4.8245 16.309 7.0209 10.4696-3.3687 21.3997-3.4579 30.2049.9623 5.3885-7.2082 14.3716-10.5694 23.4416-10.9977 11.47-.5406 23.979 3.4918 31.237 11.2039 9.345-1.7555 18.507-4.9138 26.711-9.7703L200 89.0247l-1.693 1.3256c-6.505 5.106-11.086 13.7277-15.414 21.6617-2.099 3.846-4.183 7.588-6.364 10.359-.451.574-.943 1.122-1.45 1.65 2.168 3.32 3.217 6.831 3.104 10.281-.137 4.137-1.919 7.765-4.622 10.34-3.324 3.165-7.99 4.695-12.689 3.957-.863 2.816-2.716 5.324-5.732 6.923-4.108 2.177-9.158 1.992-14.635-.275-1.067 2.481-2.961 4.443-5.245 5.735-3.9 2.203-8.917 2.618-14.168 1.139-.294.934-.701 1.89-1.295 2.808-2.046 3.163-5.518 4.968-10.022 5.067-4.007.086-8.98-1.155-15.2001-3.849a9.7875 9.7875 0 001.8586-1.807l4.2235-6.54c4.361 1.697 7.186 2.177 8.904 2.141 1.504-.034 2.106-.381 2.17-1.945l-7.795-5.41.37-.638c1.659-3.273 1.819-7.304.681-10.851l7.522 5.224 6.461 3.967c5.628 3.447 9.759 2.855 11.424 1.915 1.017-.576 1.285-1.326.789-2.376l-31.2366-26.778-.7007-.727c-1.4327-1.839-1.4318-4.499.1265-6.353 1.5588-1.852 4.1578-2.284 6.1888-1.158l.827.579 31.373 26.709c7.74 5.807 11.731 5.063 12.747 4.527.651-.347 1.616-1.566.516-3.899l-35.888-37.324-.632-.805c-1.243-1.968-.992-4.6131.73-6.3038 1.727-1.6915 4.362-1.866 6.276-.5499l.769.6481 37.892 39.4056c2.553 1.594 5.056.95 6.549-.471.897-.855 1.463-2.013 1.508-3.359.044-1.324-.405-3.26-2.306-5.587-4.887-5.983-17.011-18.605-29.66-31.0098-12.701-12.4554-25.416-24.1778-31.528-28.5353l.019-.0393c-6.8753 7.0819-12.6713 10.7352-17.4958 11.6066-2.6577.4793-5.0659.1285-7.0841-1.0114-2.0002-1.1314-3.41-2.9198-4.3011-4.9294-1.749-3.9503-1.6841-9.0802-.2043-13.5999 1.1605-3.5417 3.2985-6.9647 6.4516-9.2892-8.1577-3.4452-17.0145-1.525-25.0183 1.3355-6.8191-3.0337-13.8987-5.1859-20.4544-8.8572L13.9638 86.3538c4.9851 2.9053 9.3074 6.8753 13.127 10.5166 2.6809 2.5558 5.1172 4.9346 7.4734 7.0016-.706.754-1.2334 1.586-1.7516 2.474l-2.2868 4.331c-.3324.701-.6585 1.389-.8952 2.13-3.3645-2.784-6.4985-5.883-9.3806-8.631-5.1711-4.9297-9.7998-8.942-14.8981-10.8701l-5.352-2.0228L32.8515 30l8.32 5.1159zM90.8771 140.155c2.0986-3.303 6.0483-3.757 8.8163-1.002 2.7656 2.754 3.3026 7.666 1.2066 10.968l-6.656 10.478c-2.098 3.301-6.0388 3.743-8.8065.991-2.7676-2.755-3.3146-7.665-1.2163-10.968l6.6559-10.467zm-15.9393-16.163c2.6786-4.246 7.7423-4.837 11.3074-1.316 3.5648 3.523 4.2836 9.832 1.6056 14.081L77.3317 153.45c-2.6782 4.248-7.7514 4.837-11.3171 1.316-3.561-3.523-4.2792-9.824-1.6056-14.071l10.5288-16.703zm-19.8608-9.407c2.3439-3.529 6.7094-4.208 10.1104-1.414 3.3961 2.795 4.6199 8.068 2.9485 12.146l-6.7727 12.923c-2.1982 4.161-6.9226 5.132-10.5484 2.16-3.6265-2.98-4.7855-8.786-2.5884-12.952l6.8506-12.863zm-19.5689-6.02c2.2001-4.162 6.9319-5.119 10.558-2.14 3.6232 2.98 4.7744 8.768 2.5787 12.932l-2.2867 4.33c-2.1993 4.164-6.9218 5.138-10.5484 2.161-3.6261-2.98-4.7856-8.787-2.5884-12.952l2.2868-4.331z" fill="#EEEEEE" />
</svg>
