<svg xmlns="http://www.w3.org/2000/svg" viewBox="0 0 20 20">
  <path d="M1 4c3.398 0 5.3392-.5849 7-1 0 4 4 9 4 13-1.9163.7681-3.901 2-8 2 0-4-3-6-3-14z" fill="#333333" />
  <path fill-rule="evenodd" clip-rule="evenodd" d="M8.0456 2.9886L8 3c0 2 1 4.25 2 6.5s2 4.5 2 6.5c1.8237-.731 3-1 7-1 0-1.798-.6061-3.3939-1.2735-5.151-.1518-.3997-.3067-.8077-.4584-1.2282l-1.8739 2.425-.75-2-4 1.5-1-3 4-1.5-.75-2 3.3309.7401C16.0845 3.9292 16 3.007 16 2c-3.9995 0-5.7272.4319-7.9544.9886z" fill="#999999" />
  <path fill-rule="evenodd" clip-rule="evenodd" d="M3.4363 12.149c.0814.2168.1652.4347.275.7159-.0026-.0068.2123.542.2718.6954.2192.5651.3684.9737.5002 1.3838.2286.7111.3814 1.3697.4583 2.0342 1.8984-.0917 3.3366-.4762 5.0378-1.1989.0255-.0109.5287-.2309.9882-.4286-.1284-1.2693-.6552-2.6857-1.8814-5.4446C7.8834 7.2 7.2962 5.6718 7.0895 4.2617l-.0278.0069c-1.7047.4185-3.202.654-5.047.7153.086 2.7743.549 4.838 1.4216 7.1651z" fill="#FFFFFF" />
  <path d="M14.5 6.5L14 5l4 1-2.5 3.5L15 8l-4 1.5-.5-1.5" fill="#333333" />
</svg>
