<svg xmlns="http://www.w3.org/2000/svg" viewBox="0 0 20 20">
  <path d="M1 1v15l3 3h15V4l-3-3H1z" fill="#333333" />
  <path fill-rule="evenodd" clip-rule="evenodd" d="M2.3535 2l2.25 2.25H17.75L15.5 2H2.3536zM2 2.3535l2.25 2.25V17.75L2 15.5V2.3536zM4.75 18H9l-2-2V7h9l2 2V4.75H4.75V18z" fill="#FFFFFF" />
  <path fill-rule="evenodd" clip-rule="evenodd" d="M9.7493 17.7493l-.021-7.6633L7.5 7.9557V15.5l2.2493 2.2493zM10 18h8v-7.75h-7.7713l.0213 7.7493L10 18zm7.75-8.25L15.5 7.5H7.7468l2.3535 2.25H17.75z" fill="#999999" />
</svg>
