<svg xmlns="http://www.w3.org/2000/svg" viewBox="0 0 20 20">
  <path fill-rule="evenodd" clip-rule="evenodd" d="M16.1602 2H17v.8394L2.8398 16.9996H2v-.8394l2.8314-2.8313C3.6427 12.4735 2.6666 11.3308 2 9.9999c1.4863-2.968 4.511-5 8.0002-5 .9513 0 1.8683.1515 2.7286.4315L16.1602 2zm-7.66 4.9059c.7504 0 1.3725.5517 1.4825 1.2717L8.2715 9.8887c-.7199-.11-1.2712-.7321-1.2712-1.4825 0-.8287.6712-1.5003 1.5-1.5003zm-4.7795 3.094c.5981-.9457 1.3949-1.749 2.3348-2.3486a7.795 7.795 0 01.1853-.1138 3.988 3.988 0 00-.2409 1.3687c0 .9144.307 1.7568.8234 2.4303l-.9147.9152a7.617 7.617 0 01-2.188-2.2519zm6.2795 2.9062a3.993 3.993 0 01-1.027-.1335l4.8933-4.8934c.0872.3276.1336.6716.1336 1.027 0 2.2089-1.7911 3.9999-3.9999 3.9999zM18 9.9998c-.6765-1.3516-1.6723-2.5087-2.8854-3.3686l-1.0795 1.0795a7.6095 7.6095 0 012.2442 2.2891c-.5981.9456-1.3949 1.7488-2.3348 2.3485a7.3225 7.3225 0 01-3.9443 1.1514 7.3313 7.3313 0 01-1.5818-.1723l-1.218 1.218a8.8035 8.8035 0 002.7998.4543c3.4893 0 6.5135-2.0319 7.9998-4.9999z" fill="#333333" />
</svg>
