<svg xmlns="http://www.w3.org/2000/svg" viewBox="0 0 20 20">
  <path fill-rule="evenodd" clip-rule="evenodd" d="M2 10c1.486-2.968 4.5107-5 8-5s6.5141 2.032 8 5c-1.4863 2.9684-4.5107 5.0004-8 5.0004S3.486 12.9684 2 10zm8-1.5936c0 .8284-.6716 1.5-1.5 1.5S7 9.2348 7 8.4064s.6716-1.5 1.5-1.5 1.5.6716 1.5 1.5zm3.9444-.7546c.9403.5997 1.7367 1.4026 2.3353 2.3482-.5986.946-1.395 1.7489-2.3353 2.3486A7.3222 7.3222 0 0110 13.5004a7.3223 7.3223 0 01-3.9444-1.1518C5.1153 11.7489 4.3189 10.946 3.7203 10c.5986-.9456 1.395-1.7489 2.3353-2.3482a7.0625 7.0625 0 01.1849-.1141A3.997 3.997 0 006 8.9064c0 2.2093 1.7907 4 4 4s4-1.7907 4-4c0-.481-.0852-.9418-.2405-1.3687.062.0373.1237.075.1849.1141z" fill="#333333" />
</svg>
