<svg xmlns="http://www.w3.org/2000/svg" viewBox="0 0 20 20">
  <g fill-rule="evenodd" clip-rule="evenodd">
    <path d="M0 12l7 7h5v-.0109c3.909-.1716 7-2.3397 7-4.9891V7l-6-6v6c0 2.6494-3.091 4.8175-7 4.9891C4.0098 12.0764 2.0031 12 0 12z" fill="#333333" />
    <path d="M18 7.414v5.5858l-4.3272-4.327c.2104-.5219.3272-1.0819.3272-1.673V3.4142l4 4zm0 6.2929L13.4471 9.154c-.4707.8762-1.2094 1.6269-2.0891 2.2134-1.4276.9517-3.3097 1.5397-5.358 1.6224v.01h-.293l2.5 2.5 2.5001 2.5h1.0217l.2273-.0099c1.7919-.0787 3.3492-.6145 4.4312-1.382C17.4733 15.8377 18 14.9049 18 13.9998v-.2929zm-8 4.2929H7.4142l-5-5H5l5 5z" fill="#999999" />
    <path d="M10 17.9998l-5-5H2.4142l5 5H10zm3.6728-9.327L18 12.9997V7.4141l-4-4v3.5858c0 .591-.1168 1.151-.3272 1.6728z" fill="#FFFFFF" />
  </g>
</svg>
