<svg xmlns="http://www.w3.org/2000/svg" viewBox="0 0 20 20">
  <g fill="#333333">
    <path fill-rule="evenodd" clip-rule="evenodd" d="M10 1.5C6.9624 1.5 4.5 3.9624 4.5 7c0 2.492 1.4187 5.1327 2.906 7.2007.7358 1.0233 1.4727 1.8849 2.0258 2.4907.2242.2456.4177.4486.5682.6028.1505-.1542.344-.3572.5682-.6028.5531-.6058 1.29-1.4674 2.0259-2.4907C14.0813 12.1327 15.5 9.492 15.5 7c0-3.0376-2.4624-5.5-5.5-5.5zM10 18c-.344.3629-.3442.3627-.3442.3627l-.0015-.0015-.004-.0037-.0141-.0136a15.8682 15.8682 0 01-.2494-.247 25.4993 25.4993 0 01-.6936-.7313c-.572-.6265-1.335-1.5185-2.0991-2.581C5.0813 12.681 3.5 9.8217 3.5 7 3.5 3.4101 6.4101.5 10 .5s6.5 2.9101 6.5 6.5c0 2.8217-1.5813 5.681-3.0941 7.7846-.7641 1.0625-1.5272 1.9545-2.0991 2.581a25.592 25.592 0 01-.6935.7313 15.391 15.391 0 01-.1965.1955c-.0229.0225-.0407.0397-.0529.0515l-.0143.0136-.0039.0037-.0012.0011S10.3439 18.3629 10 18zm0 0l.3445.3623-.3445.3266-.3442-.3262L10 18z" />
    <path d="M11.5 7c0 .8284-.6716 1.5-1.5 1.5S8.5 7.8284 8.5 7s.6716-1.5 1.5-1.5 1.5.6716 1.5 1.5z" />
    <path fill-rule="evenodd" clip-rule="evenodd" d="M10 11c-2.2091 0-4-1.7909-4-4 0-2.2091 1.7909-4 4-4 2.2091 0 4 1.7909 4 4 0 2.2091-1.7909 4-4 4zm0-1c1.6569 0 3-1.3431 3-3s-1.3431-3-3-3-3 1.3431-3 3 1.3431 3 3 3z" />
  </g>
</svg>
