<svg xmlns="http://www.w3.org/2000/svg" viewBox="0 0 20 20">
  <path d="M10 19c-3.866 0-7-1.7909-7-4V9h14v6c0 2.2091-3.134 4-7 4z" fill="#333333" />
  <path fill-rule="evenodd" clip-rule="evenodd" d="M7 14.9999c.6667.6666 1.6667 1 3 1s2.3333-.3334 3-1l-.0001-2.3849c1.2473-.3386 2.2916-.8818 3.0001-1.5536v3.9385c0 1.5068-2.6131 3-6 3-3.387 0-6-1.4932-6-3V10.876c.6578.7192 1.649 1.4209 3 1.739v2.3849z" fill="#999999" />
  <path fill-rule="evenodd" clip-rule="evenodd" d="M17 9V5c0-2.2091-3.134-4-7-4S3 2.7909 3 5v4h14z" fill="#888888" />
  <path fill-rule="evenodd" clip-rule="evenodd" d="M16 5c0 1.5068-2.6131 3-6 3-2.4267 0-4.568-.777-5.5255-1.8873C4.1541 5.7412 4 5.3673 4 5c0-1.5068 2.613-3 6-3 3.3869 0 6 1.4932 6 3zM4 7.0615c1.2249 1.1616 3.4537 1.9386 6 1.9386s4.7751-.777 6-1.9386v1.9386c0 1.0118-1.2248 2.097-3.2621 2.65l-.738.2003L12 14.5313c-.4615.3056-1.1185.4687-2 .4687s-1.5385-.1631-2-.4687v-2.7081l-.7708-.1814C5.3889 11.2085 4 9.667 4 9V7.0616z" fill="#FFFFFF" />
</svg>
