<svg xmlns="http://www.w3.org/2000/svg" viewBox="0 0 20 20">
  <g fill="none" fill-rule="evenodd">
    <g opacity=".6">
      <path d="M12.5 11c2.211 0 4-.895 4-2V4.5c0-2.219-3.254-3-6.5-3s-6.5.906-6.5 3V9c0 1.105 1.789 2 4 2v3c0 1.236 5 1.219 5-.004V11z" fill="#FFF" />
      <path d="M12.5 11c2.211 0 4-.895 4-2V4.5c0-2.219-3.254-3-6.5-3s-6.5.906-6.5 3V9c0 1.105 1.789 2 4 2v3c0 1.236 5 1.219 5-.004V11h0z" stroke="#999" />
      <path d="M3.5 4.5c0 2.25 3.254 3 6.5 3s6.5-.937 6.5-3" stroke="#999" />
      <path d="M7.5 11c-2.008-.351-4-1.115-4-2v6c0 1.937 3.254 3.5 6.5 3.5s6.5-1.594 6.5-3.5V9c0 .845-2.14 1.63-4 2v2.996c0 1.254-5 1.285-5 .004v-3z" fill="#FFF" />
      <path d="M3.5 9v6c0 1.937 3.254 3.5 6.5 3.5s6.5-1.594 6.5-3.5V9c0 .845-2.14 1.63-4 2v2.996c0 1.254-5 1.285-5 .004v-3c-2.008-.351-4-1.115-4-2z" stroke="#999" />
    </g>
    <path d="M16.6648 2H13V0h7.0026v7H18.002l-.0014-3.6653L13.3352 8 12 6.6648 16.6648 2z" fill="#999" fill-rule="nonzero" />
  </g>
</svg>
