<svg xmlns="http://www.w3.org/2000/svg" viewBox="0 0 20 20">
  <g fill="none" fill-rule="evenodd">
    <path d="M10 19c-3.866 0-7-1.7909-7-4V9h14v6c0 2.2091-3.134 4-7 4z" fill="#DD5228" fill-rule="nonzero" />
    <path d="M16 10H4v5c0 1.5068 2.613 3 6 3s6-1.4932 6-3v-5z" fill="#FFF" />
    <path d="M10 16c-1.3333 0-2.3333-.3333-3-1v-2.3849C4.26 11.97 3 9.7471 3 9V5h14v4c0 1.5957-1.6351 2.9731-4.0001 3.6151L13 15c-.6667.6667-1.6667 1-3 1z" fill="#DD5228" fill-rule="nonzero" />
    <path d="M11.9999 11.8504l.738-.2004C14.7752 11.097 16 10.012 16 9V6H4v3c0 .6669 1.389 2.2085 3.2292 2.6417L8 11.8232v2.708c.4615.3056 1.1185.4688 2 .4688s1.5385-.1632 2-.4687l-.0001-2.681z" fill="#FFF" />
    <path d="M10 9c-2.7568 0-5.1414-.9107-6.2828-2.2343C3.258 6.2332 3 5.6338 3 5c0-2.2091 3.134-4 7-4s7 1.7909 7 4c0 2.2091-3.134 4-7 4z" fill="#DD5228" fill-rule="nonzero" />
    <path d="M10 8c3.387 0 6-1.4932 6-3s-2.613-3-6-3-6 1.4932-6 3c0 .3673.1541.7412.4745 1.1127C5.432 7.223 7.5733 8 10 8z" fill="#FFF" />
  </g>
</svg>
