<svg xmlns="http://www.w3.org/2000/svg" viewBox="0 0 20 20">
  <g fill="#D7D7D7">
    <path d="M10.5 13c-.553 0-1-.448-1-1V8c0-.552.447-1 1-1 .553 0 1 .448 1 1v4c0 .552-.447 1-1 1zM10.5 14c.552 0 1 .448 1 1s-.448 1-1 1-1-.448-1-1 .448-1 1-1z" />
    <path fill-rule="evenodd" clip-rule="evenodd" d="M10.4999 1.5c-.568 0-1.088.321-1.342.829l-7 14c-.232.465-.207 1.017.066 1.46.273.442.756.711 1.276.711h14c.52 0 1.003-.269 1.276-.711.273-.443.298-.995.066-1.46l-7-14a1.5019 1.5019 0 00-1.342-.829zm0 1.5l7 14h-14l7-14z" />
  </g>
</svg>
