<svg xmlns="http://www.w3.org/2000/svg" viewBox="0 0 20 20">
  <g fill="#333333">
    <path d="M11.876 3.5L8.03 1.2083V6l3.846-2.5zM19 3h-6v1h6V3zM13 6h6v1h-6V6zM19 9h-6v1h6V9zM13 12h6v1h-6v-1zM19 15h-6v1h6v-1z" />
  </g>
  <path d="M2.6936 18L.5 16V6.5H10l2 2V18H2.6936z" fill="#333333" />
  <g fill="#FFFFFF">
    <path d="M1.8284 7.637l1.336 1.298h7.8103L9.6725 7.6328l-7.844.0042zM1.4998 15.7084V7.8993l1.3685 1.3318v7.8808l-1.3685-1.4035zM10.9753 9.2311V11L10 10H4v6l1 1.1119H3.1644V9.2311h7.8109z" />
  </g>
  <g fill="#999999">
    <path d="M9.6796 10.8027H4.942l1.295 1.2732h4.7375l-1.295-1.2732zM5.941 12.372v4.7375l-1.2393-1.2584v-4.7375L5.941 12.372zM6.2372 12.372h4.7375v4.7375H6.2372V12.372z" />
  </g>
</svg>
