<svg xmlns="http://www.w3.org/2000/svg" viewBox="0 0 20 20">
  <path fill-rule="evenodd" clip-rule="evenodd" d="M1.97 10.0061c.365.272.608.53.73.773.165.315.247.694.247 1.139v3.867c0 .401.118.734.354.999s.53.412.881.44c.229.021.376.064.44.129.093.093.14.204.14.333 0 .129-.045.236-.135.322-.089.086-.224.129-.402.129-.573 0-1.046-.183-1.418-.548-.509-.487-.763-1.089-.763-1.805v-3.867c0-.394-.12-.725-.36-.994-.239-.269-.542-.417-.907-.446-.193-.021-.331-.072-.413-.15-.083-.079-.124-.187-.124-.322 0-.143.041-.254.124-.333.082-.08.22-.129.413-.15.372-.029.677-.178.913-.446s.354-.601.354-.993l-.042-3.867c0-.674.258-1.234.688-1.682.43-.448.941-.672 1.536-.672.179 0 .313.043.402.129.09.086.135.197.135.334 0 .129-.043.236-.129.322-.071.065-.221.108-.451.13-.358.035-.653.187-.887.456-.232.268-.348.6-.348.993v3.857c0 .451-.071.816-.215 1.096-.144.28-.398.555-.763.827zm16.062-.012c-.365-.272-.608-.53-.73-.773-.165-.315-.247-.694-.247-1.139V4.215c0-.401-.118-.734-.354-.999s-.53-.412-.881-.44c-.229-.021-.376-.064-.44-.129-.093-.093-.14-.204-.14-.333 0-.129.045-.236.135-.322.089-.086.224-.129.402-.129.573 0 1.046.183 1.418.548.509.487.763 1.089.763 1.805v3.867c0 .394.12.725.36.994.239.269.542.417.907.446.193.021.331.072.413.15.083.079.124.187.124.322 0 .143-.041.254-.124.333-.082.08-.22.129-.413.15-.372.029-.677.178-.913.446s-.354.601-.354.993v3.867c0 .674-.215 1.234-.645 1.682-.43.448-.941.672-1.536.672-.179 0-.313-.043-.402-.129-.09-.086-.135-.197-.135-.334 0-.129.043-.236.129-.322.071-.064.222-.107.451-.129.358-.035.653-.188.887-.456.232-.269.349-.601.349-.993v-3.857c0-.451.071-.816.215-1.096.144-.28.396-.556.761-.828zM4 7l6-3 6 3v6l-6 3-6-3v-6zm1.559.2205L10 5l4.441 2.2205L10 9.441 5.559 7.2205zM5 8.059l4.5 2.25.001 4.4414L5 12.5001v-4.441zM10.5 10.309L15 8.059v4.4411l-4.4991 2.2495-.0008-4.4406z" fill="#333333" />
  <path fill="#333333" d="M0 0h10v8H0z" />
  <path fill-rule="evenodd" clip-rule="evenodd" d="M9 4H7v1h2V4zM6 4H4v1h2V4zM3.0005 4H1v1h2.0007l-.0002-1zM4 6h2v1H4V6zm5 1H7V6h2v1zM3.0008 6H1v1h2.001l-.0002-1z" fill="#FFFFFF" />
  <path fill-rule="evenodd" clip-rule="evenodd" d="M4 1h2v2H4V1zm3 0v2h2V1H7zM3.0001 1H1v2h2.0004l-.0003-2z" fill="#999999" />
</svg>
