<svg xmlns="http://www.w3.org/2000/svg" viewBox="0 0 20 20">
  <g fill="#FAB601">
    <path d="M10.5 13c-.553 0-1-.448-1-1V8c0-.552.447-1 1-1 .553 0 1 .448 1 1v4c0 .552-.447 1-1 1zM10.5 14c.552 0 1 .448 1 1s-.448 1-1 1-1-.448-1-1 .448-1 1-1z" />
    <path fill-rule="evenodd" clip-rule="evenodd" d="M9.158 2.329a1.5008 1.5008 0 012.684 0l7 14c.232.465.207 1.017-.066 1.46-.273.442-.756.711-1.276.711h-14c-.52 0-1.003-.269-1.276-.711a1.5033 1.5033 0 01-.066-1.46l7-14zM17.5 17l-7-14-7 14h14z" />
  </g>
</svg>
