<svg xmlns="http://www.w3.org/2000/svg" viewBox="0 0 20 20">
  <path d="M1.0457 7c1 0 2-.3333 3-1 1.5-1 2.5-3 4.5-4s4-1 5.5-1 3 1.5 3.6 5c.4 2.3333.8667 4.6667 1.4 7l-5 6h-8c-1.8237-1.977-3.157-3.977-4-6-.8429-2.023-1.1762-4.023-1-6z" fill="#333333" />
  <path fill-rule="evenodd" clip-rule="evenodd" d="M2.9688 12.6154C3.719 14.4161 4.8905 16.2115 6.4884 18h7.0889l4.384-5.2607c-.492-2.19-.9257-4.3801-1.3012-6.5703C16.1778 3.3555 15.1142 2 14.0457 2c-2.3541 0-3.5948.1654-5.0528.8944-.7238.362-1.3102.8678-2.1475 1.7813-.0325.0354-.1198.1317-.2226.245l-.0004.0004c-.1655.1825-.371.4092-.453.498-.5958.6454-1.048 1.0657-1.569 1.413-.8508.5672-1.7194.9318-2.5998 1.085-.0161 1.543.305 3.1067.9682 4.6983z" fill="#999999" />
  <path fill-rule="evenodd" clip-rule="evenodd" d="M11.0311 17.9999h-1.002c-.0583-.8749-.2698-1.752-.636-2.6329a10.8606 10.8606 0 01-.0623.0438c-.7656.5312-2.0407.9922-3.8414 1.3997a21.8549 21.8549 0 01-.6576-.8798c1.9188-.406 3.2351-.8601 3.929-1.3415a6.0155 6.0155 0 00.1983-.1437l-.022-.0436c-.3182-.6317-1.3854-2.7108-1.3572-2.6556a101.922 101.922 0 01-.3267-.6457 9.9763 9.9763 0 01-.4224.3102c-.8107.5625-2.0554 1.0518-3.7435 1.4808a14.0656 14.0656 0 01-.3746-.9369c1.6478-.4102 2.8339-.87 3.548-1.3655.1802-.125.3599-.2602.5437-.4087a16.4408 16.4408 0 01-.218-.483c-.3602-.8382-.663-2.088-.9146-3.7599.157-.1557.321-.3273.4977-.5186.0703-.0762.2317-.254.3806-.4182.2616 1.998.5833 3.437.955 4.3017.026.0602.0536.123.0833.1892.227-.2133.4666-.4489.7252-.711l.0684-.0705c.2622-.2704 1.1972-1.2346 1.4775-1.507.288-.2798.5449-.511.7835-.7002a13.8037 13.8037 0 01-.0875-.405c-.1888-.9441-.6902-2.023-1.5086-3.2304.3183-.1566.6269-.2865.9398-.3937.8233 1.2453 1.341 2.3862 1.5494 3.428l.0076.0376c1.7564-.885 3.3255-1.3689 4.7111-1.4437.0996.3022.1904.6323.2709.9907-1.329.024-2.9108.5046-4.7401 1.4523.077.2786.164.568.2608.868.2099.6508.4608 1.3385.758 2.0909.039.0988.0883.2211.1445.3592a5.5893 5.5893 0 01.3733-.2042c1.1916-.5958 2.5046-.8207 3.9292-.6777.0679.344.1372.688.208 1.032-1.3638-.1914-2.5896-.01-3.69.5402a4.2166 4.2166 0 00-.4336.2484c.1571.3783.3161.7591.4407 1.0574l.0005.0012c.1234.2954.2129.5097.233.5601.5062 1.2653 1.0077 2.2241 1.4951 2.8724l-.6547.7857c-.6027-.7418-1.1884-1.8356-1.7688-3.2867a93.6833 93.6833 0 00-.2191-.5264c-.0928-.2222-.2066-.4945-.3252-.7793-.2617.2773-.5388.6187-.8685 1.054.0653-.0861-.2717.3598-.3563.4704-.4054.5301-.7553.9437-1.1182 1.2961.4923 1.0956.7719 2.1962.8368 3.2994zm-.5128-5.203c-.2885.3771-.5426.6861-.7912.9514a829.3333 829.3333 0 00-1.2563-2.4563 87.5633 87.5633 0 01-.4312-.8554c.3066-.2786.63-.5928.986-.9537l.0916-.0944c.2898-.2987 1.1767-1.213 1.4391-1.468a12.964 12.964 0 01.3708-.3475c.0525.1767.1083.357.1676.5408.2171.6732.4751 1.3804.7796 2.1513.0623.1576.1496.3724.249.6147-.391.3632-.7766.8232-1.2514 1.4501.0614-.081-.2714.3594-.3536.467z" fill="#FFFFFF" />
</svg>
