<svg xmlns="http://www.w3.org/2000/svg" viewBox="0 0 20 20">
  <path d="M11.9196 12.1727H13.5c-.1944.9177-.6105 1.6183-1.2481 2.1019-.6376.4836-1.3792.7254-2.2248.7254-.7778 0-1.43-.1856-1.9569-.5567-.5268-.3711-.9055-.7726-1.136-1.2044-.1629-.2879-.276-.6028-.3392-.9447-.0633-.3419-.095-1.1044-.095-2.2875 0-1.183.0316-1.9455.095-2.2874.0633-.3419.1763-.6568.3391-.9447.2306-.4273.6093-.83 1.1361-1.2078C8.5971 5.1889 9.2493 5 10.0271 5c.9361 0 1.7105.2868 2.3232.8603.6127.5736.996 1.2585 1.1497 2.0547h-1.5804c-.1221-.3779-.3493-.7085-.6817-.992-.3324-.2833-.736-.425-1.2108-.425-.3527 0-.658.072-.9157.2159-.2577.144-.4612.3104-.6104.4993-.1945.252-.3267.5286-.3968.83s-.1052.9559-.1052 1.9635c0 1.0122.035 1.669.1052 1.9704.07.3014.2023.5735.3968.8164.1492.198.3527.3678.6104.5095.2578.1417.563.2125.9157.2125.8321 0 1.4629-.4476 1.8925-1.3428z" fill="#333333" />
</svg>
