<svg xmlns="http://www.w3.org/2000/svg" viewBox="0 0 20 20">
  <path fill-rule="evenodd" clip-rule="evenodd" d="M6.5 5v10h1.4499v-4.269h1.8566L11.7812 15H13.5l-2.2174-4.4406c.5773-.2059 1.0311-.5571 1.3613-1.0536.3302-.4964.4953-1.0672.4953-1.7124 0-.4484-.093-.8556-.2788-1.2217-.1859-.366-.4123-.6703-.6791-.9128C11.7046 5.2196 11.0573 5 10.2395 5H6.5zm1.4499 4.3789V6.3452h2.2764c.433 0 .7851.103 1.0563.3089.3236.2516.4854.6314.4854 1.1393 0 .4255-.1355.7962-.4067 1.1119-.2712.3157-.6779.4736-1.2203.4736H7.9499z" fill="#333333" />
</svg>
