<svg xmlns="http://www.w3.org/2000/svg" viewBox="0 0 20 20">
  <path fill-rule="evenodd" clip-rule="evenodd" d="M6.5 5v10h1.5256v-3.9053h2.3196c1.0309 0 1.8144-.3226 2.3506-.9677.5361-.6452.8042-1.3247.8042-2.0385 0-.5399-.1059-1.0146-.3176-1.4241s-.4694-.731-.7731-.9643c-.3912-.302-.7675-.4942-1.1287-.5766C10.9193 5.0412 10.5431 5 10.1519 5H6.5zm1.5256 4.6603V6.4345h2.2091c.4418 0 .8031.0938 1.0838.2813.4373.2837.6559.7276.6559 1.3316 0 .398-.1393.7664-.4177 1.105s-.7007.5079-1.2668.5079H8.0256z" fill="#333333" />
</svg>
