<svg xmlns="http://www.w3.org/2000/svg" viewBox="0 0 50 22">
  <path fill-rule="evenodd" clip-rule="evenodd" d="M39 1h-1v1.013c-4.8487.2513-8.7356 4.1383-8.9871 8.987H24V2L3 7v4H1v1h2v4l21 5v-9h5.0129c.2515 4.8487 4.1384 8.7356 8.9871 8.9871V22h1v-1.0129c4.8487-.2515 8.7356-4.1384 8.9871-8.9871H50v-1h-2.0129C47.7356 6.1513 43.8487 2.2644 39 2.013V1zm0 18v.9855c4.2962-.2492 7.7363-3.6893 7.9855-7.9855H46v-1h.9855C46.7363 6.7038 43.2962 3.2637 39 3.0145V4h-1v-.9855c-4.2962.2492-7.7363 3.6893-7.9855 7.9855H31v1h-.9855c.2492 4.2962 3.6893 7.7363 7.9855 7.9855V19h1zM23.0026 3.3l-.0012 7.7H22v1h1.0012L23 19.7 4.0005 15.1971 4.0023 12H5v-1h-.9971l.0018-3.2 18.9979-4.5zM38 15.9725c-2.0858-.2305-3.742-1.8867-3.9725-3.9725H33v-1h1.0275C34.258 8.9142 35.9142 7.258 38 7.0275V6h1v1.0275c2.0858.2305 3.742 1.8867 3.9725 3.9725H44v1h-1.0275c-.2305 2.0858-1.8867 3.742-3.9725 3.9725V17h-1v-1.0275zm1-1.0079V14h-1v.9646c-1.5328-.2193-2.7453-1.4318-2.9646-2.9646H36v-1h-.9646C35.2547 9.4672 36.4672 8.2547 38 8.0354V9h1v-.9646c1.5328.2193 2.7453 1.4318 2.9646 2.9646H41v1h.9646c-.2193 1.5328-1.4318 2.7453-2.9646 2.9646zM39 10v1h1v1h-1v1h-1v-1h-1v-1h1v-1h1zm-19 1h-2v1h2v-1zm-9 0h5v1h-5v-1zm-2 0H7v1h2v-1z" fill="#333333" />
</svg>
