<svg xmlns="http://www.w3.org/2000/svg" viewBox="0 0 20 20">
  <g fill-rule="evenodd" clip-rule="evenodd">
    <path d="M5.2764 2.0528l-4 2a.5.5 0 00.4472.8944l4-2a.5.5 0 10-.4472-.8944zM19 17h-4a.5.5 0 100 1h4a.5.5 0 000-1zM5.3096 13.0376l8.5-3.5a.5.5 0 11.3808.9247l-8.5 3.5a.5.5 0 11-.3808-.9247z" fill="#999999" />
    <path d="M6.9326 2.9458C6.7428 3.5565 6.1732 4 5.5 4 4.6716 4 4 3.3284 4 2.5S4.6716 1 5.5 1c.434 0 .825.1843 1.0989.479.609-.0961 1.2205-.1316 1.811-.0824 1.5951.133 2.8046.8751 3.3016 2.3662.3357 1.007-.0429 1.9522-.9497 2.9337-.4974.5384-.749.7527-2.22 1.9483-1.8491 1.5028-2.7112 2.4689-2.7396 3.3857C6.4858 12.1703 7 12.7751 7 13.5c0 .1932-.0365.3779-.103.5475.7879.7792 1.8608 1.3893 3.1622 1.842 1.0219.3555 2.1212.5922 3.2256.7309A1.498 1.498 0 0114.5 16c.8284 0 1.5.6716 1.5 1.5s-.6716 1.5-1.5 1.5c-.6101 0-1.1352-.3643-1.3695-.8872-1.2124-.1502-2.4231-.4097-3.564-.8065-1.5667-.545-2.8792-1.3061-3.8532-2.3213A1.5156 1.5156 0 015.5 15c-.8284 0-1.5-.6716-1.5-1.5 0-.3389.1124-.6515.302-.9027-.3602-1.6494.791-3.0824 3.2937-5.1165C8.991 6.3466 9.234 6.1398 9.66 5.6785c.575-.6224.7531-1.067.6284-1.4413-.2823-.8468-.9527-1.2582-2.0031-1.3457-.4276-.0357-.8872-.0128-1.3527.0543z" fill="#333333" />
  </g>
</svg>
