<svg xmlns="http://www.w3.org/2000/svg" viewBox="0 0 10 10">
  <g fill-rule="evenodd" clip-rule="evenodd">
    <path d="M4.5008 1.0309C2.5272 1.2765 1 2.9599 1 5c0 2.0398 1.5267 3.723 3.4999 3.969H5.5C7.4733 8.723 9 7.0398 9 5c0-2.0402-1.5272-3.7235-3.5008-3.9692h-.9984z" fill="#769FCC" />
    <path d="M4.5 1.5h1v-1l-.0011.5308a4.0399 4.0399 0 00-.9987.0001L4.5.5v1zm0 7v.469a4.0405 4.0405 0 001 0V8.5h-1zm0-5.5V2h1v1h-1zM5 6.5c.8284 0 1.5-.6716 1.5-1.5S5.8284 3.5 5 3.5 3.5 4.1716 3.5 5 4.1716 6.5 5 6.5zm-.5 1.5234V7.0156h1v1.0078h-1z" fill="#fff" />
  </g>
</svg>
