<svg xmlns="http://www.w3.org/2000/svg" viewBox="0 0 10 10">
  <path fill-rule="evenodd" clip-rule="evenodd" d="M.5 2a.5.5 0 01.5-.5h2.25a.5.5 0 01.4.2l.6.8H9a.5.5 0 01.5.5v5a.5.5 0 01-.5.5H1A.5.5 0 01.5 8V2zM1 2h2.25L4 3h5v5H1V2zm5.4142 4.9142c-.781.781-2.0474.781-2.8284 0-.781-.781-.781-2.0474 0-2.8284.781-.781 2.0474-.781 2.8284 0 .781.781.781 2.0474 0 2.8284zm-.545-.1914c-.5858.4174-1.4043.3634-1.9299-.1621-.5255-.5256-.5795-1.3441-.162-1.93l2.092 2.092zM4.1308 4.2772l2.092 2.092c.4174-.5858.3634-1.4043-.1621-1.9299-.5256-.5255-1.3441-.5796-1.93-.162z" fill="#333" />
</svg>
