<svg xmlns="http://www.w3.org/2000/svg" viewBox="0 0 20 20">
  <g fill-rule="evenodd" clip-rule="evenodd">
    <path d="M1.4444 2C1.199 2 1 2.1919 1 2.4286v5.1428C1 7.8081 1.199 8 1.4444 8h7.1112C8.801 8 9 7.8081 9 7.5714V3.2857c0-.2367-.199-.4286-.4444-.4286H4.7778l-.5334-.6857A.4502.4502 0 003.889 2H1.4444zm10 0C11.199 2 11 2.1919 11 2.4286v5.1428c0 .2367.199.4286.4444.4286h7.1112C18.801 8 19 7.8081 19 7.5714V3.2857c0-.2367-.199-.4286-.4444-.4286h-3.7778l-.5334-.6857A.45.45 0 0013.8889 2h-2.4445zM1 12.4286c0-.2367.199-.4286.4444-.4286H3.889a.4502.4502 0 01.3555.1714l.5334.6857h3.7778c.2454 0 .4444.1919.4444.4286v4.2857c0 .2367-.199.4286-.4444.4286H1.4444C1.199 18 1 17.8081 1 17.5714v-5.1428zM11.4444 12c-.2454 0-.4444.1919-.4444.4286v5.1428c0 .2367.199.4286.4444.4286h7.1112c.2454 0 .4444-.1919.4444-.4286v-4.2857c0-.2367-.199-.4286-.4444-.4286h-3.7778l-.5334-.6857A.45.45 0 0013.8889 12h-2.4445z" fill="#FFFFFF" />
    <path d="M3.7443 2.75l.6667.8571H8.25V7.25h-6.5v-4.5h1.9943zm.5001-.5786l.5334.6857h3.7778c.2454 0 .4444.192.4444.4286v4.2857C9 7.8081 8.801 8 8.5556 8H1.4444C1.199 8 1 7.8081 1 7.5714V2.4286C1 2.1919 1.199 2 1.4444 2H3.889a.4502.4502 0 01.3555.1714zm9.4999.5786l.6667.8571h3.839V7.25h-6.5v-4.5h1.9943zm.5001-.5786l.5334.6857h3.7778c.2454 0 .4444.192.4444.4286v4.2857c0 .2367-.199.4286-.4444.4286h-7.1112C11.199 8 11 7.8081 11 7.5714V2.4286c0-.2367.199-.4286.4444-.4286h2.4445a.45.45 0 01.3555.1714zM4.411 13.6071l-.6667-.8571H1.75v4.5h6.5v-3.6429H4.411zm.3668-.75l-.5334-.6857A.4502.4502 0 003.889 12H1.4444C1.199 12 1 12.1919 1 12.4286v5.1428c0 .2367.199.4286.4444.4286h7.1112C8.801 18 9 17.8081 9 17.5714v-4.2857c0-.2367-.199-.4286-.4444-.4286H4.7778zm8.9665-.1071l.6667.8571h3.839V17.25h-6.5v-4.5h1.9943zm.5001-.5786l.5334.6857h3.7778c.2454 0 .4444.1919.4444.4286v4.2857c0 .2367-.199.4286-.4444.4286h-7.1112C11.199 18 11 17.8081 11 17.5714v-5.1428c0-.2367.199-.4286.4444-.4286h2.4445a.45.45 0 01.3555.1714z" fill="#333333" />
  </g>
</svg>
