<svg xmlns="http://www.w3.org/2000/svg" viewBox="0 0 20 20">
  <g fill-rule="evenodd" clip-rule="evenodd">
    <path d="M10 3h10v1H10V3zm0 3h8v1h-8V6zm10 7H10v1h10v-1zm-10 3h8v1h-8v-1z" fill="#666666" />
    <path d="M.4444 2C.199 2 0 2.1919 0 2.4286v5.1428C0 7.8081.199 8 .4444 8h7.1112C7.801 8 8 7.8081 8 7.5714V3.2857c0-.2367-.199-.4286-.4444-.4286H3.7778l-.5334-.6857A.4502.4502 0 002.889 2H.4444zm0 10C.199 12 0 12.1919 0 12.4286v5.1428C0 17.8081.199 18 .4444 18h7.1112C7.801 18 8 17.8081 8 17.5714v-4.2857c0-.2367-.199-.4286-.4444-.4286H3.7778l-.5334-.6857A.4502.4502 0 002.889 12H.4444z" fill="#FFFFFF" />
    <path d="M2.7443 2.75l.6667.8571H7.25V7.25H.75v-4.5h1.9943zm.5001-.5786l.5334.6857h3.7778c.2454 0 .4444.192.4444.4286v4.2857C8 7.8081 7.801 8 7.5556 8H.4444C.199 8 0 7.8081 0 7.5714V2.4286C0 2.1919.199 2 .4444 2H2.889a.4502.4502 0 01.3555.1714zM2.7443 12.75l.6667.8571H7.25V17.25H.75v-4.5h1.9943zm.5001-.5786l.5334.6857h3.7778c.2454 0 .4444.1919.4444.4286v4.2857c0 .2367-.199.4286-.4444.4286H.4444C.199 18 0 17.8081 0 17.5714v-5.1428C0 12.1919.199 12 .4444 12H2.889a.4502.4502 0 01.3555.1714z" fill="#333333" />
  </g>
</svg>
