<svg xmlns="http://www.w3.org/2000/svg" viewBox="0 0 20 20">
  <g fill="#333333">
    <path d="M7.5501 5.2533a1 1 0 00-1.2763.115l-.117.117 9.1924 9.1924.117-.117a1 1 0 00.1151-1.2763l-2.0704-2.9905c-.3394-.4904-.1808-1.1712.3251-1.487 1.4116-.8813 3.9884-2.6857 5.0168-4.673a.6284.6284 0 00.0522-.131c.2673-1.029-1.0443-2.3406-2.0733-2.0733a.6328.6328 0 00-.1311.0521c-1.9873 1.0285-3.7916 3.6052-4.6729 5.0168-.3159.506-.9967.6646-1.487.3251L7.5501 5.2533zM14.6421 15.3848L5.4498 6.1924S3.3283 8.3137.5 9.728l2.4749 2.4748c1.3388.6109 3.8388-.8891 3.8388-.8891s-1.7175 1.5962-2.7782 1.9498l5.6569 5.6568c2.1213-.7071 4.9497-3.5355 4.9497-3.5355z" />
  </g>
</svg>
