<svg xmlns="http://www.w3.org/2000/svg" viewBox="0 0 20 20">
  <path fill-rule="evenodd" clip-rule="evenodd" d="M17.0374 2.3013a1.1246 1.1246 0 011.566.0329l.0652.0658c.4289.4325.4433 1.129.0326 1.5791L7.926 15.5811c-.0023.358-.1053.7316-.3292 1.1129-.6752 1.15-2.5005 1.8408-5.119.7815-.468-.1893-.9612-.4345-1.4778-.743 0 0 .7007-.014 1.3893-.5397.2603-.1987.5188-.4705.7371-.8423.6591-1.1225 1.4922-2.358 2.5225-2.2937L17.0374 2.3013zM8.6361 13.2578l-.8-.8067-.8.8067.8.8067.8-.8067zm-2.0128 2.8549c-.2383.4059-1.1922 1.0979-3.061.5445a4.1456 4.1456 0 00.5376-.7254c.4034-.687.7793-1.2448 1.1437-1.5538.1688-.1431.2697-.1745.3065-.1808l.0015-.0003c.0134-.0025.0638-.012.188.0622.5453.3256.8555.6811.9816.9738.1022.2374.1215.5063-.0979.8798z" fill="#333333" />
</svg>
