<svg xmlns="http://www.w3.org/2000/svg" viewBox="0 0 20 20">
  <path fill-rule="evenodd" clip-rule="evenodd" d="M9.9668 14.8318c.0642.2565.0353.4937-.0866.7118-.122.218-.305.3591-.5489.4232-.2567.0642-.4942.0353-.7124-.0865-.2183-.1219-.3595-.3047-.4237-.5483-.0513-.154-.1027-.3399-.154-.558a198.1399 198.1399 0 01-.183-.6445 43.0948 43.0948 0 01-.2214-.8176H4.3632a19.228 19.228 0 00-.231.8176c-.0643.2501-.122.465-.1734.6445-.0513.2181-.1027.404-.154.558-.0642.2436-.2054.4264-.4237.5483-.2182.1218-.4557.1507-.7124.0865-.244-.0641-.4269-.2052-.5488-.4232-.122-.2181-.1509-.4553-.0867-.7118l3.081-11.1584c.0514-.2053.1573-.3688.3177-.4906C5.5924 3.0609 5.7818 3 6 3c.2182 0 .4076.061.568.1828.1605.1218.2664.2853.3178.4906l3.081 11.1584zm5.1711-4.7948V8.9472c0-.2193-.062-.4215-.1862-.6066a1.0532 1.0532 0 00-.4965-.401c-.2069-.0822-.4207-.1027-.6414-.0616-.2207.0411-.4069.144-.5586.3084-.1793.1782-.3966.2673-.6518.2673-.2551 0-.4724-.089-.6517-.2673-.1931-.1919-.2896-.4112-.2896-.658 0-.2467.0965-.466.2896-.658.4276-.4249.9311-.6956 1.5104-.8121.5793-.1166 1.1448-.0583 1.6965.1747.5655.233 1.0138.593 1.3448 1.0795.3311.4867.4966 1.0316.4966 1.6347v6.1275c0 .2605-.0897.4798-.269.658-.1793.1782-.4.2673-.662.2673H14c-.4138 0-.8034-.0788-1.169-.2365-.3655-.1576-.6827-.3701-.9517-.6374s-.4827-.5826-.6414-.9458C11.0793 13.817 11 13.4297 11 13.0185c0-.4112.0793-.7985.2379-1.1617.1587-.3633.3724-.6786.6414-.9459.269-.2673.5862-.4798.9517-.6374.3656-.1577.7552-.2365 1.169-.2365h1.1379zM10 17v1H2v-1h8zm3.1931-4.7834c.2207-.2193.4897-.329.8069-.329h1.1379v2.2618H14c-.3172 0-.5862-.1096-.8069-.329-.2207-.2193-.331-.4866-.331-.8019 0-.3153.1103-.5826.331-.8019zM6.5584 9.4065c.1926.7054.3787 1.3916.5585 2.0585H4.883c.1798-.6669.3659-1.3531.5585-2.0585C5.634 8.701 5.8203 8.034 6 7.4056c.1797.6285.3659 1.2954.5584 2.0009z" fill="#333333" />
</svg>
