<svg xmlns="http://www.w3.org/2000/svg" viewBox="0 0 20 20">
  <path fill-rule="evenodd" clip-rule="evenodd" d="M4.5 1a.5.5 0 00-.5.5v2a.5.5 0 001 0v-2a.5.5 0 00-.5-.5zM6 3h4v.5c0 .8284.6716 1.5 1.5 1.5S13 4.3284 13 3.5V3h1c.5523 0 1 .4477 1 1v5.0224a5.5712 5.5712 0 00-1 0V6H2v8h7.0224A5.5712 5.5712 0 009 14.5c0 .52.0722 1.0232.207 1.5H2c-.5523 0-1-.4477-1-1V4c0-.5523.4477-1 1-1h1v.5C3 4.3284 3.6716 5 4.5 5S6 4.3284 6 3.5V3zM3 9V7h2v2H3zm2 4v-2H3v2h2zm2-6h2v2H7V7zm2 4H7v2h2v-2zm4-4v2h-2V7h2zm-2-5.5a.5.5 0 011 0v2a.5.5 0 01-1 0v-2zm8 13c0 2.4853-2.0147 4.5-4.5 4.5S10 16.9853 10 14.5s2.0147-4.5 4.5-4.5 4.5 2.0147 4.5 4.5zM14.5 18c1.933 0 3.5-1.567 3.5-3.5S16.433 11 14.5 11 11 12.567 11 14.5s1.567 3.5 3.5 3.5zm.5-4v-2.5h-1V15h3v-1h-2z" fill="#333333" />
</svg>
