<svg xmlns="http://www.w3.org/2000/svg" viewBox="0 0 20 20">
  <g fill-rule="evenodd" clip-rule="evenodd">
    <path d="M7.3429 18.1201l-3.4265-3.4388C3.365 14.3252 3 13.7052 3 13V3c0-1.1046.8954-2 2-2h7.9996l4.0005 4L17 9h-6v2h2l4 4v4H9c-.6895 0-1.2975-.3489-1.6571-.8799z" fill="#333333" />
    <path d="M11 15v-3h1.5l3 3H11z" fill="#D7D7D7" />
    <path d="M16 5.5H9c-.8285 0-1.5.6716-1.5 1.5v9.9032A1.5742 1.5742 0 009 18h7v-2.5h-5.5V8H16V5.5z" fill="#999999" />
    <path d="M7 7.5l-3-3V13c0 .3516.1807.6615.459.8413l.09.0582L7 16.3593V7.5zM15.5858 5H9.2071L6.3535 2.1465 6.2072 2h6.3787l3 3zM6 2.5L5.5 2H5c-.5523 0-1 .4477-1 1v.793l.3536.3535 2.656 2.656c.0845-.8612.7152-1.5622 1.541-1.7518L6 2.5z" fill="#D7D7D7" />
  </g>
</svg>
