<svg xmlns="http://www.w3.org/2000/svg" viewBox="0 0 20 20">
  <path fill-rule="evenodd" clip-rule="evenodd" d="M20 3.6364h-3.6667V0H7.4L4 3.3719v5.711A6.0393 6.0393 0 015 9c3.314 0 6 2.687 6 6a6.047 6.047 0 01-.0829 1H16.6l3.4-3.3719V3.6364z" fill="#333333" />
  <path fill-rule="evenodd" clip-rule="evenodd" d="M5 8.25V9c3.314 0 6 2.687 6 6h.75V8.25H5z" fill="#666666" />
  <path fill-rule="evenodd" clip-rule="evenodd" d="M11.75 7.75v-3.5H5v3.5h6.75zm.5 7.25h3.5V8.25h-3.5V15zm4-.0613L19 12.2115v-6.858l-2.75 2.75v6.8352zM19 4.6465v-.0101h-3.2828L12.6036 7.75h3.2928L19 4.6465zm-3.6667-.3334V1.0202L12.25 4.1036v3.2929l3.0833-3.0834zM14.6465 1H7.8118l-2.773 2.75h6.8577l2.75-2.75z" fill="#FFFFFF" />
  <path d="M5 10c-2.762 0-5 2.2389-5 5 0 2.762 2.238 5.0009 5 5.0009S10 17.762 10 15c0-2.7611-2.238-5-5-5z" fill="#333333" />
  <path fill-rule="evenodd" clip-rule="evenodd" d="M7.501 13.3832l-1.6164 1.6163 1.6163 1.6164V17.5h-.884l-1.6164-1.6164L3.384 17.5H2.5v-.8841l1.6163-1.6164L2.5 13.3832V12.5h.8841l1.6164 1.6164L6.6168 12.5h.8841v.8832z" fill="#FFFFFF" />
</svg>
