<svg xmlns="http://www.w3.org/2000/svg" viewBox="0 0 20 20">
  <g fill="#BD3039">
    <path d="M5 3h1V1H4c-1.1046 0-2 .8954-2 2v5c0 .5523-.4477 1-1 1H0v2h1c.5523 0 1 .4477 1 1v5c0 1.1046.8954 2 2 2h2v-2H5c-.5523 0-1-.4477-1-1v-4.882a1 1 0 00-.5528-.8944L3 10l.4472-.2236A1 1 0 004 8.882V4c0-.5523.4477-1 1-1zM15 17h-1v2h2c1.1046 0 2-.8954 2-2v-5c0-.5523.4477-1 1-1h1V9h-1c-.5523 0-1-.4477-1-1V3c0-1.1046-.8954-2-2-2h-2v2h1c.5523 0 1 .4477 1 1v4.882a1 1 0 00.5528.8944L17 10l-.4472.2236A1 1 0 0016 11.118V16c0 .5523-.4477 1-1 1zM8.4566 4.0909C8.4032 3.5051 8.8643 3 9.4525 3h1.095c.5882 0 1.0493.5052.9958 1.0909l-.6804 7.4545A.5.5 0 0110.365 12h-.73a.5.5 0 01-.498-.4546l-.6804-7.4545zM12 15c0 1.1046-.8954 2-2 2s-2-.8954-2-2 .8954-2 2-2 2 .8954 2 2z" />
  </g>
</svg>
