<svg xmlns="http://www.w3.org/2000/svg" viewBox="0 0 20 20">
  <g fill="#333333">
    <path d="M6 3H5c-.5523 0-1 .4477-1 1v4.882a1 1 0 01-.5528.8944L3 10l.4472.2236A1 1 0 014 11.118V16c0 .5523.4477 1 1 1h1v2H4c-1.1046 0-2-.8954-2-2v-5c0-.5523-.4477-1-1-1H0V9h1c.5523 0 1-.4477 1-1V3c0-1.1046.8954-2 2-2h2v2zM14 17h1c.5523 0 1-.4477 1-1v-4.882a1 1 0 01.5528-.8944L17 10l-.4472-.2236A1 1 0 0116 8.882V4c0-.5523-.4477-1-1-1h-1V1h2c1.1046 0 2 .8954 2 2v5c0 .5523.4477 1 1 1h1v2h-1c-.5523 0-1 .4477-1 1v5c0 1.1046-.8954 2-2 2h-2v-2z" />
    <path d="M13.1485 6.0923a.2861.2861 0 01.421 0l1.3432 1.387c.1164.1224.1164.3212 0 .4437l-5.8045 5.9887c-.0706.0744-.1662.0987-.2577.0844-.089.0125-.181-.0125-.2494-.0844l-3.513-3.7837c-.1175-.1244-.1175-.3257 0-.4494l1.354-1.3994a.292.292 0 01.427 0l1.9701 2.1013 4.3093-4.2882z" />
  </g>
</svg>
