<svg xmlns="http://www.w3.org/2000/svg" viewBox="0 0 20 20">
  <circle cx="10" cy="10" r="10" fill="#333333" />
  <path d="M11.4526 7.754a2865.9134 2865.9134 0 00-.5291 2.9781c-.1488.841-.3272 1.7202-.5351 2.6377-.102.4494-.2702.8907-.5046 1.324-.2345.4332-.5107.8074-.8288 1.1224-.3343.3336-.6962.5931-1.0856.7785-.3894.1853-.79.278-1.2018.278-.371 0-.6718-.0417-.9022-.1251-.2303-.0834-.4108-.19-.5412-.3197-.1264-.1298-.212-.2734-.257-.431A1.6946 1.6946 0 015 15.5313c0-.2688.0846-.5062.2538-.7124.1692-.2062.3966-.3093.682-.3093.2202 0 .4108.066.5718.1981.1611.132.2987.2907.4129.4761.1142.1807.215.3822.3027.6046.0877.2224.156.3962.205.5213.1712-.2131.3322-.534.4831-.9626.1509-.4286.2915-.9997.422-1.7132l1.0948-5.88H8.2416l.1468-.7158h1.1743l.104-.5352c.0856-.4355.2416-.863.4679-1.2823.2263-.4193.5005-.7935.8226-1.1225a3.8861 3.8861 0 011.0734-.7923C12.4363 3.102 12.843 3 13.2508 3c.3547 0 .6493.0382.8838.1147.2344.0764.4189.1818.5535.3162.1223.1251.2049.2653.2477.4205.0428.1552.0642.3093.0642.4622 0 .102-.0173.2154-.052.3406a1.0624 1.0624 0 01-.1621.3405c-.0897.1159-.1845.2062-.2844.271-.0999.065-.2456.0974-.4373.0974-.2202 0-.4098-.066-.5688-.1981a1.869 1.869 0 01-.4037-.4691 3.4372 3.4372 0 01-.2997-.6117 19.6971 19.6971 0 00-.2018-.5212c-.1672.2177-.318.5351-.4526.9522-.1345.417-.2732.9915-.4159 1.7236l-.1529.7993h1.5474l-.1468.7159h-1.5168z" fill="#FFFFFF" />
</svg>
