<svg xmlns="http://www.w3.org/2000/svg" viewBox="0 0 20 20">
  <path d="M11.7431 7.7047a3377.218 3377.218 0 00-.6348 3.5739c-.1786 1.0091-.3927 2.0642-.6422 3.1651-.1224.5393-.3242 1.0689-.6056 1.5888-.2813.5199-.6128.9689-.9944 1.347-.4013.4003-.8355.7117-1.3028.9341-.4673.2224-.948.3336-1.4422.3336-.4453 0-.8061-.05-1.0826-.1501-.2764-.1001-.493-.228-.6495-.3837-.1517-.1557-.2544-.328-.3083-.5171C4.027 17.4073 4 17.221 4 17.0375c0-.3225.1015-.6074.3046-.8548.203-.2475.4758-.3712.8183-.3712.2643 0 .493.0792.6863.2377.1932.1585.3584.3489.4954.5713.137.2169.258.4587.3633.7256.1052.2669.1871.4754.2459.6255.2055-.2557.3987-.6408.5798-1.1551.181-.5143.3498-1.1996.5064-2.0559l1.3138-7.0559H7.8899l.1762-.859h1.4091L9.6 6.2035c.1028-.5227.29-1.0356.5615-1.5388.2715-.5032.6006-.9522.9871-1.347.3719-.3891.8012-.706 1.2881-.9507.4868-.2447.9749-.367 1.4642-.367.4257 0 .7792.0459 1.0606.1376.2813.0918.5027.2183.6642.3795.1468.1501.2459.3183.2972.5046.0514.1862.0771.3711.0771.5546 0 .1223-.0208.2586-.0624.4087a1.276 1.276 0 01-.1945.4087c-.1076.139-.2214.2474-.3413.3252-.1198.0779-.2948.1168-.5247.1168-.2643 0-.4918-.0792-.6826-.2377a2.242 2.242 0 01-.4844-.563 4.112 4.112 0 01-.3596-.734 23.9815 23.9815 0 00-.2422-.6254c-.2007.2613-.3817.6422-.5432 1.1426-.1614.5004-.3278 1.1899-.499 2.0684l-.1835.9591h1.8568l-.1761.859h-1.8202z" fill="#BD3039" />
</svg>
