<svg xmlns="http://www.w3.org/2000/svg" viewBox="0 0 20 20">
  <path fill-rule="evenodd" clip-rule="evenodd" d="M11.8438 7.2188a2755.3672 2755.3672 0 00-.6758 3.3476c-.1901.9453-.418 1.9336-.6836 2.9648-.1302.5053-.345 1.0013-.6445 1.4883-.2995.487-.6524.9076-1.0586 1.2617-.4271.3751-.8893.6667-1.3867.875-.4974.2084-1.0091.3126-1.5352.3126-.474 0-.858-.0469-1.1523-.1407-.2943-.0937-.5248-.2135-.6914-.3593-.1615-.1459-.2709-.3073-.3282-.4844-.0573-.1771-.0859-.3516-.0859-.5235 0-.302.108-.569.3242-.8007.2162-.2318.5065-.3477.8711-.3477.2813 0 .5248.0742.7305.2227.2057.1484.3815.3268.5273.5351.1459.2031.2748.4297.3867.6797.112.25.1993.4453.2618.5859.2187-.2395.4244-.6002.6172-1.082.1927-.4818.3723-1.1237.539-1.9258l1.3984-6.6093H7.7422l.1875-.8047h1.5l.1328-.6016c.1094-.4896.3086-.97.5977-1.4414a5.6803 5.6803 0 011.0508-1.2617c.3958-.3646.8528-.6615 1.3711-.8906.5182-.2292 1.0377-.3438 1.5586-.3438.4531 0 .8294.043 1.1289.129.2994.0858.5351.2043.707.3554.1562.1406.2617.2982.3164.4726.0547.1745.082.3477.082.5196 0 .1145-.0221.2422-.0664.3828a1.1394 1.1394 0 01-.207.3828c-.1146.1302-.2357.2318-.3633.3047-.1276.0729-.3138.1094-.5586.1094-.2812 0-.5234-.0743-.7265-.2227a2.2022 2.2022 0 01-.5157-.5274 3.6901 3.6901 0 01-.3828-.6875 20.5968 20.5968 0 00-.2578-.5859c-.2135.2448-.4062.6016-.5781 1.0703-.1719.4688-.349 1.1146-.5313 1.9375l-.1953.8985h1.9766l-.1875.8046h-1.9375zm4.6561 10.779c2.1235-4.9491 2.2283-9.9094.3927-14.996.115 0 .2287-.0005.3415-.001.3533-.0013.6974-.0026 1.0414.0097.0636.0025.1447.1038.1858.1876 1.2906 2.6152 1.7345 5.4706 1.4614 8.5624-.1982 2.2588-.9676 4.1849-1.8691 6.0522-.0424.0888-.1472.1739-.2245.1764-.307.0129-.6154.0115-.9578.0099a72.8392 72.8392 0 00-.3714-.0012zm-12.9994.0013c-2.1142-4.9464-2.2237-9.909-.387-14.9903H1.9077c-.0163 0-.0335-.0021-.0506-.0042-.039-.0048-.078-.0096-.1075.0104-.0784.0538-.1667.1188-.2127.2126C-.0908 6.5897-.3858 10.1869.4654 13.9805c.259 1.1554.725 2.1727 1.1907 3.1892.0982.2144.1964.4287.2926.6443.0336.0763.1046.1751.1593.1763.338.0115.6766.0105 1.0463.0094.1122-.0003.2274-.0006.3462-.0006z" fill="#333333" />
</svg>
