<svg xmlns="http://www.w3.org/2000/svg" viewBox="0 0 20 20">
  <g fill="none" fill-rule="evenodd">
    <g fill="#999">
      <path d="M16.8542 15.5379c-.052.092-.056.253-.015.333l.621 1.192c.131.253.081.599-.116.805 0 0-.12.126-.318.298-.197.171-.339.274-.338.274-.232.168-.581.169-.813.004l-1.096-.779c-.074-.053-.234-.072-.318-.038l-.434.146c-.102.028-.218.139-.246.225l-.404 1.282c-.087.275-.371.48-.659.477l-.837-.058c-.3-.038-.554-.291-.6-.565l-.224-1.325c-.014-.082-.121-.218-.198-.251l-.411-.204c-.091-.052-.253-.056-.333-.014l-1.192.621c-.253.13-.599.081-.805-.116 0 0-.126-.121-.298-.318s-.274-.339-.275-.339c-.167-.232-.169-.58-.004-.813l.78-1.096c.052-.074.071-.234.037-.318l-.145-.434c-.032-.114-.146-.221-.226-.246l-1.282-.404c-.264-.084-.479-.382-.476-.659l.058-.837c.038-.3.28-.552.564-.601l1.325-.224c.089-.014.216-.115.251-.198l.205-.411c.051-.091.055-.253.013-.334l-.621-1.191c-.13-.253-.081-.599.116-.805 0 0 .121-.126.318-.298s.339-.274.339-.274c.232-.167.58-.169.813-.004l1.096.78c.074.053.234.072.318.038l.434-.146c.102-.029.218-.139.246-.226l.404-1.282c.087-.274.371-.48.659-.476l.837.058c.173.022.329.109.443.239.084.097.138.21.158.326l.224 1.326c.013.083.121.218.198.251l.411.204c.091.052.253.054.333.013l1.193-.621c.253-.131.599-.082.804.115 0 0 .127.121.298.318.172.197.274.339.274.339.167.232.169.581.004.813l-.779 1.096c-.054.074-.072.234-.038.318l.145.434c.033.115.146.222.226.246l1.282.405c.264.084.479.381.477.658l-.059.837c-.037.301-.28.553-.564.601l-1.325.224c-.089.015-.216.116-.251.198l-.204.411zm-5.866-.9852c.784.901 2.157.996 3.058.212.902-.785.997-2.157.212-3.059-.784-.901-2.157-.996-3.058-.212-.901.785-.997 2.157-.212 3.059z" />
      <path d="M3.3132 8.4609v.002l-.253-.198c-.039-.034-.121-.053-.155-.043l-.895.251c-.223.063-.486-.038-.611-.233l-.285-.511c-.118-.239-.052-.503.114-.656l.682-.632c.017-.015.044-.074.046-.124l-.038-.334c-.003-.051-.048-.122-.079-.14l-.811-.455c-.173-.097-.29-.309-.285-.513.001-.013.006-.065.008-.078 0 0 .022-.122.073-.3.05-.178.094-.294.094-.294.082-.213.316-.367.544-.359l.93.036c.036.001.111-.036.132-.066l.198-.253c.024-.028.044-.077.046-.127l-.255-.924c-.061-.218.043-.49.233-.611l.51-.286c.222-.108.499-.056.657.114l.631.683c.025.025.104.052.139.046l.319-.038c.051-.003.122-.048.14-.079l.455-.811c.112-.199.365-.318.591-.276 0 0 .121.022.299.073.178.05.294.095.294.095.211.08.366.312.36.539l-.036.933c-.001.038.037.112.066.132l.254.199c.039.034.12.053.155.043l.894-.251c.223-.064.486.037.611.232l.287.51c.117.238.052.503-.114.657l-.682.631c-.018.015-.045.074-.047.124l.039.335c.003.05.048.121.079.139l.811.456c.173.097.291.307.285.512-.001.014-.006.065-.009.079 0 0-.022.121-.072.299-.051.178-.095.294-.095.294-.081.214-.316.368-.544.359l-.929-.035c-.037-.001-.112.036-.133.065l-.198.254c-.024.027-.044.076-.045.126l.254.923c.061.217-.043.49-.232.611l-.511.286c-.222.108-.499.057-.657-.114l-.631-.682c-.024-.026-.104-.052-.139-.046l-.32.037c-.051.003-.122.048-.14.079l-.455.811c-.111.199-.365.318-.59.277 0 0-.122-.023-.3-.073-.178-.051-.294-.095-.294-.095-.211-.08-.366-.313-.359-.539l.035-.934c.001-.037-.036-.111-.066-.132zm.429-2.761c-.024.826.63 1.519 1.457 1.542.826.024 1.518-.63 1.542-1.457.023-.826-.631-1.518-1.457-1.542-.826-.023-1.518.631-1.542 1.457z" />
    </g>
    <path d="M16.6648 2H13V0h7.0026v7H18.002l-.0014-3.6653L13.3352 8 12 6.6648 16.6648 2z" fill="#333" fill-rule="nonzero" />
  </g>
</svg>
