<svg xmlns="http://www.w3.org/2000/svg" viewBox="0 0 20 20">
  <path fill-rule="evenodd" clip-rule="evenodd" d="M3.3792 8.0928l-.035.934c-.007.226.148.459.359.539 0 0 .116.044.294.095.178.05.3.073.3.073.225.041.479-.078.59-.277l.455-.811c.018-.031.089-.076.14-.079l.32-.037c.035-.006.115.02.139.046l.631.682c.158.171.435.222.657.114l.511-.286c.1097-.0702.1908-.1917.2275-.3236a.6449.6449 0 00.0565.1596l.621 1.191c.042.081.038.243-.013.334l-.205.411c-.035.083-.162.184-.251.198l-1.325.224c-.284.049-.526.301-.564.601l-.058.837c-.003.277.212.575.476.659l1.282.404c.08.025.194.132.226.246l.145.434c.034.084.015.244-.037.318l-.78 1.096c-.165.233-.163.581.004.813a.2495.2495 0 01.0091.0119v.0001c.0287.0381.1232.1636.2659.327.172.197.298.318.298.318.206.197.552.246.805.116l1.192-.621c.08-.042.242-.038.333.014l.411.204c.077.033.184.169.198.251l.224 1.325c.046.274.3.527.6.565l.837.058c.288.003.572-.202.659-.477l.404-1.282c.028-.086.144-.197.246-.225l.434-.146c.084-.034.244-.015.318.038l1.096.779c.232.165.581.164.813-.004a6.1067 6.1067 0 00.338-.274c.198-.172.318-.298.318-.298.197-.206.247-.552.116-.805l-.621-1.192c-.041-.08-.037-.241.015-.333l.204-.411c.035-.082.162-.183.251-.198l1.325-.224c.284-.048.527-.3.564-.601l.059-.837c.002-.277-.213-.574-.477-.658l-1.282-.405c-.08-.024-.193-.131-.226-.246l-.145-.434c-.034-.084-.016-.244.038-.318l.779-1.096c.165-.232.163-.581-.004-.813 0 0-.102-.142-.274-.339-.171-.197-.298-.318-.298-.318-.205-.197-.551-.246-.804-.115l-1.193.621c-.08.041-.242.039-.333-.013l-.411-.204c-.077-.033-.185-.168-.198-.251l-.224-1.326c-.02-.116-.074-.229-.158-.326-.114-.13-.27-.217-.443-.239l-.837-.058c-.288-.004-.572.202-.659.476l-.404 1.282c-.028.087-.144.197-.246.226l-.434.146c-.084.034-.244.015-.318-.038l-1.096-.78c-.233-.165-.581-.163-.813.004 0 0-.142.102-.339.274-.197.172-.318.298-.318.298-.0883.0923-.1468.2127-.1729.3403l-.2491-.9053c.001-.05.021-.099.045-.126l.198-.254c.021-.029.096-.066.133-.065l.929.035c.228.009.463-.145.544-.359 0 0 .044-.116.095-.294.05-.178.072-.299.072-.299.003-.014.008-.065.009-.079.006-.205-.112-.415-.285-.512l-.811-.456c-.031-.018-.076-.089-.079-.139l-.039-.335c.002-.05.029-.109.047-.124l.682-.631c.166-.154.231-.419.114-.657l-.287-.51c-.125-.195-.388-.296-.611-.232l-.894.251c-.035.01-.116-.009-.155-.043l-.254-.199c-.029-.02-.067-.094-.066-.132l.036-.933c.006-.227-.149-.459-.36-.539 0 0-.116-.045-.294-.095a3.4359 3.4359 0 00-.299-.073c-.226-.042-.479.077-.591.276l-.455.811c-.018.031-.089.076-.14.079l-.319.038c-.035.006-.114-.021-.139-.046l-.631-.683c-.158-.17-.435-.222-.657-.114l-.51.286c-.19.121-.294.393-.233.611l.255.924c-.002.05-.022.099-.046.127l-.198.253c-.021.03-.096.067-.132.066l-.93-.036c-.228-.008-.462.146-.544.359 0 0-.044.116-.094.294-.051.178-.073.3-.073.3-.002.013-.007.065-.008.078-.005.204.112.416.285.513l.811.455c.031.018.076.089.079.14l.038.334c-.002.05-.029.109-.046.124l-.682.632c-.166.153-.232.417-.114.656l.285.511c.125.195.388.296.611.233l.895-.251c.034-.01.116.009.155.043l.253.198c.03.019.067.093.066.13zm7.821 2.9008c-.901.785-.997 2.157-.212 3.059.784.901 2.157.996 3.058.212.902-.785.997-2.157.212-3.059-.784-.901-2.157-.996-3.058-.212zm-5.916-7.2508c-.826-.023-1.518.631-1.542 1.457-.024.826.63 1.519 1.457 1.542.826.024 1.518-.63 1.542-1.457.023-.826-.631-1.518-1.457-1.542z" fill="#333333" />
</svg>
