<svg xmlns="http://www.w3.org/2000/svg" viewBox="0 0 20 20">
  <g fill="none" fill-rule="evenodd">
    <g opacity=".6">
      <path d="M16.8542 15.5379c-.052.092-.056.253-.015.333l.621 1.192c.131.253.081.599-.116.805 0 0-.12.126-.318.298-.197.171-.339.274-.338.274-.232.168-.581.169-.813.004l-1.096-.779c-.074-.053-.234-.072-.318-.038l-.434.146c-.102.028-.218.139-.246.225l-.404 1.282c-.087.275-.371.48-.659.477l-.837-.058c-.3-.038-.554-.291-.6-.565l-.224-1.325c-.014-.082-.121-.218-.198-.251l-.411-.204c-.091-.052-.253-.056-.333-.014l-1.192.621c-.253.13-.599.081-.805-.116 0 0-.126-.121-.298-.318s-.274-.339-.275-.339c-.167-.232-.169-.58-.004-.813l.78-1.096c.052-.074.071-.234.037-.318l-.145-.434c-.032-.114-.146-.221-.226-.246l-1.282-.404c-.264-.084-.479-.382-.476-.659l.058-.837c.038-.3.28-.552.564-.601l1.325-.224c.089-.014.216-.115.251-.198l.205-.411c.051-.091.055-.253.013-.334l-.621-1.191c-.13-.253-.081-.599.116-.805 0 0 .121-.126.318-.298s.339-.274.339-.274c.232-.167.58-.169.813-.004l1.096.78c.074.053.234.072.318.038l.434-.146c.102-.029.218-.139.246-.226l.404-1.282c.087-.274.371-.48.659-.476l.837.058c.173.022.329.109.443.239.084.097.138.21.158.326l.224 1.326c.013.083.121.218.198.251l.411.204c.091.052.253.054.333.013l1.193-.621c.253-.131.599-.082.804.115 0 0 .127.121.298.318.172.197.274.339.274.339.167.232.169.581.004.813l-.779 1.096c-.054.074-.072.234-.038.318l.145.434c.033.115.146.222.226.246l1.282.405c.264.084.479.381.477.658l-.059.837c-.037.301-.28.553-.564.601l-1.325.224c-.089.015-.216.116-.251.198l-.204.411zm-5.866-.9852c.784.901 2.157.996 3.058.212.902-.785.997-2.157.212-3.059-.784-.901-2.157-.996-3.058-.212-.901.785-.997 2.157-.212 3.059z" fill="#FFF" />
      <path d="M16.8542 15.5379l.204-.411c.035-.082.162-.183.251-.198l1.325-.224c.284-.048.527-.3.564-.601l.059-.837c.002-.277-.213-.574-.477-.658l-1.282-.405c-.08-.024-.193-.131-.226-.246l-.145-.434c-.034-.084-.016-.244.038-.318l.779-1.096c.165-.232.163-.581-.004-.813 0 0-.102-.142-.274-.339-.171-.197-.298-.318-.298-.318-.205-.197-.551-.246-.804-.115l-1.193.621c-.08.041-.242.039-.333-.013l-.411-.204c-.077-.033-.185-.168-.198-.251l-.224-1.326c-.02-.116-.074-.229-.158-.326-.114-.13-.27-.217-.443-.239l-.837-.058c-.288-.004-.572.202-.659.476l-.404 1.282c-.028.087-.144.197-.246.226l-.434.146c-.084.034-.244.015-.318-.038l-1.096-.78c-.233-.165-.581-.163-.813.004 0 0-.142.102-.339.274-.197.172-.318.298-.318.298-.197.206-.246.552-.116.805l.621 1.191c.042.081.038.243-.013.334l-.205.411c-.035.083-.162.184-.251.198l-1.325.224c-.284.049-.526.301-.564.601l-.058.837c-.003.277.212.575.476.659l1.282.404c.08.025.194.132.226.246l.145.434c.034.084.015.244-.037.318l-.78 1.096c-.165.233-.163.581.004.813.001 0 .103.142.275.339.172.197.298.318.298.318.206.197.552.246.805.116l1.192-.621c.08-.042.242-.038.333.014l.411.204c.077.033.184.169.198.251l.224 1.325c.046.274.3.527.6.565l.837.058c.288.003.572-.202.659-.477l.404-1.282c.028-.086.144-.197.246-.225l.434-.146c.084-.034.244-.015.318.038l1.096.779c.232.165.581.164.813-.004-.001 0 .141-.103.338-.274.198-.172.318-.298.318-.298.197-.206.247-.552.116-.805l-.621-1.192s-.037-.241.015-.333z" stroke="#999" stroke-width=".5" />
      <path d="M10.9882 14.5527c-.785-.902-.689-2.274.212-3.059.901-.784 2.274-.689 3.058.212.785.902.69 2.274-.212 3.059-.901.784-2.274.689-3.058-.212h0z" stroke="#999" stroke-width=".5" />
      <path d="M3.3132 8.4609v.002l-.253-.198c-.039-.034-.121-.053-.155-.043l-.895.251c-.223.063-.486-.038-.611-.233l-.285-.511c-.118-.239-.052-.503.114-.656l.682-.632c.017-.015.044-.074.046-.124l-.038-.334c-.003-.051-.048-.122-.079-.14l-.811-.455c-.173-.097-.29-.309-.285-.513.001-.013.006-.065.008-.078 0 0 .022-.122.073-.3.05-.178.094-.294.094-.294.082-.213.316-.367.544-.359l.93.036c.036.001.111-.036.132-.066l.198-.253c.024-.028.044-.077.046-.127l-.255-.924c-.061-.218.043-.49.233-.611l.51-.286c.222-.108.499-.056.657.114l.631.683c.025.025.104.052.139.046l.319-.038c.051-.003.122-.048.14-.079l.455-.811c.112-.199.365-.318.591-.276 0 0 .121.022.299.073.178.05.294.095.294.095.211.08.366.312.36.539l-.036.933c-.001.038.037.112.066.132l.254.199c.039.034.12.053.155.043l.894-.251c.223-.064.486.037.611.232l.287.51c.117.238.052.503-.114.657l-.682.631c-.018.015-.045.074-.047.124l.039.335c.003.05.048.121.079.139l.811.456c.173.097.291.307.285.512-.001.014-.006.065-.009.079 0 0-.022.121-.072.299-.051.178-.095.294-.095.294-.081.214-.316.368-.544.359l-.929-.035c-.037-.001-.112.036-.133.065l-.198.254c-.024.027-.044.076-.045.126l.254.923c.061.217-.043.49-.232.611l-.511.286c-.222.108-.499.057-.657-.114l-.631-.682c-.024-.026-.104-.052-.139-.046l-.32.037c-.051.003-.122.048-.14.079l-.455.811c-.111.199-.365.318-.59.277 0 0-.122-.023-.3-.073-.178-.051-.294-.095-.294-.095-.211-.08-.366-.313-.359-.539l.035-.934c.001-.037-.036-.111-.066-.132zm.429-2.761c-.024.826.63 1.519 1.457 1.542.826.024 1.518-.63 1.542-1.457.023-.826-.631-1.518-1.457-1.542-.826-.023-1.518.631-1.542 1.457z" fill="#FFF" />
      <path d="M3.3132 8.4609c.03.021.067.095.066.132l-.035.934c-.007.226.148.459.359.539 0 0 .116.044.294.095.178.05.3.073.3.073.225.041.479-.078.59-.277l.455-.811c.018-.031.089-.076.14-.079l.32-.037c.035-.006.115.02.139.046l.631.682c.158.171.435.222.657.114l.511-.286c.189-.121.293-.394.232-.611l-.254-.923c.001-.05.021-.099.045-.126l.198-.254c.021-.029.096-.066.133-.065l.929.035c.228.009.463-.145.544-.359 0 0 .044-.116.095-.294.05-.178.072-.299.072-.299.003-.014.008-.065.009-.079.006-.205-.112-.415-.285-.512l-.811-.456c-.031-.018-.076-.089-.079-.139l-.039-.335c.002-.05.029-.109.047-.124l.682-.631c.166-.154.231-.419.114-.657l-.287-.51c-.125-.195-.388-.296-.611-.232l-.894.251c-.035.01-.116-.009-.155-.043l-.254-.199c-.029-.02-.067-.094-.066-.132l.036-.933c.006-.227-.149-.459-.36-.539 0 0-.116-.045-.294-.095-.178-.051-.299-.073-.299-.073-.226-.042-.479.077-.591.276l-.455.811c-.018.031-.089.076-.14.079l-.319.038c-.035.006-.114-.021-.139-.046l-.631-.683c-.158-.17-.435-.222-.657-.114l-.51.286c-.19.121-.294.393-.233.611l.255.924c-.002.05-.022.099-.046.127l-.198.253c-.021.03-.096.067-.132.066l-.93-.036c-.228-.008-.462.146-.544.359 0 0-.044.116-.094.294-.051.178-.073.3-.073.3-.002.013-.007.065-.008.078-.005.204.112.416.285.513l.811.455c.031.018.076.089.079.14l.038.334c-.002.05-.029.109-.046.124l-.682.632c-.166.153-.232.417-.114.656l.285.511c.125.195.388.296.611.233l.895-.251c.034-.01.116.009.155.043l.253.198v-.002h0z" stroke="#999" stroke-width=".5" />
      <path d="M3.7422 5.6999c.024-.826.716-1.48 1.542-1.457.826.024 1.48.716 1.457 1.542-.024.827-.716 1.481-1.542 1.457-.827-.023-1.481-.716-1.457-1.542h0z" stroke="#999" stroke-width=".5" />
    </g>
    <path d="M16.6648 2H13V0h7.0026v7H18.002l-.0014-3.6653L13.3352 8 12 6.6648 16.6648 2z" fill="#999" fill-rule="nonzero" />
  </g>
</svg>
