<svg xmlns="http://www.w3.org/2000/svg" viewBox="0 0 20 20">
  <g fill-rule="evenodd" clip-rule="evenodd">
    <path d="M1 7.5L9 5v9l-8-2.5v-4zm9 2c0 2.4853 2.0147 4.5 4.5 4.5S19 11.9853 19 9.5 16.9853 5 14.5 5 10 7.0147 10 9.5zm8 0c0 1.933-1.567 3.5-3.5 3.5S11 11.433 11 9.5 12.567 6 14.5 6 18 7.567 18 9.5zM2 8.33L8 6.5v6l-6-1.8299V8.3299zm12.5 3.17c1.1046 0 2-.8954 2-2s-.8954-2-2-2-2 .8954-2 2 .8954 2 2 2zm1-2c0 .5523-.4477 1-1 1s-1-.4477-1-1 .4477-1 1-1 1 .4477 1 1z" fill="#333333" />
    <path d="M14 4h1v4.6338a.9956.9956 0 00-.5-.1338.9956.9956 0 00-.5.1338V4zm-.3662 5H.5v1h13.1338a.9953.9953 0 01-.1338-.5c0-.1821.0487-.353.1338-.5zM14 10.3662V15h1v-4.6338a.9954.9954 0 01-.5.1338.9954.9954 0 01-.5-.1338zM15.3662 10H19.5V9h-4.1338a.9953.9953 0 01.1338.5.9953.9953 0 01-.1338.5z" fill="#1651B0" />
  </g>
</svg>
