<svg xmlns="http://www.w3.org/2000/svg" viewBox="0 0 20 20">
  <g fill-rule="evenodd" clip-rule="evenodd">
    <path d="M10 7.5C10 9.9853 7.9853 12 5.5 12S1 9.9853 1 7.5 3.0147 3 5.5 3 10 5.0147 10 7.5zm0 0V3h9v15h-9V7.5z" fill="#333333" />
    <path d="M2 7.5C2 9.433 3.567 11 5.5 11S9 9.433 9 7.5 7.433 4 5.5 4 2 5.567 2 7.5zm9 9.5V4h7v13h-7zm6-9l-2.5-3L12 8h2v8h1V8h2zM6 7H5v1h1V7z" fill="#FFFFFF" />
    <path d="M6 15.9373V18l3-2.5L6 13v1.9369c-2.7251-.2463-4-1.1907-4-2.4369V12H1v.5c0 1.8755 1.729 3.1479 5 3.4373z" fill="#333333" />
  </g>
</svg>
