<svg xmlns="http://www.w3.org/2000/svg" viewBox="0 0 20 20">
  <path fill-rule="evenodd" clip-rule="evenodd" d="M16.5 19h-13C2.121 19 1 17.879 1 16.5v-13C1 2.122 2.121 1 3.5 1h13C17.879 1 19 2.122 19 3.5v13c0 1.379-1.121 2.5-2.5 2.5z" fill="#333333" />
  <g fill="#FFFFFF">
    <path d="M10 9.441L5.559 7.2205 10 5l4.441 2.2205L10 9.441zM10.5001 10.309L15 8.059V12.5l-4.4991 2.2495-.0008-4.4405zM5 8.059l4.5 2.25.001 4.4415L5 12.5V8.059z" />
    <path fill-rule="evenodd" clip-rule="evenodd" d="M2 3.5C2 2.673 2.673 2 3.5 2h13c.827 0 1.5.673 1.5 1.5v13c0 .827-.673 1.5-1.5 1.5h-13c-.827 0-1.5-.673-1.5-1.5v-13zM4 7l6-3 6 3v6l-6 3-6-3V7z" />
  </g>
</svg>
