<svg xmlns="http://www.w3.org/2000/svg" viewBox="0 0 274 191">
  <path d="M103.734 135.858c-2.223 2.014-5.187 5.302-6.1412 10.465-.492 1.902-3.2317 2.346-4.54 2.331l-20.7764-5.971 2.6557-2.503c-2.2818-1.256-3.7213-2.848-4.0158-4.148-.3159-4.289-6.0723-15.157-14.3604-22.46l-18.1921-12.034 14.3579-12.2217 41.2651-28.6014.328-14.2524 2.9291-5.1477 7.9921 1.9477 13.21-13.4673c-1.972-12.3485 6.874-26.0594 19.845-28.6104 1.592-.234 2.757-.4203 3.967-.4747 5.966-.689 7.814-.6697 13.038.509 1.936.4366 3.834 1.0777 5.612 1.9596 32.297 16.0234 33.079 45.3681 28.231 55.2286-.79 2.6437-3.78 8.1296-6.055 10.3401l2.275.7282 15.111-15.3587c-.815-21.5745 12.872-27.1389 20.321-29.0573l.228-.0335c1.511-.2224 2.631-.3873 3.801-.4221 5.9-.5956 7.708-.306 12.902.9425 1.929.4638 3.829 1.0968 5.607 1.9787 32.297 16.0234 33.079 45.3679 28.231 55.2284-5.293 17.7124-23.548 18.4764-31.496 16.6292l-27.002 19.7982c-.709 3.948-2.167 7.273-4.197 9.171l-15.319 14.44c.755 2.182 1.003 5.094.429 7.449l4.626 1.451c.916 2.517-.879 7.611-2.664 7.549-.164-.005-.308-.048-.433-.121l-3.879-1.086c-1.929 4.8-4.945 7.382-7.288 6.938-.18-.034-.356-.084-.527-.152l-12.301-3.543-6.726-2.02v-5.405l-8.067 6.775c-.495.68-1.831 1.427-3.206-1.03l-37.303-29.643c-1.445 0-5.731 1.099-6.824 1.727-2.606 1.276-5.274 3.83-5.649 4.177z" fill="#fff" />
  <path fill-rule="evenodd" clip-rule="evenodd" d="M149.064.0143c1.884.0669 3.67.3704 6.287.9608 1.953.4405 3.87 1.0878 5.668 1.9797 16.207 8.0407 24.522 19.4338 28.171 30.0682 3.638 10.6072 2.635 20.468.182 25.476-.406 1.3486-1.358 3.3895-2.487 5.3648-1.041 1.8213-2.247 3.6133-3.338 4.7693l1.741.5575 14.928-15.1723c-.384-10.7841 2.846-17.6077 7.137-21.9763 4.298-4.3752 9.634-6.2608 13.376-7.2245l.012-.0033.014-.0019.006-.0009.232-.0342c1.498-.2206 2.629-.387 3.811-.4228 2.95-.2976 4.893-.3756 6.752-.2198 1.86.1558 3.628.5447 6.224 1.1688 1.943.4671 3.862 1.1058 5.66 1.9979 16.207 8.0407 24.522 19.4338 28.171 30.0681 3.638 10.607 2.635 20.4678.182 25.4758-2.675 8.9309-8.625 13.5987-14.903 15.7936-6.213 2.1722-12.749 1.9242-16.77 1.0133l-26.83 19.6709c-.72 3.932-2.186 7.277-4.254 9.212l-15.202 14.329c.705 2.132.942 4.899.436 7.208l4.523 1.418.042.116c.246.675.305 1.505.236 2.356-.069.854-.268 1.746-.554 2.555-.284.807-.659 1.544-1.087 2.081-.419.526-.933.913-1.502.893-.191-.007-.366-.054-.52-.138l-3.636-1.018c-.962 2.325-2.182 4.132-3.466 5.318-1.317 1.217-2.734 1.808-4.015 1.565a3.15 3.15 0 01-.561-.161l-12.291-3.54h-.002l-6.904-2.075v-5.054l-7.634 6.411c-.28.372-.802.781-1.472.739-.684-.043-1.414-.548-2.111-1.775l-37.195-29.558c-.713.021-2.061.28-3.396.619-.69.176-1.368.371-1.939.56-.577.191-1.029.37-1.279.514l-.007.004-.007.003c-2.44 1.196-4.946 3.537-5.516 4.069-.03.027-.054.05-.073.068l-.002.001c-2.205 1.997-5.1236 5.24-6.0634 10.325l-.0016.009-.0022.008c-.2757 1.066-1.175 1.697-2.1169 2.056-.9462.361-1.9909.471-2.6682.463l-.0337-.001-21.2305-6.101 2.7284-2.571c-1.0256-.597-1.8749-1.262-2.5162-1.936-.6997-.736-1.1646-1.498-1.3253-2.208l-.0041-.018-.0014-.018c-.0761-1.034-.4836-2.488-1.1935-4.216-.708-1.722-1.7101-3.7-2.9619-5.773-2.5016-4.145-5.9925-8.662-10.1081-12.291l-18.4549-12.208L52.569 89.1179l41.1707-28.536.3265-14.1882 3.0536-5.3664 8.0372 1.9587 13.022-13.2762c-1.913-12.4426 6.998-26.2007 20.064-28.7703l.011-.0023c.161-.0236.318-.0465.47-.0691 1.353-.2001 2.415-.3574 3.514-.4074 2.979-.3439 4.947-.513 6.826-.4464zM138.33 1.432l.862-.1042c1.146-.1386 2.165-.2618 3.086-.3682 2.625-.1166 5.484.3959 13.677 2.4665 6.852 1.7314 17.075 8.8444 24.596 18.8593 7.516 10.0085 12.291 22.8576 8.348 36.0504-.387 1.2953-1.321 3.3087-2.448 5.28-1.092 1.9104-2.348 3.7519-3.436 4.8474l-1.384-.4431-4.731 3.9823-.301 12.7848-24.958 10.9149-8.936-2.2534-6.657-1.9255 42.566-30.9455-1.211 9.2589.377-.1233c1.024-.335 2.077-1.1351 3.087-2.1942 1.015-1.0631 2.005-2.4064 2.902-3.8574 1.793-2.8989 3.232-6.2591 3.746-8.7317 1.936-9.3078-.479-19.1697-5.46-27.7305-4.981-8.5612-12.54-15.843-20.932-19.9924l-.008-.0041-.009-.0035c-12.461-5.0455-22.627-4.8127-28.951-.8472-3.095 1.6709-6.289 4.9437-8.574 8.795-2.264 3.8153-3.66 8.2359-3.157 12.2738l-1.805 1.84c-1.641-12.0881 7.056-25.3347 19.711-27.829zm-17.453 25.5273l12.143-12.3803.011-.0087c8.135-6.6479 19.733-5.681 26.474-1.9039 7.833 3.209 14.356 10.6837 18.248 18.5241 1.948 3.9256 3.244 7.9552 3.712 11.6052.466 3.6239.119 6.9006-1.242 9.3263l-2.218 16.9686c.801-.3575 1.649-1.0243 2.501-1.9166.983-1.0311 1.953-2.3443 2.838-3.7753 1.772-2.8652 3.183-6.1708 3.682-8.5705 1.904-9.1571-.467-18.8933-5.403-27.3773-4.934-8.4808-12.42-15.6885-20.713-19.7915-12.392-5.0153-22.369-4.7258-28.496-.8792l-.007.0044-.008.004c-2.998 1.6163-6.135 4.8167-8.388 8.6139-2.155 3.6316-3.482 7.7739-3.134 11.5568zm57.826 32.9354l1.037-7.9343.024-.0426c1.307-2.2987 1.666-5.4689 1.205-9.0584-.46-3.5848-1.735-7.5608-3.664-11.4466-3.861-7.7777-10.313-15.1447-18.004-18.2895l-.014-.0058-.014-.0076c-6.602-3.7068-17.972-4.6434-25.915 1.8389l-27.635 28.175 4.159 1.0136v12.2286c1.909.4675 4.28 1.9284 6.737 4.0326 2.551 2.1843 5.222 5.0847 7.605 8.3591 4.719 6.4852 8.348 14.4947 7.601 21.3445.34.2008.648.3536.892.4575l2.723.7876 43.263-31.4526zm-46.517 30.9708a9.096 9.096 0 01-.758-.419c-1.277-.7838-2.933-2.1982-3.445-4.2117-1.666-6.5429-4.962-12.4858-8.847-17.2245-3.84-4.6828-8.244-8.1758-12.199-9.913l-2.289 2.0762c5.061 1.7321 9.688 6.8327 13.271 12.2739 3.688 5.6001 6.312 11.6263 7.195 14.8959.671 2.4858 1.691 3.5313 2.673 4.0839l1.89.7258 2.509-2.2875zm-5.898.9862c-.645-.7235-1.225-1.7805-1.657-3.378-.867-3.2085-3.465-9.1864-7.13-14.7513-3.671-5.5753-8.37-10.6711-13.414-12.2047l-.179-.0547.169-12.6396-9.5193-2.0526-.3158 13.7203c10.3751 1.1595 17.5751 6.9879 22.1821 13.3784 4.558 6.3227 6.599 13.2243 6.664 16.7538l3.2 1.2284zm-3.699-1.1681c-.044-3.3854-2.034-10.2282-6.571-16.5217-4.567-6.3347-11.693-12.0837-21.9653-13.1885L52.8742 89.5147 38.7788 101.513l17.9293 11.86.0129.012c4.1669 3.671 7.6936 8.235 10.2186 12.418 1.2628 2.092 2.2771 4.093 2.9963 5.842.6178 1.504 1.0229 2.834 1.1756 3.884l7.8152-6.839-1.2469-6.114 17.817-15.468 6.3882 1.85 20.704-18.2745zm-20.135 18.4395l27.811 8.052 20.911-21.0745-8.606-2.1703-9.872-2.8555-2.91 2.654-.143-.0526c-.156-.0574-.329-.1129-.514-.1722-.472-.1509-1.022-.3266-1.557-.6228l-4.683-1.7978-20.437 18.0397zm49.352-12.9477l-21.297 21.4627-13.913 12.306 36.908 29.33 10.599-9.049c.01-4.803.597-8.525 1.51-11.18.916-2.662 2.18-4.308 3.574-4.834 2.121-.802 4.213-.187 5.037.239l9.354 2.469 21.606-18.43c-.036-12.773-6.063-21.0839-12.615-26.2112-3.288-2.5732-6.708-4.3441-9.568-5.4713-2.82-1.1119-5.072-1.5882-6.105-1.6037l-25.09 10.9725zM177.1 84.7101c1.187.0672 3.404.5743 6.085 1.6313 2.897 1.142 6.36 2.9353 9.692 5.5426 6.557 5.1315 12.603 13.418 12.802 26.074.831-1.061 2.078-3.427 1.634-6.725-.489-1.956-1.943-6.642-3.865-9.859l-.006-.01-11.537-21.5422c-.434-.6799-1.23-1.7254-2.204-2.6477-.984-.9316-2.117-1.7064-3.219-1.89l-.017-.0028-9.075-2.8233-.29 12.2521zm.558-12.6922l8.923 2.7759c1.246.2135 2.463 1.0696 3.463 2.0172 1.012.9577 1.835 2.0405 2.287 2.75l.006.008 11.543 21.554c1.963 3.287 3.432 8.038 3.922 10.003l.003.013.002.014c.559 4.12-1.394 6.886-2.203 7.634l-.007.007-21.456 18.302 6.996 2.311c.587.141 1.104.557 1.539 1.127.376.493.704 1.115.975 1.816l15.042-14.18c1.974-1.846 3.418-5.11 4.123-9.034 1.242-6.91.17-15.739-4.158-22.1326l-.005-.0072-12.209-21.0507c-1.749-2.6886-4.548-4.2225-5.724-4.6511l-5.431-1.5787-.007-.002-3.54-1.1332-4.084 3.4374zm12.235 67.5041l-6.323-2.088-9.529-2.515-.025-.013c-.719-.382-2.681-.973-4.653-.228-1.178.446-2.375 1.907-3.277 4.53-.886 2.574-1.468 6.214-1.482 10.946l10.362 3.061v5.581l-2.928 2.374 10.418 3c-1.015-1.103-1.673-3.053-1.789-5.967l-.001-.011c.025-4.734 1.41-9.474 3.38-13.004.984-1.765 2.12-3.237 3.316-4.256.816-.696 1.671-1.189 2.531-1.41zm-5.498 25.207l-.504-.146c-1.412-.562-2.566-2.453-2.724-6.394.025-4.645 1.386-9.299 3.315-12.757.965-1.73 2.067-3.15 3.204-4.12 1.132-.965 2.277-1.465 3.347-1.416.43.107.852.427 1.245.941.398.521.749 1.221 1.032 2.037.714 2.062.964 4.793.481 7.047l-2.42-.758c-.118-1.882-.611-2.84-1.312-3.225-.715-.393-1.523-.118-2.034.102l-.01.004c-.612.295-1.132.763-1.572 1.334-.901 1.17-1.491 2.802-1.854 4.388-.365 1.591-.509 3.162-.502 4.23v.017l.003.017c.067.47.187 1.045.378 1.582.189.53.458 1.053.842 1.384.196.169.426.292.691.336.265.043.548.004.844-.122.555-.237 1.174-.787 1.876-1.729l2.566.718c-.938 2.249-2.112 3.971-3.32 5.087-1.255 1.159-2.513 1.638-3.572 1.443zm3.808-7.393l-3.555-.995c.067.356.162.741.291 1.103.179.502.412.927.698 1.174.139.12.287.194.445.22.157.026.344.007.567-.088.41-.175.925-.6 1.554-1.414zm-3.616-1.531c.011-1.022.154-2.465.489-3.927.341-1.488.876-2.97 1.653-4.047l2.108.798a1.886 1.886 0 00-.187.112c-.371.251-.691.64-.959 1.064-.538.85-.92 1.916-1.122 2.55l-.076.24 8.146 2.544c-.098.617-.17 1.429-.12 2.177.028.419.095.831.224 1.18.021.058.044.115.07.171l-10.226-2.862zm11.386 3.187l-.368-.103c-.159-.103-.292-.29-.393-.566-.106-.288-.168-.647-.194-1.041-.05-.751.031-1.584.135-2.187l3.32-2.956c.124.519.152 1.131.1 1.783-.066.807-.255 1.657-.527 2.428-.273.774-.624 1.456-1.007 1.936-.379.476-.748.704-1.066.706zm2.132-7.194l-7.473-2.343-3.321 2.871 7.55 2.359 3.244-2.887zm-10.749-.172c.197-.508.452-1.071.757-1.553.252-.398.527-.722.817-.918.282-.191.569-.255.876-.161.117.036.242.096.377.189l-2.827 2.443zm3.344-2.674l.158.05c-.135-1.703-.594-2.381-1.04-2.626-.483-.265-1.078-.099-1.59.121-.432.209-.822.524-1.173.923l2.906 1.099c.247.077.494.221.739.433zm-18.941 11.801l2.707-2.195v-4.663l-2.707 1.983v4.875zm-.3-5.275l2.702-1.98-9.749-2.879-10.581 9.033c.631 1.055 1.208 1.361 1.628 1.387.45.028.835-.258 1.055-.56l.018-.024 8.191-6.88 6.736 1.903zm-.2.463l-6.226-1.759v4.889l6.226 1.87v-5zm-55.148-26.236l13.721-12.135-34.2129-9.906-17.1533 14.892 30.8872 8.856c.302-.157.754-.331 1.276-.503.584-.194 1.274-.391 1.972-.569 1.331-.339 2.729-.613 3.51-.635zm-7.398 2.044l-30.4318-8.726 1.1342 5.561 24.2516 6.995c.575-.537 2.766-2.57 5.046-3.83zm-5.475 4.226l-23.9754-6.914-8.0658 7.058c.1622.557.5516 1.188 1.1633 1.831.6615.696 1.5703 1.393 2.6925 2.011l.3006.166-2.5861 2.437 20.2176 5.81 2.4366-2.301h1.9646c.9588-4.873 3.6841-8.072 5.8521-10.098zm-5.9968 10.598h-1.6211l-1.9101 1.804c.5584-.05 1.2199-.171 1.8298-.403.7635-.291 1.4048-.739 1.7014-1.401zM94.7005 46.29l9.5655 2.0625 4.816-3.8955-11.7142-2.8546-2.6673 4.6876zm14.6815-1.4325l-4.803 3.8852-.161 11.9644 2.312-2.0975 2.652-2.1631v-11.589zm.314 11.9781l-2.334 1.904c3.986 1.8081 8.357 5.3147 12.16 9.9536 3.925 4.7873 7.259 10.7948 8.945 17.4182.424 1.6627 1.723 2.91 2.886 3.6925.615-6.609-2.894-14.3763-7.533-20.7521-2.363-3.2463-5.008-6.1172-7.526-8.2735-2.472-2.117-4.797-3.5232-6.598-3.9427zM145.514.6269c1.339-.1101 2.452-.1512 3.532-.1129 1.838.0652 3.588.3608 6.195.9489 1.919.4328 3.798 1.0678 5.556 1.9397 16.09 7.9827 24.314 19.2737 27.92 29.7826 2.623 7.6469 2.8 14.8752 1.783 20.1196 1.58-11.5433-2.958-22.5432-9.549-31.3197-7.565-10.0737-17.877-17.2758-24.873-19.0439-5.227-1.3207-8.31-2.016-10.564-2.3143zm67.897 117.9881l43.771-32.093c7.819-8.0689 7.833-18.7251 3.936-28.1949-3.902-9.4832-11.704-17.712-19.396-20.8573-6.221-2.5431-10.914-3.3955-14.994-2.9572-4.07.4374-7.562 2.1628-11.38 4.8383l-29.517 30.0015 5.045 1.4664.007.0028c1.243.4509 4.156 2.0438 5.984 4.8569l.006.0106 12.204 21.0412c4.285 6.3367 5.425 14.9747 4.334 21.8847zm27.248-19.3581c3.973.8161 10.172.9701 16.066-1.0901 6.155-2.1518 11.975-6.7167 14.595-15.4848 3.943-13.193-.832-26.1367-8.349-36.24-3.756-5.0495-8.192-9.3803-12.549-12.6656-4.36-3.2877-8.628-5.5178-12.046-6.3816-8.113-2.0503-10.959-2.6164-13.54-2.5411-1.155.1167-2.469.2676-3.999.4521-3.706.9559-8.929 2.8126-13.127 7.0866-4.12 4.1945-7.279 10.7434-7.009 21.1329l1.997-2.0299c-.439-3.5219.779-7.9421 2.939-11.8912 2.185-3.9923 5.36-7.5543 8.846-9.2476 7.221-4.406 18.37-4.0897 29.061 1.1969 8.392 4.1495 15.906 11.4056 20.841 19.9412 4.935 8.5355 7.303 18.3712 5.368 27.6782-1.798 8.6464-6.709 13.5597-12.121 16.1767-5.353 2.5883-11.187 2.9275-14.973 2.4407l-2 1.4666zm2.593-1.9015c3.711.3802 9.156-.0357 14.162-2.456 5.283-2.5548 10.086-7.3458 11.85-15.8283 1.904-9.1579-.422-18.8685-5.312-27.3261-4.89-8.4575-12.333-15.6411-20.629-19.7433-10.603-5.2428-21.565-5.5052-28.59-1.2121l-.01.0064-.011.0053c-3.365 1.6301-6.479 5.1001-8.636 9.0428-2.05 3.7471-3.21 7.875-2.924 11.1897l11.871-12.0661.019-.0131c3.859-2.7066 7.437-4.4883 11.633-4.9391 4.193-.4505 8.974.4314 15.236 2.9914 7.838 3.2052 15.727 11.5471 19.67 21.1299 3.946 9.5903 3.963 20.4878-4.055 28.7485l-.014.015-14.26 10.4551zm-15.056-72.7647c2.216.3338 5.252 1.0429 10.303 2.3193 3.506.886 7.834 3.1568 12.224 6.4672 4.393 3.3127 8.863 7.6771 12.649 12.7663 6.594 8.8622 11.133 19.9499 9.547 31.5184 1.019-5.2452.844-12.4782-1.781-20.1303-3.606-10.5089-11.83-21.7998-27.92-29.7824-1.757-.8717-3.639-1.4991-5.555-1.9596-2.597-.6244-4.331-1.0045-6.148-1.1568-1.021-.0855-2.072-.0993-3.319-.0421z" fill="#666" />
  <path d="M86.6275 120.863l2.9204-2.48c.5216-.51 1.5412-.438 1.7964-.359 5.459.471 5.8124-2.356 3.6922-3.176-.4012-.222-.8653-.76-.2124-1.072l2.9229-2.484c.6015-.345 1.4931-.396 2.0417-.269l23.8383 6.875c.96.191 1.23.888.5 1.21l-2.997 2.467c-.195.161-.442.24-.694.231-2.139-.08-4.688.177-5.568.963-.59.527-.429 1.292 1.113 2.353.199.137.821.59.089 1.116l-2.245 1.875-.771.644c-.534.192-1.489.256-1.907.063l-17.1282-4.904-6.9468-1.99c-.2565 0-1.0612-.68-.4445-1.063z" fill="#fff" />
  <path fill-rule="evenodd" clip-rule="evenodd" d="M97.8907 111.498l-2.9295 2.49-.0295.014c-.1302.062-.1666.117-.1766.141-.0084.019-.0132.05.0104.106.0513.122.2.267.3653.365.6374.164 1.0973.417 1.425.721.3342.31.5191.662.6189.996.099.333.1136.646.112.882a8.472 8.472 0 01-.0047.205c-.001.033-.0019.061-.0023.083-.0006.032-.0004.054.0004.069l.0112.024.1145 3.647 16.1692 4.726v-1.493c.004-.125.059-.316.125-.503.07-.199.167-.428.277-.642.108-.211.236-.423.374-.574.069-.075.151-.149.246-.196.057-.028.123-.049.195-.051.247-.193.572-.346.937-.469.414-.14.897-.246 1.414-.323 1.033-.156 2.221-.2 3.303-.16.193.007.38-.054.525-.174l3.024-2.488.031-.014c.149-.066.219-.139.247-.19.024-.045.027-.09.006-.143-.05-.124-.257-.316-.701-.404l-.01-.002-23.842-6.876c-.2419-.055-.5705-.073-.9113-.036-.3357.036-.6648.125-.924.269zm16.4573 12.21c-.069.148-.13.297-.177.43-.065.185-.094.308-.096.351v3.09l1.842-1.539.007-.005c.158-.114.214-.203.233-.257.017-.047.013-.09-.01-.141-.056-.124-.203-.237-.308-.309-.78-.537-1.257-1.028-1.445-1.488a1.1505 1.1505 0 01-.046-.132zm-.773 4.288v-1.508l-16.3596-4.782-2.6593 2.103 16.6779 4.776.017.008c.153.07.445.106.795.09.321-.014.648-.07.883-.147l.646-.54zm-19.6107-4.356l2.9435-2.328-.1136-3.617a.4949.4949 0 01-.0124-.084 1.3434 1.3434 0 01-.002-.119 5.862 5.862 0 01.0029-.105c.0017-.053.0035-.108.004-.177.0015-.214-.0124-.471-.0912-.736a1.704 1.704 0 00-.2331-.489c.0753.358.0076.733-.2225 1.075-.2975.441-.8491.801-1.6511 1.023-.8046.221-1.8817.309-3.266.19l-.0264-.003-.0254-.007c-.0872-.027-.3707-.065-.6996-.031-.3291.033-.6472.133-.8487.33l-.0063.006-2.9412 2.498-.0158.01c-.1005.062-.1079.11-.1091.13-.0024.038.0142.102.0752.187.0587.082.1418.159.2234.215a.6254.6254 0 00.1032.059.1254.1254 0 00.0276.009h.0274l6.8572 1.964zm3.3172-6.056c-.0001 0-.0002 0-.0005-.002zm1.4791-6.852c.3897-.043.7785-.023 1.0847.048l.0128.003 23.8279 6.872c.512.104.916.356 1.057.705.074.186.068.388-.032.57-.092.167-.25.298-.451.392l-2.971 2.446c-.244.201-.552.299-.862.288-1.058-.04-2.214.004-3.21.154-.498.075-.951.175-1.329.303-.381.128-.669.278-.853.442-.122.109-.189.216-.217.32-.028.102-.024.224.039.376.13.319.504.741 1.266 1.265.094.065.358.247.48.515.066.146.093.323.026.513-.063.181-.201.344-.405.492l-3.044 2.541-.042.015c-.296.107-.695.174-1.07.191-.358.015-.742-.012-1.007-.127l-24.032-6.882c-.0644-.006-.1245-.027-.1731-.048a1.1203 1.1203 0 01-.1895-.105c-.1222-.084-.2498-.201-.3473-.337-.0951-.133-.1802-.31-.1679-.508.0129-.209.13-.386.3277-.514l2.9009-2.464c.3196-.308.7685-.426 1.1408-.464.3553-.036.6916-.005.8688.042 1.3335.114 2.34.025 3.0666-.176.7333-.202 1.1612-.511 1.3693-.82.202-.299.2133-.62.0712-.915-.146-.303-.4646-.596-.9502-.784l-.0158-.006-.0148-.008c-.2255-.125-.4961-.35-.6112-.624-.061-.146-.0845-.322-.0087-.498.0701-.163.2088-.287.39-.379l2.9168-2.48.02-.011c.3394-.195.7488-.301 1.138-.343z" fill="#666" />
  <path d="M50.8462 103.914c-6.6268-1.461-4.5224-4.827-2.6418-6.3274l5.2475-9.3634c-.5404-1.2009.075-2.6769.4503-3.2648l5.6841-10.5608c-.4229-.7458-.7605-2.9776 1.2719-5.9383 1.4211-.8279 2.9408-1.2186 4.4892-1.2802l1.5968-2.5726c-1.2168-1.3385-3.1394-4.7142-1.0952-7.5094l7.5276-13.4835c.714-1.0084 3.0412-1.1631 5.9627-.6339l9.2699-15.6541c1.2721-1.4205 10.2142-.4595 12.3658 6.2429.079.2445.047.512-.075.7381l-8.0422 14.9195c2.1687 1.917 3.6334 4.1709 3.6969 6.6456l-7.4058 13.5264c-.2647 1.3235-2.0093 3.8529-6.8703 3.3834l-1.5264 2.4226c.2991.3718.551.7247.7496 1.0497l6.5577 9.2516-4.6049 3.6377-9.5841 8.2479c-2.7807 2.1147-5.3077 3.736-7.7356 4.899-5.0609 2.424-9.6908 2.858-15.2887 1.624z" fill="#fff" />
  <path fill-rule="evenodd" clip-rule="evenodd" d="M88.8105 27.4762l-9.0744 15.3241c4.191.8236 9.4812 2.9866 13.0499 6.0323l7.894-14.6447c.092-.1708.113-.368.057-.5429-1.0435-3.2506-3.7372-5.1222-6.3548-6.0072-1.3074-.442-2.5842-.6334-3.6056-.6286-.5109.0024-.9512.0539-1.296.1438-.3363.0877-.5547.2048-.6701.3232zm4.361 21.695l7.9485-14.746c.152-.2813.194-.619.093-.9331-1.108-3.4519-3.9612-5.412-6.6706-6.328-1.3561-.4584-2.6878-.6599-3.7681-.6549-.5399.0026-1.0238.0567-1.4198.16-.3893.1015-.7244.2583-.9315.4896l-.0164.0183-9.1942 15.5263c-1.4057-.2439-2.6804-.3298-3.7059-.2322-1.0506.0999-1.91.3992-2.3339.9979l-.0077.0109-7.5268 13.482c-1.0706 1.4729-1.0955 3.0954-.7053 4.5029.3642 1.3138 1.0936 2.4586 1.701 3.1676l-1.4294 2.3029c-1.5391.0797-3.0529.4811-4.4721 1.3079l-.0485.0283-.0317.0462c-1.9752 2.8774-1.7891 5.1362-1.3482 6.077l-5.6175 10.4371c-.2011.3172-.4577.8561-.5966 1.4742-.1317.5857-.1628 1.2665.0844 1.9012L48.01 97.4221c-.4741.3839-.9616.8828-1.3275 1.4441-.3747.5746-.6347 1.2348-.5971 1.9128.0382.689.3818 1.357 1.1351 1.939.746.576 1.897 1.071 3.5719 1.44 5.6482 1.245 10.3356.807 15.4505-1.643 2.448-1.172 4.9898-2.8039 7.779-4.925l.006-.0046 9.5858-8.2494 4.787-3.7815-6.69-9.4384c-.1791-.2922-.3982-.6038-.6525-.9286l1.3503-2.1432c4.8141.4088 6.6631-2.1025 6.9776-3.5587l7.4202-13.5529-.0017-.0674c-.0645-2.5149-1.5191-4.7822-3.6331-6.6941zM82.6562 72.5619c4.4773.3063 6.0172-2.061 6.2476-3.2128l.0075-.0375 7.3914-13.5002c-.0853-2.3506-1.4871-4.521-3.6104-6.398-3.5825-3.1667-9.1282-5.4142-13.3976-6.1877-1.4479-.2623-2.7355-.3524-3.7409-.2568-1.0133.0964-1.672.3747-1.9657.7789l-7.5282 13.4845-.0091.0124c-.9646 1.3189-.9993 2.7768-.6362 4.0866.3173 1.1444.9352 2.1596 1.4775 2.83l.7225-1.4048c.2786-.5005.8071-.7643 1.4412-.8685.635-.1044 1.4152-.0569 2.2696.1004 1.7116.315 3.7845 1.0826 5.7265 2.0667 1.9412.9837 3.7727 2.1945 4.9928 3.4079.6093.6059 1.0793 1.2254 1.3274 1.83.2492.6074.2802 1.2178-.0207 1.7713l-.6952 1.4976zm-.5976.0999l.8464-1.8232.0041-.0075c.2131-.3875.2108-.8357.0004-1.3483-.2126-.5181-.6317-1.0828-1.2174-1.6652-1.1697-1.1633-2.9513-2.3461-4.8663-3.3165-1.9141-.9701-3.9405-1.7172-5.5909-2.021-.8265-.1521-1.543-.19-2.0979-.0987-.5537.091-.9079.3026-1.0836.615l-.8915 1.7334-1.3597 2.1906c.1482.0002.2966.0032.445.0089 2.9885.1157 6.0156 1.3436 8.6106 2.9342 2.4543 1.5043 4.542 3.3454 5.8673 4.9148l1.3335-2.1165zm1.4747 16.1005l4.185-3.306-6.4253-9.0649-.0045-.0072c-.1919-.314-.4371-.658-.7311-1.0234-1.2675-1.5754-3.4085-3.5065-5.9609-5.071-2.5535-1.5652-5.4964-2.7497-8.3686-2.8609a11.134 11.134 0 00-.8706 0c-1.4943.0594-2.9564.4323-4.3247 1.2184-1.6036 2.359-1.6471 4.1997-1.4122 5.1391.8857-1.5102 2.3374-2.1791 4.0338-2.2639 1.86-.093 4.0277.5118 6.13 1.4622 2.1067.9523 4.1713 2.2624 5.8319 3.6066 1.6479 1.334 2.9284 2.7261 3.4367 3.8568l4.4805 8.3142zm-.3942.3224l-4.5352-8.4157-.0038-.0084c-.4556-1.0202-1.6605-2.3546-3.2986-3.6807-1.6297-1.3192-3.6581-2.606-5.7232-3.5396-2.0696-.9356-4.1528-1.5057-5.8991-1.4184-1.73.0864-3.1148.8138-3.865 2.4785l-.0036.008-5.4392 10.1056c4.9815-.8553 9.6971 1.1361 13.2579 3.8848 1.8444 1.4238 3.3877 3.0569 4.5082 4.6193.9805 1.3673 1.6498 2.6982 1.901 3.7985l9.1006-7.8319zm-9.5376 8.1966c-.1745-1.0405-.8226-2.4107-1.8704-3.8718-1.0916-1.5222-2.6008-3.1203-4.4073-4.5149-3.5917-2.7725-8.3241-4.7159-13.2648-3.7134-.1657.2824-.3678.7291-.4814 1.2345-.1265.5629-.1376 1.1717.1023 1.7049l.0517.1149-5.3331 9.516-.0382.0306c-.4543.3623-.9185.835-1.259 1.3572-.3417.5242-.5462 1.0787-.5167 1.6117.029.522.2843 1.064.9414 1.571.6644.513 1.7354.986 3.374 1.348 5.5476 1.223 10.1201.793 15.1269-1.606 2.3736-1.137 4.8488-2.7182 7.5746-4.7827z" fill="#666" />
  <path d="M133.896 127.49c-6.627-1.461-4.522-4.827-2.642-6.327l5.248-9.364c-.541-1.2.075-2.676.45-3.264l5.684-10.5611c-.423-.7458-.76-2.9776 1.272-5.9383 1.421-.8279 2.941-1.2186 4.489-1.2802l1.597-2.5726c-1.217-1.3385-3.139-4.7142-1.095-7.5094l7.528-13.4835c.714-1.0084 3.041-1.1631 5.962-.6339l9.27-15.6541c1.272-1.4205 10.214-.4596 12.366 6.2429.078.2445.047.512-.075.738l-8.042 14.9196c2.168 1.917 3.633 4.1709 3.697 6.6456l-7.406 13.5264c-.265 1.3235-2.009 3.8529-6.87 3.3834l-1.527 2.4226c.299.3718.551.7247.75 1.0497l6.557 9.2519-4.605 3.637-9.584 8.248c-2.78 2.115-5.307 3.736-7.735 4.899-5.061 2.424-9.691 2.858-15.289 1.624z" fill="#fff" />
  <path fill-rule="evenodd" clip-rule="evenodd" d="M171.86 51.0525l-9.074 15.3241c4.191.8236 9.481 2.9866 13.05 6.0323l7.894-14.6447c.092-.1708.113-.3681.057-.5429-1.044-3.2506-3.737-5.1223-6.355-6.0072-1.307-.442-2.584-.6334-3.605-.6286-.511.0024-.952.0539-1.296.1438-.337.0877-.555.2048-.671.3232zm4.361 21.695l7.949-14.746c.151-.2813.194-.619.093-.9331-1.108-3.4519-3.961-5.412-6.671-6.328-1.356-.4584-2.687-.6599-3.768-.6549-.54.0026-1.024.0567-1.42.16-.389.1015-.724.2582-.931.4896l-.016.0183-9.195 15.5262c-1.405-.2438-2.68-.3297-3.706-.2321-1.05.0999-1.91.3992-2.333.9979l-.008.0109-7.527 13.482c-1.071 1.4729-1.095 3.0954-.705 4.5028.364 1.3139 1.093 2.4587 1.701 3.1677l-1.43 2.3029c-1.539.0797-3.053.4811-4.472 1.3079l-.048.0283-.032.0462c-1.975 2.8774-1.789 5.1362-1.348 6.077l-5.618 10.4369c-.201.317-.457.856-.596 1.474-.132.586-.163 1.267.084 1.902l-5.164 9.214c-.474.384-.962.883-1.328 1.445-.374.574-.634 1.234-.597 1.912.039.69.382 1.357 1.135 1.939.746.576 1.897 1.071 3.572 1.44 5.649 1.245 10.336.808 15.451-1.643 2.448-1.172 4.99-2.804 7.779-4.925l.006-.004 9.586-8.25 4.787-3.781-6.69-9.4386c-.18-.2922-.399-.6038-.653-.9286l1.35-2.1432c4.815.4088 6.664-2.1025 6.978-3.5587l7.42-13.5529-.001-.0674c-.065-2.5149-1.52-4.7822-3.634-6.6941zm-10.515 23.3907c4.477.3063 6.017-2.061 6.248-3.2128l.007-.0375 7.392-13.5002c-.086-2.3506-1.487-4.521-3.611-6.398-3.582-3.1667-9.128-5.4142-13.397-6.1877-1.448-.2623-2.736-.3524-3.741-.2568-1.014.0964-1.672.3747-1.966.7789l-7.528 13.4845-.009.0124c-.965 1.3189-1 2.7767-.636 4.0866.317 1.1443.935 2.1596 1.477 2.83l.723-1.4048c.278-.5005.807-.7643 1.441-.8685.635-.1044 1.415-.0569 2.269.1004 1.712.315 3.785 1.0825 5.727 2.0667 1.941.9837 3.772 2.1945 4.993 3.4079.609.6059 1.079 1.2253 1.327 1.83.249.6073.28 1.2178-.021 1.7713l-.695 1.4976zm-.597.0998l.846-1.8231.004-.0075c.213-.3876.211-.8357 0-1.3483-.212-.5181-.631-1.0828-1.217-1.6652-1.17-1.1633-2.951-2.3461-4.866-3.3165-1.914-.9701-3.941-1.7172-5.591-2.021-.827-.1521-1.543-.19-2.098-.0988-.554.0911-.908.3027-1.084.6151l-.891 1.7334-1.36 2.1906c.148.0002.297.0032.445.0089 2.989.1156 6.016 1.3436 8.611 2.9342 2.454 1.5043 4.542 3.3454 5.867 4.9148l1.334-2.1166zm1.474 16.101l4.185-3.306-6.425-9.0653-.005-.0072c-.191-.314-.437-.6581-.731-1.0234-1.267-1.5754-3.408-3.5065-5.961-5.071-2.553-1.5652-5.496-2.7497-8.368-2.8609a11.1443 11.1443 0 00-.871 0c-1.494.0594-2.956.4323-4.325 1.2184-1.603 2.359-1.647 4.1997-1.412 5.1391.886-1.5102 2.338-2.1791 4.034-2.2639 1.86-.093 4.028.5118 6.13 1.4622 2.107.9523 4.171 2.2624 5.832 3.607 1.648 1.334 2.928 2.726 3.437 3.856l4.48 8.315zm-.394.322l-4.535-8.416-.004-.008c-.456-1.02-1.66-2.355-3.299-3.681-1.629-1.319-3.658-2.6059-5.723-3.5394-2.069-.9356-4.153-1.5058-5.899-1.4185-1.73.0865-3.115.8139-3.865 2.4785l-.003.0081-5.44 10.1053c4.982-.855 9.697 1.136 13.258 3.885 1.845 1.424 3.388 3.057 4.508 4.619.981 1.368 1.65 2.699 1.901 3.799l9.101-7.832zm-9.538 8.197c-.174-1.041-.822-2.411-1.87-3.872-1.092-1.522-2.601-3.121-4.407-4.515-3.592-2.773-8.324-4.716-13.265-3.714-.166.283-.368.73-.481 1.235-.127.563-.138 1.172.102 1.705l.052.115-5.334 9.516-.038.03c-.454.363-.918.835-1.259 1.358-.342.524-.546 1.078-.516 1.611.029.523.284 1.064.941 1.571.664.513 1.735.987 3.374 1.348 5.548 1.223 10.12.793 15.127-1.605 2.373-1.137 4.849-2.719 7.574-4.783z" fill="#666" />
  <path d="M14.7978 114.636l-6.1545 20.119c-1.382 3.35-2.5347 4.425-3.3732 4.334a.853.853 0 01-.2004-.045l-2.3601-.533c-.494.071-1.008-.97-1.1844-1.965l.089-2.297 3.96-26.463-.119-2.256c-.3165-7.7091 1.3724-11.2645 3.2978-14.6719l-4.9155-1.3812C1.5533 88.8063-.472 85.7257.5 83.9903l1.304-1.8216c.4708-.6364 1.811-.5463 2.3813-.3891l7.7172 2.2107c.8522.1111 1.7126.8495 1.9641 1.7354.024.0844.0424.1702.0548.2569l1.4487 6.794 15.6034-28.2918c.4171-.8075 1.5722-2.368 2.8557-2.1498l2.107.7827c.1482.0156.2917.0661.4275.1588 1.0268.7008.8353 3.5649.6112 4.9093l-8.5578 21.6399c-.2921.735-.5769 1.5846-.7506 2.1057l16.3407 4.8561-21.035 18.9985-5.4932-.364-2.6812-.786z" fill="#fff" />
  <path fill-rule="evenodd" clip-rule="evenodd" d="M32.2463 63.2088c-.4753.4397-.852 1.0063-1.0506 1.3908l-.0032.006L15.5876 92.9l-2.8906 5.0935c-.0522.5228-.0109.9407.0849 1.2409.1003.3146.2478.4667.3765.5183.1169.0467.2895.038.5197-.1421.2331-.1824.4974-.5234.752-1.0689l.0038-.0081 18.6187-33.4302.0041-.0065c.2706-.4225.7083-.9949 1.2086-1.4522.2503-.2288.5229-.4349.8045-.5779a.11.11 0 00.0048-.0025l-1.3094-.4863c-.5193-.0784-1.0444.1919-1.5189.6308zm3.7493-.3357l-2.1013-.7806-.0232-.0039c-.7569-.1287-1.4429.2708-1.9644.7532-.5261.4867-.9348 1.1023-1.1537 1.5252L15.4749 92.0691l-1.3072-6.1305a2.1862 2.1862 0 00-.0606-.2811c-.2761-.9726-1.2055-1.7798-2.1531-1.9125l-7.6998-2.2057-.0024-.0006c-.3126-.0862-.8195-.1511-1.3144-.1113-.4813.0386-1.0312.1829-1.3344.5926L.2887 83.856l-.0068.0121c-.5536.9885-.2334 2.2995.454 3.3975.6942 1.1091 1.8167 2.0946 3.0312 2.4512l.0028.0008 4.6094 1.2952c-.908 1.6239-1.7596 3.3186-2.357 5.5022-.6314 2.3081-.976 5.151-.8169 9.026l.0002.003.1177 2.23-3.9583 26.452-.0906 2.337.0047.026c.0922.52.2729 1.057.5016 1.462.114.202.2469.383.3976.513.1382.118.3144.211.515.2l2.3083.521c.0778.026.1585.044.2418.053.5457.059 1.118-.268 1.7013-.965.5895-.704 1.2347-1.837 1.9297-3.522l.0045-.011 6.0858-19.894 2.4704.723 5.6262.373 21.4439-19.3673-16.5196-4.9093c.1738-.518.4165-1.225.6639-1.8473l8.5677-21.665.0043-.0262c.1142-.6847.2203-1.7558.1666-2.7506-.0269-.497-.0941-.9858-.2258-1.4016-.1303-.4113-.334-.7838-.6576-1.0047a1.1704 1.1704 0 00-.5091-.1969zm-.1146.4908l.3648.1355c.1796.1336.3289.3763.4398.7263.1142.3603.1776.803.2032 1.2776.0505.9362-.0479 1.9548-.1562 2.6154l-8.5478 21.6147c.0001-.0001 0 0 0 0-.2539.6388-.5017 1.3617-.6765 1.8826a6.2496 6.2496 0 00-.6606-.16c-.2387-.044-.5014-.0768-.7585-.079l4.507-11.7757.0041-.0191c.0843-.3972.1656-1.0225.1209-1.5887-.0223-.2825-.0772-.5674-.1909-.8053-.1154-.2416-.3009-.4516-.5851-.5386l-.0437-.0133-.0455.0029c-.2348.0152-.7564.1633-1.0114.6668L20.537 92.1628l2.4204.1438.0012.0001 1.035.0566c-3.1799 2.1985-5.1784 5.846-6.2622 9.7877-1.2122 4.409-1.2931 9.229-.5802 12.914l-2.2508-.659c-.2031-.127-.5098-.354-.789-.636-.2962-.3-.5356-.636-.6143-.959-.1789-.734-.4547-2.165-.6132-3.746-.1588-1.587-.1968-3.299.0864-4.608l.0655-.303h-1.2214c-.1747 0-.3361.052-.4805.135-.4017.229-.7144.72-.9417 1.197-.2336.49-.4032 1.02-.4949 1.394l-.0027.011-2.5298 16.981c-.1053.488-.1338 1.164-.0565 1.735.0387.287.1064.564.2162.783.1071.213.284.424.562.458.2501.031.474-.094.648-.241.1792-.152.348-.362.499-.586.303-.45.565-1.004.7206-1.402l.0036-.009 3.3453-11.039c.1329.202.2923.388.4529.55.2546.258.5287.473.7477.623l-6.0959 19.927c-.685 1.659-1.3056 2.735-1.8464 3.381-.54.645-.959.815-1.2513.79l-.1703-.038c-.1878-.07-.3715-.232-.5385-.49-.1696-.262-.3095-.605-.4114-.994-.2043-.779-.2448-1.7-.101-2.433l4.0033-26.514-.0017-.027c-.6936-10.8426 2.52-16.6729 4.5595-19.2524l.0059-.0074.9689-1.4363a2.397 2.397 0 00.3057-.4266l1.1754 5.5126-2.8948 5.101-.0057.0512c-.0654.5944-.0256 1.1037.1002 1.4982.1243.3897.3455.7017.667.8307.3335.133.6927.038 1.0137-.213.3166-.2473.6213-.6623.8932-1.2427l18.6025-33.4011c.2541-.3957.663-.9281 1.1207-1.3464.23-.2102.4655-.3854.6936-.5012.2167-.1101.4128-.1597.5848-.1487zM13.6239 85.7863l.0512.2398c.0583.4243-.0505.8779-.4336 1.3022l-.0118.0131-.9779 1.4496c-2.1155 2.6789-5.3558 8.623-4.6621 19.56L3.597 134.797c-.1584.812-.1119 1.807.1091 2.65.111.424.2688.819.4753 1.138l.0013.003-1.4629-.331-.0455.007c-.025.003-.0798-.002-.1706-.08-.0901-.077-.1893-.205-.2877-.379-.1922-.34-.3543-.81-.4399-1.277l.0874-2.255 3.9618-26.475-.1203-2.278v-.001c-.1573-3.834.1844-6.6234.7996-8.872.6151-2.2486 1.5068-3.9681 2.4661-5.6659.1508-.2668.3037-.5339.4576-.8027.3512-.6134.7075-1.2359 1.0557-1.8852l.9441-1.3328c.1288-.1763.2104-.352.2294-.5276.0199-.1836-.0311-.3455-.1282-.4787-.1783-.2447-.5034-.3802-.7812-.467l-7.7352-2.185-.011-.0028c-.4488-.1049-1.0777-.1677-1.702.0031l.7061-.9864c.1682-.2258.5233-.3542.9714-.3902.4349-.035.8826.0237 1.1404.0946l.0011.0003 7.7328 2.2151.0185.0024c.7478.0975 1.5259.7588 1.7537 1.5481zM.6962 84.1531c.6826-.5403 1.5703-.5111 2.1864-.3682l7.7197 2.1805c.272.0853.4496.1826.5229.2831.0288.0396.0408.0786.0352.1305-.0064.0594-.0384.1532-.1369.2875l-.9656 1.3631-.0073.0138c-.347.6478-.7002 1.2646-1.0522 1.8795-.1223.2137-.2445.4271-.3663.6415L3.908 89.237l-.0014-.0004c-1.0692-.3144-2.1009-1.2042-2.747-2.2363-.6416-1.0251-.8523-2.1014-.4634-2.8472zm12.299 28.7099c-.1841-.773-.4526-2.19-.6088-3.749-.1488-1.486-.1979-3.123.0361-4.46h-.6081a.3985.3985 0 00-.1059.015c.0054.542.0427 1.271.0809 1.978l.0116.214c.0378.695.0733 1.349.0733 1.732 0 .298-.0067.712-.0264 1.11-.0194.392-.0521.788-.1082 1.041l-.0026.012-3.55 10.989-.3302 2.217-.0018.008c-.0937.429-.1216 1.051-.0514 1.57.0353.26.093.477.1676.625.0772.154.1438.183.1762.187.0436.005.1293-.013.2641-.127.1293-.11.2682-.277.407-.483.2745-.408.5191-.921.6663-1.296l3.5103-11.583zm-4.3583 5.864l2.617-8.102c.0446-.208.0755-.56.0946-.947.0192-.388.0258-.793.0258-1.085 0-.368-.0347-1.008-.0728-1.71l-.0114-.209c-.0295-.546-.0591-1.116-.0734-1.605-.1308.172-.2569.388-.3733.632-.2137.448-.3718.94-.4577 1.287l-1.7488 11.739zm9.0479-3.542l5.1984.344 20.6262-18.6287-15.9215-4.7315-.0073-.0026c-.1732-.0634-.4803-.1553-.8235-.2185-.3326-.0612-.6802-.092-.967-.0546-3.9295 1.8976-6.3429 5.9035-7.5766 10.3909-1.2158 4.421-1.2722 9.266-.5287 12.901zm7.8338-23.7158l4.5966-12.0098c.0767-.3692.1466-.9326.1076-1.4266-.0199-.2518-.0669-.4686-.1436-.629-.0652-.1364-.1444-.2185-.2376-.2601-.152.0252-.4223.131-.5525.3914l-.0052.0104-1.8566 3.3197-4.1017 10.9608 1.3367.0731-.0019.0352c.2777-.1658.5637-.3211.8582-.4651zm-2.7158.3274l3.0106-8.0452-4.4509 7.9596 1.4403.0856z" fill="#666" />
  <path d="M10.1403 106.939l-2.1972 14.749 3.5527-10.998c.102-.46.1287-1.506.1287-2.097 0-.826-.17-2.964-.1664-4.088-.6601.378-1.1409 1.713-1.3178 2.434zM22.9722 92.0572l-2.0225-.1202 6.2501-11.1771-4.2276 11.2973zM35.9331 68.5086c-.4229 1.5783-1.3805 2.6931-2.1389 2.4899-.7583-.2032-1.0303-1.6474-.6073-3.2258.4229-1.5784 1.3805-2.6932 2.1389-2.49.7583.2032 1.0302 1.6475.6073 3.2259z" fill="#fff" />
  <path fill-rule="evenodd" clip-rule="evenodd" d="M34.3202 66.0226c-.3577.4163-.6879 1.0537-.8918 1.8148-.204.7612-.2367 1.4782-.1351 2.0177.1052.559.3323.8395.5656.902.2334.0625.5703-.0668.9409-.4983.3577-.4164.6879-1.0538.8919-1.8149.2039-.7611.2366-1.4782.1351-2.0177-.1053-.559-.3324-.8394-.5657-.902-.2334-.0625-.5703.0669-.9409.4984zm-.3793-.3258c.4035-.4698.9246-.7962 1.4496-.6555.525.1406.8131.6839.9276 1.2924.1183.6281.0755 1.4223-.1435 2.2396-.219.8172-.579 1.5265-.9955 2.0113-.4035.4697-.9246.7961-1.4496.6554-.525-.1406-.813-.6839-.9276-1.2924-.1183-.6281-.0755-1.4223.1435-2.2396.219-.8172.5791-1.5265.9955-2.0112z" fill="#666" />
  <path d="M7.9418 134.396c-.423 1.579-1.3805 2.694-2.139 2.49-.7583-.203-1.0302-1.647-.6073-3.225.423-1.579 1.3806-2.694 2.139-2.49.7583.203 1.0302 1.647.6073 3.225z" fill="#fff" />
  <path fill-rule="evenodd" clip-rule="evenodd" d="M6.3287 131.91c-.3577.417-.6879 1.054-.8918 1.815-.204.762-.2367 1.479-.135 2.018.1052.559.3322.839.5656.902.2334.063.5702-.067.9409-.498.3577-.417.6879-1.054.8918-1.815.204-.761.2367-1.478.1351-2.018-.1052-.559-.3323-.839-.5657-.902-.2333-.062-.5702.067-.9409.498zm-.3793-.325c.4035-.47.9246-.796 1.4496-.656.525.141.8131.684.9277 1.293.1182.628.0755 1.422-.1435 2.239-.219.817-.579 1.527-.9955 2.012-.4035.469-.9246.796-1.4496.655-.525-.141-.813-.684-.9277-1.292-.1182-.629-.0754-1.423.1436-2.24.219-.817.579-1.527.9954-2.011z" fill="#666" />
  <path d="M15.3128 121.08l7.365-19.825c.3737-.794.9772-1.5565 1.7824-2.1252l1.825-1.813c.3828-.2335 4.3401-1.325 7.1882.7754l20.2181 13.2288c6.9619 4.817 13.9754 10.957 17.4963 23.857.2543.932 1.6265 3.481 4.3649 4.599l-2.5943 2.443 19.9863 5.81c1.3276.183 4.0678-.018 4.4084-2.28 1.1469-4.344 3.8509-8.462 7.4749-11.198 1.323-1.521 5.394-4.676 11.092-5.127l19.803-1.787c3.721-.465 7.834 2.35 9.425 6.781l7.49 21.737c1.276 3.162 1.88 6.103 4.296 4.396l7.904-6.695v4.857l-8.797 7.589c-.714.693-1.918 3.493-2.431 4.806-2.644 8.19-6.649 10.959-9.751 13.36-2.056 1.646-6.493 3.54-9.368 3.709l-19.419 1.849c-2.986.767-6.394-.264-9.855-5.944l-8.0325-26.105c-.4756-1.329-1.8971-4.058-3.7783-4.333-1.8811-.274-14.6638-4.13-20.8199-6.024-.5468-.037-1.0263-.027-1.4473.028l-8.2872 21.418c-.6819.921-2.1878 2.792-2.7559 2.905-1.8525 2.338-5.7817 1.979-8.8055-.113l-22.6559-15.427c-4.255-3.369-9.4057-8.89-12.9993-19.468-.5508-1.621-2.1269-9.027-.3224-15.884z" fill="#fff" />
  <path fill-rule="evenodd" clip-rule="evenodd" d="M26.4358 97.5196l-.686.6815c1.641-.5429 3.743-.3695 6.1751 1.1278l.0104.0065 19.9142 13.6566c3.5876 2.206 7.853 6.762 11.2037 11.513 1.6784 2.38 3.1337 4.817 4.1634 7.046 1.0265 2.221 1.6429 4.262 1.6141 5.839-.0007.04.0123.129.0564.271.0424.136.108.304.1979.496.1795.384.4509.853.8107 1.337.6958.935 1.7084 1.906 3.0066 2.436l2.204-2.076c-1.2425-.584-2.1879-1.449-2.8625-2.29-.7342-.914-1.1593-1.815-1.2972-2.32-3.4991-12.821-10.46-18.918-17.3947-23.716L33.3248 98.2937c-1.3625-1.0048-3.0006-1.2531-4.3629-1.2145-.6792.0193-1.2833.1097-1.7393.2091-.228.0497-.4174.1014-.5593.1467-.1183.0379-.192.0677-.2275.0846zm47.0125 44.5824l19.5484 5.683c.6378.085 1.6025.076 2.4404-.214.8369-.291 1.5166-.848 1.6687-1.858l.0021-.014.0034-.013c1.1587-4.388 3.8857-8.547 7.5457-11.318 1.375-1.568 5.492-4.737 11.242-5.192h.002l19.796-1.786c3.862-.481 8.066 2.433 9.686 6.944l.001.003 7.488 21.731c.179.444.35.896.512 1.326.123.327.242.641.357.931.273.693.535 1.282.826 1.716.291.436.585.678.906.744.318.065.735-.028 1.308-.431l8.307-7.037v5.512l-8.878 7.658c-.151.149-.344.426-.562.8-.216.373-.447.822-.672 1.294-.45.941-.875 1.96-1.131 2.612-1.33 4.12-3.007 6.888-4.748 8.929-1.573 1.843-3.194 3.09-4.632 4.195-.153.118-.303.233-.451.348-1.054.843-2.7 1.739-4.438 2.444-1.736.704-3.59 1.23-5.066 1.318l-19.395 1.847c-1.541.392-3.197.32-4.909-.58-1.712-.9-3.458-2.618-5.203-5.481l-.016-.027-8.0398-26.129c-.232-.647-.695-1.636-1.326-2.493-.6399-.869-1.4133-1.549-2.2511-1.671-.4892-.072-1.6583-.37-3.2113-.798-1.5611-.43-3.5292-.997-5.6299-1.615-4.189-1.231-8.9089-2.664-11.9882-3.611-.459-.03-.8644-.026-1.223.011l-8.2449 21.309-.0201.027c-.344.464-.8958 1.169-1.435 1.773-.2692.301-.5394.583-.7815.798-.1209.107-.2389.201-.3493.274-.0773.051-.1605.098-.2456.128-.9903 1.204-2.499 1.697-4.1182 1.637-1.6458-.061-3.4291-.692-4.9744-1.762-.0002 0 .0002.001 0 0l-22.6623-15.43-.0071-.006c-4.2888-3.396-9.4702-8.955-13.0809-19.583-.2835-.835-.8183-3.113-1.0568-6.039-.2387-2.928-.1824-6.525.7294-9.99l.0031-.012 7.373-19.846.0046-.01c.3882-.824 1.0131-1.6163 1.847-2.2102l1.8312-1.8191.0252-.0154c.0757-.0462.2049-.0962.3559-.1445.1589-.0508.3638-.1064.6051-.159.4826-.1052 1.1177-.2002 1.8316-.2204 1.4223-.0403 3.184.2154 4.6684 1.3074l20.2177 13.2282c6.9882 4.835 14.053 11.019 17.5952 23.997.1164.427.5046 1.267 1.2047 2.139.6973.869 1.6925 1.755 3.0135 2.295l.3598.147-2.5587 2.409zm-12.4917 28.867c.0941-.099.1905-.204.2881-.313.5159-.578 1.0471-1.254 1.3862-1.711l8.1141-20.971c-.5012.119-.8859.322-1.1882.598-.3848.352-.6572.845-.8527 1.499l-.0023.008-7.5431 20.287a5.4926 5.4926 0 01-.2021.603zm86.6344 10.045c.376-.375.752-.779 1.125-1.216 1.697-1.989 3.343-4.699 4.656-8.765l.002-.008.003-.006c.258-.661.69-1.696 1.148-2.653.228-.479.465-.942.691-1.33.223-.383.446-.714.651-.913l.005-.005 8.716-7.518v-4.204l-7.501 6.354-.009.006c-.63.446-1.192.624-1.705.519-.511-.104-.901-.475-1.222-.956-.322-.483-.601-1.115-.875-1.81a55.251 55.251 0 01-.365-.954c-.159-.421-.323-.855-.505-1.306l-.005-.012-7.489-21.734v-.001c-1.562-4.347-5.58-7.063-9.158-6.616l-.008.001-19.803 1.787h-.003c-3.467.274-6.322 1.565-8.304 2.861 2.037-.987 4.266-1.558 6.608-1.567l20.085-1.914.002-.001c4.048-.348 7.654 2.993 9.044 6.946l.003.009 6.929 22.186c0 .001.001.002.001.004.65 1.875 1.8 6.297 1.432 11.343-.273 3.739-1.381 7.828-4.149 11.473zM31.6575 99.7515c-3.0669-1.886-5.4828-1.5266-7.053-.4175-.7647.5401-1.3393 1.265-1.6961 2.018l-7.357 19.803c-.8897 3.389-.9471 6.92-.7115 9.81.2361 2.897.7647 5.132 1.032 5.919 3.5747 10.522 8.691 16.004 12.9108 19.347l22.6484 15.421.0016.001c1.4783 1.023 3.1712 1.617 4.7089 1.674 1.5367.057 2.8949-.421 3.7583-1.511.3384-.427.6062-.954.7793-1.592l.003-.011 7.5452-20.293c.2115-.705.5207-1.285.9919-1.717.475-.434 1.0934-.698 1.8871-.802.4412-.058.9379-.067 1.4968-.029l.0289.002.0277.008c3.0774.947 7.8111 2.384 12.0101 3.618 2.0996.618 4.0646 1.184 5.6217 1.613 1.5652.432 2.6994.719 3.1508.785 1.0434.152 1.9213.973 2.5814 1.87.6672.906 1.1519 1.943 1.3961 2.626l.0038.011 8.0223 26.074c1.711 2.801 3.394 4.431 4.993 5.272 1.597.84 3.131.904 4.57.534l.019-.005 19.449-1.852c1.398-.082 3.197-.587 4.911-1.282 1.713-.696 3.312-1.57 4.314-2.372 5.325-4.265 7.177-9.814 7.539-14.77.362-4.961-.772-9.315-1.407-11.146l-.002-.008-6.929-22.185c0-.001-.001-.003-.001-.004-1.348-3.828-4.793-6.93-8.527-6.61h-.001l-20.105 1.917h-.012c-3.417.01-6.598 1.261-9.278 3.284-3.575 2.698-6.2459 6.762-7.3808 11.049-.1927 1.243-1.0504 1.913-1.9972 2.242-.9414.327-2.0004.33-2.6903.235l-.0182-.003-20.0132-5.818-.009-.003c-1.4857-.559-2.6186-1.644-3.3757-2.662-.3794-.51-.6683-1.007-.8626-1.423-.097-.207-.1718-.397-.2223-.559-.0488-.157-.0811-.308-.0789-.429.0267-1.462-.5507-3.419-1.5681-5.62-1.014-2.195-2.4525-4.606-4.1181-6.968-3.3356-4.729-7.557-9.225-11.0622-11.378l-.0107-.007-19.9142-13.6565zm-1.3038 4.8715c-.5094-.694-1.3732-1.062-2.1016-.68-.3443.181-.499.49-.5091.871-.0103.392.1359.846.3927 1.247.2568.4.6058.717.97.859.3508.137.7228.117 1.0845-.167.3786-.297.5337-.659.5439-1.023.0105-.373-.1308-.766-.3804-1.107zm.8802 1.121c-.0144.513-.24 1.014-.7351 1.402-.5119.402-1.0728.436-1.5748.24-.4886-.19-.9124-.593-1.2092-1.055-.2969-.463-.4851-1.015-.4716-1.53.0139-.525.2414-1.02.7768-1.301 1.0312-.54 2.1452.021 2.7369.828.3011.41.4912.911.477 1.416zm106.5671 29.892c-.51-.695-1.374-1.062-2.102-.681-.344.181-.499.491-.509.872-.01.391.136.846.392 1.246.257.4.606.718.971.86.35.136.722.116 1.084-.168.379-.297.534-.658.544-1.023.01-.372-.131-.766-.38-1.106zm.88 1.12c-.015.514-.24 1.014-.735 1.402-.512.402-1.073.436-1.575.24-.489-.19-.913-.592-1.209-1.055-.297-.463-.486-1.015-.472-1.529.014-.525.241-1.021.777-1.301 1.031-.541 2.145.02 2.737.827.301.411.491.911.477 1.416zm-83.2019 28.962c-.5095-.695-1.3733-1.062-2.1016-.681-.3443.181-.499.491-.5091.872-.0103.391.1359.846.3926 1.246.2569.4.6059.718.9701.86.3508.136.7228.116 1.0844-.168.3787-.297.5338-.658.544-1.023.0105-.372-.1309-.766-.3804-1.106zm.8802 1.12c-.0144.514-.24 1.014-.7351 1.402-.512.402-1.0728.436-1.5748.241-.4886-.191-.9125-.593-1.2092-1.056-.2969-.463-.4852-1.015-.4716-1.529.0138-.525.2414-1.021.7768-1.301 1.0311-.541 2.1452.02 2.7369.827.3011.411.4912.911.477 1.416zm56.3807 15.401c-.51-.695-1.374-1.062-2.102-.681-.344.181-.499.491-.509.872-.01.391.136.846.393 1.246.256.4.605.718.97.86.35.136.722.116 1.084-.168.379-.297.534-.659.544-1.023.011-.372-.131-.766-.38-1.106zm.88 1.12c-.015.514-.24 1.014-.735 1.402-.512.402-1.073.436-1.575.24-.489-.19-.913-.593-1.209-1.055-.297-.463-.485-1.015-.472-1.529.014-.525.241-1.021.777-1.302 1.031-.54 2.145.021 2.737.828.301.41.491.911.477 1.416z" fill="#666" />
  <path d="M57.1694 151.828c-14.4884 15.479-47.6843-14.617-30.0236-32.871.2566-.266.5537-.511.867-.706 5.5942-3.481 12.2411-2.752 18.1025.383 6.1523 3.29 11.4391 9.23 13.7344 15.731 2.075 5.877 1.7051 12.212-2.6803 17.463zM139.93 175.289c-14.488 15.478-47.6838-14.618-30.023-32.872.256-.265.554-.51.867-.705 5.594-3.482 12.241-2.752 18.102.382 6.153 3.291 11.439 9.23 13.735 15.731 2.075 5.877 1.705 12.213-2.681 17.464z" fill="#fff" />
  <path fill-rule="evenodd" clip-rule="evenodd" d="M27.8808 118.039c5.6937-3.543 12.4404-2.787 18.3525.375 6.2039 3.317 11.5349 9.304 13.8522 15.868 2.0976 5.941 1.7298 12.374-2.7241 17.707l-.0091.011-.0003-.001c-3.6921 3.945-8.5765 4.978-13.5164 4.036-4.9324-.942-9.9314-3.853-13.9102-7.816-3.979-3.963-6.9575-8.998-7.823-14.208-.8671-5.219.3901-10.604 4.8638-15.228.2695-.279.5824-.537.9146-.744zm17.984.745c-5.7775-3.047-12.267-3.714-17.7198-.32-.2945.183-.5758.415-.8195.667-4.3566 4.503-5.5727 9.725-4.7298 14.799.8444 5.083 3.7591 10.027 7.6825 13.935 3.9236 3.908 8.8364 6.76 13.6512 7.679 4.8051.917 9.5013-.091 13.0528-3.881 4.2765-5.125 4.677-11.299 2.6829-17.069-.4512-.07-.9719-.279-1.5308-.583-.6328-.343-1.3353-.819-2.0726-1.392-1.475-1.146-3.1056-2.689-4.6203-4.363-1.5145-1.674-2.9192-3.485-3.9388-5.166-.9686-1.598-1.6147-3.118-1.6378-4.306zm.5188.281c.1087 1.01.6687 2.318 1.5466 3.766.9988 1.647 2.3823 3.432 3.882 5.089 1.4994 1.657 3.1089 3.18 4.5562 4.304.7238.562 1.403 1.021 2.0044 1.348.4126.224.7793.38 1.0926.467-2.2967-6.142-7.2753-11.744-13.0818-14.974zM110.642 141.5c5.694-3.544 12.44-2.788 18.352.374 6.204 3.318 11.535 9.305 13.853 15.868 2.097 5.941 1.729 12.374-2.725 17.707l-.009.011c-3.692 3.944-8.576 4.978-13.516 4.035-4.933-.941-9.932-3.852-13.911-7.815-3.979-3.963-6.957-8.998-7.823-14.208-.867-5.22.39-10.605 4.864-15.229.27-.278.583-.537.915-.743zm17.984.745c-5.778-3.048-12.267-3.714-17.72-.321-.294.184-.576.415-.819.667-4.357 4.503-5.573 9.726-4.73 14.799.844 5.083 3.759 10.028 7.682 13.936 3.924 3.908 8.837 6.759 13.651 7.678 4.806.917 9.502-.09 13.053-3.881 4.277-5.124 4.677-11.299 2.683-17.068-.451-.071-.972-.28-1.531-.583-.632-.344-1.335-.82-2.072-1.393-1.475-1.145-3.106-2.689-4.621-4.363-1.514-1.674-2.919-3.484-3.938-5.166-.969-1.597-1.615-3.118-1.638-4.305zm.519.281c.108 1.009.668 2.317 1.546 3.765.999 1.647 2.383 3.432 3.882 5.09 1.5 1.657 3.109 3.179 4.556 4.303.724.563 1.403 1.022 2.005 1.348.412.224.779.381 1.092.468-2.296-6.143-7.275-11.744-13.081-14.974z" fill="#666" />
</svg>
