<svg xmlns="http://www.w3.org/2000/svg" viewBox="0 0 20 20">
  <path d="M1 3.5C1 2.1193 2.1193 1 3.5 1h13C17.8807 1 19 2.1193 19 3.5v13c0 1.3807-1.1193 2.5-2.5 2.5h-13C2.1193 19 1 17.8807 1 16.5v-13z" fill="#333333" />
  <path fill-rule="evenodd" clip-rule="evenodd" d="M3.5 2C2.6716 2 2 2.6716 2 3.5V12h16V3.5c0-.8284-.6716-1.5-1.5-1.5h-13zM4 14c0-.5523.4477-1 1-1h3v1H5.5a.5.5 0 00-.5.5v2.0052a.5.5 0 00.5.5h1a.5.5 0 00.5-.5V16H6v-1h2v2c0 .5523-.4477 1-1 1H5c-.5523 0-1-.4477-1-1v-3z" fill="#FFFFFF" />
  <path d="M11 13H9v1h1v3H9v1h3v-1h-1.0046v-3H12v-1h-1z" fill="#FFFFFF" />
  <path fill-rule="evenodd" clip-rule="evenodd" d="M16 13v1h-2v.9869h2v1.0575L14 16v2h-1v-5h3z" fill="#FFFFFF" />
  <g fill="#333333">
    <path d="M13 4.5c0-.828.671-1.5 1.5-1.5s1.5.672 1.5 1.5S15.329 6 14.5 6 13 5.328 13 4.5zM4 10l4-6 3.5 4.5L13 7l3 3H4z" />
  </g>
</svg>
