<svg xmlns="http://www.w3.org/2000/svg" viewBox="0 0 20 20">
  <path fill-rule="evenodd" clip-rule="evenodd" d="M10.0083 0C4.474 0 0 4.507 0 10.0826c0 4.457 2.8666 8.2297 6.8434 9.565.4972.1004.6793-.217.6793-.4839 0-.2337-.0164-1.0349-.0164-1.8698-2.784.6011-3.3638-1.2019-3.3638-1.2019-.4474-1.1685-1.1103-1.4688-1.1103-1.4688-.9113-.6177.0663-.6177.0663-.6177 1.0108.0668 1.5412 1.035 1.5412 1.035.8946 1.5356 2.3362 1.1017 2.9162.8346.0827-.6511.348-1.1018.6297-1.3521-2.2205-.2337-4.5567-1.1017-4.5567-4.9746 0-1.1018.3974-2.0032 1.0272-2.7042-.0994-.2503-.4474-1.2855.0995-2.671 0 0 .845-.2671 2.7505 1.035a9.622 9.622 0 012.5022-.334c.845 0 1.7065.117 2.5019.334 1.9057-1.3021 2.7507-1.035 2.7507-1.035.547 1.3855.1987 2.4207.0994 2.671.6463.701 1.0273 1.6024 1.0273 2.7042 0 3.8729-2.3362 4.7241-4.5733 4.9746.3647.3171.6793.918.6793 1.8696 0 1.352-.0163 2.4372-.0163 2.7709 0 .2671.1823.5845.6793.4843C17.1333 18.3121 20 14.5396 20 10.0826 20.0163 4.5069 15.526 0 10.0083 0z" fill="#24292F" />
</svg>
