<svg xmlns="http://www.w3.org/2000/svg" viewBox="0 0 20 20">
  <path d="M1 3.5C1 2.1193 2.1193 1 3.5 1h13C17.8807 1 19 2.1193 19 3.5v13c0 1.3807-1.1193 2.5-2.5 2.5h-13C2.1193 19 1 17.8807 1 16.5v-13z" fill="#333333" />
  <path fill-rule="evenodd" clip-rule="evenodd" d="M3.5 2C2.6716 2 2 2.6716 2 3.5V8h16V3.5c0-.8284-.6716-1.5-1.5-1.5h-13zM2 15v1.5c0 .8284.6716 1.5 1.5 1.5h13c.8284 0 1.5-.6716 1.5-1.5V15H2zM3.5 10c0-.5523.4477-1 1-1h3v1H5a.5.5 0 00-.5.5v2.0052a.5.5 0 00.5.5h1a.5.5 0 00.5-.5V12h-1v-1h2v2c0 .5523-.4477 1-1 1h-2c-.5523 0-1-.4477-1-1v-3zM9.5 9h-1v5h3v-1h-2V9zM15.5 9h-3v5h3c.5523 0 1-.4477 1-1v-.5029c0-.5507-.4464-.9971-.9971-.9971.5507 0 .9971-.4464.9971-.9971V10c0-.5523-.4477-1-1-1zm-2 3h1.625a.375.375 0 01.375.375v.25a.375.375 0 01-.375.375H13.5v-1zm1.625-2H13.5v1h1.625a.375.375 0 00.375-.375v-.25a.375.375 0 00-.375-.375z" fill="#FFFFFF" />
</svg>
