<svg xmlns="http://www.w3.org/2000/svg" viewBox="0 0 20 20">
  <path d="M13.002 1c.5514.0002 1.3112.3132 1.7041.706l3.5878 3.588c.3897.3896.7059 1.153.7061 1.704v11.004c-.0002.5511-.445.9979-.9932.998H1.9932c-.5485-.0001-.993-.4449-.9932-.9932V1.9932c.0001-.5484.4473-.993.998-.9932h11.004zM2 2v16h16v-1.7266h-3.6689v-4.3505c-.0002-.2564-.0989-.3584-.3457-.3584-.2715 0-.7139.1529-.9854.3584v4.3505h-1.8799v-6.287h1.4453l.1104.3974c.4071-.2953.9878-.5263 1.6299-.5264.9879 0 2.0009.3859 2.0009 1.6944v3.1084H18V6.9981L13 7l.002-5H2zm4.997 5.4844c2.5566 0 3.5079 1.4115 3.5079 4.4648s-.952 4.4522-3.5078 4.4522c-2.5685-.0001-3.5313-1.3984-3.5313-4.4522 0-3.0538.9628-4.4647 3.5313-4.4648zm0 1.8603c-.9261.0001-1.3212.4874-1.3212 2.6035 0 2.1171.395 2.5927 1.3213 2.5928.9136 0 1.3213-.4618 1.3213-2.5918S7.9107 9.3447 6.997 9.3447zM14 6.0723h3.5L14 2.5v3.5723z" fill="currentColor" />
</svg>
