<svg xmlns="http://www.w3.org/2000/svg" viewBox="0 0 20 20">
  <path fill-rule="evenodd" clip-rule="evenodd" d="M9 4.2002v3.5996c0 .3257-.1156.6064-.347.8434C8.4219 8.881 8.1489 9 7.8333 9H3.1668c-.3166 0-.5896-.119-.8199-.3568C2.1156 8.4062 2 8.1245 2 7.7998V4.2002c0-.3247.1156-.6064.347-.8434C2.5771 3.119 2.8511 3 3.1667 3h4.6664c.3156 0 .5896.119.8199.3568.2313.237.346.5187.3469.8434zm9 3.5996V4.2002c0-.3247-.1156-.6064-.3469-.8434C17.4227 3.119 17.1498 3 16.8332 3h-4.6664c-.3156 0-.5886.119-.8199.3568-.2313.237-.3469.5187-.3469.8434v3.5996c.0009.3247.1156.6064.3469.8434.2304.2378.5043.3568.8199.3568h4.6664c.3156 0 .5895-.119.8199-.3568.2313-.237.3469-.5177.3469-.8434zm0 8v-3.5996c0-.3247-.1156-.6064-.3469-.8434-.2304-.2379-.5033-.3568-.8199-.3568h-4.6664c-.3156 0-.5886.1189-.8199.3568-.2313.237-.3469.5178-.3469.8434v3.5996c.0009.3247.1156.6064.3469.8434.2304.2379.5043.3568.8199.3568h4.6664c.3156-.001.5895-.1189.8199-.3568.2313-.237.3469-.5187.3469-.8434zm-9 0v-3.5996c-.001-.3247-.1156-.6064-.347-.8434C8.4229 11.1189 8.1489 11 7.8333 11H3.1668c-.3156 0-.5896.1189-.8199.3568-.2313.237-.3469.5178-.3469.8434v3.5996c0 .3247.1156.6064.347.8434.2302.2379.5032.3568.8198.3568h4.6664c.3156-.001.5886-.1189.8199-.3568.2313-.237.3469-.5187.3469-.8434z" fill="#333333" />
</svg>
