<svg xmlns="http://www.w3.org/2000/svg" viewBox="0 0 20 20">
  <path d="M8.2074 16.964c-.612-.18-1.152-.468-1.602-.846-.468-.36-.828-.828-1.08-1.368-.27-.54-.396-1.152-.396-1.872V8.54c0-.702.126-1.332.378-1.908.252-.576.594-1.062 1.044-1.458.432-.396.954-.702 1.566-.918.612-.216 1.26-.324 1.962-.324.612 0 1.206.09 1.782.252.576.18 1.08.414 1.512.738.432.324.774.738 1.026 1.206.252.486.378 1.044.378 1.674v.54h-1.728V8c0-.432-.09-.792-.234-1.116-.162-.306-.378-.558-.648-.774-.27-.198-.594-.342-.954-.45-.36-.108-.756-.162-1.152-.162-.432 0-.828.072-1.206.198s-.72.306-1.008.558c-.288.252-.522.576-.702.936-.18.378-.252.81-.252 1.296v4.266c0 .468.072.864.252 1.224.162.36.396.666.684.918.288.252.63.45 1.026.576.396.144.81.198 1.278.198.396 0 .774-.054 1.134-.162.36-.108.666-.27.936-.486.252-.216.468-.486.612-.81.144-.324.234-.702.234-1.134v-1.062h-3.384V10.43h5.13v2.844c0 .648-.126 1.224-.378 1.71-.252.504-.576.918-.99 1.242-.432.342-.918.594-1.476.774-.576.18-1.17.252-1.818.252-.684 0-1.332-.09-1.944-.27l.018-.018z" fill="#333333" />
</svg>
