<svg xmlns="http://www.w3.org/2000/svg" viewBox="0 0 20 20">
  <g fill-rule="evenodd" clip-rule="evenodd">
    <path d="M5 1.0034L11 1v2h.2857L17 8.5V9h2v6l-4 4H1V5l4-3.9966z" fill="#333333" />
    <path d="M6.75 5.6036L8 4.3556v7.2908l-1.25 1.25V5.6036zm.3535 7.6463L8.3535 12h7.2929l-1.25 1.2499H7.1035zM9.641 2L6.3963 5.25H2.25L5.5 2h4.141zM18 10.3535l-3.25 3.25V17.75L18 14.5v-4.1465zM14.25 18v-4.2501h-7.5V18h7.5zm-8 0V5.75H2V18h4.25z" fill="#FFFFFF" />
    <path d="M8.8 3.5h1.7L10 4H8.3l.5-.5zm6.9452 5.7548l.3774-.3774-5.0477-4.9522-.4252.4251 5.0955 4.9045zM16.5 11l-.5.5V10l.5-.5V11zm-1-1.2873L10.0842 4.5H8.5v7h7V9.7127z" fill="#999999" />
  </g>
</svg>
