<svg xmlns="http://www.w3.org/2000/svg" viewBox="0 0 20 20">
  <path fill-rule="evenodd" clip-rule="evenodd" d="M5.819 8.3172c1.1932-.373 2.5673-.6492 4.0355-.8134C13.9231 6.9482 18.5 7.3474 18.5 9.112c0 1.675-4.2371 2.2508-8.6559 1.6226-1.5346-.2315-2.8846-.4958-4.0269-.819C4.1032 10.5155 3 11.2777 3 11.9499c0 .8593 1.0309 1.5848 2.8198 2.1675 1.1927-.3728 2.5666-.649 4.0347-.8136 4.0686-.5556 8.6455-.1564 8.6455 1.6081 0 1.6751-4.2371 2.2509-8.6559 1.6227-1.5343-.2315-2.884-.4957-4.0262-.8188C4.1033 16.3158 3 17.0778 3 17.7499H1.5c0-1.0975.8557-2.0467 2.2609-2.7944C2.2938 14.2318 1.5 13.2759 1.5 11.9499c0-1.0974.8557-2.0467 2.2606-2.7946C2.2937 8.4317 1.5 7.4758 1.5 6.15c0-2.2842 3.704-3.9259 8.3545-4.447 4.0686-.5557 8.6455-.1565 8.6455 1.608 0 1.675-4.2371 2.251-8.6496 1.6236l.2112-1.485c1.9082.2712 3.8002.2903 5.2729.0901.4437-.0602.8294-.1386 1.1365-.2277-.3968-.1017-.9234-.183-1.5409-.2368-1.5088-.1316-3.4015-.087-4.8905.1162C6.1301 3.6296 3 5.0169 3 6.1499c0 .8592 1.0306 1.5846 2.819 2.1673zm4.2426 6.7332a41.6223 41.6223 0 01-.8896-.1437c.2841-.0432.5737-.0815.8676-.1144 1.489-.2032 3.3817-.2478 4.8905-.1162.6175.0539 1.1441.1351 1.5409.2368-.3071.0891-.6928.1674-1.1365.2278-1.4727.2001-3.3647.181-5.2729-.0903zm5.2729-5.7097c-1.4727.2001-3.3647.181-5.2729-.0903a42.0312 42.0312 0 01-.8902-.1438c.2843-.0431.574-.0814.868-.1143 1.4892-.2032 3.3819-.2478 4.8907-.1162.6175.0539 1.1441.1351 1.5409.2368-.3071.089-.6928.1675-1.1365.2278z" fill="#333333" />
</svg>
