<svg xmlns="http://www.w3.org/2000/svg" viewBox="0 0 20 20">
  <path d="M10.0859 1c1.62 0 3.1145.402 4.4825 1.207 1.3678.805 2.451 1.8965 3.249 3.2754.7988 1.3789 1.1972 2.8848 1.1972 4.5176s-.3984 3.1387-1.1962 4.5176c-.798 1.3789-1.8812 2.4714-3.2491 3.2754-1.369.805-2.8634 1.207-4.4834 1.207-1.62 0-3.1144-.402-4.4824-1.207-1.3678-.805-2.4501-1.8965-3.248-3.2754-.798-1.379-1.1983-2.8846-1.1983-4.5176 0-1.6328.3985-3.1387 1.1963-4.5176.798-1.3789 1.8812-2.4714 3.249-3.2754C6.9705 1.403 8.466 1 10.086 1zM8.9687 12.999c-.1089.0001-.1976.0355-.2675.1065-.07.07-.1055.1596-.1055.2695v2.25c0 .1089.0355.1985.1055.2695.07.07.1586.1055.2675.1055h2.2325c.1089-.0001.1976-.0355.2676-.1064.0699-.07.1054-.1597.1054-.2686v-2.25c0-.1089-.0355-.1986-.1054-.2695-.07-.07-.1587-.1064-.2676-.1065H8.9687zM10.3185 4c-1.883 0-3.3215.832-4.3135 2.496-.116.188-.0852.3523.0928.4923l1.5351 1.1719c.054.0469.128.0702.2207.0703.124 0 .221-.0477.29-.1407.411-.5309.744-.891 1-1.078.263-.188.5972-.2813 1.0001-.2813.3719 0 .7031.1017.9941.3047.2908.2028.4364.4335.4365.6914 0 .297-.0774.5358-.2324.7158-.155.1789-.4182.3544-.79.5273-.488.219-.9358.5577-1.3428 1.0147-.407.4569-.6113.9467-.6113 1.4707v.4219c0 .109.0354.1995.1054.2705.07.0697.1589.1054.2676.1054h2.2324c.1088 0 .1977-.0347.2676-.1054.07-.07.1055-.1605.1055-.2705 0-.148.083-.3422.25-.5801a1.9783 1.9783 0 01.6328-.5801c.2479-.14.4383-.252.5703-.334.1319-.082.3094-.2194.5342-.4101.224-.191.3975-.3786.5185-.5616.121-.184.2292-.42.3262-.709.096-.289.1445-.6052.1445-.9492l-.0029-.0029c0-.687-.2146-1.3242-.6445-1.9102-.43-.5859-.9675-1.0384-1.6104-1.3584-.6438-.3209-1.3027-.4813-1.9765-.4814z" fill="#333333" />
</svg>
