<svg xmlns="http://www.w3.org/2000/svg" viewBox="0 0 60 60">
  <path d="M22.5 36.923h15v8.0131c0 3.5399 2.1061 6.7403 5.3571 8.1408l1.1183.4817c2.5724 1.1081 4.2388 3.6405 4.2388 6.4414H11.7857c0-2.8009 1.6664-5.3333 4.2388-6.4414l1.1183-.4817C20.3939 51.6764 22.5 48.476 22.5 44.9361V36.923z" fill="#1651B0" />
  <path fill-rule="evenodd" clip-rule="evenodd" d="M22.5 36.923h15v9.2308h-15V36.923z" fill="#022C71" />
  <path d="M4.2857 0h51.4286C58.0812 0 60 2.0664 60 4.6154V36.923c0 2.549-1.9188 4.6154-4.2857 4.6154H4.2857C1.9187 41.5385 0 39.4721 0 36.9231V4.6154C0 2.0664 1.9188 0 4.2857 0z" fill="#1651B0" />
  <path fill-rule="evenodd" clip-rule="evenodd" d="M4.2857 4.6155v32.3077h51.4285V4.6155H4.2857z" fill="#fff" />
  <path fill-rule="evenodd" clip-rule="evenodd" d="M47.1428 4.6155h8.5715v32.3077H21.4286L47.1428 4.6155z" fill="#F4F4F4" />
  <path fill-rule="evenodd" clip-rule="evenodd" d="M13.1597 16.3672H9.75v7.3758h3.5991c.3269 0 .6426-.0448.9472-.1344.3046-.0897.572-.2242.8023-.4035.2303-.1793.4123-.4.546-.6621.1411-.2689.2117-.5758.2117-.9206 0-.4138-.1152-.7828-.3454-1.1069-.2229-.3311-.5646-.5552-1.0252-.6724v-.0104c.4086-.1793.6983-.4.8692-.6621.1708-.2689.2562-.5689.2562-.9 0-.6413-.2154-1.1172-.6462-1.4276-.4309-.3172-1.0326-.4758-1.8052-.4758zm.6909 2.7827c-.2006.1656-.4903.2483-.8692.2483H11.232v-1.862h1.6826c.3788 0 .6797.0724.9025.2172.2303.1379.3455.369.3455.6931 0 .3034-.104.5379-.312.7034zm.1894 3.1656c-.2303.1724-.546.2586-.9471.2586H11.232v-2.0173h1.872c.416 0 .7317.0794.9471.238.2229.1586.3343.4069.3343.7448 0 .3379-.1151.5966-.3454.7759z" fill="#1651B0" />
  <path d="M36.2306 23.6394c.4531.1448.936.2173 1.4486.2173.2897 0 .5831-.038.8802-.1138.3046-.069.5758-.1759.8135-.3207.2451-.1517.442-.3414.5905-.569.156-.2276.234-.4931.234-.7965 0-.4-.1337-.7242-.4011-.9725-.26-.2482-.6351-.4172-1.1254-.5069l-1.014-.1862c-.2749-.0482-.4977-.1-.6686-.1551-.1709-.0552-.2563-.169-.2563-.3414 0-.2.0854-.3483.2563-.4448.1783-.0966.4011-.1449.6686-.1449.2823 0 .52.0414.7131.1242.2006.0827.3863.2138.5572.3931l.9805-.6207c-.2377-.3173-.5423-.5414-.9137-.6724-.3714-.1311-.8134-.1966-1.326-.1966-.3046 0-.5943.038-.8691.1138-.2749.0759-.5163.1897-.7243.3414-.2006.1448-.364.3276-.4903.5483-.1189.2138-.1783.4586-.1783.7345 0 .4.1412.7103.4234.931.2898.2207.6686.3689 1.1366.4448l.7466.1241c.3863.0621.6611.1311.8246.2069.1634.0759.2451.2173.2451.4242 0 .1172-.0334.2172-.1003.3-.0668.0827-.1523.1517-.2563.2069-.104.0483-.2228.0862-.3565.1138a2.693 2.693 0 01-.4123.031c-.3269 0-.6277-.0586-.9026-.1759-.2674-.1241-.4903-.2965-.6686-.5172l-.9583.6724c.2823.3862.65.6552 1.1032.8069zM46.9108 18.4463h1.326v.8794h.0223c.0817-.138.1931-.2656.3342-.3828a2.076 2.076 0 01.468-.3103 2.5663 2.5663 0 01.5238-.2069c.1857-.0552.364-.0828.5348-.0828.0743 0 .1486.0034.2229.0103.0817 0 .1597.0069.234.0207v1.1587a1.6772 1.6772 0 00-.2563-.0207 2.8023 2.8023 0 00-.2563-.0104c-.26 0-.4977.0345-.7131.1035-.2155.0689-.4049.1689-.5683.3-.1635.1241-.2898.2827-.3789.4758-.0891.1862-.1337.4035-.1337.6518v2.7103h-1.3594v-5.2966z" fill="#1651B0" />
  <path fill-rule="evenodd" clip-rule="evenodd" d="M43.4898 23.8669c-.3492 0-.6835-.0448-1.0029-.1344-.3194-.0897-.6017-.2242-.8468-.4035a2.0507 2.0507 0 01-.5906-.6724c-.1412-.269-.2117-.5862-.2117-.9517v-1.0345c0-.3724.0668-.7.2005-.9828.1412-.2896.3306-.531.5683-.7241.2377-.2.5126-.3517.8246-.4552.3194-.1034.6574-.1552 1.014-.1552.312 0 .6129.0449.9026.1345.2971.0828.5608.2104.7911.3828.2303.1655.416.3793.5572.6414.1411.262.2117.5689.2117.9207v1.0241h-3.6883v.2897c0 .1655.0334.3172.1003.4551a1.072 1.072 0 00.2897.3311c.1263.0896.2711.1586.4346.2069.1634.0482.3342.0724.5125.0724.2303 0 .4569-.0621.6797-.1862.2229-.1311.4086-.2966.5572-.4966l1.0474.5586c-.2228.4138-.546.7138-.9694.9-.416.1862-.8766.2793-1.3817.2793zm1.0585-3.4344c0-.1794-.0334-.3311-.1002-.4552-.0595-.131-.1412-.2379-.2452-.3207a.9433.9433 0 00-.3566-.1759 1.282 1.282 0 00-.4011-.062c-.1486 0-.2971.0207-.4457.062a1.0596 1.0596 0 00-.39.1862c-.1114.0828-.2043.1931-.2786.3311-.0743.1379-.1114.3069-.1114.5069v.0724h2.3288v-.1448z" fill="#1651B0" />
  <path d="M26.4531 18.4463h1.4375l1.0697 3.6724h.0223l1.1254-3.6724h1.1811l1.1255 3.6621h.0222l1.0698-3.6621h1.4151l-1.8051 5.3172h-1.3149l-1.1031-3.6517h-.0223l-1.0809 3.6517h-1.326l-1.8163-5.3172z" fill="#1651B0" />
  <path fill-rule="evenodd" clip-rule="evenodd" d="M22.5664 23.7325c.3194.0896.6537.1344 1.0029.1344.312 0 .6202-.0482.9248-.1448.312-.0965.5906-.2379.8357-.4241a2.2345 2.2345 0 00.5906-.7035c.1486-.2758.2229-.5931.2229-.9517v-1.0862c0-.3379-.0743-.6414-.2229-.9103-.1411-.2759-.3306-.5069-.5683-.6932-.2377-.1931-.5163-.3413-.8357-.4448a3.2 3.2 0 00-.9917-.1552c-.312 0-.624.0483-.936.1449a2.5804 2.5804 0 00-.8246.4345c-.2451.1862-.442.4172-.5906.6931-.1485.2758-.2228.5931-.2228.9517v1.2103c0 .338.0706.638.2117.9.1486.2552.3417.4724.5794.6518.2377.1724.5126.3034.8246.3931zm1.4263-.9828a1.7779 1.7779 0 01-.4234.0517c-.3566 0-.6538-.0896-.8915-.2689-.2303-.1794-.3454-.4311-.3454-.7552v-1.3035c0-.1931.0334-.3551.1003-.4862.0743-.131.1671-.2379.2786-.3207a1.1578 1.1578 0 01.39-.1758 1.4972 1.4972 0 01.4234-.0621c.3566 0 .65.0897.8803.269.2377.1724.3565.4207.3565.7448v1.3138c0 .1931-.0371.3552-.1114.4862a.8612.8612 0 01-.2786.3207 1.1909 1.1909 0 01-.3788.1862z" fill="#1651B0" />
  <path d="M16.8379 18.4463h1.326v.8794h.0223c.0817-.138.1931-.2656.3343-.3828a2.0715 2.0715 0 01.468-.3103 2.5633 2.5633 0 01.5237-.2069c.1857-.0552.364-.0828.5348-.0828.0743 0 .1486.0034.2229.0103.0817 0 .1597.0069.234.0207v1.1587a1.6772 1.6772 0 00-.2563-.0207 2.8023 2.8023 0 00-.2563-.0104c-.26 0-.4977.0345-.7131.1035-.2155.0689-.4049.1689-.5683.3-.1634.1241-.2897.2827-.3789.4758-.0891.1862-.1337.4035-.1337.6518v2.7103h-1.3594v-5.2966z" fill="#1651B0" />
</svg>
