<svg xmlns="http://www.w3.org/2000/svg" viewBox="0 0 33 60">
  <path d="M26.1635 0c3.5686 0 6.4615 2.893 6.4615 6.4615v6.6635A.375.375 0 0133 13.5v6.75a.375.375 0 01-.375.375v32.9135c0 3.5686-2.8929 6.4615-6.4615 6.4615H6.8365C3.268 60 .375 57.1071.375 53.5385V22.5A.375.375 0 010 22.125V17.25a.375.375 0 01.375-.375V15A.375.375 0 010 14.625V9.75a.375.375 0 01.375-.375V6.4615C.375 2.893 3.268 0 6.8365 0h19.327z" fill="#1651B0" />
  <path fill-rule="evenodd" clip-rule="evenodd" d="M6.8654 1.875c-2.549 0-4.6154 2.0664-4.6154 4.6154v47.0192c0 2.549 2.0664 4.6154 4.6154 4.6154h19.2692c2.549 0 4.6154-2.0664 4.6154-4.6154V6.4904c0-2.549-2.0664-4.6154-4.6154-4.6154H23.625l-.1471.387a2.3077 2.3077 0 01-2.1572 1.488h-9.6414a2.3077 2.3077 0 01-2.1572-1.488l-.1471-.387H6.8654z" fill="#fff" />
  <path fill-rule="evenodd" clip-rule="evenodd" d="M30.75 6v47.5096c0 2.549-2.0664 4.6154-4.6154 4.6154H6.375L30.75 6z" fill="#F4F4F4" />
  <path fill-rule="evenodd" clip-rule="evenodd" d="M14.1884 32.9243c-.4997 0-.9779-.0689-1.4345-.2067-.448-.1379-.8443-.3403-1.1889-.6074a3.1764 3.1764 0 01-.8271-.9951c-.1981-.3963-.2972-.8529-.2972-1.3698v-2.9465c0-.5428.1034-1.0252.3101-1.4474.2154-.4221.4954-.7754.84-1.0597a3.6602 3.6602 0 011.189-.6591c.4393-.155.8873-.2326 1.344-.2326.4996 0 .9735.0819 1.4215.2456.4566.155.8572.379 1.2018.672.3447.2843.616.6332.8142 1.0467.2068.4136.3101.8788.3101 1.3957v2.7656c0 .5427-.1076 1.0252-.323 1.4473-.2068.4222-.4868.7797-.84 1.0727-.3446.2843-.7366.504-1.176.659a4.2229 4.2229 0 01-1.344.2197zm0-1.5249c.2154 0 .4394-.0301.672-.0905a1.8581 1.8581 0 00.6332-.2972c.1982-.1464.3575-.3317.4782-.5557.1206-.2326.1809-.5126.1809-.84v-2.9464c0-.2757-.056-.5213-.168-.7367a1.4946 1.4946 0 00-.4394-.5427c-.1895-.1551-.4092-.2714-.6591-.3489-.2412-.0776-.4954-.1164-.7624-.1164-.224 0-.4524.0302-.685.0905-.224.0603-.435.1637-.6332.3102-.1895.1378-.3446.323-.4652.5557-.1206.224-.181.4996-.181.827v2.9465c0 .2757.0517.5255.1551.7495a1.625 1.625 0 00.4523.5428c.1896.1465.405.2585.6462.336.2412.0775.4997.1163.7754.1163z" fill="#1651B0" />
  <path d="M22.5706 32.9114c-.4222 0-.8314-.0474-1.2277-.1421-.3963-.0862-.7625-.2197-1.0985-.4007a3.2366 3.2366 0 01-.8529-.7107c-.2412-.293-.4221-.6333-.5427-1.021l1.5507-.6073c.1723.448.4566.7926.8529 1.0338.3964.2412.853.3619 1.3699.3619.2326 0 .4566-.0216.672-.0647.2154-.0517.4049-.1249.5686-.2197.1723-.1033.3102-.2283.4135-.3747.1034-.1551.1551-.3403.1551-.5557 0-.3446-.1249-.6031-.3747-.7754-.2413-.1809-.5385-.3231-.8917-.4265l-1.5508-.3747c-.3102-.0776-.5988-.1723-.8659-.2843-.267-.1207-.4996-.2757-.6978-.4653-.1982-.1895-.3575-.4264-.4782-.7107-.112-.2843-.168-.629-.168-1.0339 0-.4308.0862-.8141.2585-1.1501.1809-.3447.4222-.6333.7237-.8659.3015-.2326.6505-.4092 1.0468-.5298.3963-.1293.8184-.1939 1.2664-.1939.7668 0 1.4216.1422 1.9643.4265.5514.2843.9779.7711 1.2794 1.4603l-1.4086.6203c-.1981-.3877-.4652-.6591-.8012-.8142-.336-.1636-.728-.2455-1.176-.2455-.1896 0-.3748.0215-.5557.0646-.1723.0431-.3274.112-.4652.2068a1.1258 1.1258 0 00-.336.3618c-.0776.1465-.1164.3231-.1164.5299 0 .1637.0345.3058.1034.4264.0776.1207.1766.2284.2973.3231.1206.0862.2627.1594.4264.2197.1637.0603.336.1163.5169.168l1.5767.3877c.2757.0689.5384.1637.7883.2843.2584.1206.4824.28.672.4782.1981.1981.3532.4437.4652.7366.1206.2929.1809.6461.1809 1.0597 0 .4221-.0904.8098-.2714 1.1631-.1723.3446-.4178.6418-.7366.8916-.3187.2413-.6935.4308-1.1243.5687-.4308.1292-.9003.1938-1.4086.1938zM8.8912 23.5552H7.3146v1.68h1.5766v-1.68zM8.8912 26.1527H7.3146v6.6166h1.5766v-6.6166z" fill="#1651B0" />
</svg>
