<svg xmlns="http://www.w3.org/2000/svg" viewBox="0 0 20 20">
  <circle cx="10" cy="10" r="9" fill="#BD3039" />
  <path d="M3.2962 10.5875c-.3757.3227-.397.8806-.047 1.2305l.9327.9327c.3493.3502.9074.3286 1.2298-.0469l3.4812-4.062c.3643.1578.759.2406 1.1655.2406 1.6246 0 2.9412-1.3168 2.9412-2.9412 0-.2935-.0428-.5808-.1263-.8547l-.1429-.4685-.3464.3464-1.5297 1.5297c-.1133.1136-.3016.1136-.4155-.0003l-.933-.933a.2956.2956 0 010-.4158l1.8758-1.8757-.4685-.143A2.9255 2.9255 0 0010.0584 3C8.434 3 7.1172 4.3166 7.1172 5.9412c0 .406.083.8007.2407 1.1654l-3.576 3.0651-.4857.4158z" fill="#fff" />
  <path fill-rule="evenodd" clip-rule="evenodd" d="M10.3125 16.3643l.0311-.8304c.0009-.0329-.032-.0987-.0586-.1156l-.225-.176c-.0346-.0302-.1075-.0471-.1378-.0382l-.7957.2231c-.1982.056-.432-.0337-.5432-.2071l-.2533-.4543c-.105-.2125-.0463-.4472.1013-.5832l.6063-.5619c.0152-.0133.0392-.0658.041-.1102l-.0338-.297c-.0027-.0453-.0427-.1084-.0703-.1244l-.721-.4046c-.1538-.0862-.2578-.2747-.2534-.456a1.8325 1.8325 0 01.0072-.0694s.0195-.1084.0648-.2667c.0445-.1582.0836-.2614.0836-.2614.073-.1893.281-.3262.4837-.3191l.8268.032c.032.0009.0986-.032.1173-.0587l.176-.2249c.0214-.0249.0392-.0685.041-.1129l-.2268-.8215c-.0542-.1938.0383-.4356.2072-.5432l.4534-.2543c.1974-.096.4436-.0498.5841.1014l.561.6072c.0222.0222.0924.0462.1236.0409l.2836-.0338c.0453-.0027.1084-.0427.1244-.0702l.4045-.721c.0996-.177.3245-.2828.5255-.2454 0 0 .1075.0195.2658.0649.1582.0444.2614.0844.2614.0844.1876.0712.3254.2774.32.4792l-.032.8295c-.0009.0338.0329.0996.0587.1174l.2258.1769c.0347.0302.1067.0471.1378.0382l.7948-.2231c.1983-.0569.4321.0328.5432.2062l.2552.4534c.104.2116.0462.4472-.1014.5841l-.6063.561c-.016.0133-.04.0658-.0418.1102l.0347.2979c.0026.0444.0427.1075.0702.1236l.721.4054c.1538.0862.2587.2729.2534.4551a.9334.9334 0 01-.008.0703s-.0196.1076-.064.2658c-.0453.1582-.0845.2614-.0845.2614-.072.1902-.2809.3271-.4836.3191l-.8259-.0311c-.0329-.0009-.0996.032-.1183.0578l-.176.2258c-.0213.024-.0391.0676-.04.1121l.2258.8205c.0542.193-.0382.4357-.2062.5432l-.4543.2543c-.1974.096-.4437.0507-.5841-.1013l-.561-.6064c-.0214-.0231-.0925-.0462-.1236-.0409l-.2845.0329c-.0453.0027-.1085.0427-.1245.0703l-.4045.721c-.0987.1769-.3245.2827-.5245.2462 0 0-.1085-.0204-.2667-.0649-.1583-.0453-.2614-.0844-.2614-.0844-.1876-.0711-.3254-.2783-.3192-.4792zm1.7248-4.6977c-.7344-.0205-1.3496.561-1.3709 1.2953-.0214.7344.5601 1.3505 1.2953 1.3709.7343.0214 1.3496-.5601 1.3709-1.2953.0204-.7344-.561-1.3496-1.2953-1.3709z" fill="#fff" />
</svg>
