<svg xmlns="http://www.w3.org/2000/svg" viewBox="0 0 20 20">
  <g fill-rule="evenodd" clip-rule="evenodd">
    <path d="M19.015 10c0 1.633-.399 3.139-1.197 4.518s-1.881 2.471-3.249 3.275C13.2 18.598 11.706 19 10.086 19c-1.62 0-3.114-.402-4.482-1.207-1.368-.805-2.451-1.896-3.249-3.275S1.157 11.633 1.157 10s.399-3.139 1.197-4.518 1.881-2.471 3.249-3.275C6.971 1.403 8.466 1 10.086 1c1.62 0 3.114.402 4.482 1.207 1.368.805 2.451 1.896 3.249 3.275.799 1.379 1.198 2.885 1.198 4.518z" fill="#1651B0" />
    <path d="M11.5739 15.625v-2.25c0-.109-.035-.199-.105-.27-.07-.07-.159-.106-.268-.106h-2.232c-.109 0-.198.035-.268.106-.07.07-.105.16-.105.27v2.25c0 .109.035.199.105.27.07.07.159.105.268.105h2.232c.109 0 .198-.035.268-.106.07-.07.105-.16.105-.269zm2.976-7.875c0-.687-.215-1.324-.645-1.91-.43-.586-.967-1.039-1.61-1.359-.644-.321-1.303-.481-1.977-.481-1.883 0-3.321.832-4.313 2.496-.116.188-.085.352.093.492L7.633 8.16c.054.047.128.07.221.07.124 0 .221-.047.29-.14.411-.531.744-.891 1-1.078.263-.188.597-.282 1-.282.372 0 .703.102.994.305.291.203.436.434.436.692 0 .297-.077.535-.232.715-.155.179-.418.355-.79.528-.488.219-.936.557-1.343 1.014-.407.457-.611.947-.611 1.471v.422c0 .109.035.199.105.27.07.07.159.106.268.106h2.232c.109 0 .198-.035.268-.106.07-.07.105-.16.105-.27 0-.148.083-.342.25-.58.167-.238.378-.432.633-.58.248-.14.438-.252.57-.334.132-.082.31-.219.535-.41.224-.191.397-.379.518-.562.121-.184.229-.42.326-.709.096-.289.145-.605.145-.949l-.003-.003z" fill="#FFFFFF" />
  </g>
</svg>
