<svg xmlns="http://www.w3.org/2000/svg" viewBox="0 0 60 60">
  <path d="M43.6173 37.1606a2.4349 2.4349 0 01-1.3189-.3859c-.3904-.2517-.6947-.6095-.8744-1.0281a2.217 2.217 0 01-.1353-1.3238c.0915-.4445.3174-.8528.6494-1.1733.3319-.3205.7548-.5387 1.2152-.6272a2.4535 2.4535 0 011.3715.1301c.4338.1733.8045.4669 1.0654.8437a2.235 2.235 0 01.4003 1.2728c-.0007.6075-.2509 1.1898-.6958 1.6194-.4449.4296-1.0481.6714-1.6774.6723zm-26.2346 0a2.4348 2.4348 0 01-1.3188-.3859c-.3904-.2517-.6947-.6095-.8745-1.0281a2.2178 2.2178 0 01-.1353-1.3238c.0915-.4445.3175-.8528.6494-1.1733s.7548-.5387 1.2153-.6272a2.4531 2.4531 0 011.3714.1301c.4338.1733.8046.4669 1.0655.8437a2.235 2.235 0 01.4003 1.2728c-.0006.6075-.2508 1.1899-.6957 1.6195-.4449.4296-1.0482.6714-1.6776.6722zm27.0857-13.8004l4.7434-7.9301a.9302.9302 0 00.124-.3519.9203.9203 0 00-.025-.371.9374.9374 0 00-.1701-.3335.9781.9781 0 00-.2894-.2453 1.0114 1.0114 0 00-.3646-.1197 1.0217 1.0217 0 00-.3843.0241.9987.9987 0 00-.3455.1643.9627.9627 0 00-.2541.2793l-4.8033 8.0303c-3.6731-1.6182-7.7983-2.5192-12.1999-2.5192-4.4017 0-8.5265.9023-12.1995 2.5192l-4.8029-8.0303a.9636.9636 0 00-.2538-.2795 1.0029 1.0029 0 00-.3454-.1644 1.0211 1.0211 0 00-.3842-.0244 1.0103 1.0103 0 00-.3647.1195.9773.9773 0 00-.2895.245.9405.9405 0 00-.1704.3333.9218.9218 0 00-.0252.3709.9313.9313 0 00.1237.352l4.7439 7.9314C8.3862 27.6365 2.8149 35.596 2 45h57c-.8158-9.404-6.3867-17.3635-14.5316-21.6398z" fill="#64BC4F" />
</svg>
