<svg xmlns="http://www.w3.org/2000/svg" viewBox="0 0 60 60">
  <path fill-rule="evenodd" clip-rule="evenodd" d="M50.125 7.5H9c-2.4853 0-4.5 2.0147-4.5 4.5v25.8125c0 2.4853 2.0147 4.5 4.5 4.5h41.125c2.4853 0 4.5-2.0147 4.5-4.5V12c0-2.4853-2.0147-4.5-4.5-4.5zM9 5c-3.866 0-7 3.134-7 7v25.8125c0 3.866 3.134 7 7 7h18.6747v6.125H15.7812c-.8456 0-1.5312.6856-1.5312 1.5313 0 .8457.6856 1.5312 1.5312 1.5312h27.5625c.8457 0 1.5313-.6855 1.5313-1.5312 0-.8457-.6856-1.5313-1.5313-1.5313H31.4503v-6.125H50.125c3.866 0 7-3.134 7-7V12c0-3.866-3.134-7-7-7H9z" fill="#1651B0" />
  <path d="M40 12H11c-.5523 0-1-.4477-1-1s.4477-1 1-1h29c.5523 0 1 .4477 1 1s-.4477 1-1 1zM47.75 12h-1.5a.25.25 0 01-.25-.25v-1.5a.25.25 0 01.25-.25h1.5a.25.25 0 01.25.25v1.5a.25.25 0 01-.25.25zM44.75 12h-1.5a.25.25 0 01-.25-.25v-1.5a.25.25 0 01.25-.25h1.5a.25.25 0 01.25.25v1.5a.25.25 0 01-.25.25z" fill="#1651B0" />
</svg>
