<svg xmlns="http://www.w3.org/2000/svg" viewBox="0 0 20 20">
  <circle cx="10" cy="10" r="9" fill="#769FCC" />
  <path fill-rule="evenodd" clip-rule="evenodd" d="M12.8049 9.8093c-.4017.8592-.8049 1.7218-.8049 2.6502V13c0 .5523-.4477 1-1 1h-.5V9.5h.5a.5.5 0 000-1H9a.5.5 0 000 1h.5V14H9c-.5523 0-1-.4477-1-1v-.5405c0-.9284-.4032-1.791-.8049-2.6502-.164-.3508-.3277-.701-.4637-1.055A3.4917 3.4917 0 016.5 7.5C6.5 5.567 8.067 4 10 4s3.5 1.567 3.5 3.5c0 .442-.0819.8649-.2314 1.2543-.136.354-.2997.7042-.4637 1.055zM9.5 14.5h-.75a.5.5 0 000 1h2.5a.5.5 0 000-1H9.5zm-1 2A.5.5 0 019 16h2a.5.5 0 010 1H9a.5.5 0 01-.5-.5z" fill="#fff" />
</svg>
