<svg xmlns="http://www.w3.org/2000/svg" viewBox="0 0 33 60">
  <path d="M26.1635 0c3.5686 0 6.4615 2.893 6.4615 6.4615v6.6635A.375.375 0 0133 13.5v6.75a.375.375 0 01-.375.375v32.9135c0 3.5686-2.8929 6.4615-6.4615 6.4615H6.8365C3.268 60 .375 57.1071.375 53.5385V22.5A.375.375 0 010 22.125V17.25a.375.375 0 01.375-.375V15A.375.375 0 010 14.625V9.75a.375.375 0 01.375-.375V6.4615C.375 2.893 3.268 0 6.8365 0h19.327z" fill="#1651B0" />
  <path fill-rule="evenodd" clip-rule="evenodd" d="M2.25 6.9519v46.5577h28.5V6.9519H2.25z" fill="#fff" />
  <path fill-rule="evenodd" clip-rule="evenodd" d="M30.75 6.9231v41.9711c0 2.5491-2.0664 4.6154-4.6154 4.6154H6.375L30.75 6.9231z" fill="#F4F4F4" />
  <path fill-rule="evenodd" clip-rule="evenodd" d="M6.0757 26.376H5.062l-2.2015 5.9317h1.0883l.4486-1.2628h2.2597l.432 1.2628h1.1714l-2.185-5.9317zm-.54 1.3458l.8058 2.376H4.705l.8142-2.376h.0166zM13.6371 32.2994c.2049.072.4237.108.6563.108.0941 0 .1966-.0139.3074-.0416a1.8992 1.8992 0 00.3406-.1163 2.368 2.368 0 00.3074-.1828c.0997-.072.18-.1495.2409-.2326h.0083v.4736h.9886v-5.9234h-1.0135v2.1101h-.0249c-.1108-.144-.2604-.2658-.4487-.3655-.1827-.1052-.3932-.1579-.6313-.1579-.2382 0-.4625.036-.673.108-.2104.072-.396.18-.5566.324-.1606.144-.288.324-.3821.54-.0942.216-.1413.468-.1413.756v1.0302c0 .2714.0443.5123.133.7228.0886.2104.2076.3877.3572.5317.1495.1384.3268.2437.5317.3157zm1.2461-.8059a1.235 1.235 0 01-.3157.0415c-.2658 0-.4873-.0692-.6646-.2076-.1717-.144-.2575-.3462-.2575-.6065v-1.0551c0-.1551.0249-.2852.0748-.3904.0553-.1053.1246-.1911.2076-.2576a.8368.8368 0 01.2908-.1412 1.0444 1.0444 0 01.3157-.0499c.2659 0 .4874.072.6646.216.1828.144.2742.3462.2742.6065v1.0468c0 .155-.0277.2852-.0831.3904-.0554.1053-.1274.1911-.216.2576-.0831.0664-.18.1163-.2908.1495z" fill="#1651B0" />
  <path d="M24.3383 26.3843h1.0135v1.08h-1.0135v-1.08zM24.3383 28.0541h1.0135v4.2536h-1.0135v-4.2536z" fill="#1651B0" />
  <path fill-rule="evenodd" clip-rule="evenodd" d="M27.511 32.4074c-.2326 0-.4513-.036-.6563-.108-.2049-.072-.3821-.1773-.5317-.3157-.1495-.144-.2686-.3213-.3572-.5317-.0886-.2105-.1329-.4514-.1329-.7228V29.699c0-.288.0471-.54.1412-.756.0942-.216.2216-.396.3822-.54.1606-.144.3461-.252.5566-.324.2104-.072.4348-.108.6729-.108.2382 0 .4486.0527.6314.1579.1883.0997.3378.2215.4486.3655h.0249v-2.1101h1.0136v5.9234h-.9886v-.4736h-.0084c-.0609.0831-.1412.1606-.2409.2326a2.3613 2.3613 0 01-.3074.1828 1.8965 1.8965 0 01-.3406.1163c-.1107.0277-.2132.0416-.3074.0416zm.2742-.8724c.1052 0 .2105-.0138.3157-.0415.1108-.0332.2077-.0831.2908-.1495.0886-.0665.1606-.1523.216-.2576.0553-.1052.083-.2354.083-.3904v-1.0468c0-.2603-.0914-.4625-.2741-.6065-.1773-.144-.3988-.216-.6646-.216a1.044 1.044 0 00-.3157.0499.8351.8351 0 00-.2908.1412c-.0831.0665-.1523.1523-.2077.2576-.0498.1052-.0748.2353-.0748.3904v1.0551c0 .2603.0859.4625.2576.6065.1772.1384.3987.2076.6646.2076zM21.1913 32.2994c.2382.072.4874.108.7477.108.2326 0 .4625-.0388.6895-.1163.2327-.0776.4403-.1911.6231-.3407.1828-.155.3296-.3433.4403-.5649.1108-.2215.1662-.4763.1662-.7643v-.8723c0-.2714-.0554-.5151-.1662-.7311-.1052-.2215-.2464-.407-.4237-.5566-.1772-.1551-.3849-.2741-.623-.3572a2.2289 2.2289 0 00-.7394-.1246c-.2326 0-.4653.0387-.6979.1163a1.8794 1.8794 0 00-.6147.3489c-.1828.1495-.3296.3351-.4404.5566-.1107.2216-.1661.4763-.1661.7643v.972c0 .2714.0526.5123.1578.7228.1108.2049.2548.3794.432.5234.1773.1384.3822.2437.6148.3157zm1.0634-.7893a1.2358 1.2358 0 01-.3157.0416c-.2658 0-.4874-.072-.6646-.216-.1717-.144-.2576-.3462-.2576-.6065v-1.0468c0-.155.025-.2852.0748-.3904.0554-.1052.1246-.1911.2077-.2576a.8351.8351 0 01.2908-.1412 1.0438 1.0438 0 01.3157-.0498c.2658 0 .4846.072.6563.216.1772.1384.2658.3378.2658.5981v1.0551c0 .1551-.0277.2852-.0831.3905-.0498.1052-.119.191-.2076.2575a.8636.8636 0 01-.2825.1495z" fill="#1651B0" />
  <path d="M17.1697 28.0541h.9886v.7062h.0166c.0609-.1108.144-.2132.2492-.3074a1.5422 1.5422 0 01.349-.2492 1.8387 1.8387 0 01.3904-.1662c.1385-.0443.2714-.0664.3988-.0664.0554 0 .1108.0027.1661.0083.061 0 .1191.0055.1745.0166v.9305a1.1607 1.1607 0 00-.1911-.0167 1.9533 1.9533 0 00-.191-.0083c-.1939 0-.3711.0277-.5317.0831-.1607.0554-.3019.1357-.4237.2409-.1219.0997-.216.2271-.2825.3822-.0665.1495-.0997.324-.0997.5234v2.1766h-1.0135v-4.2536zM8.4839 28.0541h.9886v.5234h.0166c.144-.2049.3212-.3572.5317-.4569.2105-.0997.4348-.1495.6729-.1495.4819 0 .8502.1412 1.105.4237.2547.2824.3821.6784.3821 1.188v2.7249h-1.0135v-2.4674c0-.6535-.2631-.9803-.7893-.9803-.2824 0-.5012.0858-.6563.2575-.1495.1717-.2243.4403-.2243.8059v2.3843H8.484v-4.2536z" fill="#1651B0" />
  <path d="M12 56.9999c0-.3823.31-.6923.6923-.6923h7.8462a.6923.6923 0 110 1.3846h-7.8462A.6923.6923 0 0112 56.9999z" fill="#fff" />
</svg>
