<svg xmlns="http://www.w3.org/2000/svg" viewBox="0 0 60 60">
  <defs>
    <filter id="filter0_i" x="3" y="16" width="54.399" height="35" filterUnits="userSpaceOnUse" color-interpolation-filters="sRGB">
      <feflood flood-opacity="0" result="BackgroundImageFix" />
      <feblend in="SourceGraphic" in2="BackgroundImageFix" result="shape" />
      <fecolormatrix in="SourceAlpha" values="0 0 0 0 0 0 0 0 0 0 0 0 0 0 0 0 0 0 127 0" result="hardAlpha" />
      <feoffset dy="4" />
      <fegaussianblur stdDeviation="2" />
      <fecomposite in2="hardAlpha" operator="arithmetic" k2="-1" k3="1" />
      <fecolormatrix values="0 0 0 0 0 0 0 0 0 0 0 0 0 0 0 0 0 0 0.25 0" />
      <feblend in2="shape" result="effect1_innerShadow" />
    </filter>
  </defs>
  <g filter="url(#filter0_i)" fill-rule="evenodd" clip-rule="evenodd" fill="#666">
    <path d="M5.1613 46.562H3.4789V24.0811h1.6824V46.562zm-.8651-27.9917C3.5867 18.5703 3 18.0075 3 17.2981c0-.7304.5837-1.2962 1.2962-1.2962.7304 0 1.311.5628 1.311 1.2962 0 .7094-.5806 1.2722-1.311 1.2722zM21.5017 47c-8.2261 0-13.4228-5.9901-13.4228-15.512C8.079 22.0137 13.2996 16 21.5017 16c8.2021 0 13.4198 6.014 13.4198 15.488 0 9.5223-5.1967 15.512-13.4198 15.512zm0-29.4527c-7.1603 0-11.7313 5.4061-11.7313 13.9404 0 8.5405 4.5921 13.9676 11.7313 13.9676 7.1602 0 11.7313-5.4271 11.7313-13.9676 0-8.5372-4.5711-13.9404-11.7313-13.9404zM46.901 46.9992c-6.1755 0-10.6028-3.4874-10.8543-8.4745h1.6494c.2515 4.0892 4.0922 6.9508 9.3306 6.9508 5.1127 0 8.681-2.9036 8.681-6.8251 0-3.1551-2.1284-4.9692-7.1783-6.2415l-3.5682-.8771c-5.5709-1.4219-8.1004-3.676-8.1004-7.4507 0-4.6968 4.3853-8.0794 9.8755-8.0794 5.6756 0 9.9142 3.3407 10.1029 7.7652h-1.6494c-.2305-3.6101-3.7567-6.2415-8.4955-6.2415-4.532 0-8.1424 2.7151-8.1424 6.5136 0 3.0084 2.2122 4.7389 7.0526 5.9481l3.3616.8561c5.8224 1.4399 8.4325 3.676 8.4325 7.6812 0 4.9869-4.1939 8.4745-10.4981 8.4745l.0005.0003z" />
  </g>
</svg>
