<svg xmlns="http://www.w3.org/2000/svg" viewBox="0 0 20 20">
  <path d="M19.5 10.125c0 5.1777-4.1973 9.375-9.375 9.375S.75 15.3027.75 10.125 4.9473.75 10.125.75 19.5 4.9473 19.5 10.125z" fill="#1651B0" />
  <path fill-rule="evenodd" clip-rule="evenodd" d="M7.8272 7.75h-.9599l.5929-.1787-1.1657-.9537-1.3784.4155a.6048.6048 0 00-.4161.7248V13.75c0 .9665.7835 1.75 1.75 1.75h7.5c.9665 0 1.75-.7835 1.75-1.75v-5c0-.5523-.4477-1-1-1h-.5196a.2117.2117 0 01-.0112.0142l-.8373.9858H15v5c0 .6904-.5597 1.25-1.25 1.25h-7.5C5.5596 15 5 14.4404 5 13.75v-5h1.9816l.8456-1zm.654 0a.2539.2539 0 01-.0108.0137l-.834.9863h2.0923l.8475-1h-2.095zm2.7496 0a.248.248 0 01-.011.014l-.8357.986h2.0917l.8495-1h-2.0945zm-3.1942-.3524L9.664 6.907l-1.1657-.9538-1.6275.4906 1.1657.9538zm2.2039-.6644l-1.1657-.9537 1.5692-.473 1.2093.9405-1.6128.4862zm2.1998-.663l1.5919-.48-1.1504-.8308a.2402.2402 0 01-.082-.1027l-1.5688.4729 1.2093.9405zm2.0573-.7599l-1.1384-.8223.6842-.2062c.3305-.0996.6863.0853.7947.413a.6048.6048 0 01-.2614.7116.2406.2406 0 00-.0791-.096zm-2.9531 6.6749a.125.125 0 000-.2204L9.309 10.5664a.125.125 0 00-.184.1101v2.3969a.125.125 0 00.184.1102l2.2355-1.1984zM5.9698 7.7594c.103.0426.103.1886 0 .2312L5.11 8.345a.125.125 0 01-.1726-.1156v-.709a.125.125 0 01.1726-.1156l.8597.3545z" fill="#fff" />
</svg>
