<svg xmlns="http://www.w3.org/2000/svg" viewBox="0 0 20 20">
  <path fill-rule="evenodd" clip-rule="evenodd" d="M16.7974 6.7613c.2623 1.1047.6214 2.2042 1.1843 3.1902.1747.3062.3362.63.4473.9385.2489.6913-.308 1.2563-.9695 1.5761a34.3035 34.3035 0 00-.4595.2268v.776c0 1.9706-1.4147 3.576-3.2384 3.9285-.4152.0802-.7616.4152-.7616.838a.7646.7646 0 01-.7646.7646H6c-.5523 0-1-.4477-1-1v-2.0008c0-.9435-.4736-1.8071-1.1013-2.5115C2.7177 12.1623 2 10.4149 2 8.5 2 4.3579 5.3579 1 9.5 1c3.5436 0 6.5132 2.4576 7.2974 5.7613z" fill="#009400" />
  <path fill-rule="evenodd" clip-rule="evenodd" d="M12.5765 6.9698l.0189.5045c.0037.122-.08.2479-.194.2911 0 0-.0626.0238-.1588.0513a2.105 2.105 0 01-.162.0395c-.1215.0221-.2587-.0422-.3187-.1497l-.2458-.438c-.0097-.0168-.048-.041-.0756-.0427l-.1728-.02c-.0189-.0032-.0621.0108-.0751.0249l-.3408.3683c-.0854.0924-.235.12-.3549.0616l-.276-.1545c-.0593-.0379-.1031-.1035-.1229-.1748a.3516.3516 0 01-.0305.0862l-.3355.6433c-.0227.0438-.0205.1313.007.1805l.1108.222c.0189.0448.0875.0993.1356.107l.7157.121c.1534.0264.2841.1625.3046.3245l.0313.4521c.0016.1497-.1145.3106-.2571.356l-.6925.2182c-.0432.0135-.1047.0713-.122.1329l-.0784.2344c-.0183.0454-.008.1318.02.1718l.4214.592c.0891.1258.088.3138-.0022.4391l-.0049.0065c-.0155.0205-.0666.0884-.1436.1766a3.0111 3.0111 0 01-.161.1718c-.1113.1064-.2982.1329-.4348.0627l-.6439-.3355c-.0432-.0227-.1307-.0205-.1799.0076l-.222.1102c-.0415.0178-.0993.0913-.107.1356l-.1209.7157c-.0248.148-.162.2846-.324.3051L7.532 13c-.1556.0016-.309-.1091-.356-.2577l-.2182-.6925c-.0151-.0464-.0777-.1064-.1328-.1215l-.2345-.0788c-.0453-.0184-.1318-.0082-.1717.0205l-.592.4208c-.1254.0891-.3139.0885-.4392-.0022l-.0051-.0039v-.0001a3.2977 3.2977 0 01-.3492-.305c-.1064-.1112-.1334-.2981-.0627-.4348l.3355-.6438c.0221-.0433.02-.1302-.0081-.1799l-.1102-.222c-.019-.0443-.0875-.0989-.1356-.107l-.7157-.121c-.1534-.0259-.2847-.162-.3046-.3246l-.032-.452c-.001-.1497.1151-.3101.2577-.3555l.6925-.2188c.0432-.013.1043-.0707.122-.1328l.0784-.2345c.0184-.0453.0086-.1318-.0205-.1717l-.4208-.592c-.0891-.1254-.088-.3139.0022-.4392 0 0 .055-.0767.148-.183a2.7528 2.7528 0 01.161-.1719c.1106-.1064.2975-.1328.4342-.062l.6444.3354c.0432.0221.1307.021.1799-.007l.222-.1103c.0415-.0178.0999-.0907.107-.1355l.121-.7163a.3652.3652 0 01.0852-.176.3831.3831 0 01.2393-.1292l.4521-.0313c.1556-.0021.309.1091.356.2571l.2182.6925c.0151.047.0778.1064.1329.122l.2344.079c.0454.0183.1318.008.1718-.0206l.592-.4213c.1258-.0891.3138-.088.4391.0022 0 0 .0767.055.1831.148.1065.0929.1718.161.1718.161.0477.0498.0793.1148.0934.1837l.1345-.489a.1115.1115 0 00-.0243-.068l-.1069-.1372c-.0113-.0157-.0519-.0357-.0718-.0351l-.5018.0189c-.1232.0049-.2501-.0783-.2939-.194 0 0-.0237-.0626-.0513-.1587-.027-.0962-.0389-.1615-.0389-.1615a.5734.5734 0 01-.0049-.0427c-.0032-.1107.0606-.2242.154-.2766l.438-.2463c.0168-.0097.0411-.048.0427-.075l.021-.181c-.001-.027-.0156-.0589-.0253-.067l-.3684-.3408c-.0896-.0832-.1248-.2263-.0616-.3549l.155-.2755c.0676-.1053.2096-.1598.3301-.1253l.4829.1356c.0189.0054.0626-.0049.0837-.0232l.1372-.1075c.0157-.0108.0362-.0508.0357-.0713l-.0195-.504c-.0032-.1226.0805-.2479.1945-.2911 0 0 .0626-.0243.1588-.0513.0961-.0276.1615-.0395.1615-.0395.122-.0227.2587.0416.3192.1491l.2458.438c.0097.0168.048.0411.0756.0427l.1723.0206c.0189.0032.0616-.0114.0751-.0249l.3408-.3689c.0854-.0918.235-.1199.3549-.0616l.2755.1545c.1026.0654.1588.2123.1258.33l-.1377.4991a.1194.1194 0 00.0248.0686l.107.1367c.0113.0162.0518.0362.0713.0357l.5023-.0195c.1232-.0043.2496.0789.2939.194 0 0 .0237.0626.0507.1587.0276.0962.0395.162.0395.162.001.007.0037.0352.0043.0422.0027.1102-.0605.2247-.154.277l-.438.2459c-.0168.0097-.0411.048-.0427.0756l-.0205.1804c.0011.027.0156.0589.0248.067l.3684.3413c.0897.0827.1253.2253.0616.3544l-.154.276c-.0675.1053-.2095.1599-.33.1259l-.4834-.1356c-.0184-.0054-.0627.0048-.0837.0232l-.1367.107c-.0162.0102-.0362.0502-.0356.0702zM8.352 8.5366c.4866.424.5385 1.1651.1145 1.6523-.4235.4867-1.1651.538-1.6518.1145-.4872-.424-.5385-1.165-.1145-1.6523.4235-.4866 1.165-.538 1.6518-.1145zm3.1955-3.9165c.4461-.0124.8199.3408.8329.787.0129.4462-.3403.8205-.787.833-.4462.0129-.82-.3404-.8329-.787-.0125-.4463.3408-.82.787-.833z" fill="#fff" />
</svg>
