<svg xmlns="http://www.w3.org/2000/svg" viewBox="0 0 20 20">
  <g fill-rule="evenodd" clip-rule="evenodd">
    <path d="M14.6202 8h.6298v.6296L4.6298 19.2497H4v-.6295l2.1235-2.1235C5.232 15.8551 4.5 14.9981 4 13.9999c1.1147-2.226 3.3832-3.75 6.0001-3.75.7135 0 1.4013.1136 2.0465.3237L14.6202 8zm-5.745 3.6794c.5627 0 1.0293.4138 1.1118.9538l-1.2833 1.2833c-.54-.0824-.9535-.549-.9535-1.1118 0-.6216.5034-1.1253 1.125-1.1253zm-3.5847 2.3205c.4486-.7092 1.0462-1.3117 1.751-1.7614a5.6412 5.6412 0 01.139-.0853A2.9906 2.9906 0 007 13.1797c0 .6857.2303 1.3176.6176 1.8227l-.686.6863a5.7129 5.7129 0 01-1.641-1.6888zM10 16.1796a2.9913 2.9913 0 01-.7702-.1002l3.67-3.67c.0654.2457.1002.5037.1002.7703 0 1.6566-1.3433 2.9999-3 2.9999zM16 13.9999c-.5074-1.0137-1.2543-1.8816-2.164-2.5265l-.8097.8096a5.7077 5.7077 0 011.6832 1.7169c-.4486.7091-1.0462 1.3116-1.7511 1.7613a5.4915 5.4915 0 01-2.9583.8636 5.497 5.497 0 01-1.1863-.1293l-.9135.9135a6.6019 6.6019 0 002.0998.3408c2.617 0 4.8852-1.524 5.9999-3.7499z" fill="#333333" />
    <path d="M19 8V1H2v7h17zM3 2v5h1V5h1l-.0438 2H6V5h1v2h1V5h1v2h1V3h1v4h1V5h1v2h1V5h1v2h.9519L16 5h1v2h1V2H3z" fill="#999999" />
  </g>
</svg>
