<svg xmlns="http://www.w3.org/2000/svg" viewBox="0 0 20 20">
  <path d="M0 6h3l1 .9967h12L17 6h3v14H0V6z" fill="#D7D7D7" />
  <path fill-rule="evenodd" clip-rule="evenodd" d="M3 6l3 3v11h8V9l3-3H3z" fill="#FFFFFF" />
  <path fill-rule="evenodd" clip-rule="evenodd" d="M3 7H0V6h3v1zm14 0h3V6h-3v1zM6 9H5v11h1V9zm9 0h-1v11h1V9z" fill="#999999" />
  <path fill-rule="evenodd" clip-rule="evenodd" d="M4.879 3.379L4 2.5 3 6H1.5L6 10.5V9L3.0023 6H3l3.5-1-.9134-.9134c2.5754-2.846 6.131-2.724 8.8118.015L13.5 5 17 6l-1-3.5-.8948.8948C12.048.2792 7.8531.1268 4.879 3.379zM14 9l3.0049-3H18.5L14 10.5V9z" fill="#1651B0" />
</svg>
