<svg xmlns="http://www.w3.org/2000/svg" viewBox="0 0 20 20">
  <path d="M0 2h20v18H0V2z" fill="#D7D7D7" />
  <path fill-rule="evenodd" clip-rule="evenodd" d="M2 2v15l5.5 2.5L13 17V2H2z" fill="#FFFFFF" />
  <path fill-rule="evenodd" clip-rule="evenodd" d="M2 4v13l5.5 2.5L13 17V4h-1v12.3561l-4.5 2.0454L3 16.3561V4H2z" fill="#999999" />
  <path fill-rule="evenodd" clip-rule="evenodd" d="M2 2h5.5L3 3v1l9-2h1v13H8l4-1v-1l-9 2H2V2zm10 10v-1l-9 2v1l9-2zm0-3v1l-9 2v-1l9-2zm0-1V7L3 9v1l9-2zm0-3v1L3 8V7l9-2zm0-1V3L3 5v1l9-2zm5 1h1l-1.5-3L15 5h1v7h-1l1.5 3 1.5-3h-1V5z" fill="#1651B0" />
</svg>
