<svg xmlns="http://www.w3.org/2000/svg" viewBox="0 0 20 20">
  <path d="M0 1h20v19H0V1z" fill="#D7D7D7" />
  <path fill-rule="evenodd" clip-rule="evenodd" d="M2 1v16l5.5 2.5L13 17V1H2z" fill="#FFFFFF" />
  <path fill-rule="evenodd" clip-rule="evenodd" d="M3 1H2v9h1l9-2v1l-4.5 1H13V1h-1L3 3V2l4.5-1H3zm9 5v1L3 9V8l9-2zm0-1V4L3 6v1l9-2zm0-3v1L3 5V4l9-2z" fill="#999999" />
  <path fill-rule="evenodd" clip-rule="evenodd" d="M16 12h-1v2h-1v1h1v1h-1v1h1v2h1v-2h1v2h1v-2h1v-1h-1v-1h1v-1h-1v-2h-1v2h-1v-2zm0 3v1h1v-1h-1z" fill="#1651B0" />
  <path fill-rule="evenodd" clip-rule="evenodd" d="M2 2v15l5.5 2.5L13 17V2h-1v14.3561l-4.5 2.0454L3 16.3561V2H2z" fill="#999999" />
  <path fill-rule="evenodd" clip-rule="evenodd" d="M2 10h1v1l4.5-1H12l-9 2v1l9-2v-1h1v5h-1v-1l-4.5132 1.0029L3 15l9-2v-1l-9 2v1H2v-5z" fill="#1651B0" />
</svg>
