<svg xmlns="http://www.w3.org/2000/svg" viewBox="0 0 20 20">
  <path d="M0 3h20v17H0V3z" fill="#D7D7D7" />
  <path fill-rule="evenodd" clip-rule="evenodd" d="M3 3v8h2v3.5L9.5 18l4.5-3.5V11h2V3H3z" fill="#FFFFFF" />
  <path fill-rule="evenodd" clip-rule="evenodd" d="M2 3v8h1V3H2zm14 0v8h1V3h-1zm-2 8h1v3.9891l-5.5 4.2778L4 14.9891V11h1v3.5L9.5 18l4.5-3.5V11z" fill="#999999" />
  <path fill-rule="evenodd" clip-rule="evenodd" d="M0 3h3v1H0V3zm16 0h4v1h-4V3zM5 10H2v1h3v-1zm9 0h3v1h-3v-1zm-4-4h1L9.5 3 8 6h1v2H8l1.5 3L11 8h-1V6z" fill="#1651B0" />
</svg>
