<svg xmlns="http://www.w3.org/2000/svg" viewBox="0 0 20 20">
  <g fill-rule="evenodd" clip-rule="evenodd">
    <path d="M1 15.998V1h15l3 2.5V19H4l-3-3.002zm7.3139-4.9531c-.2706 0-.532-.0394-.7787-.1126a3.0458 3.0458 0 01-.0352-.4627c0-1.6624 1.3431-3.0101 3-3.0101.1418 0 .2813.0098.4179.029.0824.2604.1269.5377.1269.8254 0 1.5083-1.2226 2.731-2.7309 2.731z" fill="#333333" />
    <path d="M18 4.4494H5V17.995h13V4.4494zM4.5 17.995L2 15.4866V2.4426l2.5 2.0068V17.995zM2.5 1.94L5 3.9476h13l-2.5-2.0078h-13zM7.1249 14.818c1.0057 1.307 2.6018 2.1735 4.3751 2.1735 3.038 0 5.5-2.4703 5.5-5.5185 0-3.0483-2.462-5.5186-5.5-5.5186S6 8.4248 6 11.473c0 1.2576.4191 2.417 1.1249 3.345z" fill="#FFFFFF" />
    <path d="M8.8726 15.7427a5.489 5.489 0 001.6274.2455c3.038 0 5.5-2.4704 5.5-5.5186 0-.5686-.086-1.1175-.2454-1.634.4727.7664.7454 1.6696.7454 2.6374 0 1.3866-.559 2.6388-1.464 3.5479-.906.9081-2.155 1.469-3.536 1.469-.9647 0-1.864-.2733-2.6274-.7472zm-1.7287-.8998c1.0057 1.307 2.5828 2.1486 4.3561 2.1486 3.0335 0 5.4927-2.463 5.5-5.505V11.5c0 3.0376-2.4624 5.5-5.5 5.5S6 14.5376 6 11.5v-.0135c.003 1.2525.4216 2.4068 1.1249 3.3315l-.0049.0062.024.0187zm.3541-.3612c-.627-.8384-.998-1.879-.998-3.0087 0-1.3857.559-2.639 1.464-3.548.906-.908 2.154-1.469 3.536-1.469 1.125 0 2.1625.3723 2.9982 1.0012.6295.8386 1.0018 1.8806 1.0018 3.0124 0 1.3866-.559 2.6389-1.465 3.5469-.905.9091-2.154 1.47-3.535 1.47a4.9654 4.9654 0 01-3.002-1.0048zm3.002-.5003c-1.6637 0-3.0562-1.1647-3.412-2.7258l-.0003-.0001a.1756.1756 0 01-.0065-.0028A3.4973 3.4973 0 017 10.4844v-.0148C7 8.53 8.567 6.9577 10.5 6.9577S14 8.53 14 10.4696c0 1.9395-1.567 3.5118-3.5 3.5118zm-2.8434-2.5493c.4002 1.1904 1.522 2.0476 2.8434 2.0476 1.6569 0 3-1.3477 3-3.0101 0-1.3402-.8729-2.4759-2.0794-2.8658a3.2123 3.2123 0 01.0794.71c0 1.7529-1.4153 3.175-3.1655 3.1861l-.0206.0001a3.198 3.198 0 01-.6573-.0679z" fill="#999999" />
  </g>
</svg>
