<svg xmlns="http://www.w3.org/2000/svg" viewBox="0 0 20 20">
  <path d="M0 4h20v16H0V4z" fill="#D7D7D7" />
  <path fill-rule="evenodd" clip-rule="evenodd" d="M4 4v10l6 4 6-4V4H4z" fill="#FFFFFF" />
  <path fill-rule="evenodd" clip-rule="evenodd" d="M3 4v10.5352l7 4.6667 7-4.6667V4h-1v10l-6 4-6-4V4H3z" fill="#999999" />
  <path fill-rule="evenodd" clip-rule="evenodd" d="M7.683 13.183L8.5 14l-3.15.9L10 18l4.65-3.1-3.15-.9.8169-.8169a2.3638 2.3638 0 00-.2558-.3538C11.7118 12.43 11.0957 12 9.9999 12c-1.0958 0-1.7119.43-2.0612.8293a2.3608 2.3608 0 00-.2557.3537zm5.357-.723l.96-.96.92 3.22L16 14h1v.5352l-7 4.6667-7-4.6667V14h1l1.08.72L6 11.5l.96.9599c.066-.0946.141-.1918.2261-.2892C7.7118 11.57 8.5958 11 10 11c1.4042 0 2.2881.57 2.8138 1.1707.0852.0974.1603.1947.2263.2893z" fill="#1651B0" />
</svg>
