<svg xmlns="http://www.w3.org/2000/svg" viewBox="0 0 20 20">
  <g fill-rule="evenodd" clip-rule="evenodd">
    <path d="M16 9V5c0-2.2091-3.134-4-7-4S2 2.7909 2 5v10c0 2.2091 3.134 4 7 4 1.0579 0 2.061-.1341 2.9601-.3742L10.5246 8.5252c-.0666-.4683.4675-.7821.8442-.4962L16 11.545V9z" fill="#333333" />
    <path d="M9 8c3.3869 0 6-1.4932 6-3s-2.6131-3-6-3C5.613 2 3 3.4932 3 5c0 .3673.1541.7412.4745 1.1127C4.432 7.223 6.5733 8 9 8zm0 1c-2.5463 0-4.7751-.7769-6-1.9385v1.9386c0 .6669 1.389 2.2084 3.2292 2.6417L7 11.8232v2.7081C7.4615 14.8369 8.1185 15 9 15s1.5385-.1631 2-.4687l-.0001-2.6621-.4223-2.9711C10.0706 8.9648 9.5425 9 9 9zm3.1031-.4135l2.252 1.7097C14.7741 9.8826 15 9.4346 15 9V7.0616c-.6888.6533-1.6952 1.1849-2.8969 1.525zm-.6017 6.8116l.317 2.2307C10.9845 17.8625 10.0279 18 9 18c-3.387 0-6-1.4932-6-3v-4.1239c.6578.7192 1.649 1.4209 3 1.739V15c.6667.6667 1.6667 1 3 1 1.0344 0 1.8682-.2006 2.5014-.6019z" fill="#FFFFFF" />
    <path d="M14.5905 16.065l2.5562 3.4321 1.0028-.7042-2.4107-3.5493 3.0936-.4397-7.1566-5.2863 1.2334 8.6783 1.6813-2.1309z" fill="#333333" />
  </g>
</svg>
