<svg xmlns="http://www.w3.org/2000/svg" viewBox="0 0 20 20">
  <path d="M16.5 19h-13C2.121 19 1 17.879 1 16.5v-13C1 2.122 2.121 1 3.5 1h13C17.879 1 19 2.122 19 3.5v13c0 1.379-1.121 2.5-2.5 2.5z" fill="#333333" />
  <path fill-rule="evenodd" clip-rule="evenodd" d="M2 3.5C2 2.673 2.673 2 3.5 2h13c.827 0 1.5.673 1.5 1.5v13c0 .827-.673 1.5-1.5 1.5h-13c-.827 0-1.5-.673-1.5-1.5v-13zm9.9482 1.8351c-.0673-.1438-.1761-.242-.3264-.2975-.1504-.0555-.2967-.0496-.4391.0179-.1425.0674-.2414.1765-.2968.3272l-2.8484 7.8538c-.0554.1507-.0494.2955.0178.4343.0663.1389.176.236.3264.2916.1503.0555.2947.0496.4332-.0179.1375-.0674.2354-.1765.2908-.3272l2.8474-7.8538c.0643-.1428.0623-.2856-.0049-.4284zM6.7858 8.0303C6.9276 7.9085 7 7.7595 7 7.5833c0-.137-.0436-.2619-.131-.3747-.104-.1208-.234-.1893-.3937-.2054-.1587-.016-.2965.0282-.4165.133L3.2033 9.5528C3.0684 9.6657 3 9.8137 3 10c0 .1853.0684.3343.2033.4461l2.8555 2.4178c.12.1047.2578.149.4165.1329.1597-.0161.2896-.0846.3938-.2054.0873-.1128.1309-.2377.1309-.3746 0-.1773-.0724-.3263-.2142-.4471a49.521 49.521 0 01-.8937-.7613 92.6874 92.6874 0 00-.7666-.6465A35.3755 35.3755 0 014.4649 10c.1582-.1314.354-.2968.5872-.4938l.0734-.062c.195-.1655.3841-.3267.5682-.4835l.1984-.169c.2867-.2498.5832-.5036.8937-.7614zm6.4166 3.9394c.3095-.2578.6111-.5116.9047-.7613L15.5357 10c-.1825-.145-.4028-.3313-.6607-.5558a34.6849 34.6849 0 00-.7679-.6526 114.4815 114.4815 0 00-.9047-.7613C13.0675 7.9085 13 7.7595 13 7.5833c0-.137.0437-.2619.131-.3747.1031-.1208.2321-.1893.3869-.2054.1547-.016.2956.0282.4226.133l2.8571 2.4167c.1349.1128.2024.2608.2024.4471 0 .1853-.0675.3343-.2024.4461l-2.8571 2.4178c-.127.1047-.2679.149-.4226.1329-.1548-.0161-.2838-.0846-.3869-.2054-.0873-.1128-.131-.2377-.131-.3746 0-.1773.0675-.3263.2024-.4471z" fill="#FFFFFF" />
</svg>
