<svg xmlns="http://www.w3.org/2000/svg" viewBox="0 0 20 20">
  <path d="M1 3.5C1 2.1193 2.1193 1 3.5 1h13C17.8807 1 19 2.1193 19 3.5v13c0 1.3807-1.1193 2.5-2.5 2.5h-13C2.1193 19 1 17.8807 1 16.5v-13z" fill="#333333" />
  <path fill-rule="evenodd" clip-rule="evenodd" d="M3.5 2C2.6716 2 2 2.6716 2 3.5V8h16V3.5c0-.8284-.6716-1.5-1.5-1.5h-13zM2 15v1.5c0 .8284.6716 1.5 1.5 1.5h13c.8284 0 1.5-.6716 1.5-1.5V15H2z" fill="#FFFFFF" />
  <path d="M4 9H2v1h1v3H2v1h3v-1H3.9954v-3H5V9H4z" fill="#FFFFFF" />
  <path fill-rule="evenodd" clip-rule="evenodd" d="M6 10c0-.5523.4477-1 1-1h3v1H7.5a.5.5 0 00-.5.5v2.0052a.5.5 0 00.5.5h1a.5.5 0 00.5-.5V12H8v-1h2v2c0 .5523-.4477 1-1 1H7c-.5523 0-1-.4477-1-1v-3z" fill="#FFFFFF" />
  <path d="M14 9h-3v5h3v-.9948h-2V12l2 .0444v-1.0575h-2V10h2V9zM15 13h1.5a.5.5 0 000-1H16c-.5523 0-1-.4477-1-1v-1c0-.5523.4477-1 1-1h2v1h-1.5a.5.5 0 000 1h.5c.5523 0 1 .4477 1 1v1c0 .5523-.4477 1-1 1h-2v-1z" fill="#FFFFFF" />
</svg>
