<svg xmlns="http://www.w3.org/2000/svg" viewBox="0 0 20 20">
  <path d="M16.5 19h-13C2.121 19 1 17.879 1 16.5v-13C1 2.122 2.121 1 3.5 1h13C17.879 1 19 2.122 19 3.5v13c0 1.379-1.121 2.5-2.5 2.5z" fill="#333333" />
  <path fill-rule="evenodd" clip-rule="evenodd" d="M2 3.5C2 2.673 2.673 2 3.5 2h13c.827 0 1.5.673 1.5 1.5v13c0 .827-.673 1.5-1.5 1.5h-13c-.827 0-1.5-.673-1.5-1.5v-13zm11 3c0-.828.671-1.5 1.5-1.5s1.5.672 1.5 1.5S15.329 8 14.5 8 13 7.328 13 6.5zM4 15l3-9 4 5 2-1.5 3 5.5H4z" fill="#FFFFFF" />
</svg>
