<svg xmlns="http://www.w3.org/2000/svg" viewBox="0 0 170 155">
  <path fill-rule="evenodd" clip-rule="evenodd" d="M63 99h40c2.209 0 4 1.791 4 4v40c0 2.209-1.791 4-4 4H63c-2.2091 0-4-1.791-4-4v-40c0-2.209 1.7909-4 4-4z" fill="#D7D7D7" />
  <g fill="#FFFFFF">
    <path d="M109 13.996l-8-8C99.056 4.052 95.752 2 93 2H61c-2.748 0-4 1.248-4 3.996v56C57 64.748 58.252 66 61 66l48-.004c2.752 0 4-1.248 4-4v-40c0-2.752-1.592-5.588-3.536-7.532l-.464-.468zM61 103c0-1.105.8954-2 2-2h40c1.105 0 2 .895 2 2v40c0 1.105-.895 2-2 2H63c-1.1046 0-2-.895-2-2v-40z" />
  </g>
  <g fill="#999999">
    <path fill-rule="evenodd" clip-rule="evenodd" d="M109 13.996l-8-8C99.056 4.052 95.752 2 93 2H61c-2.748 0-4 1.248-4 3.996v56C57 64.748 58.252 66 61 66l48-.004c2.752 0 4-1.248 4-4v-40c0-2.752-1.592-5.588-3.536-7.532l-.464-.468zm0 47.0001c0 .544-.456 1.004-1 1.004H62c-.54 0-1-.456-1-1v-54c0-.54.46-1 1-1l31-.004V22l16-.004v39zm-12-42.996V7.9961l10 10-10 .004z" />
    <path d="M82 69h6v16h6l-9 10-9-10h6V69z" />
  </g>
  <path fill-rule="evenodd" clip-rule="evenodd" d="M81.1111 106l11.3333.006 7.5556 7.55V140H73.5556L66 132.444v-11.333h15.1111V106zm2.5666 1.889h7.8221l6.1389 6.139h-7.8319l-6.1291-6.139zm-.6779.678v13.765l6.1389 6.139v-13.775l-6.1389-6.129zM82.332 123H68.5565l6.1389 6.139h13.7755L82.332 123zm-14.4433.668v7.832l6.1389 6.139v-7.832l-6.1389-6.139zm7.0833 14.443h23.1389v-23.139h-8.0277v15.111H74.972v8.028z" fill="#999999" />
</svg>
