<svg xmlns="http://www.w3.org/2000/svg" viewBox="0 0 170 155">
  <path fill-rule="evenodd" clip-rule="evenodd" d="M7 81h28.7523a5 5 0 013.5335 1.4624l6.6812 6.6732a2.9997 2.9997 0 002.1201.8774H163c2.761 0 5 2.2386 5 5V148c0 2.761-2.239 5-5 5H7c-2.7614 0-5-2.239-5-5V86c0-2.7614 2.2386-5 5-5z" fill="#D7D7D7" />
  <path d="M7 83c-1.6569 0-3 1.3431-3 3v62c0 1.657 1.3431 3 3 3h156c1.657 0 3-1.343 3-3V95.013c0-1.6568-1.343-3-3-3H48.0871a5.0002 5.0002 0 01-3.5335-1.4623l-6.6812-6.6733A3.0001 3.0001 0 0035.7523 83H7z" fill="#EEEEEE" />
  <g fill="#D7D7D7">
    <path d="M52 99H12c-2.2091 0-4 1.791-4 4v40c0 2.209 1.7909 4 4 4h40c2.2091 0 4-1.791 4-4v-40c0-2.209-1.7909-4-4-4zM65 99h40c2.209 0 4 1.791 4 4v40c0 2.209-1.791 4-4 4H65c-2.2091 0-4-1.791-4-4v-40c0-2.209 1.7909-4 4-4zM118 99h40c2.209 0 4 1.791 4 4v40c0 2.209-1.791 4-4 4h-40c-2.209 0-4-1.791-4-4v-40c0-2.209 1.791-4 4-4z" />
  </g>
  <g fill="#FFFFFF">
    <path d="M101 5.996l8 8 .464.468c1.944 1.944 3.536 4.78 3.536 7.532v40c0 2.752-1.248 4-4 4L61 66c-2.748 0-4-1.252-4-4.004v-56C57 3.248 58.252 2 61 2h32c2.752 0 6.056 2.052 8 3.996zM10 103c0-1.105.8954-2 2-2h40c1.1046 0 2 .895 2 2v40c0 1.105-.8954 2-2 2H12c-1.1046 0-2-.895-2-2v-40zM116 103c0-1.105.895-2 2-2h40c1.105 0 2 .895 2 2v40c0 1.105-.895 2-2 2h-40c-1.105 0-2-.895-2-2v-40zM65 101c-1.1046 0-2 .895-2 2v40c0 1.105.8954 2 2 2h40c1.105 0 2-.895 2-2v-40c0-1.105-.895-2-2-2H65z" />
  </g>
  <g fill="#999999" fill-rule="evenodd" clip-rule="evenodd">
    <path d="M94.4444 106H68v26.444L75.5556 140H102v-26.444L94.4444 106zm-24.5557 25.5v-7.832l6.1389 6.139v7.832l-6.1389-6.139zm30.2223 6.611H76.972v-8.028h15.1112v-15.111h8.0278v23.139zm-6.6112-30.222l6.1389 6.139h-7.8322l-6.1389-6.139h7.8322z" fill="#999" />
    <path d="M69.8887 108.557v13.775l6.1389 6.139v-13.775l-6.1389-6.139zm14.4433-.668H70.5565l6.1389 6.139h13.7755l-6.1389-6.139zm6.8067 21.25H76.972v-14.167h14.1667v14.167z" fill="#D7D7D7" />
  </g>
  <path fill-rule="evenodd" clip-rule="evenodd" d="M136.111 106l11.333.006 7.556 7.55V140h-26.444L121 132.444v-11.333h15.111V106zm2.567 1.889h7.822l6.139 6.139h-7.832l-6.129-6.139zm-.678.678v13.765l6.139 6.139v-13.775L138 108.567zM137.332 123h-13.775l6.138 6.139h13.776L137.332 123zm-14.443.668v7.832l6.139 6.139v-7.832l-6.139-6.139zm7.083 14.443h23.139v-23.139h-8.028v15.111h-15.111v8.028zM30.1111 106l11.3333.006L49 113.556V140H22.5556L15 132.444v-11.333h15.1111V106zm2.5666 1.889h7.8221l6.1389 6.139h-7.8319l-6.1291-6.139zm-.6779.678v13.765l6.1389 6.139v-13.775l-6.1389-6.129zM31.332 123H17.5565l6.1389 6.139h13.7755L31.332 123zm-14.4433.668v7.832l6.1389 6.139v-7.832l-6.1389-6.139zm7.0833 14.443h23.1389v-23.139h-8.0277v15.111H23.972v8.028z" fill="#999999" />
  <g fill="#999999">
    <path fill-rule="evenodd" clip-rule="evenodd" d="M101 5.996l8 8 .464.468c1.944 1.944 3.536 4.78 3.536 7.532v40c0 2.752-1.248 4-4 4L61 66c-2.748 0-4-1.252-4-4.004v-56C57 3.248 58.252 2 61 2h32c2.752 0 6.056 2.052 8 3.996zm7 56.0041c.544 0 1-.46 1-1.004v-39l-16 .004V5.9961L62 6c-.54 0-1 .46-1 1v54c0 .544.46 1 1 1h46zM97 7.9961V18l10-.004-10-10z" />
    <path d="M85 95l9-10h-6V69h-6v16h-6l9 10zM55 33h-3c-13.424 0-21.6382 5.7391-25.6014 16.4196C23.5518 57.0915 23 64.527 23 82.3559V85h-6l9 10 9-10h-6v-2.6441c0-17.205.5315-24.3669 3.1014-31.2925C35.2882 42.4753 41.2812 38.2881 52 38.2881h3V33zM115 33h3c13.424 0 21.638 5.7391 25.601 16.4196C146.448 57.0915 147 64.527 147 82.3559V85h6l-9 10-9-10h6v-2.6441c0-17.205-.532-24.3669-3.101-31.2925-3.187-8.5881-9.18-12.7753-19.899-12.7753h-3V33z" />
  </g>
</svg>
