<svg xmlns="http://www.w3.org/2000/svg" viewBox="0 0 170 155">
  <path fill-rule="evenodd" clip-rule="evenodd" d="M42 99h86c2.209 0 4 1.791 4 4v40c0 2.209-1.791 4-4 4H42c-2.2091 0-4-1.791-4-4v-40c0-2.209 1.7909-4 4-4z" fill="#D7D7D7" />
  <g fill="#FFFFFF">
    <path d="M109 13.996l-8-8C99.056 4.052 95.752 2 93 2H61c-2.748 0-4 1.248-4 3.996v56C57 64.748 58.252 66 61 66l48-.004c2.752 0 4-1.248 4-4v-40c0-2.752-1.592-5.588-3.536-7.532l-.464-.468zM40 103c0-1.105.8954-2 2-2h86c1.105 0 2 .895 2 2v40c0 1.105-.895 2-2 2H42c-1.1046 0-2-.895-2-2v-40z" />
  </g>
  <g fill="#999999">
    <path fill-rule="evenodd" clip-rule="evenodd" d="M109 13.996l-8-8C99.056 4.052 95.752 2 93 2H61c-2.748 0-4 1.248-4 3.996v56C57 64.748 58.252 66 61 66l48-.004c2.752 0 4-1.248 4-4v-40c0-2.752-1.592-5.588-3.536-7.532l-.464-.468zm0 47.0001c0 .544-.456 1.004-1 1.004H62c-.54 0-1-.456-1-1v-54c0-.54.46-1 1-1l31-.004V22l16-.004v39zm-12-42.996V7.9961l10 10-10 .004z" />
    <path d="M82 69h6v16h6l-9 10-9-10h6V69z" />
  </g>
  <path fill-rule="evenodd" clip-rule="evenodd" d="M45 113h12l4 4v-12h12l6 6v30H67l-4-4v4H51l-6-6v-22zm18.7071-6l4.5 4.5H76.5L72 107h-8.2929zM77 112.5h-8.5V139H77v-26.5zm-9.5 26v-26.293l-4.5-4.5V134l4.5 4.5zM47.7071 115l4.5 4.5H60.5L56 115h-8.2929zM61 120.5h-8.5V139H61v-18.5zm-9.5 18v-18.293l-4.5-4.5V134l4.5 4.5z" fill="#999999" />
  <g fill="#999999" fill-rule="evenodd" clip-rule="evenodd">
    <path d="M118.444 106H92v26.444L99.5556 140H126v-26.444L118.444 106zm-24.5553 25.5v-7.832l6.1393 6.139v7.832l-6.1393-6.139zm30.2223 6.611h-23.139v-8.028h15.111v-15.111h8.028v23.139zm-6.611-30.222l6.139 6.139h-7.832l-6.139-6.139h7.832z" fill="#999" />
    <path d="M93.8887 108.557v13.775l6.1393 6.139v-13.775l-6.1393-6.139zm14.4433-.668H94.5565l6.1385 6.139h13.776l-6.139-6.139zm6.807 21.25h-14.167v-14.167h14.167v14.167z" fill="#D7D7D7" />
  </g>
</svg>
