<svg xmlns="http://www.w3.org/2000/svg" viewBox="0 0 20 20">
  <path fill-rule="evenodd" clip-rule="evenodd" d="M6 9l2 2 4.5-4.5v-1h-3c0-1.0836-.1468-1.9471-.5-2.6301V1l6 .0034L19 5v14H5l-4-4V9h5z" fill="#333333" />
  <path fill-rule="evenodd" clip-rule="evenodd" d="M9.6465 10h-.6412l-.9984 1-1.0016-1H2.3536l3.25 3.25h7.2929L9.6465 10zM2 10.3535V14.5l3.25 3.25v-4.1464L2 10.3535zM5.75 18H18V5.75h-4.25v8h-8V18zm12-12.75L14.5 2h-4.1411l3.2448 3.25H17.75zM10 2.359V5.5h2.5v1L10 9.0038v.6426l3.25 3.2501V5.6037L10 2.3589z" fill="#FFFFFF" />
  <path d="M1 1c6 0 8 1 8 5h3l-4 4-4-4h3c0-4-3-4-6-4V1z" fill="#333333" />
</svg>
