<svg xmlns="http://www.w3.org/2000/svg" viewBox="0 0 150 150">
  <path fill-rule="evenodd" clip-rule="evenodd" d="M43.2812 112.769h43.3341l23.4197 19.547c2.183 1.822 5.48.106 5.239-2.727l-1.428-16.82H122c4.418 0 8-3.582 8-8V51.5383c0-4.4183-3.582-8-8-8h-4.923v27.2309H92.1538L43.2812 112.769z" fill="#EEE" />
  <path fill-rule="evenodd" clip-rule="evenodd" d="M43.2812 112.769h43.3341l23.4197 19.547c2.183 1.822 5.48.106 5.239-2.727l-1.428-16.82H122c4.418 0 8-3.582 8-8V51.5383c0-4.4183-3.582-8-8-8h-4.923v4.8H122c1.767 0 3.2 1.4327 3.2 3.2v53.2307c0 1.767-1.433 3.2-3.2 3.2h-13.379l1.546 18.205-21.8117-18.205H48.8666l-5.5854 4.8z" fill="#999" />
  <path d="M10 34c0-4.4183 3.5817-8 8-8h85.538c4.419 0 8 3.5817 8 8v53.2308c0 4.4182-3.581 7.9999-8 7.9999H53.3846L29.9648 114.778c-2.1826 1.822-5.4796.105-5.2391-2.727l1.4281-16.8203H18c-4.4183 0-8-3.5817-8-7.9999V34z" fill="#fff" />
  <path fill-rule="evenodd" clip-rule="evenodd" d="M29.833 108.636l1.5457-18.2053H18c-1.7673 0-3.2-1.4326-3.2-3.1999V34c0-1.7673 1.4327-3.2 3.2-3.2h85.538c1.768 0 3.2 1.4327 3.2 3.2v53.2308c0 1.7673-1.432 3.1999-3.2 3.1999H51.6447L29.833 108.636zm73.705-13.4052H53.3846L29.9648 114.778c-2.1826 1.822-5.4796.105-5.2391-2.727l1.4281-16.8202H18c-4.4183 0-8-3.5818-8-8V34c0-4.4183 3.5817-8 8-8h85.538c4.419 0 8 3.5817 8 8v53.2308c0 4.4182-3.581 8-8 8zM60.4 66.8c2.2091 0 4-1.7909 4-4 0-2.2092-1.7909-4-4-4-2.2091 0-4 1.7908-4 4 0 2.2091 1.7909 4 4 4zm-16-4c0 2.2091-1.7909 4-4 4-2.2091 0-4-1.7909-4-4 0-2.2092 1.7909-4 4-4 2.2091 0 4 1.7908 4 4zm36 4c2.2091 0 4-1.7909 4-4 0-2.2092-1.7909-4-4-4-2.2091 0-4 1.7908-4 4 0 2.2091 1.7909 4 4 4z" fill="#999" />
</svg>
