<svg xmlns="http://www.w3.org/2000/svg" viewBox="0 0 150 150">
  <path fill-rule="evenodd" clip-rule="evenodd" d="M49 64l26 22 26-22H82l29-54H39l29 54H49z" fill="#D7D7D7" />
  <path fill-rule="evenodd" clip-rule="evenodd" d="M59 16h2v-2h8l2-2h8l2 2h8v2h2v2H59v-2zm-2 28h2V20h32v24h2v4H79v-6h-8v6H57v-4zm4-20h8v4h-8v-4zm8 8h-8v4h8v-4zm2-8h8v4h-8v-4zm8 8h-8v4h8v-4zm2-8h8v4h-8v-4zm8 8h-8v4h8v-4zM75 143c14.9118 0 27-12.088 27-27S89.9118 89 75 89c-14.9117 0-27 12.088-27 27s12.0883 27 27 27zm0-25c8.7897 0 14.9244 2.484 14.9994 14.771C94.6029 128.652 97.5 122.664 97.5 116c0-12.426-10.0737-22.5-22.5-22.5-12.4264 0-22.5 10.074-22.5 22.5 0 6.664 2.8973 12.652 7.501 16.772C60.1058 120.469 68.6949 118 75 118zm9-11c0 4.971-4.0293 9-9 9-4.9705 0-9-4.029-9-9s4.0295-9 9-9c4.9707 0 9 4.029 9 9z" fill="#333333" />
</svg>
