<svg xmlns="http://www.w3.org/2000/svg" viewBox="0 0 150 150">
  <path fill-rule="evenodd" clip-rule="evenodd" d="M49 64l26 22 26-22H82l29-54H39l29 54H49z" fill="#D7D7D7" />
  <path fill-rule="evenodd" clip-rule="evenodd" d="M61 12c-2.2091 0-4 1.7909-4 4v28c0 2.2091 1.7909 4 4 4h28c2.2091 0 4-1.7909 4-4V16c0-2.2091-1.7909-4-4-4H61zm2 4c-1.1046 0-2 .8954-2 2v13c0 1.1046.8954 2 2 2h2v-6c0-1.1046.8954-2 2-2h2.5087c-1.6517-.0061-2.9888-1.3469-2.9888-3 0-1.6569 1.3432-3 3-3 1.6569 0 3 1.3431 3 3 0 1.6531-1.3371 2.9939-2.9888 3h3.6839a2 2 0 011.3604.5339L79 29.6398l2.2442-2.275c.3489-.3537.8919-.3903 1.2813-.1201l3.0946-7.776.6595.2913-2.9801 8.3217.1013.1154a1.0001 1.0001 0 01-.0229 1.3446L80.1276 33H87c1.1046 0 2-.8954 2-2V18c0-1.1046-.8954-2-2-2H63zm14.6845 17L74 29.6398V33h3.6845zm-13.1861 8C63.1184 40.9992 62 39.8802 62 38.5c0-1.3807 1.1193-2.5 2.5-2.5s2.5 1.1193 2.5 2.5c0 1.3802-1.1184 2.4992-2.4984 2.5H66c1.1046 0 2 .8954 2 2v2h-7v-2c0-1.1046.8954-2 2-2h1.4984zM72.5 38.5c0 1.3802 1.1184 2.4992 2.4984 2.5H73.5c-1.1046 0-2 .8954-2 2v2h7v-2c0-1.1046-.8954-2-2-2h-1.4984c1.38-.0008 2.4984-1.1198 2.4984-2.5 0-1.3807-1.1193-2.5-2.5-2.5s-2.5 1.1193-2.5 2.5zM85.4984 41C84.1184 40.9992 83 39.8802 83 38.5c0-1.3807 1.1193-2.5 2.5-2.5s2.5 1.1193 2.5 2.5c0 1.3802-1.1184 2.4992-2.4984 2.5H87c1.1046 0 2 .8954 2 2v2h-7v-2c0-1.1046.8954-2 2-2h1.4984zM75 143c14.9118 0 27-12.088 27-27S89.9118 89 75 89c-14.9117 0-27 12.088-27 27s12.0883 27 27 27zm0-25c8.7897 0 14.9244 2.484 14.9994 14.771C94.6029 128.652 97.5 122.664 97.5 116c0-12.426-10.0737-22.5-22.5-22.5-12.4264 0-22.5 10.074-22.5 22.5 0 6.664 2.8973 12.652 7.501 16.772C60.1058 120.469 68.6949 118 75 118zm9-11c0 4.971-4.0293 9-9 9-4.9705 0-9-4.029-9-9s4.0295-9 9-9c4.9707 0 9 4.029 9 9z" fill="#333333" />
</svg>
