<svg xmlns="http://www.w3.org/2000/svg" viewBox="0 0 20 20">
  <g fill="#333333">
    <path d="M13 1.5a.5.5 0 10-1 0v4a.5.5 0 001 0v-4zM5.3218 5.0492C5.9623 4.4578 7 4.9122 7 5.784V7H11v1.5H5.5V6.75l-3 2.75 3 2.75V10.5H11V12H7v1.216c0 .8717-1.0377 1.3261-1.6782.7348l-4.0257-3.716c-.429-.396-.429-1.0737 0-1.4696l4.0257-3.716zM18 7c.5523 0 1 .4477 1 1v3c0 .5523-.4477 1-1 1h-4v-1.5h3.5v-2H14V7h4zM8.4645 3.3535a.5.5 0 01.7071 0l2.4749 2.475a.5001.5001 0 01-.7071.707l-2.475-2.4748a.5.5 0 010-.7071zM13.4646 5.8283a.5.5 0 10.7071.7071l2.4748-2.4748a.5.5 0 10-.7071-.7071l-2.4748 2.4748zM12.5 18a.5.5 0 00.5-.5v-4a.5.5 0 10-1 0v4a.5.5 0 00.5.5zM9.1716 15.6464a.5.5 0 11-.7071-.7071l2.4749-2.4748a.5.5 0 11.7071.7071l-2.4749 2.4748zM13.4646 12.4646a.5.5 0 000 .7071l2.4748 2.4748a.5.5 0 00.7071 0 .5.5 0 000-.7071l-2.4748-2.4748a.5.5 0 00-.7071 0z" />
  </g>
</svg>
