<svg xmlns="http://www.w3.org/2000/svg" viewBox="0 0 21 20">
  <g fill-rule="evenodd" clip-rule="evenodd">
    <path d="M8.0695 4.784c0-1.7435-2.0754-2.6522-3.3565-1.4696L.6873 7.0304c-.858.792-.858 4.1473 0 4.9392l4.0257 3.716c1.281 1.1826 3.3565.2739 3.3565-1.4696V14h10c1.1046 0 2-.8954 2-2V7c0-1.1046-.8954-2-2-2h-10v-.216z" fill="#FAB601" />
    <path d="M19.0694 8c0-.5523-.4477-1-1-1h-11V5.784c0-.8718-1.0377-1.3261-1.6783-.7348l-4.0257 3.716c-.429.396-.429 1.0736 0 1.4696l4.0257 3.716c.6406.5913 1.6783.1369 1.6783-.7348V12h11c.5523 0 1-.4477 1-1V8zm-1.5.5h-12V6.75l-3 2.75 3 2.75V10.5h12v-2z" fill="#333333" />
  </g>
</svg>
