<svg xmlns="http://www.w3.org/2000/svg" viewBox="0 0 20 20">
  <g fill="#333333" fill-rule="evenodd" clip-rule="evenodd">
    <path d="M19 8c0-.5523-.4477-1-1-1h-1l-1.5 1.5h2v2h-2L17 12h1c.5523 0 1-.4477 1-1V8zM7 5.784c0-.8718-1.0377-1.3261-1.6782-.7348L1.296 8.7652c-.429.396-.429 1.0736 0 1.4696l4.0257 3.716C5.9623 14.5421 7 14.0877 7 13.216V12h1l1.5-1.5h-4v1.75l-3-2.75 3-2.75V8.5h4L8 7H7V5.784z" />
    <path d="M16 13.7071l-3.5-3.5-3.5 3.5L8.293 13l3.4999-3.5-3.5-3.5.7072-.7071 3.4999 3.5 3.5-3.5.7072.707-3.5 3.5 3.5 3.5001-.7072.7071z" />
  </g>
</svg>
