<svg xmlns="http://www.w3.org/2000/svg" viewBox="0 0 20 20">
  <path d="M8.119 4.5525L2 7v9l8 4 7-3.5 2-4.5v-1l-2.5-3.5L11.8798 5.19c.4072.909.6202 1.8772.6202 2.8099H15l.5.8-4.5 4.5-4.5-4.5v-.8h3c-.097-1.096-.5728-2.4269-1.381-3.4474z" fill="#333333" />
  <g fill="#FFFFFF">
    <path d="M8.641 5.3303L3 7.5l4.7667 2.5667L6.5 8.8V8h3c-.0739-.834-.367-1.804-.859-2.6697zM10.45 12.7499l1.05 1.75 6.5-3-2-3-3.6748-1.9905c.1156.4975.1748.999.1748 1.4905H15l.5.8-4.5 4.5-.55-.55zM11 15.4999l-1.4709 3.2646L3 15.4999v-7l5.5 3 2.5 4zM18 12.4999l-1.5 3.5-6 3 1.5-3.5 1.5-.75v1.75l3-1.5v-1.75l1.5-.75z" />
  </g>
  <path d="M5 1.5c5 0 7 4 7 7h3l-4 4-4-4h3c.0015-2.2351-1.5-6-5-6v-1z" fill="#333333" />
</svg>
