<svg xmlns="http://www.w3.org/2000/svg" viewBox="0 0 20 20">
  <g fill="#333333">
    <path d="M0 3l3-3 2 2-.5.5 1.1647 1.1647c1.3967-.6405 2.665-.026 3.3353.4345V4h2v2H9V5L7.5 6.5l.9381.9381A2.986 2.986 0 0110 7c1.6569 0 3 1.3431 3 3s-1.3431 3-3 3-3-1.3431-3-3c0-.5722.1602-1.107.4381-1.5619L6.5 7.5l-2 2s-1.7784-1.7785-.8353-3.8353L2.5 4.5 2 5 0 3z" />
    <path d="M9 1.5h2V3H9V1.5zM9 18.5V17h2v1.5H9zM9 14v2h2v-2H9z" />
  </g>
  <path fill-rule="evenodd" clip-rule="evenodd" d="M19 10c0-4.9707-4.0293-9-9-9-1.7611 0-3.404.5058-4.7915 1.38l.7275.7276C7.127 2.4038 8.5163 2 10 2c4.4184 0 8 3.5816 8 8s-3.5816 8-8 8-8-3.5816-8-8c0-1.4837.4038-2.873 1.1076-4.064l-.7275-.7275C1.5058 6.5959 1 8.2389 1 10c0 4.9707 4.0293 9 9 9s9-4.0293 9-9z" fill="#999999" />
</svg>
