<svg xmlns="http://www.w3.org/2000/svg" viewBox="0 0 20 20">
  <path fill-rule="evenodd" clip-rule="evenodd" d="M6.4558 2.9984l.0102.0043c.5431.2281.9909.5497 1.3268.9951v1.003h.4994c.091.2982.1532.6301.1848.9992H4.793v5.207l10.417.1423V6h-3.728c-.0253-.3586-.0761-.6919-.1502-1.0018v-.9996h-.3554a4.1669 4.1669 0 00-.6853-1.0002H19v16H1v-16h5.4558z" fill="#333333" />
  <path fill-rule="evenodd" clip-rule="evenodd" d="M7.7932 3.9984H2v14h8v-1H3v-12h5.2914c-.1186-.3878-.286-.7186-.4982-1zm3.5386 1c-.0872-.365-.2069-.6974-.3555-1H18v8h-1v-7h-5.6682zm-2.855 1L8.477 6H4.793L10 11.207 15.21 6h-3.728l-.0001-.0016H16v6h-6v4H4v-10h4.4769zm9.5232 7h-7v5h7v-5z" fill="#FFFFFF" />
  <path d="M11 6.5h3l-4 4-4-4h3C8.958 2.542 6 2 3 2v-.5c5 0 7.979 1.021 8 5z" fill="#333333" />
</svg>
