<svg xmlns="http://www.w3.org/2000/svg" viewBox="0 0 20 20">
  <g fill="#333333">
    <path d="M16.8975 2.5167l.0149-.0148 1.3626.0086c.0636.0025.1447.1038.1858.1876 1.2906 2.6152 1.7345 5.4706 1.4614 8.5624-.1982 2.2588-.9676 4.1849-1.8691 6.0522-.0424.0888-.1472.1848-.2245.1873l-1.3292-.0022c2.1214-4.9442 2.2281-9.8997.3981-14.9811zM7.297 4.7113L11 8.4143l3.8782-3.8783c.3767.0809.708.296.9073.6247.4734.7774.1294 1.9186-.7147 2.3574-.6386.3312-1.2973.2487-1.9547.0725-.6971-.1873-.7067-.177-1.1436.2867l-.0857.0908c-.4787.5074-.6307 1.0062-.3774 1.6761.1681.4457.3004.9043.4329 1.3633.0893.3095.1787.6194.2791.9254.3667 1.1187.9987 1.4499 2.1534 1.1562.1321-.0346.2643-.0723.3981-.1104.0594-.0169.1191-.0339.1793-.0508-.0147.6912-.0814.7899-.6907 1.0249-.912.3538-1.8401.6212-2.8374.5287-.9974-.0924-1.716-.5612-2.0374-1.5261-.1297-.3907-.2384-.7885-.353-1.2074-.0514-.1882-.1041-.3808-.1603-.5788l-.0491.0666a14.8484 14.8484 0 00-.2043.2809c-.149.2079-.2955.4178-.442.6277-.3415.489-.6831.9782-1.0553 1.4434-.2347.2925-.5667.545-.9067.7125-.7294.3587-1.536.1675-1.9494-.3912-.4173-.5625-.336-1.5212.1773-2.0849.5587-.6125 1.2774-.645 2.0267-.5375.1987.0287.4067.065.584.1512.368.1775.6374.095.8734-.22.0877-.1168.182-.2292.2762-.3416.1234-.1473.247-.2947.3558-.4521.0667-.095.088-.2625.056-.3762l-.091-.325c-.2425-.8657-.485-1.7319-.7623-2.5862-.3347-1.0224-.9894-1.3624-2.056-1.12-.1507.0335-.2995.0786-.4486.1238a13.4545 13.4545 0 01-.2061.0613c.0093-.7062.056-.785.7053-1.035.5048-.1941 1.0159-.3606 1.5398-.4556zM3.5 17.4991C1.3858 12.5527 1.2763 7.5814 3.113 2.5H1.7491c-.0783.0538-.1667.1338-.2127.2275C-.0913 6.0898-.3862 9.687.4649 13.4806c.259 1.1554.725 2.1727 1.1907 3.1892.0982.2144.1964.4287.2927.6443.0335.0763.1045.1847.1592.186L3.5 17.4991z" />
  </g>
  <path fill-rule="evenodd" clip-rule="evenodd" d="M4 0H0v8h10v-.5858L5.5858 3H4V0z" fill="#333333" />
  <path fill-rule="evenodd" clip-rule="evenodd" d="M7 4.4142V5h.5858L7 4.4142zM8.5858 6H7v1h2v-.5858L8.5858 6zM4 4h2v1H4V4zM1 4h2.0005l.0002 1H1V4zm5 2H4v1h2V6zM1 6h2.0008l.0001 1H1V6z" fill="#FFFFFF" />
  <path fill-rule="evenodd" clip-rule="evenodd" d="M1 1h2.0001l.0003 2H1V1z" fill="#999999" />
  <path d="M5 0c6 0 7 0 7 3h3l-4 4-4-4h3c0-2-2-2-5-2V0z" fill="#333333" />
</svg>
