<svg xmlns="http://www.w3.org/2000/svg" viewBox="0 0 20 20">
  <path fill-rule="evenodd" clip-rule="evenodd" d="M15.5522 0h1.3433l-10 10H5.5522l1.9366-1.9367C6.5378 7.379 5.757 6.4648 5.2237 5.4c1.189-2.3744 3.6088-4 6.4003-4a7.041 7.041 0 012.183.3452L15.5522 0zm-4.7499 7.6182c.2621.0697.5376.1069.8217.1069 1.7671 0 3.2-1.4329 3.2-3.2 0-.2843-.0372-.5595-.1069-.8216l-3.9148 3.9147zm4.9133-4.9135c.9704.688 1.7671 1.6137 2.3083 2.695-1.189 2.3744-3.6085 4-6.4 4a7.0434 7.0434 0 01-2.2399-.3635l.9745-.9744a5.8626 5.8626 0 001.2654.1379 5.8582 5.8582 0 003.1556-.9212c.7519-.4797 1.3893-1.1223 1.8679-1.8788a6.089 6.089 0 00-1.7955-1.8314l.8637-.8636zm-7.2475.8165c-.7519.4798-1.3893 1.1224-1.8679 1.8789a6.0933 6.0933 0 001.7504 1.8015l.7318-.7321a3.1844 3.1844 0 01-.6587-1.9443c0-.3848.0682-.7534.1927-1.095a6.2484 6.2484 0 00-.1483.091zm1.9559-.5965c.6003 0 1.098.4414 1.186 1.0174l-1.369 1.369c-.576-.088-1.017-.5858-1.017-1.186 0-.663.537-1.2004 1.2-1.2004zM3.8816 5.4001l.014.0277a4.4787 4.4787 0 00-.6451 2.3226c0 2.4851 2.0148 4.4999 4.4998 4.4999 1.5284 0 2.8789-.7621 3.6922-1.927.9272.0061 1.8277-.1054 2.6822-.3503a6.7455 6.7455 0 01-1.2395 2.1569c.3808-.0174.8522.1648 1.2932.5614l4.2636 3.6263c.6901.621.7481 1.6352.1293 2.2539-.6187.6188-1.6328.5603-2.2538-.1293l-3.6263-4.2637c-.3966-.441-.5788-.9123-.5614-1.2932-1.179 1.0063-2.7083 1.6144-4.38 1.6144C4.0222 14.4997 1 11.4774 1 7.7498 1 4.0222 4.0222 1 7.7498 1c.1612 0 .321.0056.4794.0168-1.8418.8908-3.382 2.455-4.3476 4.3833z" fill="#333333" />
</svg>
