<svg xmlns="http://www.w3.org/2000/svg" viewBox="0 0 20 20">
  <path fill-rule="evenodd" clip-rule="evenodd" d="M13.6754 11.1022c-.613 1.4226-2.0278 2.4186-3.6751 2.4186-2.209 0-3.9999-1.791-3.9999-4 0-2.2089 1.791-3.9998 3.9999-3.9998.8971 0 1.7252.2953 2.3924.7941l1.424-1.424c-1.0372-.8562-2.367-1.3706-3.8169-1.3706C6.6864 3.5205 4 6.207 4 9.5204c0 3.3134 2.6864 5.9998 5.9998 5.9998 1.4859 0 2.8454-.5405 3.8934-1.4349-.0155.3385.1465.7574.4989 1.1494l3.2234 3.7899c.552.613 1.4535.665 2.0035.115.5499-.5499.4985-1.4514-.115-2.0034l-3.7899-3.2234c-.392-.3525-.811-.5145-1.1495-.499.8945-1.048 1.435-2.4075 1.435-3.8934a6.067 6.067 0 00-.0406-.7018l-2.2836 2.2836z" fill="#333333" />
  <path d="M10.6666 9.2981l5.908-5.908a.4444.4444 0 01.6285 0l1.1492 1.1493a.4444.4444 0 010 .6286l-7.3714 7.3714a.4445.4445 0 01-.6286 0L6.5364 8.7235a.4445.4445 0 010-.6285l1.1493-1.1493a.4444.4444 0 01.6285 0l2.3524 2.3524z" fill="#1651B0" />
  <path fill="#333333" d="M0 0h10v8H0z" />
  <path fill-rule="evenodd" clip-rule="evenodd" d="M9 4H7v1h2V4zM6 4H4v1h2V4zM3.0005 4H1v1h2.0007l-.0002-1zM4 6h2v1H4V6zm5 1H7V6h2v1zM3.0008 6H1v1h2.001l-.0002-1z" fill="#FFFFFF" />
  <path fill-rule="evenodd" clip-rule="evenodd" d="M4 1h2v2H4V1zm3 0v2h2V1H7zM3.0001 1H1v2h2.0004l-.0003-2z" fill="#999999" />
</svg>
