<svg xmlns="http://www.w3.org/2000/svg" viewBox="0 0 20 20">
  <path fill-rule="evenodd" clip-rule="evenodd" d="M11.8848 9.5294c-.6896 1.6004-2.2813 2.7209-4.1345 2.7209-2.485 0-4.4998-2.0148-4.4998-4.4999 0-2.485 2.0148-4.4999 4.4998-4.4999a4.4796 4.4796 0 012.6915.8935l1.602-1.602C10.8769 1.5786 9.3808 1 7.7498 1 4.0222 1 1 4.0222 1 7.7498c0 3.7276 3.0222 6.7499 6.7498 6.7499 1.6717 0 3.201-.6081 4.38-1.6144-.0174.3809.1648.8522.5614 1.2932l3.6263 4.2637c.621.6896 1.6351.7481 2.2538.1293.6188-.6187.5608-1.6329-.1293-2.2539l-4.2636-3.6263c-.441-.3966-.9124-.5788-1.2932-.5614 1.0063-1.1789 1.6143-2.7083 1.6143-4.38 0-.2671-.0155-.5306-.0456-.7896l-2.5691 2.569z" fill="#333333" />
  <path d="M8.5 7.5L15.1463.8537a.5.5 0 01.7071 0l1.2929 1.2929a.5001.5001 0 010 .7071l-8.293 8.2929a.5.5 0 01-.707 0l-4.293-4.2929a.5.5 0 010-.7071l1.293-1.2929a.5.5 0 01.707 0L8.5 7.5z" fill="#1651B0" />
</svg>
