<svg xmlns="http://www.w3.org/2000/svg" viewBox="0 0 20 20">
  <g fill-rule="evenodd" clip-rule="evenodd">
    <path d="M7 4c-3.3137 0-6 2.6863-6 6s2.6863 6 6 6h6c3.3137 0 6-2.6863 6-6s-2.6863-6-6-6H7zm0-1h6c3.866 0 7 3.134 7 7s-3.134 7-7 7H7c-3.866 0-7-3.134-7-7s3.134-7 7-7z" fill="#1651B0" />
    <path d="M4.066 13.1821c-.076.133-.086.275-.032.425.055.15.153.26.297.331.151.071.306.081.466.029.16-.051.277-.144.353-.277l1.351-2.543 1.348 2.543c.076.133.193.226.354.277.16.052.311.042.453-.029.152-.071.255-.181.31-.331.055-.15.043-.292-.032-.425l-1.753-3.182 1.627-3.17c.076-.141.086-.287.031-.437-.053-.151-.157-.26-.308-.331-.144-.072-.295-.081-.454-.029-.16.05-.278.147-.354.288L6.501 8.616 5.277 6.321c-.076-.141-.194-.238-.353-.288-.16-.052-.316-.043-.468.029-.142.071-.241.18-.295.331-.056.15-.045.296.03.437L5.819 10l-1.753 3.182zm6.9677.425c.056.15.154.26.297.331.151.071.307.081.467.029.16-.051.277-.144.353-.277l1.35-2.543 1.35 2.543c.075.133.192.226.353.277.159.052.31.042.453-.029.152-.071.255-.181.309-.331.055-.15.044-.292-.032-.425l-1.753-3.182 1.628-3.17c.075-.141.086-.287.031-.437-.054-.151-.158-.26-.309-.331-.143-.072-.295-.081-.454-.029-.16.05-.278.147-.354.288l-1.222 2.295-1.224-2.295c-.076-.141-.194-.238-.353-.288-.16-.052-.315-.043-.467.029-.143.071-.242.18-.295.331-.056.15-.046.296.03.437l1.627 3.17-1.753 3.182c-.075.133-.086.275-.032.425z" fill="#333333" />
  </g>
</svg>
