<svg xmlns="http://www.w3.org/2000/svg" viewBox="0 0 20 20">
  <path d="M10 1.9325c2.6276 0 2.9388.01 3.9766.0573.9594.0438 1.4804.2041 1.8272.3389a3.0489 3.0489 0 011.1315.7361c.3268.3174.5784.704.7361 1.1315.1348.3467.2951.8678.3389 1.8273.0473 1.0377.0574 1.3489.0574 3.9765 0 2.6277-.0101 2.9388-.0574 3.9766-.0438.9594-.2041 1.4804-.3389 1.8272a3.2592 3.2592 0 01-1.8676 1.8677c-.3467.1347-.8678.295-1.8272.3388-1.0375.0473-1.3488.0574-3.9766.0574-2.6279 0-2.939-.0101-3.9766-.0574-.9594-.0438-1.4804-.2041-1.8272-.3388a3.0489 3.0489 0 01-1.1315-.7362 3.0483 3.0483 0 01-.7362-1.1315c-.1347-.3467-.295-.8678-.3388-1.8272-.0473-1.0377-.0574-1.3489-.0574-3.9766 0-2.6276.01-2.9388.0574-3.9765.0438-.9595.204-1.4805.3388-1.8273a3.0489 3.0489 0 01.7363-1.1315 3.049 3.049 0 011.1315-.7362c.3467-.1347.8678-.295 1.8272-.3388 1.0377-.0473 1.349-.0574 3.9766-.0574m0-1.773c-2.6726 0-3.0078.0113-4.0573.0592C4.8953.2664 4.18.4326 3.5541.676a4.8238 4.8238 0 00-1.743 1.135A4.8237 4.8237 0 00.6758 3.554C.4327 4.18.2664 4.8953.2188 5.9427.1706 6.9922.1592 7.3274.1592 10c0 2.6726.0114 3.0078.0594 4.0573.0479 1.0474.2142 1.7627.4575 2.3887a4.8233 4.8233 0 001.135 1.7429 4.8238 4.8238 0 001.743 1.1351c.626.2433 1.3413.4096 2.3887.4574 1.0496.0479 1.3847.0592 4.0573.0592 2.6725 0 3.0078-.0113 4.0572-.0592 1.0475-.0478 1.7628-.2141 2.3887-.4574a5.0312 5.0312 0 002.878-2.878c.2433-.626.4096-1.3413.4575-2.3887.0478-1.0496.0592-1.3848.0592-4.0573 0-2.6725-.0114-3.0078-.0592-4.0573-.0479-1.0474-.2142-1.7627-.4575-2.3887a4.8237 4.8237 0 00-1.135-1.743A4.8233 4.8233 0 0016.446.6759c-.626-.2431-1.3413-.4094-2.3887-.457C13.0078.1706 12.6726.1592 10 .1592h.0001z" fill="#333" />
  <path d="M10 4.9467a5.0533 5.0533 0 100 10.1065 5.0533 5.0533 0 000-10.1065zm0 8.3335A3.2804 3.2804 0 016.7829 9.36a3.2802 3.2802 0 113.217 3.9202zM15.253 5.9279c.6521 0 1.1808-.5287 1.1808-1.1809 0-.6521-.5287-1.1808-1.1808-1.1808-.6522 0-1.1809.5287-1.1809 1.1808 0 .6522.5287 1.1809 1.1809 1.1809z" fill="#333" />
</svg>
