<svg xmlns="http://www.w3.org/2000/svg" viewBox="0 0 14 14">
  <path fill-rule="evenodd" clip-rule="evenodd" d="M12.9231 7c0-3.2712-2.6519-5.923-5.9231-5.923V0c3.866 0 7 3.134 7 7s-3.134 7-7 7-7-3.134-7-7a6.9716 6.9716 0 011.5013-4.3321L.194 1.378h3.4661l.0092 3.4291-1.396-1.3773C1.5222 4.4228 1.077 5.6592 1.077 7c0 3.2712 2.6519 5.9231 5.9231 5.9231S12.9231 10.2712 12.9231 7zm-5.223-1.8h1.4c.5557 0 .4717 1.0866.4212 1.739-.0115.149-.0213.2754-.0213.361 0 .1.2.2.3.2.1541 0 .2706-.073.3885-.147.1213-.076.2442-.153.4115-.153.6792 0 1.0002.6995.7 1.3-.1179.3536-.4544.5-.8.5-.1443 0-.2328-.0794-.3188-.1565C10.1 8.7706 10.0212 8.7 9.9 8.7h-.2c-.2.1-.2.2-.2.4v1.5c0 .2-.1.3-.3.3H7.7c-.3 0-.4-.1-.4-.4 0-.1161.072-.216.1469-.3198.0626-.0868.1271-.1763.1531-.2802.1243-.4972-.3523-.8-.8-.8-.602 0-1.1194.6806-.6 1.2.2.1.2.2.1.4-.1.1-.2.2-.4.2H4.1c-.2 0-.3-.1-.3-.3V8.8c0-.2737.0272-.4.3-.4.1 0 .2 0 .3.1.3183.3183.7113.1887 1-.1.393-.524-.0483-1.4-.7-1.4-.1443 0-.2328.0794-.3188.1565C4.3 7.2293 4.2212 7.3 4.1 7.3c-.2406 0-.4-.126-.4-.4V5.5c0-.2.1-.3.3-.3h1.6c.4 0 .5-.3.3-.6-.5665-.5665.0746-1.3.7-1.3.5868 0 1.3615.7385.8 1.3-.1.2-.1.4 0 .5.1.1.2.1.3.1z" fill="#FFFFFF" />
</svg>
