<svg xmlns="http://www.w3.org/2000/svg" viewBox="0 0 20 20">
  <g fill-rule="evenodd" clip-rule="evenodd">
    <path d="M10 1L3 5v3.4595C2.0926 9.1437 1.165 9.936 0 11.8c1.2007.0858 2.1774.2745 3 .5283V15l7 4 7-4v-2.2172c1.2581-1.0786 2.4011-2.4864 3-4.4828-1.186.1824-2.1557.2484-3 .2342V5l-7-4z" fill="#FFFFFF" />
    <path d="M15.4292 5.2541L10 2.1517 4.5708 5.2541 10 8.4211l5.4292-3.167zM4 6.0788V9l-1 .7357c-.3834.3253-.7852.718-1.2275 1.273 1.0444.1847 1.9135.4584 2.6683.7897 1.1261.4942 1.9583 1.1006 2.678 1.6377l.1055.0789c.685.5118 1.2426.9283 1.9318 1.242.625.2845 1.3874.4942 2.4519.5356.4605-.4017 1.0259-.7634 1.5736-1.1032.1354-.0839.272-.1679.4096-.2524.6047-.3716 1.2292-.7554 1.8568-1.2078 1.1494-.8285 2.2386-1.8399 2.9874-3.2405-.5174.0388-.9923.0524-1.4354.0456L16 9V6.0789l-5.5 3.2083V14h-1V9.2872L4 6.0788zm13 2.4554V5l-7-4-7 4v3.4595c-.736.555-1.4851 1.1809-2.3635 2.3921A16.5736 16.5736 0 000 11.8c.3948.0282.7655.0675 1.1143.1167.712.1002 1.3336.2413 1.8857.4117V15l7 4 7-4v-2.2172c1.0213-.8757 1.9668-1.9682 2.6069-3.4165A9.105 9.105 0 0020 8.3a22.7995 22.7995 0 01-1.0999.1432c-.7084.0739-1.3326.1006-1.9001.091zm-1 5.0298c-.6495.4659-1.2999.8654-1.8962 1.2318-.8757.5379-1.6348 1.0043-2.1038 1.5042-.5568 0-1.0523-.0394-1.5-.1108v1.3733l5.5-3.1428v-.8557zm-6.5 3.9985v-1.6057c-1.168-.3647-1.9869-.9771-2.8511-1.6234-.759-.5676-1.553-1.1613-2.6489-1.6363v1.7226l5.5 3.1428z" fill="#999999" />
    <path d="M17 7.257c-1.5869 1.9116-3.3376 3.3205-4.7342 4.2702-.9564.6503-1.7417 1.0818-2.1835 1.3082-.9973-.7758-1.861-1.7061-2.847-2.4956C6.1727 9.4892 4.897 8.7195 3 8.1875v1.565c1.4613.4631 2.4549 1.0834 3.2977 1.7583 1.2377.9909 2.32 2.1317 3.6146 3.0588 1.1216-.4984 2.1799-1.1104 3.1969-1.802C14.259 11.9857 15.6426 10.9057 17 9.502V7.257z" fill="#333333" />
  </g>
</svg>
