<svg xmlns="http://www.w3.org/2000/svg" viewBox="0 0 20 20">
  <path d="M1 3.5C1 2.1193 2.1193 1 3.5 1h13C17.8807 1 19 2.1193 19 3.5v13c0 1.3807-1.1193 2.5-2.5 2.5h-13C2.1193 19 1 17.8807 1 16.5v-13z" fill="#333333" />
  <path d="M2 3.5C2 2.6716 2.6716 2 3.5 2h13c.8284 0 1.5.6716 1.5 1.5v13c0 .8284-.6716 1.5-1.5 1.5h-13c-.8284 0-1.5-.6716-1.5-1.5v-13z" fill="#FFFFFF" />
  <path fill-rule="evenodd" clip-rule="evenodd" d="M6.5 4.875c.6882-.0132 1.2107.093 1.568.3242.3578.2317.6479.6346.8769 1.2146l2.0301 6.5972c.1322.4973.315.8829.5467 1.158C11.4986 14.0787 11.5 14 11.5 14V6.5s-.0002-.0118.0012-.0318c-.0392-.6292.0986-1.0555.4284-1.269.3577-.2315.881-.3376 1.5703-.3242H13.5V3.159c-1.005.7772-2.1731 1.1662-3.5 1.1662-1.3269 0-2.495-.389-3.5-1.1662v1.716zm6.9379.2491c-.6151-.0058-1.0727.091-1.3725.285-.1726.1118-.2779.3224-.3102.6356C11.8722 6 12 6 12 6h1l.4379-.8759zm-1.55 9.3553c.3169.1791.8082.3075 1.4722.3807L13 14.5h-1s-.048-.0055-.1121-.0206zm1.6121.6462l-.0117-.0011c-.9669-.091-1.6244-.2895-1.9768-.6067-.3476-.3129-.6059-.7945-.7768-1.4379L8.7091 6.4965c-.208-.5262-.4682-.8875-.777-1.0874-.2994-.1938-.7562-.2906-1.37-.285L7 6h1s.185.0119.3304.1533C8.476 6.2947 8.5 6.5 8.5 6.5v7.1067c.057.4782-.0477.8442-.3218 1.0909-.3558.3203-.9165.4598-1.6782.4273v1.7434c1.005-.7771 2.1731-1.1662 3.5-1.1662 1.3269 0 2.495.3891 3.5 1.1662v-1.7427zM8 14.5s.0113-.0018.0302-.0061a.7398.7398 0 01-.0192.0179c-.2831.2548-.7453.3796-1.3896.3668L7 14.5h1zm2 2c-1.2598 0-2.5204.2593-3.1272.4045.9097-.6352 1.951-.9524 3.1272-.9524 1.1762 0 2.2175.3172 3.1272.9524C12.5204 16.7593 11.2598 16.5 10 16.5zm3.2023-13.4304C12.5894 3.207 11.1482 3.5 10 3.5s-2.5894-.293-3.2023-.4304C7.7252 3.7403 8.7913 4.0752 10 4.0752s2.2748-.335 3.2023-1.0056z" fill="#333333" />
</svg>
