<svg xmlns="http://www.w3.org/2000/svg" viewBox="0 0 100 100">
  <path fill="#fff" d="M0 0h100v100H0z" />
  <path d="M100 0v100H0V0h100zM.5 99.5h99V.5H.5v99z" fill="#333" />
  <path d="M49.9951 67.9951h-.5v-2.7002h.5v2.7002zm0-30.9951H50c7.1797 0 13 5.8203 13 13h1.4004v.5h-1.4102C62.7275 57.448 57.0123 63 50 63c-.0016 0-.0033-.001-.0049-.001v1.3965h-.5v-1.4062A13.265 13.265 0 0149 62.9619V62.46c.3299.0261.6634.04 1 .04 6.9036 0 12.5-5.5964 12.5-12.5S56.9036 37.5 50 37.5 37.5 43.0964 37.5 50c0 .3366.013.6701.0391 1h-.501a13.0923 13.0923 0 01-.0283-.5h-1.4102V50H37c0-7.0106 5.5494-12.725 12.4951-12.9902v-1.4151h.5V37zm0 3H50c5.5228 0 10 4.4772 10 10h1.7002v.5h-1.7129C59.7268 55.7905 55.3552 60 50 60c-.0016 0-.0033-.001-.0049-.001v1.6963h-.5v-1.708c-5.1226-.2547-9.2301-4.364-9.4824-9.4873h-1.7129V50H40c0-5.3536 4.2068-9.7253 9.4951-9.9883v-1.7168h.5V40zm0 .5v3.1953h-.5v-3.1816C44.4831 40.7761 40.5 44.9227 40.5 50h3.2002v.5h-3.1865c.2513 4.847 4.135 8.7315 8.9814 8.9854v-3.1905h.5v3.2041c.0016 0 .0033.001.0049.001 5.079 0 9.2263-3.9857 9.4863-9h-3.1865V50H59.5c0-5.2467-4.2533-9.5-9.5-9.5h-.0049zm0 14.8955h-.5v-1.8008h.5v1.8008zm0-5.3955h2.7051v.5h-2.7051v2.1953h-.5V50.5h-2.1953V50h2.1953v-2.7051h.5V50zm-15.2949.5H32V50h2.7002v.5zm11.7002 0h-1.8008V50h1.8008v.5zm9 0h-1.8008V50h1.8008v.5zM68 50.5h-2.7002V50H68v.5zm-18.0049-4.1045h-.5v-1.8008h.5v1.8008zm0-11.7002h-.5v-2.7002h.5v2.7002z" fill="#333" />
</svg>
