<svg xmlns="http://www.w3.org/2000/svg" viewBox="0 0 20 20">
  <path fill-rule="evenodd" clip-rule="evenodd" d="M10.0399 16.4532l-.747 2.7391 7.7782-2.1213 2.1213-7.7782-2.7391.7471a7.9953 7.9953 0 01-.2895 1.1155l1.6034-.4373-1.5105 5.5385-5.5386 1.5105.4373-1.6034a7.9917 7.9917 0 01-1.1155.2895z" fill="#333333" />
  <path fill-rule="evenodd" clip-rule="evenodd" d="M15.5729 9.0115c.1169-1.9305-.5622-3.9003-2.0373-5.3754-2.7337-2.7337-7.1659-2.7337-9.8995 0-2.7337 2.7336-2.7337 7.1658 0 9.8995 2.3272 2.3272 5.8855 2.6732 8.5788 1.0379l.7254.7254c-3.1007 2.0156-7.2916 1.6636-10.0114-1.0562-3.1241-3.1242-3.1241-8.1895 0-11.3137 3.1242-3.1242 8.1896-3.1242 11.3138 0 2.6694 2.6694 3.058 6.756 1.1657 9.8379l-.7303-.7302a6.9831 6.9831 0 00.8875-2.9182l.0972-.0972-.0899-.0098z" fill="#999999" />
  <path d="M9.1213 9.1213l5 .5-1.5 1.5 2.5 2.5-1.5 1.5-2.5-2.5-1.5 1.5-.5-5z" fill="#333333" />
  <path fill-rule="evenodd" clip-rule="evenodd" d="M9.5848.648c.497.0623.9893.171 1.4698.3265-.2495 1.6232-1.6847 3.9988-3.883 6.1971-2.1983 2.1983-4.574 3.6335-6.1971 3.883a8.0073 8.0073 0 01-.3264-1.4698c.2924-.0307.7228-.1461 1.2815-.4 1.2055-.548 2.7128-1.6053 4.1814-3.0738 1.4685-1.4686 2.5258-2.976 3.0737-4.1814.254-.5587.3695-.989.4001-1.2815z" fill="#333333" />
</svg>
