<svg xmlns="http://www.w3.org/2000/svg" viewBox="0 0 20 20">
  <g fill-rule="evenodd" clip-rule="evenodd">
    <path d="M2.9687 8.0255c.614.9948.4173 2.2523.3018 3.3443-.3091 2.9247.3822 5.4897 2.5738 7.6302 1.478-.7313 3.1563-.5386 4.7529-.4266 1.7424.1222 3.7647.1992 5.8261-.6942 1.4392-.6238 2.5149-1.617 3.5767-2.6991-1.9389-.8744-4.0236-1.823-5.2251-3.6019-1.3344-1.9756-.4987-4.0734-.5469-6.2051-.0163-.7159-.1585-1.4482-.6163-2.1329-.835-1.2488-2.2837-1.75-3.6644-2.2402-.3067.8543-.5485 1.927-1.4092 2.4376-.665.3945-1.5377.2544-2.272.1799-1.4866-.1509-2.9545-.1564-4.2702.632C1.1702 4.7444.6072 5.451 0 6.1625c1.1013.4297 2.3281.8252 2.9687 1.863z" fill="#999999" />
    <path d="M17.712 15.5609c-2.0338-1.0475-3.3083-2.1429-4.0757-3.279-1.5286-2.2631-.709-4.4713-.7635-6.8807-.0305-1.3427-.8552-2.1704-2.0949-2.7179-.4054.8921-.9073 1.4895-1.5254 1.8562-1.04.617-2.2699.4498-3.4314.3372-1.296-.1257-2.5556-.1264-3.5811.8049.8856.4793 1.497 1.0386 1.8959 1.6848.7817 1.2666.6293 2.7617.4805 4.1611-.2242 2.1096-.067 4.2799 1.5078 5.9203.6599-.2123 1.346-.2846 2.0289-.2945.823-.012 1.6996.0678 2.5431.127 1.7244.1209 3.4429.1654 5.1676-.5821.6049-.2622 1.2231-.6277 1.8482-1.1373z" fill="#FFFFFF" />
    <path d="M4.1823 3.5696c1.8969.8936 2.9106 1.8033 3.4826 2.701.7247 1.1377.8116 2.3527.8975 3.8316l.0035.0604.0067.1153c-.8179-.0021-1.728.0546-2.7078.307-.837.2155-1.7114.5692-2.6264 1.1312-.0431.5458-.05 1.0788-.0174 1.5984 1.0966-.8109 2.0925-1.2449 2.9961-1.4776.869-.2238 1.6743-.2686 2.455-.2614.1147 1.065.3494 2.2091.9532 3.3938.6169 1.2105 1.6005 2.4318 3.1692 3.6701.6267-.0196 1.2729-.0828 1.9303-.2217-2.1136-1.4296-3.2469-2.7723-3.8811-4.0165-.4827-.9471-.6923-1.8646-.8029-2.7846.98.0307 2.0156.0167 2.9653-.4596.4252-.2133.8135-.5073 1.171-.898-.1935-.742-.1858-1.4979-.127-2.2632-.5544 1.1868-1.1236 1.737-1.6735 2.0129-.6507.3264-1.3975.3419-2.444.3067l-.0168-.2852-.002-.0346c-.083-1.4285-.1716-2.9558-1.0914-4.3996-.4282-.6722-1.0217-1.3064-1.8394-1.908-.1745-.0126-.3476-.0312-.5154-.0493a33.6261 33.6261 0 00-.2016-.0213c-.7035-.0714-1.4028-.1102-2.0837-.0478z" fill="#333333" />
  </g>
</svg>
