<svg xmlns="http://www.w3.org/2000/svg" viewBox="0 0 20 20">
  <path d="M5 16.66v-.48c0-.1133.0244-.1867.0732-.22.0488-.04.129-.06.2406-.06h1.7155c.244 0 .3975-.02.4602-.06.0698-.04.129-.1567.1779-.35l2.7719-11.97c.0488-.1933.0454-.31-.0104-.35-.0488-.0467-.2057-.07-.4707-.07h-1.59c-.1325 0-.2127-.02-.2406-.06-.021-.04-.0314-.1233-.0314-.25v-.43c0-.1533.021-.25.0628-.29.0418-.0467.1395-.07.2929-.07h6.1715c.1465 0 .2441.02.2929.06.0558.0333.0837.1267.0837.28v.44c0 .1467-.0279.2367-.0837.27-.0488.0333-.1534.05-.3138.05h-1.6109c-.2161 0-.3382.0333-.3661.1-.0279.06-.0593.1733-.0941.34L9.7804 15.5c-.0489.1933-.042.31.0208.35.0628.0333.2197.05.4708.05h1.3807c.2232 0 .3557.03.3975.09.0419.06.0628.1967.0628.41v.22c0 .1467-.0175.2467-.0523.3-.0349.0533-.129.08-.2825.08H5.3975c-.1604 0-.265-.02-.3138-.06C5.0279 16.9 5 16.8067 5 16.66z" fill="#333333" />
</svg>
