<svg xmlns="http://www.w3.org/2000/svg" viewBox="0 0 20 20">
  <rect x="1" y="1" width="18" height="18" rx="2.5" fill="#333333" />
  <g fill="#FFFFFF">
    <path d="M3.5 2C2.6716 2 2 2.6716 2 3.5V8h16V3.5c0-.8284-.6716-1.5-1.5-1.5h-13zM18 15H2v1.5c0 .8284.6716 1.5 1.5 1.5h13c.8284 0 1.5-.6716 1.5-1.5V15z" />
  </g>
  <path d="M4 9h1v3.5c0 .8284-.6716 1.5-1.5 1.5S2 13.3284 2 12.5V12h1v.5a.5.5 0 001 0V9zM6 13h1.5a.5.5 0 000-1H7c-.5523 0-1-.4477-1-1v-1c0-.5523.4477-1 1-1h2v1H7.5a.5.5 0 000 1H8c.5523 0 1 .4477 1 1v1c0 .5523-.4477 1-1 1H6v-1z" fill="#FFFFFF" />
  <path fill-rule="evenodd" clip-rule="evenodd" d="M9.5 10.5c0-.8284.5876-1.5 1.3125-1.5h.875C12.4124 9 13 9.6716 13 10.5v2c0 .8284-.5876 1.5-1.3125 1.5h-.875C10.0876 14 9.5 13.3284 9.5 12.5v-2zm1.75-.5c-.4832 0-.875.4477-.875 1v1c0 .5523.3918 1 .875 1s.875-.4477.875-1v-1c0-.5523-.3918-1-.875-1z" fill="#FFFFFF" />
  <path d="M17 13l-2-4h-1v5h1v-3l1.5 3H18V9h-1v4z" fill="#FFFFFF" />
</svg>
