<svg xmlns="http://www.w3.org/2000/svg" viewBox="0 0 190 136">
  <path fill-rule="evenodd" clip-rule="evenodd" d="M10 0C4.4771 0 0 4.4772 0 10v80c0 5.5229 4.4771 10 10 10h102.747c5.168 9.387 15.155 15.748 26.627 15.748 7.523 0 14.405-2.736 19.71-7.264-.078 1.714.742 3.835 2.526 5.819l16.319 19.187c2.794 3.103 7.358 3.366 10.142.582 2.784-2.785 2.524-7.348-.582-10.143l-19.186-16.318c-1.985-1.785-4.106-2.605-5.82-2.526A30.4623 30.4623 0 00166 100h14c5.523 0 10-4.4772 10-10V10c0-5.5229-4.477-10-10-10H10zm159.398 90H181V75h-13.07c1.176 3.2371 1.818 6.7308 1.818 10.3742 0 1.5728-.12 3.1176-.35 4.6258zm-3.26-19H181V56h-33.868c8.214 2.1639 15.067 7.6817 19.006 15zm-34.522-15H119v6.8472c3.545-3.2087 7.852-5.5921 12.616-6.8472zM115 67.2476V56H97v15h15.61a30.4342 30.4342 0 012.39-3.7524zM110.818 75H53v15h56.35a30.6716 30.6716 0 01-.35-4.6258c0-3.6434.642-7.1371 1.818-10.3742zM27 18H9v15h18V18zM9 37h27v15H9V37zm40 19H9v15h40V56zM9 75h18v15H9V75zm40-57H31v15h18V18zm9 19v15H40V37h18zm-9 53V75H31v15h18zm4-72h18v15H53V18zm27 34V37H62v15h18zm-9 4v15H53V56h18zm4-38h18v15H75V18zm27 34V37H84v15h18zm-9 4v15H75V56h18zm22-38H97v15h18V18zm9 19v15h-18V37h18zm-5-19h18v15h-18V18zm27 34V37h-18v15h18zm-5-34h18v15h-18V18zm22 0h18v15h-18V18zm18 19h-31v15h31V37zm-61.873 48.3769c0 11.1828 9.067 20.2491 20.249 20.2491 11.183 0 20.25-9.0663 20.25-20.2491 0-11.1828-9.067-20.2495-20.25-20.2495-11.182 0-20.249 9.0667-20.249 20.2495z" fill="#EEEEEE" />
</svg>
