<svg xmlns="http://www.w3.org/2000/svg" viewBox="0 0 20 20">
  <g fill-rule="evenodd" clip-rule="evenodd" fill="#333333">
    <path d="M14.9546 20c2.7633.0295 5.0358-2.216 5.0453-4.9855.0095-2.747-2.2146-5.0014-4.947-5.0144-2.7852-.0125-5.0343 2.2034-5.0528 4.9784-.0184 2.725 2.2186 4.992 4.9545 5.0215zm.0051-.5555c2.1655.0231 3.9919-1.5256 4.3998-3.5795-.0687-.1178-.138-.237-.2078-.3572a98.2163 98.2163 0 00-.5611-.9578c-.2597-.4362-.137-.8824.4541-1.394-.696-1.5243-2.2267-2.592-3.9976-2.6004a4.569 4.569 0 00-.7172.0531c.2514.0925.4453.2907.3966.5743-.0255.1475-.0206.3-.0142.4993.0034.1048.0072.2225.0072.3592a9.9475 9.9475 0 00.2968-.2142c.1687-.1251.2961-.2196.4381-.2793.2101-.0885.4728-.1675.6779-.1155.1478.0375.371.3605.3305.4445-.0695.143-.2126.2511-.3549.3585-.0517.039-.1034.078-.1513.1185a3.9994 3.9994 0 01-.1796.1405c-.1144.0861-.2288.1721-.3216.2775-.2447.278-.4893.5655-.678.882-.1238.2081-.2132.4366-.3026.6652a9.92 9.92 0 01-.1208.2998 15.7945 15.7945 0 01-.0973-.0025 31.6538 31.6538 0 00-.0974-.0025 588.6756 588.6756 0 01-.0893-.8875c-.8807-.29-1.3994-.073-1.3505.5945.0115.161.2282.4545.3016.44.6531-.1306.7449.2698.8381.6765.0163.071.0326.1423.052.211.4363.2305.8063.1405 1.1972-.1675.5547-.4365.9835-.374 1.5112.063.2295.1906.4941.3401.7568.4885.0454.0256.0908.0512.1358.077.3979.2275.4583.4985.1758.8675-.3026.395-.5911.801-.8727 1.211-.3964.578-.9356.921-1.6305 1.0895.0087-.1344.0214-.2644.0337-.391.0279-.2863.0541-.5551.0292-.819-.026-.2725-.1348-.586-.314-.7835a8.2088 8.2088 0 01-.03-.0331c-.292-.3222-.5454-.602-.6855-1.0739-.1108-.374-.6749-.6975-1.1063-.8755-1.1772-.485-1.5062-1.033-1.4568-2.2975.0157-.4039.0725-.8341.2544-1.1946-.8291.8015-1.3455 1.9229-1.3538 3.1715-.0164 2.4222 1.9721 4.4373 4.404 4.4636z" />
    <path d="M13.5 1.75L14 2v1.441l-6 3-2-1V4l6-3 .5.25L7 4l1 .5 5.5-2.75zM6 6v9.441l2 1 1.0681-.5341A6.0454 6.0454 0 019 15c0-2.973 2.1623-5.441 5-5.917V4L8 7 6 6zm3.168 10.416a5.9636 5.9636 0 00.6795 1.6602L8 19l-2-1v-2l2 1 1.168-.584zM9 8l4-2v2l-4 2V8z" />
  </g>
</svg>
