<svg xmlns="http://www.w3.org/2000/svg" viewBox="0 0 20 20">
  <path d="M1 4c0-.5523.4477-1 1-1h5.5a1 1 0 01.8.4L9.5 5H18c.5523 0 1 .4477 1 1v10c0 .5523-.4477 1-1 1H2c-.5523 0-1-.4477-1-1V4z" fill="#333333" />
  <path fill-rule="evenodd" clip-rule="evenodd" d="M7.5 4H2v12h16V6H9L7.5 4zm.625 3H10v1H8.125V7zm0 1.25v1L6.25 9l-.192.8828 1.872.2641.195-.8969v4.5H10v-5.5H8.125zm0 6.75v-1H10v1H8.125zm-.2485-4.6068l-1.872-.2641-.7033 3.2351 1.872.2641.7033-3.2351zM5 14.75l.2477-1.1395 1.872.2641L6.875 15 5 14.75zM13.125 7H15v1h-1.875V7zm0 1.25v5.5H15v-5.5h-1.875zm0 6.75v-1H15v1h-1.875zM12.5 9h-1.875v1H12.5V9zm-1.875 4.75v-3.5H12.5v3.5h-1.875zm0 .25v1H12.5v-1h-1.875z" fill="#FFFFFF" />
</svg>
