<svg xmlns="http://www.w3.org/2000/svg" viewBox="0 0 20 20">
  <g fill="none" fill-rule="evenodd">
    <g fill="#999">
      <path d="M8.625 4.5c0-1.657-.448-3-1-3s-1 1.343-1 3 .448 3 1 3 1-1.343 1-3" />
      <path d="M8.125.5c.736 0 1.333 1.791 1.333 4s-.597 4-1.333 4h8.667c.736 0 1.333-1.791 1.333-4s-.597-4-1.333-4H8.125zM5 4h3v1H5v2L2 4.5 5 2v2zM11.125 14.5c0 1.657.448 3 1 3s1-1.343 1-3-.448-3-1-3-1 1.343-1 3" />
      <path d="M11.625 18.5c-.736 0-1.333-1.791-1.333-4s.597-4 1.333-4H2.958c-.736 0-1.333 1.791-1.333 4s.597 4 1.333 4h8.667zM15 15h-3v-1h3v-2l3 2.5-3 2.5v-2z" />
    </g>
    <path d="M16.6648 2H13V0h7.0026v7H18.002l-.0014-3.6653L13.3352 8 12 6.6648 16.6648 2z" fill="#333" fill-rule="nonzero" />
  </g>
</svg>
