<svg xmlns="http://www.w3.org/2000/svg" viewBox="0 0 20 20">
  <g fill-rule="evenodd" clip-rule="evenodd">
    <path d="M19 5c0-2.2091-1.1193-4-2.5-4h-9C6.1193 1 5 2.7909 5 5c0 2.2091 1.1193 4 2.5 4h9C17.8807 9 19 7.2091 19 5zm-4 10c0-2.2091-1.1193-4-2.5-4h-9C2.1193 11 1 12.7909 1 15c0 2.2091 1.1193 4 2.5 4h9c1.3807 0 2.5-1.7909 2.5-4z" fill="#888888" />
    <path d="M6 5c0 1.7267.7958 3 1.5 3S9 6.7267 9 5s-.7958-3-1.5-3S6 3.2733 6 5zm3.1537 3H16.5c.7043 0 1.5-1.2733 1.5-3s-.7957-3-1.5-3H9.1537c.519.733.8463 1.8053.8463 3s-.3273 2.267-.8463 3zm1.6927 4c-.5191.7329-.8464 1.8053-.8464 3s.3273 2.2671.8464 3H3.5C2.7958 18 2 16.7267 2 15s.7958-3 1.5-3h7.3464zM11 15c0 1.7267.7958 3 1.5 3s1.5-1.2733 1.5-3-.7958-3-1.5-3-1.5 1.2733-1.5 3z" fill="#FFFFFF" />
    <path d="M1 5l3 3V6h4V4H4V2L1 5zm18 10l-3-3v2h-3.875v2H16v2l3-3z" fill="#333333" />
  </g>
</svg>
