<svg xmlns="http://www.w3.org/2000/svg" viewBox="0 0 20 20">
  <g fill="none" fill-rule="evenodd">
    <path d="M16.5 1C17.8807 1 19 2.7909 19 5c0 2.2091-1.1193 4-2.5 4h-9C6.1193 9 5 7.2091 5 5c0-2.2091 1.1193-4 2.5-4h9z" fill="#DD5228" fill-rule="nonzero" />
    <path d="M16.5 2h-9C6.7958 2 6 3.2733 6 5s.7958 3 1.5 3h9c.7042 0 1.5-1.2733 1.5-3s-.7958-3-1.5-3z" fill="#FFF" />
    <path d="M5 5c0-2.2091 1.1193-4 2.5-4S10 2.7909 10 5c0 2.2091-1.1193 4-2.5 4S5 7.2091 5 5z" fill="#DD5228" fill-rule="nonzero" />
    <path d="M6 5c0 1.7267.7958 3 1.5 3S9 6.7267 9 5s-.7958-3-1.5-3S6 3.2733 6 5z" fill="#FFF" />
    <path d="M12.5 11c1.3807 0 2.5 1.7909 2.5 4 0 2.2091-1.1193 4-2.5 4h-9C2.1193 19 1 17.2091 1 15c0-2.2091 1.1193-4 2.5-4h9z" fill="#DD5228" fill-rule="nonzero" />
    <path d="M12.5 12h-9C2.7958 12 2 13.2733 2 15s.7958 3 1.5 3h9c.7042 0 1.5-1.2733 1.5-3s-.7958-3-1.5-3z" fill="#FFF" />
    <path d="M10 15c0-2.2091 1.1193-4 2.5-4s2.5 1.7909 2.5 4c0 2.2091-1.1193 4-2.5 4S10 17.2091 10 15z" fill="#DD5228" fill-rule="nonzero" />
    <path d="M11 15c0 1.7267.7958 3 1.5 3s1.5-1.2733 1.5-3-.7958-3-1.5-3-1.5 1.2733-1.5 3z" fill="#FFF" />
    <path d="M4 8L1 5l3-3v2h4v2H4v2zm12 4l3 3-3 3v-2h-3.875v-2H16v-2z" fill="#DD5228" fill-rule="nonzero" />
  </g>
</svg>
