<svg xmlns="http://www.w3.org/2000/svg" viewBox="0 0 20 20">
  <path fill-rule="evenodd" clip-rule="evenodd" d="M15.9801 3.965l.0548.056c1.2868 1.2869 1.2868 3.3926 0 4.6805l-2.0871 2.086c.0094-.6148-.1015-1.232-.3348-1.8095l1.3486-1.3497c.6988-.6977.6988-1.8351 0-2.534l-.0548-.0548c-.6988-.6988-1.8363-.6988-2.5351 0L9.391 8.0203c-.6988.6987-.6988 1.8362 0 2.535l.0549.0548c.1084.1097.2298.1995.357.2742l-1.092 1.092a3.3484 3.3484 0 01-.3383-.294l-.0549-.0549c-1.2867-1.2867-1.2867-3.3925 0-4.6793l2.9819-2.983c1.2868-1.2868 3.3925-1.2868 4.6805 0zm-4.691 4.0587a3.323 3.323 0 01.3383.2929v.0011l.0549.0549c1.2879 1.2867 1.2879 3.3937 0 4.6804l-2.982 2.9819c-1.2867 1.2868-3.3924 1.2868-4.6792 0l-.056-.0548c-1.2868-1.288-1.2868-3.3937 0-4.6805l2.087-2.087a4.651 4.651 0 00.3349 1.8105l-1.3486 1.3486c-.6988.6988-.6988 1.8351 0 2.5351l.0548.0548c.6988.6988 1.8363.6988 2.535 0l2.9819-2.9818c.6988-.6989.6988-1.8363 0-2.5351l-.0548-.0548a1.7653 1.7653 0 00-.357-.2742l1.0908-1.092z" fill="#333" />
</svg>
