<svg xmlns="http://www.w3.org/2000/svg" viewBox="0 0 20 20">
  <path fill-rule="evenodd" clip-rule="evenodd" d="M11 1.5H9V3h2V1.5zM9 17v1.5h2V17H9zM9 4h2v2H9V4zm1 9c1.6569 0 3-1.3431 3-3s-1.3431-3-3-3-3 1.3431-3 3 1.3431 3 3 3zm-1 3v-2h2v2H9z" fill="#333" />
  <path fill-rule="evenodd" clip-rule="evenodd" d="M3 0L0 3l2 2 .5-.5 1.1647 1.1647C2.7216 7.7215 4.5 9.5 4.5 9.5L6 8l.5-.5L8 9l1-1-1.5-1.5L8 6l1.5-1.5s-1.7785-1.7784-3.8353-.8353L4.5 2.5 5 2 3 0z" fill="#333" />
  <path fill-rule="evenodd" clip-rule="evenodd" d="M19 10c0-4.9707-4.0293-9-9-9-1.7611 0-3.404.5058-4.7915 1.38l.7275.7276C7.127 2.4038 8.5163 2 10 2c4.4184 0 8 3.5816 8 8s-3.5816 8-8 8-8-3.5816-8-8c0-1.4837.4038-2.873 1.1076-4.064l-.7275-.7275C1.5058 6.5959 1 8.2389 1 10c0 4.9707 4.0293 9 9 9s9-4.0293 9-9z" fill="#999" />
</svg>
