<svg xmlns="http://www.w3.org/2000/svg" viewBox="0 0 20 20">
  <path d="M0 1.4327C0 .6417.6617 0 1.478 0h17.044C19.3383 0 20 .6416 20 1.4327v17.1346C20 19.3586 19.3383 20 18.522 20H1.478C.6617 20 0 19.3586 0 18.5673V1.4327z" fill="#333" />
  <path fill-rule="evenodd" clip-rule="evenodd" d="M6.0244 16.7421V7.7109H3.0226v9.0312h3.0018zM4.5234 6.4779c1.0469 0 1.6984-.6935 1.6984-1.5601-.0195-.8862-.6515-1.5605-1.6784-1.5605s-1.6982.6743-1.6982 1.5605c0 .8666.6514 1.5601 1.6587 1.5601h.0196zM7.6854 16.7421h3.0017v-5.0434c0-.2699.0195-.5395.0988-.7325.217-.5393.7109-1.0978 1.5402-1.0978 1.0862 0 1.5207.8282 1.5207 2.0422v4.8315h3.0015v-5.1783c0-2.774-1.4809-4.0648-3.4559-4.0648-1.6193 0-2.3303.9052-2.7252 1.5217h.02V7.711H7.6855c.0393.8474-.0001 9.0311-.0001 9.0311z" fill="#fff" />
</svg>
