<svg xmlns="http://www.w3.org/2000/svg" viewBox="0 0 21 20">
  <path fill-rule="evenodd" clip-rule="evenodd" d="M10.5 1.25V0l-3 2 3 2V2.75c4.0041 0 7.25 3.246 7.25 7.25h1.5c0-4.8325-3.9175-8.75-8.75-8.75zm3 6.75H13V7c0-1.38-1.12-2.5-2.5-2.5S8 5.62 8 7v1h-.5c-.55 0-1 .45-1 1v5c0 .55.45 1 1 1h6c.55 0 1-.45 1-1V9c0-.55-.45-1-1-1zm-3 4.5c-.55 0-1-.45-1-1s.45-1 1-1 1 .45 1 1-.45 1-1 1zM12.05 8h-3.1V7c0-.855.695-1.55 1.55-1.55.855 0 1.55.695 1.55 1.55v1zm-8.8 2c0 4.0041 3.246 7.25 7.25 7.25V16l3 2-3 2v-1.25c-4.8325 0-8.75-3.9175-8.75-8.75h1.5z" fill="#333333" />
</svg>
