<svg xmlns="http://www.w3.org/2000/svg" viewBox="0 0 20 20">
  <path d="M1 1h14l4 4v14H5l-4-4V1z" fill="#333333" />
  <g fill="#FFFFFF">
    <path d="M2 10.3536V14.5l3.25 3.25v-4.1464L2 10.3536zM5.75 18H18V5.75h-4.25v8h-8V18zM17.75 5.25L14.5 2h-4.1464l3.25 3.25H17.75z" />
  </g>
  <g fill="#999999">
    <path d="M2 2.3535v7.293l3.25 3.25v-7.293L2 2.3536zM9.6464 2H2.3537l3.25 3.25h7.2929L9.6465 2zM13.25 13.25h-7.5v-7.5h7.5v7.5z" />
  </g>
  <g fill="#333333">
    <path d="M5.2002 10.2001c0-.9676.687-1.7747 1.6-1.96V4.8c0-1.6568 1.3431-2.8 3-2.8h2.4c1.6568 0 3 1.1431 3 2.8v3.44c.9129.1854 1.6.9925 1.6 1.9601V18H5.6992a.4991.4991 0 01-.499-.5v-7.2999z" fill="#FFFFFF" />
    <path fill-rule="evenodd" clip-rule="evenodd" d="M9.8002 2.8c-1.1046 0-2 .8955-2 2v4.4h1.6V6.0001c0-.8836.7164-1.6 1.6-1.6.8837 0 1.6.7164 1.6 1.6v3.2h1.6V4.8c0-1.1046-.8955-2-2-2h-2.4zm-2.6 6.4001c-.5523 0-1 .4477-1 1v6c0 .5523.4477 1 1 1h7.6c.5523 0 1-.4477 1-1v-6c0-.5523-.4477-1-1-1h-7.6zm5.4 4c0 .8837-.7163 1.6-1.6 1.6-.8836 0-1.6-.7163-1.6-1.6 0-.8836.7164-1.6 1.6-1.6.8837 0 1.6.7164 1.6 1.6z" fill="#333" />
  </g>
</svg>
