<svg xmlns="http://www.w3.org/2000/svg" viewBox="0 0 20 20">
  <g fill-rule="evenodd" clip-rule="evenodd">
    <path d="M8.67 1.0763A12.3952 12.3952 0 0110 1c.5945 0 2.7229.0609 4.1509.8775.9155.4321 1.4741.9566 1.4741 1.3955l.0033.242c.033 2.535.105 8.0661 3.3717 13.258L10 19.5l-9-2.727C4.2667 11.5811 4.3387 6.05 4.3717 3.515l.0033-.242c0-.821 1.2608-1.9414 4.295-2.1967z" fill="#333333" />
    <path d="M5.4402 4.8518C6.8316 5.9268 9.3455 6 10 6c.6526 0 3.1536-.0727 4.5475-1.1387.1546 2.7232.7511 7.236 2.8525 11.4387l-7.4 2.2-7.4-2.2c1.704-3.4079 2.6094-8.4853 2.8402-11.448z" fill="#999999" />
    <path d="M10 2c2.4851 0 4.5.672 4.5 1.5 0 .8292-2.0149 1.5-4.5 1.5-2.485 0-4.5-.6708-4.5-1.5C5.5 2.672 7.515 2 10 2z" fill="#FFFFFF" />
  </g>
</svg>
