<svg xmlns="http://www.w3.org/2000/svg" viewBox="0 0 40 40">
  <path fill-rule="evenodd" clip-rule="evenodd" d="M31.9001 4.7h-23.8v27.2h5.95v-1.7h-4.25V6.4h20.4v11.9l1.7-1.7V4.7zm-17 5.1h-1.7v1.7h1.7V9.8zm-1.7 6.8h1.7v1.7h-1.7v-1.7zm1.7-3.4h-1.7v1.7h1.7v-1.7zm1.7-3.4h10.2v1.7h-10.2V9.8zm10.2 3.4h-10.2v1.7h10.2v-1.7zm-10.2 3.4h10.2v1.7h-10.2v-1.7zm16.3543 1.7h2.3457l-17 16.9999h-2.55l2.76-2.5556c-1.5156-1.0906-2.76-2.5475-3.61-4.2446 1.895-3.7841 5.7514-6.3748 10.2002-6.3748 1.2129 0 2.3821.193 3.479.5501l4.3751-4.375zM17.0939 28.4997c.7627-1.2056 1.7786-2.2297 2.9769-2.9943a9.9794 9.9794 0 01.2363-.1451A5.083 5.083 0 0020 27.1054a5.0752 5.0752 0 001.0498 3.0986l-1.1663 1.1668c-1.1168-.75-2.0667-1.7286-2.7896-2.8711zm7.9841-2.3234c-.1402-.9179-.9334-1.6213-1.8901-1.6213-1.0567 0-1.9125.8563-1.9125 1.9129 0 .9567.703 1.7499 1.6209 1.8901l2.1817-2.1817zm.0223 6.029a5.089 5.089 0 01-1.3094-.1703l6.239-6.239a5.086 5.086 0 01.1703 1.3094c0 2.8163-2.2836 5.0999-5.0999 5.0999zm10.1998-3.7056c-.8626-1.7232-2.1322-3.1986-3.6789-4.295l-1.3763 1.3764c1.1478.7558 2.1234 1.7518 2.8614 2.9186-.7627 1.2056-1.7786 2.2297-2.9769 2.9943a9.3364 9.3364 0 01-5.0291 1.4681 9.3391 9.3391 0 01-2.0167-.2198l-1.553 1.553c1.1231.376 2.3234.5793 3.5697.5793 4.4488 0 8.3048-2.5907 10.1998-6.3749z" fill="#333333" />
</svg>
