<svg xmlns="http://www.w3.org/2000/svg" viewBox="0 0 40 40">
  <path d="M5.7882 31.8679l-.7555-2.8212L18.4583 5.7929c.5704-.988 1.8334-1.3266 2.821-.7564l5.3646 3.0973c.9876.5702 1.3258 1.8332.7554 2.8212L13.9737 34.2088l-2.8209.7563-5.3646-3.0972z" fill="#FFFFFF" />
  <path fill-rule="evenodd" clip-rule="evenodd" d="M15.2165 13.4615l-4.6452 8.0506 7.1517 4.1316 4.6452-8.0506-7.1517-4.1316zm.5161-.8946l7.1517 4.1316 3.6129-6.2616c.2851-.494.1159-1.1257-.3778-1.411l-5.3638-3.0987c-.4937-.2852-1.125-.116-1.4101.3781l-3.6129 6.2616zM5.9262 29.5627l4.129-7.1561 7.1517 4.1316-4.129 7.1561c-.2851.4941-.9164.6633-1.4101.3781L6.304 30.9737c-.4937-.2852-.6629-.9169-.3778-1.411zm-.894 1.5501a2.055 2.055 0 00.7557.7554l5.3638 3.0987a1.756 1.756 0 00.0352.0199h1.9947a2.0546 2.0546 0 00.7902-.776l13.4194-23.2574c.5701-.9881.2318-2.2515-.7557-2.822l-5.3637-3.0987c-.9875-.5704-2.2501-.2319-2.8202.7562L5.0322 29.0463v2.0665z" fill="#333333" />
  <path d="M10.5713 21.5122l4.6452-8.0506 7.1516 4.1316-4.6451 8.0506-7.1517-4.1316z" fill="#999999" />
  <path d="M15.7327 12.5669l3.6129-6.2616c.285-.494.9163-.6633 1.4101-.378l5.3637 3.0986c.4938.2852.6629.917.3779 1.411l-3.6129 6.2616-7.1517-4.1316z" fill="#666666" />
  <path d="M5.0327 28.5126l.7555-2.8211L29.0348 12.27c.9876-.5702 2.2506-.2315 2.821.7564l3.0982 5.3662c.5703.9879.2321 2.251-.7555 2.8212L10.9519 34.6352c-.9876.5702-2.2506.2316-2.821-.7563l-3.0982-5.3663z" fill="#FFFFFF" />
  <path fill-rule="evenodd" clip-rule="evenodd" d="M14.3497 21.9373l8.0457-4.648 4.129 7.1561.8939-.5165-4.129-7.1561 6.2577-3.6151c.4938-.2852 1.1251-.116 1.4101.3781l3.0968 5.3671c.285.494.1159 1.1257-.3778 1.4109l-23.243 13.4277c-.4938.2853-1.125.116-1.4101-.378l-3.0968-5.3671c-.285-.4941-.1159-1.1258.3778-1.411l7.1517-4.1316 4.129 7.1561.894-.5165-4.129-7.1561zm-9.3175 4.509a2.055 2.055 0 01.7557-.7554l23.243-13.4277c.9874-.5705 2.2501-.2319 2.8202.7561l3.0968 5.3671c.5701.9881.2317 2.2515-.7557 2.822L10.9492 34.636c-.9875.5705-2.2501.232-2.8202-.7561l-3.0968-5.3671v-2.0665z" fill="#333333" />
  <path d="M14.3496 21.9373l8.0457-4.6481 4.129 7.1561-8.0457 4.6481-4.129-7.1561z" fill="#D7D7D7" />
  <path d="M23.2893 16.7729l6.2577-3.6151c.4938-.2852 1.1251-.116 1.4101.3781l3.0968 5.3671c.2851.494.1159 1.1257-.3778 1.4109l-6.2578 3.6152-4.129-7.1562z" fill="#999999" />
  <path d="M5.0322 26.7238c0-1.141.9243-2.0658 2.0645-2.0658h26.8388c1.1402 0 2.0645.9248 2.0645 2.0658v6.1974c0 1.1409-.9243 2.0657-2.0645 2.0657H7.0967c-1.1402 0-2.0645-.9248-2.0645-2.0657v-6.1974z" fill="#FFFFFF" />
  <path fill-rule="evenodd" clip-rule="evenodd" d="M7.0967 25.6909h8.2581v8.2631h-8.258c-.5702 0-1.0323-.4624-1.0323-1.0329v-6.1973c0-.5705.4621-1.0329 1.0322-1.0329zm18.5807 8.2631h-9.2903v-8.2631h9.2903v8.2631zm1.0322 0h7.2259c.5701 0 1.0322-.4624 1.0322-1.0329v-6.1973c0-.5705-.4621-1.0329-1.0322-1.0329h-7.2259v8.2631zM5.0322 26.7238c0-1.141.9243-2.0658 2.0645-2.0658h26.8388c1.1402 0 2.0645.9248 2.0645 2.0658v6.1973c0 1.141-.9243 2.0658-2.0645 2.0658H7.0967c-1.1402 0-2.0645-.9248-2.0645-2.0658v-6.1973zm6.1936 3.0987c0 .5704-.4622 1.0329-1.0323 1.0329-.57 0-1.0322-.4625-1.0322-1.0329 0-.5705.4621-1.0329 1.0322-1.0329s1.0323.4624 1.0323 1.0329zm1.0322 0c0 1.1409-.9243 2.0658-2.0645 2.0658-1.1402 0-2.0645-.9249-2.0645-2.0658 0-1.141.9243-2.0658 2.0645-2.0658 1.1402 0 2.0645.9248 2.0645 2.0658z" fill="#333333" />
  <path d="M16.3872 25.6909h9.2903v8.2632h-9.2903v-8.2632z" fill="#FFFFFF" />
  <path d="M26.7097 25.6909h7.2258c.5701 0 1.0323.4625 1.0323 1.0329v6.1974c0 .5705-.4622 1.0329-1.0323 1.0329h-7.2258v-8.2632z" fill="#D7D7D7" />
</svg>
