<svg xmlns="http://www.w3.org/2000/svg" viewBox="0 0 40 40">
  <g fill="#333333">
    <path fill-rule="evenodd" clip-rule="evenodd" d="M14 7l6-3 6 3v6l-6 3-6-3V7zm1.559.2205L20 9.441l4.441-2.2205L20 5l-4.441 2.2205zM25 8.059l-4.4999 2.25.0008 4.4405L25 12.5V8.059zm-5.4999 2.25L15 8.059V12.5l4.501 2.2505-.0009-4.4415z" />
    <path d="M12 17c0 1.1046.8954 2 2 2s2-.8954 2-2-.8954-2-2-2-2 .8954-2 2zM12 20c0 .5523-.4477 1-1 1s-1-.4477-1-1 .4477-1 1-1 1 .4477 1 1zM9 27c1.6569 0 3-1.3431 3-3s-1.3431-3-3-3-3 1.3431-3 3 1.3431 3 3 3zM9 27c2.948 0 5 .7823 5 4.6667 0 1.9736-2.3938 2.2786-5 2.3333-2.4564-.0547-5-.3567-5-2.3333C4 27.7778 6.8854 27 9 27z" />
    <path fill-rule="evenodd" clip-rule="evenodd" d="M34 24c0 1.6569-1.3431 3-3 3s-3-1.3431-3-3 1.3431-3 3-3 3 1.3431 3 3zm-3 2c1.1046 0 2-.8954 2-2s-.8954-2-2-2-2 .8954-2 2 .8954 2 2 2zM31 27c-2.1146 0-5 .7778-5 4.6667 0 1.9766 2.5436 2.2786 5 2.3333 2.6062-.0547 5-.3597 5-2.3333C36 27.7823 33.948 27 31 27zm0 1c2.9636 0 4 .8008 4 3.6667 0 .8654-1.1306 1.271-3.9993 1.3331C28.2092 32.9356 27 32.511 27 31.6667 27 29.0331 28.4962 28 31 28z" />
    <path d="M28 21c.5523 0 1-.4477 1-1s-.4477-1-1-1-1 .4477-1 1 .4477 1 1 1z" />
    <path fill-rule="evenodd" clip-rule="evenodd" d="M23 17c0 1.1046.8954 2 2 2s2-.8954 2-2-.8954-2-2-2-2 .8954-2 2zm2 1c.5523 0 1-.4477 1-1s-.4477-1-1-1-1 .4477-1 1 .4477 1 1 1z" />
  </g>
</svg>
