<svg xmlns="http://www.w3.org/2000/svg" viewBox="0 0 40 40">
  <path d="M9.6001 34.4001c-2.2064 0-4-1.7936-4-4v-20.8c0-2.2048 1.7936-4 4-4h20.8c2.2064 0 4 1.7952 4 4v20.8c0 2.2064-1.7936 4-4 4h-20.8z" fill="#333333" />
  <path fill-rule="evenodd" clip-rule="evenodd" d="M7.2 9.6c0-1.3232 1.0767-2.4 2.4-2.4h20.7999c1.3232 0 2.4 1.0767 2.4 2.4v20.7999c0 1.3232-1.0768 2.4-2.4 2.4h-20.8c-1.3232 0-2.4-1.0768-2.4-2.4v-20.8zm9.6 18.3999H12V15.2h-1.6V12h16v3.2H13.6v1.6h15.9999V20H16.8v-1.6h-3.2v3.2h15.9999v3.2H16.8v-1.6h-3.2v3.2h15.9999v3.1999H16.8v-1.6z" fill="#FFFFFF" />
</svg>
