<svg xmlns="http://www.w3.org/2000/svg" viewBox="0 0 40 40">
  <path fill-rule="evenodd" clip-rule="evenodd" d="M36 6h-5v2h3v3h2V6zM5 21.5c0-4.6944 3.8056-8.5 8.5-8.5s8.5 3.8056 8.5 8.5c0 1.9064-.6276 3.6662-1.6875 5.0841-.1176.1574 6.5839 6.5225 6.5839 6.5225l-1.8103 1.7716s-6.38-6.6567-6.509-6.5604C17.1604 29.3745 15.4033 30 13.5 30 8.8056 30 5 26.1944 5 21.5zm14.5 0c0-3.3137-2.6863-6-6-6s-6 2.6863-6 6 2.6863 6 6 6 6-2.6863 6-6zM13 6h4v2h-4V6zm23 8h-2v4h2v-4zm-2 6h2v4h-2v-4zm-9 9l2 2h2v-2h-4zm0-23h4v2h-4V6zm-2 0h-4v2h4V6zm11 20h2v5h-5v-2h3v-3zM10 6H5v5h2V8h3V6z" fill="#333333" />
</svg>
