<svg xmlns="http://www.w3.org/2000/svg" viewBox="0 0 40 40">
  <path fill-rule="evenodd" clip-rule="evenodd" d="M11.3521 25.9195l.0336.1114-.0748-.0384-3.0539 5.4104 10.048-5.4787c.5548.05 1.1205.0758 1.695.0758 7.1797 0 13-4.0294 13-9s-5.8203-9-13-9-13 4.0294-13 9c0 2.9738 2.0834 5.6108 5.2947 7.2495l-.9426 1.67zm7.1325-1.9872l-.6043-.0545-4.4482 2.4254 1.6297-2.8871-1.858-.9481C10.5168 21.0969 9 19.0644 9 17c0-3.6759 4.8015-7 11-7s11 3.3241 11 7-4.8015 7-11 7c-.5104 0-1.0163-.0227-1.5154-.0677z" fill="#333333" />
</svg>
