<svg xmlns="http://www.w3.org/2000/svg" viewBox="0 0 40 40">
  <path fill-rule="evenodd" clip-rule="evenodd" d="M9 17.5C9 12.8056 12.8056 9 17.5 9s8.5 3.8056 8.5 8.5c0 1.9064-.6276 3.6662-1.6875 5.0841-.1176.1574 6.5839 6.5225 6.5839 6.5225l-1.8103 1.7716s-6.38-6.6567-6.509-6.5604C21.1604 25.3745 19.4033 26 17.5 26 12.8056 26 9 22.1944 9 17.5zm8.5 6c3.3137 0 6-2.6863 6-6s-2.6863-6-6-6-6 2.6863-6 6 2.6863 6 6 6zm1-7h2.75a.25.25 0 01.25.25v1.5a.25.25 0 01-.25.25H18.5v2.75a.25.25 0 01-.25.25h-1.5a.25.25 0 01-.25-.25V18.5h-2.75a.25.25 0 01-.25-.25v-1.5a.25.25 0 01.25-.25h2.75v-2.75a.25.25 0 01.25-.25h1.5a.25.25 0 01.25.25v2.75z" fill="#333333" />
</svg>
