<svg xmlns="http://www.w3.org/2000/svg" viewBox="0 0 40 40">
  <path fill-rule="evenodd" clip-rule="evenodd" d="M6.6001 30.5969V6.6001h24l4.8 4v24.8h-24l-4.8-4.8032zm11.7022-7.925c-.4329 0-.851-.063-1.2459-.1802a4.8686 4.8686 0 01-.0563-.7402c0-2.66 2.149-4.8162 4.8-4.8162.2269 0 .4501.0157.6686.0463.1319.4167.2031.8604.2031 1.3208 0 2.4132-1.9563 4.3695-4.3695 4.3695z" fill="#333333" />
  <path fill-rule="evenodd" clip-rule="evenodd" d="M33.7999 12.1189H13v21.673h20.7999v-21.673zM12.2 33.7919l-4-4.0135V8.9081l4 3.2108v21.673zM9 8.1038l4 3.2124h20.7999l-4-3.2124h-20.8zm7.3998 20.605c1.6091 2.0912 4.1629 3.4777 7.0002 3.4777 4.8608 0 8.7999-3.9525 8.7999-8.8298 0-4.8772-3.9391-8.8297-8.7999-8.8297-4.8608 0-8.8 3.9525-8.8 8.8297 0 2.0124.6705 3.8672 1.7998 5.3521z" fill="#FFFFFF" />
  <path fill-rule="evenodd" clip-rule="evenodd" d="M19.1963 30.1882a8.7786 8.7786 0 002.6038.3928c4.8608 0 8.8-3.9525 8.8-8.8298a8.8517 8.8517 0 00-.3927-2.6144c.7564 1.2263 1.1927 2.6714 1.1927 4.2198 0 2.2187-.8944 4.2222-2.3424 5.6767-1.4496 1.4529-3.448 2.3504-5.6576 2.3504-1.5435 0-2.9825-.4373-4.2038-1.1955zm-2.7659-1.4397c1.6091 2.0912 4.1324 3.4379 6.9697 3.4379 4.8536 0 8.7883-3.9408 8.8-8.8081v.0216c0 4.8601-3.9399 8.8-8.8 8.8-4.8601 0-8.8-3.9399-8.8-8.8v-.0216c.0048 2.004.6746 3.8509 1.7998 5.3304l-.0078.01.0383.0298zm.5665-.5779c-1.0031-1.3414-1.5968-3.0063-1.5968-4.814 0-2.217.8944-4.2222 2.3424-5.6767 1.4496-1.4529 3.4464-2.3503 5.6576-2.3503 1.8001 0 3.46.5956 4.7972 1.6019 1.0071 1.3417 1.6028 3.0089 1.6028 4.8197 0 2.2187-.8944 4.2222-2.344 5.6751-1.448 1.4545-3.4464 2.352-5.656 2.352-1.8037 0-3.4651-.5985-4.8032-1.6077zm4.8032-.8005c-2.6619 0-4.89-1.8635-5.4592-4.3612l-.0005-.0002-.0105-.0044a5.5956 5.5956 0 01-.1298-1.2044v-.0249-.0238c0-3.1032 2.5072-5.6189 5.6-5.6189 3.0928 0 5.6 2.5157 5.6 5.6189 0 3.1033-2.5072 5.6189-5.6 5.6189zm-4.5494-4.0788c.6403 1.9047 2.4352 3.2761 4.5494 3.2761 2.651 0 4.8-2.1563 4.8-4.8162 0-2.1443-1.3967-3.9614-3.3271-4.5852a5.1287 5.1287 0 01.1271 1.1361c0 2.8044-2.2646 5.08-5.0648 5.0977l-.033.0001a5.1173 5.1173 0 01-1.0516-.1086z" fill="#999999" />
  <path fill="#333333" d="M5 5h16v12.8H5z" />
  <path fill-rule="evenodd" clip-rule="evenodd" d="M19.4001 11.3999h-3.2v1.6h3.2v-1.6zm-4.8 0h-3.2v1.6h3.2v-1.6zm-4.7992 0H6.6001v1.6h3.201l-.0002-1.6zm1.5992 3.2h3.2v1.6h-3.2v-1.6zm8 1.6h-3.2v-1.6h3.2v1.6zm-9.5987-1.6H6.6v1.6h3.2015l-.0002-1.6z" fill="#FFFFFF" />
  <path fill-rule="evenodd" clip-rule="evenodd" d="M11.4001 6.6001h3.2v3.2h-3.2v-3.2zm4.8 0v3.2h3.2v-3.2h-3.2zm-6.3998 0H6.6001v3.2h3.2006l-.0004-3.2z" fill="#999999" />
</svg>
