<svg xmlns="http://www.w3.org/2000/svg" viewBox="0 0 40 40">
  <path fill-rule="evenodd" clip-rule="evenodd" d="M20.5 6l4 4h-8l4-4zm0 6c-4.6944 0-8.5 3.8056-8.5 8.5s3.8056 8.5 8.5 8.5c1.9033 0 3.6604-.6255 5.0771-1.6822.129-.0963 6.509 6.5604 6.509 6.5604l1.8103-1.7716s-6.7015-6.3651-6.5839-6.5225C28.3724 24.1662 29 22.4064 29 20.5c0-4.6944-3.8056-8.5-8.5-8.5zm6 8.5c0 3.3137-2.6863 6-6 6s-6-2.6863-6-6 2.6863-6 6-6 6 2.6863 6 6zm-2 10.5l-4 4-4-4h8zM35 20l-4-4v8l4-4zm-25-4l-4 4 4 4v-8z" fill="#333333" />
</svg>
