<svg xmlns="http://www.w3.org/2000/svg" viewBox="0 0 40 40">
  <path fill-rule="evenodd" clip-rule="evenodd" d="M30.927 14.3151c.233.2413.4606.4963.6823.7654l-1.8844 1.4825.6137.8042 1.8847-1.4826c.3818.5395.7423 1.1279 1.078 1.7688l-2.1388 1.0463.435.9165 2.1481-1.0509c.2685.593.5174 1.2258.7444 1.901l-2.2783.7253.2998.9708 2.2811-.7262c.1732.6001.3303 1.2307.4699 1.893l-2.1394.6811.2998.9708 2.0336-.6474c.1023.5814.1919 1.1855.2681 1.8132l-2.076.4078.1904.9989 1.995-.392c.0727.7677.1261 1.5684.1592 2.4036H4.0068c.033-.8352.0865-1.636.1592-2.4036l1.9952.392.1903-.9989-2.0761-.4079a34.341 34.341 0 01.2681-1.8131l2.0338.6474.2998-.9708-2.1396-.6811c.1397-.6624.2967-1.293.47-1.8931l2.2811.7263.2998-.9708-2.2784-.7254c.227-.6751.476-1.308.7444-1.9009l2.1482 1.0509.435-.9165-2.1389-1.0464c.3357-.6409.6962-1.2293 1.0781-1.7688l1.8847 1.4827.6138-.8042-1.8846-1.4825c.2217-.2692.4493-.5241.6823-.7654.2744-.2842.559-.5523.8533-.8048l1.6254 1.8063.7398-.6862-1.5713-1.7462c.6488-.4697 1.3388-.8727 2.0668-1.2123l1.0081 1.9709.8893-.4689-.9686-1.8935c.7747-.2933 1.5874-.5221 2.4346-.6899l.3126 1.7999.9868-.1766-.3107-1.7894c.7591-.1057 1.5433-.1662 2.3502-.1841v2.0292h1.0215v-2.0292c.8069.0179 1.5911.0784 2.3503.1841l-.3108 1.7894.9868.1766.3126-1.7998c.8472.1677 1.6599.3965 2.4346.6899l-.9685 1.8934.8893.4689 1.008-1.9708c.728.3396 1.418.7426 2.0668 1.2123l-1.5713 1.7461.7398.6862 1.6253-1.8062c.2944.2524.579.5206.8533.8047zM2.0015 29.5591c.597-15.6849 8.1565-21.1633 17.4878-21.354V8.2h1.0215v.0052c9.3313.1907 16.8908 5.6691 17.4877 21.354.0428 1.123-.8592 2.0409-1.966 2.0409H3.9675c-1.1068 0-2.0088-.9179-1.966-2.0409zm8.0756-4.0634c.321-3.1969 1.4061-5.3114 2.8073-6.6752 1.698-1.6527 4.1458-2.4813 7.1156-2.4813 2.9699 0 5.4177.8286 7.1157 2.4813 1.4012 1.3638 2.4862 3.4783 2.8073 6.6752h-5.3297c-.7731-1.7966-2.5388-3.0522-4.5933-3.0522-2.0544 0-3.8201 1.2556-4.5932 3.0522h-5.3297zm12.929 2.0348h9.0183c0-.7103-.03-1.3883-.0884-2.0348C31.2131 17.487 26.1448 14.3044 20 14.3044S8.787 17.487 8.064 25.4957c-.0583.6465-.0883 1.3245-.0883 2.0348h9.0182c0-.7817.2895-1.4948.7655-2.0348.5504-.6244 1.3503-1.0174 2.2406-1.0174.8903 0 1.6902.393 2.2407 1.0174.476.54.7654 1.2531.7654 2.0348z" fill="#333333" />
</svg>
