<svg xmlns="http://www.w3.org/2000/svg" viewBox="0 0 40 40">
  <path fill-rule="evenodd" clip-rule="evenodd" d="M24.1197 8.4613C22.8251 8.162 21.4399 8 20 8c-7.1797 0-13 4.0294-13 9 0 2.9738 2.0834 5.6108 5.2947 7.2495l-.9426 1.67.0336.1114-.0748-.0384-3.0539 5.4104 10.048-5.4787c.5548.05 1.1205.0758 1.695.0758 7.1797 0 13-4.0294 13-9 0-.6627-.1035-1.3087-.2998-1.9307a5.4995 5.4995 0 01-1.7843 1.0878A4.299 4.299 0 0131 17c0 3.6759-4.8015 7-11 7-.5104 0-1.0163-.0227-1.5154-.0677l-.6043-.0545-4.4482 2.4254 1.6297-2.8871-1.858-.9481C10.5168 21.0969 9 19.0644 9 17c0-3.6759 4.8015-7 11-7 1.2437 0 2.4311.1338 3.5348.3775a5.4646 5.4646 0 01.5849-1.9162z" fill="#333333" />
  <path d="M33 11c0 2.2091-1.7909 4-4 4-2.2091 0-4-1.7909-4-4 0-2.2091 1.7909-4 4-4 2.2091 0 4 1.7909 4 4z" fill="#1651B0" />
</svg>
