<svg xmlns="http://www.w3.org/2000/svg" viewBox="0 0 40 41">
  <g fill="#333333" fill-rule="evenodd" clip-rule="evenodd">
    <path d="M25.1717 19c-3.6049 0-6.6262-1.3353-6.6262-3.5s3.0213-3.5 6.6262-3.5c3.6049 0 6.6263 1.3353 6.6263 3.5S28.7766 19 25.1717 19zm4.6869-3.5c0 .5968-2.0437 1.5-4.6869 1.5-2.6431 0-4.6869-.9032-4.6869-1.5s2.0438-1.5 4.6869-1.5c2.6432 0 4.6869.9032 4.6869 1.5z" />
    <path d="M13.7203 15h-.0233v6H4v11h21.3333C30.9359 32 36 29.7816 36 24.9163v-9.0467h-.0127A5.3922 5.3922 0 0036 15.5C36 11.2309 30.939 8 24.8485 8c-5.8504 0-10.7508 2.9811-11.1282 7zm1.9161 4.7657c.4604.4512.9924.8647 1.5843 1.2343h-1.5843v-1.2343zm0-4.2657c0-2.9106 4.0561-5.5 9.2121-5.5s9.2121 2.5894 9.2121 5.5-4.0561 5.5-9.2121 5.5-9.2121-2.5894-9.2121-5.5zm9.6969 7.5H5.9393v7h1.9395v-2h.9697v2h1.9394v-4h.9697v4h1.9394v-2h.9697v2h1.9394v-4h.9697v4h1.9394v-2h.9696v2h1.9394v-4h.9697v4h1.9394v-2h.9697v1.9735c.6675-.0368 1.3177-.1118 1.9394-.2242V26h.9697v3.5377c2.8201-.7282 4.8485-2.3024 4.8485-4.6214v-5.1506c-1.9337 1.8946-5.1281 3.1256-8.7273 3.2275V23z" />
  </g>
</svg>
