<svg xmlns="http://www.w3.org/2000/svg" viewBox="0 0 40 40">
  <path d="M40 20c0 11.0457-8.9543 20-20 20S0 31.0457 0 20 8.9543 0 20 0s20 8.9543 20 20z" fill="#FFFFFF" />
  <path fill-rule="evenodd" clip-rule="evenodd" d="M20 36c8.8366 0 16-7.1634 16-16S28.8366 4 20 4 4 11.1634 4 20s7.1634 16 16 16zm0 4c11.0457 0 20-8.9543 20-20S31.0457 0 20 0 0 8.9543 0 20s8.9543 20 20 20z" fill="#333333" />
  <path fill-rule="evenodd" clip-rule="evenodd" d="M31.6419 18.7793c.4773.429.1738 1.2207-.4679 1.2207H28.7a.7.7 0 00-.7.7v8.6a.7.7 0 01-.7.7h-3.6a.7.7 0 01-.7-.7v-5.6a.7.7 0 00-.7-.7h-4.6a.7.7 0 00-.7.7v5.6a.7.7 0 01-.7.7h-3.6a.7.7 0 01-.7-.7v-8.6a.7.7 0 00-.7-.7H8.7549c-.6326 0-.9407-.7725-.4818-1.2079L19.1797 8.4449a.7.7 0 01.9497-.0128L24 11.9109v-1.211a.7.7 0 01.7-.7h2.6a.7.7 0 01.7.7v4.8062l3.6419 3.2732z" fill="#333333" />
</svg>
