<svg xmlns="http://www.w3.org/2000/svg" viewBox="0 0 40 40">
  <path d="M5.6001 21.6001h22.4083c3.5301 0 6.3917 2.8726 6.3917 6.4 0 3.5346-2.8667 6.4-6.3917 6.4H5.6001v-12.8z" fill="#333333" />
  <path fill-rule="evenodd" clip-rule="evenodd" d="M7.2 32.7999V23.2h20.8083c2.6431 0 4.7916 2.1529 4.7916 4.8 0 2.6494-2.1489 4.7999-4.7916 4.7999H7.2zM27.9999 31.2C26.2326 31.2 24.8 29.7673 24.8 28c0-1.7674 1.4326-3.2 3.1999-3.2 1.7674 0 3.2 1.4326 3.2 3.2 0 1.7673-1.4326 3.2-3.2 3.2zm0-1.6c.8837 0 1.6-.7164 1.6-1.6 0-.8837-.7163-1.6-1.6-1.6-.8836 0-1.5999.7163-1.5999 1.6 0 .8836.7163 1.6 1.5999 1.6z" fill="#FFFFFF" />
  <path fill-rule="evenodd" clip-rule="evenodd" d="M24.8001 5.6001h-3.2v3.2388h1.6V7.2h1.6v-1.6zm1.6 0v1.6h3.2v-1.6h-3.2zm4.8 0v1.6h1.6v1.6h1.6v-3.2h-3.2zm3.2 4.8h-1.6v3.2h1.6v-3.2zm0 4.8h-1.6v3.2h1.6v-3.2zm0 4.8h-1.6v3.2h1.6v-3.2zm0 4.8h-1.6v3.2c0 2.651-2.149 4.8-4.8 4.8s-4.8-2.149-4.8-4.8v-3.2h-1.6v3.2c0 3.5346 2.8654 6.4 6.4 6.4s6.4-2.8654 6.4-6.4v-3.2zm-12.8-1.6h1.6v-3.2h-1.6v3.2zm0-4.8h1.6v-3.2h-1.6v3.2zm0-4.8h1.6v-3.2h-1.6v3.2z" fill="#1651B0" />
</svg>
