<svg xmlns="http://www.w3.org/2000/svg" viewBox="0 0 40 40">
  <g fill="#333333">
    <path d="M25 14s-.5-7-4-7c-2.2547 0-3.696 2.0335-3.9571 5H15l3 5 3-5h-1.9118c.2145-1.1016.8639-2 2.4118-2 2.5 0 2.5 4 2.5 4h1zM26 27l-3-5-3 5h1.9118c-.2145 1.1016-.8639 2-2.4118 2-2.5 0-2.5-4-2.5-4h-1s.5 7 4 7c2.2547 0 3.696-2.0335 3.9571-5H26zM13 20.9118V19l5 3-5 3v-2.0429C10.0335 22.696 8 21.2547 8 19c0-3.5 7-4 7-4v1s-4 0-4 2.5c0 1.5479.8984 2.1973 2 2.4118zM28 14l-5 3 5 3v-1.9118c1.1016.2145 2 .8639 2 2.4118 0 2.5-4 2.5-4 2.5v1s7-.5 7-4c0-2.2547-2.0335-3.696-5-3.9571V14z" />
  </g>
</svg>
