<svg xmlns="http://www.w3.org/2000/svg" viewBox="0 0 40 40">
  <path d="M24.6667 14l8 .0045L38 19.3333V38H19.3333L14 32.6667v-8h10.6667V14z" fill="#333333" />
  <g fill="#FFFFFF">
    <path d="M25.9999 15.714L30.5 20.3038v9.489l-4.5001-4.5001V15.714zM27.0273 15.3335L31.1124 19.5h5.054l-4.1665-4.1665h-4.9726z" />
    <path d="M36.6666 20.5H31.5v11h-11v5.1668h16.1666V20.5zM19.5 36.167v-4.9599l-4.1667-4.1668v4.9599L19.5 36.167z" />
    <path d="M15.7074 26.0002L20.2071 30.5h9.5858l-4.4998-4.4998h-9.5857z" />
  </g>
  <path d="M2 2v9l3 3h9V5l-3-3H2z" fill="#333333" />
  <path fill-rule="evenodd" clip-rule="evenodd" d="M3 3.4245V10.5l2.2 2.2V5.6245l-2.2-2.2zM5.8 13H13V5.8002H5.8V13zm6.9002-7.7998L10.5 3H3.424l2.2002 2.2002h7.076z" fill="#D7D7D7" />
  <g fill="#1651B0">
    <path d="M10 18h2v2H8v-4h2v2zM20 20h-2v-2h4v4h-2v-2zM13 18v2h4v-2h-4z" />
  </g>
</svg>
