<svg xmlns="http://www.w3.org/2000/svg" viewBox="0 0 40 40">
  <g fill-rule="evenodd" clip-rule="evenodd">
    <path d="M30.75 5.25H9.25V12h1.5V6.75h18.5V12h1.5V5.25zM4 15c0-.5523.4477-1 1-1h30c.5523 0 1 .4477 1 1v10c0 .5523-.4477 1-1 1h-5v7c0 1.6569-1.3431 3-3 3H13c-1.6569 0-3-1.3431-3-3v-7H5c-.5523 0-1-.4477-1-1V15z" fill="#333333" />
    <path d="M32 20c1.1046 0 2-.8954 2-2s-.8954-2-2-2-2 .8954-2 2 .8954 2 2 2zm-19 0c-.5523 0-1 .4477-1 1v12c0 .5523.4477 1 1 1h14c.5523 0 1-.4477 1-1V21c0-.5523-.4477-1-1-1H13z" fill="#FFFFFF" />
    <path d="M24.5 22c-.829 0-1.5.672-1.5 1.5s.671 1.5 1.5 1.5 1.5-.672 1.5-1.5-.671-1.5-1.5-1.5zM17 23l-3 9h12l-3-5.5-2 1.5-4-5z" fill="#333333" />
  </g>
</svg>
