<svg xmlns="http://www.w3.org/2000/svg" viewBox="0 0 40 40">
  <path d="M6 7.5468C6 5.588 7.3418 4 8.991 4H27.009C28.6608 4 30 5.5869 30 7.5468v24.9064C30 34.412 28.6582 36 27.0089 36H8.9911C7.339 36 6 34.4131 6 32.4532V7.5468z" fill="#FFFFFF" />
  <path fill-rule="evenodd" clip-rule="evenodd" d="M8.4056 6.3286C8.1818 6.5938 8 7.0183 8 7.5468v24.9064c0 .5303.182.9546.4048 1.2189.2193.2599.4341.3279.5863.3279h18.0178c.1499 0 .3651-.0674.5855-.3286.2238-.2652.4056-.6897.4056-1.2182V7.5468c0-.5303-.1819-.9546-.4048-1.2188-.2193-.26-.4341-.328-.5863-.328H8.9911c-.1499 0-.365.0674-.5855.3286zM8.991 4C7.3418 4 6 5.588 6 7.5468v24.9064C6 34.4131 7.3392 36 8.991 36H27.009C28.6582 36 30 34.412 30 32.4532V7.5468C30 5.5868 28.6608 4 27.0089 4H8.9911zM11 10h14v1.5H11V10zm14 4H11v1.5h14V14zm-14 4h10v1.5H11V18zm5 4h-5v1.5h5V22z" fill="#333333" />
  <path d="M18.7856 26.1403c.0503-.1257.1256-.24.2213-.3357l13.997-13.997c.3906-.3905 1.0237-.3905 1.4142 0l2.8285 2.8284c.3905.3905.3905 1.0237 0 1.4142l-13.997 13.997a1.0003 1.0003 0 01-.3357.2214l-4.7141 1.8856c-.8163.3265-1.6264-.4835-1.2998-1.2999l1.8856-4.714z" fill="#FFFFFF" />
  <path fill-rule="evenodd" clip-rule="evenodd" d="M31.3201 14.9057l.2929-.2929 2.8284 2.8284-.2929.2929-2.8284-2.8284zm-.7071.7071L20.3201 25.9057l2.8284 2.8284 10.2929-10.2929-2.8284-2.8284zm4.5355 1.1213l-2.8284-2.8284 1.391-1.3911 2.8285 2.8285-1.3911 1.391zm-15.4922 9.9221l-1.8278 4.5695 4.5695-1.8278-2.7417-2.7417zm-.8706-.5159a1.001 1.001 0 01.2213-.3358l13.997-13.997c.3906-.3905 1.0237-.3905 1.4142 0l2.8285 2.8285c.3905.3905.3905 1.0237 0 1.4142l-13.997 13.997a1 1 0 01-.3357.2213l-4.7141 1.8857c-.8163.3265-1.6264-.4836-1.2998-1.2999l1.8856-4.714z" fill="#333333" />
</svg>
