<svg xmlns="http://www.w3.org/2000/svg" viewBox="0 0 40 40">
  <defs>
    <clippath id="clip0_22363_6308">
      <path fill="#fff" transform="translate(3 3)" d="M0 0h34v34H0z" />
    </clippath>
  </defs>
  <g clip-path="url(#clip0_22363_6308)">
    <path d="M13.2 13.9211l.4117-.1473 10.8032-3.9024.1945-.0714.199.0608 5.1145 1.5691.4405.1337v8.5171l6.2234 2.233.4132.1489v6.3039l-.4132.1473-10.8989 3.9054-.2021.0714-.205-.0683L13.2 28.7756V13.9211z" fill="#333333" />
    <path d="M35.7543 27.8899l-9.8873 3.5424V27.062l9.8873-3.5286v4.3565zm-6.635-7.5708L19.156 23.866v-7.6756l9.9633-3.5454v7.6741z" fill="#999999" />
    <path d="M34.8765 23.0217l-9.3997 3.3555-5.546-1.9596 9.4529-3.3661 5.4928 1.9702zm-6.7597-10.8458l-9.3587 3.3312-3.3464-1.0633 9.2281-3.3313 3.477 1.0634z" fill="#D7D7D7" />
    <path d="M18.3783 16.201v8.4929l.2597.0911 6.4513 2.2785v4.3839l-10.6438-3.5666V14.9524l3.9328 1.2486z" fill="#EEEEEE" />
    <path d="M24.454 5.3906L27.2165 4.7l-.3171 1.5788 6.8448 2.1548.2723-1.353 1.7 2.1954v-.6806h1.275V20.85h-1.275V10.2854l-2.55 1.0452.3104-1.5539-6.8448-2.1565-.2656 1.3297L24.454 6.4v2.55h-1.275V4.7h1.275v.6907z" fill="#1651B0" />
    <g fill="#1651B0">
      <path d="M9.8 23.8251h4.25l2.55-1.275v3.4l-2.55-1.275H9.8v2.975H3v-6.8h6.8v2.975z" fill="#1651B0" />
      <path d="M3.85 26.7999h5.1V21.7h-5.1v5.0999z" fill="#FFFFFF" />
      <path d="M6.4442 23.4118H6.429c-.107.3315-.3213.9894-.4233 1.3158h.8568a99.2026 99.2026 0 01-.4182-1.3158zm.5202-.9333c.3162.9129.9537 2.7336 1.275 3.6414h-.9333c-.056-.1683-.1683-.5049-.2193-.6783H5.7863c-.056.1734-.1683.51-.2244.6783H4.7c.3213-.9078.964-2.7285 1.2903-3.6414h.9741z" />
    </g>
  </g>
</svg>
