<svg xmlns="http://www.w3.org/2000/svg" viewBox="0 0 40 40">
  <path fill-rule="evenodd" clip-rule="evenodd" d="M8 6.766C8 5.7907 8.7458 5 9.6642 5h18.3383c.9191 0 2.1855.556 2.8405 1.2547l5.9807 6.3795C37.4734 13.3271 38 14.6844 38 15.664v19.5609C38 36.2053 37.2584 37 36.3443 37H9.6557C8.7413 37 8 36.209 8 35.234V6.766z" fill="#FFFFFF" />
  <path fill-rule="evenodd" clip-rule="evenodd" d="M10 7v28h26V15.664c0-.1733-.0568-.5067-.209-.8987-.1535-.3955-.3302-.6607-.4264-.7632l-5.9807-6.3795c-.0954-.1018-.3283-.277-.669-.4272C28.3704 7.0434 28.104 7 28.0025 7H10zm-.3358-2C8.7458 5 8 5.7907 8 6.766v28.468C8 36.209 8.7413 37 9.6557 37h26.6886C37.2584 37 38 36.2053 38 35.2249V15.664c0-.9796-.5266-2.3369-1.1763-3.0298L30.843 6.2547C30.188 5.556 28.9216 5 28.0025 5H9.6642z" fill="#333333" />
  <path d="M2 14c0-1.1046.8954-2 2-2h26c1.1046 0 2 .8954 2 2v16c0 1.1046-.8954 2-2 2H4c-1.1046 0-2-.8954-2-2V14z" fill="#FFFFFF" />
  <path fill-rule="evenodd" clip-rule="evenodd" d="M4 13h26c.5523 0 1 .4477 1 1v1H3v-1c0-.5523.4477-1 1-1zm-2 3v-2c0-1.1046.8954-2 2-2h26c1.1046 0 2 .8954 2 2v16c0 1.1046-.8954 2-2 2H4c-1.1046 0-2-.8954-2-2V16zm29 0v14c0 .5523-.4477 1-1 1H4c-.5523 0-1-.4477-1-1V16h28zM5 18h6v1H5v-1zm24 3H5v1h24v-1zM5 24h24v1H5v-1zm24 3H5v1h24v-1z" fill="#333333" />
</svg>
