<svg xmlns="http://www.w3.org/2000/svg" viewBox="0 0 40 40">
  <path fill-rule="evenodd" clip-rule="evenodd" d="M7.152 21.0096c.584.4352.9728.848 1.168 1.2368.264.504.3952 1.1104.3952 1.8224v6.1872c0 .6416.1888 1.1744.5664 1.5984.3776.424.848.6592 1.4096.704.3664.0336.6016.1024.704.2064.1488.1488.224.3264.224.5328 0 .2064-.072.3776-.216.5152-.1424.1376-.3584.2064-.6432.2064-.9168 0-1.6736-.2928-2.2688-.8768-.8144-.7792-1.2208-1.7424-1.2208-2.888v-6.1872c0-.6304-.192-1.16-.576-1.5904-.3824-.4304-.8672-.6672-1.4512-.7136-.3088-.0336-.5296-.1152-.6608-.24-.1328-.1264-.1984-.2992-.1984-.5152 0-.2288.0656-.4064.1984-.5328.1312-.128.352-.2064.6608-.24.5952-.0464 1.0832-.2848 1.4608-.7136.3776-.4288.5664-.9616.5664-1.5888l-.0672-6.1872c0-1.0784.4128-1.9743 1.1008-2.6912.688-.7167 1.5056-1.0751 2.4576-1.0751.2864 0 .5008.0687.6432.2064.144.1375.216.3151.216.5343 0 .2065-.0688.3776-.2064.5152-.1136.104-.3536.1728-.7216.208-.5728.056-1.0448.2993-1.4192.7296-.3712.4288-.5568.96-.5568 1.5888v6.1712c0 .7216-.1136 1.3056-.344 1.7536-.2304.448-.6368.888-1.2208 1.3232zm25.6992-.0192c-.584-.4352-.9728-.848-1.168-1.2368-.264-.504-.3952-1.1104-.3952-1.8224V11.744c0-.6416-.1888-1.1744-.5664-1.5984-.3776-.424-.848-.6592-1.4096-.704-.3664-.0335-.6016-.1023-.704-.2063-.1488-.1489-.224-.3265-.224-.5328 0-.2065.072-.3777.216-.5152.1424-.1377.3584-.2065.6432-.2065.9168 0 1.6736.2928 2.2688.8768.8144.7793 1.2208 1.7424 1.2208 2.888v6.1872c0 .6304.192 1.16.576 1.5904.3824.4304.8672.6672 1.4512.7136.3088.0336.5296.1152.6608.24.1328.1264.1984.2992.1984.5152 0 .2288-.0656.4064-.1984.5328-.1312.128-.352.2064-.6608.24-.5952.0464-1.0832.2848-1.4608.7136-.3776.4288-.5664.9616-.5664 1.5888v6.1872c0 1.0784-.344 1.9744-1.032 2.6912-.688.7168-1.5056 1.0752-2.4576 1.0752-.2864 0-.5008-.0688-.6432-.2064-.144-.1376-.216-.3152-.216-.5344 0-.2064.0688-.3776.2064-.5152.1136-.1024.3552-.1712.7216-.2064.5728-.056 1.0448-.3008 1.4192-.7296.3712-.4304.5584-.9616.5584-1.5888v-6.1712c0-.7216.1136-1.3056.344-1.7536.2304-.448.6336-.8896 1.2176-1.3248zM10.4 16.2l9.6-4.8 9.6 4.8v9.6L20 30.6l-9.6-4.8v-9.6zm2.4945.3528L20 13l7.1056 3.5528L20 20.1056l-7.1055-3.5528zM12 17.8945l7.2001 3.6.0015 7.1063L12 25v-7.1055zm8.8001 3.5999L28 17.8945V25l-7.1984 3.5993-.0015-7.1049z" fill="#333333" />
  <path fill="#333333" d="M4 5h16v12.8H4z" />
  <path fill-rule="evenodd" clip-rule="evenodd" d="M18.4001 11.3999h-3.2v1.6h3.2v-1.6zm-4.8 0h-3.2v1.6h3.2v-1.6zm-4.7992 0H5.6001v1.6h3.201l-.0002-1.6zm1.5992 3.2h3.2v1.6h-3.2v-1.6zm8 1.6h-3.2v-1.6h3.2v1.6zm-9.5987-1.6H5.6v1.6h3.2015l-.0002-1.6z" fill="#FFFFFF" />
  <path fill-rule="evenodd" clip-rule="evenodd" d="M10.4001 6.6001h3.2v3.2h-3.2v-3.2zm4.8 0v3.2h3.2v-3.2h-3.2zm-6.3998 0H5.6001v3.2h3.2006l-.0004-3.2z" fill="#999999" />
</svg>
