<svg xmlns="http://www.w3.org/2000/svg" viewBox="0 0 40 40">
  <g fill="#333333">
    <path fill-rule="evenodd" clip-rule="evenodd" d="M19 19v2l-8 12v-2l8-12zm0 8v2l-3.2 5.5-1.8.7 5-8.2zm0-10v-2l-8 12v2l8-12zm-2.9838-2.1962l.8637-.3499C15.7253 13.9963 15 13.2945 15 12.5c0-1.3807 2.2386-2.5 5-2.5s5 1.1193 5 2.5c0 .7736-.7742 1.4923-1.8827 1.9527l.8665.3511L29 23v2l-7-11-.2879-.144C23.0647 13.6155 24 13.0987 24 12.5c0-.8284-1.7909-1.5-4-1.5-2.2091 0-4 .6716-4 1.5 0 .5987.9353 1.1155 2.2879 1.356L18 14l-7 11v-2l5.0162-8.1962zM19 31v2l-1.6.8L19 31zm2-10v-2l8 12v2l-8-12zm0 8v-2l5 8.2-1.8-.7L21 29zm0-14v2l8 12v-2l-8-12zm.4 18v-2l1.6 2.8-1.6-.8z" />
    <path d="M6 30V13c0-4.5678 6.5445-8 14-8s14 3.4322 14 8v17c0 2.0483-2.0505 4.1914-5 5.7434V36h-1l-7-11v-2l8 12v-1.5405c1.8195-1.106 3-2.3908 3-3.4595l-.0014-13.3257c-.8128.7535-1.8358 1.4573-2.9986 2.0691v2.1804L26 15.6l2.5468 1.1238c1.5037-.8419 2.642-1.8132 3.1544-2.7238.1942-.3451.2986-.6815.2988-.9989C32 9.8874 26.4964 7 20 7S8 9.8863 8 13c.0017 1.1546 1.3802 2.5632 3.4532 3.7238L14 15.6l-3 5.3238v-2.1804c-1.1621-.6115-2.1847-1.3148-2.9973-2.0679L8 30c0 1.0687 1.1805 2.3535 3 3.4595V35l8-12v2l-7 11h-1v-.2566C8.0505 34.1914 6 32.0483 6 30z" />
  </g>
</svg>
