<svg xmlns="http://www.w3.org/2000/svg" viewBox="0 0 155 180">
  <path fill-rule="evenodd" clip-rule="evenodd" d="M58.743 0L102.8.025l29.372 29.3535V132.203L155 155.037h-17.218c.845 1.621 6.23 12.475 7.132 14.641.71 1.705.028 8.16-3.737 9.657-3.765 1.496-8.575 0-8.575 0l-8.729-17.461-15.085 15.089v-44.76H29.3715L0 102.825V58.7571h58.743V0zm54.094 167.186l12.146-12.148 10.122 20.248s2.738.874 4.048 0c1.311-.874 2.614-2.634 2.025-4.05-2.784-6.683-10.122-20.248-10.122-20.248h14.17l-32.389-32.397v48.595zm11.992-42.327l-16.041-16.045v16.045H34.8787V93.6441h58.743v-58.757h31.2073v89.9719zM68.7213 7.3446h30.4075l23.8642 23.8701H92.5472l-23.8259-23.87zm-2.6354 2.636V63.505l23.8644 23.8701V33.8123L66.0859 9.9807zm-2.5961 56.1211H9.9389l23.8645 23.8701h53.5508L63.4898 66.1017zm-56.147 2.5967v30.4541l23.8645 23.8705V92.5685L7.3429 68.6984z" fill="#EEEEEE" />
</svg>
