<svg xmlns="http://www.w3.org/2000/svg" viewBox="0 0 20 20">
  <path d="M11.1006 3A5.022 5.022 0 0011 4c0 1.6575.8143 3.3018 1.665 4.6992.4349.7143.9099 1.4104 1.3409 2.0469.439.6483.8274 1.2276 1.1259 1.75L16 14.0156l.8682-1.5195c.2985-.5224.6869-1.1017 1.1259-1.75.3225-.4763.6694-.986 1.0059-1.5117v4.6621c0 .3317-.1315.6503-.3662.8847l-.6348.6329L18.001 17H1V3h10.1006z" fill="#333333" />
  <path d="M5.5 13.5a.5.5 0 110 1 .5.5 0 010-1zm3.5 0a.5.5 0 110 1 .5.5 0 010-1zM4 10H2V7h2v3z" fill="#FFFFFF" />
  <path d="M9 5h1V4h1c0 1.6575.8143 3.3018 1.665 4.6992.4349.7143.9099 1.4104 1.3409 2.0469.3044.4496.5834.8667.8261 1.2539H12v2h3.9912l.0088.0156.8682-1.5195c.2985-.5224.6869-1.1017 1.1259-1.75L18 10.7373v3.1592a.25.25 0 01-.0732.1767L16.999 15 17 16H2v-1h1v-2H2v-2h3V6H2V4h7v1zm-3.5 7.5c-.8284 0-1.5.6716-1.5 1.5s.6716 1.5 1.5 1.5S7 14.8284 7 14s-.6716-1.5-1.5-1.5zm3.5 0c-.8284 0-1.5.6716-1.5 1.5s.6716 1.5 1.5 1.5 1.5-.6716 1.5-1.5-.6716-1.5-1.5-1.5zM6 9h2V7H6v2z" fill="#D7D7D7" />
  <path fill-rule="evenodd" clip-rule="evenodd" d="M16 12c-1.2825-2.2445-4-5.2783-4-8 0-2.2091 1.7909-4 4-4 2.2091 0 4 1.7909 4 4 0 2.7217-2.7175 5.7556-4 8z" fill="#333333" />
  <path d="M16 1c1.6568 0 3 1.3432 3 3 0 1.9748-2.1261 4.455-3 5.9844C15.1261 8.455 13 5.9748 13 4c0-1.6568 1.3432-3 3-3zm0 1c-1.1046 0-2 .8954-2 2s.8954 2 2 2 2-.8954 2-2-.8954-2-2-2z" fill="#FFFFFF" />
</svg>
