<svg xmlns="http://www.w3.org/2000/svg" viewBox="0 0 20 20">
  <g fill="#333333">
    <path d="M2 4.2353h1V3h1.2353V2H3c-.5523 0-1 .4477-1 1v1.2353zM18 4.2353h-1V3h-1.2353V2H17c.5523 0 1 .4477 1 1v1.2353zM18 6.4314h-1V8.902h1V6.4314zM18 11.098h-1v2.4706h1V11.098zM18 17h2v1h-2v2h-1v-2h-2v-1h2v-2h1v2zM2 6.4314h1V8.902H2V6.4314zM2 11.098h1v2.4706H2V11.098z" />
    <path fill-rule="evenodd" clip-rule="evenodd" d="M2 15.7647h1v.3524l1.313-1.3131.6517-2.3183 9.6526-9.6526 2.5 2.5-9.6526 9.6526-2.3183.6517-.7372.7372L3 16.2934V17h1.2353v1H3c-.5523 0-1-.4477-1-1v-1.2353zm3.806-.9533l1.1587-.3257-1.5-1.5-.3257 1.1588.667.6669zm1.6587-.5328l8.9455-8.9455-1.7929-1.7929-8.9455 8.9455 1.793 1.7929z" />
    <path d="M6.4314 18v-1H8.902v1H6.4314zM11.098 18v-1h2.4706v1H11.098zM13.5686 2v1H11.098V2h2.4706zM8.902 2v1H6.4314V2H8.902z" />
  </g>
</svg>
