<svg xmlns="http://www.w3.org/2000/svg" viewBox="0 0 18 18">
  <path fill-rule="evenodd" clip-rule="evenodd" d="M8.5302 4.05a6.554 6.554 0 01.0198.45h-2.7l3.6 3.6 3.6-3.6h-2.7c-.0061-1.1592-.2912-2.0395-.8267-2.7H7.6758c.4665.5273.775 1.2535.8544 2.25zM7.0262 1.8c.259.209.4775.4648.6484.7793.2058.3788.3514.8587.404 1.4707h-3.315L9.45 8.7364 14.1364 4.05h-3.3526c-.0522-.7591-.2302-1.4179-.5397-1.9807a3.7278 3.7278 0 00-.163-.2693H14.2c1.1032 0 2 .8976 2 2v10.4c0 1.1032-.8968 2-2 2H3.8c-1.1032 0-2-.8968-2-2V3.8c0-1.1023.8968-2 2-2H7.026z" fill="#333333" />
  <path fill-rule="evenodd" clip-rule="evenodd" d="M8.5302 4.0501c.0114.1443.0181.2942.0198.45h-2.7l3.6 3.6 3.6-3.6h-2.7c-.0039-.7426-.1223-1.3708-.3477-1.9H8.186c.18.4048.2991.8837.3442 1.45zm-.8445-1.45c.2.3755.3412.8491.393 1.45H4.7635L9.45 8.7365l4.6864-4.6864h-3.3526c-.0366-.5322-.135-1.015-.2972-1.45H14.2c.6616 0 1.2.5384 1.2 1.2v4.6888a4.1908 4.1908 0 01-.0306.0477 5.582 5.582 0 01-.2727.3804c-.2477.3185-.6273.7458-1.15 1.1735-1.0423.8528-2.6554 1.7096-4.9467 1.7096-2.2914 0-3.9044-.8568-4.9467-1.7096-.5228-.4277-.9024-.855-1.15-1.1735a5.6198 5.6198 0 01-.2728-.3804A3.8934 3.8934 0 012.6 8.4889V3.8c0-.6616.5384-1.2 1.2-1.2h3.8857zm6.7676 8.1096a8.343 8.343 0 00.9467-.9075V14.2c0 .6616-.5384 1.2-1.2 1.2H3.8c-.6616 0-1.2-.5384-1.2-1.2v-4.398c.249.28.5633.5938.9467.9076 1.1577.9472 2.9446 1.8904 5.4533 1.8904 2.5086 0 4.2956-.9432 5.4533-1.8904z" fill="#FFFFFF" />
  <path fill-rule="evenodd" clip-rule="evenodd" d="M8.52 7.8063V8.52H4.68v2.88l1.92 1.92h6.72v-6.72l-.8672-.8664L9.45 8.7363l-.93-.93zm3.6145-2.3909L9.45 8.1l-.93-.93V4.68l2.88.0017.7345.7338z" fill="#333333" />
  <path fill-rule="evenodd" clip-rule="evenodd" d="M9 8.2863v.544l1.56 1.5599v-2.764L9.45 8.7364l-.45-.45zM10.56 6.99l-1.11 1.11L9 7.65V5.3322l1.56 1.5575V6.99zm.24.3964l.4264-.4264H12.84v5.88H6.96v-2.04h3.84V7.3863zm.6664-.6664l.6268-.6268.6269.6268h-1.2537zm.3086-.945l-.945.945h-.1002L9.1723 5.16H11.16l.615.615zM8.8303 9H5.3297l1.56 1.56h3.5006l-1.56-1.56zM5.16 11.16V9.1696l1.56 1.5601v1.9902l-1.56-1.56z" fill="#FFFFFF" />
  <path d="M3.15 0c4.5 0 7.1811.9189 7.2 4.5h2.7l-3.6 3.6-3.6-3.6h2.7C8.5122.9378 5.85.45 3.15.45V0z" fill="#333333" />
</svg>
