<svg xmlns="http://www.w3.org/2000/svg" viewBox="0 0 20 20">
  <path d="M9.75 18.75C4.925 18.75 1 14.825 1 10s3.925-8.75 8.75-8.75S18.5 5.175 18.5 10s-3.925 8.75-8.75 8.75zm-.5-14.975C6.039 4.03 3.505 6.725 3.505 10c0 3.443 2.802 6.245 6.245 6.245 3.275 0 5.971-2.534 6.227-5.745H9.25V3.775z" fill="#FFFFFF" />
  <path fill-rule="evenodd" clip-rule="evenodd" d="M9.75 1.7504c-4.5487 0-8.2497 3.701-8.2497 8.2496 0 4.5487 3.701 8.2496 8.2496 8.2496 4.5486 0 8.2496-3.7009 8.2496-8.2496 0-4.5486-3.701-8.2496-8.2496-8.2496zM.4994 10C.4995 4.8987 4.6485.7496 9.75.7496c5.1014 0 9.2504 4.149 9.2504 9.2504 0 5.1014-4.149 9.2504-9.2504 9.2504-5.1014 0-9.2504-4.149-9.2504-9.2504zm9.2508-6.7667v6.7663h6.7685l-.0431.5402c-.2765 3.469-3.1877 6.2056-6.7258 6.2056-3.7194 0-6.7454-3.026-6.7454-6.7454 0-3.5381 2.7368-6.4483 6.2058-6.7238l.54-.0429zM8.7495 4.3427C6.0573 4.8169 4.0053 7.1743 4.0053 10c0 3.1667 2.578 5.7446 5.7446 5.7446 2.8257 0 5.184-2.052 5.6592-4.7442H8.7495V4.3427z" fill="#666666" />
</svg>
