<svg xmlns="http://www.w3.org/2000/svg" viewBox="0 0 20 20">
  <g fill="#999" fill-rule="evenodd">
    <g opacity=".603">
      <path d="M4 4H1V1h3v3zM2 2v1h1V2H2zM4 19H1v-3h3v3zm-2-2v1h1v-1H2zM19 19h-3v-3h3v3zm-2-2v1h1v-1h-1zM3 7H2V4h1zM3 11H2V9h1zM18 11h-1V9h1zM3 16H2v-3h1zM18 16h-1v-3h1zM7 3H4V2h3zM7 18H4v-1h3zM11 3H9V2h2zM11 18H9v-1h2zM16 18h-3v-1h3zM5 5h7v3h3v7H8v-3H5V5zm1 1v5h5V6H6zm3 6v2h5V9h-2v3H9z" />
    </g>
    <path d="M16.6648 2H13V0h7.0026v7H18.002l-.0014-3.6653L13.3352 8 12 6.6648 16.6648 2z" fill-rule="nonzero" />
  </g>
</svg>
