<svg xmlns="http://www.w3.org/2000/svg" viewBox="0 0 10 10">
  <defs>
    <clippath id="clip0_13731_24270">
      <path fill="#fff" d="M0 0h10v10H0z" />
    </clippath>
  </defs>
  <g fill-rule="evenodd" clip-rule="evenodd" clip-path="url(#clip0_13731_24270)">
    <path d="M.75 5c0 2.4125 1.9625 4.375 4.375 4.375S9.5 7.4125 9.5 5 7.5375.625 5.125.625.75 2.5875.75 5zm1.2525 0c0-1.6375 1.267-2.985 2.8725-3.1125V5.25h3.363C8.11 6.8555 6.7625 8.1225 5.125 8.1225c-1.7215 0-3.1225-1.401-3.1225-3.1225z" fill="#EEEEEE" />
    <path d="M5.125.375C2.575.375.5 2.45.5 5s2.075 4.625 4.625 4.625S9.75 7.55 9.75 5 7.675.375 5.125.375zM9.25 5C9.25 2.722 7.403.875 5.125.875S1 2.722 1 5s1.847 4.125 4.125 4.125S9.25 7.278 9.25 5zm-.7525 0c0 1.8625-1.51 3.3725-3.3725 3.3725S1.7525 6.8625 1.7525 5s1.51-3.3725 3.3725-3.3725V5h3.3725zm-6.245 0c0 1.584 1.2885 2.8725 2.8725 2.8725 1.4135 0 2.592-1.026 2.829-2.3725H4.625V2.171C3.2785 2.408 2.2525 3.5865 2.2525 5z" fill="#333333" />
  </g>
</svg>
