<svg xmlns="http://www.w3.org/2000/svg" viewBox="0 0 20 20">
  <g fill-rule="evenodd" clip-rule="evenodd">
    <path d="M10.25.75C5.15.75 1 4.9 1 10s4.15 9.25 9.25 9.25S19.5 15.1 19.5 10 15.35.75 10.25.75zM4.505 10c0 3.168 2.577 5.745 5.745 5.745 2.827 0 5.184-2.052 5.658-4.745H9.25V4.342C6.557 4.816 4.505 7.173 4.505 10z" fill="#333333" />
    <path d="M10.25 1.75c4.556 0 8.25 3.694 8.25 8.25s-3.694 8.25-8.25 8.25S2 14.556 2 10s3.694-8.25 8.25-8.25zm0 14.995c3.725 0 6.745-3.02 6.745-6.745H10.25V3.255c-3.725 0-6.745 3.02-6.745 6.745s3.02 6.745 6.745 6.745z" fill="#EEEEEE" />
  </g>
</svg>
