<svg xmlns="http://www.w3.org/2000/svg" viewBox="0 0 20 20">
  <g fill-rule="evenodd" clip-rule="evenodd">
    <path d="M1.0291 3L2 3.0023 1.9709 16 1 15.9977 1.0291 3zm17 0L19 3.0023 18.9709 16 18 15.9977 18.0291 3zM2 5.49L5 8V6.0016h10v2l3-2.5058-3-2.4942v2H5V3L2 5.49z" fill="#333333" />
    <g fill="#1651B0">
      <path d="M5 12c1.6569 0 3 1.3431 3 3s-1.3431 3-3 3c-1.6568 0-3-1.3431-3-3s1.3432-3 3-3zm0 1c-1.1046 0-2 .8954-2 2s.8954 2 2 2 2-.8954 2-2-.8954-2-2-2zM15 12c1.6569 0 3 1.3431 3 3s-1.3431 3-3 3-3-1.3431-3-3 1.3431-3 3-3zm0 1c-1.1046 0-2 .8954-2 2s.8954 2 2 2 2-.8954 2-2-.8954-2-2-2z" />
    </g>
  </g>
</svg>
