<svg xmlns="http://www.w3.org/2000/svg" viewBox="0 0 20 20">
  <g fill="#CDCDCD" fill-rule="evenodd" clip-rule="evenodd">
    <path d="M12.5859 9.5c-1.8025 0-3.3132-.6677-3.3132-1.75S10.7834 6 12.586 6c1.8024 0 3.3131.6677 3.3131 1.75S14.3883 9.5 12.5859 9.5zm2.3434-1.75c0 .2984-1.0219.75-2.3434.75-1.3216 0-2.3435-.4516-2.3435-.75S11.2643 7 12.5859 7c1.3215 0 2.3434.4516 2.3434.75z" />
    <path d="M6.8602 7.5h-.0117v3H2V16h10.6667C15.468 16 18 14.8908 18 12.4581V7.9348h-.0064A2.6333 2.6333 0 0018 7.75C18 5.6155 15.4695 4 12.4242 4 9.499 4 7.0488 5.4906 6.8602 7.5zm.958 2.3828c.2302.2256.4962.4324.7921.6172h-.7921v-.6172zm0-2.1328c0-1.4553 2.028-2.75 4.606-2.75s4.6061 1.2947 4.6061 2.75-2.0281 2.75-4.6061 2.75-4.606-1.2947-4.606-2.75zm4.8485 3.75h-9.697V15h.9697v-1h.4848v1h.9697v-2h.4849v2h.9697v-1h.4848v1h.9697v-2h.4849v2h.9697v-1h.4848v1h.9697v-2h.4849v2h.9697v-1h.4848v.9867a7.9332 7.9332 0 00.9697-.112V13h.4849v1.7689c1.41-.3641 2.4242-1.1513 2.4242-2.3108V9.8828c-.9668.9473-2.5641 1.5629-4.3636 1.6138V11.5z" />
  </g>
</svg>
