<svg xmlns="http://www.w3.org/2000/svg" viewBox="0 0 15 15">
  <path fill-rule="evenodd" clip-rule="evenodd" d="M6 3c0 1.1046-.8954 2-2 2s-2-.8954-2-2 .8954-2 2-2 2 .8954 2 2zM5 5.8293C6.1652 5.4175 7 4.3063 7 3c0-1.6568-1.3431-3-3-3-1.6568 0-3 1.3432-3 3 0 1.3062.8348 2.4175 2 2.8293V15h2v-4.6488c.8082.4824 1.7656.6488 2.7298.6488h1.7431c.8563 0 1.3685.1288 1.723.5016C11.5792 11.9047 12 12.827 12 15h2c0-2.327-.4306-3.9047-1.3548-4.8766C11.6922 9.1212 10.4409 9 9.4729 9H7.7298c-.9858 0-1.618-.223-2.01-.5978C5.3358 8.035 5 7.3467 5 6v-.1707z" fill="currentColor" />
</svg>
