<svg xmlns="http://www.w3.org/2000/svg" viewBox="0 0 20 20">
  <path fill-rule="evenodd" clip-rule="evenodd" d="M6 6.8293C7.1652 6.4175 8 5.3063 8 4c0-1.6568-1.3431-3-3-3-1.6568 0-3 1.3432-3 3 0 1.3062.8348 2.4175 2 2.8293V18h2v-5.5392c.0142.0088.0284.0176.0428.0263 1.1997.7298 2.7207.7948 3.9322.8251.1396.0035.2759.0064.4091.0092.4895.0104.9391.0199 1.3704.0551.5452.0446.9746.1253 1.305.2602.3113.1271.5164.2941.6581.5254.1321.2155.2512.5565.2772 1.1085C13.3999 15.6171 13 16.2619 13 17c0 1.1046.8954 2 2 2s2-.8954 2-2c0-.7419-.4039-1.3894-1.0039-1.7347-.0281-.8351-.2093-1.5544-.5731-2.1481-.4052-.6613-.9813-1.0764-1.6075-1.3321-.6071-.2479-1.2715-.3507-1.8982-.4019-.4976-.0407-1.0263-.0518-1.5234-.0622a88.804 88.804 0 01-.3689-.0082c-1.2885-.0322-2.2675-.1235-2.9428-.5343C6.5371 10.4468 6.0028 9.7787 6 8.0142v-1.185zM7 4c0 1.1046-.8954 2-2 2s-2-.8954-2-2 .8954-2 2-2 2 .8954 2 2z" fill="#333333" />
</svg>
