<svg xmlns="http://www.w3.org/2000/svg" viewBox="0 0 20 20">
  <path d="M2 5l4-4h13v14.5l-10.5 4-7.5-4L2 5z" fill="#333333" />
  <g fill="#FFFFFF">
    <path d="M3.5 5l3-3 5 3h-8zM13.5 6l4.5 7V3l-4.5 3zM4 6l4.5 11 3-11H4zM8 2l5 3 5-3H8zM12.5 6l5.5 9-9 3 3.5-12zM8 18L3 6l-1 9 6 3z" />
  </g>
  <g>
    <path fill="#1651B0" d="M0 0h10v8H0z" />
    <path fill-rule="evenodd" clip-rule="evenodd" d="M9 4H7v1h2V4zM6 4H4v1h2V4zM3.0005 4H1v1h2.0007l-.0002-1zM4 6h2v1H4V6zm5 1H7V6h2v1zM3.0008 6H1v1h2.001l-.0002-1z" fill="#FFFFFF" />
    <path fill-rule="evenodd" clip-rule="evenodd" d="M4 1h2v2H4V1zm3 0v2h2V1H7zM3.0001 1H1v2h2.0004l-.0003-2z" fill="#90CEF1" />
  </g>
</svg>
