<svg xmlns="http://www.w3.org/2000/svg" viewBox="0 0 21 20">
  <defs>
    <clippath id="clip0_20286_1158">
      <path fill="#fff" d="M0 0h21v20H0z" />
    </clippath>
    <lineargradient id="paint0_linear_20286_1158" x1="1.866" y1="3.784" x2="9.128" y2="16.068" gradientUnits="userSpaceOnUse">
      <stop stop-color="#5A62C3" />
      <stop offset=".5" stop-color="#4D55BD" />
      <stop offset="1" stop-color="#3940AB" />
    </lineargradient>
  </defs>
  <g clip-path="url(#clip0_20286_1158)">
    <path d="M14.6477 7.5h5.4244c.5125 0 .9279.4253.9279.95v5.0585C21 15.4368 19.4732 17 17.5897 17h-.0161c-1.8835.0003-3.4105-1.5627-3.4108-3.491V7.9965c0-.2742.2171-.4965.4849-.4965zM18.3139 6.5c1.2138 0 2.1977-1.0074 2.1977-2.25S19.5277 2 18.3139 2c-1.2137 0-2.1976 1.0074-2.1976 2.25s.9839 2.25 2.1976 2.25z" fill="#5059C9" />
    <path d="M11.4767 6.5c1.7532 0 3.1745-1.455 3.1745-3.25S13.2299 0 11.4767 0 8.3023 1.455 8.3023 3.25 9.7235 6.5 11.4767 6.5zM15.7095 7.5H6.7557c-.5064.0128-.907.443-.8952.9615v5.7695c-.0707 3.1111 2.3334 5.6929 5.3721 5.769 3.0386-.0761 5.4428-2.6579 5.3721-5.769V8.4615c.0117-.5184-.3889-.9487-.8952-.9615z" fill="#7B83EB" />
    <path opacity=".1" d="M11.721 7.5v8.085c-.0025.3708-.2219.7038-.5568.845a.8472.8472 0 01-.337.07h-4.537c-.0634-.165-.122-.33-.1709-.5a6.2238 6.2238 0 01-.2588-1.77V8.46c-.0118-.5176.3881-.9472.8937-.96h4.9668z" fill="#000" />
    <path opacity=".2" d="M11.2326 7.5v8.585a.9041.9041 0 01-.0684.345c-.1379.3428-.4632.5675-.8253.57H6.5198c-.083-.165-.1612-.33-.2295-.5a5.042 5.042 0 01-.171-.5 6.2238 6.2238 0 01-.2588-1.77V8.46c-.0118-.5176.3881-.9472.8937-.96h4.4784z" fill="#000" />
    <path opacity=".2" d="M11.2326 7.5v7.585c-.0037.5038-.4017.9112-.8937.915H6.1193a6.2238 6.2238 0 01-.2588-1.77V8.46c-.0118-.5176.3881-.9472.8937-.96h4.4784z" fill="#000" />
    <path opacity=".2" d="M10.7442 7.5v7.585c-.0037.5038-.4017.9112-.8937.915H6.1193a6.2238 6.2238 0 01-.2588-1.77V8.46c-.0118-.5176.3881-.9472.8937-.96h3.99z" fill="#000" />
    <path opacity=".1" d="M11.7209 4.915V6.49c-.083.005-.1612.01-.2442.01-.083 0-.1611-.005-.2442-.01a2.6224 2.6224 0 01-.4883-.08c-.989-.2398-1.806-.9499-2.1977-1.91a2.8251 2.8251 0 01-.1563-.5h2.437c.4928.002.8918.4104.8937.915z" fill="#000" />
    <path opacity=".2" d="M11.2326 5.415V6.49a2.622 2.622 0 01-.4884-.08c-.989-.2398-1.806-.9499-2.1977-1.91h1.7923c.4928.002.8919.4104.8938.915z" fill="#000" />
    <path opacity=".2" d="M11.2326 5.415V6.49a2.622 2.622 0 01-.4884-.08c-.989-.2398-1.806-.9499-2.1977-1.91h1.7923c.4928.002.8919.4104.8938.915z" fill="#000" />
    <path opacity=".2" d="M10.7442 5.415v.995c-.989-.2398-1.806-.9499-2.1977-1.91h1.304c.4928.002.8918.4105.8937.915z" fill="#000" />
    <path d="M.8952 4.5H9.849c.4944 0 .8952.4103.8952.9165v9.167c0 .5062-.4008.9165-.8952.9165H.8952C.4008 15.5 0 15.0897 0 14.5835v-9.167C0 4.9103.4008 4.5.8952 4.5z" fill="url(#paint0_linear_20286_1158)" />
    <path d="M7.728 7.989H5.938v4.99H4.7978v-4.99H3.0162v-.968H7.728v.968z" fill="#fff" />
  </g>
</svg>
