<svg xmlns="http://www.w3.org/2000/svg" viewBox="0 0 20 20">
  <g fill="#1651B0" fill-rule="evenodd" clip-rule="evenodd">
    <path d="M3 12c1.6569 0 3 1.3431 3 3s-1.3431 3-3 3c-1.6568 0-3-1.3431-3-3s1.3432-3 3-3zm0 1c-1.1046 0-2 .8954-2 2s.8954 2 2 2 2-.8954 2-2-.8954-2-2-2zM17 12c1.6569 0 3 1.3431 3 3s-1.3431 3-3 3-3-1.3431-3-3 1.3431-3 3-3zm0 1c-1.1046 0-2 .8954-2 2s.8954 2 2 2 2-.8954 2-2-.8954-2-2-2z" />
  </g>
  <path d="M7 2.5H6V16h1V5.4L9 7V5.5116h2v1.5l2-1.6V16h1V2.5h-1v2.1116l-2-1.6v1.5H9V3L7 4.6V2.5z" fill="#333333" />
</svg>
