<svg xmlns="http://www.w3.org/2000/svg" viewBox="0 0 12 12">
  <path d="M6 12c3.3137 0 6-2.6863 6-6S9.3137 0 6 0 0 2.6863 0 6s2.6863 6 6 6z" fill="#BD3039" />
  <g fill="#FFFFFF">
    <path d="M5.6681 7.382a.451.451 0 01-.451-.451c0-.605.209-.946.616-1.342.1117-.1066.2387-.211.3679-.317.4305-.3538.8861-.728.8861-1.278 0-.539-.385-.968-.957-.968-.495 0-1.089.231-1.089.847a.399.399 0 01-.396.399l-.594.0046A.4476.4476 0 013.6 3.829c0-1.43 1.298-2.079 2.607-2.079 1.551 0 2.442.825 2.442 2.145 0 .902-.462 1.43-.979 1.826-.0885.0741-.1869.1457-.2866.2183-.3592.2611-.7364.5355-.7364.9917a.451.451 0 01-.451.451h-.528zM6 8c-.5523 0-1 .4477-1 1s.4477 1 1 1 1-.4477 1-1-.4477-1-1-1z" />
  </g>
</svg>
