<svg xmlns="http://www.w3.org/2000/svg" viewBox="0 0 93 158">
  <path fill-rule="evenodd" clip-rule="evenodd" d="M54.688 77.7139l-5.5893-1.6918c-.6743-2.9278-1.9487-5.4777-3.8704-7.7252-.6905-.8067-1.5739-1.5523-2.471-2.0962-2.4723-1.6661-5.2415-2.4488-8.2622-2.3481-.4486 0-.8726.0265-1.3232.0265l-.0488-.329-.0999-.1007.025-.1011-2.8713-44.1069c-.5547-9.9204-12.0952-8.7067-12.0952-.4352 0 2.7943-.593 53.1566-.7567 60.3644-.0454 1.9943.5052 2.8208-1.177 3.5905-1.3265.6083-2.653 1.2157-3.9795 1.8241C6.3135 87.2669.8692 88.8345 0 96.2454l8.6113 40.1676c1.5997 2.357 4.0828 4.27 5.6908 6.389 3.309 4.354 5.6763 9.677 6.6397 15.198h47.6247c-.6593-2.581-1.3181-5.161-1.9791-7.742-.7109-2.787-1.8688-4.87-.2361-7.456 3.4072-5.401 4.6038-11.536 6.054-17.77 1.5131-6.508 5.663-15.533 2.3356-21.884-1.0328-1.971-2.4851-2.776-4.2419-4.1164-3.7558-2.8654-4.0116-9.3849-6.6991-13.2635-2.4269-3.4991-5.3923-5.8889-9.037-7.9535" fill="#fff" />
  <path fill-rule="evenodd" clip-rule="evenodd" d="M35.1372 14.5496c.09-.69.1485-1.4176.1485-2.1814 0-3.3845-1.1216-6.3299-3.3422-8.7685C29.693 1.2 27.0478 0 23.8855 0c-3.1593 0-5.8374 1.2-8.0863 3.5997-2.2196 2.4386-3.3135 5.384-3.3135 8.7685 0 .7638.0298 1.4914.1511 2.1814.3958-2.5462 1.4301-4.7276 3.1624-6.6195 2.2489-2.4386 4.927-3.6372 8.0863-3.6372 3.1623 0 5.8373 1.1986 8.058 3.6372 1.7637 1.8919 2.7963 4.0733 3.1937 6.6195M75.0779 7.3152L67.6742 0l-7.4015 7.3152h3.4288v10.1003h7.9454V7.3152h3.431zM60.2727 40.0465l7.4037 7.3142 7.4015-7.3142h-3.431V29.9451h-7.9432v10.1014h-3.431zm-9.8113-11.9639v3.3622L43 24.1894l7.4614-7.2576v3.3633h10.3048v7.7875H50.4614zm34.1317 0v3.3622l7.4614-7.2554-7.4614-7.2576v3.3633H74.2883v7.7875h10.3048z" fill="#fff" />
</svg>
