<svg xmlns="http://www.w3.org/2000/svg" viewBox="0 0 65 156">
  <path fill-rule="evenodd" clip-rule="evenodd" d="M37.3591 16.2734c-2.7302 16.0825-6.2675 31.5718-8.8913 48.1575-.7972 5.0397-2.5698 5.2021-3.208.2661-.5825-4.5018-5.103-31.8936-7.1575-43.7162-1.4175-8.1576-13.2981-7.2194-12.8233.939.5655 9.6946 3.0564 45.5404 2.7027 50.0847-.2806 3.3148-.596 6.2703-1.2372 9.2483C2.738 82.6288.7759 86.526 0 90.2218l.2527 7.494c.8015 6.5792 1.6798 13.8212 2.0217 20.6062 1.3963 7.553 4.6252 12.644 8.0828 19.179 3.3513 3.967 2.1267 13.186 1.262 18.499H61.102c-.9484-4.979-3.8933-10.317-4.0414-14.988 4.01-5.234 5.7447-11.521 7.8309-18.732.2013-11.78.1255-23.5812-.2526-35.3364-1.1183-4.5188-3.8232-7.62-8.3359-9.1325-1.103-5.011-4.318-9.9345-9.851-11.4748l-.9353-.0699c-1.0877-6.8785 3.2825-38.5738 4.4718-46.9483 1.5421-10.869-11.4924-9.7399-12.6294-3.0447" fill="#fff" />
  <path fill-rule="evenodd" clip-rule="evenodd" d="M56.0345 12.5141c0 .7654-.0605 1.4944-.1533 2.1858-.4102-2.5513-1.4761-4.737-3.2966-6.6326-2.2922-2.4435-5.0534-3.6445-8.3176-3.6445-3.261 0-6.0255 1.201-8.3468 3.6444-1.7881 1.8956-2.8557 4.0814-3.2642 6.6327-.1252-.6914-.156-1.4204-.156-2.1858 0-3.3912 1.1291-6.3424 3.4202-8.7859C38.2415 1.3236 41.006.1213 44.267.1213c3.2642 0 5.9946 1.2023 8.3176 3.607 2.2922 2.4434 3.4499 5.3946 3.4499 8.7858zm-32.5 4.4857c0 .7654-.0605 1.4944-.1533 2.1858-.4102-2.5512-1.4761-4.7371-3.2966-6.6326-2.2922-2.4435-5.0534-3.6445-8.3176-3.6445-3.261 0-6.0255 1.201-8.3468 3.6445C1.6322 14.4485.5645 16.6344.156 19.1856.0308 18.4942 0 17.7652 0 16.9998c0-3.3912 1.129-6.3424 3.4202-8.7859C5.7415 5.8093 8.506 4.607 11.767 4.607c3.2642 0 5.9946 1.2023 8.3176 3.607 2.2922 2.4434 3.4499 5.3946 3.4499 8.7858z" fill="#fff" />
</svg>
