<svg xmlns="http://www.w3.org/2000/svg" viewBox="0 0 96 150">
  <path fill-rule="evenodd" clip-rule="evenodd" d="M73.7225 67.4425l-5.8673-1.7596c-.6971-3.0116-2.0271-5.6371-4.0377-7.9538-.7226-.8317-1.6481-1.6013-2.589-2.1633-2.5913-1.7219-5.4988-2.5369-8.6733-2.4451-.4714-.0018-.9169.0239-1.391.0221l-.05-.338-.1042-.1044.0264-.1035-2.8475-45.3367c-.545-10.1959-12.6778-8.9934-12.7096-.4937-.0109 2.8717-.8272 54.6231-1.027 62.0293-.0555 2.0494.5201 2.9009-1.2508 3.6853-1.3964.6202-2.7928 1.2389-4.1892 1.8591-6.1635 2.733-11.8907 4.323-12.8325 11.9353l8.8949 41.3105c1.6721 2.429 4.2743 4.404 5.9564 6.587 3.4604 4.487 5.9274 10.15 6.9189 15.827h50.0487c-.6825-2.655-1.365-5.309-2.0502-7.963-.7362-2.867-1.9447-5.012-.2193-7.663 3.6018-5.538 4.8826-11.837 6.4306-18.238 1.6152-6.683 6.011-15.941 2.5389-22.4791-1.0779-2.0296-2.6013-2.8622-4.4422-4.2465-3.9358-2.9594-4.1797-9.6599-6.9894-13.6562-2.5366-3.6052-5.6439-6.0723-9.4664-8.2077" fill="#fff" />
  <path fill-rule="evenodd" clip-rule="evenodd" d="M22.2826 19.506l.0001-.0001h.0002a38.706 38.706 0 00.1423-.0345l2.4207 7.1198c-.0746.0365-.3364.1125-.7437.2307-2.6054.7562-11.1652 3.2404-14.7787 8.1911l1.9837 1.2162-10.1825 5.7636L.683 29.7154l2.0476 1.2554c4.7207-7.8905 17.572-10.9876 19.5521-11.4648zm60.6159 10.2094l-.4418 12.2774-10.1824-5.7636 1.9837-1.2162c-3.6135-4.9507-12.1733-7.4349-14.7787-8.1911-.4074-.1182-.6692-.1942-.7437-.2307l2.4206-7.1198.1427.0346c1.9801.4772 14.8314 3.5743 19.5521 11.4648l2.0475-1.2554z" fill="#fff" />
</svg>
