<svg xmlns="http://www.w3.org/2000/svg" viewBox="0 0 114 149">
  <path fill-rule="evenodd" clip-rule="evenodd" d="M85.5008 5.231c-2.8149 16.5478-6.462 32.4852-9.1673 49.5507-.822 5.1856-2.6496 5.3526-3.3076.2739-.6006-4.6321-5.2615-32.8164-7.3797-44.981-1.4616-8.3935-13.7111-7.4282-13.2215.9662.583 9.9751 3.1513 46.8579 2.7866 51.5336-.2892 3.4108-.6144 6.4517-1.2756 9.516-4.1309 1.4157-6.1539 5.4257-6.9539 9.2283l.2605 7.7109c.8265 6.7696 1.732 14.2214 2.0846 21.2024 1.4395 7.771 4.7687 13.01 8.3337 19.734 3.4554 4.081 2.1928 13.567 1.3012 19.034h51.0192c-.978-5.123-4.014-10.615-4.167-15.421 4.135-5.386 5.923-11.854 8.074-19.274.208-12.122.13-24.264-.26-36.3592-1.153-4.6495-3.942-7.8405-8.595-9.3967-1.137-5.1561-4.452-10.222-10.1569-11.8068l-.9643-.0719c-1.1216-7.0776 3.3844-39.6899 4.6106-48.3066C100.112-2.8197 86.6731-1.6578 85.5008 5.2311M32.0779 7.3152L24.6742 0l-7.4015 7.3152h3.4288v10.1003h7.9454V7.3152h3.431zM17.2727 40.0465l7.4037 7.3142 7.4015-7.3142h-3.431V29.9451h-7.9432v10.1014h-3.431zM7.4614 28.0826v3.3622L0 24.1894l7.4614-7.2576v3.3633h10.3048v7.7875H7.4614zm34.1317 0v3.3622l7.4614-7.2554-7.4614-7.2576v3.3633H31.2883v7.7875h10.3048z" fill="#fff" />
</svg>
