<svg xmlns="http://www.w3.org/2000/svg" viewBox="0 0 101 167">
  <path fill-rule="evenodd" clip-rule="evenodd" d="M78.9712 87.0518l-5.7774-1.6843c-.6966-2.916-2.0143-5.4553-4.0003-7.6929-.7137-.8034-1.6268-1.5459-2.5541-2.0875-2.5555-1.6591-5.418-2.4386-8.54-2.3383-.4641 0-.9019.0264-1.3681.0264l-.0504-.3276-.1029-.1003.0258-.1007-2.9675-43.9214c-.5738-9.8785-12.5027-8.6699-12.5027-.4333 0 2.7825-.6126 52.9332-.7818 60.1106-.0469 1.9859.5222 2.809-1.2166 3.5754-1.3712.6058-2.7423 1.2107-4.1135 1.8165-6.0521 2.6701-11.6788 4.2311-12.5772 11.6106l8.9002 40c1.6536 2.347 4.2203 4.251 5.8829 6.36 3.4199 4.336 5.8665 9.638 6.8627 15.135h49.2262c-.681-2.569-1.3625-5.139-2.0457-7.709-.7349-2.775-1.9313-4.849-.2441-7.424 3.5219-5.379 4.7588-11.488 6.2578-17.696 1.564-6.481 5.8535-15.468 2.4143-21.792-1.0677-1.962-2.5689-2.764-4.3852-4.099-3.8814-2.853-4.1457-9.3457-6.9242-13.2077-2.5081-3.4848-5.5734-5.8647-9.3407-7.9202" fill="#fff" />
  <path fill-rule="evenodd" clip-rule="evenodd" d="M23.2538 24.7778v15.0516c9.5911-.4022 17.3157-7.9097 17.73-17.2307H25.496a2.9909 2.9909 0 00.1047-.7864 2.991 2.991 0 00-.1047-.7865h15.4878c-.4138-9.321-8.1389-16.8285-17.73-17.2307v15.0516a3.2478 3.2478 0 00-.8094-.1018c-.2797 0-.551.0354-.8092.1018V3.7951C12.044 4.1973 4.319 11.7048 3.9051 21.0258h15.4878a2.991 2.991 0 00-.1047.7865c0 .2718.0364.5354.1047.7864H3.9051c.4139 9.321 8.1389 16.8285 17.7301 17.2307V24.7778c.2582.0664.5295.1018.8092.1018.2798 0 .5511-.0354.8094-.1018zM0 21.812C0 9.7654 10.0485 0 22.4442 0 34.84 0 44.8889 9.7654 44.8889 21.812c0 12.0466-10.0489 21.8125-22.4447 21.8125C10.0485 43.6245 0 33.8586 0 21.812z" fill="#fff" />
</svg>
