<svg xmlns="http://www.w3.org/2000/svg" viewBox="0 0 105 149">
  <path fill-rule="evenodd" clip-rule="evenodd" d="M79.4698 65.7188l-.1111-.1069-3.7456-.7926-1.6939-4.2336c-.2423-.632-.6272-1.2003-1.094-1.751-2.7385-3.2887-6.2647-5.3573-10.6019-6.2111l-3.9715.0827-.0526-.3303-.1097-.1069L54.118 6.4233C53.482.5052 50.6.0007 47.3911.0007c0 0-6.4924-.2046-6.4924 6.5449l.6464 63.4991c-.0054.6628-.0306 1.2962-.1668 1.9269-.4993 2.8837-1.9343 5.2246-4.3007 7.1032-.6172.5814-1.5887.9711-2.1492.9456-3.7987-.0602-6.8942-1.4409-9.341-4.1543-3.1404-3.2303-4.6834-9.1726-6.5166-13.1269-1.0346-2.2273-1.7442-4.9416-3.1221-7.0402-2.5062-3.8152-8.8478-7.4013-13.3235-4.9843-1.4625.7895-3.2766 3.2513-2.392 4.9008 1.2874 2.4037 2.9712 5.144 3.7013 7.5332.6291 2.0616 1.0264 4.2648 1.3643 6.556.2285 1.5548-.032 5.0538.8773 6.1702.9834 1.2056 1.4447 3.714 2.0806 5.0309 1.5279 3.1678 3.5262 6.9927 4.2266 10.4499 2.669 5.9349 3.1143 12.8703 6.4787 18.8723 3.8992 6.956 8.081 13.462 14.9044 18.342 2.4994 1.981 4.2549 4.37 5.2845 7.223l.2496 13.111c10.0506-.086 50.2594.176 54.5833.07l-.5861-11.306-.0973-.158c1.3633-2.596 2.6621-5.262 3.9349-7.934.993-2.127 1.7519-4.312 2.252-6.558 1.3997-5.936 2.7547-11.911 4.1367-17.879.22-1.064.525-2.134.895-3.136 1.122-3.3713.799-13.1487-6.7392-14.8267-.1408-.0308-.2012-.1817-.2346-.2687-1.2439-4.1531-3.0932-8.106-5.5473-11.7506-2.894-4.2225-7.4319-7.791-12.5281-9.4382z" fill="#fff" />
  <path fill-rule="evenodd" clip-rule="evenodd" d="M22.8157 12.6857l11.547-1.172.8722 11.7933-2.8773-2.4614L24.9858 29.8l-6.6636-5.6994 7.3713-8.9535-2.8778-2.4614zm-6.9285 13.0507l6.6631 5.6994-7.3698 8.9535 2.8775 2.46-11.5483 1.1735-.8721-11.7943 2.8789 2.46 7.3707-8.9521z" fill="#fff" />
</svg>
