<svg xmlns="http://www.w3.org/2000/svg" viewBox="0 0 77 160">
  <path fill-rule="evenodd" clip-rule="evenodd" d="M54.8944 80.8174l-5.6103-1.6685c-.6769-2.8876-1.9561-5.4025-3.885-7.619-.6932-.7957-1.5799-1.5311-2.4804-2.0674-2.4816-1.6432-5.2612-2.4152-8.2934-2.3159-.4503 0-.8759.0262-1.3282.0262l-.0489-.3245-.1003-.0993.025-.0997-2.882-43.5008c-.5569-9.784-12.1409-8.587-12.1409-.4292 0 2.7559-.5953 52.426-.7596 59.5348-.0456 1.9669.5071 2.7821-1.1814 3.5411-1.3316.6-2.6631 1.1991-3.9946 1.7991C6.3374 90.2392.8724 91.7852 0 99.0942L8.6438 138.71c1.6057 2.325 4.0982 4.212 5.7123 6.301 3.3215 4.294 5.6978 9.544 6.6647 14.989h47.8046c-.6618-2.545-1.3232-5.09-1.9866-7.636-.7136-2.748-1.8758-4.802-.2371-7.353 3.4202-5.326 4.6213-11.377 6.0769-17.526 1.5188-6.419 5.6844-15.32 2.3445-21.583-1.0368-1.944-2.4945-2.737-4.2579-4.06-3.7701-2.8259-4.0268-9.2558-6.7245-13.0811-2.436-3.4509-5.4126-5.8079-9.071-7.8442" fill="#fff" />
  <path fill-rule="evenodd" clip-rule="evenodd" d="M32.9614 18.2278c.0719-.4482.1187-.9208.1187-1.417 0-2.1986-.8966-4.1119-2.672-5.696-1.7991-1.559-3.9139-2.3384-6.4421-2.3384-2.5257 0-4.6668.7794-6.4647 2.3384-1.7745 1.5841-2.649 3.4974-2.649 5.696 0 .4962.0238.9688.1208 1.417.3164-1.654 1.1433-3.0711 2.5282-4.3 1.7979-1.5841 3.939-2.3628 6.4647-2.3628 2.5282 0 4.6668.7787 6.4421 2.3628 1.41 1.2289 2.2356 2.646 2.5533 4.3" fill="#fff" />
  <path fill-rule="evenodd" clip-rule="evenodd" d="M37.6256 13.5021c.1092-.6403.1803-1.3155.1803-2.0244 0-3.1408-1.3616-5.8741-4.0575-8.1372C31.0164 1.1136 27.805 0 23.9659 0c-3.8353 0-7.0866 1.1135-9.8167 3.3405-2.6947 2.263-4.0226 4.9964-4.0226 8.1372 0 .7089.0362 1.3841.1834 2.0244.4806-2.3629 1.7361-4.3873 3.8392-6.143 2.7301-2.263 5.9814-3.3753 9.8167-3.3753 3.8391 0 7.0866 1.1124 9.7825 3.3754 2.1411 1.7556 3.3948 3.78 3.8772 6.1429" fill="#fff" />
</svg>
