<svg xmlns="http://www.w3.org/2000/svg" viewBox="0 0 20 20">
  <path d="M4.5 6.6772l.268-.0957 7.0358-2.535.1267-.0464.1296.0395 3.3309 1.0193.2868.0869v5.5328l4.0531 1.4506.2691.0967v4.0951l-.2691.0957-7.098 2.537-.1316.0464-.1336-.0444L4.5 16.3269V6.6773z" fill="#333" />
  <path d="M19.1887 15.7514l-6.4392 2.3012v-2.839l6.4392-2.2922v2.83zm-4.3211-4.9181l-6.4887 2.3042V8.1513l6.4887-2.3032v4.9852z" fill="#999" />
  <path d="M18.617 12.589l-6.1216 2.1798-3.6119-1.273 6.1563-2.1867 3.5772 1.2799zm-4.4023-7.0456l-6.0949 2.164-2.1794-.6907 6.0099-2.164 2.2644.6907z" fill="#D7D7D7" />
  <path d="M7.8725 8.1582v5.517l.1692.0593 4.2014 1.4801v2.8479l-6.9318-2.317V7.347l2.5612.8112z" fill="#EEE" />
  <path d="M12.62 1.4063L14.245 1l-.1865.9287 4.0263 1.2676.1602-.796 1 1.2915v-.4004h.75V10.5h-.75V4.2856l-1.5.6148.1826-.914-4.0264-1.2686-.1562.7822L12.62 2v1.5h-.75V1h.75v.4063zM4 12.25h1.5L7 11.5v2l-1.5-.75H4v1.75H0v-4h4v1.75z" fill="#1651B0" />
  <path d="M.5 14h3v-3h-3v3z" fill="#fff" />
  <path d="M2.026 12.007h-.009c-.063.195-.189.582-.249.774h.504c-.063-.192-.186-.579-.246-.774zm.306-.549c.186.537.561 1.608.75 2.142h-.549c-.033-.099-.099-.297-.129-.399h-.765c-.033.102-.099.3-.132.399H1c.189-.534.567-1.605.759-2.142h.573z" fill="#1651B0" />
</svg>
