<svg xmlns="http://www.w3.org/2000/svg" viewBox="0 0 20 20">
  <circle cx="10" cy="10" r="10" fill="#333333" />
  <path fill-rule="evenodd" clip-rule="evenodd" d="M5.95 5.5V3.25h-.9V5.5h-.9a.9.9 0 00-.9.9v.9a.9.9 0 00.9.9h.9v8.55h.9V8.2h.9a.9.9 0 00.9-.9v-.9a.9.9 0 00-.9-.9h-.9zm4.5-2.25v8.55h.9a.9.9 0 01.9.9v.9a.9.9 0 01-.9.9h-.9v2.25h-.9V14.5h-.9a.9.9 0 01-.9-.9v-.9a.9.9 0 01.9-.9h.9V3.25h.9zm4.5 0V7.3h.9a.9.9 0 01.9.9v.9a.9.9 0 01-.9.9h-.9v6.75h-.9V10h-.9a.9.9 0 01-.9-.9v-.9a.9.9 0 01.9-.9h.9V3.25h.9zm-8.1 4.0499v-.9h-2.7v.9h2.7zm4.5 6.3v-.9h-2.7v.9h2.7zm4.5-5.4v.9h-2.7v-.9h2.7z" fill="#FFFFFF" />
</svg>
