<svg xmlns="http://www.w3.org/2000/svg" viewBox="0 0 20 20">
  <path fill-rule="evenodd" clip-rule="evenodd" d="M9.3374 11.8374a10.435 10.435 0 00-1.7318 4.0994L7.5 16.5l4 3.5.2804-1.589C12.4973 14.3485 15.8852 11.2939 20 11l-3.5-3.5a10.4354 10.4354 0 00-4.6656 1.8344l.5026.5026L14 11.5 11.5 14l-1.6598-1.6597-.5028-.5029z" fill="#333333" />
  <path fill-rule="evenodd" clip-rule="evenodd" d="M9.8402 12.3403a9.7365 9.7365 0 00-1.5466 3.7255l-.032.1705 2.7648 2.4192.0646-.3661c.6879-3.8981 3.6574-6.9352 7.4301-7.7783l-2.2662-2.2662A9.7333 9.7333 0 0012.337 9.837L14 11.5 11.5 14l-1.6598-1.6597z" fill="#FFFFFF" />
  <path d="M7 7l5 .5L10.5 9l2.5 2.5-1.5 1.5L9 10.5 7.5 12 7 7z" fill="#333333" />
  <path fill-rule="evenodd" clip-rule="evenodd" d="M13 .5C5.8203.5 0 6.3203 0 13.5l5 5 .1841-1.1049a14.2793 14.2793 0 011.7173-4.7952L6.2 6.2l6.7243.737A14.2769 14.2769 0 0118 5.5l-4.5-5H13z" fill="#999999" />
</svg>
