<svg xmlns="http://www.w3.org/2000/svg" viewBox="0 0 20 20">
  <g fill-rule="evenodd" clip-rule="evenodd">
    <path d="M5.5 2.5V5h1c.5523 0 1 .4477 1 1v1c0 .5523-.4477 1-1 1h-1v9.5h-1V8h-1c-.5523 0-1-.4477-1-1V6c0-.5523.4477-1 1-1h1V2.5h1zm5 9.5V2.5h-1V12h-1c-.5523 0-1 .4477-1 1v1c0 .5523.4477 1 1 1h1v2.5h1V15h1c.5523 0 1-.4477 1-1v-1c0-.5523-.4477-1-1-1h-1zm5-5V2.5h-1V7h-1c-.5523 0-1 .4477-1 1v1c0 .5523.4477 1 1 1h1v7.5h1V10h1c.5523 0 1-.4477 1-1V8c0-.5523-.4477-1-1-1h-1z" fill="#333333" />
    <path d="M6.5 6v1h-3V6h3zm5 7v1h-3v-1h3zm5-4V8h-3v1h3z" fill="#FFFFFF" />
  </g>
</svg>
