<svg xmlns="http://www.w3.org/2000/svg" viewBox="0 0 20 20">
  <path fill-rule="evenodd" clip-rule="evenodd" d="M1 3c0-1.1046.8954-2 2-2h14c1.1046 0 2 .8954 2 2v14c0 1.1046-.8954 2-2 2H3c-1.1046 0-2-.8954-2-2V3zm1 0c0-.5523.4477-1 1-1h14c.5523 0 1 .4477 1 1v8h-2.2929L14.5 9.7929l-1 1-1.1826-1.1826-1.6363 4.0907L8.6083 2.3008 6.421 9.9563 5.5 7.6537 4.1615 11H2V3zm0 9v5c0 .5523.4477 1 1 1h14c.5523 0 1-.4477 1-1v-5h-2.7071l-.7929-.7929-1 1-.8174-.8174-2.3637 5.9093L8.3917 6.6992 6.579 13.0437 5.5 10.3463 4.8385 12H2z" fill="#333333" />
</svg>
