<svg xmlns="http://www.w3.org/2000/svg" viewBox="0 0 656 200">
  <path fill-rule="evenodd" clip-rule="evenodd" d="M229 83c0-45.8396 37.16-83 83-83h39c45.84 0 83 37.1604 83 83v112c0 1.679-.05 3.346-.148 5h-4.008c.104-1.653.156-3.321.156-5v-65H233v65c0 1.679.052 3.347.156 5h-4.008a84.5253 84.5253 0 01-.148-5V83zm201 46h-98v-20.008c8.329-.264 15-7.099 15-15.492v-40c0-8.3931-6.671-15.2281-15-15.4921V4h19c43.63 0 79 35.3695 79 79v46zm-99-90.9921V4h-19c-43.63 0-79 35.3695-79 79v46h98v-20.008c-8.329-.264-15-7.099-15-15.492v-40c0-8.3931 6.671-15.2281 15-15.4921z" fill="#D7D7D7" />
  <g fill="#1651B0">
    <path d="M656 .5H486.693L337.615 45.2909C336.711 42.7885 334.314 41 331.5 41c-3.59 0-6.5 2.9101-6.5 6.5s2.91 6.5 6.5 6.5 6.5-2.9101 6.5-6.5c0-.4257-.041-.8419-.119-1.2448L486.84 1.5H656v-1zM338 73.5a6.498 6.498 0 01-.31 1.988L485.84 120H656v1H485.693L337.31 76.4178C336.241 78.5424 334.041 80 331.5 80c-3.59 0-6.5-2.9101-6.5-6.5s2.91-6.5 6.5-6.5 6.5 2.9101 6.5 6.5zM338 99.5c0 3.59-2.91 6.5-6.5 6.5s-6.5-2.91-6.5-6.5c0-.4543.047-.8976.135-1.3256L176.445 53.5H.5v-1h176.092l148.821 44.7138C326.339 94.7519 328.715 93 331.5 93c3.59 0 6.5 2.9101 6.5 6.5z" />
  </g>
</svg>
