<svg xmlns="http://www.w3.org/2000/svg" viewBox="0 0 20 20">
  <path fill-rule="evenodd" clip-rule="evenodd" d="M8 7.5823v.8688L7.8 11.2h4.3977L12 7.4199V6.62c.8249-.0762 1.807-.1201 3-.1201 1.3395.5358 1.8177 1.5022 2.2807 2.4378.4012.8106.7909 1.598 1.7193 2.0622v8H4.5L1 15.5V9c3.8822 0 5.174-.5887 6.5038-1.1948.1632-.0744.327-.149.4962-.2229z" fill="#333333" />
  <path fill-rule="evenodd" clip-rule="evenodd" d="M2 15l3 3v-4c-.6-.3-1.2-1.14-1.8-1.98-.4-.56-.8-1.12-1.2-1.52V15zm3.5 3H18v-6.5c-4.4197 0-6.1687.763-7.7343 1.446C8.9974 13.4993 7.8496 14 5.5 14v4z" fill="#FFFFFF" />
  <path fill-rule="evenodd" clip-rule="evenodd" d="M8 8.4504V11h3.9999V7.414c.822-.0973 1.7765-.1547 2.9111-.1547.7951.265 1.1937 1.019 1.6162 1.8182.3745.7086.7678 1.4525 1.4727 1.9225-5.0512 0-6.6374.7875-8.0294 1.4785C8.8825 13.0187 7.9131 13.5 5.5 13.5c-.9299-.6199-1.56-1.5216-2.143-2.3556-.3573-.5113-.697-.9972-1.077-1.3773 2.5372 0 3.8255-.5337 5.2134-1.1086.1667-.069.3348-.1387.5066-.2081z" fill="#999999" />
  <path d="M9 6H7l3-4 3 4h-2v4H9V6z" fill="#333333" />
</svg>
