<svg xmlns="http://www.w3.org/2000/svg" viewBox="0 0 20 20">
  <path fill-rule="evenodd" clip-rule="evenodd" d="M2 9l2.1348-7h.7304L7 9h-.931l-.4494-1.5796H3.4005L2.935 9H2zm3.3547-2.5158c-.123-.432-.22-.7706-.2909-1.0154a55.7432 55.7432 0 01-.1846-.6506c-.0522-.1888-.105-.3808-.1585-.576a104.586 104.586 0 01-.2127-.7923c-.0936.3457-.1685.6218-.2247.8282l-.1625.5978c-.0522.192-.1124.4065-.1806.6433-.0682.2369-.1612.5585-.2789.965h1.6934zM2 11v7h3.0147c.536 0 1.0008-.1794 1.3946-.5381.3938-.3587.5907-.8408.5907-1.4461 0-.3555-.0964-.691-.2892-1.0065-.1928-.3155-.4853-.5181-.8775-.6078v-.0192c.415-.1826.6945-.4068.8383-.6726.1438-.2659.2157-.5429.2157-.8312 0-.5509-.179-1.0017-.5368-1.3524C5.9926 11.1754 5.4657 11 4.7696 11H2zm2.75 3.8916H3.0833v2.1091H4.75c.402 0 .6969-.1065.8848-.3195.188-.213.2819-.4572.2819-.7327 0-.2754-.094-.5205-.2819-.735-.188-.2146-.4828-.3219-.8848-.3219zm-1.6667-2.9499H4.652c.3888 0 .678.1001.8676.3002.1896.2002.2843.4348.2843.7039 0 .2786-.0947.5156-.2843.711-.1895.1954-.4787.2931-.8676.2931H3.0833v-2.0082zM8 4h10v2H8V4zm10 10H8v2h10v-2z" fill="#333333" />
</svg>
