<svg xmlns="http://www.w3.org/2000/svg" viewBox="0 0 20 20">
  <path d="M1 3.5C1 2.1193 2.1193 1 3.5 1h13C17.8807 1 19 2.1193 19 3.5v13c0 1.3807-1.1193 2.5-2.5 2.5h-13C2.1193 19 1 17.8807 1 16.5v-13z" fill="#333333" />
  <path fill-rule="evenodd" clip-rule="evenodd" d="M3.5 2C2.6716 2 2 2.6716 2 3.5V8h16V3.5c0-.8284-.6716-1.5-1.5-1.5h-13zM18 16.5V15H2v1.5c0 .8284.6716 1.5 1.5 1.5h13c.8284 0 1.5-.6716 1.5-1.5zM3 9h1l1 2 1-2h1v5H6v-3l-.5 1.5h-1L4 11v3H3V9zM10 10H8.5V9h4v1H11v4h-1v-4zM15 9h-1v5h3v-1h-2V9z" fill="#FFFFFF" />
</svg>
