<svg xmlns="http://www.w3.org/2000/svg" viewBox="0 0 20 20">
  <g fill-rule="evenodd" clip-rule="evenodd">
    <path d="M19 6.5646c-2.1413.0475-3.6103-.1758-5.4495-1.6494C11.1697 3.0059 9 1.7572 5.755 2.0398c-.601.8998-1.0887 1.8535-1.5764 2.8073C3.538 6.0998 2.8974 7.3527 2 8.4837c2.6406 0 5.5221 1.8994 6.501 2.9476l1.737-1.0813c.6644-.4138 1.4535-.4237 2.1077-.2127.6571.212 1.2845.6786 1.6259 1.3707l.3484.7065-2.4545 1.5279c.7876.1951 1.6383.2576 2.5504.2576 1.0856-1.3926 1.9527-2.9268 2.821-4.463.5669-1.003 1.1342-2.0068 1.7631-2.9724z" fill="#999999" />
    <path d="M13.1919 16.5502c-.4448.9018-1.6922 1.3043-2.4942.8047L7.5577 15.4l-1.5831.9852-.0813.3191c-.1514.5941-.5431 1.157-1.1144 1.5139-1.021.6392-2.2312.3793-2.702-.5795-.2075-.4222-.237-.91-.1176-1.3785.1514-.5941.5423-1.1565 1.1138-1.5141.6708-.4189 1.4224-.4512 1.9926-.1526l.5981-.3721-.598-.3721c-.5703.2986-1.322.2663-1.9927-.1526-.5715-.3576-.9624-.92-1.1138-1.5141-.1194-.4685-.0899-.9563.1176-1.3784.4708-.9588 1.681-1.2187 2.702-.5796.5713.3569.963.9198 1.1144 1.5139l.0813.3191 1.5831.9852 3.14-1.9548c.802-.4996 2.0494-.0972 2.4942.8047l-3.741 2.3287 3.741 2.3288zm-9.6977-3.7029c.1828.1141.3747.1865.57.2146.1752.0254.3481.0129.4996-.0359.1459-.0471.3427-.1509.4548-.3783.1123-.229.0853-.4754.043-.6409-.0439-.1726-.1264-.3456-.2388-.5006a1.6523 1.6523 0 00-.4646-.4331c-.1829-.114-.3747-.1865-.5707-.2144-.1751-.0254-.3474-.0131-.4989.0358-.1459.047-.3433.151-.4548.3782-.1129.2292-.0859.4756-.0437.6411.044.1726.1265.3456.2389.5006.1257.1728.2821.3181.4652.4329zm0 2.7482c.1828-.114.3747-.1865.57-.2145.1752-.0255.3481-.013.4996.0359.1459.047.3427.1508.4548.3782.1123.2291.0853.4754.043.6409-.0439.1726-.1264.3456-.2388.5006a1.6523 1.6523 0 01-.4646.4331c-.1829.1141-.3747.1865-.5707.2144-.1751.0255-.3474.0131-.4989-.0357-.1459-.0471-.3433-.151-.4548-.3783-.1129-.2292-.0859-.4756-.0437-.6411.044-.1725.1265-.3455.2389-.5006a1.6669 1.6669 0 01.4652-.4329zm4.481-.5047a.8694.8694 0 00.8695-.8694.8694.8694 0 00-.8695-.8694.8694.8694 0 100 1.7388z" fill="#333333" />
  </g>
</svg>
