<svg xmlns="http://www.w3.org/2000/svg" viewBox="0 0 20 20">
  <path d="M1 11h14.0052C17.2115 11 19 12.7954 19 15c0 2.2091-1.7917 4-3.9948 4H1v-8z" fill="#333333" />
  <path fill-rule="evenodd" clip-rule="evenodd" d="M2 18v-6h13.0052C16.6572 12 18 13.3456 18 15c0 1.6559-1.3431 3-2.9948 3H2zm13-1c-1.1046 0-2-.8954-2-2s.8954-2 2-2 2 .8954 2 2-.8954 2-2 2zm0-1c.5523 0 1-.4477 1-1s-.4477-1-1-1-1 .4477-1 1 .4477 1 1 1z" fill="#FFFFFF" />
  <path fill-rule="evenodd" clip-rule="evenodd" d="M13 1h-2v2.0242h1V2h1V1zm1 0v1h2V1h-2zm3 0v1h1v1h1V1h-2zm2 3h-1v2h1V4zm0 3h-1v2h1V7zm0 3h-1v2h1v-2zm0 3h-1v2c0 1.6569-1.3431 3-3 3s-3-1.3431-3-3v-2h-1v2c0 2.2091 1.7909 4 4 4 2.2091 0 4-1.7909 4-4v-2zm-8-1h1v-2h-1v2zm0-3h1V7h-1v2zm0-3h1V4h-1v2z" fill="#1651B0" />
</svg>
