<svg xmlns="http://www.w3.org/2000/svg" viewBox="0 0 20 20">
  <path fill-rule="evenodd" clip-rule="evenodd" d="M2 1h14v6h-1V2H3v14h1v1H2V1zm3 3h1v1H5V4zm1 4H5v1h1V8zM5 6h1v1H5V6zm8-2H7v1h6V4zM7 6h6v1H7V6zm2.5 2H7v1h2l.5-1zm8.5 3h-2.618l-1-2h-2.764l-1 2H6v7h12v-7zm-8-1H6c-.5523 0-1 .4477-1 1v7c0 .5523.4477 1 1 1h12c.5523 0 1-.4477 1-1v-7c0-.5523-.4477-1-1-1h-2l-1-2h-4l-1 2zm3 6c1.1046 0 2-.8954 2-2s-.8954-2-2-2-2 .8954-2 2 .8954 2 2 2zm-3-2c0 1.6569 1.3431 3 3 3s3-1.3431 3-3-1.3431-3-3-3-3 1.3431-3 3z" fill="#333333" />
</svg>
