<svg xmlns="http://www.w3.org/2000/svg" viewBox="0 0 160 160">
  <path fill-rule="evenodd" clip-rule="evenodd" d="M88.8889 0h17.7781v8.8889h-8.8892v9.1043h-8.8889V0zm26.6671 8.8889V0h17.777v8.8889h-17.777zm26.666 0V0H160v17.7778h-8.889v-8.889h-8.889zm8.889 17.7778H160v17.7777h-8.889V26.6667zm0 26.6666H160v17.7778h-8.889V53.3333zm0 26.6667H160v17.7778h-8.889V80zm4.128 26.667H160v17.777C160 144.081 144.074 160 124.491 160H0V88.8889h88.8889V80h8.8889v8.8889h26.7132c13.136 0 24.606 7.1602 30.748 17.7781zm-4.128 17.777c0-14.705-11.936-26.6662-26.62-26.6662H8.8889v53.3332h92.0371c-7.3815-6.515-12.0371-16.047-12.0371-26.667v-17.777h8.8889v17.777c0 14.728 11.9392 26.667 26.6662 26.667 9.382 0 17.632-4.844 22.385-12.168 2.708-4.174 4.282-9.154 4.282-14.499zM97.7778 71.1111h-8.8889V53.3333h8.8889v17.7778zm0-26.6667h-8.8889V26.6667h8.8889v17.7777zm26.6662 97.7776c-9.818 0-17.777-7.959-17.777-17.778 0-9.818 7.959-17.777 17.777-17.777 9.819 0 17.778 7.959 17.778 17.777 0 9.819-7.959 17.778-17.778 17.778zm0-8.889c4.91 0 8.889-3.979 8.889-8.889 0-4.909-3.979-8.888-8.889-8.888-4.909 0-8.888 3.979-8.888 8.888 0 4.91 3.979 8.889 8.888 8.889z" fill="#EEEEEE" />
</svg>
