<svg xmlns="http://www.w3.org/2000/svg" viewBox="0 0 20 20">
  <g fill="#333333" fill-rule="evenodd" clip-rule="evenodd">
    <path d="M13.75 6.5H10.5v-2h3.25V1h2v3.5H19v2h-3.25V10h-2V6.5zM2.5 2.5v5H8v-5H2.5zM2 1c-.5523 0-1 .4477-1 1v6c0 .5523.4477 1 1 1h6.5c.5523 0 1-.4477 1-1V2c0-.5523-.4477-1-1-1H2zM2.5 12.5v5H8v-5H2.5zM2 11c-.5523 0-1 .4477-1 1v6c0 .5523.4477 1 1 1h6.5c.5523 0 1-.4477 1-1v-6c0-.5523-.4477-1-1-1H2zM12 12.5v5h5.5v-5H12zm-.5-1.5c-.5523 0-1 .4477-1 1v6c0 .5523.4477 1 1 1H18c.5523 0 1-.4477 1-1v-6c0-.5523-.4477-1-1-1h-6.5z" />
  </g>
</svg>
