<svg xmlns="http://www.w3.org/2000/svg" viewBox="0 0 20 20">
  <path fill-rule="evenodd" clip-rule="evenodd" d="M19 10c0 1.633-.4022 3.139-1.2066 4.518-.8044 1.379-1.896 2.471-3.275 3.275-1.379.805-2.8849 1.207-4.5179 1.207s-3.139-.402-4.5179-1.207c-1.379-.804-2.4706-1.896-3.275-3.275C1.4022 13.139 1 11.633 1 10s.4022-3.139 1.2076-4.518c.8044-1.379 1.896-2.471 3.275-3.275C6.8616 1.402 8.3676 1 10.0005 1c1.633 0 3.1389.402 4.5179 1.207 1.379.804 2.4706 1.896 3.275 3.275C18.5978 6.861 19 8.367 19 10zm-7.3982 6.126v-2.25c0-.11-.0352-.2-.1058-.27-.0706-.071-.1603-.106-.2701-.106h-2.25c-.1098 0-.1995.035-.27.106-.0706.07-.1059.16-.1059.27v2.25c0 .109.0353.199.1058.27.0706.07.1603.105.2702.105h2.2499c.1098 0 .1995-.035.2701-.105.0706-.071.1058-.161.1058-.27zM12.274 4.48c.6355.3199 1.1643.7728 1.5886 1.3588.4253.587.6374 1.2228.6374 1.9117 0 .344-.0483.66-.1431.949-.0947.2889-.2022.5249-.3206.7088-.1194.183-.2901.371-.5112.562-.222.191-.3976.3279-.5278.4099-.1293.082-.3168.194-.5615.334a1.9641 1.9641 0 00-.6255.5799c-.1638.239-.2467.432-.2467.5809 0 .109-.0345.199-.1026.269-.0691.071-.1579.106-.2644.106H8.9933c-.1066 0-.1944-.035-.2635-.106-.069-.07-.1036-.16-.1036-.269v-.4219c0-.5239.2013-1.0139.6029-1.4708.4016-.457.8436-.795 1.3251-1.0139.3671-.172.6266-.348.7795-.528.1529-.179.2299-.4169.2299-.7139 0-.258-.144-.4889-.4302-.6919-.2881-.203-.6147-.304-.9817-.304-.3977 0-.7263.093-.9867.281-.2526.188-.5812.547-.9867 1.0779-.0681.094-.1638.141-.2862.141-.0917 0-.1647-.024-.218-.071L6.1595 6.9876c-.1756-.14-.2062-.304-.0918-.4919C7.0475 4.8319 8.4664 4 10.3243 4c.6651 0 1.3153.16 1.9497.48z" fill="#333333" />
</svg>
