<svg xmlns="http://www.w3.org/2000/svg" viewBox="0 0 20 20">
  <g fill="#333333">
    <path fill-rule="evenodd" clip-rule="evenodd" d="M3.994 1C2.8946 1 2 1.8932 2 2.995V17.005C2 18.1074 2.8928 19 3.994 19H16.006C17.1055 19 18 18.1068 18 17.0049V2.9951C18 1.8926 17.1072 1 16.0059 1H3.9941zM3.5 16.5671V3.4329c0-.5147.4143-.9329.923-.9329H15.577c.51 0 .9231.4172.9231.9329v13.1342c0 .5146-.4143.9329-.9231.9329H4.4231c-.51 0-.9231-.4172-.9231-.9329z" />
    <path d="M10 5h5v2h-5V5zM10 9h5v2h-5V9zM10 13h5v2h-5v-2z" />
    <path fill-rule="evenodd" clip-rule="evenodd" d="M6.7221 7.333L4.7047 5.8565l.5906-.807 1.2105.886 2.1767-2.9743.807.5906L6.722 7.333zM6.7221 11.333L4.7047 9.8565l.5906-.807 1.2105.886 2.1767-2.9743.807.5906L6.722 11.333zM6.7221 15.333l-2.0174-1.4765.5906-.8069 1.2105.8858 2.1767-2.9742.807.5906L6.722 15.333z" />
  </g>
</svg>
