<svg xmlns="http://www.w3.org/2000/svg" viewBox="0 0 20 20">
  <g fill="#333333">
    <path d="M8.4665 10.1889c.424-.4872.3722-1.2283-.1145-1.6523-.4867-.4235-1.2283-.3721-1.6518.1145-.424.4872-.3727 1.2283.1145 1.6523.4867.4235 1.2283.3722 1.6518-.1145zM12.3804 5.4071c-.013-.4462-.3867-.7994-.8329-.787-.4462.013-.7994.3868-.787.833.013.4466.3867.7999.8329.787.4467-.0125.8-.3868.787-.833z" />
    <path fill-rule="evenodd" clip-rule="evenodd" d="M17.9817 9.9515c-.5629-.986-.922-2.0855-1.1843-3.1902C16.0132 3.4576 13.0436 1 9.5 1 5.3579 1 2 4.3579 2 8.5c0 1.9149.7177 3.6623 1.8987 4.9877C4.5264 14.1921 5 15.0557 5 15.9992V18c0 .5523.4477 1 1 1h6.2354A.7646.7646 0 0013 18.2354c0-.4228.3464-.7578.7616-.838C15.5853 17.0449 17 15.4395 17 13.4689v-.776c.1566-.0786.3099-.1545.4595-.2268.6615-.3198 1.2184-.8848.9695-1.5761-.1111-.3085-.2726-.6323-.4473-.9385zm-5.3863-2.4772l-.0189-.5045c-.0006-.02.0194-.06.0356-.0703l.1367-.1069c.0211-.0184.0653-.0286.0837-.0232l.4834.1356c.1205.034.2626-.0206.3301-.1259l.1539-.276c.0638-.1291.0281-.2717-.0616-.3544l-.3683-.3413c-.0092-.0081-.0238-.04-.0249-.067l.0205-.1804c.0017-.0276.026-.066.0427-.0756l.4381-.2458c.0934-.0524.1566-.167.1539-.2771a1.0016 1.0016 0 00-.0043-.0421s-.0119-.066-.0394-.162c-.027-.0962-.0508-.1589-.0508-.1589-.0443-.115-.1707-.1982-.2939-.1939l-.5023.0194c-.0194.0006-.0599-.0194-.0713-.0356l-.1069-.1367a.1187.1187 0 01-.0249-.0686l.1378-.499c.0329-.1178-.0233-.2647-.1259-.33l-.2755-.1546c-.1199-.0583-.2695-.0302-.3549.0616l-.3408.369c-.0135.0134-.0562.028-.0751.0248l-.1723-.0206c-.0275-.0016-.0659-.0259-.0756-.0426l-.2458-.438c-.0605-.1076-.1971-.1719-.3192-.1492 0 0-.0654.012-.1615.0395a1.9274 1.9274 0 00-.1588.0513c-.114.0432-.1977.1685-.1945.2911l.0195.504c.0005.0205-.02.0605-.0357.0713l-.1372.1075c-.021.0183-.0648.0286-.0837.0232l-.4829-.1356c-.1204-.0345-.2625.02-.33.1253l-.155.2755c-.0632.1286-.0281.2717.0616.3549l.3683.3408c.0098.0081.0243.04.0254.067l-.021.181c-.0017.027-.026.0653-.0427.075l-.438.2463c-.0935.0524-.1573.1659-.154.2766a.5734.5734 0 00.0048.0427s.012.0653.039.1615c.0275.0961.0512.1588.0512.1588.0438.1156.1707.1988.2939.1939l.5018-.019c.02-.0005.0605.0195.0718.0352l.107.1372a.1127.1127 0 01.0243.068l-.1346.489c-.0141-.0689-.0457-.134-.0934-.1838 0 0-.0653-.068-.1717-.161a2.7513 2.7513 0 00-.1831-.148c-.1254-.0902-.3133-.0912-.4392-.0021l-.592.4213c-.04.0286-.1264.0389-.1717.0205l-.2345-.0788c-.055-.0157-.1177-.0751-.1328-.1221L7.8615 6.22c-.047-.148-.2004-.2592-.356-.257l-.452.0313a.3831.3831 0 00-.2393.129.3652.3652 0 00-.0854.1761l-.121.7163c-.007.0448-.0653.1177-.107.1355l-.222.1102c-.049.0281-.1366.0292-.1798.007l-.6444-.3354c-.1366-.0707-.3235-.0443-.4343.0621 0 0-.0686.0654-.161.1718-.0928.1064-.148.1831-.148.1831-.0901.1253-.0912.3138-.002.4392l.4207.592c.0292.04.0389.1264.0205.1717l-.0783.2345c-.0178.062-.0789.1199-.122.1328l-.6925.2188c-.1426.0454-.2588.2058-.2577.3554l.0319.4521c.02.1626.1512.2987.3046.3246l.7157.121c.048.0081.1167.0627.1356.107l.1102.222c.028.0497.0302.1366.008.1799l-.3354.6438c-.0707.1367-.0437.3236.0627.4348a3.2977 3.2977 0 00.3543.309c.1254.0907.3139.0913.4392.0022l.592-.4208c.04-.0287.1264-.0389.1718-.0205l.2344.0788c.055.0151.1177.0751.1329.1215l.2182.6925c.047.1486.2004.2593.356.2577l.452-.0314c.162-.0205.2993-.1571.3241-.3051l.121-.7157c.0076-.0443.0654-.1178.107-.1356l.222-.1102c.0491-.0281.1366-.0303.1798-.0076l.6439.3355c.1367.0702.3236.0437.4348-.0627 0 0 .0681-.0654.161-.1718.0771-.0882.1281-.1561.1436-.1766l.0049-.0065c.0902-.1253.0913-.3133.0022-.4391l-.4213-.592c-.0281-.04-.0384-.1264-.02-.1718l.0783-.2344c.0173-.0616.0789-.1194.1221-.1329l.6924-.2182c.1426-.0454.2588-.2063.2572-.356l-.0314-.452c-.0205-.1621-.1512-.2982-.3046-.3247l-.7157-.121c-.048-.0076-.1167-.0621-.1356-.107l-.1107-.222c-.0276-.049-.0297-.1366-.007-.1803l.3354-.6434a.3516.3516 0 00.0305-.0862c.0199.0713.0636.1369.1229.1748l.276.1545c.1199.0584.2695.0308.3549-.0616l.3408-.3683c.013-.014.0562-.0281.0751-.0249l.1729.02c.0275.0016.0658.026.0756.0427l.2457.438c.06.1075.1972.1718.3187.1497 0 0 .0659-.0125.1621-.0395.0961-.0275.1588-.0513.1588-.0513.1139-.0432.1977-.169.1939-.2911z" />
  </g>
</svg>
