<svg xmlns="http://www.w3.org/2000/svg" viewBox="0 0 20 20">
  <path d="M2.003 3h4.994c.554 0 1.2054.4047 1.4504.8947L9 5h9.0046C18.5543 5 19 5.4558 19 6.0025v9.995C19 16.5512 18.5551 17 18.0066 17H8v-1H4v1H1.9934C1.4448 17 1 16.5501 1 15.9932V14h1v-4H1V4.0069C1 3.4508 1.4379 3 2.003 3z" fill="#333333" />
  <path fill-rule="evenodd" clip-rule="evenodd" d="M2 15.9932c0 .0072-.0003.0069-.0066.0069H4v1h4v-1h10.0066L18 6.0025l-9-.0024h-.618l-.2764-.5528-.5527-1.1053C7.4766 4.1893 7.1705 4 6.9971 4H2.0029C1.9966 4 2 3.9967 2 4.007v5.9932H1v4h1v1.9931z" fill="#FFFFFF" />
  <path fill-rule="evenodd" clip-rule="evenodd" d="M5 13H2v-2h3V8h2v3h3v2H7v3H5v-3z" fill="#1651B0" />
</svg>
