<svg xmlns="http://www.w3.org/2000/svg" viewBox="0 0 15 15">
  <path fill-rule="evenodd" clip-rule="evenodd" d="M4 5c1.1046 0 2-.8954 2-2s-.8954-2-2-2-2 .8954-2 2 .8954 2 2 2zm3-2c0 1.3062-.8348 2.4175-2 2.8293V15H3V5.8293C1.8348 5.4175 1 4.3063 1 3c0-1.6568 1.3432-3 3-3 1.6569 0 3 1.3432 3 3zm5.6338 1.6594L10.5 6.9533 8.3662 4.6595l-.7322.681 2.1831 2.3469-2.1833 2.3471.7322.6811L10.5 8.4215l2.134 2.2941.7322-.6811-2.1833-2.3471 2.1831-2.3468-.7322-.6812zM10 11.5V15h1v-3.5h-1z" fill="currentColor" />
</svg>
