<svg xmlns="http://www.w3.org/2000/svg" viewBox="0 0 20 20">
  <path d="M14 1c1.1046 0 2 .8954 2 2v3.878l.9746-.9747a.5005.5005 0 01.707 0l1.4151 1.415a.5006.5006 0 010 .707L16 11.1212V17c0 1.1046-.8954 2-2 2H4c-1.1046 0-2-.8954-2-2V3c0-1.1046.8954-2 2-2h10zM4 2.5a.5.5 0 00-.5.5v14a.5.5 0 00.5.5h10a.5.5 0 00.5-.5v-4.3789l-2.4023 2.4023a.503.503 0 01-.168.1114l-2.3565.9423c-.4081.1633-.8136-.2422-.6503-.6503l.9423-2.3565a.5023.5023 0 01.1114-.168L14.5 8.3779V3a.5.5 0 00-.5-.5H4zm5 10H5V11h4v1.5zm3-3H5V8h7v1.5zm1-3H5V5h8v1.5z" fill="currentColor" />
</svg>
