<svg xmlns="http://www.w3.org/2000/svg" viewBox="0 0 140 140">
  <path fill-rule="evenodd" clip-rule="evenodd" d="M10.6781 10.1878c-.9932 1.16-1.8003 3.0172-1.8003 5.3296V124.483c0 2.32.8076 4.176 1.797 5.332.9734 1.138 1.9268 1.435 2.6023 1.435h79.979c.6651 0 1.6204-.295 2.599-1.438.9931-1.16 1.8003-3.017 1.8003-5.329V93.1736L76.5688 113.957c-.425.418-.932.748-1.4902.968l-20.925 8.25c-3.6236 1.428-7.2194-2.116-5.77-5.687l8.37-20.6243a4.37 4.37 0 01.9827-1.4687l39.9191-39.3445V15.5174c0-2.32-.8076-4.1765-1.7971-5.3326C94.885 9.0475 93.9316 8.75 93.2561 8.75h-79.979c-.6652 0-1.6204.2948-2.599 1.4378zm95.8549 37.1127V15.5174C106.533 6.9426 100.589 0 93.2561 0h-79.979C5.956 0 0 6.9474 0 15.5174V124.483C0 133.057 5.9444 140 13.2771 140h79.979c7.3209 0 13.2769-6.947 13.2769-15.517V84.4236L138.7 52.7197a4.3315 4.3315 0 000-6.1872l-12.555-12.3744c-1.734-1.7085-4.544-1.7085-6.278 0l-13.334 13.1424zM22.1944 26.25h62.1443v6.5625H22.1944V26.25zm62.1443 17.5H22.1944v6.5625h62.1443V43.75zm-62.1443 17.5h44.3888v6.5625H22.1944V61.25zm22.1944 17.5H22.1944v6.5625h22.1944V78.75zm69.3032-32.3188l-1.3 1.2814 12.555 12.3744 1.301-1.2814-12.556-12.3744zM63.5647 95.8376l45.6893-45.0314 12.555 12.3744-45.6893 45.0314-12.555-12.3744zm53.2663-52.5l12.555 12.3744 6.175-6.0859-12.555-12.3744-6.175 6.0859zM52.505 119.113l8.1134-19.9921 12.1701 11.9951-20.2835 7.997z" fill="#EEEEEE" />
</svg>
