<svg xmlns="http://www.w3.org/2000/svg" viewBox="0 0 20 20">
  <path d="M10 20c5.5228 0 10-4.4772 10-10 0-5.5229-4.4772-10-10-10C4.4771 0 0 4.4771 0 10c0 5.5228 4.4771 10 10 10z" fill="#BD3039" />
  <path fill-rule="evenodd" clip-rule="evenodd" d="M11.928 10.0093l3.2095 3.1952a.3398.3398 0 010 .4828l-1.4578 1.45a.342.342 0 01-.4851 0l-3.2042-3.189-3.185 3.189a.343.343 0 01-.4859 0l-1.4569-1.45a.3398.3398 0 010-.4828l3.185-3.1891-3.185-3.1698a.3424.3424 0 010-.4836l1.457-1.4501a.3447.3447 0 01.4859 0l3.1797 3.1637 3.2094-3.2135a.3448.3448 0 01.486 0l1.4569 1.45a.3408.3408 0 010 .4837l-3.2095 3.2135z" fill="#FFFFFF" />
</svg>
