<svg xmlns="http://www.w3.org/2000/svg" viewBox="0 0 20 20">
  <path d="M10 20c5.5228 0 10-4.4772 10-10 0-5.5229-4.4772-10-10-10C4.4771 0 0 4.4771 0 10c0 5.5228 4.4771 10 10 10z" fill="#009400" />
  <path fill-rule="evenodd" clip-rule="evenodd" d="M14.762 5.8375c-.1552-.1642-.4068-.1642-.562 0l-5.7523 5.7143-2.619-2.8a.3917.3917 0 00-.5715 0l-1.33 1.3905c-.1568.165-.1568.4333 0 .5991l4.2062 4.5723c.091.0958.2146.1214.3333.1047.122.0192.2487-.0056.3429-.1047l7.3809-7.6953c.1552-.1633.1552-.3128 0-.4762L14.762 5.8375z" fill="#FFFFFF" />
</svg>
