<svg xmlns="http://www.w3.org/2000/svg" viewBox="0 0 20 20">
  <path fill-rule="evenodd" clip-rule="evenodd" d="M14.5 2h-9l-5 8 5 8h9l5-8-5-8zm-.5 8c0 2.2091-1.7909 4-4 4-2.2091 0-4-1.7909-4-4 0-2.2091 1.7909-4 4-4 2.2091 0 4 1.7909 4 4z" fill="#333333" />
  <g fill="#FFFFFF">
    <path d="M3.129 7.6804L1.6792 10l1.4498 2.3196A7.2416 7.2416 0 012.75 10c0-.8112.1332-1.5913.379-2.3196zM4.8995 4.8476C5.7777 3.978 6.877 3.3316 8.1055 3H6.0543L4.8995 4.8476zM11.8943 3c1.2286.3317 2.3279.9781 3.2061 1.8476L13.9457 3h-2.0514zM16.8709 7.6804A7.2411 7.2411 0 0117.25 10a7.241 7.241 0 01-.3791 2.3196L18.3207 10l-1.4498-2.3196zM15.1004 15.1524c-.8782.8694-1.9775 1.5159-3.2061 1.8476h2.0514l1.1547-1.8476zM8.1056 17c-1.2286-.3317-2.328-.9782-3.2061-1.8476L6.0542 17h2.0514z" />
    <path fill-rule="evenodd" clip-rule="evenodd" d="M10 16.5c3.5898 0 6.5-2.9101 6.5-6.5S13.5898 3.5 10 3.5C6.41 3.5 3.5 6.4101 3.5 10S6.41 16.5 10 16.5zm5-6.5c0 2.7614-2.2386 5-5 5-2.7615 0-5-2.2386-5-5s2.2385-5 5-5c2.7614 0 5 2.2386 5 5z" />
  </g>
</svg>
