<svg xmlns="http://www.w3.org/2000/svg" viewBox="0 0 20 20">
  <g fill="#333333">
    <path d="M13.5009 8.5641L10 2 6.4992 8.5641 10 11.0353l3.5009-2.4712zM6.0255 9.4533l.4737-.8892-4.1993-2.964-.6.8 4.3256 3.0532-3.7538 7.0373 6.8617-4.8435-3.1079-2.1938zM3.2834 17L10 12.2588 16.7167 17H3.2834zM13.975 9.453l3.7533 7.0376-6.8616-4.8435 3.1083-2.194-.4741-.889L17.7 5.6001l.6.8-4.325 3.053zM.7 17.6001l1.5717-1.1095c-.1714.3212-.2685.5037-.2718.5095-.0051.0092.4688.0153 1.2565.019l-1.9565 1.381-.6-.8zM18.7 18.4001l-1.9777-1.396L18 17.0001l-.2717-.5095L19.3 17.6001l-.6.8z" />
  </g>
</svg>
