<svg xmlns="http://www.w3.org/2000/svg" viewBox="0 0 20 20">
  <path d="M12 2.25H6.5l-3.5 3v13h7l3.5-3.5c0-6.5-1.5-6-1.5-12.5z" fill="#333333" />
  <path fill-rule="evenodd" clip-rule="evenodd" d="M11 3.25l-3 2.5H4l3-2.5h4zm-3 3c0 2.6393.418 4.4427.8126 6.1456.353 1.5231.6874 2.9659.6874 4.8544H4v-11h4zm4.3126 3.3747C11.918 8.0534 11.5 6.3893 11.5 3.75l-3 2.5c0 2.6393.418 4.4427.8126 6.1456.353 1.5231.6874 2.9659.6874 4.8544l3-3c0-1.8885-.3344-3.2198-.6874-4.6253z" fill="#FFFFFF" />
  <path d="M16 3.5c0 1.979.2638 3.2541.9487 5.3087-.0414-.1242.1914.5717.249.747C17.7587 11.2629 18 12.4401 18 14v.4142l-5 5v-2.4142c0-1.3121-.2018-2.2967-.7023-3.8197-.0557-.1695-.286-.8579-.2464-.7391C11.3044 10.2003 11 8.7291 11 6.4999v-.4142l5-5v2.4142z" fill="#999999" />
</svg>
