<svg xmlns="http://www.w3.org/2000/svg" viewBox="0 0 20 20">
  <g fill-rule="evenodd" clip-rule="evenodd">
    <path d="M7 2.5C7 3.3284 7.6716 4 8.5 4c.5815 0 1.0856-.3308 1.3346-.8146 1.6185-.1111 2.7332-.0604 3.4759.098.8547.1821 1.0377.4611 1.0912.6135.0811.231.0478.643-.2422 1.351-.2455.5994-.611 1.2671-1.0232 2.02-.0558.1019-.1124.2054-.1697.3105-.4682.8583-.9699 1.8047-1.3213 2.7643-.3508.9582-.5758 1.9909-.4352 3.0169.2639 1.9268 1.7341 3.4563 4.8315 4.4929C16.2002 18.5108 16.793 19 17.5 19c.8284 0 1.5-.6716 1.5-1.5s-.6716-1.5-1.5-1.5c-.401 0-.7652.1573-1.0343.4136-2.7892-.9405-3.6186-2.1559-3.7695-3.2576-.0938-.6849.0484-1.453.3577-2.2975.3087-.8432.7602-1.7014 1.2295-2.5618.0556-.102.1117-.2043.1679-.3069.4053-.7397.8162-1.4896 1.0962-2.1733.3077-.751.5478-1.624.2695-2.4165-.3059-.871-1.115-1.3538-2.1939-1.5837-.9306-.1984-2.195-.2425-3.8624-.1294C9.4937 1.2736 9.0287 1 8.5 1 7.6716 1 7 1.6716 7 2.5z" fill="#333333" />
    <path d="M1 6.5C1 7.3284 1.6716 8 2.5 8c.5752 0 1.0747-.3237 1.3264-.7988 1.8175-.3431 3.0499-.4436 3.8504-.383.868.0657.9718.2945.9757.3032.0336.0743.0594.3376-.2324.9576-.2685.5704-.7076 1.2426-1.2256 1.9961a139.904 139.904 0 01-.3459.4999l-.0006.0009-.0002.0003c-.4104.5914-.8422 1.2135-1.2167 1.8177-.4787.7723-.9124 1.5896-1.1019 2.3658-.1936.7934-.1558 1.6689.4923 2.3675.475.5122 1.1945.8314 2.119 1.0076.2391.5111.758.8652 1.3595.8652.8285 0 1.5-.6716 1.5-1.5S9.3285 16 8.5 16a1.498 1.498 0 00-1.2233.6318c-.6509-.1419-.9893-.3454-1.1555-.5247-.1781-.192-.2614-.4727-.1347-.9918.1308-.5363.4588-1.1877.9195-1.9311.352-.5679.7532-1.146 1.1596-1.7317.1216-.1752.2436-.3511.365-.5276.5132-.7465 1.0194-1.5118 1.3467-2.207.3038-.6456.5757-1.4761.2421-2.2143-.3633-.8038-1.24-1.1062-2.2294-1.1811-.958-.0726-2.2755.0439-4.0288.365C3.4942 5.274 3.029 5 2.5 5 1.6716 5 1 5.6716 1 6.5z" fill="#999999" />
  </g>
</svg>
