<svg xmlns="http://www.w3.org/2000/svg" viewBox="0 0 20 20">
  <g fill-rule="evenodd" clip-rule="evenodd">
    <path d="M3 13.5L6 16v-2h8v2l3-2.5v4.4884h1v-6h-1V13.5L14 11v2H6v-2l-3 2.5zm0 0v4.4884H2v-6h1V13.5z" fill="#1651B0" />
    <path d="M7.0542 8.8735c.17.076.351.115.546.115.188 0 .368-.039.541-.115.172-.077.322-.184.446-.32.125-.136.226-.294.3-.475.075-.181.113-.374.113-.581v-3.018c0-.207-.038-.401-.113-.582-.074-.18-.175-.338-.3-.474a1.3371 1.3371 0 00-.446-.32 1.3147 1.3147 0 00-.541-.115c-.195 0-.376.038-.546.115-.17.077-.319.184-.447.32a1.491 1.491 0 00-.299.474c-.073.181-.109.375-.109.582v3.018c0 .207.036.4.109.581.071.181.172.339.299.475.128.136.277.243.447.32zM4.8085 4.388c0-.111-.04-.205-.118-.283-.078-.077-.173-.116-.285-.116h-.606v-.601c0-.111-.039-.205-.116-.283-.077-.078-.173-.116-.283-.116-.112 0-.205.038-.284.116-.078.078-.117.172-.117.283v.601h-.6c-.111 0-.205.039-.283.116-.077.078-.117.172-.117.283 0 .112.04.206.118.284.079.078.174.117.286.117h.605l-.009.599c0 .112.039.206.117.284.079.078.172.117.284.117.11 0 .206-.039.283-.117.077-.078.116-.172.116-.284v-.599h.606c.112 0 .207-.039.285-.117.078-.078.118-.172.118-.284zm2.7917-.5474c-.167 0-.309.062-.425.186-.117.124-.175.276-.175.453v3.018c0 .177.058.328.175.452.116.124.258.187.425.187.161 0 .301-.063.42-.187s.18-.275.18-.452v-3.018c0-.177-.061-.329-.18-.453s-.259-.186-.42-.186zm2.5417 4.3232c-.095.094-.142.208-.142.341 0 .134.047.248.142.342.094.094.208.142.342.142.132 0 .246-.048.342-.142.094-.094.14-.208.14-.342 0-.133-.046-.247-.14-.341-.096-.095-.21-.142-.342-.142-.134 0-.248.047-.342.142zm3.4583.8248c-.195 0-.376-.039-.546-.115-.17-.077-.319-.184-.447-.32a1.4846 1.4846 0 01-.299-.475c-.073-.181-.109-.374-.109-.581v-3.018c0-.207.036-.401.109-.582.071-.18.172-.338.299-.474.128-.136.277-.243.447-.32.17-.077.351-.115.546-.115.188 0 .368.038.541.115.172.077.322.184.446.32.125.136.226.294.3.474.075.181.113.375.113.582v3.018c0 .207-.038.4-.113.581a1.579 1.579 0 01-.3.475c-.124.136-.274.243-.446.32a1.331 1.331 0 01-.541.115zm-.425-4.962c.116-.124.258-.186.425-.186.161 0 .301.062.42.186s.18.276.18.453v3.018c0 .177-.061.328-.18.452s-.259.187-.42.187c-.167 0-.309-.063-.425-.187-.117-.124-.175-.275-.175-.452v-3.018c0-.177.058-.329.175-.453zm3.5083.7592c-.078.083-.173.124-.284.124-.111 0-.205-.041-.284-.124-.077-.083-.116-.183-.116-.301 0-.119.039-.219.116-.302l1.001-1.064c.127-.136.272-.165.434-.089.077.03.138.082.183.155a.447.447 0 01.067.236v5.142c0 .118-.04.218-.118.301-.077.083-.172.125-.283.125-.112 0-.205-.042-.283-.125-.078-.083-.117-.183-.117-.301v-4.114a1.758 1.758 0 00-.113.115c-.036.042-.067.077-.095.107-.033.041-.069.079-.108.115zM1.9999 7.388c0 .112.04.207.117.284.077.078.172.117.283.117h2c.112 0 .205-.039.283-.117.079-.077.117-.172.117-.284 0-.111-.038-.205-.117-.283-.078-.077-.171-.117-.283-.117h-2c-.111 0-.206.04-.283.117-.077.078-.117.172-.117.283z" fill="#333333" />
  </g>
</svg>
