<svg xmlns="http://www.w3.org/2000/svg" viewBox="0 0 20 20">
  <g fill-rule="evenodd" clip-rule="evenodd">
    <path d="M3 3H2v3H1V3H0V0h3v1h3v1H3v1zM1 1h1v1H1V1zm2 19H0v-3h1v-3h1v3h1v1h3v1H3v1zm-2-2h1v1H1v-1zM19 3h1V0h-3v1h-3v1h3v1h1v3h1V3zm0-2h-1v1h1V1zm1 19h-3v-1h-3v-1h3v-1h1v-3h1v3h1v3zm-2-2h1v1h-1v-1zM2 11H1V9h1v2zm16 0h1V9h-1v2zm-7-9H9V1h2v1zM9 19h2v-1H9v1z" fill="#333333" />
    <path d="M9 3h4.9893L17 6.005V17h-5.6254L10 15.5856V17H4.7929L3 15.2071V5.5h5.001L9 6.5655V3z" fill="#333333" />
    <path d="M7.5678 6.5l1.408 1.5018H5.2385L4 6.51V6.5h3.5678zM5.3163 8.3018H9V16H5.3163V8.3018zM4 6.9797l1.0163 1.224v7.6055L4 14.7929V6.9797zm7.702 8.9224L10 14.1507V4.4456l1.702 1.9068v9.5497zm.2172-9.757L10.0044 4h3.5713l2.1492 2.1452h-3.8057zM12.002 16H16V6.4198v.0254h-3.998V16z" fill="#FFFFFF" />
  </g>
  <path fill="#1651B0" d="M0 0h10v8H0z" />
  <path fill-rule="evenodd" clip-rule="evenodd" d="M9 4H7v1h2V4zM6 4H4v1h2V4zM3.0005 4H1v1h2.0007l-.0002-1zM4 6h2v1H4V6zm5 1H7V6h2v1zM3.0008 6H1v1h2.001l-.0002-1z" fill="#FFFFFF" />
  <path fill-rule="evenodd" clip-rule="evenodd" d="M4 1h2v2H4V1zm3 0v2h2V1H7zM3.0001 1H1v2h2.0004l-.0003-2z" fill="#90CEF1" />
</svg>
