<svg xmlns="http://www.w3.org/2000/svg" viewBox="0 0 20 20">
  <g fill="#333333">
    <path d="M8.03 1.2083L11.876 3.5 8.03 6V1.2082z" />
    <path fill-rule="evenodd" clip-rule="evenodd" d="M5.802 16.94H4.264v-2.369c.577.16 1.153.305 1.761.305.929 0 3.25-.849 3.25-3.538 0-1.825-1.152-3.473-3.105-3.473-.8 0-1.264.288-1.905.705v-.177c0-.352 0-.8-.464-.8-.194 0-.2905.1104-.4064.2428l-.0256.0292c-.368.336-.897.4-1.409.432l.145.816 1.168-.16v7.987h-.96v.896h3.489v-.896zm-.016-2.961c-.544 0-1.041-.128-1.521-.4V9.817c.4-.592 1.168-1.057 1.889-1.057 1.377 0 2.081 1.345 2.081 2.577 0 1.41-.977 2.642-2.449 2.642z" />
    <path d="M19 3h-6v1h6V3zM13 6h6v1h-6V6zM19 9h-6v1h6V9zM13 12h6v1h-6v-1zM19 15h-6v1h6v-1z" />
  </g>
</svg>
