<svg xmlns="http://www.w3.org/2000/svg" viewBox="0 0 20 20">
  <g fill-rule="evenodd" clip-rule="evenodd">
    <path d="M4.034 13.6071c.055.15.153.26.297.331.151.071.306.081.466.029.16-.051.277-.144.353-.277l1.351-2.543 1.348 2.543c.076.133.193.226.354.277.16.052.311.042.453-.029.152-.071.255-.181.31-.331.055-.15.043-.292-.032-.425l-1.753-3.182 1.627-3.17c.076-.141.086-.287.031-.437-.053-.151-.157-.26-.308-.331-.144-.072-.295-.081-.454-.029-.16.05-.278.147-.354.288L6.501 8.616 5.277 6.321c-.076-.141-.194-.238-.353-.288-.16-.052-.316-.043-.468.029-.142.071-.241.18-.295.331-.056.15-.045.296.03.437L5.819 10l-1.753 3.182c-.076.133-.086.275-.032.425zm6.9997 0c.056.15.154.26.297.331.151.071.307.081.467.029.16-.051.277-.144.353-.277l1.35-2.543 1.35 2.543c.075.133.192.226.353.277.159.052.31.042.453-.029.152-.071.255-.181.309-.331.055-.15.044-.292-.032-.425l-1.753-3.182 1.628-3.17c.075-.141.086-.287.031-.437-.054-.151-.158-.26-.309-.331-.143-.072-.295-.081-.454-.029-.16.05-.278.147-.354.288l-1.222 2.295-1.224-2.295c-.076-.141-.194-.238-.353-.288-.16-.052-.315-.043-.467.029-.143.071-.242.18-.295.331-.056.15-.046.296.03.437l1.627 3.17-1.753 3.182c-.075.133-.086.275-.032.425z" fill="#333333" />
    <path d="M3.494 16.2833c.023-.217-.025-.415-.141-.594a9.8579 9.8579 0 01-.683-1.289c-.197-.447-.362-.922-.496-1.424-.259-.971-.388-1.964-.388-2.981 0-.992.129-1.985.388-2.979.134-.502.299-.977.496-1.424.196-.446.424-.875.683-1.289.116-.177.164-.376.141-.593-.022-.219-.105-.4-.248-.544-.143-.135-.301-.187-.475-.159-.175.028-.316.125-.423.292-.607.983-1.072 2.048-1.393 3.197C.651 7.6253.5 8.7903.5 9.9953c0 1.207.151 2.374.455 3.501.321 1.15.786 2.215 1.393 3.197.107.179.248.28.423.302.174.022.332-.034.475-.167.143-.145.226-.327.248-.545zm15.537-2.7861c.313-1.149.469-2.317.469-3.499 0-1.184-.156-2.35-.469-3.5a11.8005 11.8005 0 00-1.379-3.197c-.108-.167-.249-.266-.423-.294-.174-.028-.333.026-.476.159-.143.145-.225.327-.247.544-.023.218.02.416.127.595.527.837.925 1.741 1.192 2.713.259.992.389 1.986.389 2.98 0 1.015-.13 2.009-.389 2.979-.267.971-.665 1.874-1.192 2.713-.107.177-.15.376-.127.593.022.219.104.4.247.544.143.135.302.191.476.169.174-.024.315-.124.423-.302.615-.994 1.076-2.06 1.379-3.197z" fill="#1651B0" />
  </g>
</svg>
