<svg xmlns="http://www.w3.org/2000/svg" viewBox="0 0 20 20">
  <path d="M9 1l6 .0034L19 5v14H5l-4-4V9h8V1z" fill="#333333" />
  <g fill="#FFFFFF">
    <path d="M10 2.359v7.2875l3.25 3.25V5.6037L10 2.359zM9.6464 10H2.3535l3.25 3.2501h7.293L9.6464 10zM2 10.3536V14.5l3.25 3.25v-4.1464L2 10.3536z" />
    <path d="M5.75 18H18V5.75h-4.25v8.0001h-8V18zM17.7501 5.25L14.5 2h-4.1411l3.2448 3.25h4.1464z" />
  </g>
  <g>
    <path fill="#1651B0" d="M0 0h10v8H0z" />
    <path fill-rule="evenodd" clip-rule="evenodd" d="M9 4H7v1h2V4zM6 4H4v1h2V4zM3.0005 4H1v1h2.0007l-.0002-1zM4 6h2v1H4V6zm5 1H7V6h2v1zM3.0008 6H1v1h2.001l-.0002-1z" fill="#FFFFFF" />
    <path fill-rule="evenodd" clip-rule="evenodd" d="M4 1h2v2H4V1zm3 0v2h2V1H7zM3.0001 1H1v2h2.0004l-.0003-2z" fill="#90CEF1" />
  </g>
</svg>
