<svg xmlns="http://www.w3.org/2000/svg" viewBox="0 0 20 20">
  <g fill="#333333">
    <path d="M19 10c0 4.9706-4.0294 9-9 9s-9-4.0294-9-9c0-2.4853 1.0074-4.7353 2.636-6.364L2 2l5-1-1 5-1.6569-1.6569C2.8954 5.791 2 7.791 2 10c0 4.4183 3.5817 8 8 8s8-3.5817 8-8-3.5817-8-8-8V1c4.9706 0 9 4.0294 9 9z" />
    <path fill-rule="evenodd" clip-rule="evenodd" d="M6 7h1.9l.6-2h2l-.6 2h2l.6-2h2l-.6 2h1.6L15 9h-1.7l-.6 2h1.8l-.5 2h-1.9l-.6 2h-2l.6-2h-2l-.6 2h-2l.6-2H4.5l.5-2h1.7l.6-2H5.5L6 7zm4.7 4l.6-2h-2l-.6 2h2z" />
  </g>
</svg>
