<svg xmlns="http://www.w3.org/2000/svg" viewBox="0 0 20 20">
  <path d="M9 1l6 .0034L19 5v14H5l-4-4V9h8V1z" fill="#333333" />
  <g fill="#FFFFFF">
    <path d="M13.25 6.0115V12.25l-2.9278-2.9278L13.25 6.0114zM10 8.177l2.7326-3.09L10 2.359v5.818zM11 2l2.3798 2.3798L13.6669 2H11zM14.6554 2.1554l-.32 2.6526h2.9726l-2.6526-2.6526zM18 5.75h-3.3546L18 15.8853V5.75zM16.3629 18L6.2755 14.3973V18h10.0874zM5.25 17.75v-3.4123l-2.7042.7081L5.25 17.75zM2 14.155l3.0126-.7889L2 10.3535v3.8015zM3 10l2.9571 2.9571L9.1144 10H3z" />
    <path d="M14.1987 7.583l3.2214 9.7327-8.7858-3.1378h5.5644v-6.595z" />
    <path d="M7.1073 13.25l2.9893-2.7998 2.7999 2.7998H7.1073z" />
  </g>
  <g>
    <path fill="#1651B0" d="M0 0h10v8H0z" />
    <path fill-rule="evenodd" clip-rule="evenodd" d="M9 4H7v1h2V4zM6 4H4v1h2V4zM3.0005 4H1v1h2.0007l-.0002-1zM4 6h2v1H4V6zm5 1H7V6h2v1zM3.0008 6H1v1h2.001l-.0002-1z" fill="#FFFFFF" />
    <path fill-rule="evenodd" clip-rule="evenodd" d="M4 1h2v2H4V1zm3 0v2h2V1H7zM3.0001 1H1v2h2.0004l-.0003-2z" fill="#90CEF1" />
  </g>
</svg>
