<svg xmlns="http://www.w3.org/2000/svg" viewBox="0 0 20 20">
  <g fill="#333333">
    <path d="M18.1333 11h1.8108c.226-2.9918-.2285-5.7603-1.4828-8.302-.0412-.0837-.1222-.185-.1858-.1875l-1.3829-.0088c1.0342 2.866 1.4525 5.692 1.2407 8.4983zM11.5377 7.2285c-.1389.2064-.2796.4156-.4251.627a35.258 35.258 0 01-.1679-.5908c-.1139-.4099-.2227-.8015-.3641-1.1816-.3214-.865-.9854-1.3324-1.908-1.4311-1.0214-.11-1.9788.155-2.9148.515-.6494.25-.696.3287-.7054 1.0349.069-.0197.1376-.0405.2062-.0613.149-.0452.2978-.0903.4485-.1237 1.0667-.2425 1.7214.0975 2.056 1.12.2774.8542.5199 1.7204.7623 2.586l.0911.3251c.032.1137.0107.2812-.056.3762-.1089.1574-.2324.3048-.3559.4521-.0942.1124-.1884.2248-.2761.3416-.236.315-.5053.3975-.8733.22-.1774-.0862-.3854-.1225-.584-.1512-.7494-.1075-1.4681-.075-2.0268.5375-.5133.5637-.5947 1.5224-.1773 2.0849.4133.5587 1.22.7499 1.9494.3912.34-.1675.672-.42.9066-.7125.3723-.4652.7139-.9544 1.0553-1.4434.1466-.2099.2932-.4198.4421-.6277.0621-.0884.1261-.1751.2042-.2809l.0491-.0666c.0563.198.1089.3905.1604.5787.1145.419.2233.8168.353 1.2075.3213.9649 1.04 1.4337 2.0374 1.5261a4.417 4.417 0 00.6959.0089L11 13.4744V11h.9406c-.1318-.4565-.2636-.9125-.4307-1.3558-.2533-.67-.1013-1.1687.3774-1.6761l.0857-.0908c.4368-.4637.4465-.474 1.1436-.2867.6574.1762 1.316.2587 1.9547-.0725.844-.4387 1.188-1.58.7147-2.3574-.432-.7125-1.484-.8912-2.2747-.3263-.3814.2725-.7147.635-1.0014 1.01-.339.4426-.6506.906-.9722 1.3841zM13.4091 14.2483z" />
    <path fill-rule="evenodd" clip-rule="evenodd" d="M3.1135 2.5c-1.8367 5.0814-1.7272 10.0527.387 14.9991L2.108 17.5c-.0547-.0013-.1257-.1097-.1593-.186C1.3962 16.0762.779 14.8796.4654 13.4805-.3857 9.687-.0908 6.0897 1.537 2.7275c.046-.0937.1343-.1737.2127-.2275h1.3639z" />
  </g>
  <path d="M20 12h-8v1.0667l3.2 3.2v2.6666L16.2667 20l.5333-.0331v-3.7002l3.2-3.2V12z" fill="#1651B0" />
  <path fill="#1651B0" d="M0 0h10v8H0z" />
  <path fill-rule="evenodd" clip-rule="evenodd" d="M9 4H7v1h2V4zM6 4H4v1h2V4zM3.0005 4H1v1h2.0007l-.0002-1zM4 6h2v1H4V6zm5 1H7V6h2v1zM3.0008 6H1v1h2.001l-.0002-1z" fill="#FFFFFF" />
  <path fill-rule="evenodd" clip-rule="evenodd" d="M4 1h2v2H4V1zm3 0v2h2V1H7zM3.0001 1H1v2h2.0004l-.0003-2z" fill="#90CEF1" />
</svg>
