<svg xmlns="http://www.w3.org/2000/svg" viewBox="0 0 200 170">
  <g fill="#EEEEEE">
    <path d="M88.8889 0H61.5385l18.8034 20.132h27.3501L88.8889 0zM82.0513 25.165v58.7184H25.6411v28.5206h52.9704l32.4995-55.2577V25.165H82.0513z" />
    <path d="M56.4103 1.6777l20.5128 21.8097v52.0077L56.4103 53.6854V1.6777zM75.2137 80.528L54.7009 58.7183H3.4189L23.9316 80.528h51.282zM0 62.0738l20.5128 21.8097v28.5205L0 90.5941V62.0738z" />
    <path fill-rule="evenodd" clip-rule="evenodd" d="M85.2177 110.293l20.9683-35.6726 26.497 15.0265-41.9361 23.7821-5.5292-3.136zm59.0343-27.2074l-6.91 3.9189-28.827-16.3477 16.309-27.7454c1.286-2.189 4.136-2.939 6.365-1.6752L155.4 54.9666c2.229 1.2638 2.992 4.0629 1.706 6.252l-12.854 21.867zm16.889-19.5786l-8.818 15.0018 16.219-9.198c4.458-2.5277 10.157-1.0276 12.73 3.3505l13.979 23.7816c2.573 4.3781 1.046 9.9761-3.411 12.5041l-26.953 15.285h25.794c5.147 0 9.319 4.098 9.319 9.154v27.46c0 5.056-4.172 9.154-9.319 9.154H69.5338c-5.1467 0-9.319-4.098-9.319-9.154v-27.46c0-5.056 4.1723-9.154 9.319-9.154h2.1103l49.1439-83.609c2.574-4.3781 8.273-5.8781 12.73-3.3504l24.212 13.7303c4.457 2.5277 5.984 8.126 3.411 12.5041zm-80.1256 60.725h22.9626l-5.7403-9.767-17.2223 9.767zm28.3436 0h46.209l33.942-19.249c2.229-1.264 2.992-4.063 1.706-6.2517l-13.979-23.7817c-1.287-2.189-4.136-2.939-6.365-1.6752l-28.247 16.0187 18.638 31.7089-4.035 2.288-18.638-31.7085-36.317 20.5955 7.086 12.055zm-49.0341 7.742a9.052 9.052 0 00-.1101 1.379v-1.197a8.792 8.792 0 01.1101-.182zm25.7625-15.903l-6.3989 3.629 3.1995-5.443 3.1994 1.814zm20.7226 12.738H69.5338c-2.5734 0-4.6595 2.049-4.6595 4.577v27.46c0 2.528 2.0861 4.577 4.6595 4.577H106.81v-36.614zm4.659 36.614h41.936v-36.614h-41.936v36.614zm79.212 0h-32.617v-36.614h32.617c2.573 0 4.659 2.049 4.659 4.577v27.46c0 2.528-2.086 4.577-4.659 4.577zm-107.1687-13.73c2.5734 0 4.6595-2.049 4.6595-4.577s-2.0861-4.577-4.6595-4.577c-2.5734 0-4.6595 2.049-4.6595 4.577s2.0861 4.577 4.6595 4.577zm0 4.577c5.1468 0 9.319-4.099 9.319-9.154s-4.1722-9.153-9.319-9.153c-5.1467 0-9.319 4.098-9.319 9.153 0 5.055 4.1723 9.154 9.319 9.154z" />
  </g>
</svg>
