<svg xmlns="http://www.w3.org/2000/svg" viewBox="0 0 20 20">
  <defs>
    <clippath id="clip0_17438_17434">
      <path fill="#fff" d="M0 0h20v20H0z" />
    </clippath>
  </defs>
  <g clip-path="url(#clip0_17438_17434)">
    <path d="M18.999 1.0225v3.5l.6709.7285c.2123.2307.3301.5331.3301.8467v5.7988c0 .3317-.1315.6503-.3662.8847l-.9287.9268-.9248.9258c-.023.0229-.0478.0435-.0723.0644a1.2113 1.2113 0 01-.0742.083l-.9287.9268-.9248.9258c-.023.0229-.0478.0435-.0723.0644a1.2113 1.2113 0 01-.0742.083l-.6348.6329v1.5634L0 19.002V4.998l2 .003V2.998l2 .003V.998l14.999.0245z" fill="#333333" />
    <path d="M8 6.0107V7h1v-.9883l1 .002V7h1v-.9844l1 .001V7h1v-.9814l.999.002V8.912l.9346 1.0156a.2517.2517 0 01.0664.17v5.7988a.25.25 0 01-.0732.1767L13.999 17v.9795L1 18v-1h1v-2H1v-2h3V8H1V6l7 .0107zM4.5 14.5c-.8284 0-1.5.6716-1.5 1.5s.6716 1.5 1.5 1.5S6 16.8284 6 16s-.6716-1.5-1.5-1.5zm3.5 0c-.8284 0-1.5.6716-1.5 1.5s.6716 1.5 1.5 1.5 1.5-.6716 1.5-1.5-.6716-1.5-1.5-1.5zm2 1.5h3v-2h-3v2zm5.999-11.9795v2.8916l.9346 1.0156a.2518.2518 0 01.0664.17v5.7988a.25.25 0 01-.0732.1767L16 14.999v-4.9013c0-.3136-.1178-.616-.3301-.8467l-.6709-.7285v-3.5L3 5.0029V4l12.999.0205zm2-2v2.8916l.9346 1.0156a.2518.2518 0 01.0664.17v5.7988a.25.25 0 01-.0732.1767L18 12.999V8.0977c0-.3136-.1178-.616-.3301-.8467l-.6709-.7285v-3.5L5 3.0029V2l12.999.0205zM11 12h2V9h-2v3zm-6-1h2V9H5v2z" fill="#D7D7D7" />
    <path d="M4.5 15.5a.5.5 0 110 1 .5.5 0 010-1zm3.5 0a.5.5 0 110 1 .5.5 0 010-1zM3 12H1V9h2v3z" fill="#FFFFFF" />
  </g>
</svg>
