<svg xmlns="http://www.w3.org/2000/svg" viewBox="0 0 20 20">
  <path d="M10 2H2v6c0 2.4853 2.0147 4.5 4.5 4.5h2c.8284 0 1.5.6716 1.5 1.5v4h8v-6c0-2.4853-2.0147-4.5-4.5-4.5h-2c-.8284 0-1.5-.6716-1.5-1.5V2z" fill="#D7D7D7" />
  <path fill-rule="evenodd" clip-rule="evenodd" d="M9 3H3v5c0 1.933 1.567 3.5 3.5 3.5h2c1.3807 0 2.5 1.1193 2.5 2.5v3h6v-5c0-1.933-1.567-3.5-3.5-3.5h-2C10.1193 8.5 9 7.3807 9 6V3zm1 3c0 .8284.6716 1.5 1.5 1.5h2c2.4853 0 4.5 2.0147 4.5 4.5v6h-8v-4c0-.8284-.6716-1.5-1.5-1.5h-2C4.0147 12.5 2 10.4853 2 8V2h8v4z" fill="#333333" />
</svg>
