<svg xmlns="http://www.w3.org/2000/svg" viewBox="0 0 20 20">
  <g fill-rule="evenodd" clip-rule="evenodd">
    <path d="M16 2v1h2v3h-2v2.5h2v1.6588c-1.0074-.3282-2.1726-.1007-2.9612.6823l-4.1933 4.1943-.001.001-.0017.0017a2.8972 2.8972 0 00-.8426 2.0425c0 .3649.058.6678.1588.9194H4v-1H2v-3h2v-2.5H2v-3h2V6H2V3h2V2h12z" fill="#333333" />
    <path d="M15 5v4.5h2v.5145c-.5426.0145-1.0817.1763-1.5442.4855L15 10.8799l-4.1545 4.1555-.001.001-.0017.0017A2.8965 2.8965 0 0010.0014 17H5v-1H3v-1h2v-4.5H3v-1h2V5H3V4h2V3h10v1h2v1h-2z" fill="#FFFFFF" />
    <path d="M18.417 11.552l.031.032a1.8968 1.8968 0 010 2.674l-1.192 1.192a2.6565 2.6565 0 00-.191-1.034l.77-.771c.4-.399.4-1.049 0-1.448l-.031-.031c-.4-.4-1.05-.4-1.449 0l-1.703 1.703c-.4.399-.4 1.049 0 1.448l.031.032a.989.989 0 00.204.156l-.624.624a1.9022 1.9022 0 01-.193-.168l-.031-.031a1.8961 1.8961 0 010-2.674l1.704-1.705a1.8968 1.8968 0 012.674 0v.001zm-2.68 2.319a1.905 1.905 0 01.193.167l.031.032c.736.735.736 1.94 0 2.675l-1.704 1.703a1.8961 1.8961 0 01-2.673 0l-.032-.03a1.897 1.897 0 010-2.675l1.192-1.193c-.005.352.058.704.191 1.035l-.77.77c-.4.4-.4 1.049 0 1.449l.031.031c.4.4 1.05.4 1.449 0l1.704-1.704c.399-.399.399-1.049 0-1.448l-.032-.032a1.0079 1.0079 0 00-.204-.156l.624-.624z" fill="#333333" />
  </g>
</svg>
