<svg xmlns="http://www.w3.org/2000/svg" viewBox="0 0 20 20">
  <g fill="#333333">
    <path d="M2 14.5V16h1.4063v1H1v-2.5h1zM7.1563 16v1H4.3438v-1h2.8125zm3.7499 0v1H8.0937v-1h2.8125zm3.75 0v1h-2.8124v-1h2.8124zM2 10.5v3H1v-3h1zm17-.625v2.25h-1v-2.25h1zM2 6.5v3H1v-3h1zM2 4v1.5H1V3h2.4063v1H2zm14.999 0h-1.4062V3h2.4052l.001 2.125h-1V4zM7.1563 3v1H4.3438V3h2.8125zm3.749 0v1H8.0928V3h2.8125zm3.75 0v1h-2.8125V3h2.8125zM18 8l-.625-.625L17 7V5.875h1v.711l1 1v1.539h-1V8zM18.001 17h-2.4072v-1H17v-.376L16.999 15l.625-.626L18 14v-1.125h1v1.54l-.293.293-.3759.375-.331.3307L18.001 17z" />
  </g>
</svg>
