<svg xmlns="http://www.w3.org/2000/svg" viewBox="0 0 20 20">
  <g fill-rule="evenodd" clip-rule="evenodd">
    <path d="M16 8.5V6h2V3h-2V2H4v1H2v3h2v2.5H2v3h2V14H2v3h2v1h6.159c-.1008-.2516-.1588-.5545-.1588-.9194 0-.7654.303-1.4997.8426-2.0425l.0017-.0017.001-.001 4.1933-4.1943c.7886-.783 1.9538-1.0105 2.9612-.6823V8.5h-2z" fill="#333333" />
    <path d="M4 4v1H3V4h1zm13 0v1h-1V4h1zm0 6.0145V9.5h-1v.7161a2.9608 2.9608 0 011-.2016zM4 10.5v-1H3v1h1zM4 15v1H3v-1h1z" fill="#FFFFFF" />
    <path d="M10.0014 17a2.8965 2.8965 0 01.8414-1.9619l.0017-.0017.001-.001L15 10.8799V3H5v14h5.0014zM6 5c0 .5523.4477 1 1 1s1-.4477 1-1-.4477-1-1-1-1 .4477-1 1z" fill="#D0DBE5" />
    <path d="M4 4h1v1H4V4zm0 5.5h1v1H4v-1zM5 15H4v1h1v-1zM15 4h1v1h-1V4zm1 5.5h-1v1h.4558A2.8481 2.8481 0 0116 10.2161V9.5z" fill="#333333" />
    <path d="M18.417 11.552l.031.032a1.8968 1.8968 0 010 2.674l-1.192 1.192a2.6565 2.6565 0 00-.191-1.034l.77-.771c.4-.399.4-1.049 0-1.448l-.031-.031c-.4-.4-1.05-.4-1.449 0l-1.703 1.703c-.4.399-.4 1.049 0 1.448l.031.032a.989.989 0 00.204.156l-.624.624a1.9022 1.9022 0 01-.193-.168l-.031-.031a1.8961 1.8961 0 010-2.674l1.704-1.705a1.8968 1.8968 0 012.674 0v.001zm-2.68 2.319a1.905 1.905 0 01.193.167l.031.032c.736.735.736 1.94 0 2.675l-1.704 1.703a1.8961 1.8961 0 01-2.673 0l-.032-.03a1.897 1.897 0 010-2.675l1.192-1.193c-.005.352.058.704.191 1.035l-.77.77c-.4.4-.4 1.049 0 1.449l.031.031c.4.4 1.05.4 1.449 0l1.704-1.704c.399-.399.399-1.049 0-1.448l-.032-.032a1.0079 1.0079 0 00-.204-.156l.624-.624z" fill="#333333" />
  </g>
</svg>
