<svg xmlns="http://www.w3.org/2000/svg" viewBox="0 0 20 20">
  <g fill-rule="evenodd" clip-rule="evenodd">
    <path d="M17.5 4.7v1.875H19v2.25h-1.5V10.7H19v2.25h-1.5v.75h-9v-9H7V2.45h1.5V1.7h9v.75H19V4.7h-1.5z" fill="#333333" />
    <path d="M16.75 12.95V2.45h-7.5v10.5h7.5zm-6-8.25a.75.75 0 110-1.5.75.75 0 010 1.5zm7.5-1.5v.75h-.75V3.2h.75zm0 4.875v-.75h-.75v.75h.75zm0 3.375v.75h-.75v-.75h.75zM8.5 3.95V3.2h-.75v.75h.75z" fill="#FFFFFF" />
    <path d="M9.25 3.95V3.2H8.5v.75h.75zm8.25 0V3.2h-.75v.75h.75zm0 3.37v.75h-.75v-.75h.75zm0 4.88v-.75h-.75v.75h.75z" fill="#333333" />
    <g>
      <path d="M14.5 7v1.875H16v2.25h-1.5V13H16v2.25h-1.5V16h-9V7H4V4.75h1.5V4h9v.75H16V7h-1.5z" fill="#333333" />
      <path d="M13.75 4.75v.75h1.5v.75h-1.5v3.375h1.5v.75h-1.5v3.375h1.5v.75h-1.5v.75h-7.5V6.274h-1.5V5.5h1.5v-.75h7.5z" fill="#FFFFFF" />
    </g>
    <g>
      <path d="M13 9.3V7.05h-1.5V6.3h-9v.75H1V9.3h1.5v1.875H1v2.25h1.5V15.3H1v2.25h1.5v.75h9v-.75H13V15.3h-1.5v-1.875H13v-2.25h-1.5V9.3H13z" fill="#333333" />
      <path d="M11.5 12.675v-.75h-.75v.75h.75zM3.25 7.8v.75H2.5V7.8h.75zm0 4.875v-.75H2.5v.75h.75zm0 4.125v-.75H2.5v.75h.75zm8.25-.75v.75h-.75v-.75h.75zm0-7.5V7.8h-.75v.75h.75z" fill="#333333" />
      <path d="M12.25 7.8v.75h-.75V7.8h.75zm0 4.125v.75h-.75v-.75h.75zm0 4.875v-.75h-.75v.75h.75zm-9.75-9v.75h-.75V7.8h.75zm0 4.875v-.75h-.75v.75h.75zm0 3.375v.75h-.75v-.75h.75zm8.25-9v10.5h-7.5V7.05h7.5zM4 8.55a.75.75 0 101.5 0 .75.75 0 00-1.5 0z" fill="#FFFFFF" />
    </g>
  </g>
</svg>
