<svg xmlns="http://www.w3.org/2000/svg" viewBox="0 0 20 20">
  <g fill-rule="evenodd" clip-rule="evenodd">
    <path d="M17.5 6.575V4.7H19V2.45h-1.5V1.7h-9v.75H7V4.7h1.5v9h3.6805l2.8577-2.8584a2.8991 2.8991 0 012.0418-.8418c.1419 0 .2822.0112.42.0329V8.8249H19v-2.25h-1.5zm1.4344 4.125c.0221.0187.044.0377.0656.0571V10.7h-.0656z" fill="#333333" />
    <path d="M12.9303 12.95l2.1079-2.1084a2.8997 2.8997 0 011.7118-.823V2.45h-7.5v10.5h3.6803zM10 3.95a.75.75 0 101.5 0 .75.75 0 00-1.5 0zm8.25 0V3.2h-.75v.75h.75zm0 3.375v.75h-.75v-.75h.75zM8.5 3.2v.75h-.75V3.2h.75z" fill="#FFFFFF" />
    <path d="M9.25 3.95V3.2H8.5v.75h.75zm8.25 0V3.2h-.75v.75h.75zm0 3.37v.75h-.75v-.75h.75z" fill="#333333" />
    <path d="M14.5 8.875V7H16V4.75h-1.5V4h-9v.75H4V7h1.5v9h4.7093a2.8958 2.8958 0 01.6331-.9616L14.5 11.3799v-.2549h.2548l.2834-.2834A2.8978 2.8978 0 0116 10.2088V8.875h-1.5z" fill="#333333" />
    <path d="M13.75 5.5v-.75h-7.5v.75h-1.5v.774h1.5v8.976h4.4018a2.9255 2.9255 0 01.1906-.2116l2.9076-2.9083V10.375h1.5v-.75h-1.5V6.25h1.5V5.5h-1.5z" fill="#FFFFFF" />
    <g>
      <path d="M13 12.8803V11.175h-1.5V9.3H13V7.05h-1.5V6.3h-9v.75H1V9.3h1.5v1.875H1v2.25h1.5V15.3H1v2.25h1.5v.75h7.7694a2.8974 2.8974 0 01.573-3.2616l.6576-.6578v-.9556h.9554L13 12.8803z" fill="#333333" />
      <path d="M10.75 15.1358V7.05h-7.5v10.5h6.7885a2.897 2.897 0 01.7115-2.4142zm1.5-6.5857V7.8h-.75v.75h.75zm0 4.1249v-.75h-.75v.75h.75zM2.5 8.55V7.8h-.75v.75h.75zm0 3.375v.75h-.75v-.75h.75zm0 4.875v-.75h-.75v.75h.75zm2.25-7.5a.75.75 0 110-1.5.75.75 0 010 1.5z" fill="#FFFFFF" />
      <path d="M11.5 11.925v.75h-.75v-.75h.75zM3.25 8.55V7.8H2.5v.75h.75zm0 3.375v.75H2.5v-.75h.75zm0 4.125v.75H2.5v-.75h.75zM11.5 7.8v.75h-.75V7.8h.75z" fill="#333333" />
    </g>
    <path d="M18.417 11.552l.031.032a1.8968 1.8968 0 010 2.674l-1.192 1.192a2.6565 2.6565 0 00-.191-1.034l.77-.771c.4-.399.4-1.049 0-1.448l-.031-.031c-.4-.4-1.05-.4-1.449 0l-1.703 1.703c-.4.399-.4 1.049 0 1.448l.031.032a.989.989 0 00.204.156l-.624.624a1.9022 1.9022 0 01-.193-.168l-.031-.031a1.8961 1.8961 0 010-2.674l1.704-1.705a1.8968 1.8968 0 012.674 0v.001zm-2.68 2.319a1.905 1.905 0 01.193.167l.031.032c.736.735.736 1.94 0 2.675l-1.704 1.703a1.8961 1.8961 0 01-2.673 0l-.032-.03a1.897 1.897 0 010-2.675l1.192-1.193c-.005.352.058.704.191 1.035l-.77.77c-.4.4-.4 1.049 0 1.449l.031.031c.4.4 1.05.4 1.449 0l1.704-1.704c.399-.399.399-1.049 0-1.448l-.032-.032a1.0079 1.0079 0 00-.204-.156l.624-.624z" fill="#333333" />
  </g>
</svg>
