<svg xmlns="http://www.w3.org/2000/svg" viewBox="0 0 20 20">
  <path d="M17.999 6.585l.6348.6347A1.25 1.25 0 0119 8.1035v2.9404a3.0093 3.0093 0 00-.9199-.1435 2.9976 2.9976 0 00-2.1123.8701l-4.1963 4.1973A2.9918 2.9918 0 0011.1045 17H1V3h16.998l.001 3.585z" fill="#333333" />
  <path d="M5.5 13.5a.5.5 0 110 1 .5.5 0 010-1zm3.5 0a.5.5 0 110 1 .5.5 0 010-1zM4 10H2V7h2v3z" fill="#FFFFFF" />
  <path d="M9 5h1V4h1v1h1V4h1v1h1V4h1v1h1V4h.999L17 7l.9268.9268A.2503.2503 0 0118 8.1035v2.8008c-.7622.0204-1.4898.3274-2.0322.8662L15.7383 12H12v2h1.7393l-1.9678 1.9678c-.0103.0103-.0192.0218-.0293.0322H2v-1h1v-2H2v-2h3V6H2V4h7v1zm-3.5 7.5c-.8284 0-1.5.6716-1.5 1.5s.6716 1.5 1.5 1.5S7 14.8284 7 14s-.6716-1.5-1.5-1.5zm3.5 0c-.8284 0-1.5.6716-1.5 1.5s.6716 1.5 1.5 1.5 1.5-.6716 1.5-1.5-.6716-1.5-1.5-1.5zm5-2.5h2V7h-2v3zM6 9h2V7H6v2z" fill="#D7D7D7" />
  <path fill-rule="evenodd" clip-rule="evenodd" d="M19.417 12.552l.031.032a1.8968 1.8968 0 010 2.674l-1.192 1.192a2.6565 2.6565 0 00-.191-1.034l.77-.771c.4-.399.4-1.049 0-1.448l-.031-.031c-.4-.4-1.05-.4-1.449 0l-1.703 1.703c-.4.399-.4 1.049 0 1.448l.031.032a.989.989 0 00.204.156l-.624.624a1.9022 1.9022 0 01-.193-.168l-.031-.031a1.8961 1.8961 0 010-2.674l1.704-1.705a1.8968 1.8968 0 012.674 0v.001zm-2.68 2.319a1.905 1.905 0 01.193.167l.031.032c.736.735.736 1.94 0 2.675l-1.704 1.703a1.8961 1.8961 0 01-2.673 0l-.032-.03a1.897 1.897 0 010-2.675l1.192-1.193c-.005.352.058.704.191 1.035l-.77.77c-.4.4-.4 1.049 0 1.449l.031.031c.4.4 1.05.4 1.449 0l1.704-1.704c.399-.399.399-1.049 0-1.448l-.032-.032a1.0079 1.0079 0 00-.204-.156l.624-.624z" fill="#333333" />
</svg>
