<svg xmlns="http://www.w3.org/2000/svg" viewBox="0 0 20 20">
  <path d="M17.999 6.585l.6348.6347A1.25 1.25 0 0119 8.1035v5.793c0 .3317-.1315.6503-.3662.8847l-.6348.6329L18.001 17H1V3h16.998l.001 3.585z" fill="#333333" />
  <path d="M17 7l.9268.9268A.2503.2503 0 0118 8.1035v5.793a.25.25 0 01-.0732.1767L16.999 15 17 16H2V4h14.999L17 7zm-7.5.5C8.1193 7.5 7 8.6193 7 10s1.1193 2.5 2.5 2.5S12 11.3807 12 10s-1.1193-2.5-2.5-2.5z" fill="#D7D7D7" />
  <path d="M9.5 8.5c.8284 0 1.5.6716 1.5 1.5s-.6716 1.5-1.5 1.5S8 10.8284 8 10s.6716-1.5 1.5-1.5z" fill="#FFFFFF" />
</svg>
