<svg xmlns="http://www.w3.org/2000/svg" viewBox="0 0 20 20">
  <path d="M17.999 6.585l.6348.6347A1.25 1.25 0 0119 8.1035v5.793c0 .3317-.1315.6503-.3662.8847l-.6348.6329L18.001 17H1V3h16.998l.001 3.585z" fill="#333333" />
  <path d="M5.5 13.5a.5.5 0 110 1 .5.5 0 010-1zm3.5 0a.5.5 0 110 1 .5.5 0 010-1zM4 10H2V7h2v3z" fill="#FFFFFF" />
  <path d="M17 7l.9268.9268A.2503.2503 0 0118 8.1035v5.793a.25.25 0 01-.0732.1767L16.999 15 17 16H2v-1h1v-2H2v-2h3V6H2V4h7v1h1V4h1v1h1V4h1v1h1V4h1v1h1V4h.999L17 7zM5.5 12.5c-.8284 0-1.5.6716-1.5 1.5s.6716 1.5 1.5 1.5S7 14.8284 7 14s-.6716-1.5-1.5-1.5zm3.5 0c-.8284 0-1.5.6716-1.5 1.5s.6716 1.5 1.5 1.5 1.5-.6716 1.5-1.5-.6716-1.5-1.5-1.5zm3-.5v2h4v-2h-4zm2-5v3h2V7h-2zM6 7v2h2V7H6z" fill="#D7D7D7" />
</svg>
