<svg xmlns="http://www.w3.org/2000/svg" viewBox="0 0 20 20">
  <g fill-rule="evenodd" clip-rule="evenodd">
    <path d="M16 8.0136V6h2V3h-2V2H4v1H2v3h2v2.5H2v3h2V14H2v3h2v1h10.4499A2.24 2.24 0 0114 16.65c0-.607.2403-1.1578.631-1.5626A2.2425 2.2425 0 0114 13.5249v-3.275c0-1.1581.875-2.1119 2-2.2363z" fill="#333333" />
    <path d="M14.0271 17A2.2573 2.2573 0 0114 16.65c0-.607.2403-1.1578.631-1.5626A2.2425 2.2425 0 0114 13.5249v-3.275c0-.7801.397-1.4675 1-1.8711V3H5v14h9.0271zM6 5c0 .5523.4477 1 1 1s1-.4477 1-1-.4477-1-1-1-1 .4477-1 1zM4 5V4H3v1h1zm13 0V4h-1v1h1zM4 9.5v1H3v-1h1zM4 16v-1H3v1h1z" fill="#FFFFFF" />
    <path d="M5 4H4v1h1V4zm0 5.5H4v1h1v-1zM4 15h1v1H4v-1zM16 4h-1v1h1V4z" fill="#333333" />
    <path d="M17.5 10.25c0-.6904-.5596-1.25-1.25-1.25S15 9.5596 15 10.25v3.275c0 .6904.5596 1.25 1.25 1.25s1.25-.5596 1.25-1.25V10.25zm0 6.4c0 .6904-.5596 1.25-1.25 1.25S15 17.3404 15 16.65c0-.6903.5596-1.25 1.25-1.25s1.25.5597 1.25 1.25z" fill="#BD3039" />
  </g>
</svg>
