<svg xmlns="http://www.w3.org/2000/svg" viewBox="0 0 20 20">
  <path d="M17.999 6.585l.6348.6347A1.25 1.25 0 0119 8.1035v5.793c0 .3317-.1315.6503-.3662.8847l-.6348.6329L18.001 17H1V3h16.998l.001 3.585z" fill="#333333" />
  <path d="M17 7l.9268.9268A.2503.2503 0 0118 8.1035v5.793a.25.25 0 01-.0732.1767L16.999 15 17 16H2V4h14.999L17 7zM7 6c-.5523 0-1 .4477-1 1v6c0 .5523.4477 1 1 1h6c.5523 0 1-.4477 1-1V7c0-.5523-.4477-1-1-1H7z" fill="#D7D7D7" />
  <path d="M12.5 7.5v5h-5v-5h5z" fill="#999999" />
</svg>
