<svg xmlns="http://www.w3.org/2000/svg" viewBox="0 0 20 20">
  <path d="M1 3.5C1 2.1193 2.1193 1 3.5 1h13C17.8807 1 19 2.1193 19 3.5v13c0 1.3807-1.1193 2.5-2.5 2.5h-13C2.1193 19 1 17.8807 1 16.5v-13z" fill="#333333" />
  <path d="M2 3.5C2 2.6716 2.6716 2 3.5 2h13c.8284 0 1.5.6716 1.5 1.5v13c0 .8284-.6716 1.5-1.5 1.5h-13c-.8284 0-1.5-.6716-1.5-1.5v-13z" fill="#FFFFFF" />
  <path fill-rule="evenodd" clip-rule="evenodd" d="M16.2886 11.5082c-.26-.262-.8358-.4002-1.7133-.4123-.5931-.0071-1.3081.0467-2.0597.1543-.3361-.199-.6835-.4143-.9546-.6743-.7333-.6988-1.3437-1.6687-1.7256-2.7361.0254-.0996.0457-.187.066-.2763 0 0 .4124-2.3948.3037-3.2033-.0152-.1117-.0244-.1432-.0538-.2305l-.0356-.0934c-.1127-.2651-.332-.5454-.6774-.5292L9.2301 3.5c-.3839 0-.6977.201-.78.5007-.2508.9435.0082 2.3532.4754 4.1793l-.1199.2966c-.3351.8348-.7536 1.6747-1.1243 2.4161l-.0487.0965c-.389.779-.7424 1.4402-1.0623 2.0008l-.3311.1787-.0079.0043c-.0733.0396-.59.3189-.7163.3969-1.1283.6886-1.8758 1.4706-1.9997 2.0902-.0396.198-.0112.4519.191.5687l.3199.1646c.138.07.2843.1066.4346.1066.8034 0 1.7367-1.0227 3.0215-3.315 1.4838-.4936 3.1738-.9039 4.6545-1.1294 1.1284.649 2.5157 1.0999 3.3921 1.0999.1544 0 .2895-.0152.3982-.0446.1675-.0457.3097-.1432.3961-.2763.1696-.262.2041-.6216.1584-.9902-.0142-.1097-.0995-.2448-.192-.3372l-.001.001zM4.2862 15.8774c.1462-.4093.7261-1.2187 1.5843-1.9368.0538-.0447.1859-.1716.3077-.2904-.8967 1.4625-1.497 2.0444-1.892 2.2272zm5.4974-10.665c-.0132-.6226-.1594-1.2889-.4184-1.2889-.1188 0-.1066.9446-.1066.9446 0 .4946.07 1.2502.2173 1.7296.1767-.323.32-.7618.3078-1.3854zM7.851 12.4425c.1798-.3291.3667-.6764.5586-1.0441.4662-.9008.7607-1.6067.98-2.1866.4368.8115.9802 1.5011 1.618 2.0536l.2528.2072c-1.299.262-2.4212.5819-3.4094.9699zm7.737.0051c.1452 0 .3717-.0295.4509-.0803v.001c.0792-.0507.0731-.2955-.388-.4154-.4534-.1178-.5965-.1178-1.0493-.1178h-.0232c-.2579 0-.5453.0112-.8592.0356.8166.3565 1.3985.5769 1.8688.5769z" fill="#333333" />
</svg>
