<svg xmlns="http://www.w3.org/2000/svg" viewBox="0 0 20 20">
  <path fill-rule="evenodd" clip-rule="evenodd" d="M3.5815 14h2.2212C6.84 15.7934 8.779 17 11 17c3.3137 0 6-2.6863 6-6s-2.6863-6-6-6c-1.777 0-3.3736.7725-4.4722 2H4.0703C5.2953 4.8823 7.4633 3.3782 10 3.0619V2H8.491C8.2198 2 8 1.768 8 1.5c0-.2761.2279-.5.491-.5h5.018c.2712 0 .491.232.491.5 0 .2761-.2279.5-.491.5H12v1.0619c1.4607.1821 2.7991.758 3.9056 1.6182l.752-.752a.997.997 0 011.4135.0008.9965.9965 0 01.0007 1.4135l-.7519.752C18.3729 7.449 19 9.1513 19 11c0 4.4183-3.5817 8-8 8-3.3574 0-6.2317-2.0682-7.4185-5zM11 10l2.88-2.16a.2.2 0 01.28.28L12 11c0 .5523-.4477 1-1 1s-1-.4477-1-1 .4477-1 1-1zM1 12h5v1H1v-1zm1-2h5v1H2v-1zm1-2h5v1H3V8z" fill="#FFFFFF" />
</svg>
