<svg xmlns="http://www.w3.org/2000/svg" viewBox="0 0 20 20">
  <path fill-rule="evenodd" clip-rule="evenodd" d="M5.8027 14H3.5815c1.0312 2.5475 3.3366 4.443 6.126 4.8961l.9524-1.9056C8.5822 16.8744 6.7869 15.7012 5.8027 14zm11.1449-3.7964C16.5581 7.2664 14.0437 5 11 5c-1.777 0-3.3736.7725-4.4722 2H4.0703C5.2953 4.8823 7.4633 3.3782 10 3.0619V2H8.491C8.2198 2 8 1.768 8 1.5c0-.2761.2279-.5.491-.5h5.018c.2712 0 .491.232.491.5 0 .2761-.2279.5-.491.5H12v1.0619c1.4607.1821 2.7991.758 3.9056 1.6182l.752-.752a.997.997 0 011.4135.0008.9965.9965 0 01.0007 1.4135l-.7519.752C18.3729 7.449 19 9.1513 19 11a7.993 7.993 0 01-.4009 2.5076l-1.6515-3.304zM13.88 7.84L11 10c-.5523 0-1 .4477-1 1s.4477 1 1 1 1-.4477 1-1l2.16-2.88a.2001.2001 0 00-.28-.28zM6 12H1v1h5v-1zm1-2H2v1h5v-1zm1-2H3v1h5V8z" fill="#1651B0" />
  <path d="M14.5828 11.5677c.3785-.7569 1.4586-.7569 1.837 0l3.4731 6.9461c.3414.6828-.1551 1.4862-.9185 1.4862h-6.9461c-.7634 0-1.26-.8034-.9186-1.4862l3.4731-6.9461z" fill="#FAB601" />
  <path fill-rule="evenodd" clip-rule="evenodd" d="M14.9878 16.4057c0 .2835.2295.5135.5135.5135.2839 0 .5134-.23.5134-.5135v-2.0539a.5133.5133 0 00-.5134-.5134c-.284 0-.5135.23-.5135.5134v2.0539zm.5135 1.0269a.5136.5136 0 010 1.027.5136.5136 0 01-.5135-.5135c0-.2834.23-.5135.5135-.5135z" fill="#FFFFFF" />
</svg>
