<svg xmlns="http://www.w3.org/2000/svg" viewBox="0 0 200 80">
  <g fill="#EEEEEE" fill-rule="evenodd" clip-rule="evenodd">
    <path d="M107.475 3.9473c-2.699-5.263-10.4024-5.263-13.1014 0L69.605 52.2463c-2.4348 4.7478 1.1062 10.334 6.5505 10.334h49.5375c5.444 0 8.985-5.5862 6.55-10.3341l-24.768-48.299zm-6.549 37.215c-2.0252 0-3.6622-1.5996-3.6622-3.5706V23.3092c0-1.971 1.637-3.5706 3.6622-3.5706 2.025 0 3.662 1.5996 3.662 3.5706v14.2825c0 1.971-1.637 3.5706-3.662 3.5706zm3.662 7.1395c0-1.9709-1.641-3.5706-3.662-3.5706-2.0215 0-3.6622 1.5997-3.6622 3.5706 0 1.971 1.6407 3.5707 3.6622 3.5707 2.021 0 3.662-1.5997 3.662-3.5707zM30.1075 80C46.7354 80 60.215 66.8574 60.215 50.6451c0-16.2122-13.4796-29.3548-30.1075-29.3548C13.4796 21.2903 0 34.4329 0 50.6451 0 66.8574 13.4796 80 30.1075 80zm-3.1589-45.6596h7.0623v6.8858h-7.0623v-6.8858zm-3.5319 32.6162v-3.2617h3.5311V48.1115h-3.5311v-3.4429h10.5934v19.0263h3.5311v3.2617H23.4167zM200 50.6451C200 66.8574 186.52 80 169.892 80c-16.627 0-30.107-13.1426-30.107-29.3549 0-16.2122 13.48-29.3548 30.107-29.3548 16.628 0 30.108 13.1426 30.108 29.3548zm-30.108-17.9348c-3.477 0-6.099 3.0798-5.458 6.4116l3.477 18.0787c.179.9294 1.011 1.6029 1.981 1.6029.97 0 1.802-.6735 1.981-1.6029l3.476-18.0788c.641-3.3317-1.981-6.4115-5.457-6.4115zm4.182 31.8023c0 2.2517-1.873 4.0771-4.182 4.0771s-4.182-1.8254-4.182-4.0771c0-2.2517 1.873-4.0771 4.182-4.0771s4.182 1.8254 4.182 4.0771z" />
  </g>
</svg>
