<svg xmlns="http://www.w3.org/2000/svg" viewBox="0 0 20 20">
  <path fill-rule="evenodd" clip-rule="evenodd" d="M3.5815 14h2.2212c.821 1.4191 2.2064 2.4708 3.8493 2.848.18.7841.5137 1.5097.9677 2.1431-3.193-.1494-5.8965-2.1706-7.0382-4.9911zM11 5c2.8502 0 5.2363 1.9874 5.848 4.652a5.9707 5.9707 0 012.1431.9677c-.0796-1.7015-.6908-3.264-1.6712-4.5253l.7519-.752a.9965.9965 0 00-.0007-1.4135.997.997 0 00-1.4135-.0007l-.752.752C14.7991 3.82 13.4607 3.244 12 3.0618V2h1.509c.2631 0 .491-.2239.491-.5 0-.268-.2198-.5-.491-.5H8.491C8.2279 1 8 1.2239 8 1.5c0 .268.2198.5.491.5H10v1.0619C7.4632 3.3782 5.2953 4.8823 4.0703 7h2.4575C7.6264 5.7725 9.223 5 11 5zM1 12h5v1H1v-1zm1-2h5v1H2v-1zm1-2h5v1H3V8zm8 2l2.88-2.16a.2.2 0 01.28.28L12 11c0 .5523-.4477 1-1 1s-1-.4477-1-1 .4477-1 1-1z" fill="#1651B0" />
  <circle cx="15.5" cy="15.5" r="4.5" fill="#BD3039" />
  <path fill-rule="evenodd" clip-rule="evenodd" d="M15.5001 12.75c-.5196 0-.9115.4721-.8157.9829l.5196 2.7714a.3012.3012 0 00.5922 0l.5196-2.7714c.0958-.5108-.2961-.9829-.8157-.9829zm.625 4.875a.625.625 0 11-1.25 0 .625.625 0 011.25 0z" fill="#FFFFFF" />
</svg>
