<svg xmlns="http://www.w3.org/2000/svg" viewBox="0 0 20 20">
  <path fill-rule="evenodd" clip-rule="evenodd" d="M4.5 7a5.57 5.57 0 01.0224-.5h1.4897a10.3683 10.3683 0 00.0972 2H4.707A5.5042 5.5042 0 014.5 7zm1.6094-1.5H4.707c.3758-1.3285 1.2382-2.4526 2.3825-3.1676-.0354.0728-.071.148-.1066.2256-.35.7641-.7012 1.7635-.8735 2.942zM8.503 1.848a6.9497 6.9497 0 01.1142-.1727A5.4831 5.4831 0 019.5 1.5224V5.5H7.1212c.1626-1.0038.4662-1.8606.7709-2.5255.2232-.4873.4458-.8689.611-1.1265zM10.5 5.5V1.5224c.2952.0266.5837.0766.8636.148.0373.0534.0812.1183.1302.1942.1654.2558.3884.635.6121 1.12.3051.6612.6093 1.5141.7723 2.5154H10.5zm2.514-2.9344a10.7655 10.7655 0 00-.1145-.24c1.1498.7146 2.0165 1.8417 2.3935 3.1744h-1.4029c-.1729-1.1769-.525-2.1732-.8761-2.9344zM13.9877 6.5h1.4899A5.585 5.585 0 0115.5 7c0 .52-.0722 1.0232-.207 1.5H13.89a10.3054 10.3054 0 00.0977-2zm-.2947 3h1.2073a5.5253 5.5253 0 01-2.0032 2.176A10.821 10.821 0 0013.693 9.5zm-2.1989 2.6299a6.7064 6.7064 0 01-.1352.2009 5.4832 5.4832 0 01-.8589.1468V9.5h2.1594a9.8299 9.8299 0 01-.5534 1.5122c-.2236.484-.4466.8625-.6119 1.1177zM9.5 9.5v2.9776a5.4793 5.4793 0 01-.887-.154 6.7549 6.7549 0 01-.1098-.1666c-.165-.2581-.3877-.6405-.611-1.1285A10.0103 10.0103 0 017.338 9.5H9.5zm-2.5172 1.9445c.035.0763.0698.1502.1045.2218A5.5252 5.5252 0 015.0997 9.5H6.305c.1847.7515.4316 1.4063.6778 1.9445zM9.5 8.5H7.1211A9.384 9.384 0 017 7c0-.1696.0046-.3363.0134-.5H9.5v2zm1 0v-2h2.4864a9.3194 9.3194 0 01-.1083 2H10.5zm-.5-8C6.4101.5 3.5 3.4101 3.5 7s2.9101 6.5 6.5 6.5 6.5-2.9101 6.5-6.5S13.5899.5 10 .5zm-.5 18v-1h1v1h-1zM9 19v-2h2v2H9zm1.5-3.5v1h-1v-1h1zm2.5 2h-1v1h1v-1zm1 0h1v1h-1v-1zm3 1v-1h-1v1h1zm-14-1h1v1H3v-1zm3 0H5v1h1v-1zm1 0h1v1H7v-1zm3.5-2.5v-1h-1v1h1z" fill="#333333" />
</svg>
