<svg xmlns="http://www.w3.org/2000/svg" viewBox="0 0 20 20">
  <path d="M16.5 5l-.3443 1.4768h-2.1926l-.9604 4.1588a27.5303 27.5303 0 00-.1586.7248c-.0574.2779-.086.4893-.086.6342 0 .3685.0724.6116.2174.7294.145.1178.4077.1767.7883.1767.163 0 .3609-.0302.5934-.0906.2326-.0604.4153-.1178.5482-.1722l-.1994.8155c-.5979.2355-1.0751.4152-1.4315.539-.3564.1239-.7701.1858-1.2413.1858-.7369 0-1.3032-.154-1.6988-.4621-.3956-.308-.5935-.7792-.5935-1.4134 0-.1752.0151-.3594.0453-.5527.0302-.1933.0876-.4772.1722-.8517l1.0329-4.4215H9.1248l-.0815.3443c-.5799 2.404-1.2654 4.2222-2.0567 5.4544-.7913 1.2322-1.658 1.8483-2.6004 1.8483-.3926 0-.7218-.1162-.9875-.3488C3.1329 13.5424 3 13.2117 3 12.7829c0-.5134.139-.9242.4168-1.2322.2778-.3081.6191-.4621 1.0238-.4621.29 0 .5633.0891.82.2673.2567.1782.4756.3548.6568.53.4108-.5315.7943-1.196 1.1507-1.9933.3564-.7973.6282-1.5946.8155-2.392.0362-.169.077-.3548.1223-.5571.0453-.2024.077-.358.0951-.4667h-.7973c-.3564 0-.66.0574-.9106.1722a2.3624 2.3624 0 00-.666.453c-.1872.1752-.3427.3805-.4665.6161a8.4513 8.4513 0 00-.3217.6796h-.6614c.0121-.0846.0393-.2145.0816-.3896.0422-.1752.0785-.3292.1087-.4621.1751-.7128.5164-1.3153 1.0238-1.8076C5.999 5.2461 6.6513 5 7.4486 5H16.5z" fill="#333333" />
</svg>
