<svg xmlns="http://www.w3.org/2000/svg" viewBox="0 0 20 20">
  <path fill-rule="evenodd" clip-rule="evenodd" d="M3 7.0178L7.0178 3l2.6786 2.6785-.6697.6697 1.5594 1.5593c2.755-1.2638 5.1373 1.1185 5.1373 1.1185l-2.0095 2.0094.0003.0002-.6697.6697 2.0089 2.0089 1.2558 1.2558a.4996.4996 0 01.1208.1954l.5691 1.7072a.1.1 0 01-.1265.1265l-1.7072-.5691a.4996.4996 0 01-.1954-.1208l-1.2558-1.2558-2.0089-2.0089-.6697.6697-.0002-.0003-2.0084 2.0084s-2.3814-2.3814-1.119-5.1358L6.3481 9.0267l-.6697.6697L3 7.0178z" fill="#333333" />
</svg>
