<svg xmlns="http://www.w3.org/2000/svg" viewBox="0 0 20 20">
  <g fill="#333333">
    <path d="M0 3l3-3 2 2-.5.5 1.1647 1.1647c1.3967-.6405 2.665-.026 3.3353.4345V4h2v2H9V5L7.5 6.5l.9381.9381A2.986 2.986 0 0110 7c1.6569 0 3 1.3431 3 3s-1.3431 3-3 3-3-1.3431-3-3c0-.5722.1602-1.107.4381-1.5619L6.5 7.5l-2 2s-1.7784-1.7785-.8353-3.8353L2.5 4.5 2 5 0 3z" />
    <path d="M9 1h2v2H9V1zM9 19v-2h2v2H9zM9 14v2h2v-2H9z" />
  </g>
  <path d="M15 10c-2.7615 0-5 2.2385-5 5s2.2385 5 5 5 5-2.2385 5-5-2.2385-5-5-5z" fill="#999999" />
  <path fill-rule="evenodd" clip-rule="evenodd" d="M14 15v-4h2v4h3l-4 4-4-4h3z" fill="#FFFFFF" />
</svg>
