<svg xmlns="http://www.w3.org/2000/svg" viewBox="0 0 20 20">
  <g fill-rule="evenodd" clip-rule="evenodd">
    <path d="M10 2C7.7909 2 6 3.1193 6 4.5V14H4c-1.1046 0-2 1.1193-2 2.5S2.8954 19 4 19h12c1.1046 0 2-1.1193 2-2.5s-.8954-2.5-2-2.5h-2V4.5C14 3.1193 12.2091 2 10 2z" fill="#888888" />
    <path d="M13 4.5c0 .7042-1.2733 1.5-3 1.5s-3-.7958-3-1.5S8.2733 3 10 3s3 .7958 3 1.5zM7 6.1537C7.733 6.6727 8.8053 7 10 7s2.2671-.3274 3-.8464V14.5c0 .7043-1.2733 1.5-3 1.5s-3-.7957-3-1.5V6.1537zM6.08 15H4c-.5523 0-1 .6716-1 1.5S3.4477 18 4 18h12c.5523 0 1-.6716 1-1.5s-.4477-1.5-1-1.5h-2.08c-.3706 1.1411-1.9848 2-3.92 2s-3.5494-.8589-3.92-2z" fill="#FFFFFF" />
    <path d="M1 9l4 3v-2h3V8H5V6L1 9zm18 0l-4-3v2h-3v2h3v2l4-3z" fill="#333333" />
  </g>
</svg>
