<svg xmlns="http://www.w3.org/2000/svg" viewBox="0 0 20 20">
  <g fill="none" fill-rule="evenodd">
    <path d="M4 13h12c1.1046 0 2 1.1193 2 2.5s-.8954 2.5-2 2.5H4c-1.1046 0-2-1.1193-2-2.5S2.8954 13 4 13z" fill="#DD5228" fill-rule="nonzero" />
    <path d="M4 14c-.5523 0-1 .6716-1 1.5S3.4477 17 4 17h12c.5523 0 1-.6716 1-1.5s-.4477-1.5-1-1.5H4z" fill="#FFF" />
    <path d="M6 3.5C6 2.1193 7.7909 1 10 1c2.2091 0 4 1.1193 4 2.5v10c0 1.3807-1.7909 2.5-4 2.5-2.2091 0-4-1.1193-4-2.5v-10z" fill="#DD5228" fill-rule="nonzero" />
    <path d="M7 3.5v10c0 .7042 1.2733 1.5 3 1.5s3-.7958 3-1.5v-10c0-.7042-1.2733-1.5-3-1.5s-3 .7958-3 1.5z" fill="#FFF" />
    <path d="M10 6C7.7909 6 6 4.8807 6 3.5S7.7909 1 10 1c2.2091 0 4 1.1193 4 2.5S12.2091 6 10 6z" fill="#DD5228" fill-rule="nonzero" />
    <path d="M10 5c1.7267 0 3-.7958 3-1.5S11.7267 2 10 2s-3 .7958-3 1.5S8.2733 5 10 5z" fill="#FFF" />
    <path d="M15 7V5l4 3-4 3V9h-3V7h3zM5 9v2L1 8l4-3v2h3v2H5z" fill="#DD5228" fill-rule="nonzero" />
  </g>
</svg>
