<svg xmlns="http://www.w3.org/2000/svg" viewBox="0 0 20 20">
  <g fill="none" fill-rule="evenodd">
    <g opacity=".6">
      <path d="M4 15.5h2.5v4H4c-1.653 0-2.5-.746-2.5-2s.847-2 2.5-2" fill="#FFF" />
      <path d="M4 15.5h2.5v4H4c-1.653 0-2.5-.746-2.5-2s.847-2 2.5-2h0z" stroke="#999" />
      <path d="M16 15.5h-2.5v4H16c1.653 0 2.5-.746 2.5-2s-.847-2-2.5-2" fill="#FFF" />
      <path d="M16 15.5h-2.5v4H16c1.653 0 2.5-.746 2.5-2s-.847-2-2.5-2h0z" stroke="#999" />
      <path d="M13.5 3.5v16h-7v-16c0-1.201 1.25-3 3.5-3 2.346 0 3.5 1.799 3.5 3" fill="#FFF" />
      <path d="M13.5 3.5v16h-7v-16c0-1.201 1.25-3 3.5-3 2.346 0 3.5 1.799 3.5 3h0z" stroke="#999" />
      <path d="M6.5 3.5c0 1.201 1.462 3 3.5 3 2.346 0 3.5-1.799 3.5-3" stroke="#999" />
      <path d="M15 9V7l4 3-4 3v-2h-3V9h3zM5 11v2l-4-3 4-3v2h3v2H5z" fill="#999" fill-rule="nonzero" />
    </g>
    <path d="M16.6648 2H13V0h7.0026v7H18.002l-.0014-3.6653L13.3352 8 12 6.6648 16.6648 2z" fill="#999" fill-rule="nonzero" />
  </g>
</svg>
