<svg xmlns="http://www.w3.org/2000/svg" viewBox="0 0 144 144">
  <path fill-rule="evenodd" clip-rule="evenodd" d="M72 144c64.5 0 72-32.235 72-72 0-39.7645-22.5-72-72-72S0 32.2355 0 72c0 39.765 7.5 72 72 72z" fill="#1651B0" />
  <path d="M91.9937 92.7312C102.513 86.089 109.5 74.3605 109.5 61c0-20.7107-16.7893-37.5-37.5-37.5S34.5 40.2893 34.5 61c0 13.3605 6.987 25.089 17.5063 31.7312C31.012 96.5073 14 106.461 14 122.592v2.96C24.317 137.021 41.9881 144 72 144c30.012 0 47.683-6.979 58-18.448v-2.96c0-16.131-17.012-26.0847-38.0063-29.8608z" fill="#FFFFFF" />
</svg>
