<svg xmlns="http://www.w3.org/2000/svg" viewBox="0 0 20 20">
  <g fill-rule="evenodd" clip-rule="evenodd">
    <path d="M6.6382 3.884a3.3983 3.3983 0 00.0207 1.1417l.1664.8875c-1.8264.5784-3.434 1.671-4.4963 3.2459-.3089.4578-.9304.5786-1.3883.2698C.483 9.1199.3621 8.4984.671 8.0405c1.4357-2.1283 3.601-3.501 5.9672-4.1565zm6.7235 0a3.3982 3.3982 0 01-.0207 1.1417l-.1664.8875c1.8265.5784 3.434 1.671 4.4964 3.2459.3088.4578.9304.5786 1.3882.2698.4579-.309.5786-.9305.2698-1.3883-1.4358-2.1283-3.601-3.501-5.9673-4.1566zM7.1491 7.64c-1.7259.6409-3.2644 1.8859-4.2624 3.7351-.2623.486-.081 1.0926.405 1.3549.486.2623 1.0927.081 1.355-.4051.687-1.273 1.7144-2.1655 2.8787-2.6776L7.1491 7.64zm5.3254 2.0072l.3763-2.0072c1.726.6408 3.2646 1.8858 4.2626 3.7351.2623.486.0809 1.0926-.4051 1.3549s-1.0927.081-1.355-.4051c-.687-1.273-1.7144-2.1656-2.8788-2.6777zm-4.629 1.7067c-1.0895.457-2.0534 1.2774-2.6922 2.4611-.2623.486-.081 1.0926.405 1.3549.486.2623 1.0927.0809 1.355-.4051.3331-.6172.805-1.0792 1.3458-1.3862a1.8776 1.8776 0 01-.098-.3409l-.3157-1.6838zm3.8954 2.0247a1.88 1.88 0 00.0979-.3409l.3157-1.6838c1.0894.457 2.0533 1.2774 2.6922 2.4611.2623.486.0809 1.0926-.4051 1.3549-.4861.2623-1.0927.0809-1.355-.4051-.3331-.6172-.8049-1.0792-1.3457-1.3862z" fill="#333333" />
    <path d="M10 2C8.4977 2 7.365 3.3649 7.6418 4.8414l1.5023 8.012a.8709.8709 0 001.7119 0l1.5022-8.012C12.635 3.365 11.5022 2 10 2zm1.8069 14.0934c0 .9979-.809 1.8069-1.8069 1.8069-.9979 0-1.8068-.809-1.8068-1.8069 0-.9979.809-1.8068 1.8068-1.8068.9979 0 1.8069.8089 1.8069 1.8068z" fill="#AA252D" />
  </g>
</svg>
