<svg xmlns="http://www.w3.org/2000/svg" viewBox="0 0 20 20">
  <path fill-rule="evenodd" clip-rule="evenodd" d="M11 2h-1v2.019C6.8088 4.2616 4.2617 6.8087 4.019 10H2v1h2.019c.2427 3.1912 2.7898 5.7383 5.981 5.9811V19h1v-2.0189c3.1912-.2428 5.7383-2.7899 5.9811-5.9811H19v-1h-2.0189C16.7383 6.8088 14.1912 4.2617 11 4.019V2zm-1 3.0224C7.3614 5.2602 5.2602 7.3614 5.0224 10H10V5.0224zM5.0224 11c.2378 2.6386 2.339 4.7398 4.9776 4.9776V11H5.0224zM11 15.9776c2.6386-.2378 4.7398-2.339 4.9776-4.9776H11v4.9776zM15.9776 10H11V5.0224c2.6386.2378 4.7398 2.339 4.9776 4.9776z" fill="#333333" />
</svg>
