<svg xmlns="http://www.w3.org/2000/svg" viewBox="0 0 20 20">
  <g fill="#333333" fill-rule="evenodd" clip-rule="evenodd">
    <path d="M8.5 5.75c1.9191 0 3.5831 1.1176 4.4004 2.75-.8175 1.6326-2.4813 2.75-4.4004 2.75-1.9191 0-3.5831-1.1174-4.4004-2.75C4.917 6.8676 6.581 5.75 8.5 5.75zm2.0674 1.3955c.0854.2348.1328.4884.1328.753 0 1.215-.9851 2.2001-2.2002 2.2001s-2.2002-.985-2.2002-2.2002c0-.2645.0474-.5181.1328-.7529A4.1841 4.1841 0 005.046 8.5a4.1853 4.1853 0 001.2842 1.292 4.0279 4.0279 0 002.1699.6328 4.0264 4.0264 0 002.1689-.6328A4.187 4.187 0 0011.9541 8.5a4.1862 4.1862 0 00-1.2852-1.291 4.1653 4.1653 0 00-.1015-.0635zm-2.8926-.3467c-.4554.0001-.825.369-.8252.8243 0 .4555.3697.825.8252.8251A.8254.8254 0 008.5 7.6231c-.0002-.4554-.3697-.8243-.8252-.8243z" />
    <path d="M8.5 1C12.6421 1 16 4.3579 16 8.5c0 1.5498-.471 2.9892-1.2764 4.1846l4.2744 4.1679L16.9023 19l-4.3173-4.2119A7.4627 7.4627 0 018.5 16C4.3579 16 1 12.6421 1 8.5S4.3579 1 8.5 1zm0 2C5.4624 3 3 5.4624 3 8.5S5.4624 14 8.5 14 14 11.5376 14 8.5 11.5376 3 8.5 3z" />
  </g>
</svg>
