<svg xmlns="http://www.w3.org/2000/svg" viewBox="0 0 20 20">
  <path fill-rule="evenodd" clip-rule="evenodd" d="M1.0337 13.6071c-.054-.15-.043-.292.032-.425l1.753-3.182-1.627-3.17c-.076-.141-.086-.287-.03-.437.053-.151.152-.26.295-.331.152-.072.307-.081.467-.029.159.05.277.147.353.288l1.224 2.295 1.222-2.295c.076-.141.194-.238.354-.288.159-.052.311-.043.454.029.151.071.255.18.309.331.055.15.044.296-.031.437L4.1807 10l1.753 3.182c.076.133.087.275.032.425-.054.15-.157.26-.309.331-.143.071-.294.081-.453.029-.161-.051-.278-.144-.353-.277l-1.35-2.543-1.35 2.543c-.076.133-.193.226-.353.277-.16.052-.316.042-.467-.029-.143-.071-.241-.181-.297-.331zm8 0c.056.15.154.26.297.331.151.071.307.081.467.029.16-.051.277-.144.353-.277l1.35-2.543 1.35 2.543c.075.133.192.226.353.277.159.052.31.042.453-.029.152-.071.255-.181.309-.331.055-.15.044-.292-.032-.425l-1.753-3.182 1.628-3.17c.075-.141.086-.287.031-.437-.054-.151-.158-.26-.309-.331-.143-.072-.295-.081-.454-.029-.16.05-.278.147-.354.288l-1.222 2.295-1.224-2.295c-.076-.141-.194-.238-.353-.288-.16-.052-.315-.043-.467.029-.143.071-.242.18-.295.331-.056.15-.046.296.03.437l1.627 3.17-1.753 3.182c-.075.133-.086.275-.032.425zm6 0c.056.15.154.26.297.331.151.071.307.081.467.029.16-.051.277-.144.353-.277l1.35-2.543 1.35 2.543c.075.133.192.226.353.277.159.052.31.042.453-.029.152-.071.255-.181.309-.331.055-.15.044-.292-.032-.425l-1.753-3.182 1.628-3.17c.075-.141.086-.287.031-.437-.054-.151-.158-.26-.309-.331-.143-.072-.295-.081-.454-.029-.16.05-.278.147-.354.288l-1.222 2.295-1.224-2.295c-.076-.141-.194-.238-.353-.288-.16-.052-.315-.043-.467.029-.143.071-.242.18-.295.331-.056.15-.046.296.03.437l1.627 3.17-1.753 3.182c-.075.133-.086.275-.032.425zM7.147 13.146c-.099.099-.147.216-.147.354 0 .138.048.256.147.354.097.097.215.146.353.146.138 0 .256-.049.353-.146.098-.098.147-.216.147-.354 0-.138-.049-.255-.147-.354C7.756 13.049 7.638 13 7.5 13c-.138 0-.256.049-.353.146z" fill="#333333" />
</svg>
