<svg xmlns="http://www.w3.org/2000/svg" viewBox="0 0 20 20">
  <g fill-rule="evenodd" clip-rule="evenodd">
    <path d="M2.693 9.3434c-.5262.1169-.9416.1565-1.1929.1566L1.5 8.5c.1825 0 .5263-.0329.9762-.1328.7565-.1681 1.513-.4706 2.2173-.9397a6.228 6.228 0 00.953-.781c.3459-.346.5421-.7406.8418-1.5964.2978-.8502.3613-1.0195.5523-1.4155.1616-.3348.3432-.6416.5572-.9316a7.172 7.172 0 01.3795-.4718C9.0681.9882 10.1904.532 10.98.5004l.04.9992c-.1104.0044-.3434.0503-.6589.1785-.5496.2234-1.1055.6124-1.6323 1.2127a6.1771 6.1771 0 00-.3265.4061c-.1754.2376-.3255.4911-.4611.7723-.1679.3478-.226.5028-.5092 1.3114-.3468.9903-.595 1.4894-1.0785 1.973a7.2273 7.2273 0 01-1.1057.9061c-.8141.5423-1.6844.8903-2.5548 1.0837zM11 19c-4.4183 0-8-.8955-8-2 0-1.1046 3.5817-2 8-2s8 .8954 8 2c0 1.1045-3.5817 2-8 2zm5.4143-2.4441C15.0093 16.2046 13.0737 16 11 16s-4.0093.2046-5.4143.5559c-.5462.1365-.9875.2899-1.296.4441.3085.1541.7498.3075 1.296.444C6.9907 17.7953 8.9263 18 11 18s4.0093-.2047 5.4143-.556c.5462-.1365.9875-.2899 1.296-.444-.3085-.1542-.7498-.3076-1.296-.4441z" fill="#999" />
    <path d="M2.9143 12.9685c2.302 2.8775 11.1123 1.7632 12.7879-2.7051.2674-.713.5924-1.4236 1.0189-2.2562.1129-.2205.3874-.7392.6246-1.1876.1752-.3311.3301-.6238.3845-.7294.3678-.7144.6007-1.2362.7501-1.7186.4218-1.3619.0971-2.4214-1.1449-3.0424-2.8619-1.431-6.3514-.0034-8.0566 5.9648-.2607.9125-1.1653 1.52-2.8715 2.0656-.3716.1188-1.6667.4908-1.6313.4802-.9847.2935-1.527.5234-1.915.9005-.6331.6153-.5825 1.4335.0533 2.2282zM15.386 7.3234c-.4505.8795-.7981 1.6395-1.0883 2.4133-1.2573 3.3527-8.6208 4.284-10.212 2.2948-.1558-.1946-.1857-.2076-.1845-.2115.0003-.001.0025-.0014.0053-.0041.1498-.1456.553-.3165 1.298-.5385-.0545.0162 1.2628-.3622 1.6596-.489 2.1446-.6858 3.4163-1.54 3.857-3.0823.834-2.919 2.0389-4.5021 3.4378-5.0744.9117-.373 1.8738-.2768 2.5057.0391.5176.2589.6044.5419.3829 1.257-.1175.3793-.3201.8332-.651 1.4758-.0501.0974-.1971.3751-.3665.6953-.2398.4532-.5248.9916-.644 1.2245z" fill="#333333" />
  </g>
</svg>
