<svg xmlns="http://www.w3.org/2000/svg" viewBox="0 0 20 20">
  <path d="M0 5c0-.5523.4477-1 1-1V3c0-.5523.4477-1 1-1V1c0-.5523.4477-1 1-1h7.5a1 1 0 01.8.4L12.5 2H17c.5523 0 1 .4477 1 1v1c.5523 0 1 .4477 1 1v1c.5523 0 1 .4477 1 1v12c0 .5523-.4477 1-1 1H1c-.5523 0-1-.4477-1-1V5z" fill="#333333" />
  <g fill="#FFFFFF">
    <path d="M10.5 1H3v1h5.5a1 1 0 01.8.4L10.5 4H17V3h-5l-1.5-2z" />
    <path d="M2 3h6.5L10 5h8v1.0001H8.5L7.3 4.4a1 1 0 00-.8-.4H2V3zM10 9l-3.441 1.7205L10 12.4409l3.4409-1.7204L10 9zM6 15v-3.441l3.5 1.75v3.441L6 15zM14 15l-3.5 1.75v-3.441l3.5-1.75V15z" />
    <path fill-rule="evenodd" clip-rule="evenodd" d="M6.5 5H1v14.0001h18v-12H8L6.5 5zM10 8l-5 2.5v5l5 2.5 5-2.5v-5L10 8z" />
  </g>
</svg>
