<svg xmlns="http://www.w3.org/2000/svg" viewBox="0 0 10 10">
  <path fill-rule="evenodd" clip-rule="evenodd" d="M1 .5a.5.5 0 01.5-.5h3.75a.5.5 0 01.4.2l.6.8H8.5a.5.5 0 01.5.5V2a.5.5 0 01.5.5V3a.5.5 0 01.5.5v6a.5.5 0 01-.5.5h-9a.5.5 0 01-.5-.5v-7A.5.5 0 01.5 2v-.5A.5.5 0 011 1V.5zm7.5 1V2H5.25l-.6-.8a.5.5 0 00-.4-.2H1.5V.5h3.75l.75 1h2.5zM9 3v-.5H5l-.75-1H1V2h2.25a.5.5 0 01.4.2l.6.8H9zM.5 2.5h2.75l.75 1h5.5v6h-9v-7zm5.9142 2.5858c.781.781.781 2.0474 0 2.8284-.781.781-2.0474.781-2.8284 0-.781-.781-.781-2.0474 0-2.8284.781-.781 2.0474-.781 2.8284 0zm-.1914 2.2834c.4174-.5858.3634-1.4043-.1621-1.9299-.5256-.5255-1.3441-.5796-1.93-.162l2.092 2.092zM3.7772 5.6308c-.4175.5858-.3634 1.4043.1621 1.9299.5256.5255 1.3441.5796 1.93.162l-2.092-2.092z" fill="#333" />
</svg>
