<svg xmlns="http://www.w3.org/2000/svg" viewBox="0 0 20 20">
  <g fill="#333333">
    <path d="M5 5h10v1H5V5zM15 8H5v1h10V8zM5 11h10v1H5v-1zM15 14H5v1h10v-1z" />
    <path fill-rule="evenodd" clip-rule="evenodd" d="M3.994 1C2.8946 1 2 1.8932 2 2.995V17.005C2 18.1074 2.8928 19 3.994 19H16.006C17.1055 19 18 18.1068 18 17.0049V2.9951C18 1.8926 17.1072 1 16.0059 1H3.9941zM3 17.0049V2.9951C3 2.446 3.4462 2 3.994 2H16.006c.5492 0 .9941.445.9941.995V17.005c0 .549-.4462.9951-.9941.9951H3.9941C3.4449 18 3 17.555 3 17.0049z" />
  </g>
</svg>
