<svg xmlns="http://www.w3.org/2000/svg" viewBox="0 0 20 20">
  <path fill-rule="evenodd" clip-rule="evenodd" d="M3.994 1C2.8946 1 2 1.8932 2 2.995V17.005C2 18.1074 2.8928 19 3.994 19H16.006C17.1055 19 18 18.1068 18 17.0049V2.9951C18 1.8926 17.1072 1 16.0059 1H3.9941zM3.5 16.5671V3.4329c0-.5147.4143-.9329.923-.9329H15.577c.51 0 .9231.4172.9231.933V16.567c0 .5146-.4143.9329-.9231.9329H4.4231c-.51 0-.9231-.4172-.9231-.9329zM6 5.5h8V7H6V5.5zm8 3.75H6v1.5h8v-1.5zM14 13H6v1.5h8V13z" fill="currentColor" />
</svg>
