<svg xmlns="http://www.w3.org/2000/svg" viewBox="0 0 200 155">
  <g fill="#EEEEEE">
    <path fill-rule="evenodd" clip-rule="evenodd" d="M0 5.8995C0 2.6413 2.677 0 5.9732 0h65.8221c3.299 0 7.8443 1.8575 10.1954 4.1914L103.458 25.502c2.331 2.3148 4.222 6.8489 4.222 10.1212v12.4801h54.325c3.493 0 8.305 1.9668 10.795 4.438l22.729 22.5643c2.469 2.451 4.471 7.2517 4.471 10.7165v62.8988c0 3.468-2.819 6.279-6.292 6.279h-67.841l5.969-6.288h61.83V85.8222l-31.671.0094.01-31.4401H107.68v46.5755c0 3.275-2.662 5.93-5.943 5.93H33.2012v-5.939h68.4958V90.7019H79.7479V64.8703c0-1.5249-.5899-2.1333-2.0683-2.1333-1.6241 0-4.2692.9127-5.8933 2.1333v25.8316H60.5398V53.3666h8.6445l.6628 2.3623c2.436-1.7539 5.9099-3.1248 9.7515-3.1248 5.9099 0 11.969 2.2873 11.969 10.0578v18.463h10.1294V35.6233l-29.9106.0089.0089-29.6935H5.9822v95.0193h9.2724v5.939H5.9427c-3.282 0-5.9427-2.643-5.9427-5.9V5.8995zm98.7063 24.2253L77.7686 8.908v21.2168h20.9377zm91.7927 49.8755l-22.17-22.4648v22.4648h22.17z" />
    <path fill-rule="evenodd" clip-rule="evenodd" d="M14.75 65.0242c0 18.1363 5.7606 26.4401 21.127 26.4401 15.29 0 20.9814-8.3076 20.9814-26.4401S51.1707 38.509 35.877 38.509c-15.3664 0-21.127 8.379-21.127 26.5152zm21.127 15.3909c5.4657 0 7.9054-2.7417 7.9054-15.3909s-2.4397-15.4697-7.9054-15.4697c-5.5421 0-7.9053 2.8957-7.9053 15.466 0 12.5741 2.3632 15.3946 7.9053 15.3946z" />
    <path d="M150.368 94.0741c-.86-.929-2.251-.929-3.111 0l-31.845 32.3569-14.559-15.855c-.8692-.934-2.2822-.934-3.1554 0l-10.005 10.559c-.8688.934-.8688 2.453 0 3.391l25.9604 28.552c.504.542 1.184.731 1.843.636.675.109 1.382-.075 1.904-.636l42.894-45.19c.86-.925.86-2.424 0-3.349l-9.926-10.4649zM28.7145 110.46c0 12.969 4.4867 17.816 17.9466 17.816h8.9733V110.46l26.9199 22.27L55.6344 155v-17.816h-8.9733c-17.9466 0-26.9199-7.624-26.9199-26.724V92.6437h8.9733V110.46z" />
  </g>
</svg>
