<svg xmlns="http://www.w3.org/2000/svg" viewBox="0 0 200 190">
  <g fill="#EEEEEE">
    <path fill-rule="evenodd" clip-rule="evenodd" d="M39.7788 102.677c-17.0395 0-23.4272-9.3221-23.4272-29.6815 0-20.3595 6.3877-29.7655 23.4272-29.7655 16.9587 0 23.2657 9.4102 23.2657 29.7655 0 20.3552-6.3111 29.6815-23.2657 29.6815zm8.7678-29.6811c0 14.1997-2.7053 17.2774-8.766 17.2774-6.1455 0-8.766-3.1662-8.766-17.2816 0-14.1112 2.6205-17.3618 8.766-17.3618 6.0607 0 8.766 3.1662 8.766 17.366z" />
    <path fill-rule="evenodd" clip-rule="evenodd" d="M6.6236 0C2.9684 0 0 2.965 0 6.6227V113.377C0 117.034 2.9503 120 6.5897 120H87.562v10.897c2.4547-.166 4.9552.549 7.0275 2.152V120h18.2235c3.638 0 6.59-2.98 6.59-6.657v-11.522h.004V91.0696h-.004V77.0591h38.443l-.01 35.2939 35.137-.01v70.598h-68.597L117.754 190h75.265c3.854 0 6.981-3.156 6.981-7.048v-70.61c0-3.889-2.221-9.278-4.96-12.03l-25.217-25.3301C167.061 72.2078 161.721 70 157.846 70h-38.443V39.99c0-3.6734-2.096-8.7632-4.682-11.3618L90.9172 4.7052C88.3103 2.0851 83.27 0 79.6119 0H6.6236zM112.764 91.0696v-51.08l-33.1675.01.0099-33.3333H6.628V113.333h106.136v-11.512H88.4345V72.8224c0-1.7117-.6541-2.3947-2.2934-2.3947-1.8009 0-4.734 1.0245-6.5349 2.3947v28.9986h-12.471V59.9086h9.5857l.7349 2.6519c2.7013-1.9689 6.5533-3.5078 10.8132-3.5078 6.5533 0 13.272 2.5676 13.272 11.2907v20.7262h11.223zM86.2385 10l23.2175 23.8175H86.2385V10zm103.2205 95.807l-24.596-25.2184v25.2184h24.596z" />
    <path d="M141.398 121.606c.954-1.043 2.496-1.043 3.45 0l11.007 11.748c.953 1.038.953 2.722 0 3.759l-47.564 50.73c-.579.63-1.362.836-2.112.714-.729.106-1.484-.106-2.043-.714l-28.7865-32.052c-.9634-1.053-.9634-2.758 0-3.806l11.0942-11.854c.9683-1.048 2.5351-1.048 3.4986 0l16.1447 17.799 35.311-36.324z" />
  </g>
</svg>
