<svg xmlns="http://www.w3.org/2000/svg" viewBox="0 0 20 20">
  <path fill-rule="evenodd" clip-rule="evenodd" d="M9 2h2v4.126c1.7252.444 3 2.0102 3 3.874s-1.2748 3.4299-3 3.874V18H9v-4.126C7.2748 13.4299 6 11.8638 6 10s1.2748-3.43 3-3.874V2zM5.75 4.75h-.5c-.5523 0-1 .4477-1 1v3.257a1 1 0 01-.5528.8944L3.5 10l.1972.0986a1 1 0 01.5528.8944v3.257c0 .5523.4477 1 1 1h.5v1.5h-1c-1.1046 0-2-.8954-2-2v-3c0-.5523-.4477-1-1-1h-.5v-1.5h.5c.5523 0 1-.4477 1-1v-3c0-1.1046.8954-2 2-2h1v1.5zm8.5001 10.5h.5c.5522 0 1-.4477 1-1v-3.257c0-.3787.214-.725.5527-.8944L16.5001 10l-.1973-.0986a1 1 0 01-.5527-.8944V5.75c0-.5523-.4478-1-1-1h-.5v-1.5h1c1.1045 0 2 .8955 2 2v3c0 .5523.4477 1 1 1h.5v1.5h-.5c-.5523 0-1 .4477-1 1v3c0 1.1046-.8955 2-2 2h-1v-1.5z" fill="#333333" />
</svg>
