<svg xmlns="http://www.w3.org/2000/svg" viewBox="0 0 20 20">
  <path fill-rule="evenodd" clip-rule="evenodd" d="M9.9183 19.0001c4.974.0531 9.0646-3.9888 9.0816-8.9739.0171-4.9446-3.9863-9.0027-8.9046-9.0261C5.0818.9776 1.0335 4.9664 1.0002 9.9614.967 14.8664 4.9938 18.947 9.9183 19zm.009-1c3.898.0416 7.1856-2.7459 7.9197-6.4429a426.7045 426.7045 0 01-.3739-.6431c-.3299-.5679-.6666-1.1477-1.01-1.724-.4676-.7853-.2467-1.5883.8174-2.5093C16.0276 3.937 13.2723 2.0153 10.0847 2a8.2213 8.2213 0 00-1.291.0956c.4526.1666.8017.5232.714 1.0338-.046.2654-.0372.54-.0256.8986.0061.1887.013.4006.013.6467.206-.142.3798-.271.5343-.3856.3035-.2251.533-.3954.7884-.5027.3784-.1593.851-.3015 1.2204-.208.266.0676.6677.649.5949.8002-.1252.2574-.3828.4519-.6389.6452-.0931.0703-.1861.1404-.2723.2134-.104.0878-.2137.1704-.3233.2528-.206.155-.4118.3099-.579.4996-.4403.5004-.8806 1.0179-1.2203 1.5876-.2229.3745-.3837.7859-.5446 1.1974-.0707.1809-.1415.3618-.2175.5396a46.5206 46.5206 0 01-.1752-.0045c-.0584-.0016-.1168-.0032-.1752-.0045-.054-.5301-.107-1.0593-.1609-1.5975-1.5852-.522-2.5189-.1314-2.4308 1.07.0207.2899.4107.8182.5428.792 1.1756-.235 1.3408.4857 1.5086 1.2177.0293.128.0587.2563.0936.3799.7854.4149 1.4513.2529 2.155-.3015.9984-.7857 1.7703-.6732 2.7202.1134.413.343.8894.6121 1.3623.8793.0817.0461.1633.0922.2444.1386.7162.4095.825.8973.3163 1.5615-.5445.711-1.0639 1.4418-1.5708 2.1798-.7135 1.0404-1.684 1.6578-2.9349 1.9611.0157-.242.0385-.476.0607-.7038.0502-.5153.0974-.9993.0525-1.4742-.0467-.4905-.2426-1.0548-.5652-1.4103l-.054-.0596c-.5256-.58-.9818-1.0836-1.2338-1.933-.1995-.6732-1.215-1.2555-1.9914-1.5759-2.119-.873-2.7112-1.8594-2.6222-4.1355.0282-.727.1305-1.5015.4579-2.1503C2.9447 5.6997 2.015 7.7181 2 9.9657c-.0295 4.36 3.55 7.9872 7.9273 8.0344z" fill="currentColor" />
</svg>
