<svg xmlns="http://www.w3.org/2000/svg" viewBox="0 0 20 20">
  <path fill-rule="evenodd" clip-rule="evenodd" d="M3.832 1c-.551 0-.9985.4448-.9985.9934v7.6337c.4296-.029.8692.1309 1.193.4815l.0053.0057L6 10c1.1994-.826 4.5-4.5 4.5-4.5L15 10v6.7285H8.3279L7.1298 18H17.84c.5485 0 .9934-.447.9934-.9985V6.9985c0-.551-.316-1.3145-.7058-1.7043l-3.5884-3.5884C14.1463 1.3128 13.3865 1 12.835 1H3.832z" fill="#333333" />
  <path fill-rule="evenodd" clip-rule="evenodd" d="M8.072 17h9.7615V6.9985l-5 .0015.0015-5H3.8335v7.932c.0678.0521.1324.111.193.1766l.0053.0057 1.4765 1.6198 4.167-4.2652c.5957-.6287 1.5726-.6252 2.164.0106l1.5715 1.669c.5636.6102.5636 1.5755 0 2.1857l-.008.0087L8.0721 17zm5.7615-14.5l3.5 3.5726h-3.5V2.5z" fill="#FFFFFF" />
  <path d="M10.9977 8.3108c-.1357-.1478-.3553-.1478-.4911 0l-5.0275 5.1458-2.2986-2.5215c-.1371-.1485-.3602-.1485-.498 0l-1.5796 1.6793c-.1372.1485-.1372.39 0 .5392l4.0984 4.5406c.0797.0863.187.1163.291.1013.1067.0172.2182-.012.3007-.1013l6.7718-7.1866c.1358-.147.1358-.3855 0-.5325l-1.5671-1.6643z" fill="#333333" />
</svg>
