<svg xmlns="http://www.w3.org/2000/svg" viewBox="0 0 18 18">
  <defs>
    <clippath id="clip0_16556_11170">
      <path fill="#fff" d="M0 0h18v18H0z" />
    </clippath>
  </defs>
  <g clip-path="url(#clip0_16556_11170)" fill-rule="evenodd" clip-rule="evenodd">
    <path d="M2.6932 1c-.524 0-.9496.423-.9496.9447v7.2598c.4086-.0275.8266.1245 1.1346.458a1.4729 1.4729 0 00-.1834-.168V1.951h8.5606l-.0014 4.7551 4.7551-.0014v9.5116H6.7258l.2433-.2582-1.1396 1.2092h10.1857c.5216 0 .9448-.4251.9448-.9496v-9.513c0-.524-.3005-1.2501-.6712-1.6208l-3.4127-3.4127C12.5023 1.2974 11.7797 1 11.2553 1h-8.562zM9.041 7.9527c.1292-.1405.338-.1405.4672 0l1.4903 1.5828c.1291.1398.1291.3666 0 .5065l-6.4402 6.8346c-.0784.0849-.1845.1127-.286.0963-.0988.0143-.2009-.0143-.2767-.0963L.0978 12.5584c-.1304-.1419-.1304-.3716 0-.5128L1.6 10.4485c.1311-.1412.3433-.1412.4737 0l2.186 2.3981L9.041 7.9527z" fill="#888888" />
    <path d="M6.7257 16.2653h9.2833V6.7537l-4.7551.0014L11.2553 2H2.6947v7.5434c.0645.0497.126.1057.1835.168l.005.0055 1.4042 1.5404 3.963-4.0563c.5665-.5979 1.4955-.5945 2.0579.01l1.4946 1.5874c.536.5803.536 1.4983 0 2.0786l-.0076.0083-5.0696 5.38zm5.4792-13.7898l3.3286 3.3977h-3.3286V2.4754z" fill="#FFFFFF" />
  </g>
</svg>
