<svg xmlns="http://www.w3.org/2000/svg" viewBox="0 0 20 20">
  <path fill-rule="evenodd" clip-rule="evenodd" d="M3.832 1c-.551 0-.9985.4448-.9985.9934v7.6337a1.4729 1.4729 0 011 .3048V2h9.0015l-.0015 5 5-.0015V17H8.0721l-.9423 1H17.84c.5484 0 .9934-.447.9934-.9985V6.9985c0-.551-.316-1.3145-.7058-1.7043l-3.5884-3.5884C14.1463 1.3128 13.3865 1 12.835 1H3.832zm10.0015 1.5l3.5 3.5726h-3.5V2.5zm-3.3269 5.8108c.1358-.1477.3554-.1477.4911 0l1.5671 1.6643c.1358.147.1358.3855 0 .5325L5.793 17.6943c-.0825.0893-.194.1185-.3007.1013-.104.015-.2113-.015-.291-.1013L1.103 13.1537c-.1372-.1493-.1372-.3908 0-.5393l1.5795-1.6792c.1379-.1486.361-.1486.4981 0l2.2986 2.5215 5.0275-5.1459z" fill="currentColor" />
</svg>
