<svg xmlns="http://www.w3.org/2000/svg" viewBox="0 0 24 24">
  <path fill-rule="evenodd" clip-rule="evenodd" d="M5.8 3.6h1.4V1.2H4.4c-1.1046 0-2 .8954-2 2v6.6c0 .5523-.4477 1-1 1H0v2.4h1.4c.5523 0 1 .4477 1 1v6.6c0 1.1046.8954 2 2 2h2.8v-2.4H5.8c-.5523 0-1-.4477-1-1v-6.182a1 1 0 00-.5528-.8944L3.6 12l.6472-.3236A1 1 0 004.8 10.782V4.6c0-.5523.4477-1 1-1zm12.4 16.8h-1.4v2.4h2.8c1.1046 0 2-.8954 2-2v-6.6c0-.5523.4477-1 1-1H24v-2.4h-1.4c-.5523 0-1-.4477-1-1V3.2c0-1.1046-.8954-2-2-2h-2.8v2.4h1.4c.5523 0 1 .4477 1 1v6.182a1 1 0 00.5528.8944L20.4 12l-.6472.3236a1 1 0 00-.5528.8944V19.4c0 .5523-.4477 1-1 1z" fill="currentColor" />
</svg>
