<svg xmlns="http://www.w3.org/2000/svg" viewBox="0 0 20 20">
  <path d="M1 3.5C1 2.1193 2.1193 1 3.5 1h13C17.8807 1 19 2.1193 19 3.5v13c0 1.3807-1.1193 2.5-2.5 2.5h-13C2.1193 19 1 17.8807 1 16.5v-13z" fill="#333333" />
  <path fill-rule="evenodd" clip-rule="evenodd" d="M3.5 2C2.6716 2 2 2.6716 2 3.5V8h16V3.5c0-.8284-.6716-1.5-1.5-1.5h-13zM18 16.5V15H2v1.5c0 .8284.6716 1.5 1.5 1.5h13c.8284 0 1.5-.6716 1.5-1.5zM6 9H3v5h1v-2h2c.5523 0 1-.4477 1-1v-1c0-.5523-.4477-1-1-1zm-2 1h1.5a.5.5 0 010 1H4v-1zM7.5 9h1.25l1 4 1-4H12l-1.25 5h-2L7.5 9zM15.5 10H13V9h4v1l-2.5 3H17v1h-4v-1l2.5-3z" fill="#FFFFFF" />
</svg>
