<svg xmlns="http://www.w3.org/2000/svg" viewBox="0 0 20 20">
  <path d="M3.1133 2.5c-1.8367 5.0813-1.7265 10.0527.3877 14.999l-1.3926.001c-.0546-.0012-.1255-.1093-.1592-.1855-.5525-1.2379-1.1698-2.4349-1.4834-3.834-.8511-3.7936-.5563-7.3908 1.0713-10.753.046-.0937.1345-.1738.213-.2275h1.3632zm15.162.0107c.0636.0025.1454.1037.1866.1875 1.2904 2.6152 1.734 5.4709 1.4609 8.5625-.1983 2.2587-.9677 4.1846-1.8691 6.0518-.0424.0888-.1473.185-.2246.1875L16.5 17.498c2.1235-4.949 2.228-9.9094.3925-14.996l1.3828.0087zM8.625 4.5c2.2779 0 4.125 1.847 4.125 4.125a4.1096 4.1096 0 01-.9864 2.6768c.2327-.0106.5207.1005.7901.3427l2.6054 2.2159c.4218.3794.4573.9998.0791 1.3779-.3781.3781-.9984.3423-1.3779-.0791l-2.2158-2.6055c-.2422-.2693-.3533-.5574-.3428-.79a4.1096 4.1096 0 01-2.6767.9863c-2.278 0-4.125-1.8471-4.125-4.125C4.5 6.347 6.347 4.5 8.625 4.5zm0 1.375c-1.5184.0002-2.7499 1.2316-2.75 2.75 0 1.5185 1.2315 2.7498 2.75 2.75 1.5186 0 2.75-1.2313 2.75-2.75-.0002-1.5185-1.2315-2.75-2.75-2.75z" fill="#333333" />
</svg>
