<svg xmlns="http://www.w3.org/2000/svg" viewBox="0 0 20 20">
  <g fill="#333333">
    <path d="M8.03 1.2083L11.876 3.5 8.03 6V1.2082z" />
    <path fill-rule="evenodd" clip-rule="evenodd" d="M9.819 16.94H8.411V9.241c0-.6312.0937-.8429.3419-1.4032l.0091-.0208-.864-.352-.336.864c-.624-.304-1.056-.464-1.776-.464-1.072 0-3.313.816-3.313 3.569 0 2.096 1.297 3.441 3.394 3.441.256 0 .512 0 .784-.032.136-.0079.272-.0207.4079-.0334.12-.0113.2401-.0226.3601-.0306v2.161H5.658v.896h4.161v-.896zM5.818 8.761c.528 0 1.168.177 1.6.465h.001v4.657c-.416.08-.832.097-1.249.097-1.633 0-2.657-.736-2.657-2.465 0-1.393.784-2.754 2.305-2.754z" />
    <path d="M19 3h-6v1h6V3zM13 6h6v1h-6V6zM19 9h-6v1h6V9zM13 12h6v1h-6v-1zM19 15h-6v1h6v-1z" />
  </g>
</svg>
