<svg xmlns="http://www.w3.org/2000/svg" viewBox="0 0 150 155">
  <path d="M98.5439 131.082c.1472-.357.6401-.357.7872 0l2.9509 7.173c.227.549.653.987 1.189 1.22l6.989 3.028c.348.151.348.657 0 .808l-6.989 3.029c-.536.232-.962.67-1.189 1.22l-2.9509 7.171c-.147.358-.6402.358-.7872 0l-2.9521-7.171c-.2266-.55-.6521-.988-1.1875-1.22l-6.9893-3.029c-.3487-.151-.3487-.657 0-.808l6.9893-3.028c.5354-.233.9609-.671 1.1875-1.22l-.002-.003 2.9541-7.17zm25.0711-39.9922c.319-.7752 1.387-.7751 1.705 0l6.396 15.5402c.491 1.191 1.414 2.138 2.574 2.642l15.144 6.563c.755.327.755 1.423 0 1.75l-15.144 6.562c-1.16.504-2.083 1.452-2.574 2.642l-6.396 15.541c-.318.775-1.386.775-1.705 0l-6.395-15.541c-.491-1.19-1.414-2.138-2.574-2.642l-15.1431-6.562c-.7555-.327-.7555-1.423 0-1.75l15.1431-6.563c1.16-.504 2.083-1.451 2.574-2.642l-.005-.005 6.4-15.5352zM12.5254 119.896h18.7881v13.322H0V99.9141h12.5254v19.9819zM62.6279 13.3213c23.3456 0 42.9611 16.9828 48.5231 39.9658.001.0015.001.0034.001.0049.542 2.241.952 4.5389 1.217 6.8838.012.1046.023.2096.034.3144.216 2.0079.327 4.0499.327 6.1192 0 29.4296-22.4315 53.2866-50.1021 53.2866S12.5255 96.039 12.5254 66.6094a57.2214 57.2214 0 01.4023-6.7871 56.0654 56.0654 0 011.1768-6.5352c5.562-22.983 25.1779-39.9658 48.5234-39.9658zm46.9711 53.3096c-4.46 8.8682-11.0757 16.3251-19.1019 21.581v9.7031H42.2734L29.2871 84.1035c-5.5759-4.7709-10.2296-10.7114-13.6299-17.4726.0111 27.5804 21.0362 49.9351 46.9707 49.9351 24.32 0 44.3231-19.6582 46.7281-44.8492.16-1.6723.242-3.369.243-5.0859zM72.4131 78.6826H44.8574V94.252h42.1953V49.374H72.4131v29.3086zm-40.4727 2.7471l11.1944 11.9062V78.1455L31.9404 66.2393v15.1904zm30.6875-64.7774c-23.7557 0-43.3929 18.7562-46.5332 43.1045 2.7691 7.3579 7.0374 13.9053 12.4014 19.2168V61.2803h27.5557V31.9727l20.667.0127L90.4971 46.626v37.626c8.3274-5.9397 14.8879-14.464 18.6629-24.4952-3.14-24.3482-22.7764-43.1044-46.5321-43.1045zM44.3525 76.8506h25.1211L58.2783 64.9443H33.1582l11.1943 11.9063zm15.1436-13.2022l11.1953 11.9073V48.8379L59.4961 36.9512v26.6972zM71.9092 47.543h14.2822L74.9971 35.6357H60.7324L71.9092 47.543zM31.3135 13.3223H12.5254v19.9824H0V0h31.3135v13.3223zm93.9425 19.9824H112.73V13.3223H93.9414V0h31.3146v33.3047z" fill="#EEEEEE" />
</svg>
