<svg xmlns="http://www.w3.org/2000/svg" viewBox="0 0 20 20">
  <path d="M18.1826 10.6191c.3892-.1953.842.2245.6299.6436l-1.54 3.04 1.1191.5801c.2856.1477.3454.5305.1182.7578l-3.8789 3.8711c-.3338.3323-.8955.0279-.7998-.4336l.5732-2.7636-1.5361-.959c-.2834-.1774-.2995-.5847-.0313-.7842l5.2695-3.9053.0762-.0469zm-3.1572-8.7695c1.1718.0002 2.1248.954 2.125 2.125v6.6152l-4.7578 3.378-.002.001c-.6918.514-.6518 1.5656.0801 2.0234l1.0938.6797-.0997.4785H3.9746c-1.1718-.0002-2.1248-.9532-2.125-2.125V3.9746c.0002-1.171.9532-2.1248 2.125-2.125h11.0508z" fill="#333333" />
  <path d="M15.0254 2.7002c.7026.0002 1.2742.5718 1.2744 1.2744V8.957c-.0095.0151-.0202.0323-.0322.0508a5.9975 5.9975 0 01-.2901.4043c-.2631.3383-.6665.7919-1.2216 1.2461a8.0294 8.0294 0 01-.6661.4883V6.9502l-2.04-2.038-3.0596-.002v4.08h-4.08v2.1563a8.0226 8.0226 0 01-.666-.4883c-.5552-.4542-.9586-.9078-1.2217-1.246a5.9995 5.9995 0 01-.29-.4044c-.0121-.0185-.0228-.0357-.0323-.0508V3.9746c.0002-.7026.5718-1.2742 1.2744-1.2744h11.0508z" fill="#666666" />
  <path d="M2.7002 10.3525a8.8497 8.8497 0 001.0058.9639c.4002.3273.8711.6537 1.416.9453l1.8282 1.8281h5.3018c-.543.5436-.46 1.4779.2187 1.9024l.4951.3076H3.9746c-.7026-.0002-1.2742-.5718-1.2744-1.2744v-4.6729zm13.5996.8409l.4248-.3018v.001l-3.501 2.4853.8662-.6152v-.6191a8.7805 8.7805 0 001.2041-.8272 8.8489 8.8489 0 001.0059-.9639v.8409z" fill="#D7D7D7" />
  <path d="M13.5801 13.124l-.6416.4561H7.332v-2.168h4.0801v-4.079h2.168v5.7909zm-6.503-1.7861v2.1142L5.42 11.7949V9.6807l1.6572 1.6572zm3.9004-.1807H7.2578L5.6006 9.5h3.7187l1.6582 1.6572zm.1797-3.8994v3.7197L9.5 9.3193V5.6035l1.6572 1.6543zm2.2949-.1806h-2.1142L9.6826 5.4198h2.1123l1.6572 1.6572z" fill="#FFFFFF" />
  <path d="M16.4795 14.207a.4765.4765 0 00.2051.6377l1.0293.5303-2.9619 2.957.4257-2.0527a.4755.4755 0 00-.2138-.499l-1.3545-.8477 4.0088-2.9707-1.1387 2.2451z" fill="#D7D7D7" />
</svg>
