<svg xmlns="http://www.w3.org/2000/svg" viewBox="0 0 20 20">
  <g fill="none" fill-rule="evenodd">
    <g fill="#999">
      <path d="M9.8438 5.4549c-.78 0-1.514.303-2.063.853-1.138 1.138-1.138 2.989 0 4.127.549.55 1.283.853 2.063.853.78 0 1.514-.303 2.063-.853.55-.55.854-1.283.854-2.063 0-.781-.304-1.514-.854-2.064-.549-.55-1.283-.853-2.063-.853zm-.353 10.795c-.235-.013-.485-.215-.542-.452l-.386-1.606c-.045-.185-.248-.407-.427-.469l-.508-.211c-.093-.045-.209-.057-.287-.057-.078 0-.226.012-.35.087l-1.41.864c-.086.051-.196.081-.31.081-.15 0-.294-.049-.397-.135-.006-.004-.162-.135-.377-.349-.186-.186-.31-.33-.343-.369l-.012-.013c-.153-.188-.175-.495-.048-.703l.863-1.41c.103-.17.116-.46.032-.635l-.211-.506c-.068-.193-.273-.383-.471-.43l-1.608-.388c-.221-.053-.435-.31-.449-.54v-1.017c.014-.245.208-.484.451-.544l1.608-.387c.19-.045.405-.241.469-.426l.211-.508c.084-.177.073-.468-.031-.637l-.863-1.41c-.126-.208-.104-.52.053-.708.003-.004.134-.161.349-.376.215-.214.372-.345.376-.349.104-.087.248-.135.398-.135.114 0 .224.029.311.082l1.41.863c.123.077.276.088.356.088.074 0 .183-.01.279-.056l.506-.21c.189-.067.383-.275.431-.471l.387-1.608c.058-.239.294-.436.539-.45h1.019c.135.009.277.074.387.183.079.079.133.172.156.269l.388 1.608c.04.182.244.407.427.47l.506.21c.093.045.208.056.286.056.079 0 .228-.011.35-.086l1.413-.864c.086-.053.196-.082.311-.082.149 0 .294.049.395.134.005.004.161.135.376.349.215.215.347.373.35.377.157.188.18.499.053.707l-.864 1.413c-.103.166-.117.456-.031.633l.211.507c.067.194.272.384.472.43l1.606.387c.225.055.436.308.449.54v1.018c-.013.244-.208.484-.451.543l-1.607.387c-.19.045-.405.241-.469.427l-.211.507c-.085.177-.074.468.03.638l.863 1.409c.126.209.103.52-.053.707-.003.004-.135.161-.35.376-.216.216-.373.349-.377.352-.101.085-.245.134-.395.134-.115 0-.225-.03-.312-.082l-1.41-.864c-.123-.076-.276-.088-.356-.088-.074 0-.183.01-.279.057l-.506.21c-.189.066-.383.275-.43.471l-.388 1.608c-.057.236-.29.432-.532.449h-1.026z" />
      <path d="M9.8438 11.038c-.683 0-1.367-.26-1.887-.78-1.04-1.041-1.039-2.733 0-3.773.52-.52 1.204-.78 1.887-.78s1.367.26 1.887.78c1.04 1.04 1.04 2.733 0 3.773-.52.52-1.204.78-1.887.78M10.5088.5h-1.033c-.354.02-.685.297-.768.641l-.388 1.608c-.026.109-.16.255-.282.298l-.521.216c-.043.022-.105.032-.169.032-.084 0-.171-.018-.224-.051l-1.412-.864c-.131-.079-.286-.119-.441-.119-.202 0-.405.066-.557.193 0 0-.166.138-.393.365-.228.228-.365.393-.365.393-.225.27-.256.698-.074.998l.864 1.41c.058.096.067.295.011.411l-.216.522c-.036.105-.183.239-.291.265l-1.608.388c-.345.083-.621.413-.642.785v1.033c.02.341.309.688.641.768l1.608.388c.1.024.25.145.299.283l.215.52c.049.1.039.298-.019.394l-.864 1.412c-.183.299-.151.727.074.998.002 0 .139.165.367.393.227.227.393.365.393.365.152.126.355.191.556.191.156 0 .311-.038.442-.118l1.41-.863c.052-.032.135-.049.219-.049.069 0 .139.012.192.037l.522.216c.097.033.241.191.265.291l.386 1.608c.081.332.414.622.786.642h1.032c.355-.02.685-.297.769-.641l.387-1.608c.027-.109.16-.255.283-.298l.52-.216c.044-.021.106-.032.17-.032.083 0 .17.018.224.051l1.412.864c.13.079.285.118.441.118.201 0 .404-.065.557-.192 0 0 .164-.138.392-.366.227-.227.365-.393.365-.393.224-.269.255-.698.074-.998l-.863-1.409c-.058-.096-.068-.294-.012-.411l.216-.522c.037-.105.183-.239.291-.265l1.609-.387c.345-.084.62-.414.641-.786V7.976c-.02-.34-.309-.687-.64-.768l-1.609-.388c-.101-.023-.248-.144-.298-.282l-.216-.521c-.049-.1-.04-.299.019-.393l.864-1.412c.182-.299.151-.728-.074-.998 0 0-.137-.166-.365-.393-.227-.228-.393-.365-.393-.365-.152-.127-.354-.192-.555-.192-.156 0-.311.039-.442.119l-1.412.863c-.052.032-.136.049-.22.049-.069 0-.138-.011-.19-.036l-.522-.216c-.097-.034-.241-.19-.265-.291l-.387-1.609c-.034-.141-.11-.275-.222-.387-.151-.15-.35-.243-.564-.256m-.665 11.038c.847 0 1.643-.329 2.24-.926 1.235-1.236 1.235-3.246 0-4.481-.597-.597-1.393-.926-2.24-.926-.847 0-1.643.329-2.24.926-1.235 1.235-1.235 3.245 0 4.481.597.597 1.393.926 2.24.926M10.4908 1a.375.375 0 01.228.11c.046.046.077.098.09.15l.386 1.604c.062.269.327.561.561.641l.497.204c.148.072.302.086.406.086.104 0 .305-.015.481-.122l1.412-.864c.048-.029.112-.045.181-.045.09 0 .178.028.235.076.008.007.157.131.36.334.202.203.327.352.334.36.088.105.103.3.031.417l-.861 1.408c-.149.239-.168.624-.057.85l.207.498c.102.284.378.536.652.599l1.606.387c.12.03.254.19.26.283l.001 1.005c-.008.148-.125.295-.259.328l-1.607.387c-.271.064-.556.322-.638.56l-.204.496c-.127.265-.112.646.035.889l.862 1.408c.072.118.057.313-.03.418-.007.008-.132.157-.335.36-.204.204-.352.33-.358.335-.058.048-.146.076-.237.076-.069 0-.133-.016-.18-.045l-1.409-.861c-.177-.11-.382-.127-.488-.127-.101 0-.25.015-.361.07l-.496.207c-.281.099-.534.373-.602.652l-.387 1.608c-.032.13-.177.251-.283.258l-1.005.001c-.153-.008-.298-.145-.326-.26l-.387-1.607c-.064-.268-.328-.558-.56-.637l-.497-.205c-.149-.071-.304-.086-.408-.086-.104 0-.305.016-.48.122l-1.409.863c-.048.029-.113.045-.182.045-.091 0-.179-.028-.236-.076-.008-.006-.157-.131-.36-.334a6.7499 6.7499 0 01-.328-.351l-.013-.015c-.083-.107-.096-.296-.026-.41l.864-1.413c.148-.243.166-.619.054-.846l-.206-.496c-.101-.282-.375-.534-.653-.601l-1.608-.388c-.116-.028-.252-.191-.258-.282V8.02c.008-.148.125-.296.259-.328l1.607-.388c.271-.064.555-.322.637-.56l.205-.496c.127-.265.112-.646-.036-.889l-.862-1.408c-.072-.118-.058-.314.03-.419.007-.008.132-.157.334-.359.203-.203.352-.328.36-.335.058-.048.146-.077.237-.077.068 0 .132.017.18.046l1.408.861c.177.11.382.127.489.127.101 0 .25-.014.361-.07l.496-.206c.281-.1.534-.374.602-.653l.387-1.608c.031-.13.176-.251.282-.258h1.015" />
      <path d="M9.5 17.183c-.073-.025-.249-.146-.266-.222l-.291-1.206c-.026-.106-.083-.206-.167-.29-.113-.113-.262-.183-.423-.192h-.774c-.266.015-.514.222-.576.48l-.291 1.206c-.02.082-.12.191-.212.224h-1c-.073-.025-.249-.146-.266-.222l-.291-1.206c-.026-.106-.083-.206-.167-.29-.113-.113-.262-.183-.423-.192h-.774c-.266.015-.514.222-.576.48l-.291 1.206c-.02.082-.12.191-.212.224H1v2h18v-2h-1.5c-.073-.025-.249-.146-.266-.222l-.291-1.206c-.026-.106-.083-.206-.167-.29-.113-.113-.262-.183-.423-.192h-.774c-.266.015-.514.222-.576.48l-.291 1.206c-.02.082-.12.191-.212.224h-1c-.073-.025-.249-.146-.266-.222l-.291-1.206c-.026-.106-.083-.206-.167-.29-.113-.113-.262-.183-.423-.192h-.774c-.266.015-.514.222-.576.48l-.291 1.206c-.02.082-.12.191-.212.224h-1z" />
    </g>
    <path d="M16.6648 2H13V0h7.0026v7H18.002l-.0014-3.6653L13.3352 8 12 6.6648 16.6648 2z" fill="#333" fill-rule="nonzero" />
  </g>
</svg>
