<svg xmlns="http://www.w3.org/2000/svg" viewBox="0 0 20 20">
  <g fill-rule="evenodd" clip-rule="evenodd">
    <path d="M8.0178 18.268C4.2791 17.3742 1.5 14.0125 1.5 10h1c0 2.073.839 3.945 2.197 5.303.9374.9367 2.1188 1.6264 3.4415 1.9643C8.4309 16.525 9.1545 16 10 16c.8463 0 1.5694.525 1.8616 1.2672 1.3227-.3378 2.5041-1.0276 3.4414-1.9642C16.661 13.945 17.5 12.073 17.5 10h1c0 4.0125-2.7791 7.3742-6.5178 8.268C11.8513 19.2462 11.0141 20 10 20c-1.0132 0-1.8512-.7538-1.9822-1.732z" fill="#999999" />
    <path d="M8.5341 3.3605C8.8994 3.754 9.4211 4 10 4c.6115 0 1.1586-.274 1.5254-.7061 2.5985.5507 4.6236 2.6538 5.0589 5.293A1.9937 1.9937 0 0016 10c0 1.105.895 2 2 2 1.104 0 1.999-.895 1.999-2 0-.9235-.6251-1.7003-1.4749-1.9306-.6371-3.3818-3.2771-6.0564-6.6407-6.7443C11.6067.5524 10.8681 0 10 0c-.8987 0-1.6595.593-1.9114 1.4096-1.6265.4097-3.0666 1.288-4.1684 2.4832L1.991 2.837V8C.8911 8.005 0 8.898 0 10c0 1.105.896 2 2 2s2-.895 2-2c0-.8598-.5425-1.5925-1.3033-1.8753L7.239 5.709l-1.4932-.8172A6.488 6.488 0 018.534 3.3605z" fill="#333333" />
    <path d="M10 3.5c.8284 0 1.5-.6716 1.5-1.5S10.8284.5 10 .5 8.5 1.1716 8.5 2s.6716 1.5 1.5 1.5zM3.5 10c0 .8284-.6716 1.5-1.5 1.5S.5 10.8284.5 10 1.1716 8.5 2 8.5s1.5.6716 1.5 1.5zm8 8c0 .8284-.6716 1.5-1.5 1.5s-1.5-.6716-1.5-1.5.6716-1.5 1.5-1.5 1.5.6716 1.5 1.5zm8-8c0 .8284-.6716 1.5-1.5 1.5s-1.5-.6716-1.5-1.5.6716-1.5 1.5-1.5 1.5.6716 1.5 1.5z" fill="#FFFFFF" />
  </g>
</svg>
