<svg xmlns="http://www.w3.org/2000/svg" viewBox="0 0 10 10">
  <g fill-rule="evenodd" clip-rule="evenodd">
    <path d="M5 .9375C2.7568.9375.9375 2.7561.9375 5 .9375 7.2432 2.7568 9.0625 5 9.0625S9.0625 7.2432 9.0625 5C9.0625 2.7561 7.2432.9375 5 .9375zm1.5625 6.25L4.375 5V2.5h.9375v2.1875l1.875 1.875-.625.625z" fill="#FFFFFF" />
    <path d="M5 0C2.2388 0 0 2.2381 0 5s2.2388 5 5 5c2.7613 0 5-2.2381 5-5S7.7613 0 5 0zm0 .9375C2.7568.9375.9375 2.7561.9375 5 .9375 7.2432 2.7568 9.0625 5 9.0625S9.0625 7.2432 9.0625 5C9.0625 2.7561 7.2432.9375 5 .9375zm1.5625 6.25L4.375 5V2.5h.9375v2.1875l1.875 1.875-.625.625z" fill="#333333" />
  </g>
</svg>
