<svg xmlns="http://www.w3.org/2000/svg" viewBox="0 0 20 20">
  <path d="M0 9.8889h4.3333l1.4445 1.4444V7h4.3333l2.1667 2.1667V20H7.9444L6.5 18.5556V20H2.1667L0 17.8333V9.8889z" fill="#333333" />
  <g fill="#FFFFFF">
    <path d="M6.5 7.9775v9.4947l1.625 1.625V9.6025L6.5 7.9775zM8.486 19.2777h3.0695V9.7083H8.4861v9.5694zM11.375 9.3472H8.3803l-1.625-1.625H9.75l1.625 1.625zM.7222 10.8664v6.6058l1.625 1.625v-6.6058l-1.625-1.625zM2.7083 19.2777h3.0694v-6.6805H2.7083v6.6805zM5.5972 12.2361l-1.625-1.625H.9775l1.625 1.625h2.9947z" />
  </g>
  <g fill="#333333">
    <path d="M13.0002 12.6c3.0928 0 5.6-2.5072 5.6-5.6 0-3.0928-2.5072-5.6-5.6-5.6-2.7515 0-5.0395 1.9843-5.511 4.6H6.071c.4853-3.3923 3.4027-6 6.9292-6 3.8659 0 7 3.134 7 7s-3.1341 7-7 7v-1.4z" />
    <path d="M12.0001 7.2333L15.2668 10.5l.9333-.9333-2.8-2.8V3.5h-1.4v3.7333z" />
  </g>
</svg>
