<svg xmlns="http://www.w3.org/2000/svg" viewBox="0 0 170 170">
  <path d="M60 158.841h-8V28h8v130.841z" fill="#D7D7D7" />
  <circle cx="56.159" cy="120.464" r="11.797" fill="#D7D7D7" />
  <circle cx="56.159" cy="77.565" r="11.797" fill="#999999" />
  <g fill="#999999">
    <path d="M56 44c-9.3888 0-17-7.6112-17-17s7.6112-17 17-17 17 7.6112 17 17-7.6112 17-17 17z" fill="#999" />
    <path d="M65 27c0-4.9706-4.0294-9-9-9s-9 4.0294-9 9 4.0294 9 9 9 9-4.0294 9-9z" fill="#FFFFFF" />
  </g>
  <path d="M107.638 24.0576h3.593c12.703 0 23 10.2976 23 23V58c0 12.7025-10.297 23-23 23H88.333v-6h22.898c9.389 0 17-7.6112 17-17V47.0576c0-9.3887-7.611-17-17-17h-3.593v9.8701L89.4062 27.0576l18.2318-12.8691v9.8691z" fill="#999999" />
</svg>
