<svg xmlns="http://www.w3.org/2000/svg" viewBox="0 0 170 170">
  <path d="M39 125v15H24l-3-3v-15h15l3 3z" fill="#999999" />
  <path d="M37.5 126.5v4.293l-2.293-2.293H27v7.707l2.293 2.293H25.5v-12h12zm0 6v6H31v-6h6.5zm-13-6.293v12.172l-2-2v-12.172l2 2zm5.5 6v5.586l-2-2v-5.586l2 2zm4.793-2.707l2 2h-6.086l-2-2h6.086zm.5859-6l2 2H25.207l-2-2h12.1719z" fill="#FFFFFF" />
  <path d="M39.5 101.5l-10 10.5-7.5 3 3-7.5L35 97l4.5 4.5z" fill="#999999" />
  <path d="M21 114.5h18v1.5H21v-1.5z" fill="#999999" />
  <path d="M25.4883 111.988l-.7969.32.3184-.798.4785.478zm2.8486-1.139l-1.8389.735-1.0839-1.084.7246-1.812 2.1982 2.161zm9.0674-9.324l-7.9355 8.331-2.3995-2.356 7.9561-8.3535 2.3789 2.3785z" fill="#FFFFFF" />
  <path d="M38 15.833V30l-16-2.833V13l16 2.833z" fill="#999999" />
  <path d="M29.25 15.8057v6.4892l7.25 1.2881v4.6279l-13-2.3027V14.7881l5.75 1.0176zm7.25 1.2851v4.9697l-5.75-1.0214v-4.9668l5.75 1.0185z" fill="#FFFFFF" />
  <path d="M38 37.833V52l-16-2.833V35l16 2.833z" fill="#999999" />
  <path d="M29.25 37.8057v6.4892l7.25 1.2881v4.6279l-13-2.3027V36.7881l5.75 1.0176zm7.25 1.2851v4.9697l-5.75-1.0214v-4.9668l5.75 1.0185z" fill="#FFFFFF" />
  <path d="M38 59.833V74l-16-2.833V57l16 2.833z" fill="#999999" />
  <path d="M29.25 59.8057v6.4892l7.25 1.2881v4.6279l-13-2.3027V58.7881l5.75 1.0176zm7.25 1.2851v4.9697l-5.75-1.0214v-4.9668l5.75 1.0185z" fill="#FFFFFF" />
  <path d="M13 74.75H3v-1.5h4.25V13h1.5v60.25H13v1.5zM3 150h104v6H3z" fill="#999999" />
  <path fill="#D7D7D7" d="M3 84h104v6H3zM99 133H49v-3h50v3zm0-24H49v-3h50v3zm0-42H49v-3h50v3zm0-22H49v-3h50v3zm0-21H49v-3h50v3z" />
  <path d="M149.823 99H150v.25l9 12.75h-9v21c0 12.703-10.297 23-23 23h-10v-6h10c9.389 0 17-7.611 17-17v-21h-9l9-12.75V99h.177L147 95l2.823 4z" fill="#999999" />
  <path d="M116.95 84v3H112v-3h4.95zm13.5 0v3h-9.9v-3h9.9zm13.5 0v3h-9.9v-3h9.9zm13.5 0v3h-9.9v-3h9.9zm8.55 0v3h-4.95v-3H166z" fill="#D7D7D7" />
</svg>
