<svg xmlns="http://www.w3.org/2000/svg" viewBox="0 0 20 20">
  <g fill="#333333">
    <path d="M7 17l-5-.5 1.8975-1.7078C2.7208 13.5398 2 11.8541 2 10c0-3.866 3.134-7 7-7 .4648 0 .919.0453 1.3585.1317l-.1866 1.4934A5.5214 5.5214 0 009 4.5c-3.0376 0-5.5 2.4624-5.5 5.5 0 1.4682.5753 2.8021 1.5128 3.7885L7 12v5zM12.3585 3l5 .5-1.8975 1.7078C16.6377 6.4602 17.3585 8.1459 17.3585 10c0 3.866-3.134 7-7 7-.4648 0-.919-.0453-1.3585-.1317l.1867-1.4934a5.5239 5.5239 0 001.1718.1251c3.0376 0 5.5-2.4624 5.5-5.5 0-1.4682-.5753-2.8021-1.5128-3.7885L12.3585 8V3z" />
  </g>
</svg>
