<svg xmlns="http://www.w3.org/2000/svg" viewBox="0 0 20 20">
  <path fill-rule="evenodd" clip-rule="evenodd" d="M10 18.5c4.6944 0 8.5-3.8056 8.5-8.5S14.6944 1.5 10 1.5 1.5 5.3056 1.5 10s3.8056 8.5 8.5 8.5zm0-1c-4.1421 0-7.5-3.3579-7.5-7.5S5.8579 2.5 10 2.5s7.5 3.3579 7.5 7.5-3.3579 7.5-7.5 7.5zm1.37-7.62c.76.26 1.41.77 1.41 1.83 0 1.37-1.15 2.16-2.58 2.16-1.37 0-2.4-.66-2.7-1.84l.94-.29c.23.75.83 1.27 1.78 1.27.76 0 1.56-.37 1.56-1.2 0-.69-.53-.98-1.21-1.16-.23-.06-1.21-.35-1.43-.43-.69-.26-1.26-.78-1.26-1.69 0-1.3 1.03-2.03 2.34-2.03 1.14 0 2.06.4 2.44 1.43l-.85.36c-.32-.67-.84-.95-1.6-.95-.68 0-1.34.38-1.34 1.09 0 .56.44.84 1.01 1 .0642.0195.1892.0562.3415.101.3932.1153.9683.2841 1.1485.349z" fill="#333333" />
</svg>
