<svg xmlns="http://www.w3.org/2000/svg" viewBox="0 0 200 160">
  <g fill="#EEEEEE">
    <path fill-rule="evenodd" clip-rule="evenodd" d="M108.605 0l33.031 55.4161 20.99-21.5684 15.152 14.8281-43.291 44.4841-18.983 7.8111h1.251l13.404 13.117V160H83.2454l-13.4038-13.118v-45.911h38.7934c-.071-.404-.02-.841.191-1.2713l10.509-21.3678 10.351-10.6365H68.2538L108.605 0zM121.5 82.5685l-5.253 9.6468 3.549 3.3126 10.362-4.4863-8.658-8.4731zm49.784-33.8927l-8.658-8.4732-38.962 40.2476 8.658 8.4731 38.962-40.2475zM73.1925 129.326V105.41l10.8907 10.658v23.916l-10.8907-10.658zm0 15.917v-13.598l10.8907 10.658v13.598l-10.8907-10.658zm53.6155 11.478H85.7587v-13.938h26.8073v-26.235h14.242v40.173zM115.08 104.25l10.89 10.658h-13.894l-10.891-10.658h13.895zm-40.7027 0h24.4382l10.8905 10.658H85.2679L74.3773 104.25zm11.3814 36.893h25.1323v-24.595H85.7587v24.595zM46.9136 100.982l-20.1059-.011v26.235H0v19.676L13.4039 160h46.9135v-45.912l-13.4038-13.106zm-1.6755 3.268H31.3614l10.8731 10.658h13.8942L45.2381 104.25zm-15.0794 25.076v-23.899l10.8907 10.641v23.916l-10.8907-10.658zm-25.623 1.159H28.974l10.8906 10.658H15.4264L4.5357 130.485zM3.351 145.243v-13.598l10.8906 10.658v13.598L3.351 145.243zm12.5661 11.478v-13.938h26.8078v-26.235h14.2416v40.173H15.9171z" />
    <path d="M186.596 100.982l-2.469-.001v3.269h.794l4.373 4.28 2.51-2.456-5.208-5.092zM195.811 114.908l-2.589-2.534 2.512-2.457 4.266 4.171v7.077h-3.351v-4.617h-14.242v26.235H155.6v13.938h4.717V160h-7.231l-5.29-5.178 2.513-2.459 3.615 3.538v-13.598l-10.89-10.658v5.054h-3.351v-6.214h4.535l10.891 10.658h24.438l-10.89-10.658h2.369l9.706 9.499v-23.916l-9.039-8.832 1.2-1.174 9.024 8.846h13.894z" />
    <path d="M165.079 127.206v3.279h-6.349v-3.279h6.349zM152.381 127.206v3.279h-6.349v-3.279h6.349zM169.841 124.272h-3.351v-6.214h3.351v6.214zM139.683 142.913v3.969l3.623 3.547 2.513-2.46-2.785-2.726v-2.33h-3.351zM169.841 111.845h-3.351v-5.903h3.351v5.903zM196.649 133.592H200v-6.213h-3.351v6.213zM196.649 139.806H200v6.213h-3.351v-6.213zM196.649 152.233v4.488h-4.586V160H200v-7.767h-3.351zM173.016 156.893V160h-6.349v-3.279h19.047V160h-6.349v-3.107h-6.349zM171.429 100.974v3.276h6.349v-3.273l-6.349-.003z" />
  </g>
</svg>
