<svg xmlns="http://www.w3.org/2000/svg" viewBox="0 0 20 20">
  <path fill-rule="evenodd" clip-rule="evenodd" d="M19 1.9884H5v.5838c.379.1164.7369.254 1.0713.4162H18V9h-1V4H7.5236c.2913.2896.5457.6179.7577.9884H16V11h-1V6H8.7177c.097.3136.1682.6433.2149.9884H14V13H9v4H2V6.9884h2.8991c-.0733-.3565-.182-.6464-.311-.8838A2.4922 2.4922 0 004.5278 6H4v-.605a2.7103 2.7103 0 00-.3812-.2578c-.189-.1064-.3958-.1965-.6188-.2725V6H1v12h14v-2h2v-2l2-.0116v-12zM17 10h1v2.9884h-1V10zm-2 2h1v2.9884h-1V12zm-1 2h-4v2.9884h4V14z" fill="#333333" />
  <path d="M0 3c5 0 7.979 1.021 8 5h3l-4 4-4-4h3c-.042-3.958-3-4.5-6-4.5V3z" fill="#333333" />
</svg>
