<svg xmlns="http://www.w3.org/2000/svg" viewBox="0 0 20 20">
  <path fill-rule="evenodd" clip-rule="evenodd" d="M5.351 13.2307c-.4352.4352-.4705 1.1055-.0789 1.4972.3917.3916 1.062.3563 1.4972-.0788L10 11.4184l3.2307 3.2307c.4352.4351 1.1055.4704 1.4972.0788.3916-.3917.3563-1.062-.0788-1.4972L11.4184 10l3.2307-3.2307c.4351-.4352.4704-1.1055.0788-1.4972-.3917-.3916-1.062-.3563-1.4972.0788L10 8.5816 6.7693 5.351c-.4352-.4351-1.1055-.4704-1.4972-.0788-.3916.3917-.3563 1.062.0789 1.4972L8.5816 10 5.351 13.2307z" fill="#666666" />
</svg>
