<svg xmlns="http://www.w3.org/2000/svg" viewBox="0 0 20 20">
  <path d="M7.8243 6.1874c.5647-1.254 2.1837-1.8745 3.7802-1.6397.7795.1147 1.4958.4304 2.0098.9249.5052.486.8368 1.1643.8369 2.0654l.0108.1045a.4994.4994 0 00.1543.2666.5002.5002 0 00.3857.127c.8554-.0872 1.4495.1804 1.8418.586.4049.4186.6316 1.0235.6543 1.6513.0226.6299-.1616 1.2273-.5049 1.6299-.3273.3838-.8288.6291-1.5596.5352a.5001.5001 0 00-.5595.4316.4963.4963 0 00.0371.2598c-2.1671.8004-5.449.3692-9.5205-.1348a.4987.4987 0 00-.005-.1631.5001.5001 0 00-.4911-.3974l-.1006.0107-.25.0401c-.5628.0632-.985-.0847-1.292-.3233-.3635-.2825-.6102-.7278-.707-1.2256-.0972-.4994-.0336-1.0056.167-1.3867.1926-.3659.5125-.6257.9902-.6856a.5004.5004 0 00.4375-.496c.0001-.9722.5073-1.545 1.1445-1.842.592-.2756 1.258-.2942 1.6944-.16l.1718.0673a.5011.5011 0 00.3887.0186.5014.5014 0 00.2851-.2647z" fill="#FFFFFF" />
  <path d="M4.942 14.5174c.6575.0675 1.256.3181 1.7724.5293.5405.2211.9989.4026 1.4765.4443.4513.0393.9455-.046 1.5381-.4296a.5004.5004 0 01.6914.1474c.15.2317.083.5412-.1484.6914-.7737.5009-1.4883.6461-2.168.5869-.6532-.057-1.25-.3029-1.7675-.5146-.5416-.2215-1.0064-.4096-1.4962-.46-.4647-.0476-.9733.029-1.581.3965l-.0918.043a.5001.5001 0 01-.5947-.2119.501.501 0 01.169-.6875l.2939-.1631c.6785-.3439 1.3088-.4333 1.9062-.3721zm2.0898-1.627c.6672-.342 1.2706-.4353 1.8369-.372.6212.0695 1.1635.3267 1.6172.5371.4784.2219.8672.3956 1.2871.4355.393.0373.8554-.0408 1.456-.4297.2317-.1496.5415-.084.6914.1475a.5004.5004 0 01-.1484.6914c-.7656.4956-1.4495.6481-2.0937.5869-.6175-.0587-1.1586-.3135-1.6133-.5244-.4793-.2223-.8752-.4018-1.3076-.4502-.4067-.0454-.883.0245-1.4981.3965l-.0918.043a.5001.5001 0 01-.5947-.2119.501.501 0 01.169-.6875l.29-.1622zm.0986-7.5195c.939-1.507 2.9161-2.0632 4.6201-1.8125.9434.1388 1.8647.528 2.5567 1.1933.5945.572 1.0029 1.3347 1.1132 2.2696.8974.0246 1.621.366 2.1426.9052.606.6266.9047 1.4824.9346 2.3116.0297.827-.2066 1.684-.7432 2.3135-.5528.6483-1.3917 1.0144-2.4472.8789a.5013.5013 0 01-.4327-.5606.5004.5004 0 01.5596-.4316c.7307.0938 1.2324-.1514 1.5596-.5352.3431-.4026.5275-1.0001.5049-1.6299-.0227-.6276-.2494-1.2327-.6543-1.6513-.3923-.4055-.9865-.673-1.8418-.586a.5007.5007 0 01-.3858-.127.5006.5006 0 01-.1543-.2665l-.0107-.1045c-.0001-.901-.3317-1.5794-.8369-2.0655-.514-.4944-1.2304-.81-2.0098-.9248-1.5964-.2348-3.2155.3858-3.7803 1.6397a.502.502 0 01-.6738.246L6.979 6.366c-.4362-.1341-1.1025-.1154-1.6943.1602-.6372.2968-1.1443.8698-1.1445 1.8418a.5006.5006 0 01-.4375.496c-.4776.06-.7976.3199-.9903.6856-.2006.3811-.264.8873-.167 1.3867.0969.4978.3436.9431.707 1.2256.3072.2386.7293.3865 1.292.3233l.25-.0401.1006-.0107a.5005.5005 0 01.4913.3974.5013.5013 0 01-.29.5616l-.0968.0302-.1777.0323c-.8755.1398-1.6186-.0657-2.1826-.5039-.5892-.4579-.9413-1.136-1.0752-1.8243-.1336-.6867-.059-1.431.2636-2.044.273-.5183.722-.9357 1.338-1.124C3.301 6.7806 4.017 6.014 4.8627 5.62c.7282-.339 1.5813-.4178 2.2676-.249z" fill="#333333" />
</svg>
