<svg xmlns="http://www.w3.org/2000/svg" viewBox="0 0 20 20">
  <path fill-rule="evenodd" clip-rule="evenodd" d="M3.6666 5.3853h10.981c2.2614 1.0092 2.2614 5 2.2614 5h2.0152c0 3.8461-2.0152 4.2307-2.0152 4.2307H3.6666c-1.5899 0-2.8788-2.0664-2.8788-4.6154 0-2.549 1.289-4.6154 2.8788-4.6154z" fill="#EEEEEE" />
  <path fill-rule="evenodd" clip-rule="evenodd" d="M1.0758 10c0-2.4052 1.2069-4.2308 2.5909-4.2308S6.2576 7.5948 6.2576 10c0 2.4052-1.207 4.2308-2.591 4.2308-1.384 0-2.5908-1.8256-2.5908-4.2308zM.5 10c0 2.6928 1.3708 5 3.1667 5h12.6666c1.7959 0 3.1667-2.3072 3.1667-5h-2.303c0-2.6928-1.3709-5-3.1667-5H3.6667C1.8708 5 .5 7.3072.5 10zm16.1212 0c0-2.0352-.8641-3.6554-1.9685-4.1057 0 0-6.8766-.125-9.2934-.125.8964.8974 1.474 2.4828 1.474 4.2307 0 1.7479-.5776 3.3333-1.474 4.2308h.8983c1.8039 0 3.4545-.2939 3.4545-4.2308h6.9091zm2.231.7692c-.0795.8942-.2056 1.3256-.5037 1.9231-.3825.7665-1.2175 1.5385-1.7273 1.5385H9.1364c.7628-.7637.9722-2.0254 1.1138-3.4616h8.602zM2.803 10c0-.572.1162-1.0723.289-1.4184.174-.3489.3829-.5047.5747-.5047.1917 0 .4006.1558.5747.5047.1727.3461.2889.8465.2889 1.4184 0 .5719-.1162 1.0723-.289 1.4184-.174.3489-.3829.5047-.5746.5047-.1918 0-.4007-.1558-.5747-.5047-.1728-.3461-.289-.8465-.289-1.4184zm.8637-2.6923c-.4442 0-.8111.3608-1.0538.8472-.244.489-.3856 1.1425-.3856 1.8451 0 .7026.1416 1.3561.3856 1.8451.2427.4864.6096.8472 1.0538.8472.4442 0 .811-.3608 1.0537-.8472.244-.489.3857-1.1425.3857-1.8451 0-.7026-.1416-1.356-.3857-1.8451-.2427-.4864-.6095-.8472-1.0537-.8472z" fill="#333333" />
  <path fill-rule="evenodd" clip-rule="evenodd" d="M2.803 9.9997c0-.5719.1162-1.0722.2889-1.4184.174-.3489.383-.5046.5747-.5046.1918 0 .4007.1557.5747.5046.1728.3462.289.8465.289 1.4184 0 .5719-.1162 1.0723-.289 1.4185-.174.3488-.3829.5046-.5747.5046-.1918 0-.4006-.1558-.5747-.5046-.1727-.3462-.289-.8466-.289-1.4185z" fill="#FFFFFF" />
  <path d="M11 6.6648L12.3352 8l4.6679-4.6679L17 7h2V0h-7v2l3.6643.0005L11 6.6648z" fill="#333333" />
</svg>
