<svg xmlns="http://www.w3.org/2000/svg" viewBox="0 0 20 20">
  <path d="M19 9c-3.5 6.5-14.5 6.5-18 0V4c0-1.6568 1.3432-3 3-3h12c1.6569 0 3 1.3432 3 3v5z" fill="#666666" />
  <path fill-rule="evenodd" clip-rule="evenodd" d="M18.5 10c-4.5 4.5-9.5 7.5-17 0-.1113.4325-.072 4.1709-.035 6.5437.017 1.0881.9053 1.9563 1.9936 1.9563H16.5c1.1046 0 2-.8954 2-2V10z" fill="#D7D7D7" />
  <path fill-rule="evenodd" clip-rule="evenodd" d="M19 16.5c0 1.379-1.121 2.5-2.5 2.5h-13C2.121 19 1 17.879 1 16.5v-13C1 2.122 2.121 1 3.5 1h13C17.879 1 19 2.122 19 3.5v13zM3.5 2C2.673 2 2 2.673 2 3.5v5.861a4.96 4.96 0 00.0382.0596c.0732.1124.1862.2767.3409.4755.3096.3982.784.9323 1.4375 1.4669C5.1195 12.429 7.1358 13.5 10 13.5s4.8805-1.071 6.1834-2.137c.6534-.5346 1.1279-1.0687 1.4375-1.4669a7.023 7.023 0 00.3409-.4755A5.2111 5.2111 0 0018 9.361V3.5c0-.827-.673-1.5-1.5-1.5h-13zM18 11.0026a10.4165 10.4165 0 01-1.1834 1.1344C15.3695 13.321 13.1358 14.5 10 14.5s-5.3695-1.179-6.8166-2.363A10.4187 10.4187 0 012 11.0026V16.5c0 .827.673 1.5 1.5 1.5h13c.827 0 1.5-.673 1.5-1.5v-5.4974z" fill="#333333" />
  <path d="M9.4 4.6001l3.6.002 2.4 2.398v8.4H7l-2.4-2.4v-3.6h4.8v-4.8z" fill="#333333" />
  <g fill="#FFFFFF">
    <path d="M10 5.4153V9.788l1.95 1.95V7.3622L10 5.4153zM9.7879 10H5.412l1.95 1.95h4.3758L9.7879 10zM5.2 10.2121V12.7l1.95 1.95v-2.4879l-1.95-1.95z" />
    <path d="M7.45 14.8h7.35V7.45h-2.55v4.8h-4.8v2.55zM14.6501 7.15L12.7 5.2h-2.4847l1.9469 1.95h2.4879z" />
  </g>
</svg>
