<svg xmlns="http://www.w3.org/2000/svg" viewBox="0 0 20 20">
  <g fill-rule="evenodd" clip-rule="evenodd">
    <path d="M2.1529 11.86A.4988.4988 0 012 11.5v-6c0-.5523.4477-1 1-1h9.5c.138 0 .263.0596.3535.15l4.9948 3.9911A.4984.4984 0 0118 9v4.9999c0 .8285-.6715 1.5-1.5 1.5H7a.4983.4983 0 01-.3535-.1463L2.1529 11.86z" fill="#333333" />
    <path d="M12.2932 5.5H3.6226l3.6001 3h9.0703l-3.9998-3zM7.5 9.5H17v4.4998a.5.5 0 01-.5.5h-.8293A1.99 1.99 0 0016 13.4c0-.4642-.1582-.8915-.4235-1.2309-.3552-.4542-1.4171-1.0269-2.0876-1.4091a1.9904 1.9904 0 00-.9889-.26c-1.1046 0-2 .8954-2 2 0 .3597.095.6984.2612.99.2196.2975.4544.4662.6925.6372.1549.1112.311.2234.4652.3726H7.5V9.5z" fill="#FFFFFF" />
    <path d="M15 13.25c0 .6904-.5596 1.25-1.25 1.25s-1.25-.5596-1.25-1.25.5596-1.25 1.25-1.25 1.25.5596 1.25 1.25z" fill="#FFFFFF" />
    <g fill="#333333">
      <path d="M14.7033 19.7315a.3.3 0 01-.3779-.1928l-.1777-.5481a.3.3 0 11.5707-.1851l.1778.5481a.3.3 0 01-.1929.3779zm-.5331-1.6444a.3.3 0 01-.3779-.1928l-.3555-1.0963a.3.3 0 01.5708-.185l.3554 1.0962a.3.3 0 01-.1928.3779zm-.7109-2.1925a.3.3 0 01-.3779-.1928l-.1777-.5482a.3.3 0 11.5707-.185l.1777.5481a.3.3 0 01-.1928.3779zM19.7755 15.2759a.3.3 0 01-.4019.1359l-.9034-.4466a.3.3 0 01.266-.5379l.9033.4467a.3.3 0 01.136.4019zm-2.7102-1.34a.2998.2998 0 01-.4018.1359l-.9034-.4467a.2999.2999 0 11.2659-.5378l.9034.4467a.3.3 0 01.1359.4019zM19.6911 19.3202a.3002.3002 0 01-.4243.004l-.4782-.4692a.2999.2999 0 01-.004-.4242.2999.2999 0 01.4242-.004l.4782.4691a.3.3 0 01.0041.4243zm-1.4346-1.4075a.3.3 0 01-.4243.004l-.9564-.9383a.3.3 0 01.4202-.4283l.9564.9383a.3.3 0 01.0041.4243zm-1.9128-1.8767a.3.3 0 01-.4243.0041l-.9564-.9383a.3.3 0 11.4202-.4283l.9564.9383a.3.3 0 01.0041.4242zm-1.9129-1.8766a.3.3 0 01-.4242.0041l-.4782-.4692a.3.3 0 01.4202-.4283l.4782.4692a.2999.2999 0 01.004.4242z" />
    </g>
  </g>
</svg>
