<svg xmlns="http://www.w3.org/2000/svg" viewBox="0 0 20 20">
  <g fill-rule="evenodd" clip-rule="evenodd">
    <path d="M3.5 19h13c1.379 0 2.5-1.121 2.5-2.5v-13C19 2.122 17.879 1 16.5 1h-13C2.121 1 1 2.122 1 3.5v13C1 17.879 2.121 19 3.5 19z" fill="#333333" />
    <path d="M3.5 2C2.673 2 2 2.673 2 3.5v13c0 .827.673 1.5 1.5 1.5h13c.827 0 1.5-.673 1.5-1.5v-13c0-.827-.673-1.5-1.5-1.5h-13z" fill="#FFFFFF" />
    <path d="M5.9301 10.0466c-1.1875-.3055-2.5143-.1838-4.1597.8739l-.5408-.8412c1.8547-1.1922 3.4653-1.383 4.9497-1.0011 1.4417.371 2.7193 1.2751 3.9248 2.1406l.102.0732c1.1981.8606 2.3402 1.6809 3.6169 2.1088 1.2789.4287 2.7087.4659 4.4656-.354l.4229.9062c-1.9931.9301-3.6883.9048-5.2063.396-1.4233-.4771-2.6756-1.3773-3.836-2.2114a83.944 83.944 0 00-.1483-.1065c-1.232-.8845-2.3606-1.6679-3.5908-1.9845zM13.5 8c.8284 0 1.5-.6716 1.5-1.5S14.3284 5 13.5 5 12 5.6716 12 6.5 12.6716 8 13.5 8zm0 1C14.8807 9 16 7.8807 16 6.5S14.8807 4 13.5 4 11 5.1193 11 6.5 12.1193 9 13.5 9z" fill="#333333" />
  </g>
</svg>
