<svg xmlns="http://www.w3.org/2000/svg" viewBox="0 0 20 20">
  <path fill-rule="evenodd" clip-rule="evenodd" d="M0 0h5v2H2v3H0V0zm20 0v5h-2V2h-3V0h5zm-1 20h1v-5h-2v3h-3v2h4zM0 20v-5h2v3h3v2H0z" fill="#333333" />
  <path d="M18 10c0 4.4183-3.5817 8-8 8s-8-3.5817-8-8 3.5817-8 8-8 8 3.5817 8 8z" fill="#666666" />
  <path fill-rule="evenodd" clip-rule="evenodd" d="M17.748 8c-.8881 3.4505-4.0203 6-7.748 6-3.7277 0-6.8599-2.5495-7.748-6A8.0149 8.0149 0 002 10c0 4.4183 3.5817 8 8 8s8-3.5817 8-8a8.0158 8.0158 0 00-.252-2z" fill="#D7D7D7" />
  <path fill-rule="evenodd" clip-rule="evenodd" d="M17.4613 10.7668C17.0772 14.5488 13.8833 17.5 10 17.5c-4.141 0-7.4983-3.3561-7.5-7.4968C3.9313 12.6792 6.7526 14.5 10 14.5s6.0687-1.8208 7.5-4.4968a7.5833 7.5833 0 01-.0387.7636zM17.43 8.9713C16.2504 11.9183 13.3683 14 10 14c-3.3683 0-6.2504-2.0817-7.43-5.0287C3.0714 5.3159 6.2068 2.5 10 2.5c3.7932 0 6.9286 2.8159 7.43 6.4713zM18 10c0 4.4183-3.5817 8-8 8s-8-3.5817-8-8a8.0812 8.0812 0 01.0643-1.019A7.9661 7.9661 0 012.252 8C3.1401 4.5495 6.2723 2 10 2c3.7277 0 6.8599 2.5495 7.748 6l.0001.0007a7.9666 7.9666 0 01.1997 1.0807c.0345.3014.0522.608.0522.9186z" fill="#333333" />
  <path d="M8.9498 4.8l3.3.002 2.2 2.198v7.7h-7.7l-2.2-2.2V9.2h4.4V4.8z" fill="#333333" />
  <g fill="#FFFFFF">
    <path d="M9.5001 5.5475v4.0082l1.7875 1.7875v-4.011L9.5001 5.5475zM9.3056 9.7501h-4.011l1.7875 1.7875h4.0111L9.3056 9.7501zM5.1001 9.9446v2.2805l1.7875 1.7875v-2.2805L5.1001 9.9446z" />
    <path d="M7.1626 14.1501h6.7375V7.4126h-2.3375v4.4h-4.4v2.3375zM13.7626 7.1376l-1.7875-1.7875H9.6975l1.7846 1.7875h2.2805z" />
  </g>
</svg>
