<svg xmlns="http://www.w3.org/2000/svg" viewBox="0 0 20 20">
  <g fill-rule="evenodd" clip-rule="evenodd">
    <path d="M5.5 4h9c1.5 1.5 1.25 3.25 1.25 3.25h2.75C18.5 9.5 17 10 17 10H5.5C4.1193 10 3 8.6569 3 7s1.1193-3 2.5-3z" fill="#FFFFFF" />
    <path d="M8.5 4H6s2 .5 2 3-2 3-2 3h2.5s1.25-1 1.25-3S8.5 4 8.5 4zm4 0H10s1.75.5 1.75 3h2c0-2-1.25-3-1.25-3zm1.75 0C15.8787 4 17 5.2754 17 7h-1.25c0-2.5-1.5-3-1.5-3zM11 10s1.2467-1 1.2467-2.75H11C11 9 9 10 9 10h2zm8-2.75C19 9.5 17 10 17 10s1.1259-1 1.1259-2.75H19zM15 10s1.2467-1 1.2467-2.75h-2.0294C14.2173 9 13 10 13 10h2z" fill="#999999" />
    <path d="M3.25 7c0-1.5634 1.0481-2.75 2.25-2.75S7.75 5.4366 7.75 7 6.7019 9.75 5.5 9.75 3.25 8.5634 3.25 7zm-.5 0c0 1.7503 1.1905 3.25 2.75 3.25h9v-.0194c.5549-.0869 1.0308-.4584 1.3722-.9706.3164-.4745.5303-1.0854.6016-1.76h1.4969c-.069.5812-.2556 1.0943-.5145 1.4826-.3321.4982-.7635.7674-1.2062.7674v.5h.25c1.5595 0 2.75-1.4997 2.75-3.25h-2c0-1.7503-1.1905-3.25-2.75-3.25h-9C3.9405 3.75 2.75 5.2497 2.75 7zm14 0c0-1.3229-.7504-2.376-1.7095-2.6687a2.72 2.72 0 01.3317.4087C15.7651 5.3293 16 6.1291 16 7h.75zm-.7793.5h-1.4969c-.0713.6746-.2852 1.2855-.6016 1.76-.1224.1836-.2621.3492-.4165.49h.7943c.4427 0 .8741-.2692 1.2062-.7674.2589-.3883.4455-.9014.5145-1.4826zm-2 0c-.069.5812-.2556 1.0943-.5145 1.4826-.3321.4982-.7635.7674-1.2062.7674h-.7943c.1544-.1408.2941-.3064.4165-.49.3164-.4745.5303-1.0854.6016-1.76h1.4969zm-2 0c-.069.5812-.2556 1.0943-.5145 1.4826-.3321.4982-.7635.7674-1.2062.7674h-.2801c.6624-.4964 1.1244-1.3165 1.2474-2.25h.7534zM9.0405 9.6687C9.9995 9.376 10.75 8.323 10.75 7h.75c0-.786-.2128-1.4862-.5438-1.9826-.3321-.4982-.7635-.7674-1.2062-.7674h-.7943c.1544.1408.2941.3064.4165.49C9.7652 5.3293 10 6.1291 10 7c0 .8709-.2349 1.6707-.6278 2.26a2.7213 2.7213 0 01-.3317.4087zM12 7h1.5c0-.786-.2128-1.4862-.5438-1.9826-.3321-.4982-.7635-.7674-1.2062-.7674h-.7943c.1544.1408.2941.3064.4165.49C11.7651 5.3293 12 6.1291 12 7zm2 0h1.5c0-.786-.2128-1.4862-.5438-1.9826-.3321-.4982-.7635-.7674-1.2062-.7674h-.7943c.1544.1408.2941.3064.4165.49C13.7651 5.3293 14 6.1291 14 7zm4.4738.5c-.0609.5755-.2255 1.1046-.4689 1.5423.3587-.393.6167-.927.7084-1.5423h-.2395zM8.9562 8.9826c-.3321.4982-.7635.7674-1.2062.7674h-.7801C7.7484 9.1667 8.25 8.1361 8.25 7s-.5016-2.1667-1.2801-2.75H7.75c.4427 0 .874.2692 1.2062.7674C9.2872 5.5138 9.5 6.214 9.5 7c0 .786-.2128 1.4862-.5438 1.9826zM4.75 7c0-.3717.1009-.697.251-.922.151-.2267.3324-.328.499-.328.1665 0 .348.1013.499.328.1501.225.251.5503.251.922 0 .3717-.1009.697-.251.922-.151.2267-.3324.328-.499.328-.1665 0-.348-.1013-.499-.328-.1501-.225-.251-.5503-.251-.922zm.75-1.75c-.3857 0-.7044.2345-.9151.5507C4.3729 6.1185 4.25 6.5433 4.25 7s.123.8814.3349 1.1993c.2107.3162.5294.5507.9151.5507.3857 0 .7044-.2345.9151-.5507.212-.3179.3349-.7426.3349-1.1993s-.123-.8815-.3349-1.1993C6.2044 5.4845 5.8857 5.25 5.5 5.25z" fill="#333333" />
  </g>
  <path d="M3.5 10H7v6H3.5s2-.5 2-3-2-3-2-3z" fill="#666666" />
  <path d="M5.5 13c0 1.6569-1.1193 3-2.5 3S.5 14.6569.5 13s1.1193-3 2.5-3 2.5 1.3431 2.5 3z" fill="#FFFFFF" />
  <path fill-rule="evenodd" clip-rule="evenodd" d="M.75 13c0-1.5634 1.0481-2.75 2.25-2.75S5.25 11.4366 5.25 13 4.2019 15.75 3 15.75.75 14.5634.75 13zm3.7199 2.75C5.2484 15.1667 5.75 14.1361 5.75 13s-.5016-2.1667-1.2801-2.75H12v-.5H3C1.4405 9.75.25 11.2497.25 13S1.4405 16.25 3 16.25h9v-.5H4.4699zM2.25 13c0-.3717.1009-.697.251-.922.151-.2267.3325-.328.499-.328.1665 0 .348.1013.499.328.1501.225.251.5503.251.922 0 .3717-.1009.697-.251.922-.151.2267-.3325.328-.499.328-.1665 0-.348-.1013-.499-.328-.1501-.225-.251-.5503-.251-.922zM3 11.25c-.3857 0-.7044.2345-.9151.5507-.212.3179-.3349.7426-.3349 1.1993s.123.8814.3349 1.1993c.2107.3162.5294.5507.9151.5507.3857 0 .7044-.2345.9151-.5507.212-.3179.3349-.7426.3349-1.1993s-.123-.8814-.3349-1.1993C3.7044 11.4845 3.3857 11.25 3 11.25z" fill="#333333" />
  <g>
    <path d="M8.5 10H18s1.5 1 1.5 3-1.5 3-1.5 3H8.5s2-.5 2-3-2-3-2-3z" fill="#D7D7D7" />
    <path d="M10.5 13c0 1.6569-1.1193 3-2.5 3s-2.5-1.3431-2.5-3 1.1193-3 2.5-3 2.5 1.3431 2.5 3z" fill="#FFFFFF" />
    <path fill-rule="evenodd" clip-rule="evenodd" d="M5.75 13c0-1.5634 1.0481-2.75 2.25-2.75s2.25 1.1866 2.25 2.75S9.2019 15.75 8 15.75 5.75 14.5634 5.75 13zm-.5 0c0 1.7503 1.1905 3.25 2.75 3.25h9c1.5595 0 2.75-1.4997 2.75-3.25S18.5595 9.75 17 9.75H8c-1.5595 0-2.75 1.4997-2.75 3.25zm5.5 0c0 1.1361-.5016 2.1667-1.2801 2.75H17c1.2019 0 2.25-1.1866 2.25-2.75s-1.0481-2.75-2.25-2.75H9.4699c.7785.5833 1.2801 1.6139 1.2801 2.75zm-3.5 0c0-.3717.1009-.697.251-.922.151-.2267.3324-.328.499-.328.1666 0 .348.1013.499.328.1501.225.251.5503.251.922 0 .3717-.1009.697-.251.922-.151.2267-.3324.328-.499.328-.1665 0-.348-.1013-.499-.328-.1501-.225-.251-.5503-.251-.922zM8 11.25c-.3857 0-.7044.2345-.9151.5507-.212.3179-.3349.7426-.3349 1.1993s.123.8814.3349 1.1993c.2107.3162.5294.5507.9151.5507.3857 0 .7044-.2345.9151-.5507.212-.3179.3349-.7426.3349-1.1993s-.123-.8814-.3349-1.1993C8.7044 11.4845 8.3857 11.25 8 11.25zm3.1768-.4268a.2501.2501 0 00-.3536.3536l.5.5a.2501.2501 0 00.3536-.3536l-.5-.5zm7.5 1.75a.2501.2501 0 00-.3536 0l-.5.5a.2501.2501 0 00.3536.3536l.5-.5a.2501.2501 0 000-.3536zm-2 0a.2501.2501 0 00-.3536 0l-.5.5a.2501.2501 0 00.3536.3536l.5-.5a.2501.2501 0 000-.3536zm-2.3536 0a.2501.2501 0 01.3536.3536l-.5.5a.2501.2501 0 01-.3536-.3536l.5-.5zm-1.6464 0a.2501.2501 0 00-.3536 0l-.5.5a.2501.2501 0 00.3536.3536l.5-.5a.2501.2501 0 000-.3536zm.1464-1.75a.2501.2501 0 01.3536 0l.5.5a.2501.2501 0 01-.3536.3536l-.5-.5a.2501.2501 0 010-.3536zm2.3536 0a.2501.2501 0 00-.3536.3536l.5.5a.2501.2501 0 00.3536-.3536l-.5-.5zm1.6464.3536a.2501.2501 0 01.3536-.3536l.5.5a.2501.2501 0 01-.3536.3536l-.5-.5zm-5.6464 3.1464a.2501.2501 0 00-.3536.3536l.5.5a.2501.2501 0 00.3536-.3536l-.5-.5zm1.6464 0a.2501.2501 0 01.3536 0l.5.5a.2501.2501 0 01-.3536.3536l-.5-.5a.2501.2501 0 010-.3536zm2.3536 0a.2501.2501 0 00-.3536.3536l.5.5a.2501.2501 0 00.3536-.3536l-.5-.5zm1.6464.3536a.2501.2501 0 01.3536-.3536l.5.5a.2501.2501 0 01-.3536.3536l-.5-.5z" fill="#333333" />
  </g>
</svg>
