<svg xmlns="http://www.w3.org/2000/svg" viewBox="0 0 20 20">
  <path fill-rule="evenodd" clip-rule="evenodd" d="M3.149 5.7097c.1426.4755-.1934.9605-.6744.9732L1 8.209l1.8685 1.934 1.4747-1.5263c.0128-.5226.4715-.911.969-.8208l1.4399.2615 2.2095 2.2868-4.6126 4.3138c-.7813.7307-.812 1.9898-.0672 2.7605.7361.762 1.9356.741 2.6463-.0461l4.2624-4.7212 5.0238 5.1997a.4796.4796 0 00.6948 0l1.2714-1.3159c.1919-.1986.1919-.5206 0-.7191l-5.0904-5.2687.3772-.4178c.6582-.729 1.5295-.9353 2.399-1.1411.8723-.2065 1.7428-.4126 2.3944-1.1457.5842-.6574.8094-1.5756.7204-2.4641-.4463-4.4599-1.5873-2.4915-1.5873-2.4915a30.821 30.821 0 00-.1448.3854c-.4759 1.2834-1.1993 3.2342-2.4394 2.4017-1.324-.8888-.8835-2.161-.4158-3.082 0 0-.1463-.9665-1.6353.4245-.2331.2178-.4268.4797-.5846.7606-.5955 1.0246-.4504 1.872-.33 2.5748.1051.614.1914 1.1176-.2519 1.5322l-.5646.528L8.2511 5.539l-.199-.6632c-.141-.4702.0637-.9775.486-1.2043l2.3972-1.2874c.1851-.0994.1129-.3894-.0955-.384l-4.1152.1086c-.5038.0133-.9833.2263-1.3397.5951L2.9906 5.182l.1584.5278zm3.158 10.9947c-.375.388-.9828.388-1.3578-.0001-.375-.3881-.375-1.0172-.0001-1.4052.3749-.3881.9828-.388 1.3577.0001.375.3881.375 1.0172.0001 1.4052z" fill="#333333" />
</svg>
