<svg xmlns="http://www.w3.org/2000/svg" viewBox="0 0 15 15">
  <path fill-rule="evenodd" clip-rule="evenodd" d="M4 5c1.1046 0 2-.8954 2-2s-.8954-2-2-2-2 .8954-2 2 .8954 2 2 2zm3-2c0 1.3036-.8315 2.413-1.993 2.8268.0502 1.128.3638 1.7013.7582 2.03C6.2399 8.2524 7.0685 8.5 8.5 8.5c1.6549 0 3.0564.4138 4.0507 1.3254C13.5584 10.749 14 12.0473 14 13.5V15h-2v-1.5c0-1.0474-.3084-1.749-.8007-2.2003C10.6936 10.8362 9.8452 10.5 8.5 10.5c-1.5685 0-2.9899-.2524-4.0152-1.1068A3.6614 3.6614 0 014 8.906V15H3V6h.0134a8.5283 8.5283 0 01-.0076-.1687C1.8376 5.4211 1 4.3083 1 3c0-1.6568 1.3432-3 3-3 1.6569 0 3 1.3432 3 3z" fill="currentColor" />
</svg>
