<svg xmlns="http://www.w3.org/2000/svg" viewBox="0 0 20 20">
  <path fill-rule="evenodd" clip-rule="evenodd" d="M5 0v5H0v3.5L2.5 11H11V2.5L8.5 0H5zm9 9v5H9v3.5l2.5 2.5H20v-8.5L17.5 9H14z" fill="#333333" />
  <path fill-rule="evenodd" clip-rule="evenodd" d="M8 8H3L1 6v2l2 2h7V3L8 1H6l2 2v5zM6 6H1.5L3 7.5h4.5V3L6 1.5V6zm6 11h5v-5l-2-2h2l2 2v7h-7l-2-2v-2l2 2zm3-2h-4.5l1.5 1.5h4.5V12L15 10.5V15z" fill="#FFFFFF" />
  <path d="M4 15c-1.5 0-2-.5441-2-2v-2H1v2c0 2.1442 1 3 3 3h2v2l3-2.5L6 13v2H4z" fill="#333333" />
</svg>
