<svg xmlns="http://www.w3.org/2000/svg" viewBox="0 0 20 20">
  <path d="M1 9v6.5L5 19h14v-7l-3.5-3H1z" fill="#333333" />
  <path fill-rule="evenodd" clip-rule="evenodd" d="M2 10v5l3.499 3 .001-5L2 10zm1 0h12l3 2.5H6L3 10zm15 8H6v-5h12v5z" fill="#FFFFFF" />
  <path d="M7.2148 2.5234C5.9329 2.9977 3.2364 3.8063 1 3.5c.403.467 3.842 5.272 4.596 6 3.672 0 4.4841-.8525 5.904-1.5 1.4402-.6567 3.898-2 7.5-1.5-1.353-1.281-3.602-4.2953-4.465-5.2723C10 .5 8.4966 2.0491 7.2148 2.5234z" fill="#999999" />
</svg>
