<svg xmlns="http://www.w3.org/2000/svg" viewBox="0 0 15 16">
  <path fill-rule="evenodd" clip-rule="evenodd" d="M6.3536 3c0 1.1046-.8954 2-2 2s-2-.8954-2-2 .8954-2 2-2 2 .8954 2 2zM4.484 5.9972A3.0566 3.0566 0 014.3536 6c-1.6569 0-3-1.3431-3-3 0-1.6568 1.3431-3 3-3 1.6568 0 3 1.3432 3 3 0 .8927-.39 1.6943-1.0087 2.2439.445.8638.8183 1.397 1.228 1.7316.396.3234.9064.5245 1.7806.5245 1.1523 0 2.3979.2179 3.3783.9345 1.0359.7572 1.6217 1.9566 1.6217 3.5655v3h-2v-3c0-1.0796-.3633-1.6302-.802-1.9509-.4942-.3612-1.2486-.549-2.198-.549-1.2276 0-2.2172-.299-3.0457-.9755-.7727-.631-1.3193-1.525-1.8237-2.5274zm-.6305 5.7957L6 9.6465l.707.7071L4.5608 12.5l2.1464 2.1465L6 15.3536l-2.1464-2.1464-2.1464 2.1464L1 14.6465 3.1465 12.5 1 10.3536l.7071-.7072 2.1465 2.1465z" fill="currentColor" />
</svg>
