<svg xmlns="http://www.w3.org/2000/svg" viewBox="0 0 20 20">
  <path fill-rule="evenodd" clip-rule="evenodd" d="M2 3c0-1.1046.8954-2 2-2h12c1.1046 0 2 .8954 2 2v11h-1V3c0-.5523-.4477-1-1-1H4c-.5523 0-1 .4477-1 1v14c0 .5523.4477 1 1 1h4.5v1H4c-1.1046 0-2-.8954-2-2V3zm7.033 12.5583a7.8435 7.8435 0 00-.0328.7619c.0016.3933.0213.7849.0872 1.1716.0543.3143.1349.6204.2731.91.102.2139.2337.4081.4015.5776.2469.2484.5447.4081.8771.5084.3127.0955.6335.13.9577.1399a4.4513 4.4513 0 00.7553-.0395c.2534-.0345.5019-.0954.7372-.1991.3916-.1711.6928-.4426.9067-.8129.1398-.2435.232-.5035.2978-.775.0872-.3555.1251-.7191.1399-1.0844.0132-.3555.0115-.7125-.0181-1.068-.0198-.2419-.051-.4838-.102-.7207-.0659-.3044-.1646-.599-.3209-.8705-.1251-.2156-.283-.4048-.4789-.5595-.1876-.1481-.3982-.255-.6253-.3324-.3258-.1102-.6648-.1514-1.007-.1629a4.5264 4.5264 0 00-.701.0296c-.2715.0329-.5365.0922-.7882.1991-.2682.1136-.5036.2748-.6977.492-.2024.2255-.3407.4871-.4427.7702-.1234.3439-.1843.7026-.2188 1.0646zm3.7061.9681v-.0002c.0021-.0554.0041-.1085.0063-.1583a42.0018 42.0018 0 01-.005-.1643l-.0001-.0002c-.0038-.1288-.0071-.2417-.013-.3555-.0082-.2024-.028-.4048-.0675-.6039-.0312-.1612-.0757-.3159-.1546-.4607-.1037-.1892-.2584-.311-.469-.3554-.2107-.0445-.4246-.0445-.6352.0049-.1646.0395-.2995.125-.3982.2633-.0757.1036-.1234.2188-.1596.3406-.0691.2304-.0971.469-.1119.7076a9.261 9.261 0 00-.0132.882c.0099.2731.0263.543.0823.8112.0296.1432.0724.2831.1431.4131.0971.1793.2436.3011.4427.3488.2205.0527.4426.0527.6631.0033.1679-.0378.3028-.1251.4032-.2649.0576-.0807.1004-.1695.1333-.2633.0773-.2172.1119-.4443.1283-.6714.0132-.1639.0194-.3287.025-.4767zM20 18.4863h-1.3494a3.1172 3.1172 0 00-.0045-.0662v-1.8303c0-.0924-.003-.1834-.0225-.2744-.0404-.1904-.1301-.3559-.2827-.491-.1392-.1228-.3052-.1986-.4877-.2497-.211-.0579-.4294-.0772-.6493-.0744a2.0694 2.0694 0 00-.4623.0579c-.2139.051-.4144.1296-.5984.2441a.1502.1502 0 01-.0285.0135l-.0074.0031a.2562.2562 0 01-.0047-.0141c-.0015-.0046-.0027-.0084-.0043-.0122-.009-.026-.0183-.0521-.0276-.0782a6.1786 6.1786 0 01-.0367-.1052c-.0075-.0221-.021-.0331-.0464-.0317h-.9126c-.0755 0-.0754.0012-.0749.0555l.0001.0162v3.7791c0 .014.0012.0279.0024.0426a.9387.9387 0 01.0021.0263h1.3898l.0008-.0109.0012-.0154a.4831.4831 0 00.0025-.0426V17.107l.0001-.0406.0002-.0545a8.6318 8.6318 0 00-.0003-.1904c-.0015-.0275.009-.0455.0344-.0606a1.4159 1.4159 0 01.2872-.1352c.1108-.0372.223-.0593.3411-.0524.1093.0069.1676.0552.1826.1545a.6255.6255 0 01.0074.1048v2.6633l.0141.0009h.0001a.645.645 0 00.0412.0018c.3366.0007.6732.0007 1.0098.0007s.6733 0 1.0099.0007c.0329 0 .0508-.0083.0673-.0345l.5879-.9392a.2435.2435 0 00.018-.04zM5 13h1v3H5v-3zm4-3H8v3h1v-3zm2-3h1v5h-1V7zm4-3h-1v9h1V4z" fill="#333333" />
</svg>
