<svg xmlns="http://www.w3.org/2000/svg" viewBox="0 0 20 20">
  <path fill-rule="evenodd" clip-rule="evenodd" d="M9.0015 2.0617C5.0544 2.553 2 5.9197 2 10c0 4.0796 3.0534 7.4459 6.9997 7.9381h2.0005C14.9465 17.4459 18 14.0797 18 10c0-4.0803-3.0545-7.447-7.0017-7.9383H9.0015z" fill="#999" />
  <path fill-rule="evenodd" clip-rule="evenodd" d="M9 3h2V1l-.0023 1.0616A8.0765 8.0765 0 0010 2c-.3385 0-.6721.021-.9996.0618L9 1v2zm0 14v.9381A8.0692 8.0692 0 0010 18c.3387 0 .6724-.021 1-.0619V17H9zM9 6V4h2v2H9zm1 7c1.6569 0 3-1.3431 3-3s-1.3431-3-3-3-3 1.3431-3 3 1.3431 3 3 3zm-1 3.0468v-2.0156h2v2.0156H9z" fill="#fff" />
</svg>
