<svg xmlns="http://www.w3.org/2000/svg" viewBox="0 0 20 20">
  <path d="M0 3l3-3 2 2-.5.5 1.1647 1.1647C7.7215 2.7216 9.5 4.5 9.5 4.5l-2 2 .8333.8333L10 4l6 12H4l3.6667-7.3333L6.5 7.5l-2 2s-1.7784-1.7785-.8353-3.8353L2.5 4.5 2 5 0 3z" fill="#333333" />
  <path d="M19 10c0-4.9707-4.0293-9-9-9-1.7611 0-3.404.5058-4.7915 1.38l.7275.7276C7.127 2.4038 8.5163 2 10 2c4.4184 0 8 3.5816 8 8s-3.5816 8-8 8-8-3.5816-8-8c0-1.4837.4038-2.873 1.1076-4.064l-.7275-.7275C1.5058 6.5959 1 8.2389 1 10c0 4.9707 4.0293 9 9 9s9-4.0293 9-9z" fill="#999999" />
</svg>
