<svg xmlns="http://www.w3.org/2000/svg" viewBox="0 0 20 20">
  <g fill-rule="evenodd" clip-rule="evenodd">
    <path d="M3 5c0-2.3976 3.2049-4 7-4s7 1.6024 7 4v10c0 2.3976-3.2049 4-7 4s-7-1.6024-7-4V5z" fill="#888888" />
    <path d="M16 5c0 1.6569-2.6863 3-6 3S4 6.6569 4 5c0-1.6568 2.6863-3 6-3s6 1.3432 6 3zm-6 4C7.4893 9 5.237 8.2987 4 7.13V15c0 1.6569 2.6863 3 6 3s6-1.3431 6-3V7.1299C14.763 8.2987 12.5107 9 10 9z" fill="#FFFFFF" />
    <path d="M5 12.9507C2.4565 12.7001.7062 11.5159.1848 9.8027-.3983 7.8867.9123 6.0442 3 6v2c-1.8429.039-1.264 2.4976 2 2.9342V9l3.995 3L5 15v-2.0493zM17 6c2.1464 0 3.4165 1.854 2.8263 3.7914-.5244 1.7217-2.2739 2.9145-4.8063 3.1612V15L11 12l4.02-3v1.9435c1.6528-.1969 2.6349-.887 2.8931-1.7349C18.1223 8.522 17.7648 8 17 8V6z" fill="#333333" />
  </g>
</svg>
