<svg xmlns="http://www.w3.org/2000/svg" viewBox="0 0 20 20">
  <path fill-rule="evenodd" clip-rule="evenodd" d="M12.1436 12.1627l.0023-.0023c.8111-.8111 2.5371-.4002 3.8551.9178 1.318 1.3181 1.729 3.044.9179 3.8551a1.2918 1.2918 0 01-.0449.0428c-3.5517 3.5071-9.274 3.4934-12.8087-.0413-3.5485-3.5485-3.5485-9.3018 0-12.8503C7.5858.564 13.2762.5362 16.831 4.0009c.0303.0253.0597.052.0879.0802.8111.8111.4001 2.5371-.9179 3.8551s-3.0439 1.729-3.855.918l-.0033.0032c-.9125-.9124-2.392-.9124-3.3044 0-.9125.9125-.9125 2.3919 0 3.3044.9125.9125 2.3919.9125 3.3044 0l.0009.0009z" fill="#333333" />
  <path fill-rule="evenodd" clip-rule="evenodd" d="M11.7511 13.5997c-1.206.4915-2.6414.2479-3.62-.7308-1.303-1.303-1.303-3.4156 0-4.7186.9785-.9785 2.4135-1.2221 3.6194-.731.0999-.7746.5575-1.6645 1.3132-2.4203.6007-.6007 1.2861-1.013 1.9311-1.207-3.1438-2.113-7.4431-1.7798-10.2225.9996-3.158 3.158-3.158 8.2781 0 11.4361 2.7809 2.7808 7.0832 3.1129 10.2274.9963-.6463-.1935-1.3338-.6063-1.936-1.2086-.7543-.7542-1.2115-1.6421-1.3126-2.4157z" fill="#999999" />
  <g fill="#FFFFFF">
    <path d="M12.853 8.147c-.3296-.3296-.0597-1.4634.9178-2.4409.9775-.9775 2.1113-1.2474 2.4409-.9178.3296.3295.0596 1.4633-.9179 2.4408-.9775.9775-2.1113 1.2475-2.4408.918zM12.853 12.8675c-.3296.3296-.0597 1.4634.9178 2.4409.9775.9775 2.1113 1.2474 2.4409.9178.3296-.3295.0596-1.4633-.9179-2.4408-.9775-.9775-2.1113-1.2475-2.4408-.9179z" />
  </g>
  <g fill="#333333">
    <path d="M2 10h2v1H2v-1zM16 10h3v1h-3v-1zM10 10H6v1h4v-1zM12 10h2v1h-2v-1z" />
  </g>
</svg>
