<svg xmlns="http://www.w3.org/2000/svg" viewBox="0 0 20 20">
  <path d="M3 5c0-2.3976 3.2049-4 7-4s7 1.6024 7 4v10c0 2.3976-3.2049 4-7 4s-7-1.6024-7-4V5z" fill="#D2D2D2" />
  <path fill-rule="evenodd" clip-rule="evenodd" d="M4 5v10c0 1.6569 2.6863 3 6 3s6-1.3431 6-3V5c0-1.6568-2.6863-3-6-3S4 3.3432 4 5z" fill="#fff" />
  <path d="M10 9C6.2049 9 3 7.3976 3 5c0-2.3976 3.2049-4 7-4s7 1.6024 7 4c0 2.3976-3.2049 4-7 4z" fill="#D2D2D2" />
  <path fill-rule="evenodd" clip-rule="evenodd" d="M10 8c3.3137 0 6-1.3431 6-3 0-1.6568-2.6863-3-6-3S4 3.3432 4 5c0 1.6569 2.6863 3 6 3z" fill="#fff" />
  <path fill-rule="evenodd" clip-rule="evenodd" d="M5 12.9507C2.4565 12.7001.7062 11.5159.1848 9.8027-.3983 7.8867.9123 6.0442 3 6v2c-1.8429.039-1.264 2.4976 2 2.9342V9l3.995 3L5 15v-2.0493zM17 6c2.1464 0 3.4165 1.854 2.8263 3.7914-.5244 1.7217-2.2739 2.9145-4.8063 3.1612V15L11 12l4.02-3v1.9435c1.6528-.1969 2.6349-.887 2.8931-1.7349C18.1223 8.522 17.7648 8 17 8V6z" fill="#D2D2D2" />
  <path fill-rule="evenodd" clip-rule="evenodd" d="M12 6.6648L13.3352 8l4.6679-4.6679L18 7h2V0h-7v2l3.6639.001L12 6.6647z" fill="#999" />
</svg>
