<svg xmlns="http://www.w3.org/2000/svg" viewBox="0 0 20 20">
  <g fill="none" fill-rule="evenodd">
    <path d="M2.9542 5c0-2.3976 3.2049-4 7-4s7 1.6024 7 4v10c0 2.3976-3.2049 4-7 4s-7-1.6024-7-4V5z" fill="#DD5228" fill-rule="nonzero" />
    <path d="M3.9542 5v10c0 1.6569 2.6863 3 6 3s6-1.3431 6-3V5c0-1.6569-2.6863-3-6-3s-6 1.3431-6 3z" fill="#FFF" />
    <path d="M9.9542 9c-3.7951 0-7-1.6024-7-4 0-2.3976 3.2049-4 7-4s7 1.6024 7 4c0 2.3976-3.2049 4-7 4z" fill="#DD5228" fill-rule="nonzero" />
    <path d="M9.9542 8c3.3137 0 6-1.3431 6-3s-2.6863-3-6-3-6 1.3431-6 3 2.6863 3 6 3z" fill="#FFF" />
    <path d="M4.9542 12.9507C2.4108 12.7.6604 11.5159.1391 9.8027-.4441 7.8867.8666 6.0442 2.9542 6v2c-1.8428.039-1.264 2.4976 2 2.9342V9l3.995 3-3.995 3v-2.0493zm10.02-2.0072c1.6529-.1969 2.6349-.887 2.8932-1.7349C18.0765 8.522 17.719 8 16.9542 8V6c2.1465 0 3.4165 1.854 2.8264 3.7914-.5245 1.7217-2.274 2.9145-4.8064 3.1612V15l-4.02-3 4.02-3v1.9435z" fill="#DD5228" fill-rule="nonzero" />
  </g>
</svg>
