<svg xmlns="http://www.w3.org/2000/svg" viewBox="0 0 20 20">
  <path d="M1 3.5C1 2.1193 2.1193 1 3.5 1h13C17.8807 1 19 2.1193 19 3.5v13c0 1.3807-1.1193 2.5-2.5 2.5h-13C2.1193 19 1 17.8807 1 16.5v-13z" fill="#333333" />
  <path d="M2 3.5C2 2.6716 2.6716 2 3.5 2h13c.8284 0 1.5.6716 1.5 1.5v13c0 .8284-.6716 1.5-1.5 1.5h-13c-.8284 0-1.5-.6716-1.5-1.5v-13z" fill="#FFFFFF" />
  <path fill-rule="evenodd" clip-rule="evenodd" d="M4.7908 10.2158c-.8022-.2078-1.3005-.0705-1.6434.024-.1996.0549-.3465.0954-.47.0449-.336-.1374-.1437-1.5084.1543-1.7856.1815-.1688.409-.1863.9596-.1363.5506.05 1.0941.2795 1.0941.2795s.236-.695.236-1.8356c0-.8067-.2884-1.1104-.478-1.3739-.1152-.1603-.1939-.2697-.1488-.3665.1193-.256 2.2768-.7556 2.525-.6937.2484.0618.4924.3115.4924 1.4897 0 1.1781-1.3828 3.3365-1.3828 3.3365s.1571.201.2984.2984c.1412.0976.3405.1427.3405.1427s.624-.3899 1.2514-1.8967c.385-.9247.4106-1.6337.4272-2.0926.0105-.289.0173-.4788.108-.561.2347-.2127 1.3072.8886 1.6072 1.4818.0447.0885.0904.1743.1354.2588.2569.4828.4932.9268.4188 1.6056-.0434.3964-.9937.933-1.7275 1.3182-.3903.2048-.8097.3532-1.117.4618-.2706.0957-.4542.1607-.4542.2063 0 .0831.0931.2406.206.4316.0712.1206.1504.2545.219.3915.1774.3541.4362 1.8202.177 1.8737-.1454.03-.227-.1335-.351-.3819-.0968-.1942-.2196-.4403-.4191-.6864l-.0401-.0496c-.4574-.5655-1.1858-1.466-2.4184-1.7852zm3.5472.6356c-.0823-.1486.061-.7703.6386-.9071.2929-.0694.7199-.3684 1.111-.6423.3803-.2663.7266-.5088.8826-.4934.1605.0159.2567.2987.367.6228.1073.3153.2278.6697.4338.855.3792.3413.594.3493.8398.3585.0249.001.0501.0019.0758.0032.1093.0055.2811-.0826.4629-.1759.2836-.1455.5918-.3036.7261-.1386.1214.1492-.152.481-.406.7892-.2054.2492-.3955.4799-.3432.5769.1036.1923.2421.1813.4975.1609.0314-.0025.0646-.0052.0997-.0076.3205-.0222 3.3294-2.0648 3.5783-2.3278.2489-.2629.3348.435-.1738 1.0881-.293.3763-1.1862 1.2105-1.9486 1.9227-.5607.5236-1.0507.9813-1.1793 1.1422-.1542.193-.1738.3551-.1945.527-.02.1662-.0412.3415-.1865.5626-.2954.4495-.5203.7041-.6596.6151-.1392-.0889-.4589-.3805-.4589-.5682 0-.1878.1821-.1878.365-.1173.183.0704.2607.42.2607.42s.1471-.2775.1281-.5318c-.019-.2543-.36-.5704-.5995-.5704-.2394 0-.2854.0778-.344.201-.028.0586-.0267.158-.0256.2521.0013.1035.0025.2005-.0355.2291-.0351.0264-.0841-.0303-.1369-.0913-.056-.0646-.1161-.1341-.1682-.1143-.0585.0222.129.2207.3136.4161.1349.1429.2683.2841.3028.3535.0818.1645-.0031.4102-.205.4102-.0981 0-.3202-.1902-.6355-.4603-.3338-.286-.772-.6614-1.278-.9951-.3913-.258-.7574-.4663-1.0658-.6418-.4671-.2658-.8017-.4561-.89-.6296-.1202-.2358-.0672-.3667-.002-.5278a2.3155 2.3155 0 00.0434-.1128c.0407-.1177.0204-.3926.002-.6432-.0164-.2203-.0313-.4218-.002-.4811.0236-.0479.216.0404.3081.204.0537.0952.035.3174.0157.5458-.0137.1639-.0278.331-.0157.4568.0116.1194.083.2611.526.5164.443.2554.7371.378.9994.2214.06-.0358.1135-.1741.1794-.3441.0966-.2496.2198-.5678.429-.7312.1986-.155.5015-.2904.7695-.314.0906-.0079.1755.0125.2423.0286.0855.0206.1413.034.1413-.0286 0-.1114-.215-.1654-.6129-.1427-.2647.0151-.3629.0632-.4807.121-.0593.0291-.1235.0606-.2163.0916-.0539.0179-.1105.0082-.1623-.0007-.0649-.0111-.1222-.0209-.157.0266-.0312.0427-.0039.0851.0265.1321.0479.0742.1033.1601-.0529.2769-.2135.1596-.3712.0316-.5884-.1447-.0424-.0344-.087-.0707-.1348-.107-.072-.0547-.1525-.1081-.23-.1595-.1462-.0971-.2818-.187-.3302-.2659-.066-.1077.0702-.2084.1816-.2907.0715-.0529.1328-.0981.1237-.1328-.0157-.06-.088-.056-.2482-.0471-.0768.0042-.1738.0096-.2945.0096-.3726 0-.5266-.1018-.6089-.2503zm1.7303.7511c-.146-.1004-.3387-.2311-.4487-.0971-.0868.1055.0067.1613.1283.234.0328.0195.0675.0402.1013.0635.0359.0246.0695.051.1013.076.1098.0861.1974.1549.2773.0739.1031-.1043-.0135-.25-.1595-.3503z" fill="#333333" />
</svg>
