<svg xmlns="http://www.w3.org/2000/svg" viewBox="0 0 20 20">
  <path fill-rule="evenodd" clip-rule="evenodd" d="M4 4H3v3H2V4H1V1h3v1h3v1H4v1zM2 2h1v1H2V2zm2 17H1v-3h1v-3h1v3h1v1h3v1H4v1zm-2-2h1v1H2v-1zM18 4h1V1h-3v1h-3v1h3v1h1v3h1V4zm0-2h-1v1h1V2zm1 17h-3v-1h-3v-1h3v-1h1v-3h1v3h1v3zm-2-2h1v1h-1v-1zM3 11H2V9h1v2zm14 0h1V9h-1v2zm-6-8H9V2h2v1zM9 18h2v-1H9v1z" fill="#333333" />
  <path d="M5 15h10V5H5v10z" fill="#333333" />
  <path fill-rule="evenodd" clip-rule="evenodd" d="M6 11.6667V14h8V6h-2.3333v5.6667H6z" fill="#FFFFFF" />
  <path fill-rule="evenodd" clip-rule="evenodd" d="M6 6v4.6667h4.6667V6H6z" fill="#999999" />
  <g>
    <path fill="#1651B0" d="M0 0h10v8H0z" />
    <path fill-rule="evenodd" clip-rule="evenodd" d="M9 4H7v1h2V4zM6 4H4v1h2V4zM3.0005 4H1v1h2.0007l-.0002-1zM4 6h2v1H4V6zm5 1H7V6h2v1zM3.0008 6H1v1h2.001l-.0002-1z" fill="#FFFFFF" />
    <path fill-rule="evenodd" clip-rule="evenodd" d="M4 1h2v2H4V1zm3 0v2h2V1H7zM3.0001 1H1v2h2.0004l-.0003-2z" fill="#90CEF1" />
  </g>
</svg>
