<svg xmlns="http://www.w3.org/2000/svg" viewBox="0 0 20 20">
  <g fill-rule="evenodd" clip-rule="evenodd">
    <path d="M4 4H3v3H2V4H1V1h3v1h3v1H4v1zM2 2h1v1H2V2zm2 17H1v-3h1v-3h1v3h1v1h3v1H4v1zm-2-2h1v1H2v-1zM18 4h1V1h-3v1h-3v1h3v1h1v3h1V4zm0-2h-1v1h1V2zM3 11H2V9h1v2zm8-8H9V2h2v1zM9 18h2v-1H9v1zM15.8412 8c-1.3851 0-2.5079 1.1228-2.5079 2.5079v2.8253h-.0793c-.6926 0-1.254.5614-1.254 1.254v4.1587c0 .6925.5614 1.254 1.254 1.254h5.492c.6926 0 1.254-.5615 1.254-1.254v-4.1587c0-.6926-.5614-1.254-1.254-1.254h-.0794v-2.8253C18.6666 9.1229 17.5438 8 16.1587 8h-.3175zm-1.1745 2.6666c0-.7364.5969-1.3333 1.3333-1.3333.7364 0 1.3333.597 1.3333 1.3333v2.6667h-2.6666v-2.6667zm2.6666 6.0001C17.3333 17.4031 16.7364 18 16 18c-.7364 0-1.3333-.5969-1.3333-1.3333 0-.7364.5969-1.3333 1.3333-1.3333.7364 0 1.3333.5969 1.3333 1.3333z" fill="#333333" />
    <path d="M11.5 15H5V5h10v2.5415c-1.4189.238-2.5 1.472-2.5 2.9585V13c-.5523 0-1 .4477-1 1v1z" fill="#333333" />
    <path d="M6 14v-2.3333h5.6667V6H14v1.9013c-.8967.5188-1.5 1.4883-1.5 2.5987V13c-.5523 0-1 .4477-1 1H6z" fill="#FFFFFF" />
    <path d="M6 10.6667V6h4.6667v4.6667H6z" fill="#999999" />
  </g>
</svg>
