<svg xmlns="http://www.w3.org/2000/svg" viewBox="0 0 20 20">
  <g fill-rule="evenodd" clip-rule="evenodd">
    <path d="M4 4H3v3H2V4H1V1h3v1h3v1H4v1zM2 2h1v1H2V2zm2 17H1v-3h1v-3h1v3h1v1h3v1H4v1zm-2-2h1v1H2v-1zM18 4h1V1h-3v1h-3v1h3v1h1v3h1V4zm0-2h-1v1h1V2zM3 11H2V9h1v2zm8-8H9V2h2v1zM14.3333 10.5079C14.3333 9.1229 15.4562 8 16.8412 8h.3175c1.3851 0 2.5079 1.1228 2.5079 2.5079v2.8254h-3.9061c.6859.0078 1.2395.5662 1.2395 1.2539v4.1588c0 .6925-.5614 1.2539-1.254 1.2539h-5.492c-.6926 0-1.254-.5614-1.254-1.2539v-4.1588c0-.6925.5614-1.2539 1.254-1.2539h4.0793v-2.8254zm1.3334 2.8254h2.6666v-2.6667c0-.7364-.5969-1.3334-1.3333-1.3334-.7364 0-1.3333.597-1.3333 1.3334v2.6667zM13 18c.7364 0 1.3333-.5969 1.3333-1.3333 0-.7364-.5969-1.3333-1.3333-1.3333-.7364 0-1.3333.5969-1.3333 1.3333C11.6667 17.4031 12.2636 18 13 18z" fill="#333333" />
    <path d="M8.5 15H5V5h10v3.0052c-.804.5382-1.3333 1.4547-1.3333 2.4948v2.1667H10.5c-1.1046 0-2 .8954-2 2V15z" fill="#333333" />
    <path d="M6 10.6667V6h4.6667v4.6667H6z" fill="#999999" />
    <path d="M6 14v-2.3333h5.6667V6H14v3.1243a2.9874 2.9874 0 00-.3333 1.3757v2.1667H10.5c-.8708 0-1.6116.5565-1.8862 1.3333H6z" fill="#FFFFFF" />
  </g>
</svg>
