<svg xmlns="http://www.w3.org/2000/svg" viewBox="0 0 20 20">
  <path fill-rule="evenodd" clip-rule="evenodd" d="M4 4H3v3H2V4H1V1h3v1h3v1H4v1zM2 2h1v1H2V2zm2 17H1v-3h1v-3h1v3h1v1h3v1H4v1zm-2-2h1v1H2v-1zM18 4h1V1h-3v1h-3v1h3v1h1v3h1V4zm0-2h-1v1h1V2zm1 17h-3v-1h-3v-1h3v-1h1v-3h1v3h1v3zm-2-2h1v1h-1v-1zM3 11H2V9h1v2zm14 0h1V9h-1v2zm-6-8H9V2h2v1zM9 18h2v-1H9v1z" fill="#333333" />
  <path d="M5 15h10V5H5v10z" fill="#333333" />
  <path fill-rule="evenodd" clip-rule="evenodd" d="M6 11.6667V14h8V6h-2.3333v5.6667H6z" fill="#FFFFFF" />
  <path fill-rule="evenodd" clip-rule="evenodd" d="M6 6v4.6667h4.6667V6H6z" fill="#999999" />
</svg>
