<svg xmlns="http://www.w3.org/2000/svg" viewBox="0 0 20 20">
  <g fill="#333333">
    <path d="M8 6c0 1.1046-.8954 2-2 2s-2-.8954-2-2 .8954-2 2-2 2 .8954 2 2zM8.4595 10.177a2.6723 2.6723 0 01-1.0082-1.39c-.4419-.0874-.929-.1203-1.4513-.1203-1.6917 0-4 .6666-4 4 0 1.5025 1.6005 1.8761 3.3334 1.9741.009-2.9107 1.533-4.069 3.1261-4.4638zM10 10c1.1046 0 2-.8954 2-2s-.8954-2-2-2-2 .8954-2 2 .8954 2 2 2z" />
    <path d="M11.5 16c0 .2037.0609.3932.1655.5512-.5168.0727-1.0846.1024-1.6655.1155-1.9651-.0469-4-.3058-4-2 0-3.3334 2.3083-4 4-4 .8607 0 1.626.0893 2.2508.3646-.4317.1107-.7508.5024-.7508.9687v4z" />
  </g>
  <path fill-rule="evenodd" clip-rule="evenodd" d="M15 7.5c-1.1046 0-2 .8954-2 2v2c-.5523 0-1 .4477-1 1v3c0 .5523.4477 1 1 1h4c.5523 0 1-.4477 1-1v-3c0-.5523-.4477-1-1-1v-2c0-1.1046-.8954-2-2-2zm-1 2c0-.5523.4477-1 1-1s1 .4477 1 1v2h-2v-2zm2 4.5c0 .5523-.4477 1-1 1s-1-.4477-1-1 .4477-1 1-1 1 .4477 1 1z" fill="#1651B0" />
</svg>
