<svg xmlns="http://www.w3.org/2000/svg" viewBox="0 0 20 20">
  <path d="M12.1439 9.872c.486-.396.738-1.008.738-1.836 0-.846-.27-1.458-.774-1.836-.504-.36-1.188-.558-2.052-.558h-2.61v4.824h2.646c.882 0 1.566-.198 2.052-.594zm-1.746-5.706c.612 0 1.17.09 1.692.252.504.18.954.432 1.332.756.378.324.684.738.9 1.224.216.486.324 1.044.324 1.656 0 .432-.072.828-.18 1.224-.126.396-.306.774-.54 1.098a3.753 3.753 0 01-.918.846c-.36.252-.792.432-1.296.54.882 1.314 2.646 3.942 3.546 5.238h-1.944c-.864-1.26-2.574-3.78-3.42-5.058h-2.448V17h-1.764V4.166h4.716z" fill="#333333" />
</svg>
