<svg xmlns="http://www.w3.org/2000/svg" viewBox="0 0 20 20">
  <path fill-rule="evenodd" clip-rule="evenodd" d="M16.2006 16.7501C16.4599 16.3017 16.9447 16 17.5 16c.8284 0 1.5.6716 1.5 1.5s-.6716 1.5-1.5 1.5c-.5552 0-1.0399-.3016-1.2993-.7499h-4.2008c-1.5188 0-2.75-1.2312-2.75-2.75v-4.5c0-1.5188 1.2312-2.75 2.7499-2.75h2.9138c1.0915 0 1.6587-1.3008.916-2.1006l-2.7858-3a1.25 1.25 0 00-.916-.3995H4.5c-.6904 0-1.25.5596-1.25 1.25l-.0002 12.2006C3.6984 16.4599 4 16.9447 4 17.5c0 .8284-.6716 1.5-1.5 1.5S1 18.3284 1 17.5c0-.5552.3016-1.0399.7498-1.2992L1.75 4c0-1.5188 1.2312-2.75 2.75-2.75h7.6278a2.75 2.75 0 012.0152.8788l2.7858 3c1.6339 1.7596.386 4.6212-2.0152 4.6213h-2.9137c-.6904 0-1.25.5597-1.25 1.25v4.5c0 .6904.5596 1.25 1.25 1.25h4.2007z" fill="#333333" />
</svg>
