<svg xmlns="http://www.w3.org/2000/svg" viewBox="0 0 20 20">
  <path fill-rule="evenodd" clip-rule="evenodd" d="M6 18H2v-8h4c2.2091 0 4-1.7909 4-4V2h8v4c0 6.6274-5.3726 12-12 12z" fill="#333333" />
  <path d="M6 17H3v-6h3c2.7614 0 5-2.2386 5-5V3h6v3c0 6.0751-4.9249 11-11 11z" fill="#999999" />
  <path fill-rule="evenodd" clip-rule="evenodd" d="M10 4.3267l7.8372 3.6545c-.0564.34-.1272.675-.2116 1.0047L10 5.43V4.3267zM8.3225 17.7755l-3.6257-7.7754h1.1034l3.5142 7.5364c-.3251.0933-.656.1732-.9919.239zm6.6077-3.7595c-.2229.2482-.456.4869-.6986.7157L8.5674 9.0675a4.0231 4.0231 0 00.6812-.733l5.6816 5.6815z" fill="#FFFFFF" />
</svg>
