<svg xmlns="http://www.w3.org/2000/svg" viewBox="0 0 100 59">
  <defs>
    <clippath id="clip0_2820_11">
      <path fill="#fff" d="M0 0h100v59H0z" />
    </clippath>
    <clippath id="clip1_2820_11">
      <path fill="#fff" d="M0 0h100v59.2H0z" />
    </clippath>
  </defs>
  <g clip-path="url(#clip0_2820_11)">
    <g clip-path="url(#clip1_2820_11)" fill="#A91E23">
      <path d="M62.7001 52.6c.1-.4.2999-.8.3999-1.2 1.8-5.5 3.6001-11.1 5.4-16.6.3-.8.6-1.2 1.5-1.1 1.7001.1 3.4 0 5.1 0 .7 0 1 .2 1 1V58c0 .7-.3.9-.9.9-4 .2-4 .2-4-3.8v-7.8-7.8c-.1.4-.2999.7-.3999 1.1C68.9001 46.3 67.1 52 65.2 57.7c-.3.9-.7 1.3-1.6 1.2-1.2-.1-2.6.3-3.5-.3-.8-.5-.7999-2-1.1999-3.1l-4.5-14.7c-.1-.4-.3-.8-.7-1.2 0 .6.0999 1.2.0999 1.9.1 5.5.1 10.9.2 16.4 0 .8-.2 1.1-1 1.1-.9-.1-1.8999 0-2.7999 0-.6 0-.9001-.2-.9001-.9V34.2c0-.1.1001-.2.1001-.4 2.2 0 4.3999 0 6.6999.1.3 0 .6.7.7 1.1 1.7 5.6 3.4 11.1 5.2 16.7.1.4.2.7.3 1 .2-.2.3-.2.4001-.1zM44.2001 58.8h-4.8c-.3 0-.8001-.5-.9001-.9-.5-1.4-.9-2.8-1.2999-4.2-.2001-.7-.5-.9-1.2001-.9h-7.2999c-.7 0-1.0001.2-1.2001.9-.4 1.4-.7999 2.8-1.2999 4.2-.1.3-.4001.8-.7001.9-1.7.1-3.3 0-5.2 0 .2-.6.3001-1 .4001-1.5 2.6-7.5 5.3-15.1 7.8999-22.6.3001-.9.8-1.3 1.8-1.2 1.4.1 2.9001 0 4.3001.1.3999 0 .8999.4 1.0999.7 2.9 8 5.7 16.1 8.5 24.1-.1 0-.0999.1-.0999.4zm-11.8-20.8H32.1c-1 3.4-2 6.8-3.1 10.3h6.5c-1-3.6-1.9999-7-3.0999-10.3zM16.8001 35.1c-.5 1.3-1.1 2.6-1.6 3.9-1.5-.4-3-.9-4.4-1.2-.8-.2-1.6-.1-2.4 0-1.1.2-1.9.8-2.1 2-.2 1.1.2 2 1.1 2.6.7.5 1.6.9 2.3 1.3 1.5.8 3 1.6 4.4 2.5 2.5 1.6 3.3 4 2.9 6.9-.4 2.7-2 4.5-4.6 5.4-3.7 1.1-7.4.8-10.9-.6-.3-.1-.7-.7-.7-1-.1-1.3 0-2.6 0-4.1.6.2 1 .4 1.5.6 2.1.8 4.2 1.5 6.6 1.4 1.6-.1 2.6-.7 2.9-1.8.4-1.2-.1-2.3-1.5-3.2-1.6-1-3.3-1.8-5-2.7-1.9-1.1-3.4-2.6-4-4.8C.2 38 2.6 34.4 7 33.6c3.1-.7 7.1-.1 9.8 1.5zM84.3 58.7v-25h5.1v20.7h10.1v4.4c-5.1-.1-10.1-.1-15.2-.1zM63.1 17.7c-.9-1.2-1.7-2.5-2.6-3.7-1.5-1.9-3.1-3.8-4.7-5.5-.9-.9-2-1.6-3.1-2.1-1.7-.8-3.3-.4-4.3 1.2-1.2 1.9-2.2 4-3.2 6.1-.2.4-.4.9-.6 1.3.7-5 2.4-9.7 5.1-14.2 5.4 4.9 10.2 10.3 13.4 16.9z" />
      <path d="M62.0999 22.7c-7.2 2.1-14.3 3.5-21.8 2.9 3.1-.3 6.1-.5 9-1 1.8-.3 3.6-.8 5.3-1.5 2.8-1.2 3.5-3.2 2.1-6-1-2-2.3-3.9-3.5-5.8 2.1 1 7.2 7.5 8.9 11.4z" />
      <path d="M51.4 18.9c-4.5 2-9.2 2.7-14.3 2.7 1.4-7 3.5-13.6 7.3-19.5-.2.4-.3.8-.5 1.1-1.5 3.4-3.1 6.9-3.6 10.7-.1.9-.1 1.8.1 2.7.3 1.4 1.2 2.6 2.7 2.6 2.3.1 4.6-.1 6.9-.1.5 0 .9-.1 1.4-.2z" />
    </g>
  </g>
</svg>
