<svg xmlns="http://www.w3.org/2000/svg" viewBox="0 0 20 20">
  <g fill="none" fill-rule="evenodd">
    <path d="M14 18H3v-1h11v-1l3 1.5-3 1.5v-1z" fill="#999" />
    <path fill="#FFF" d="M1.25 5h17.5v6H1.25z" />
    <path d="M19 4.75H1v6.5h18v-6.5zm-.5 6h-17v-5.5h17v5.5z" fill="#999" />
    <path d="M4.5 14.75c-.146 0-.286-.127-.301-.271l-.9-9.006c-.04-.399-.399-.723-.799-.723-.055 0-.098-.017-.12-.046-.024-.03-.029-.076-.017-.128l.758-3.031c.039-.154.22-.295.379-.295h1c.146 0 .286.127.301.272l.9 9.005c.04.399.399.723.799.723.055 0 .097.017.12.046.024.03.029.076.017.129l-.758 3.029c-.039.155-.22.296-.379.296h-1zM8.5 14.75c-.146 0-.286-.127-.301-.271l-.9-9.006c-.04-.399-.399-.723-.799-.723-.055 0-.098-.017-.12-.046-.024-.03-.029-.076-.017-.128l.758-3.031c.039-.154.22-.295.379-.295h1c.146 0 .286.127.301.272l.9 9.005c.04.399.399.723.799.723.055 0 .097.017.12.046.024.03.029.076.017.129l-.758 3.029c-.039.155-.22.296-.379.296h-1zM12.5 14.75c-.146 0-.286-.127-.301-.271l-.9-9.006c-.04-.399-.399-.723-.799-.723-.055 0-.098-.017-.12-.046-.024-.03-.029-.076-.017-.128l.758-3.031c.039-.154.22-.295.379-.295h1c.146 0 .286.127.301.272l.9 9.005c.04.399.399.723.799.723.055 0 .097.017.12.046.024.03.029.076.017.129l-.758 3.029c-.039.155-.22.296-.379.296h-1zM16.5 14.75c-.146 0-.286-.127-.301-.271l-.9-9.006c-.04-.399-.399-.723-.799-.723-.055 0-.098-.017-.12-.046-.024-.03-.029-.076-.017-.128l.758-3.031c.039-.154.22-.295.379-.295h1c.146 0 .286.127.301.272l.9 9.005c.04.399.399.723.799.723.055 0 .097.017.12.046.024.03.029.076.017.129l-.758 3.029c-.039.155-.22.296-.379.296h-1z" fill="#999" />
    <path d="M16.6648 2H13V0h7.0026v7H18.002l-.0014-3.6653L13.3352 8 12 6.6648 16.6648 2z" fill="#333" fill-rule="nonzero" />
  </g>
</svg>
