<svg xmlns="http://www.w3.org/2000/svg" viewBox="0 0 20 20">
  <path d="M19 3.25H1v7h18v-7z" fill="#333333" />
  <path fill-rule="evenodd" clip-rule="evenodd" d="M18 9.25H2v-5h16v5z" fill="#FFFFFF" />
  <path fill-rule="evenodd" clip-rule="evenodd" d="M4.199 13.229c.015.144.155.271.301.271h1c.159 0 .34-.141.379-.296l.758-3.029c.012-.053.007-.099-.017-.129-.023-.029-.065-.046-.12-.046-.4 0-.759-.324-.799-.723l-.9-9.005C4.786.127 4.646 0 4.5 0h-1c-.159 0-.34.141-.379.295l-.758 3.031c-.012.052-.007.098.017.128.022.029.065.046.12.046.4 0 .759.324.799.723l.9 9.006zm4 0c.015.144.155.271.301.271h1c.159 0 .34-.141.379-.296l.758-3.029c.012-.053.007-.099-.017-.129-.023-.029-.065-.046-.12-.046-.4 0-.759-.324-.799-.723l-.9-9.005C8.786.127 8.646 0 8.5 0h-1c-.159 0-.34.141-.379.295l-.758 3.031c-.012.052-.007.098.017.128.022.029.065.046.12.046.4 0 .759.324.799.723l.9 9.006zm4.301.271c-.146 0-.286-.127-.301-.271l-.9-9.006c-.04-.399-.399-.723-.799-.723-.055 0-.098-.017-.12-.046-.024-.03-.029-.076-.017-.128l.758-3.031C11.16.141 11.341 0 11.5 0h1c.146 0 .286.127.301.272l.9 9.005c.04.399.399.723.799.723.055 0 .097.017.12.046.024.03.029.076.017.129l-.758 3.029c-.039.155-.22.296-.379.296h-1zm3.699-.271c.015.144.155.271.301.271h1c.159 0 .34-.141.379-.296l.758-3.029c.012-.053.007-.099-.017-.129-.023-.029-.065-.046-.12-.046-.4 0-.759-.324-.799-.723l-.9-9.005C16.786.127 16.646 0 16.5 0h-1c-.159 0-.34.141-.379.295l-.758 3.031c-.012.052-.007.098.017.128.022.029.065.046.12.046.4 0 .759.324.799.723l.9 9.006z" fill="#333333" />
  <path d="M14 18H3v-2h11v-2l3 3-3 3v-2z" fill="#333333" />
</svg>
