<svg xmlns="http://www.w3.org/2000/svg" viewBox="0 0 20 20">
  <g fill="none" fill-rule="evenodd">
    <g opacity=".6">
      <path d="M14 18H3v-1h11v-1l3 1.5-3 1.5v-1z" fill="#999" />
      <path fill="#FFF" d="M1.25 5h17.5v6H1.25z" />
      <path d="M19 4.75H1v6.5h18v-6.5zm-.5 6h-17v-5.5h17v5.5z" fill="#999" />
      <path d="M4.5 14.75c-.146 0-.286-.127-.301-.271l-.9-9.006c-.04-.399-.399-.723-.799-.723-.055 0-.098-.017-.12-.046-.024-.03-.029-.076-.017-.128l.758-3.031c.039-.154.22-.295.379-.295h1c.146 0 .286.127.301.272l.9 9.005c.04.399.399.723.799.723.055 0 .097.017.12.046.024.03.029.076.017.129l-.758 3.029c-.039.155-.22.296-.379.296h-1z" fill="#FFF" />
      <path d="M4.5 1h-1c-.275 0-.555.218-.621.485l-.758 3.03c-.066.267.104.485.379.485s.522.224.55.498l.9 9.004c.028.274.275.498.55.498h1c.275 0 .555-.218.621-.485l.758-3.03C6.945 11.218 6.775 11 6.5 11s-.522-.224-.55-.498l-.9-9.004C5.022 1.224 4.775 1 4.5 1m0 .5c.018 0 .05.029.052.047l.901 9.005c.048.485.436.874.909.939l-.726 2.903c-.011.043-.091.106-.136.106h-1c-.018 0-.05-.029-.052-.047l-.901-9.005c-.048-.485-.436-.874-.909-.939l.726-2.903c.011-.043.091-.106.136-.106h1" fill="#999" />
      <path d="M8.5 14.75c-.146 0-.286-.127-.301-.271l-.9-9.006c-.04-.399-.399-.723-.799-.723-.055 0-.098-.017-.12-.046-.024-.03-.029-.076-.017-.128l.758-3.031c.039-.154.22-.295.379-.295h1c.146 0 .286.127.301.272l.9 9.005c.04.399.399.723.799.723.055 0 .097.017.12.046.024.03.029.076.017.129l-.758 3.029c-.039.155-.22.296-.379.296h-1z" fill="#FFF" />
      <path d="M8.5 1h-1c-.275 0-.555.218-.621.485l-.758 3.03c-.066.267.104.485.379.485s.522.224.55.498l.9 9.004c.028.274.275.498.55.498h1c.275 0 .555-.218.621-.485l.758-3.03c.066-.267-.104-.485-.379-.485s-.522-.224-.55-.498l-.9-9.004C9.022 1.224 8.775 1 8.5 1m0 .5c.018 0 .05.029.052.047l.901 9.005c.048.485.436.874.909.939l-.726 2.903c-.011.043-.091.106-.136.106h-1c-.018 0-.05-.029-.052-.047l-.901-9.005c-.048-.485-.436-.874-.909-.939l.726-2.903c.011-.043.091-.106.136-.106h1" fill="#999" />
      <path d="M12.5 14.75c-.146 0-.286-.127-.301-.271l-.9-9.006c-.04-.399-.399-.723-.799-.723-.055 0-.098-.017-.12-.046-.024-.03-.029-.076-.017-.128l.758-3.031c.039-.154.22-.295.379-.295h1c.146 0 .286.127.301.272l.9 9.005c.04.399.399.723.799.723.055 0 .097.017.12.046.024.03.029.076.017.129l-.758 3.029c-.039.155-.22.296-.379.296h-1z" fill="#FFF" />
      <path d="M12.5 1h-1c-.275 0-.555.218-.621.485l-.758 3.03c-.066.267.104.485.379.485s.522.224.55.498l.9 9.004c.028.274.275.498.55.498h1c.275 0 .555-.218.621-.485l.758-3.03c.066-.267-.104-.485-.379-.485s-.522-.224-.55-.498l-.9-9.004C13.022 1.224 12.775 1 12.5 1m0 .5c.018 0 .05.029.052.047l.901 9.005c.048.485.436.874.909.939l-.726 2.903c-.011.043-.091.106-.136.106h-1c-.018 0-.05-.029-.052-.047l-.901-9.005c-.048-.485-.436-.874-.909-.939l.726-2.903c.011-.043.091-.106.136-.106h1" fill="#999" />
      <path d="M16.5 14.75c-.146 0-.286-.127-.301-.271l-.9-9.006c-.04-.399-.399-.723-.799-.723-.055 0-.098-.017-.12-.046-.024-.03-.029-.076-.017-.128l.758-3.031c.039-.154.22-.295.379-.295h1c.146 0 .286.127.301.272l.9 9.005c.04.399.399.723.799.723.055 0 .097.017.12.046.024.03.029.076.017.129l-.758 3.029c-.039.155-.22.296-.379.296h-1z" fill="#FFF" />
      <path d="M16.5 1h-1c-.275 0-.555.218-.621.485l-.758 3.03c-.066.267.104.485.379.485s.522.224.55.498l.9 9.004c.028.274.275.498.55.498h1c.275 0 .555-.218.621-.485l.758-3.03c.066-.267-.104-.485-.379-.485s-.522-.224-.55-.498l-.9-9.004C17.022 1.224 16.775 1 16.5 1m0 .5c.018 0 .05.029.052.047l.901 9.005c.048.485.436.874.909.939l-.726 2.903c-.011.043-.091.106-.136.106h-1c-.018 0-.05-.029-.052-.047l-.901-9.005c-.048-.485-.436-.874-.909-.939l.726-2.903c.011-.043.091-.106.136-.106h1" fill="#999" />
    </g>
    <path d="M16.6648 2H13V0h7.0026v7H18.002l-.0014-3.6653L13.3352 8 12 6.6648 16.6648 2z" fill="#999" fill-rule="nonzero" />
  </g>
</svg>
