<svg xmlns="http://www.w3.org/2000/svg" viewBox="0 0 20 20">
  <g fill="none" fill-rule="evenodd">
    <path fill="#DD5228" fill-rule="nonzero" d="M19 3.25H1v7h18z" />
    <path fill="#FFF" d="M18 9.25H2v-5h16z" />
    <path d="M4.5 13.5c-.146 0-.286-.127-.301-.271l-.9-9.006C3.259 3.824 2.9 3.5 2.5 3.5c-.055 0-.098-.017-.12-.046-.024-.03-.029-.076-.017-.128L3.121.295C3.16.141 3.341 0 3.5 0h1c.146 0 .286.127.301.272l.9 9.005c.04.399.399.723.799.723.055 0 .097.017.12.046.024.03.029.076.017.129l-.758 3.029c-.039.155-.22.296-.379.296h-1zm4 0c-.146 0-.286-.127-.301-.271l-.9-9.006C7.259 3.824 6.9 3.5 6.5 3.5c-.055 0-.098-.017-.12-.046-.024-.03-.029-.076-.017-.128L7.121.295C7.16.141 7.341 0 7.5 0h1c.146 0 .286.127.301.272l.9 9.005c.04.399.399.723.799.723.055 0 .097.017.12.046.024.03.029.076.017.129l-.758 3.029c-.039.155-.22.296-.379.296h-1zm4 0c-.146 0-.286-.127-.301-.271l-.9-9.006c-.04-.399-.399-.723-.799-.723-.055 0-.098-.017-.12-.046-.024-.03-.029-.076-.017-.128l.758-3.031C11.16.141 11.341 0 11.5 0h1c.146 0 .286.127.301.272l.9 9.005c.04.399.399.723.799.723.055 0 .097.017.12.046.024.03.029.076.017.129l-.758 3.029c-.039.155-.22.296-.379.296h-1zm4 0c-.146 0-.286-.127-.301-.271l-.9-9.006c-.04-.399-.399-.723-.799-.723-.055 0-.098-.017-.12-.046-.024-.03-.029-.076-.017-.128l.758-3.031C15.16.141 15.341 0 15.5 0h1c.146 0 .286.127.301.272l.9 9.005c.04.399.399.723.799.723.055 0 .097.017.12.046.024.03.029.076.017.129l-.758 3.029c-.039.155-.22.296-.379.296h-1zM14 18H3v-2h11v-2l3 3-3 3z" fill="#DD5228" fill-rule="nonzero" />
  </g>
</svg>
