<svg xmlns="http://www.w3.org/2000/svg" viewBox="0 0 20 20">
  <defs>
    <clippath id="clip0_23329_22817">
      <path fill="#fff" d="M0 0h20v20H0z" />
    </clippath>
  </defs>
  <g clip-path="url(#clip0_23329_22817)">
    <path fill-rule="evenodd" clip-rule="evenodd" d="M10 0c2.5352 0 4.8487.945 6.6113 2.5H19v1h-1.4033C19.0939 5.2482 20 7.5178 20 10c0 2.4822-.9061 4.7518-2.4033 6.5H19v1h-2.3887C14.8487 19.055 12.5352 20 10 20c-2.5352 0-4.8487-.945-6.6113-2.5H1v-1h1.4033C.9061 14.7518 0 12.4822 0 10c0-2.4822.906-4.7518 2.4033-6.5H1v-1h2.3887C5.1513.945 7.4647 0 10 0zM5.0254 17.5C6.4506 18.4472 8.1605 19 10 19c1.8395 0 3.5494-.5528 4.9746-1.5H5.0254zm-1.247-14C2.067 5.1383 1 7.444 1 10c0 2.5561 1.0671 4.8617 2.7783 6.5h12.4434C17.9329 14.8617 19 12.5561 19 10c0-2.556-1.0671-4.8617-2.7783-6.5H3.7783zM10 1c-1.8395 0-3.5494.5528-4.9746 1.5h9.9492C13.5494 1.5528 11.8395 1 10 1z" fill="#333333" />
  </g>
</svg>
