<svg xmlns="http://www.w3.org/2000/svg" viewBox="0 0 20 20">
  <path fill-rule="evenodd" clip-rule="evenodd" d="M14.1784 12.6913l4.2636 3.6263c.6901.621.7481 1.6352.1293 2.2539-.6187.6188-1.6328.5603-2.2538-.1293l-3.6263-4.2637c-.3966-.441-.5788-.9123-.5614-1.2932-1.179 1.0063-2.7083 1.6144-4.38 1.6144C4.0222 14.4997 1 11.4774 1 7.7498 1 4.0222 4.0222 1 7.7498 1c3.7275 0 6.7497 3.0222 6.7497 6.7498 0 1.6718-.608 3.2012-1.6143 4.3801.3808-.0174.8522.1648 1.2932.5614zM3.2504 7.7504c0 2.4851 2.0149 4.4999 4.5 4.4999 2.485 0 4.4998-2.0148 4.4998-4.4999 0-2.485-2.0148-4.4999-4.4999-4.4999-2.485 0-4.4998 2.0148-4.4998 4.5z" fill="currentColor" />
</svg>
