<svg xmlns="http://www.w3.org/2000/svg" viewBox="0 0 20 20">
  <path fill-rule="evenodd" clip-rule="evenodd" d="M12.7856 11.7942l2.8424 2.4176c.4601.414.4987 1.0901.0862 1.5026-.4125.4124-1.0886.3734-1.5025-.0863l-2.4176-2.8424c-.2644-.294-.3859-.6083-.3742-.8621-.786.6708-1.8056 1.0762-2.92 1.0762C6.0149 12.9998 4 10.985 4 8.4999 4 6.0149 6.0148 4 8.4999 4c2.485 0 4.4998 2.0148 4.4998 4.4999 0 1.1145-.4054 2.1341-1.0762 2.9201.2538-.0117.5681.1098.8621.3742zm-7.2853-3.294c0 1.6568 1.3432 3 3 3 1.6566 0 2.9998-1.3432 2.9998-3 0-1.6566-1.3432-2.9999-2.9999-2.9999-1.6567 0-2.9999 1.3433-2.9999 3z" fill="#666666" />
</svg>
