<svg xmlns="http://www.w3.org/2000/svg" viewBox="0 0 200 160">
  <path fill-rule="evenodd" clip-rule="evenodd" d="M196.38 98.3545l-27.654-23.2848c-2.86-2.5462-5.918-3.7164-8.388-3.6045 6.527-7.5702 10.471-17.3904 10.471-28.1245C170.809 19.4058 151.207 0 127.029 0c-22.765 0-41.4739 17.2043-43.5825 39.1945l-4.4242-3.8323c-3.4914-3.0242-9.4252-6.2165-14.3677-6.2165H7.1838C2.2485 29.1457 0 31.0872 0 35.3622V122.48c0 4.281 2.2485 6.229 7.1838 6.229l43.1031-.003v-6.22H8.9799c-.97 0-1.796-.709-1.796-1.556V36.9241c0-.8401.826-1.5557 1.796-1.5557l55.6747-.0062v24.897l22.0537-.0048c1.6892 3.9412 3.9509 7.5838 6.6817 10.8256v.0244h.0206a43.8859 43.8859 0 0013.2234 10.5963l9.77 9.6718h21.116l-5.071-5.0201c8.716-1.0658 16.637-4.6688 22.99-10.0366-.113 2.4451 1.069 5.4717 3.641 8.3033l23.521 27.3769c4.027 4.428 10.605 4.804 14.619.831 4.013-3.973 3.637-10.485-.84-14.4725zM83.5266 48.2504a42.795 42.795 0 001.064 5.7799H71.2398V37.4426l12.2868 10.8078zm43.5064 23.9877c-16.119 0-29.1872-12.9372-29.1872-28.8938 0-15.9566 13.0682-28.8938 29.1872-28.8938 16.118 0 29.186 12.9372 29.186 28.8938 0 15.9566-13.068 28.8938-29.186 28.8938zM93.39 113.774v-9.245h-7.8648V87.5088c0-7.2374-5.6594-9.3677-11.1793-9.3677-3.5881 0-6.8327 1.2767-9.108 2.9103l-.619-2.2002h-8.074v34.9228h10.5043V89.5657c1.5169-1.1369 3.9875-1.9869 5.5044-1.9869 1.3808 0 1.9318.5667 1.9318 1.9869v24.2083H93.39zM13.7767 89.7091c0 16.8919 5.3804 24.6259 19.7329 24.6259 14.281 0 19.5968-7.737 19.5968-24.6259 0-16.8886-5.3124-24.6962-19.5968-24.6962-14.3525 0-19.7329 7.8041-19.7329 24.6962zm27.1165 0c0 11.7819-2.2787 14.3349-7.3836 14.3349-5.1764 0-7.3837-2.627-7.3837-14.3384 0-11.7079 2.2073-14.4049 7.3837-14.4049 5.1049 0 7.3836 2.627 7.3836 14.4084zm56.0889 25.1059V77.1742l16.8819 16.7127v37.6411l-16.8819-16.713zm-40.6086 2.515h38.0693l16.8822 16.712H73.2997L56.3735 117.33zm-2.4945 23.418v-20.859l17.6004 17.378v20.905L53.879 140.748zM140.085 160H75.0714v-22.402h42.3846V94.9283h22.629V160z" fill="#EEEEEE" />
</svg>
