<svg xmlns="http://www.w3.org/2000/svg" viewBox="0 0 40 50">
  <path fill-rule="evenodd" clip-rule="evenodd" d="M13 5c0 1.6569-1.3431 3-3 3S7 6.6569 7 5c0-1.6568 1.3431-3 3-3s3 1.3432 3 3zm-1.5 4.7711C13.5286 9.134 15 7.2388 15 5c0-2.7614-2.2386-5-5-5S5 2.2386 5 5c0 2.2388 1.4714 4.134 3.5 4.7711v30.5196C7.034 40.884 6 42.3212 6 43.9999c0 2.2091 1.7909 4 4 4 2.2091 0 4-1.7909 4-4 0-1.4324-.753-2.689-1.8847-3.3955.3028-.5767.7061-1.0329 1.1847-1.3919C14.4253 38.3685 16.0481 38 18 38h5.5c2.8392 0 4.858-.7759 6.1661-2.0839 1.0737-1.0738 1.6213-2.459 1.7823-3.941C33.4465 31.7522 35 30.0575 35 27.9999c0-1.686-1.0432-3.1284-2.5193-3.717-.1355-2.4716-.9855-4.4412-2.567-5.7968C28.2248 17.0385 25.941 16.5 23.5 16.5h-6c-2.3447 0-3.7648-.8301-4.6364-1.9311C11.948 13.4124 11.5 11.7779 11.5 10v-.2289zm17.9765 14.5292c-.1236-1.7701-.7214-2.856-1.5152-3.5364C27.0252 19.9615 25.559 19.5 23.5 19.5h-6c-2.5315 0-4.5317-.753-6-2.0315v22.2131c.3271-.4944.7296-.9163 1.2-1.2691C14.0747 37.3815 15.9519 37 18 37h5.5c2.6608 0 4.392-.7241 5.4589-1.7911.8572-.8571 1.3308-1.9806 1.4847-3.2474C28.4978 31.6907 27 30.0202 27 27.9999c0-1.6697 1.023-3.1004 2.4765-3.6996z" fill="currentColor" />
</svg>
