<svg xmlns="http://www.w3.org/2000/svg" viewBox="0 0 40 50">
  <path fill-rule="evenodd" clip-rule="evenodd" d="M10 8c1.6569 0 3-1.3431 3-3 0-1.6568-1.3431-3-3-3S7 3.3432 7 5c0 1.6569 1.3431 3 3 3zm5-3c0 2.2388-1.4714 4.134-3.5 4.7711V10c0 1.7779.448 3.4124 1.3636 4.5689.8716 1.101 2.2917 1.9311 4.6364 1.9311h6c2.441 0 4.7248.5385 6.4137 1.9861 1.5206 1.3034 2.3651 3.1746 2.5482 5.5139H32.5v.2907c1.4659.5933 2.5 2.0305 2.5 3.7092 0 1.6882-1.0459 3.1322-2.5251 3.7193-.1261 1.7854-.7399 3.5421-2.1017 4.904C28.824 38.1724 26.5175 39 23.5 39H18c-1.8558 0-3.2241.3556-4.1 1.0125-.3932.2949-.7399.6904-.99 1.2429.6758.7163 1.09 1.682 1.09 2.7445 0 2.2091-1.7909 4-4 4-2.2091 0-4-1.7909-4-4 0-2.0398 1.5268-3.723 3.5-3.9691V31h1v8.3945c.4109-.6956.9458-1.2913 1.6-1.782C13.7241 36.3944 15.8558 36 18 36h5.5c2.4825 0 3.926-.6724 4.7518-1.4982.6957-.6956 1.1017-1.6488 1.2152-2.8062C28.0186 31.0941 27 29.666 27 27.9999c0-1.6697 1.023-3.1004 2.4765-3.6996-.1236-1.7701-.7214-2.856-1.5152-3.5364C27.0252 19.9615 25.559 19.5 23.5 19.5h-6c-3.1553 0-5.4852-1.1699-6.9886-3.0689C9.052 14.5876 8.5 12.2221 8.5 10v-.2289C6.4714 9.134 5 7.2388 5 5c0-2.7614 2.2386-5 5-5s5 2.2386 5 5zM5.6464 29.6465L9.293 26l-3.6465-3.6464.7071-.7071L10 25.2929l3.6464-3.6464.7071.7071L10.7071 26l3.6464 3.6465-.7071.7071L10 26.7071l-3.6465 3.6465-.707-.7071z" fill="currentColor" />
</svg>
