<svg xmlns="http://www.w3.org/2000/svg" viewBox="0 0 15 15">
  <path fill-rule="evenodd" clip-rule="evenodd" d="M5 3c0 1.1046-.8954 2-2 2s-2-.8954-2-2 .8954-2 2-2 2 .8954 2 2zm-.993 2.8268C5.1685 5.413 6 4.3036 6 3c0-1.6568-1.3431-3-3-3-1.6568 0-3 1.3432-3 3 0 1.3084.8376 2.4211 2.0058 2.8313.0534 1.5022.4822 2.7312 1.479 3.562C4.5101 10.2475 5.9315 10.5 7.5 10.5c1.3452 0 2.1936.3362 2.6993.7997.4923.4513.8007 1.1529.8007 2.2003V15h2V13.5c0-1.4526-.4416-2.751-1.4493-3.6746C10.5564 8.9138 9.1548 8.5 7.5 8.5c-1.4315 0-2.2601-.2476-2.7348-.6432-.3944-.3287-.708-.902-.7582-2.03z" fill="#333" />
</svg>
