<svg xmlns="http://www.w3.org/2000/svg" viewBox="0 0 15 15">
  <path fill-rule="evenodd" clip-rule="evenodd" d="M5 3c0 1.1046-.8954 2-2 2s-2-.8954-2-2 .8954-2 2-2 2 .8954 2 2zM3.1307 5.9972A3.0621 3.0621 0 013 6C1.3432 6 0 4.6569 0 3c0-1.6568 1.3432-3 3-3 1.6569 0 3 1.3432 3 3 0 .8927-.3899 1.6943-1.0087 2.2438.4452.8639.8184 1.3971 1.228 1.7317C6.6155 7.2989 7.1259 7.5 8 7.5c1.1524 0 2.3979.2179 3.3783.9345C12.4142 9.1917 13 10.3911 13 12V15h-2V12c0-1.0796-.3633-1.6302-.802-1.9509C9.7038 9.6879 8.9494 9.5 8 9.5c-1.2276 0-2.2172-.2989-3.0457-.9755-.7726-.631-1.3193-1.525-1.8236-2.5273z" fill="#333" />
  <path fill-rule="evenodd" clip-rule="evenodd" d="M2.1465 12.1435L0 14.29l.7071.7071 2.1464-2.1464L5 14.9971l.7071-.7071-2.1464-2.1465L5.707 9.9971 5 9.29l-2.1465 2.1464L.7071 9.29 0 9.997l2.1465 2.1464z" fill="#333" />
</svg>
