<svg xmlns="http://www.w3.org/2000/svg" viewBox="0 0 40 50">
  <path fill-rule="evenodd" clip-rule="evenodd" d="M13 5c0 1.6569-1.3431 3-3 3S7 6.6569 7 5c0-1.6568 1.3431-3 3-3s3 1.3432 3 3zm-1.5 4.7711C13.5286 9.134 15 7.2388 15 5c0-2.7614-2.2386-5-5-5S5 2.2386 5 5c0 2.2388 1.4714 4.134 3.5 4.7711v30.5196C7.034 40.884 6 42.3212 6 43.9999c0 2.2091 1.7909 4 4 4 2.2091 0 4-1.7909 4-4 0-1.4324-.753-2.689-1.8847-3.3955.3028-.5767.7061-1.0329 1.1847-1.3919C14.4253 38.3685 16.0481 38 18 38h5.5c2.8392 0 4.858-.7759 6.1661-2.0839C30.9726 34.6095 31.5 32.842 31.5 31v-7h-1v7c0 1.658-.4726 3.1405-1.5411 4.2089C27.892 36.2759 26.1608 37 23.5 37H18c-2.0481 0-3.9253.3815-5.3 1.4125-.4704.3528-.8729.7747-1.2 1.2691V9.7711zm15.1464 12.8754L30.2929 19l-3.6465-3.6464.7071-.7071L31 18.2929l3.6464-3.6464.7071.7071L31.7071 19l3.6464 3.6465-.7071.7071L31 19.7071l-3.6465 3.6465-.7071-.7071z" fill="currentColor" />
</svg>
