<svg xmlns="http://www.w3.org/2000/svg" viewBox="0 0 15 15">
  <path fill-rule="evenodd" clip-rule="evenodd" d="M5 3c0 1.1046-.8954 2-2 2s-2-.8954-2-2 .8954-2 2-2 2 .8954 2 2zM4 5.8293C5.1652 5.4175 6 4.3063 6 3c0-1.6568-1.3431-3-3-3-1.6568 0-3 1.3432-3 3 0 1.3062.8348 2.4175 2 2.8293V15h2V5.8293zM6.634 10.0345l2.1831-2.347-2.1832-2.347.7322-.681L9.5 6.9533l2.1339-2.294.7322.6812-2.1832 2.347 2.1832 2.3469-.7322.6811L9.5 8.4216l-2.1339 2.294-.7322-.6811zM9 11.5V15h1v-3.5H9z" fill="#333" />
</svg>
