<svg xmlns="http://www.w3.org/2000/svg" viewBox="0 0 40 50">
  <path fill-rule="evenodd" clip-rule="evenodd" d="M13 5c0 1.6569-1.3431 3-3 3S7 6.6569 7 5c0-1.6568 1.3431-3 3-3s3 1.3432 3 3zm-1.5 4.7711C13.5286 9.134 15 7.2388 15 5c0-2.7614-2.2386-5-5-5S5 2.2386 5 5c0 2.2388 1.4714 4.134 3.5 4.7711v30.5196C7.034 40.884 6 42.3212 6 43.9999c0 2.2091 1.7909 4 4 4 2.2091 0 4-1.7909 4-4 0-1.0625-.4142-2.0282-1.09-2.7445.2501-.5525.5968-.948.99-1.2429C14.7759 39.3556 16.1442 39 18 39h5.5c3.0175 0 5.324-.8276 6.8732-2.3768 1.3618-1.3619 1.9756-3.1186 2.1017-4.904C33.9541 31.1321 35 29.6881 35 27.9999c0-1.6787-1.0341-3.1159-2.5-3.7092V24h-.0381c-.1831-2.3393-1.0276-4.2105-2.5482-5.5139C28.2248 17.0385 25.941 16.5 23.5 16.5h-6c-2.3447 0-3.7648-.8301-4.6364-1.9311C11.948 13.4124 11.5 11.7779 11.5 10v-.2289zm17.9765 14.5292c-.1236-1.7701-.7214-2.856-1.5152-3.5364C27.0252 19.9615 25.559 19.5 23.5 19.5h-6c-3.1553 0-5.4852-1.1699-6.9886-3.0689-.4042-.5107-.7388-1.0614-1.0114-1.6379v25.2376a4.0444 4.0444 0 01.6833-.0268c.4366-.9623 1.0788-1.7631 1.9167-2.3915C13.7241 36.3944 15.8558 36 18 36h5.5c2.4825 0 3.926-.6724 4.7518-1.4982.6957-.6956 1.1017-1.6488 1.2152-2.8062C28.0186 31.0941 27 29.666 27 27.9999c0-1.6697 1.023-3.1004 2.4765-3.6996z" fill="currentColor" />
</svg>
