<svg xmlns="http://www.w3.org/2000/svg" viewBox="0 0 15 15">
  <path fill-rule="evenodd" clip-rule="evenodd" d="M5 3c0 1.1046-.8954 2-2 2s-2-.8954-2-2 .8954-2 2-2 2 .8954 2 2zM4 5.8293C5.1652 5.4175 6 4.3063 6 3c0-1.6568-1.3431-3-3-3-1.6568 0-3 1.3432-3 3 0 1.3062.8348 2.4175 2 2.8293V15h2v-4.6488c.8082.4824 1.7656.6488 2.7298.6488h1.7431c.8563 0 1.3685.1288 1.723.5016C10.5792 11.9047 11 12.827 11 15h2c0-2.327-.4306-3.9047-1.3548-4.8766C10.6922 9.1212 9.4409 9 8.4729 9H6.7298c-.9858 0-1.618-.223-2.01-.5978C4.3358 8.035 4 7.3467 4 6v-.1707z" fill="#333" />
</svg>
