<svg xmlns="http://www.w3.org/2000/svg" viewBox="0 0 40 50">
  <path fill-rule="evenodd" clip-rule="evenodd" d="M13 5c0 1.6569-1.3431 3-3 3S7 6.6569 7 5c0-1.6568 1.3431-3 3-3s3 1.3432 3 3zm2 0c0 2.7614-2.2386 5-5 5S5 7.7614 5 5s2.2386-5 5-5 5 2.2386 5 5zm-5 43c2.2091 0 4-1.7909 4-4 0-2.0398-1.5268-3.723-3.5-3.9691V23h-1v17.0309C7.5268 40.277 6 41.9602 6 44c0 2.2091 1.7909 4 4 4zm0-30.7071l3.6465-3.6464.7071.7071L10.7071 18l3.6464 3.6465-.7071.7071L10 18.7071l-3.6464 3.6465-.7072-.7071L9.293 18l-3.6465-3.6464.7072-.7071L10 17.2929z" fill="currentColor" />
</svg>
