<svg xmlns="http://www.w3.org/2000/svg" viewBox="0 0 171 104">
  <path fill-rule="evenodd" clip-rule="evenodd" d="M66.5649 74.6281L144.69 102.386l.082.025c8.911 2.694 23.061 1.475 24.889-5.0812V65.9334c.672-2.72-2.041-5.2333-4.013-6.7753L109.303 20.409c-13.9729-8.0216-32.8103-5.4696-40.4823-3.191L26.9351 2.1514C23.2291.9216 14.2604-.964 8.0335 1.3316 5.6076 2.1324.6547 4.5777.25 7.9527v19.826c.4416 1.8216 2.1467 3.703 2.944 4.4159l56.0503 38.7732c2.0802 1.6011 6.0624 3.1658 7.1967 3.6116h.0002l.0001.0001.1236.0486z" fill="#EEF2F6" />
  <path fill-rule="evenodd" clip-rule="evenodd" d="M27.0139 1.9141C25.1442 1.2937 21.9572.5108 18.4538.1707c-3.498-.3396-7.3388-.2404-10.5027.9248-1.2313.407-3.0974 1.228-4.7123 2.3777C1.6324 4.6167.2172 6.1263.0018 7.923L0 7.9378v19.8707l.007.0291c.2321.9574.7907 1.9144 1.3805 2.7133.5917.8014 1.229 1.4626 1.6398 1.8301l.0116.0104 56.058 38.7784c1.1061.8501 2.7225 1.6814 4.166 2.3425 1.3375.6125 2.543 1.0861 3.0871 1.2999l.1231.0486 78.1339 27.7602.093.029c4.493 1.359 10.297 1.729 15.212.936 2.459-.397 4.709-1.087 6.467-2.101s3.043-2.3654 3.523-4.088l.009-.033V65.9633c.346-1.4511-.208-2.825-1.063-4.0059-.862-1.1902-2.055-2.2214-3.046-2.9963l-.006-.0047-56.36-38.7592-.008-.005c-7.037-4.0396-15.2866-5.4111-22.7263-5.4913-7.3902-.0796-14.0027 1.1148-17.8734 2.2542L27.0198 1.9161l-.0059-.002zm36.4572 71.1436c-1.3969-.6398-2.9206-1.4242-3.9768-2.2141V51.3842l-.1076-.0745c-1.3902-.9632-2.8526-2.556-3.9588-4.106-.552-.7735-1.0105-1.5296-1.3246-2.1829-.3199-.6656-.4705-1.1862-.4534-1.5037v-9.7127c.8214 1.968 2.5646 3.7602 4.5494 5.2711 2.7077 2.0611 5.9385 3.6548 8.1526 4.519l-.0366 30.6667c-.6084-.2401-1.6755-.6683-2.8442-1.2035zm-8.4502-25.5635a22.0634 22.0634 0 001.3972 1.7587L3.4374 12.5446l-.015-.0077c-1.0066-.5119-1.7065-1.3794-2.1728-2.2722C.791 9.3868.5682 8.5023.5018 7.9537c.2011-1.5666 1.459-2.957 3.027-4.0732 1.5674-1.1158 3.3885-1.917 4.5831-2.3114l.0081-.003C11.1821.4373 14.9374.3317 18.4055.6683c3.4623.3361 6.6112 1.1102 8.4479 1.7194l.003.001L67.9295 17.163c-8.4362 2.0296-14.7796 7.3198-14.7796 14.2678v12.0663c-.022.4531.1808 1.0703.5028 1.7402.3296.6855.8042 1.4665 1.3682 2.2568zM.5 27.7484V9.8345c.0889.218.1907.44.3064.6616.4948.9474 1.2545 1.9041 2.374 2.4786l55.8139 38.6714v18.8448L3.3491 31.998c-.387-.3478-.9944-.9788-1.5594-1.7441C1.2235 29.487.7138 28.6037.5 27.7484zm58.0022 10.9292c-2.743-2.088-4.8523-4.5993-4.8523-7.2467 0-6.8149 6.452-12.1124 15.2226-13.9683l.0098-.0021.0096-.0028c3.8126-1.1324 10.4151-2.3364 17.8044-2.2568 7.3871.0796 15.5387 1.4417 22.4737 5.4198l56.33 38.739c.979.7666 2.125 1.7613 2.943 2.8909.821 1.1331 1.286 2.3651.976 3.6229-.332 1.3451-1.574 2.8088-4.457 4.2481-.297.1217-.596.2508-.902.3832-1.483.6402-3.147 1.3587-5.621 1.7075-2.988.4213-7.167.3016-13.596-1.1969L66.6915 43.1897l-.0026-.001c-2.1844-.8366-5.4609-2.4362-8.1867-4.5111zm8.3495 5.0998L144.522 71.432v30.629L66.8151 74.4517l.0366-30.6743zm92.9813 59.3146c-4.78.772-10.418.425-14.811-.868V71.57c6.305 1.4438 10.466 1.5633 13.487 1.1374 2.546-.3589 4.275-1.1061 5.76-1.7482.306-.132.601-.2596.891-.3785l.009-.0035.008-.0041c2.199-1.0966 3.538-2.2439 4.234-3.4043v30.1264c-.441 1.5407-1.606 2.7898-3.282 3.7568-1.688.974-3.875 1.65-6.296 2.04zM24.8511 8.1027c0 .951-.7977 1.9514-2.4077 2.7437-1.5778.7765-3.7925 1.271-6.266 1.271-2.4736 0-4.6883-.4945-6.266-1.271-1.61-.7923-2.4077-1.7926-2.4077-2.7437 0-.9511.7977-1.9515 2.4077-2.7438 1.5777-.7765 3.7924-1.271 6.266-1.271 2.4735 0 4.6882.4945 6.266 1.271 1.61.7923 2.4077 1.7927 2.4077 2.7438zm.5 0c0 2.4934-4.1072 4.5147-9.1737 4.5147-5.0665 0-9.1737-2.0213-9.1737-4.5147 0-2.4934 4.1072-4.5147 9.1737-4.5147 5.0665 0 9.1737 2.0213 9.1737 4.5147zM160.263 67.5132c1.61-.7923 2.408-1.7927 2.408-2.7438 0-.9511-.798-1.9514-2.408-2.7437-1.577-.7765-3.792-1.271-6.266-1.271-2.473 0-4.688.4945-6.266 1.271-1.61.7923-2.407 1.7926-2.407 2.7437 0 .9511.797 1.9515 2.407 2.7438 1.578.7764 3.793 1.2709 6.266 1.2709 2.474 0 4.689-.4945 6.266-1.2709zm-6.266 1.7709c5.067 0 9.174-2.0213 9.174-4.5147 0-2.4934-4.107-4.5147-9.174-4.5147-5.066 0-9.173 2.0213-9.173 4.5147 0 2.4934 4.107 4.5147 9.173 4.5147zM77.6655 23.4512l-3.8199-1.8452-6.7953 3.4151 3.675 1.9534c-.9947.9704-1.5209 2.1519-1.5312 3.3923-.0112 1.3444.5836 2.7251 1.7813 3.9514 1.3818 1.4148 3.571 2.631 6.5966 3.3766 3.7337.9202 8.7567 1.1282 15.1546.0988l3.6008 1.8491 6.7696-3.4893-3.6424-1.8541c1.3694-1.3241 1.8994-2.8679 1.6154-4.4046-.3-1.6208-1.4953-3.1766-3.433-4.4242-3.8652-2.4885-10.7708-3.8147-19.9715-2.0193zm-7.9714 6.9198c.0085-1.0216.4124-2.0142 1.2101-2.8651v5.9838c-.8295-1.0162-1.2187-2.0943-1.2101-3.1187zm7.6877 6.7595c-2.7467-.7208-4.7199-1.8352-5.9776-3.0898v-7.2716l-3.2652-1.7355 5.711-2.8702 3.5318 1.7061v13.261zm.5.1248V23.9186c9.0631-1.7453 15.7806-.4124 19.4845 1.9723 1.8664 1.2016 2.9457 2.6541 3.2117 4.0948.264 1.428-.26 2.9011-1.7221 4.1855l-.085.0747v3.5748l-2.4439 1.2597-3.5181-1.8067-.0812.0132c-6.279 1.0188-11.1966.8333-14.8459-.0316zM102 36.1562l-2.7291 1.4067v-2.7961L102 36.1562z" fill="#769FCC" />
</svg>
