<svg xmlns="http://www.w3.org/2000/svg" viewBox="0 0 20 20">
  <path fill-rule="evenodd" clip-rule="evenodd" d="M9.476 2h1.033c.214.013.413.106.564.256.112.112.188.246.222.387l.387 1.609c.024.101.168.257.265.291l.522.216c.052.025.121.036.19.036.084 0 .168-.017.22-.049l1.412-.863c.131-.08.286-.119.442-.119.201 0 .403.065.555.192 0 0 .166.137.393.365.228.227.365.393.365.393.225.27.256.699.074.998l-.864 1.412c-.059.094-.068.293-.019.393l.216.521c.05.138.197.259.298.282l1.609.388c.331.081.62.428.64.768v1.033c-.021.372-.296.702-.641.786l-1.609.387c-.108.026-.254.16-.291.265l-.216.522c-.056.117-.046.315.012.411l.863 1.409c.181.3.15.729-.074.998 0 0-.138.166-.365.393-.228.228-.392.366-.392.366-.153.127-.356.192-.557.192-.156 0-.311-.039-.441-.118l-1.412-.864c-.054-.033-.141-.051-.224-.051-.064 0-.126.011-.17.032l-.52.216c-.123.043-.256.189-.283.298l-.387 1.608c-.084.344-.414.621-.769.641H9.492c-.372-.02-.705-.31-.786-.642L8.32 15.75c-.024-.1-.168-.258-.265-.291l-.522-.216c-.053-.025-.123-.037-.192-.037-.084 0-.167.017-.219.049l-1.41.863c-.131.08-.286.118-.442.118-.201 0-.404-.065-.556-.191 0 0-.166-.138-.393-.365a7.497 7.497 0 01-.3483-.3721c-.012-.0136-.0183-.0209-.0187-.0209-.225-.271-.257-.699-.074-.998l.864-1.412c.058-.096.068-.294.019-.394l-.215-.52c-.049-.138-.199-.259-.299-.283l-1.608-.388c-.332-.08-.621-.427-.641-.768V9.491c.021-.372.297-.702.642-.785l1.608-.388c.108-.026.255-.16.291-.265l.216-.522c.056-.116.047-.315-.011-.411l-.864-1.41c-.182-.3-.151-.728.074-.998 0 0 .137-.165.365-.393.227-.227.393-.365.393-.365.152-.127.355-.193.557-.193.155 0 .31.04.441.119l1.412.864c.053.033.14.051.224.051.064 0 .126-.01.169-.032l.521-.216c.122-.043.256-.189.282-.298l.388-1.608c.083-.344.414-.621.768-.641zm-1.519 9.758c.52.52 1.204.78 1.887.78s1.367-.26 1.887-.78c1.04-1.04 1.04-2.733 0-3.773-.52-.52-1.204-.78-1.887-.78s-1.367.26-1.887.78c-1.039 1.04-1.04 2.732 0 3.773z" fill="#666666" />
</svg>
