<svg xmlns="http://www.w3.org/2000/svg" viewBox="0 0 20 20">
  <g fill-rule="evenodd" clip-rule="evenodd">
    <g fill="#333333">
      <path d="M7.5001 14.3821l.5528-1.1056a.5.5 0 11.8944.4472l-.8882 1.7764.8882 1.7764a.5.5 0 11-.8944.4472l-.5528-1.1056-.5528 1.1056a.5.5 0 11-.8944-.4472l.8882-1.7764-.8882-1.7764a.5.5 0 11.8944-.4472l.5528 1.1056zm3.441 1.118l-.8882 1.7764a.5.5 0 10.8944.4472l.5528-1.1056.5528 1.1056a.5.5 0 10.8944-.4472l-.8882-1.7764.8882-1.7764a.5.5 0 10-.8944-.4472l-.5528 1.1056-.5528-1.1056a.5.5 0 10-.8944.4472l.8882 1.7764zM3.534 9.607c.055.15.153.26.297.331.151.0711.306.0811.466.029.16-.051.277-.144.353-.277l1.351-2.543L7.349 9.69c.076.133.193.226.354.277.16.0521.311.0421.453-.029.152-.071.255-.181.31-.331.055-.15.043-.292-.032-.425L6.681 6l1.627-3.17c.076-.141.086-.287.031-.437-.053-.151-.157-.26-.308-.331-.144-.072-.295-.081-.454-.029-.16.05-.278.147-.354.288L6.001 4.616 4.777 2.321c-.076-.141-.194-.238-.353-.288-.16-.052-.316-.043-.468.029-.142.071-.241.18-.295.331-.056.15-.045.296.03.437L5.319 6 3.566 9.182c-.076.133-.086.275-.032.425zm6.9997 0c.056.15.154.26.297.331.151.0711.307.0811.467.029.16-.051.277-.144.353-.277l1.35-2.543 1.35 2.543c.075.133.192.226.353.277.159.0521.31.0421.453-.029.152-.071.255-.181.309-.331.055-.15.044-.292-.032-.425L13.6807 6l1.628-3.17c.075-.141.086-.287.031-.437-.054-.151-.158-.26-.309-.331-.143-.072-.295-.081-.454-.029-.16.05-.278.147-.354.288l-1.222 2.295-1.224-2.295c-.076-.141-.194-.238-.353-.288-.16-.052-.315-.043-.467.029-.143.071-.242.18-.295.331-.056.15-.046.296.03.437L12.3187 6l-1.753 3.182c-.075.133-.086.275-.032.425z" />
    </g>
    <path d="M17 12H2v-1h15v1z" fill="#1651B0" />
  </g>
</svg>
