<svg xmlns="http://www.w3.org/2000/svg" viewBox="0 0 20 20">
  <path fill-rule="evenodd" clip-rule="evenodd" d="M1.9985 1C1.4475 1 1 1.4448 1 1.9934v16.0132c0 .5485.4448.9934.9934.9934h16.0132c.5485 0 .9934-.447.9934-.9985V6.9985c0-.551-.316-1.3145-.7058-1.7043l-3.5884-3.5884C14.3128 1.3128 13.553 1 13.0015 1H1.9985zM2.5 2.5v15h15V6.9987s-.0002-.009-.0025-.0275a.8365.8365 0 00-.0147-.0801 1.5025 1.5025 0 00-.0754-.2314 1.4871 1.4871 0 00-.1102-.2168.8152.8152 0 00-.0462-.067.2647.2647 0 00-.0176-.0212l-3.5883-3.5882s-.0068-.0068-.0226-.019a.8298.8298 0 00-.0672-.0464 1.473 1.473 0 00-.2153-.1093 1.476 1.476 0 00-.2295-.0746.8277.8277 0 00-.0802-.0147C13.0101 2.5 13.0015 2.5 13.0015 2.5H2.5zm12 4.5c0 1.3807-1.1193 2.5-2.5 2.5S9.5 8.3807 9.5 7s1.1193-2.5 2.5-2.5 2.5 1.1193 2.5 2.5zm1.5 7c0 1.6917-1.9151 1.9531-4 2-1.9651-.0469-4-.3057-4-2 0-3.3333 2.3083-4 4-4 2.3584 0 4 .6706 4 4z" fill="currentColor" />
</svg>
