<svg xmlns="http://www.w3.org/2000/svg" viewBox="0 0 20 20">
  <path fill-rule="evenodd" clip-rule="evenodd" d="M19 4c0 1.6569-1.3431 3-3 3a2.99 2.99 0 01-2.0826-.8407l-6.94 3.47a3.0305 3.0305 0 010 .7413l6.0057 3.0029C13.7164 12.5319 14.7961 12 16 12c2.2091 0 4 1.7909 4 4 0 2.2091-1.7909 4-4 4-2.2091 0-4-1.7909-4-4 0-.2874.0303-.5678.0879-.838l-6.0053-3.0027A2.99 2.99 0 014 13c-1.6568 0-3-1.3431-3-3s1.3432-3 3-3a2.99 2.99 0 012.0826.8407l6.9401-3.47A3.0226 3.0226 0 0113 4c0-1.6568 1.3431-3 3-3s3 1.3432 3 3zm-.5 12c0 1.3807-1.1193 2.5-2.5 2.5s-2.5-1.1193-2.5-2.5 1.1193-2.5 2.5-2.5 2.5 1.1193 2.5 2.5zm-3.1464-1.3536a.5002.5002 0 00-.7072 0 .5002.5002 0 000 .7072l.6465.6464-.6465.6464a.5002.5002 0 000 .7072.5002.5002 0 00.7072 0L16 16.7071l.6464.6465a.5002.5002 0 00.7072 0 .5002.5002 0 000-.7072L16.7071 16l.6465-.6464a.5002.5002 0 000-.7072.5002.5002 0 00-.7072 0L16 15.2929l-.6464-.6465z" fill="currentColor" />
</svg>
