<svg xmlns="http://www.w3.org/2000/svg" viewBox="0 0 24 24">
  <g fill="#333333">
    <path d="M4 12.5048C4 14.1346 4.2991 14.5 5 14.5c.6915 0 1-.3556 1-1.9952C6 10.8654 5.6915 10.5 5 10.5c-.7009 0-1 .375-1 2.0048z" />
    <path fill-rule="evenodd" clip-rule="evenodd" d="M19 1c-.5523 0-1 .4477-1 1v1.2929l-3.4469 3.4469C14.1864 6.2884 13.6269 6 13 6H3c-1.1046 0-2 .8954-2 2v10c0 1.1046.8954 2 2 2h10c1.1046 0 2-.8954 2-2v-.2929l3 3V22c0 .5523.4477 1 1 1h3c.5523 0 1-.4477 1-1v-3c0-.5523-.4477-1-1-1h-3c-.5523 0-1 .4477-1 1v.2929l-3-3v-.2936h-3v-3.3038c0-.1998-.3236-.3655-.5358-.3655-.2338 0-.5311.11-.7648.27V16H9v-4.9h1.2428l.106.3099c.34-.23.8392-.4099 1.3915-.4099.8498 0 1.7208.2999 1.7208 1.32V15H15v-2h3v1c0 .5523.4477 1 1 1h3c.5523 0 1-.4477 1-1v-3c0-.5523-.4477-1-1-1h-3c-.5523 0-1 .4477-1 1v1h-3V8c0-.093-.0064-.1846-.0186-.2743L18 4.7071V5c0 .5523.4477 1 1 1h3c.5523 0 1-.4477 1-1V2c0-.5523-.4477-1-1-1h-3zM2 12.5049C2 10.1079 2.8212 9 5.0105 9 7.1893 9 8 10.1079 8 12.5049 8 14.9021 7.1893 16 5.0105 16 2.8212 16 2 14.9021 2 12.5049z" />
  </g>
</svg>
