<svg xmlns="http://www.w3.org/2000/svg" viewBox="0 0 20 20">
  <g fill="#333333">
    <path d="M11.7678 12.9393L13.5 11.2071l5.759 5.759A1.0007 1.0007 0 0119 17H1a1.0011 1.0011 0 01-.259-.0339l5.759-5.759 1.7322 1.7322c.9763.9763 2.5593.9763 3.5356 0zM.0339 16.259A1.001 1.001 0 010 16V5c0-.0896.0118-.1764.0339-.259l5.759 5.759-5.759 5.759z" />
    <path d="M.741 4.0339l8.1983 8.1983c.5858.5858 1.5356.5858 2.1214 0l8.1983-8.1983A1.0011 1.0011 0 0019 4H1c-.0896 0-.1764.0118-.259.0339zM19.9661 4.741l-5.759 5.759 5.759 5.759A1.0007 1.0007 0 0020 16V5c0-.0896-.0118-.1764-.0339-.259z" />
  </g>
</svg>
