<svg xmlns="http://www.w3.org/2000/svg" viewBox="0 0 20 20">
  <path fill-rule="evenodd" clip-rule="evenodd" d="M9 2l.66.66-.6588.677H7.48V6.5l1.524.0378L10 7.6081V10.5a.5.5 0 001 0V8.6827l.9962 1.0705V11h4.6982V6.6873L17.4 5.96V5.9l.6.6V15c0 1.6569-1.3431 3-3 3H6l-1-1H4l-3-3V4.5C1 3.1193 2.1193 2 3.5 2H9z" fill="#333333" />
  <path fill-rule="evenodd" clip-rule="evenodd" d="M9 3.3382V3H5v7h4V6.5334L7.48 4.9 9 3.3382zm3 6.4191V10l5 5V7l-.3091-.3091L12.84 10.66 12 9.7573zM2 4l2 2v10l-2-2V4zm8 8l5 5H6l-1-1v-4h5z" fill="#FFFFFF" />
  <path fill-rule="evenodd" clip-rule="evenodd" d="M5 6V3c-2 0-2.5.5-2 1l2 2zm0 4h4c0 1 .5 1.5 1 2H5v-2zm5 2c1 0 2-1 2-2l5 5c0 1.5-1 2-2 2l-5-5z" fill="#999999" />
  <path d="M17.5695 1.0923a.2861.2861 0 00-.421 0l-4.3092 4.2881-1.9703-2.1012a.2919.2919 0 00-.4269 0l-1.354 1.3994c-.1175.1237-.1175.325 0 .4494l3.513 3.7837c.0683.0719.1604.0969.2494.0844.0915.0143.1871-.01.2577-.0844l5.8045-5.9887c.1164-.1225.1164-.3213 0-.4438l-1.3432-1.3869z" fill="#333333" />
</svg>
