<svg xmlns="http://www.w3.org/2000/svg" viewBox="0 0 20 20">
  <path d="M1 10h6L3 6V4h8.5858a1 1 0 01.7071.2929l6.2678 6.2678c.2813.2813.4393.6628.4393 1.0606V13c0 2.2091-1.7909 4-4 4H6l-5-5v-2z" fill="#333333" />
  <path fill-rule="evenodd" clip-rule="evenodd" d="M12.3149 6.0917C11.7647 5.425 10.932 5 10 5H4l5 5h5c1.9214 0 3 .8629 3 2.5v.5h-1v-.5c0-1.0296-.588-1.5-2-1.5h-4l2 2 3 3c1.6569 0 3-1.3431 3-3 0-.912-.4069-1.7289-1.0491-2.2791l-4.6718-4.6718c.0121.0141.024.0283.0358.0426z" fill="#999999" />
  <path d="M10 11l5 5H7l-5-5h8z" fill="#FFFFFF" />
</svg>
