<svg xmlns="http://www.w3.org/2000/svg" viewBox="0 0 20 20">
  <g fill-rule="evenodd" clip-rule="evenodd">
    <path d="M15.2929 3.2929L20 8v1.5h-4.381l-1.4642 7.6871a1 1 0 01-.9823.8129H7.5l-1.7988-1.7988a1.0003 1.0003 0 01-.2664-.4781l-1.781-7.5693L0 4.5V3h14.5858a1 1 0 01.7071.2929z" fill="#333333" />
    <path d="M19 8.4142V8.5H5.4142L1 4.0858V4h13.5858L19 8.4142zM4.4517 6.1925C3.8415 5.557 4.292 4.5 5.1731 4.5h8.2138a1 1 0 01.7214.3075l1.44 1.5C16.1585 6.943 15.708 8 14.8269 8H6.6131a1 1 0 01-.7214-.3075l-1.44-1.5zM14.6011 9.5H7.5338L8.443 17h4.7294l1.4286-7.5zm-9.1869 0a.9999.9999 0 01-.4403-.1022l1.4344 6.0963.9614.9614L6.5264 9.5H5.4142z" fill="#EEEEEE" />
    <path d="M5.1731 5.5h8.2138l1.44 1.5H6.6131l-1.44-1.5z" fill="#999999" />
  </g>
</svg>
