<svg xmlns="http://www.w3.org/2000/svg" viewBox="0 0 20 20">
  <defs>
    <clippath id="clip0_16737_25395">
      <path fill="#fff" d="M0 0h20v20H0z" />
    </clippath>
  </defs>
  <g clip-path="url(#clip0_16737_25395)">
    <path fill-rule="evenodd" clip-rule="evenodd" d="M11 0v11c0 1.1046-.8954 2-2 2H8v6h6c2.2091 0 4-1.7909 4-4V0h-7z" fill="#888888" />
    <path fill-rule="evenodd" clip-rule="evenodd" d="M12 1h5v14c0 1.6569-1.3431 3-3 3H8v-4h1c1.6569 0 3-1.3431 3-3V1z" fill="#FFFFFF" />
    <path fill-rule="evenodd" clip-rule="evenodd" d="M14 11.375V13h-1v-1.625h1zm0-4.3333v3.25h-1v-3.25h1zm0-4.3334v3.25h-1v-3.25h1zM14 0v1.625h-1V0h1z" fill="#1651B0" />
    <path d="M0 19h20v1H0v-1z" fill="#1651B0" />
    <path fill-rule="evenodd" clip-rule="evenodd" d="M13 16v1h1v-1h1v-1h-1v-1h-1v1h-1v1h1z" fill="#1651B0" />
    <path fill-rule="evenodd" clip-rule="evenodd" d="M8 13H0v6h8v-6z" fill="#666666" />
    <path d="M1 14h7v4H1v-4z" fill="#EEEEEE" />
  </g>
</svg>
