<svg xmlns="http://www.w3.org/2000/svg" viewBox="0 0 20 20">
  <path fill-rule="evenodd" clip-rule="evenodd" d="M8.0996 6.7885c.2028-.1053.9213-.483.9182-.4814 3.5764-1.8734 6.0858-2.6147 9.9814-2.3862l.0019 1.0018h-.0013V19h-18V9.591L.998 9.5909l.0031-1.0018c2.5638.158 4.3972-.3966 7.0985-1.8006zM1.9998 9.6148V18h16V4.8834c-1.476-.0234-2.7471.1208-4 .4473V7H9.8542a44.3357 44.3357 0 00-.3724.1929c.005-.0026-.7157.3763-.921.483a34.5733 34.5733 0 01-.639.324h8.078v2h-8V9h-2V11h10v2h-8v-1h-2v2h10v2h-8v-1h-3V9.175c-.9808.2816-1.9444.4258-3 .4397z" fill="#999999" />
  <path d="M12 6.6648L13.3352 8l4.6679-4.6679L18 7h2V0h-7v2l3.6643.0005L12 6.6648z" fill="#333333" />
</svg>
