<svg xmlns="http://www.w3.org/2000/svg" viewBox="0 0 20 20">
  <path d="M2 2.5l2-2 6 6 6-6 2 2v9.1716a2 2 0 01-.5858 1.4142L14 16.5 12.5 15l-4 4-5.9142-5.9142A2 2 0 012 11.6716V2.5z" fill="#333333" />
  <path fill-rule="evenodd" clip-rule="evenodd" d="M8.5 8.5L3 3v8c0 1 1 2 1 2l4.5 4.5v-9zM17 3l-3 3v8l-.5.5.5.5 2-2s1-1 1-2V3z" fill="#EEEEEE" />
  <path fill-rule="evenodd" clip-rule="evenodd" d="M10 10l4-4v8l-4 4v-8z" fill="#666666" />
  <path fill-rule="evenodd" clip-rule="evenodd" d="M9 9l1 1v8l-1-1V9z" fill="#D7D7D7" />
  <path d="M14 6l-4 4-1-1 4-4 1 1z" fill="#999999" />
  <path fill-rule="evenodd" clip-rule="evenodd" d="M9.5 7.5L4 2 3 3l5.5 5.5 1-1zM14 6l3-3-1-1-3 3 1 1z" fill="#FFFFFF" />
</svg>
