<svg xmlns="http://www.w3.org/2000/svg" viewBox="0 0 20 20">
  <path fill-rule="evenodd" clip-rule="evenodd" d="M7.0999 5.7885c.2027-.1053.9212-.483.9181-.4814 3.5764-1.8734 6.0858-2.6147 9.9814-2.3862l.002 1.0019L18 3.9226V18H1V8.1147h.002l.0018-.501c2.0722-.0319 3.7595-.6107 6.096-1.8251zM2 8.56V9h3V7.8436c-1.0175.3798-1.9797.6161-3 .7164zm4-1.1266V9h3V6h-.1455c-.1228.0628-.247.1271-.3725.1929.005-.0026-.7157.3763-.921.483-.548.2848-1.0644.537-1.561.7575zM11.0086 5H13v-.6693c-.6597.1719-1.3144.3942-1.9914.6693zM14 4.1099v.89h3V3.8835c-1.0862-.0172-2.0613.0563-3 .2265zm-4 1.89h3v3h-3V6zm7 0h-3v3h3V6zM2 10h3V13H2v-3zm7 0H6V13h3v-3zm1 0h3V13h-3v-3zm7 0h-3V13h3v-3zM2 14h3v3H2v-3zm7 0H6v3h3v-3zm1 0h3v3h-3v-3zm7 0h-3v3h3v-3z" fill="#333333" />
</svg>
