<svg xmlns="http://www.w3.org/2000/svg" viewBox="0 0 20 20">
  <path fill-rule="evenodd" clip-rule="evenodd" d="M17 0H0v17h17V0zM1 1h3v3H1V1zm7 0H5v3h3V1zm1 0h3v3H9V1zm7 0h-3v3h3V1zM1 5h3v3H1V5zm7 0H5v3h3V5zm1 0h3v3H9V5zm7 0h-3v3h3V5zM1 9h3v3H1V9zm7 0H5v3h3V9zm1 0h3v3H9V9zm7 0h-3v3h3V9zM1 13h3v3H1v-3zm7 0H5v3h3v-3zm1 0h3v3H9v-3zm7 0h-3v3h3v-3z" fill="#333333" />
  <path d="M8 11V7h9v4h3v9H5v-4h3v-1H5v-4h3z" fill="#333333" />
  <path fill-rule="evenodd" clip-rule="evenodd" d="M16 8H9v3h7V8zM6 12h2v2H6v-2zm0 5h2v2H6v-2zm10-5H9v7h7v-7zm1 0h2v7h-2v-7z" fill="#FFFFFF" />
  <path fill-rule="evenodd" clip-rule="evenodd" d="M16 11H9v1H8v2h1v-2h7v7h1v-7h-1v-1zm-7 6H8v2h1v-2z" fill="#999999" />
</svg>
