<svg xmlns="http://www.w3.org/2000/svg" viewBox="0 0 20 20">
  <g fill-rule="evenodd" clip-rule="evenodd">
    <path d="M17.3529 11.8824L20 8.1764 14.8235 3h-1.0588l-3.1765 4.2353C9.5294 8.8235 8.4706 9.353 5.2942 9.353H0v1.5882l4.647 4.6471h5.8236c2.647 0 4.7647-.5295 6.8823-3.7059z" fill="#333333" />
    <path d="M16.2942 11.353l2.1176-3.1765-4.1176-4.1177-2.1177 3.1765 4.1177 4.1177zm-6.353 3.1764l-4.1177-4.1176H1.5884l4.1176 4.1176h4.2353z" fill="#D7D7D7" />
    <path d="M9.9413 14.5294c2.647 0 3.7058 0 6.3529-3.1765l-4.1177-4.1176c-2.1176 2.647-2.1176 3.1765-6.3529 3.1765" fill="#999999" />
    <path d="M5 4l13 13-.7072.7072-13-13L5 4z" fill="#333333" />
  </g>
</svg>
