<svg xmlns="http://www.w3.org/2000/svg" viewBox="0 0 20 20">
  <g fill-rule="evenodd" clip-rule="evenodd">
    <path d="M2 18v-8h5c0 1.6569 1.3431 3 3 3s3-1.3431 3-3-1.3431-3-3-3V2h8v16H2z" fill="#FFFFFF" />
    <path d="M10 14v4h1v-4.126A4.0101 4.0101 0 0110 14zm3.874-3H18v-1h-4c0 .3453-.0438.6804-.126 1z" fill="#999999" />
    <path d="M10 2h8v1h-7v3.126c1.7252.444 3 2.0102 3 3.874 0 2.2091-1.7909 4-4 4-1.8638 0-3.43-1.2748-3.874-3H3v7H2v-8h5c0 1.6569 1.3431 3 3 3s3-1.3431 3-3-1.3431-3-3-3V2z" fill="#333333" />
  </g>
</svg>
