<svg xmlns="http://www.w3.org/2000/svg" viewBox="0 0 20 20">
  <path fill-rule="evenodd" clip-rule="evenodd" d="M17 0H0v17h17V0zM1 1h3v3H1V1zm7 0H5v3h3V1zm1 0h3v3H9V1zm7 0h-3v3h3V1zM1 5h3v3H1V5zm7 0H5v3h3V5zm1 0h3v3H9V5zm7 0h-3v3h3V5zM1 9h3v3H1V9zm7 0H5v3h3V9zm1 0h3v3H9V9zm7 0h-3v3h3V9zM1 13h3v3H1v-3zm7 0H5v3h3v-3zm1 0h3v3H9v-3zm7 0h-3v3h3v-3z" fill="#333333" />
  <g fill="#999999">
    <path d="M7 7h11l2 2.1667V20H10l-3-2.1667V7z" fill="#333333" />
    <path fill-rule="evenodd" clip-rule="evenodd" d="M8 8h9.5L19 9.5h-9L8 8zm2.5 2H19v9h-8.5v-9zm-.5 0L8 8.5v9l2 1.5v-9zm4.75 8c1.933 0 3.5-1.567 3.5-3.5s-1.567-3.5-3.5-3.5-3.5 1.567-3.5 3.5 1.567 3.5 3.5 3.5zM13 15.5c1.6569 0 3-1.3431 3-3 0-.2668-.0348-.5255-.1002-.7718A2.9921 2.9921 0 0014.75 11.5c-1.6569 0-3 1.3431-3 3 0 .2668.0348.5255.1002.7718.3541.147.7425.2282 1.1498.2282z" fill="#FFFFFF" />
    <path fill-rule="evenodd" clip-rule="evenodd" d="M17.7501 14.5c0 1.6569-1.3431 3-3 3-1.2059 0-2.2456-.7115-2.7223-1.7376.3774.1532.79.2376 1.2223.2376 1.7949 0 3.25-1.455 3.25-3.25 0-.2569-.0298-.5069-.0862-.7467.8056.5379 1.3362 1.4554 1.3362 2.4967z" fill="#999" />
  </g>
</svg>
