<svg xmlns="http://www.w3.org/2000/svg" viewBox="0 0 20 20">
  <path fill-rule="evenodd" clip-rule="evenodd" d="M12 0v11c0 1.1046-.8954 2-2 2H8v6h7c2.2091 0 4-1.7909 4-4V0h-7z" fill="#888888" />
  <path fill-rule="evenodd" clip-rule="evenodd" d="M13 1h5v14c0 1.6569-1.3431 3-3 3H8v-4h2c1.6569 0 3-1.3431 3-3V1z" fill="#FFFFFF" />
  <path fill-rule="evenodd" clip-rule="evenodd" d="M16 17.575V19h-1v-1.425h1zm0-3.8v2.85h-1v-2.85h1zm0-3.8v2.85h-1v-2.85h1zm0-3.8v2.85h-1v-2.85h1zm0-3.8v2.85h-1v-2.85h1zM16 0v1.425h-1V0h1z" fill="#1651B0" />
  <path d="M0 19h19v1H0v-1z" fill="#1651B0" />
  <path fill-rule="evenodd" clip-rule="evenodd" d="M8 13H0v6h8v-6z" fill="#666666" />
  <path d="M1 14h7v4H1v-4z" fill="#EEEEEE" />
</svg>
