<svg xmlns="http://www.w3.org/2000/svg" viewBox="0 0 20 20">
  <defs>
    <clippath id="clip0_16737_25405">
      <path fill="#fff" d="M0 0h20v20H0z" />
    </clippath>
  </defs>
  <g clip-path="url(#clip0_16737_25405)">
    <path fill-rule="evenodd" clip-rule="evenodd" d="M9 0v11c0 1.1046-.8954 2-2 2H6v6h6c2.2091 0 4-1.7909 4-4V0H9z" fill="#888888" />
    <path fill-rule="evenodd" clip-rule="evenodd" d="M10 1h5v14c0 1.6569-1.3431 3-3 3H6v-4h1c1.6569 0 3-1.3431 3-3V1z" fill="#FFFFFF" />
    <path fill-rule="evenodd" clip-rule="evenodd" d="M20 17.575V19h-1v-1.425h1zm0-3.8v2.85h-1v-2.85h1zm0-3.8v2.85h-1v-2.85h1zm0-3.8v2.85h-1v-2.85h1zm0-3.8v2.85h-1v-2.85h1zM20 0v1.425h-1V0h1z" fill="#1651B0" />
    <path d="M0 19h20v1H0v-1z" fill="#1651B0" />
    <path fill-rule="evenodd" clip-rule="evenodd" d="M6 13H0v6h6v-6z" fill="#666666" />
    <path d="M1 14h5v4H1v-4z" fill="#EEEEEE" />
  </g>
</svg>
