<svg xmlns="http://www.w3.org/2000/svg" viewBox="0 0 20 20">
  <path fill-rule="evenodd" clip-rule="evenodd" d="M6.0999 4.7885c.2027-.1053.9212-.483.9181-.4814 3.5764-1.8734 6.0858-2.6147 9.9814-2.3863l.002 1.002L17 2.9226V17H0V7.1147h.002l.0018-.501c2.0722-.0319 3.7595-.6107 6.096-1.8251zM1 7.56V8h3V6.8436c-1.0175.3798-1.9797.6161-3 .7164zm4-1.1266V8h3V5h-.1455c-.1228.0628-.247.1271-.3725.1929.005-.0026-.7157.3763-.921.483-.548.2848-1.0644.537-1.561.7575zM10.0086 4H12v-.6693c-.6597.1719-1.3144.3942-1.9914.6693zM13 3.1099v.89h3V2.8835c-1.0862-.0172-2.0613.0563-3 .2265zm-4 1.89h3v3H9V5zm7 0h-3v3h3V5zM1 9h3V12H1V9zm7 0H5V12h3V9zm1 0h3V12H9V9zm7 0h-3V12h3V9zM1 13h3v3H1v-3zm7 0H5v3h3v-3zm1 0h3v3H9v-3zm7 0h-3v3h3v-3z" fill="#333333" />
  <g fill="#999999">
    <path d="M7 7h11l2 2.1667V20H10l-3-2.1667V7z" fill="#333333" />
    <path fill-rule="evenodd" clip-rule="evenodd" d="M8 8h9.5L19 9.5h-9L8 8zm2.5 2H19v9h-8.5v-9zm-.5 0L8 8.5v9l2 1.5v-9zm4.75 8c1.933 0 3.5-1.567 3.5-3.5s-1.567-3.5-3.5-3.5-3.5 1.567-3.5 3.5 1.567 3.5 3.5 3.5zM13 15.5c1.6569 0 3-1.3431 3-3 0-.2668-.0348-.5255-.1002-.7718A2.9921 2.9921 0 0014.75 11.5c-1.6569 0-3 1.3431-3 3 0 .2668.0348.5255.1002.7718.3541.147.7425.2282 1.1498.2282z" fill="#FFFFFF" />
    <path fill-rule="evenodd" clip-rule="evenodd" d="M17.7501 14.5c0 1.6569-1.3431 3-3 3-1.2059 0-2.2456-.7115-2.7223-1.7376.3774.1532.79.2376 1.2223.2376 1.7949 0 3.25-1.455 3.25-3.25 0-.2569-.0298-.5069-.0862-.7467.8056.5379 1.3362 1.4554 1.3362 2.4967z" fill="#999" />
  </g>
</svg>
