<svg xmlns="http://www.w3.org/2000/svg" viewBox="0 0 20 20">
  <path d="M10 1c.0783 0 .1832.0002.3096.004 1.2391.0248 2.3912.1974 3.2842.4872.4779.1551.9392.3616 1.3017.6397.2655.2037.5604.5142.6885.9326a.6502.6502 0 01.0351.1387c.0086.042.0146.0849.0196.1288L19 16.7735l-7.8398 2.375a4.001 4.001 0 01-2.3204 0L1 16.7734C2.4227 11.298 4.1817 4.0641 4.3594 3.333a1.472 1.472 0 01.0224-.1387c.0237-.2467.1555-.5158.4131-.7783a2.3478 2.3478 0 01.3096-.2851c.3625-.278.8238-.4846 1.3018-.6397C7.3731 1.1774 8.6438 1 10 1z" fill="#333333" />
  <path d="M5.1045 4.8691c.3626.2782.8238.4856 1.3018.6407C7.3732 5.8234 8.644 6 10 6c1.356 0 2.6268-.1766 3.5938-.4902.4779-.1551.9391-.3625 1.3017-.6407.0201-.0154.0392-.033.0596-.0498L15 5l2.5 11-6.2354 2.0781a3.9995 3.9995 0 01-2.5292 0L2.5 16 5 5l.045-.1826c.0204.0176.0393.0362.0595.0517zM10 2c2.5403 0 4.5996.672 4.5996 1.5 0 .8292-2.0593 1.5-4.5996 1.5s-4.5996-.6708-4.5996-1.5C5.4004 2.672 7.4597 2 10 2z" fill="#EEEEEE" />
  <path d="M11.9277 17.8564l-.6631.2217a3.9995 3.9995 0 01-2.5292 0l-.6641-.2217 1.3183-11.87C9.5907 5.9943 9.7943 6 10 6c.2054 0 .4087-.0057.6094-.0137l1.3183 11.8701z" fill="#999999" />
</svg>
