<svg xmlns="http://www.w3.org/2000/svg" viewBox="0 0 20 20">
  <g fill-rule="evenodd" clip-rule="evenodd">
    <path d="M4 13.75C5.1144 11.524 7.383 10 10 10s4.8856 1.524 6 3.75c-1.1147 2.2263-3.383 3.7503-6 3.7503s-4.8856-1.524-6-3.7503zm6-1.1952c0 .6213-.5037 1.125-1.125 1.125s-1.125-.5037-1.125-1.125.5037-1.125 1.125-1.125S10 11.9335 10 12.5548zm2.9583-.5659c.7052.4497 1.3025 1.0519 1.7515 1.7611a5.7066 5.7066 0 01-1.7515 1.7614A5.491 5.491 0 0110 16.3753a5.4914 5.4914 0 01-2.9583-.8639A5.7055 5.7055 0 015.2902 13.75c.449-.7092 1.0463-1.3116 1.7515-1.7611a5.1243 5.1243 0 01.1387-.0856A2.9976 2.9976 0 007 12.9298c0 1.657 1.343 3 3 3s3-1.343 3-3c0-.3607-.0639-.7063-.1804-1.0265.0466.0279.0928.0562.1387.0856z" fill="#333333" />
    <path d="M19 8V1H2v7h17zM3 2v5h1V5h1l-.0438 2H6V5h1v2h1V5h1v2h1V3h1v4h1V5h1v2h1V5h1v2h.9519L16 5h1v2h1V2H3z" fill="#1651B0" />
  </g>
</svg>
