<svg xmlns="http://www.w3.org/2000/svg" viewBox="0 0 20 20">
  <path d="M6.67 6.27C7.5547 5.4794 8.7214 5 10 5c2.7614 0 4.9999 2.2386 4.9999 5s-2.2385 5-5 5c-1.43 0-2.7184-.599-3.631-1.5626-.3798-.401-1.0127-.4182-1.4137-.0385-.401.3798-.4182 1.0127-.0384 1.4137C6.1913 16.1584 7.9982 17 9.9999 17c3.866 0 7-3.134 7-7s-3.134-7-7-7c-1.8317 0-3.4989.704-4.7456 1.8544L3.8536 3.4537C3.5385 3.1387 3 3.3617 3 3.8072v4.2929a.5.5 0 00.5.5h4.2929c.4455 0 .6685-.5386.3535-.8536L6.67 6.27z" fill="#333333" />
</svg>
