<svg xmlns="http://www.w3.org/2000/svg" viewBox="0 0 20 20">
  <path d="M10 4.5c4.9706 0 9 2.4624 9 5.5s-4.0294 5.5-9 5.5-9-2.4624-9-5.5 4.0294-5.5 9-5.5z" fill="#FFFFFF" />
  <g fill="#333333">
    <path d="M10 15.5c-4.4945 0-8.2195-2.0133-8.8918-4.6447a8.5426 8.5426 0 001.0064.7171c1.4827.9061 3.386 1.5071 5.4764 1.6949.7439.1488 1.5531.2327 2.409.2327 2.1786 0 4.0549-.5437 5.321-1.3175.4326-.2643.7631-.5325 1.0117-.7932.8724.5765 1.2049 1.1314 1.3014 1.525C16.0433 14.4672 13.219 15.5 10 15.5zM18.8918 9.1447C18.2195 6.5133 14.4945 4.5 10 4.5c-3.219 0-6.0434 1.0328-7.6341 2.5857.0965.3936.429.9485 1.3014 1.525.2485-.2607.579-.5289 1.0116-.7932C5.9451 7.0437 7.8214 6.5 10 6.5c.8559 0 1.6652.084 2.4091.2327 2.0903.1878 3.9937.7888 5.4764 1.695.3563.2177.694.4572 1.0064.717z" />
  </g>
  <g fill="#1651B0">
    <path d="M13 2.1019L10.004 0v1.3019L9 1.3333v-.0032c-4.9706 0-9 2.4624-9 5.5 0 3.0375 4.0294 5.5 9 5.5v-1.333c-2.2809 0-4.2818-.5677-5.6689-1.4154-1.4099-.8616-1.9981-1.873-1.9981-2.7516 0-.8787.5882-1.89 1.9981-2.7517C4.7181 3.2308 6.7191 2.6631 9 2.6631v.0036h1.004V4L13 2.1019zM11 18.6699c4.9706 0 9-2.4624 9-5.5 0-3.0375-4.0294-5.5-9-5.5v1.333c2.2809 0 4.2818.5677 5.6689 1.4154 1.4099.8616 1.9981 1.8729 1.9981 2.7516 0 .8787-.5882 1.8901-1.9981 2.7517-1.3871.8476-3.388 1.4153-5.6689 1.4153v-.0036H9.996V16L7 17.8981 9.996 20v-1.3019L11 18.6667v.0032z" />
  </g>
</svg>
