<svg xmlns="http://www.w3.org/2000/svg" viewBox="0 0 20 20">
  <path d="M12.5031 8.8069l-4.069 1.481 3.3171 2.7833.258-1.4629c1.4816.1633 2.7695.5001 3.7456.9339.6997.311 1.1732.6425 1.4513.9348.2709.2846.2939.4587.2939.5229 0 .0642-.023.2383-.2939.5229-.2781.2923-.7516.6238-1.4513.9348-1.3958.6203-3.4292 1.0423-5.7548 1.0423-2.3256 0-4.359-.422-5.7547-1.0423-.6998-.311-1.1733-.6425-1.4514-.9348-.2709-.2846-.2939-.4587-.2939-.5229 0-.0642.023-.2383.2939-.5229.2781-.2923.7516-.6238 1.4514-.9348a9.3453 9.3453 0 01.8761-.3352l-2.1377-.7125C1.7428 12.1801 1 13.0514 1 13.9999c0 2.2091 4.0294 4 9 4s9-1.7909 9-4c0-1.8606-2.8583-3.4245-6.7299-3.8717l.233-1.3213z" fill="#666666" />
  <g fill="#1651B0">
    <path d="M11.1461 1.731l-3.75 2.165 3.75 2.165V4.5347c1.845.1127 3.4475.4915 4.6087 1.0076.6997.311 1.1732.6425 1.4513.9348.2709.2846.2939.4587.2939.5229 0 .0642-.023.2383-.2939.523-.2781.2922-.7516.6237-1.4513.9347-.3931.1747-.8366.3336-1.323.4718l2.344.7033C18.1608 8.9292 19 8.008 19 6.9999c0-2.0366-3.4245-3.7177-7.8539-3.9679V1.731zM1 6.9999c0-1.5274 1.9263-2.855 4.7582-3.5288l.5438 1.414c-.78.1736-1.474.398-2.0567.657-.6998.3111-1.1733.6426-1.4514.9349-.2709.2846-.2939.4587-.2939.5229 0 .0642.023.2383.2939.523.2781.2922.7516.6237 1.4514.9347.758.337 1.7043.6154 2.7833.7994L6.493 10.685C3.2648 10.0773 1 8.6561 1 6.9999z" />
  </g>
</svg>
