<svg xmlns="http://www.w3.org/2000/svg" viewBox="0 0 20 21">
  <path d="M10 4.5c4.9706 0 9 2.4624 9 5.5s-4.0294 5.5-9 5.5-9-2.4624-9-5.5 4.0294-5.5 9-5.5z" fill="#FFFFFF" />
  <path fill-rule="evenodd" clip-rule="evenodd" d="M15.3211 7.8175C14.0549 7.0437 12.1786 6.5 10 6.5c-2.1786 0-4.055.5437-5.321 1.3175C3.3784 8.6122 3 9.4416 3 10s.3785 1.3878 1.679 2.1825C5.945 12.9563 7.8213 13.5 10 13.5s4.0549-.5437 5.3211-1.3175C16.6215 11.3878 17 10.5584 17 10s-.3785-1.3878-1.6789-2.1825zM19 10c0-3.0376-4.0294-5.5-9-5.5S1 6.9624 1 10s4.0294 5.5 9 5.5 9-2.4624 9-5.5z" fill="#333333" />
  <g fill="#1651B0">
    <path d="M4 1.8981L6.996 4V2.6981l2.996-.0314h.508v-.021a.668.668 0 00.1667.021h1.5907a9.5761 9.5761 0 016.2838 2.3502c.2778.2416.6985.2436.9588-.0168.2604-.2603.2616-.6842-.0141-.9281a10.9095 10.9095 0 00-7.2285-2.7385h-1.5907a.668.668 0 00-.1667.021v-.0212H6.996V0L4 1.8981zM13.2258 16.0276l2.996 2.1018-2.996 1.8982v-1.3333h-3.504v-.0209a.6684.6684 0 01-.1666.021H7.9645A10.9094 10.9094 0 01.736 15.9559c-.2758-.244-.2745-.6679-.0142-.9282.2604-.2603.681-.2583.9588-.0167a9.5765 9.5765 0 006.2839 2.3501h1.5907a.6638.6638 0 01.1666.021v-.0212h.508l2.996-.0315v-1.3018z" />
  </g>
</svg>
