<svg xmlns="http://www.w3.org/2000/svg" viewBox="0 0 20 20">
  <path d="M10 1c4.9706 0 9 2.4624 9 5.5S14.9706 12 10 12 1 9.5376 1 6.5 5.0294 1 10 1z" fill="#FFFFFF" />
  <path fill-rule="evenodd" clip-rule="evenodd" d="M15.3211 4.3175C14.0549 3.5437 12.1786 3 10 3c-2.1786 0-4.055.5437-5.321 1.3175C3.3784 5.1122 3 5.9416 3 6.5s.3785 1.3878 1.679 2.1825C5.945 9.4563 7.8213 10 10 10s4.0549-.5437 5.3211-1.3175C16.6215 7.8878 17 7.0584 17 6.5s-.3785-1.3878-1.6789-2.1825zM19 6.5C19 3.4624 14.9706 1 10 1S1 3.4624 1 6.5 5.0294 12 10 12s9-2.4624 9-5.5z" fill="#333333" />
  <g fill="#1651B0">
    <path d="M4 14.5l-2.1019 3L0 14.5h1.3333v-3a.5.5 0 01.5-.5h.3334a.5.5 0 01.5.5l.0314 3H4zM9 16.5l-2.1018 3L5 16.5h1.3333v-3a.5.5 0 01.5-.5h.3334a.5.5 0 01.5.5l.0314 3H9zM12.8981 19.5L15 16.5h-1.3019l-.0314-3a.5.5 0 00-.5-.5h-.3334a.5.5 0 00-.5.5v3H11l1.8981 3zM20 14.5l-2.1019 3L16 14.5h1.3333v-3a.5.5 0 01.5-.5h.3334a.5.5 0 01.5.5l.0314 3H20z" />
  </g>
</svg>
