<svg xmlns="http://www.w3.org/2000/svg" viewBox="0 0 20 20">
  <path d="M8.2112 2.5777c.737-1.474 2.8406-1.474 3.5777 0l6.7639 13.5279C19.2177 17.4354 18.2507 19 16.764 19H3.2361c-1.4868 0-2.4538-1.5646-1.7889-2.8944l6.764-13.5279z" fill="#999999" />
  <path fill-rule="evenodd" clip-rule="evenodd" d="M10.433 6.75c-.1925-.3333-.6736-.3333-.866 0l-2.5981 4.5c-.1925.3333.048.75.433.75h1.598v4c0 .5523.4478 1 1 1 .5523 0 1-.4477 1-1v-4h1.5981c.3849 0 .6255-.4167.433-.75l-2.598-4.5z" fill="#FFFFFF" />
</svg>
