<svg xmlns="http://www.w3.org/2000/svg" viewBox="0 0 20 20">
  <path opacity=".6" fill-rule="evenodd" clip-rule="evenodd" d="M2 13.5799l2.0143-8.3612 5.0358 3.4839L2 13.5799zm7.429 5.9511V9.6565l-7.1636 4.9559L9.429 19.531z" fill="#1651B0" />
  <path opacity=".6" fill-rule="evenodd" clip-rule="evenodd" d="M9.429 1v6.7486L4.577 4.392 9.429 1zm1 0v6.7486l4.852-3.3566L10.429 1zM4.1399 4.6976z" fill="#90CEF1" />
  <path opacity=".6" fill-rule="evenodd" clip-rule="evenodd" d="M16.7588 9.0174l-.9151-3.7987-5.0358 3.4839 2.4498 1.6948c.4083-.8255 1.259-1.3933 2.2423-1.3933h1c.0874 0 .1737.0045.2588.0133zm-3.7579 2.4184a2.5886 2.5886 0 00-.0009.0684V12.5h-.5c-.5523 0-1 .4477-1 1v5.2956l-1.071.7354V9.6565l2.5719 1.7793z" fill="#999999" />
  <path d="M19 13h-.5v-1c0-1.38-1.12-2.5-2.5-2.5s-2.5 1.12-2.5 2.5v1H13c-.55 0-1 .45-1 1v5c0 .55.45 1 1 1h6c.55 0 1-.45 1-1v-5c0-.55-.45-1-1-1zm-3 4.5c-.55 0-1-.45-1-1s.45-1 1-1 1 .45 1 1-.45 1-1 1zm1.55-4.5h-3.1v-1c0-.855.695-1.55 1.55-1.55.855 0 1.55.695 1.55 1.55v1z" fill="#333333" />
</svg>
