<svg xmlns="http://www.w3.org/2000/svg" viewBox="0 0 20 20">
  <path d="M10 4.5c4.9706 0 9 2.4624 9 5.5s-4.0294 5.5-9 5.5-9-2.4624-9-5.5 4.0294-5.5 9-5.5z" fill="#FFFFFF" />
  <path fill-rule="evenodd" clip-rule="evenodd" d="M15.3211 7.8175C14.0549 7.0437 12.1786 6.5 10 6.5c-2.1786 0-4.055.5437-5.321 1.3175C3.3784 8.6122 3 9.4416 3 10s.3785 1.3878 1.679 2.1825C5.945 12.9563 7.8213 13.5 10 13.5s4.0549-.5437 5.3211-1.3175C16.6215 11.3878 17 10.5584 17 10s-.3785-1.3878-1.6789-2.1825zM19 10c0-3.0376-4.0294-5.5-9-5.5S1 6.9624 1 10s4.0294 5.5 9 5.5 9-2.4624 9-5.5z" fill="#333333" />
  <g fill="#1651B0">
    <path d="M4.475 1.4749l.635 3.6075-3.4635-.7791.9428-.9428L.468 1.2392a.5.5 0 010-.7071L.7037.2963a.5.5 0 01.707 0l2.1437 2.0991.9205-.9205zM4.475 18.5251l.635-3.6075-3.4635.7791.9428.9428L.468 18.7608a.5.5 0 000 .7071l.2357.2357a.5.5 0 00.707 0l2.1437-2.099.9205.9205zM14.8901 5.0824l.6351-3.6075.9205.9205 2.1436-2.099a.5.5 0 01.7071 0l.2357.2357a.5.5 0 010 .707l-2.1213 2.1214.9428.9428-3.4635.7791zM15.5252 18.5251l-.6351-3.6075 3.4635.7791-.9428.9428 2.1213 2.1213a.5.5 0 010 .7071l-.2357.2357a.5.5 0 01-.7071 0l-2.1436-2.099-.9205.9205z" />
  </g>
</svg>
