<svg xmlns="http://www.w3.org/2000/svg" viewBox="0 0 20 20">
  <path d="M1.9318 5.716a2 2 0 01.5768-1.2246l2.9056-2.9056A2 2 0 016.8284 1H17c1.1046 0 2 .8954 2 2v11.1217a2 2 0 01-1.288 1.869l-8.3617 3.1854a1.9998 1.9998 0 01-1.6532-.1043l-5.5209-2.9445a2 2 0 01-1.0498-1.9543l.8054-8.457z" fill="#666666" />
  <path fill-rule="evenodd" clip-rule="evenodd" d="M5.9142 5c-.891 0-1.3371-1.0771-.7072-1.7071l.7409-.7408a1 1 0 011.2216-.1504l1.2346.7408C9.2738 3.6643 8.904 5 7.8896 5H5.9142zm8.404.4545a1 1 0 00-.2864 1.3728l2.127 3.3086c.5397.8396 1.8411.4573 1.8411-.5407V4.8685c0-.7987-.8901-1.275-1.5547-.832l-2.127 1.418zM5.4895 6c-.7108 0-1.1947.7207-.9256 1.3786l2.8208 6.8952c.3617.8842 1.6389.8062 1.8903-.1156l1.8805-6.895C11.3289 6.627 10.8501 6 10.1907 6H5.4895zm6.1208-4c-1.0143 0-1.3842 1.3357-.5145 1.8575l1.3896.8338a1 1 0 001.029 0l1.3897-.8338C15.7738 3.3357 15.4038 2 14.3896 2h-2.7793zm.2561 6.172c.2432-.8337 1.3605-.9825 1.8133-.2415l3.6648 5.9969c.3353.5487.073 1.2668-.5371 1.4701l-5.9968 1.999c-.7653.255-1.5021-.4543-1.2763-1.2287l2.3321-7.9958zm-6.2705 8.626c.8287.4143 1.7266-.4238 1.3703-1.2791l-2.477-5.9445c-.3971-.9533-1.8028-.7522-1.9169.2742L2.077 14.307a.9999.9999 0 00.5466 1.0048L5.596 16.798z" fill="#FFFFFF" />
  <path fill="#1651B0" d="M0 0h10v8H0z" />
  <path fill-rule="evenodd" clip-rule="evenodd" d="M9 4H7v1h2V4zM6 4H4v1h2V4zM3.0005 4H1v1h2.0007l-.0002-1zM4 6h2v1H4V6zm5 1H7V6h2v1zM3.0008 6H1v1h2.001l-.0002-1z" fill="#FFFFFF" />
  <path fill-rule="evenodd" clip-rule="evenodd" d="M4 1h2v2H4V1zm3 0v2h2V1H7zM3.0001 1H1v2h2.0004l-.0003-2z" fill="#90CEF1" />
</svg>
