<svg xmlns="http://www.w3.org/2000/svg" viewBox="0 0 20 20">
  <path d="M10 3.5c4.9706 0 9 2.4624 9 5.5s-4.0294 5.5-9 5.5S1 12.0376 1 9s4.0294-5.5 9-5.5z" fill="#FFFFFF" />
  <path d="M12.5 15.6941l-2.5 4-2.5-4H9v-5c0-.5523.4477-1 1-1s1 .4477 1 1v5h1.5z" fill="#1651B0" />
  <g fill="#1651B0">
    <path d="M7 3c-.5523 0-1-.4477-1-1V1c0-.5523.4477-1 1-1s1 .4477 1 1v1c0 .5523-.4477 1-1 1zM1 4c0 .5523.4477 1 1 1s1-.4477 1-1V2c0-.5523-.4477-1-1-1s-1 .4477-1 1v2zM17 4c0 .5523.4477 1 1 1s1-.4477 1-1V2c0-.5523-.4477-1-1-1s-1 .4477-1 1v2zM12 2c0 .5523.4477 1 1 1s1-.4477 1-1V1c0-.5523-.4477-1-1-1s-1 .4477-1 1v1z" />
  </g>
  <path d="M10 5.5c2.1786 0 4.0549.5437 5.3211 1.3175C16.6215 7.6122 17 8.4416 17 9s-.3785 1.3878-1.6789 2.1825c-.8585.5247-1.9975.9435-3.3211 1.1589v2.0223c4.008-.5558 7-2.7462 7-5.3637 0-3.0376-4.0294-5.5-9-5.5S1 5.9624 1 9c0 2.6175 2.992 4.8079 7 5.3637v-2.0223c-1.3236-.2154-2.4626-.6342-3.321-1.1589C3.3784 10.3878 3 9.5584 3 9s.3785-1.3878 1.679-2.1825C5.945 6.0437 7.8213 5.5 10 5.5z" fill="#333333" />
</svg>
