<svg xmlns="http://www.w3.org/2000/svg" viewBox="0 0 200 120">
  <path fill-rule="evenodd" clip-rule="evenodd" d="M132.887 0l40.268.0227L200 26.6667V120h-9.866v-3h3.154V32.4998h-26.005v55h-3.02c-4.176 0-8.256-.1451-12.219-.4998h-3.668v-.3942c-2.507-.3167-4.962-.7286-7.362-1.253V87h-7.361v-3h2.139c-9.183-2.7775-17.42-7.5258-24.381-15.3179V84h.158v3h-2.171v2.625h-3.02v-3.5557l-2.577-2.8866 2.26-1.9904 1.324 1.4831v-18.995L104.751 60.5h-7.4333v-3h4.9493L86.7474 38.7588V57.5h1.8456v3h-1.0049l.7295.8173-2.2595 1.9904-.3174-.3554v.2352h-3.02V33.3254s2.0822-2.6665 3.6681-3.6117c8.1289 13.4583 26.1492 24.1801 46.4982 25.2059V0zM104.55 52.3866l8.302 10.0252-.074.0603c11.344 14.7129 27.01 19.2938 46.267 19.9434L136.553 60.5h-4.337v-.6094a69.1622 69.1622 0 01-8.724-1.0551V60.5h-8.725v-3h2.927c-4.629-1.2765-9.044-3.0076-13.144-5.1134zm40.22-45.7191l20.562 20.8323h25.439L169.799 6.6675H144.77zM139.598 8.57l22.651 22.9487v47.4454l-22.651-22.5006V8.5701zM16.107 94v-6h29.2573c.6899 16.266 6.9335 29 14.5337 29 7.9091 0 14.349-13.79 14.59-31h18.1274v-2H74.488c-.241-17.2104-6.6809-31-14.59-31-7.6002 0-13.8438 12.7336-14.5337 29H16.107v-6L0 85l16.107 9zm35.3032-6h8.9912v-6h-8.9912c.3207-6.9186 1.7312-12.9055 3.6678-17.151C57.5397 59.4525 59.7023 59 59.898 59c.1957 0 2.3583.4525 4.82 5.849 2.2115 4.8481 3.7369 11.967 3.7369 20.151s-1.5254 15.303-3.7369 20.151c-2.4617 5.396-4.6243 5.849-4.82 5.849-.1957 0-2.3583-.453-4.82-5.849-1.9366-4.245-3.3471-10.2324-3.6678-17.151zm121.4088 29h8.658v3h-8.658v-3zm-17.315 0h8.658v3h-8.658v-3zm-17.315 0h8.658v3h-8.658v-3zm-17.315 0h8.658v3h-8.658v-3zm-11.476 0h2.819v3h-5l-3.406-3.744 2.24-2.012.327.359v-.228h3.02V117zm-15.1756-15.756l5.9146 6.5-2.2408 2.012-5.9143-6.5 2.2405-2.012zm15.1756-3.369v8.25h-3.02v-8.25h3.02zm-23.6573-5.9524l2.5674 2.8216-2.2405 2.0116-3.3469-3.6784v-4.7649h3.02v3.6101zM118.93 84h7.361v3h-7.361v-3zM85.7407 71.5625v8.375h-3.02v-8.375h3.02zm8.4912-3.6202l5.9141 6.625-2.2593 1.9904-5.9143-6.625 2.2595-1.9904z" fill="#EEEEEE" />
</svg>
