<svg xmlns="http://www.w3.org/2000/svg" viewBox="0 0 20 20">
  <path d="M19 10c0 4.9706-2.4624 9-5.5 9S8 14.9706 8 10s2.4624-9 5.5-9S19 5.0294 19 10z" fill="#FFFFFF" />
  <path fill-rule="evenodd" clip-rule="evenodd" d="M17 10c0 2.1786-.5437 4.0549-1.3175 5.3211C14.8878 16.6215 14.0584 17 13.5 17s-1.3878-.3785-2.1825-1.6789c-.1856-.3037-.3579-.6425-.5127-1.0121l-1.6691 1.1688C10.141 17.6195 11.722 19 13.5 19c3.0376 0 5.5-4.0294 5.5-9s-2.4624-9-5.5-9S8 5.0294 8 10c0 .3625.013.7199.0386 1.0711l1.965-1.3759c.048-2.0486.5764-3.8095 1.3139-5.0163C12.1122 3.3785 12.9416 3 13.5 3s1.3878.3785 2.1825 1.679C16.4563 5.945 17 7.8213 17 10z" fill="#333333" />
  <path d="M2.5235 17.5202l5.1938-.046-1.045-1.4924 7.5912-5.3153c.4524-.3168.5623-.9403.2456-1.3927l-.1371-.1958c-.3168-.4524-.9403-.5624-1.3927-.2456l-7.5912 5.3154-.8814-1.2588-1.9832 4.6312z" fill="#1651B0" />
</svg>
