<svg xmlns="http://www.w3.org/2000/svg" viewBox="0 0 20 20">
  <path d="M10 19c4.9706 0 9-4.0294 9-9s-4.0294-9-9-9-9 4.0294-9 9 4.0294 9 9 9z" fill="#009400" />
  <path fill-rule="evenodd" clip-rule="evenodd" d="M14.2857 6.2536c-.1396-.1477-.366-.1477-.5057 0l-5.1771 5.1429-2.3572-2.52a.3525.3525 0 00-.5143 0l-1.197 1.2514c-.141.1485-.141.39 0 .5393l3.7856 4.115c.082.0863.1931.1093.3.0943.1098.0172.2238-.005.3086-.0943l6.6428-6.9257c.1397-.147.1397-.2816 0-.4286l-1.2857-1.1743z" fill="#FFFFFF" />
</svg>
