<svg xmlns="http://www.w3.org/2000/svg" viewBox="0 0 430 260">
  <defs>
    <clippath id="clip0_20_14">
      <path fill="#fff" d="M0 0h430v260H0z" />
    </clippath>
  </defs>
  <g clip-path="url(#clip0_20_14)">
    <path fill-rule="evenodd" clip-rule="evenodd" d="M100 1H0v50h100V1zm180 8H130v10h150V9zM130 40h80v8h-80v-8zm-30 31H0v50h100V71zm330 8v10H130V79h300zm-220 31h-80v8h80v-8zM0 141h100v50H0v-50zm380 8H130v10h250v-10zm-250 31h80v8h-80v-8zm-30 31H0v50h100v-50zm30 8h280v10H130v-10zm80 31h-80v8h80v-8z" fill="#EEE" />
  </g>
</svg>
