<svg xmlns="http://www.w3.org/2000/svg" viewBox="0 0 20 20">
  <path fill-rule="evenodd" clip-rule="evenodd" d="M10 19c-4.9624 0-9-4.0376-9-9s4.0376-9 9-9 9 4.0376 9 9-4.0376 9-9 9zm8-9c0-4.4183-3.5817-8-8-8s-8 3.5817-8 8 3.5817 8 8 8 8-3.5817 8-8z" fill="#1651B0" />
  <path fill-rule="evenodd" clip-rule="evenodd" d="M4.5 3H15l3.5 10-8.5 6-8.5-6 3-10zM10 17.75l7.25-5.25-3-8.5h-9l-2.5 8.5L10 17.75z" fill="#333333" />
  <g fill="#1651B0">
    <path d="M14.0007 1.2688A1.9875 1.9875 0 0114.998 1c.6911 0 1.3635.3593 1.7337 1.0002.5523.957.2245 2.1797-.7315 2.732A1.9868 1.9868 0 0115.002 5c-.6912 0-1.3626-.3584-1.7337-1.0002-.5523-.956-.2245-2.1787.7324-2.731zM9.0007 8.2688A1.9874 1.9874 0 019.998 8c.6911 0 1.3635.3593 1.7337 1.0002.5523.957.2245 2.1797-.7315 2.732A1.9872 1.9872 0 0110.002 12c-.6912 0-1.3626-.3584-1.7337-1.0002-.5523-.956-.2245-2.1787.7324-2.731z" />
  </g>
  <g fill="#FFFFFF">
    <path d="M16.2982 2.2502c-.2664-.4623-.765-.7502-1.3007-.7502-.2606 0-.5202.0695-.7474.2018-.717.4133-.9628 1.332-.5495 2.048.2674.4632.766.7502 1.3008.7502.2615 0 .5201-.0695.7483-.2008a1.4926 1.4926 0 00.6984-.9109 1.4873 1.4873 0 00-.1499-1.138zM11.2982 9.2502c-.2664-.4622-.765-.7502-1.3007-.7502-.2606 0-.5202.0695-.7474.2018-.717.4133-.9628 1.332-.5495 2.048.2674.4632.766.7502 1.3008.7502.2615 0 .5201-.0695.7483-.2008a1.4926 1.4926 0 00.6984-.9109 1.4872 1.4872 0 00-.1499-1.138z" />
  </g>
</svg>
