<svg xmlns="http://www.w3.org/2000/svg" viewBox="0 0 20 20">
  <path fill-rule="evenodd" clip-rule="evenodd" d="M10 18c4.1425 0 7.5-3.3575 7.5-7.5S14.1425 3 10 3s-7.5 3.3575-7.5 7.5S5.8575 18 10 18zm0-14c3.5902 0 6.5 2.9098 6.5 6.5S13.5902 17 10 17s-6.5-2.9098-6.5-6.5S6.4098 4 10 4z" fill="#1651B0" />
  <path fill-rule="evenodd" clip-rule="evenodd" d="M10 1.116l8.646 6.494L15.76 18H4.24L1.354 7.61 10 1.116zM17.5 8L10 2.367 2.5 8 5 17h10l2.5-9z" fill="#333333" />
  <g fill="#1651B0">
    <path d="M14.0007 3.2688A1.9875 1.9875 0 0114.998 3c.6911 0 1.3635.3593 1.7337 1.0003.5523.9569.2245 2.1796-.7315 2.732A1.9868 1.9868 0 0115.002 7c-.6912 0-1.3626-.3584-1.7337-1.0003-.5523-.9559-.2245-2.1786.7324-2.731zM9.0007 8.7688A1.9874 1.9874 0 019.998 8.5c.6911 0 1.3635.3593 1.7337 1.0002.5523.957.2245 2.1797-.7315 2.732a1.9872 1.9872 0 01-.9982.2678c-.6912 0-1.3626-.3584-1.7337-1.0002-.5523-.956-.2245-2.1787.7324-2.731z" />
  </g>
  <g fill="#FFFFFF">
    <path d="M16.2982 4.2502c-.2664-.4623-.765-.7502-1.3007-.7502-.2606 0-.5202.0695-.7474.2018-.717.4133-.9628 1.332-.5495 2.048.2674.4632.766.7502 1.3008.7502.2615 0 .5201-.0695.7483-.2008a1.4926 1.4926 0 00.6984-.9109 1.4873 1.4873 0 00-.1499-1.138zM11.2982 9.7502C11.0318 9.288 10.5332 9 9.9975 9c-.2606 0-.5202.0695-.7474.2018-.717.4133-.9628 1.332-.5495 2.048.2674.4632.766.7502 1.3008.7502.2615 0 .5201-.0695.7483-.2008a1.4926 1.4926 0 00.6984-.9109 1.4872 1.4872 0 00-.1499-1.138z" />
  </g>
</svg>
