<svg xmlns="http://www.w3.org/2000/svg" viewBox="0 0 20 20">
  <g fill="#333333">
    <path d="M8.03 1.2083L11.876 3.5 8.03 6V1.2082z" />
    <path fill-rule="evenodd" clip-rule="evenodd" d="M9.5565 7.279l2.2489 2.27-6.3875 6.4062-.1888.1188-3.1352 1.098H11V18H1v-.828h.6812l1.3705-3.3158.108-.162 6.3968-6.4153zm-6.1679 8.38l.5494-1.329 5.6162-5.6325.8414.8493-5.605 5.6213-1.402.4909z" />
    <path d="M19 3h-6v1h6V3zM13 6h6v1h-6V6zM19 9h-6v1h6V9zM13 12h6v1h-6v-1zM19 15h-6v1h6v-1z" />
  </g>
</svg>
