<svg xmlns="http://www.w3.org/2000/svg" viewBox="0 0 20 20">
  <g fill-rule="evenodd" clip-rule="evenodd">
    <path d="M7 4c0-1.657 1.343-3 3-3s3 1.343 3 3-1.343 3-3 3-3-1.343-3-3zm4.75 0c0-.9648-.7852-1.75-1.75-1.75S8.25 3.0352 8.25 4 9.0352 5.75 10 5.75s1.75-.7852 1.75-1.75z" fill="#333333" />
    <g fill="#1651B0">
      <path d="M7 9c0 1.6571-1.3429 3-3 3s-3-1.3429-3-3 1.3429-3 3-3 3 1.3429 3 3zM6 9c0-1.1049-.8951-2-2-2s-2 .8951-2 2 .8951 2 2 2 2-.8951 2-2zM14 19c1.6571 0 3-1.3429 3-3s-1.3429-3-3-3-3 1.3429-3 3 1.3429 3 3 3zm0-5c1.1049 0 2 .8951 2 2s-.8951 2-2 2-2-.8951-2-2 .8951-2 2-2zM9 16c0 1.6571-1.3429 3-3 3s-3-1.3429-3-3 1.3429-3 3-3 3 1.3429 3 3zm-1 0c0-1.1049-.8951-2-2-2s-2 .8951-2 2 .8951 2 2 2 2-.8951 2-2zM16 12c1.6571 0 3-1.3429 3-3s-1.3429-3-3-3-3 1.3429-3 3 1.3429 3 3 3zm0-5c1.1049 0 2 .8951 2 2s-.8951 2-2 2-2-.8951-2-2 .8951-2 2-2z" />
    </g>
  </g>
</svg>
