<svg xmlns="http://www.w3.org/2000/svg" viewBox="0 0 20 20">
  <path fill-rule="evenodd" clip-rule="evenodd" d="M8.499 12.996v.455c0 .847-.368 1.754-1.08 2.468-1.272 1.275-3.164 1.447-4.224.384-.467-.468-.695-1.098-.695-1.765 0-.847.367-1.755 1.079-2.468.836-.837 1.938-1.199 2.896-1.048L7.498 10 6.475 8.979c-.958.151-2.06-.211-2.896-1.048C2.867 7.217 2.5 6.31 2.5 5.463c0-.668.228-1.298.695-1.766 1.06-1.063 2.952-.891 4.224.385.712.713 1.08 1.621 1.08 2.468v.455l1 .998 4-3.994c1-.998 3.001-.998 4.001 0L11.499 10l6.001 5.991c-1 .999-3.001.999-4.001 0l-4-3.994-1 .999zM4.524 6.991c.228.228.485.405.764.525.25.108.511.165.754.165.234 0 .565-.053.817-.305.253-.254.306-.59.306-.826 0-.246-.057-.509-.165-.761-.12-.281-.297-.539-.525-.768-.228-.228-.485-.405-.765-.525-.25-.108-.51-.165-.753-.165-.234 0-.566.053-.817.305-.254.254-.307.59-.307.826 0 .246.057.509.165.761.121.281.298.539.526.768zM8.084 10c0-.78.634-1.412 1.415-1.412s1.414.632 1.414 1.412c0 .78-.633 1.412-1.414 1.412-.782 0-1.415-.632-1.415-1.412zm-4.251 4.538c0 .236.054.572.307.826.251.252.583.305.817.305.243 0 .503-.057.753-.165.28-.12.537-.297.765-.525.228-.229.405-.487.525-.768.108-.252.165-.515.165-.761 0-.236-.053-.572-.306-.826-.252-.252-.583-.305-.817-.305-.243 0-.504.057-.754.165-.279.12-.536.297-.764.525-.229.229-.405.487-.526.768-.108.252-.165.515-.165.761z" fill="#333333" />
</svg>
