<svg xmlns="http://www.w3.org/2000/svg" viewBox="0 0 20 20">
  <path d="M1 6h6l4.5-5c0 3.5 1.25 5 1.25 5H19v9h-5.5L10 18.5c-3 0-5-1-6-3.5H1V6z" fill="#333333" />
  <g fill="#FFFFFF">
    <path d="M10.75 3.5c0 1 .75 2.5.75 2.5h-3l2.25-2.5zM2 7.0282s3.9746-.0634 4 0C6.0115 7.0569 3 10 3 10c0 3 .5 4.0282.5 4.0282H2v-7z" />
    <path d="M18 7c-.0254-.0634-10.5 0-10.5 0L4 10.5c0 4 2 7 5.5 7l3.4805-3.4764L18 14s.0115-6.9713 0-7z" />
  </g>
  <path fill-rule="evenodd" clip-rule="evenodd" d="M6.5 6.5c0 1.8352.5405 3.8171 1.6056 5.9472.9989 1.9979 2.4776 3.257 4.3944 3.5528l1-1v-1c-1.6072 0-2.7694-.7748-3.6056-2.4472C8.9594 9.6829 8.5 7.9981 8.5 6.5V6h-2v.5z" fill="#1651B0" />
</svg>
