<svg xmlns="http://www.w3.org/2000/svg" viewBox="0 0 20 20">
  <path d="M14.1069 4.643a1.9888 1.9888 0 01-.0747-1.0004C8.4679 4.463 4.4515 8.732 3.6477 14.0308c.116-.0207.233-.0308.3493-.0308.2219 0 .4418.0371.6505.1087.761-4.8194 4.4035-8.6874 9.4594-9.4657z" fill="#333333" />
  <g fill="#1651B0">
    <path d="M15.997 2c-.339 0-.682.086-.997.268-.956.551-1.284 1.773-.732 2.729.37.641 1.042 1 1.733 1 .339 0 .682-.086.997-.268.955-.552 1.282-1.774.731-2.73-.37-.64-1.042-.999-1.732-.999zM3.997 14c-.339 0-.682.086-.997.268-.956.551-1.284 1.773-.732 2.729.37.641 1.042 1 1.733 1 .339 0 .682-.086.997-.268.955-.552 1.282-1.774.731-2.73-.37-.64-1.042-.999-1.732-.999zM15 14.268c.315-.182.658-.268.997-.268.69 0 1.362.359 1.732.999.551.956.224 2.178-.731 2.73-.315.182-.658.268-.997.268-.691 0-1.363-.359-1.733-1-.552-.956-.224-2.178.732-2.729z" />
  </g>
  <g fill="#FFFFFF">
    <path d="M15.9971 2.5c.535 0 1.032.286 1.3.749.413.715.167 1.634-.549 2.047a1.503 1.503 0 01-.748.201c-.535 0-1.032-.287-1.3-.749-.2-.347-.254-.751-.15-1.137a1.4987 1.4987 0 011.447-1.111zM3.997 14.5c.535 0 1.032.286 1.3.749.413.715.167 1.634-.549 2.047a1.503 1.503 0 01-.748.201c-.535 0-1.032-.287-1.3-.749-.2-.347-.254-.751-.15-1.137A1.4987 1.4987 0 013.997 14.5zM17.2971 15.249a1.5041 1.5041 0 00-1.3-.749 1.4987 1.4987 0 00-1.447 1.111c-.104.386-.05.79.15 1.137.268.462.765.749 1.3.749.262 0 .52-.07.748-.201.716-.413.962-1.332.549-2.047z" />
  </g>
</svg>
