<svg xmlns="http://www.w3.org/2000/svg" viewBox="0 0 20 20">
  <path d="M7.3153 3.0029L7.3118 3H2c-.531 0-1 .609-1 1v14c0 .422.562 1 1 1h16c.406 0 1-.438 1-1V4c0-.703-.562-1-1-1h-7.3116l.0033.005c.1988.2963.3651.6267.4942.995.1552.443.2566.9409.2961 1.5h3.725L10 10.707 4.793 5.5h3.684c-.0503-.5885-.1787-1.0825-.3774-1.4961L8.0977 4c-.1954-.4054-.4586-.7333-.7824-.9971z" fill="#333333" />
  <g fill="#FFFFFF">
    <path d="M4.247 16h11.2929l-2.613-3.732-1.906 1.851-3.891-5.121L4.247 16z" />
    <path fill-rule="evenodd" clip-rule="evenodd" d="M8.477 5.5c-.0505-.5904-.1795-1.0857-.3793-1.5H2.25c-.191 0-.25.118-.25.25v13.5c0 .203.112.25.25.25h15.5c.138 0 .25-.1.25-.25V4.25c0-.162-.088-.25-.25-.25h-6.5641c.1552.443.2566.9409.2961 1.5h3.725l-.0252.0252A2.015 2.015 0 0115.5 5.5c1.1046 0 2 .8954 2 2s-.8954 2-2 2-2-.8954-2-2c0-.1083.0086-.2146.0252-.3182L10 10.707 4.793 5.5h3.684zM6.7022 7.4093l1.9866 1.9866 2.4451 3.2181 1.939-1.882L17.4599 17H2.7529l3.9493-9.5907z" />
    <path d="M14.5 7.5c0 .5523.4477 1 1 1s1-.4477 1-1-.4477-1-1-1-1 .4477-1 1z" />
  </g>
  <path d="M3 1c5 0 7.979 1.021 8 5h3l-4 4-4-4h3c-.042-3.958-3-4.5-6-4.5V1z" fill="#333333" />
</svg>
