<svg xmlns="http://www.w3.org/2000/svg" viewBox="0 0 20 20">
  <path fill-rule="evenodd" clip-rule="evenodd" d="M6.5014 6.904C3.8364 8.3643 2 11.441 2 15.0001h1.5c0-2.8254 1.3495-5.2587 3.3201-6.5385a3.4745 3.4745 0 01-.3187-1.5576zm6.6788 1.5578a3.5174 3.5174 0 00.3186-1.5577C16.1637 8.3645 18 11.441 18 15.0001h-1.5c0-2.8252-1.3493-5.2584-3.3198-6.5383z" fill="#1651B0" />
  <path d="M9.9975 4.5c-.4233 0-.8528.1083-1.2466.336-1.1962.6903-1.606 2.2188-.9156 3.4137C8.2993 9.052 9.1386 9.5 10.0024 9.5c.4246 0 .8541-.107 1.2479-.3347 1.1949-.6904 1.6047-2.2188.9143-3.415C11.7019 4.9492 10.8614 4.5 9.9976 4.5z" fill="#333333" />
  <path fill-rule="evenodd" clip-rule="evenodd" d="M9.9975 5.5c.5357 0 1.0343.288 1.3007.7502.2008.3468.2537.7513.1499 1.1381a1.4926 1.4926 0 01-.6984.911 1.5033 1.5033 0 01-.7483.2007 1.5054 1.5054 0 01-1.3008-.7502c-.4133-.716-.1675-1.6347.5495-2.048A1.4907 1.4907 0 019.9975 5.5z" fill="#FFFFFF" />
</svg>
