<svg xmlns="http://www.w3.org/2000/svg" viewBox="0 0 20 20">
  <path fill-rule="evenodd" clip-rule="evenodd" d="M18.35 12.801c0 2.8644-2.323 5.187-5.188 5.187-2.865 0-5.188-2.3226-5.188-5.187 0-2.8651 2.3229-5.188 5.188-5.188 2.8651 0 5.188 2.3229 5.188 5.188zm-1 0c0-2.3128-1.8751-4.188-4.188-4.188s-4.188 1.8752-4.188 4.188c0 2.312 1.8753 4.187 4.188 4.187 2.3127 0 4.188-1.875 4.188-4.187z" fill="#1651B0" />
  <path d="M16.2928 1.293l-15 15 1.4143 1.4142 15-15-1.4143-1.4142z" fill="#CDCDCD" />
</svg>
