<svg xmlns="http://www.w3.org/2000/svg" viewBox="0 0 20 20">
  <g fill-rule="evenodd" clip-rule="evenodd">
    <path d="M11.3535 3.0608a.5.5 0 00-.7071 0l-7.5858 7.5857a.5.5 0 000 .7071L9 17.293l7.9393-7.9393a.5.5 0 000-.7072l-5.5858-5.5857zm-1.4142-.7071c.5858-.5858 1.5355-.5858 2.1213 0l5.5858 5.5857c.5858.5858.5858 1.5356 0 2.1214L9 18.7072l-6.6465-6.6464c-.5858-.5858-.5858-1.5356 0-2.1214l7.5858-7.5857z" fill="#333333" />
    <g fill="#1651B0">
      <path d="M2.998 9c-.3387 0-.6822.0866-.9973.2688-.9569.5523-1.2847 1.775-.7324 2.731C1.6394 12.6416 2.3108 13 3.0019 13c.3397 0 .6833-.0857.9983-.2678.956-.5523 1.2838-1.775.7315-2.732C4.3615 9.3593 3.6891 9 2.998 9zM10.998 1c-.3387 0-.6822.0866-.9973.2688-.9569.5523-1.2847 1.775-.7324 2.731C9.6394 4.6416 10.3108 5 11.002 5c.3396 0 .6832-.0857.9982-.2678.956-.5523 1.2838-1.775.7315-2.732C12.3615 1.3593 11.6891 1 10.998 1zM16.0007 7.2688c-.9569.5523-1.2847 1.775-.7324 2.731C15.6394 10.6416 16.3108 11 17.002 11c.3396 0 .6832-.0857.9982-.2678.956-.5523 1.2838-1.775.7315-2.732C18.3615 7.3593 17.6891 7 16.998 7c-.3387 0-.6822.0866-.9973.2688z" />
    </g>
    <g fill="#FFFFFF">
      <path d="M16.9975 7.5c.5357 0 1.0343.288 1.3007.7502.2008.3468.2537.7513.1499 1.1381a1.4926 1.4926 0 01-.6984.9109 1.5027 1.5027 0 01-.7483.2008 1.5055 1.5055 0 01-1.3008-.7502c-.4133-.716-.1675-1.6347.5495-2.048a1.4906 1.4906 0 01.7474-.2018zM12.2982 2.2502c.2008.3468.2537.7513.1499 1.1381a1.4926 1.4926 0 01-.6984.911 1.5033 1.5033 0 01-.7483.2007 1.5055 1.5055 0 01-1.3008-.7502c-.4133-.716-.1675-1.6347.5495-2.048a1.4906 1.4906 0 01.7474-.2018c.5357 0 1.0343.288 1.3007.7502zM2.9975 9.5c.5357 0 1.0343.288 1.3007.7502.2008.3468.2537.7513.1499 1.1381a1.4925 1.4925 0 01-.6984.9109 1.5028 1.5028 0 01-.7483.2008 1.5055 1.5055 0 01-1.3008-.7502c-.4133-.716-.1675-1.6347.5495-2.048A1.4907 1.4907 0 012.9975 9.5z" />
    </g>
  </g>
</svg>
