<svg xmlns="http://www.w3.org/2000/svg" viewBox="0 0 20 20">
  <path d="M10 18c4.4183 0 8-3.5817 8-8s-3.5817-8-8-8v1c3.866 0 7 3.134 7 7s-3.134 7-7 7v1z" fill="#333333" />
  <path fill="#1651B0" d="M2 2h8v1H2z" />
  <g fill="#1651B0">
    <path d="M8 3c0-1.105.895-2 2-2s2 .895 2 2-.895 2-2 2-2-.895-2-2zM8 17c0-1.105.895-2 2-2s2 .895 2 2-.895 2-2 2-2-.895-2-2z" />
  </g>
  <g fill="#FFFFFF">
    <path d="M11.5 3c0-.827-.673-1.5-1.5-1.5S8.5 2.173 8.5 3s.673 1.5 1.5 1.5 1.5-.673 1.5-1.5zM11.5 17c0-.827-.673-1.5-1.5-1.5s-1.5.673-1.5 1.5.673 1.5 1.5 1.5 1.5-.673 1.5-1.5z" />
  </g>
  <path d="M8 10.5h1.5V12h1v-1.5H12v-1h-1.5V8h-1v1.5H8v1z" fill="#333333" />
</svg>
