<svg xmlns="http://www.w3.org/2000/svg" viewBox="0 0 20 20">
  <path d="M3.5 17c0-4.3905 2.1095-6.5 6.5-6.5 4.9428 0 7.5-2.5572 7.5-7.5h-1c0 4.3905-2.1095 6.5-6.5 6.5-4.9428 0-7.5 2.5572-7.5 7.5h1z" fill="#CDCDCD" />
  <g fill="#1651B0">
    <path d="M16.0007 1.2688A1.9875 1.9875 0 0116.998 1c.6911 0 1.3635.3593 1.7337 1.0002.5523.957.2245 2.1797-.7315 2.732A1.9868 1.9868 0 0117.002 5c-.6912 0-1.3626-.3584-1.7337-1.0002-.5523-.956-.2245-2.1787.7324-2.731zM9.998 8c-.3386 0-.6822.0866-.9973.2688-.9569.5523-1.2847 1.775-.7324 2.731C8.6394 11.6416 9.3108 12 10.002 12c.3396 0 .6832-.0857.9982-.2678.956-.5523 1.2838-1.775.7315-2.732C11.3615 8.3593 10.6891 8 9.998 8zM2.998 15c-.3387 0-.6822.0866-.9973.2688-.9569.5523-1.2847 1.775-.7324 2.731C1.6394 18.6416 2.3108 19 3.0019 19c.3397 0 .6833-.0857.9983-.2678.956-.5523 1.2838-1.775.7315-2.732C4.3615 15.3593 3.6891 15 2.998 15z" />
  </g>
  <g fill="#FFFFFF">
    <path d="M18.2982 2.2502c-.2664-.4623-.765-.7502-1.3007-.7502-.2606 0-.5202.0695-.7474.2018-.717.4133-.9628 1.332-.5495 2.048.2674.4632.766.7502 1.3008.7502.2615 0 .5201-.0695.7483-.2008a1.4926 1.4926 0 00.6984-.9109 1.4873 1.4873 0 00-.1499-1.138zM9.9975 8.5c.5357 0 1.0343.288 1.3007.7502.2008.3468.2537.7513.1499 1.1381a1.4926 1.4926 0 01-.6984.9109 1.5027 1.5027 0 01-.7483.2008 1.5056 1.5056 0 01-1.3008-.7502c-.4133-.716-.1675-1.6347.5495-2.048A1.4907 1.4907 0 019.9975 8.5zM2.9975 15.5c.5357 0 1.0343.288 1.3007.7502.2008.3468.2537.7513.1499 1.1381a1.4925 1.4925 0 01-.6984.9109 1.5028 1.5028 0 01-.7483.2008 1.5055 1.5055 0 01-1.3008-.7502c-.4133-.716-.1675-1.6347.5495-2.048a1.49 1.49 0 01.7474-.2018z" />
  </g>
</svg>
