<svg xmlns="http://www.w3.org/2000/svg" viewBox="0 0 20 20">
  <path fill-rule="evenodd" clip-rule="evenodd" d="M19 10c0 4.9706-4.0294 9-9 9s-9-4.0294-9-9 4.0294-9 9-9 9 4.0294 9 9zm-9 8c4.4183 0 8-3.5817 8-8s-3.5817-8-8-8-8 3.5817-8 8 3.5817 8 8 8z" fill="#333333" />
  <g fill="#1651B0">
    <path d="M5 1c-1.105 0-2 .895-2 2s.895 2 2 2 2-.895 2-2-.895-2-2-2zM5 15c-1.105 0-2 .895-2 2s.895 2 2 2 2-.895 2-2-.895-2-2-2zM15 15c0-1.105.895-2 2-2s2 .895 2 2-.895 2-2 2-2-.895-2-2z" />
  </g>
  <g fill="#FFFFFF">
    <path d="M6.5 3c0-.827-.673-1.5-1.5-1.5S3.5 2.173 3.5 3 4.173 4.5 5 4.5 6.5 3.827 6.5 3zM17 13.5c.827 0 1.5.673 1.5 1.5s-.673 1.5-1.5 1.5-1.5-.673-1.5-1.5.673-1.5 1.5-1.5zM5 15.5c.827 0 1.5.673 1.5 1.5s-.673 1.5-1.5 1.5-1.5-.673-1.5-1.5.673-1.5 1.5-1.5z" />
  </g>
  <path d="M8 10.5h1.5V12h1v-1.5H12v-1h-1.5V8h-1v1.5H8v1z" fill="#333333" />
</svg>
