<svg xmlns="http://www.w3.org/2000/svg" viewBox="0 0 200 170">
  <path fill-rule="evenodd" clip-rule="evenodd" d="M21.7391 10.2097c-1.9194-.822-3.2608-2.699-3.2608-4.8832C18.4783 2.3847 20.9115 0 23.913 0c2.2286 0 4.144 1.3147 4.9826 3.1959H177.626C178.465 1.3147 180.38 0 182.609 0c3.001 0 5.434 2.3847 5.434 5.3265 0 2.1841-1.341 4.0613-3.26 4.8832v60.2139l9.862 16.756c2.902 4.9294 1.18 11.2327-3.846 14.0784l-30.39 17.21h29.084c5.803 0 10.507 4.615 10.507 10.307v30.919c0 5.692-4.704 10.306-10.507 10.306H52.8985c-5.8029 0-10.5072-4.614-10.5072-10.306v-7.357H28.8956c-.8386 1.881-2.7539 3.195-4.9826 3.195-3.0015 0-5.4347-2.384-5.4347-5.326 0-2.184 1.3414-4.061 3.2608-4.883V99.072H10.4173c-.8386 1.881-2.754 3.196-4.9825 3.196C2.4332 102.268 0 99.8832 0 96.9415c0-2.9418 2.4332-5.3265 5.4348-5.3265.666 0 1.3041.1174 1.8938.3323l11.1497-22.7034 3.2608-3.3557V10.2097zM25 10.5464v51.9862l36.9565-38.0309 15.2174 14.9141L33.6957 84.158 25 87.7413v8.1349h43.5759l42.1121-71.5461c2.902-4.9294 9.328-6.6184 14.353-3.7724l27.299 15.4595c5.026 2.846 6.748 9.1493 3.846 14.0787l-9.942 16.8911 18.287-10.3564c5.026-2.846 11.452-1.157 14.353 3.7724l2.638 4.4807V10.5464c-2.13-.4237-3.807-2.0676-4.239-4.1547H29.2391c-.4323 2.087-2.1096 3.731-4.2391 4.1547zm0 88.5256v45.914c2.1295.424 3.8068 2.068 4.2391 4.155h13.1522v-20.366c0-5.692 4.7043-10.307 10.5073-10.307h2.3793l11.4169-19.396H25zm-3.2609-3.1958V89.085L9.9324 93.9504a5.239 5.239 0 01.8284 1.9258h10.9783zm3.1465-26.6323H25v-.1184l36.9565-38.2321 8.6956 8.5224-39.1304 40.481-8.6956-8.5223 2.0595-2.1306zm69.338-6.635L70.5823 102.774l6.2342 3.53 47.2825-26.7763-29.8754-16.9188zm35.1294 13.9436l7.791-4.4124 14.492-24.6208c1.451-2.4647.59-5.6163-1.923-7.0393l-27.298-15.4595c-2.513-1.423-5.726-.5785-7.177 1.8862L96.8504 58.1461l32.5026 18.4064zM91.735 118.468H65.8442l19.4181-10.996 6.4727 10.996zm58.167 0H97.8014l-7.9893-13.573L130.76 81.706l21.014 35.702 4.55-2.577-21.014-35.7016 31.848-18.036c2.513-1.423 5.726-.5785 7.177 1.8862l15.76 26.7766c1.451 2.4647.59 5.6163-1.922 7.0393l-38.271 21.6725zm-107.5107 10.27a10.178 10.178 0 01.1242-1.553c-.0422.068-.0836.137-.1242.206v1.347zm21.9568-15.373l7.2148-4.085-3.6074-2.043-3.6074 6.128zm-11.4495 10.257h42.0289v41.225h-42.029c-2.9014 0-5.2536-2.307-5.2536-5.153v-30.919c0-2.846 2.3522-5.153 5.2537-5.153zm94.5654 41.225h-47.283v-41.225h47.283v41.225zm5.253 0h36.776c2.901 0 5.253-2.307 5.253-5.153v-30.919c0-2.846-2.352-5.153-5.253-5.153h-36.776v41.225zm-78.804-20.613c0 2.846-2.3521 5.153-5.2536 5.153-2.9015 0-5.2536-2.307-5.2536-5.153 0-2.846 2.3521-5.153 5.2536-5.153 2.9015 0 5.2536 2.307 5.2536 5.153zm5.2537 0c0 5.692-4.7043 10.307-10.5073 10.307-5.803 0-10.5072-4.615-10.5072-10.307s4.7042-10.306 10.5072-10.306c5.803 0 10.5073 4.614 10.5073 10.306zM20.6522 73.5051l-5.2755 9.7027 3.5646 3.3319 10.4065-4.5123-8.6956-8.5223z" fill="#EEEEEE" />
</svg>
