<svg xmlns="http://www.w3.org/2000/svg" viewBox="0 0 20 20">
  <g fill="#333333">
    <path fill-rule="evenodd" clip-rule="evenodd" d="M10.0001 11.9999c1.1045 0 2-.8954 2-2 0-1.1045-.8955-2-2-2-1.1046 0-2 .8955-2 2 0 1.1046.8954 2 2 2zm3.5-2c0 1.933-1.567 3.5-3.5 3.5s-3.5-1.567-3.5-3.5S8.067 6.5 10 6.5s3.5 1.567 3.5 3.5z" />
    <path d="M11.2408 5.3215l-.2393-.6289h-2.037l-.2393.6426c-.0935.2507-.1732.4204-.2393.5093-.066.0866-.1743.1299-.3247.1299-.1276 0-.2404-.0468-.3384-.1402-.098-.0934-.147-.1993-.147-.3178a.709.709 0 01.0342-.212c.0228-.0729.0604-.1743.1128-.3042l1.2817-3.2539c.0365-.0934.0798-.205.13-.335.0523-.132.107-.2415.164-.328a.6712.6712 0 01.229-.2085c.0957-.0547.213-.082.352-.082.1413 0 .2587.0273.3521.082.0957.0524.172.1207.229.205.0593.0843.1082.1755.147.2735.041.0957.0923.2244.1538.3862l1.3091 3.2334c.1025.246.1538.425.1538.5366 0 .1162-.049.2233-.147.3213-.0957.0957-.2119.1436-.3486.1436-.0798 0-.1481-.0149-.2051-.0445a.4112.4112 0 01-.1436-.1128c-.0387-.05-.0809-.1253-.1264-.2256a33.0537 33.0537 0 01-.1128-.27zM9.231 3.9305h1.4971l-.7554-2.068-.7417 2.068zM14.4871 8.761l-.4732-1.4564c-.0683-.2102-.0707-.376-.0071-.4973.0665-.1198.2027-.2131.4086-.28l3.5822-1.164c.2102-.0683.3757-.0717.4962-.0103.1235.063.2187.1973.2856.4032l.5017 1.544c.0739.2276.1239.4294.15.6054.026.176.0204.3432-.0168.5014a1.2218 1.2218 0 01-.1597.3825 1.1542 1.1542 0 01-.2769.3092 1.186 1.186 0 01-.3711.1961c-.4768.155-.9031.0299-1.2791-.375.0041.691-.282 1.1302-.8585 1.3175-.2665.0866-.5293.0965-.7882.0297-.2567-.0675-.4737-.2007-.6509-.3995-.1078-.1254-.2054-.2782-.2927-.4583-.0851-.1808-.1685-.3969-.2501-.6483zm2.0929-.7592l-.3263-1.0044-1.3913.452.3369 1.037c.2119.6523.553.902 1.0233.7492.2406-.0781.3875-.2193.441-.4236.0534-.2042.0256-.4743-.0836-.8102zm1.5981-1.6297l-1.2321.4003.2873.8842c.0782.2405.1612.4184.2489.5336.0885.1174.2079.19.3583.2179.1086.0246.2193.0186.332-.018.2405-.0782.372-.2156.3944-.4121.0245-.1973-.0202-.4714-.1343-.8225l-.2545-.7834zM12.193 16.4161c-.0937-.1291-.1632-.2926-.2086-.4907-.0458-.1948-.0534-.4146-.0228-.6594.032-.2429.1212-.4865.2675-.7309.1464-.2443.3606-.469.6426-.6739.2139-.1553.4231-.2764.6277-.363.2046-.0867.4096-.1399.615-.1596.2049-.0165.4181.0018.6398.0549.1993.0495.3937.1251.5831.2269a2.845 2.845 0 01.5391.3815c.1668.152.3232.3285.4692.5294.237.3263.4023.6527.4958.9791.0917.3277.1153.6471.0709.9582a2.1867 2.1867 0 01-.3168.8723c-.1681.2687-.3868.5007-.6559.6963-.3282.2384-.6679.3852-1.0192.4405-.3514.0553-.6656.0357-.9426-.0587-.2757-.0926-.4759-.2247-.6004-.3961-.0683-.094-.0954-.2011-.0813-.3212.0141-.1201.0682-.2143.1622-.2826.1051-.0764.2025-.1091.2921-.0981.0878.0122.2081.0558.361.1306.2529.1232.4884.1817.7063.1754.2161-.0049.4302-.0844.6422-.2384.3374-.2451.5134-.5687.5282-.971.0129-.4009-.1521-.8373-.4949-1.3092-.2291-.3152-.4642-.5458-.7053-.6917-.2399-.144-.4784-.2087-.7156-.194-.2373.0146-.4646.1009-.6822.259-.2359.1714-.3928.3741-.4707.6081-.0783.2372-.0766.4993.0052.7863.0426.1324.0622.2505.0588.3544-.002.1057-.0602.2001-.1745.2831-.0977.071-.2063.0978-.326.0805-.1196-.0173-.2162-.0767-.2899-.178zM5.1688 18.6444l-1.0701-.7775c-.2784-.2023-.4984-.4015-.66-.5978-.1616-.1962-.272-.4243-.331-.6841-.1596-.668.0284-1.3707.5642-2.1081.1768-.2434.3593-.4501.5477-.6202.1884-.1702.3858-.3042.5921-.4021a2.1001 2.1001 0 01.6536-.1843 1.7406 1.7406 0 01.5274.0241c.172.0348.3413.0944.508.179.1649.0832.3404.1924.5266.3277l1.0701.7775c.1494.1084.2457.2123.2892.3114.042.101.0456.2008.0107.2993-.0382.099-.1048.214-.1999.3449l-2.1597 2.9726c-.1286.1769-.2613.2763-.3982.2979-.1368.0217-.2937-.0317-.4707-.1603zm.1541-.8809l1.999-2.7513-.6222-.4521c-.1364-.0991-.246-.1731-.3288-.222a1.2389 1.2389 0 00-.2807-.1194c-.1044-.0308-.2064-.0416-.3061-.0323-.4434.0327-.8714.3329-1.284.9007-.2906.4001-.4474.7438-.4704 1.0313-.0248.2862.0319.5203.17.7023.1368.1839.3305.3669.5812.5491l.542.3937zM1.9819 5.9262L1.2753 8.101l1.1702.3803.6506-2.0024c.048-.1474.117-.246.2075-.2956.089-.0526.1876-.0613.296-.026.1083.0352.1855.0998.2316.1938.044.0934.0417.2148-.007.3643l-.6505 2.0025 1.3555.4404.7309-2.2495c.0493-.1517.122-.2538.2182-.3064.0947-.0555.2005-.0642.3175-.0262.1127.0366.1922.1055.2383.2068.0447.0984.0424.2234-.0068.3751l-.8524 2.6233c-.0683.2102-.1642.3468-.2877.4097-.1227.0607-.2881.0573-.4962-.0103L.8088 9.0167C.67 8.9718.564 8.9146.4908 8.8453.4153 8.775.3722 8.6904.3613 8.591c-.0123-.1022.0037-.2216.048-.3581l.8282-2.5485c.05-.1539.1216-.2564.2149-.3076.0918-.054.193-.063.3035-.0271.1127.0366.1914.104.2361.2025.0432.0955.0399.2202-.0101.374z" />
  </g>
</svg>
