<svg xmlns="http://www.w3.org/2000/svg" viewBox="0 0 18 18">
  <path d="M3.5 12.625H15v1.25H3.5v-1.25z" fill="#1651B0" />
  <path fill-rule="evenodd" clip-rule="evenodd" d="M17 9c0 1.8487-.6271 3.551-1.6802 4.9057l1.3873 1.3872c.3905.3905.3905 1.0237 0 1.4142-.3905.3905-1.0237.3905-1.4142 0l-1.3873-1.3872C12.551 16.3729 10.8487 17 9 17c-4.4183 0-8-3.5817-8-8s3.5817-8 8-8 8 3.5817 8 8zm-1 0c0 3.866-3.134 7-7 7s-7-3.134-7-7 3.134-7 7-7a6.995 6.995 0 012.1545.3378L8.5 5.1251l-3.75 7.7912 8.125-3.4162 2.719-2.855C15.8569 7.381 16 8.1738 16 9zm-1.0167-3.6351a7.0344 7.0344 0 00-2.5381-2.4598L9.75 5.7501l2.5 2.5 2.7333-2.8852zm-7.375 3.8564L9.125 6.3751l2.5 2.5-2.9919 1.3236-1.0248-.9774z" fill="#333333" />
</svg>
