<svg xmlns="http://www.w3.org/2000/svg" viewBox="0 0 20 20">
  <path fill-rule="evenodd" clip-rule="evenodd" d="M17.5 3h-1v8.7664l-14-5.5V17h1V7.7336l14 5.5V3z" fill="#1651B0" />
  <path d="M3.5 17c0-4.3905 2.1095-6.5 6.5-6.5 4.9428 0 7.5-2.5572 7.5-7.5h-1c0 4.3905-2.1095 6.5-6.5 6.5-4.9428 0-7.5 2.5572-7.5 7.5h1z" fill="#333333" />
  <g fill="#1651B0">
    <path d="M16.0007 1.2688A1.9875 1.9875 0 0116.998 1c.6911 0 1.3635.3593 1.7337 1.0002.5523.957.2245 2.1797-.7315 2.732A1.9868 1.9868 0 0117.002 5c-.6912 0-1.3626-.3584-1.7337-1.0002-.5523-.956-.2245-2.1787.7324-2.731zM2.0007 15.2688A1.9867 1.9867 0 012.998 15c.6911 0 1.3635.3593 1.7337 1.0002.5523.957.2245 2.1797-.7315 2.732A1.9874 1.9874 0 013.002 19c-.691 0-1.3625-.3584-1.7336-1.0002-.5523-.956-.2245-2.1787.7324-2.731z" />
    <path fill-rule="evenodd" clip-rule="evenodd" d="M15 13c0-1.1054.8958-2 1.9992-2C18.1042 11 19 11.8946 19 13s-.8958 2-2.0008 2C15.8958 15 15 14.1054 15 13zM1 7c0-1.1054.8958-2 1.9992-2C4.1042 5 5 5.8946 5 7s-.8958 2-2.0008 2C1.8958 9 1 8.1054 1 7z" />
  </g>
  <g fill="#FFFFFF">
    <path fill-rule="evenodd" clip-rule="evenodd" d="M1.5 7c0-.829.6719-1.5 1.4994-1.5C3.8281 5.5 4.5 6.171 4.5 7s-.6719 1.5-1.5006 1.5C2.172 8.5 1.5 7.829 1.5 7z" />
    <path d="M18.2982 2.2502c-.2664-.4623-.765-.7502-1.3007-.7502-.2606 0-.5202.0695-.7474.2018-.717.4133-.9628 1.332-.5495 2.048.2674.4632.766.7502 1.3008.7502.2615 0 .5201-.0695.7483-.2008a1.4926 1.4926 0 00.6984-.9109 1.4873 1.4873 0 00-.1499-1.138zM4.2982 16.2502c-.2664-.4622-.765-.7502-1.3007-.7502a1.49 1.49 0 00-.7474.2018c-.717.4133-.9628 1.332-.5495 2.048.2674.4632.766.7502 1.3008.7502.2615 0 .52-.0695.7483-.2008a1.4925 1.4925 0 00.6984-.9109 1.4873 1.4873 0 00-.1499-1.1381z" />
    <path fill-rule="evenodd" clip-rule="evenodd" d="M15.5 13c0-.829.6719-1.5 1.4994-1.5.8287 0 1.5006.671 1.5006 1.5s-.6719 1.5-1.5006 1.5c-.8275 0-1.4994-.671-1.4994-1.5z" />
  </g>
</svg>
