<svg xmlns="http://www.w3.org/2000/svg" viewBox="0 0 20 20">
  <path d="M3.5974 17.3117L17.3117 3.5974l-.9092-.9092L2.6882 16.4025l.9092.9092z" fill="#CDCDCD" />
  <g fill="#1651B0">
    <path d="M15.5856 4.4144c.7797.7808 2.0491.7808 2.8288 0 .7808-.7797.7808-2.049 0-2.8288-.7797-.7808-2.0491-.7808-2.8288 0-.7808.7797-.7808 2.049 0 2.8288zM4.4144 15.5856c.7808.7797.7808 2.0491 0 2.8288-.7797.7808-2.049.7808-2.8288 0-.7808-.7797-.7808-2.0491 0-2.8288.7797-.7808 2.049-.7808 2.8288 0z" />
  </g>
  <g fill="#FFFFFF">
    <path d="M18.0611 4.061c-.5853.5853-1.5369.5853-2.1222 0-.5852-.5852-.5852-1.5368 0-2.122.5853-.5853 1.5369-.5853 2.1222 0 .5852.5852.5852 1.5368 0 2.122zM4.061 15.9389c-.5852-.5852-1.5368-.5852-2.122 0-.5853.5853-.5853 1.5369 0 2.1222.5852.5852 1.5368.5852 2.122 0 .5853-.5853.5853-1.5369 0-2.1222z" />
  </g>
</svg>
