<svg xmlns="http://www.w3.org/2000/svg" viewBox="0 0 20 20">
  <g fill="#1651B0">
    <path d="M5.227 12.8533C3.083 10.1636 2 6.4899 2 2h1c0 4.1105.9328 7.4701 2.8003 9.96a3.0034 3.0034 0 00-.5733.8933zM9.795 16.404C12.0489 17.4505 14.7863 18 18 18v-1c-2.9216 0-5.4156-.4679-7.4829-1.3671a3.016 3.016 0 01-.7221.7711z" />
  </g>
  <g fill="#333333">
    <path d="M17.141 1.5667c-2.8698 1.1037-3.8548 2.4031-4.7018 5.2188-.6658 2.2134-1.2879 3.5775-2.6156 4.8322.5434.4166.9402 1.015 1.0995 1.7043 1.7985-1.5834 2.6241-3.2769 3.4313-5.9604.6846-2.2759 1.2922-3.0773 3.5046-3.9283l-.718-1.8666zM10 14c0 1.1046-.8954 2-2 2s-2-.8954-2-2 .8954-2 2-2 2 .8954 2 2z" />
  </g>
</svg>
