<svg xmlns="http://www.w3.org/2000/svg" viewBox="0 0 20 20">
  <path fill-rule="evenodd" clip-rule="evenodd" d="M15.257 1.335c.38-.219.812-.335 1.249-.335.891 0 1.721.479 2.166 1.25.334.578.423 1.252.25 1.897-.134.4997-.4127.9358-.8003 1.2622.5259 1.9704-.058 4.2711-1.6397 6.5737.0666.0865.1279.1779.1833.2738.689 1.194.279 2.726-.915 3.415-.38.219-.811.335-1.248.335a2.5048 2.5048 0 01-1.382-.4174c-2.8594 2.2745-5.8749 3.0252-8.1572 1.9449a2.502 2.502 0 01-1.4608.4725c-.891 0-1.721-.479-2.166-1.25-.334-.578-.423-1.252-.25-1.897.1487-.5546.475-1.0308.9315-1.3657-.2517-2.0272.6161-4.326 2.4183-6.5785a2.4761 2.4761 0 01-.0998-.1588c-.334-.578-.423-1.252-.25-1.897s.586-1.184 1.165-1.518c.379-.219.811-.335 1.248-.335.5842 0 1.1423.206 1.5827.5651 2.3533-1.5659 4.6232-2.1888 6.5094-1.678a2.4871 2.4871 0 01.6656-.5588zm1.953 4.564c.3326 1.5908-.1741 3.477-1.4902 5.4267a2.5006 2.5006 0 00-1.2205-.319c-.437 0-.869.116-1.248.335-.579.334-.992.873-1.165 1.518-.173.645-.084 1.319.25 1.897.0235.0407.048.0805.0736.1195-2.432 1.9052-4.8932 2.5694-6.7398 1.8713.4254-.7468.455-1.6941-.0048-2.4908-.445-.771-1.275-1.25-2.166-1.25a2.49 2.49 0 00-.5164.0543c-.09-1.6383.665-3.5354 2.1754-5.447a2.5037 2.5037 0 001.344.3927c.437 0 .868-.116 1.248-.335 1.1628-.671 1.582-2.1416.9667-3.3208 2.0023-1.3138 3.8772-1.856 5.3897-1.5443-.182.6306-.1179 1.3314.2353 1.9434.446.771 1.276 1.25 2.167 1.25.2379 0 .474-.0344.701-.101zM16.506 2c.518 0 1.022.269 1.3.75.414.717.169 1.635-.549 2.049-.236.136-.494.201-.748.201-.519 0-1.023-.269-1.3-.75-.415-.717-.169-1.635.548-2.049.237-.136.494-.201.749-.201zM3.4993 14.0067c.518 0 1.022.269 1.3.75.414.717.169 1.635-.549 2.049-.236.136-.494.201-.748.201-.519 0-1.023-.269-1.3-.75-.415-.717-.169-1.635.549-2.049.236-.136.494-.201.748-.201zm4.3-9.25c-.278-.481-.782-.75-1.3-.75-.254 0-.512.065-.748.201-.718.414-.964 1.332-.549 2.049.277.481.781.75 1.3.75.254 0 .512-.065.748-.201.718-.414.963-1.332.549-2.049zm6.7 7.25c.518 0 1.022.269 1.3.75.414.717.169 1.635-.549 2.049-.236.136-.494.201-.748.201-.519 0-1.023-.269-1.3-.75-.415-.717-.169-1.635.549-2.049.236-.136.494-.201.748-.201z" fill="#333333" />
</svg>
