<svg xmlns="http://www.w3.org/2000/svg" viewBox="0 0 20 20">
  <path fill-rule="evenodd" clip-rule="evenodd" d="M2 3H1V1h2v1H2v1zm0 1H1v2h1V4zM1 7h1v2H1V7zm16 12v-1h1v-2h1v3h-2zM9 1H7v1h2V1zM4 1h2v1H4V1zm9 0h-2v1h2V1zm1 0h2v1h-2V1zM9 18H7v1h2v-1zm-5 0h2v1H4v-1zm9 0h-2v1h2v-1zm1 0h2v1h-2v-1zm4-15h1V1h-2v1h1v1zm0 4h1v2h-1V7zm1-3h-1v2h1V4zM1 13h1v2H1v-2zm1-3H1v2h1v-2zm16 3h1v2h-1v-2zm1-3h-1v2h1v-2z" fill="#999999" />
  <path fill-rule="evenodd" clip-rule="evenodd" d="M10 1.5c-.555 0-1.055.121-1.488.358-.494.27-.845.668-1.012 1.15L2.616 15.745c-.224.644-.117 1.269.289 1.791.358.463.902.777 1.572.904.225.041.436.06.641.06.411 0 .808-.076 1.181-.226.784-.314 1.132-.826 1.286-1.216.09-.199.176-.425.262-.687.082-.208.175-.455.277-.74.024-.068.049-.137.075-.207h3.5809l.021.0541c.0236.061.0469.1212.07.1799l.281.713c.084.255.172.485.264.687.154.39.502.903 1.289 1.217.368.149.765.225 1.177.225.206 0 .417-.019.628-.057.681-.13 1.224-.443 1.585-.907.406-.521.512-1.147.299-1.76l-4.904-12.798c-.156-.45-.506-.848-1.001-1.12-.436-.238-.936-.358-1.489-.358zm.9029 1.272c-.256-.14-.556-.21-.903-.21s-.647.07-.902.21c-.256.14-.423.327-.504.561L3.699 16.1c-.102.295-.056.566.138.815.193.249.484.411.872.485.14.025.276.037.409.037.254 0 .495-.045.723-.137.346-.139.57-.348.673-.627.081-.176.162-.389.244-.638.081-.206.173-.452.275-.738.102-.286.224-.597.367-.936h5.2c.122.339.24.65.351.936.0479.1212.0927.2352.1347.342l.0006.0014c.0569.1447.1086.2763.1557.3946.081.249.164.462.245.638.102.279.325.488.673.627.227.092.468.137.722.137.133 0 .269-.012.41-.037.386-.074.677-.236.871-.485.194-.249.239-.52.137-.815l-4.893-12.767c-.081-.234-.25-.421-.504-.561zm1.532 10.341h-4.869c.39-1.046.797-2.124 1.216-3.232.42-1.108.827-2.156 1.217-3.143.393.987.799 2.035 1.219 3.143.419 1.108.825 2.186 1.217 3.232zm-2.73-2.4529a505.36 505.36 0 00-.525 1.3909h1.64a608.7374 608.7374 0 00-.7373-1.9542c-.0275-.0724-.0549-.1446-.0827-.2168l-.0257.0677c-.0357.0941-.0718.1892-.1073.2843l-.162.4281z" fill="#333333" />
  <g fill="#1651B0">
    <path d="M17.0007.2688A1.9875 1.9875 0 0117.998 0c.6911 0 1.3635.3593 1.7337 1.0003.5523.9569.2245 2.1796-.7315 2.732A1.9868 1.9868 0 0118.002 4c-.6912 0-1.3626-.3584-1.7337-1.0002-.5523-.956-.2245-2.1787.7324-2.731zM1.0007 16.2688A1.9867 1.9867 0 011.998 16c.6911 0 1.3635.3593 1.7337 1.0002.5523.957.2245 2.1797-.7315 2.732A1.9874 1.9874 0 012.002 20c-.691 0-1.3625-.3584-1.7336-1.0002-.5523-.956-.2245-2.1787.7324-2.731z" />
  </g>
  <g fill="#FFFFFF">
    <path d="M19.2982 1.2502C19.0318.788 18.5332.5 17.9975.5c-.2606 0-.5202.0695-.7474.2018-.717.4133-.9628 1.332-.5495 2.048.2674.4632.766.7502 1.3008.7502.2615 0 .5201-.0695.7483-.2008a1.4926 1.4926 0 00.6984-.9109 1.4873 1.4873 0 00-.1499-1.138zM3.2982 17.2502c-.2664-.4622-.765-.7502-1.3007-.7502a1.49 1.49 0 00-.7474.2018c-.717.4133-.9628 1.332-.5495 2.048.2674.4632.766.7502 1.3008.7502.2615 0 .52-.0695.7483-.2008a1.4925 1.4925 0 00.6984-.9109 1.4873 1.4873 0 00-.1499-1.1381z" />
  </g>
</svg>
