<svg xmlns="http://www.w3.org/2000/svg" viewBox="0 0 20 20">
  <path d="M3.5974 17.3117L17.3117 3.5974l-.9091-.9092L2.6883 16.4025l.9091.9092z" fill="#CDCDCD" />
  <path fill-rule="evenodd" clip-rule="evenodd" d="M17 5c1.1046 0 2-.8954 2-2s-.8954-2-2-2-2 .8954-2 2 .8954 2 2 2zm-7 7c1.1046 0 2-.8954 2-2s-.8954-2-2-2-2 .8954-2 2 .8954 2 2 2z" fill="#1651B0" />
  <path fill-rule="evenodd" clip-rule="evenodd" d="M17 4.5c.8284 0 1.5-.6716 1.5-1.5s-.6716-1.5-1.5-1.5-1.5.6716-1.5 1.5.6716 1.5 1.5 1.5zm-7 7c.8284 0 1.5-.6716 1.5-1.5s-.6716-1.5-1.5-1.5-1.5.6716-1.5 1.5.6716 1.5 1.5 1.5z" fill="#FFFFFF" />
</svg>
