<svg xmlns="http://www.w3.org/2000/svg" viewBox="0 0 128 128">
  <path d="M115.2 31.9999C115.2 70.3999 96 112 64 121.6 32 112 12.8 70.3999 12.8 31.9999l51.2-25.6 51.2 25.6z" fill="#009400" />
  <path d="M82.2759 45.2256c-.5959-.5674-1.5597-.5674-2.1556 0L58.057 64.9852l-10.0876-9.6825c-.602-.5703-1.5809-.5703-2.186 0l-6.9319 6.4483c-.602.5702-.602 1.4976 0 2.0707l17.9863 17.4354c.3497.3312.8209.4464 1.277.3888.4682.0663.9576-.046 1.3194-.3888l29.7189-27.596c.5959-.5645.5959-1.4803 0-2.0448l-6.8772-6.3907z" fill="#FFFFFF" />
</svg>
