<svg xmlns="http://www.w3.org/2000/svg" viewBox="0 0 128 128">
  <path d="M115.2 31.9999C115.2 70.3999 96 112 64 121.6 32 112 12.8 70.3999 12.8 31.9999l51.2-25.6 51.2 25.6z" fill="#BD3039" />
  <path fill-rule="evenodd" clip-rule="evenodd" d="M71.7815 64.5398l13.7861 13.7248c.5765.5699.5765 1.4999 0 2.0737l-6.2619 6.2286c-.5727.5775-1.5071.5775-2.0836 0L63.4586 72.8684 49.7779 86.5669c-.5765.5775-1.5109.5775-2.0873 0l-6.2583-6.2286c-.5764-.5738-.5764-1.5038 0-2.0737L55.113 64.5661l-13.6807-13.616c-.5726-.5737-.5726-1.5037 0-2.0774l6.2583-6.2287c.5764-.5737 1.5108-.5737 2.0873 0l13.658 13.5898 13.7862-13.8035c.5802-.5737 1.5109-.5737 2.0873 0l6.2582 6.2286c.5765.5738.5765 1.5037 0 2.0775L71.7815 64.5398z" fill="#FFFFFF" />
</svg>
