<svg xmlns="http://www.w3.org/2000/svg" viewBox="0 0 20 20">
  <defs>
    <clippath id="clip0_20286_1138">
      <path fill="#fff" d="M0 0h20v20H0z" />
    </clippath>
  </defs>
  <g clip-path="url(#clip0_20286_1138)">
    <path d="M4.2835 12.5985c0 1.1496-.9292 2.0787-2.0788 2.0787-1.1496 0-2.0787-.9291-2.0787-2.0787 0-1.1497.9291-2.0788 2.0787-2.0788h2.0788v2.0788zm1.0393 0c0-1.1497.9292-2.0788 2.0788-2.0788 1.1496 0 2.0787.9291 2.0787 2.0788v5.1968c0 1.1496-.9291 2.0787-2.0787 2.0787s-2.0788-.9291-2.0788-2.0787v-5.1968z" fill="#E01E5A" />
    <path d="M7.4016 4.252c-1.1496 0-2.0788-.9292-2.0788-2.0788 0-1.1496.9292-2.0787 2.0788-2.0787 1.1496 0 2.0787.9291 2.0787 2.0787V4.252H7.4016zm0 1.055c1.1496 0 2.0787.9292 2.0787 2.0788 0 1.1496-.9291 2.0788-2.0787 2.0788H2.189c-1.1496 0-2.0788-.9292-2.0788-2.0788 0-1.1496.9292-2.0787 2.0788-2.0787h5.2126z" fill="#36C5F0" />
    <path d="M15.7323 7.3858c0-1.1496.9291-2.0787 2.0788-2.0787 1.1496 0 2.0787.9291 2.0787 2.0787s-.9291 2.0788-2.0787 2.0788h-2.0788V7.3858zm-1.0394 0c0 1.1496-.9291 2.0788-2.0787 2.0788s-2.0787-.9292-2.0787-2.0788V2.1732c0-1.1496.9291-2.0787 2.0787-2.0787s2.0787.9291 2.0787 2.0787v5.2126z" fill="#2EB67D" />
    <path d="M12.6142 15.7166c1.1496 0 2.0787.9291 2.0787 2.0787s-.9291 2.0787-2.0787 2.0787-2.0787-.9291-2.0787-2.0787v-2.0787h2.0787zm0-1.0394c-1.1496 0-2.0787-.9291-2.0787-2.0787 0-1.1497.9291-2.0788 2.0787-2.0788h5.2126c1.1496 0 2.0787.9291 2.0787 2.0788 0 1.1496-.9291 2.0787-2.0787 2.0787h-5.2126z" fill="#ECB22E" />
  </g>
</svg>
