<svg xmlns="http://www.w3.org/2000/svg" viewBox="0 0 20 20">
  <g fill="none" fill-rule="evenodd">
    <path d="M3 7c0-2.3976 3.2049-4 7-4s7 1.6024 7 4v9c0 2.3976-3.2049 4-7 4s-7-1.6024-7-4V7z" fill="#DD5228" fill-rule="nonzero" />
    <path d="M4 7v9c0 1.6569 2.6863 3 6 3s6-1.3431 6-3V7c0-1.6569-2.6863-3-6-3S4 5.3431 4 7z" fill="#FFF" />
    <path d="M10 11c-3.7951 0-7-1.6024-7-4 0-2.3976 3.2049-4 7-4s7 1.6024 7 4c0 2.3976-3.2049 4-7 4z" fill="#DD5228" fill-rule="nonzero" />
    <path d="M10 10c3.3137 0 6-1.3431 6-3s-2.6863-3-6-3-6 1.3431-6 3 2.6863 3 6 3z" fill="#FFF" />
    <path d="M7 6l3-5 3 5h-2v2H9V6H7zM2 17H0V7h2v10zm18 0h-2V7h2v10z" fill="#DD5228" fill-rule="nonzero" />
  </g>
</svg>
