<svg xmlns="http://www.w3.org/2000/svg" viewBox="0 0 20 20">
  <g fill-rule="evenodd" clip-rule="evenodd">
    <path d="M3 6c0-2.3976 3.2049-4 7-4s7 1.6024 7 4v9c0 2.3976-3.2049 4-7 4s-7-1.6024-7-4V6z" fill="#888888" />
    <path d="M16 6c0 1.6569-2.6863 3-6 3S4 7.6569 4 6s2.6863-3 6-3 6 1.3431 6 3zm-6 4c-2.5107 0-4.763-.7013-6-1.8701V15c0 1.6569 2.6863 3 6 3s6-1.3431 6-3V8.1299C14.763 9.2987 12.5107 10 10 10z" fill="#FFFFFF" />
    <path d="M10 0L7 5h2v2h2V5h2l-3-5zM2 16V6H0v10h2zm18 0V6h-2v10h2z" fill="#333333" />
  </g>
</svg>
