<svg xmlns="http://www.w3.org/2000/svg" viewBox="0 0 20 20">
  <g fill="none" fill-rule="evenodd" opacity=".6">
    <path d="M3.5 16c0 1.433 3.099 3.5 6.5 3.5s6.5-2.067 6.5-3.5V7.5C16.5 5.534 13.401 4 10 4S3.5 5.534 3.5 7.5V16z" fill="#FFF" />
    <path d="M3.5 16c0 1.433 3.099 3.5 6.5 3.5s6.5-2.067 6.5-3.5V7.5C16.5 5.534 13.401 4 10 4S3.5 5.534 3.5 7.5V16h0z" stroke="#999" />
    <path d="M3.5 7.25c0 1.433 3.099 3.5 6.5 3.5s6.5-2.067 6.5-3.5" stroke="#999" />
    <path d="M11 6v2.564H9V6H6l4-5 4 5h-3z" fill="#999" />
    <path fill="#999" fill-rule="nonzero" d="M2 17V7H0v10zM20 17V7h-2v10z" />
  </g>
</svg>
