<svg xmlns="http://www.w3.org/2000/svg" viewBox="0 0 20 20">
  <g fill-rule="evenodd" clip-rule="evenodd">
    <path d="M5 13.4249V16c0 2.2091 3.134 4 7 4s7-1.7909 7-4V6c0-2.2091-3.134-4-7-4-1.313 0-2.5415.2066-3.5915.566l.718 1.5295 4.9117.7504c.4023.0615.5666.5521.2824.8434L10.75 9.3497l.8372 5.134c.0672.412-.3701.72-.7354.5181L6.5 12.5955l-1.5.8294z" fill="#333333" />
    <path d="M6 12.8719V16c0 1.5068 2.613 3 6 3 3.3869 0 6-1.4932 6-3v-3.9385c-.7085.6718-1.7528 1.215-3.0001 1.5536L15 16c-.6667.6667-1.6667 1-3 1s-2.3333-.3333-3-1v-2.0222l-2.5-1.3823-.5.2764zm4 1.6589v1.0005c.4615.3056 1.1185.4687 2 .4687s1.5385-.1631 2-.4687l-.0001-2.6809.738-.2003C16.7752 12.0971 18 11.0119 18 10V8.0615C16.7751 9.2231 14.5463 10 12 10c-.3926 0-.7777-.0184-1.1528-.054l.74 4.5377c.0672.412-.3701.72-.7354.5181L10 14.5308zm1.1243-5.5648c.2865.0224.579.034.8757.034 3.3869 0 6-1.4932 6-3s-2.6131-3-6-3c-1.1731 0-2.2533.1791-3.1644.476l.2909.6195 4.9117.7504c.4023.0615.5666.5521.2824.8434L11.1243 8.966z" fill="#FFFFFF" />
    <path d="M8.448 5.0033L6.681 1.239c-.072-.1533-.29-.1533-.362 0L4.552 5.0033l-4.0927.6253c-.1609.0246-.2266.2208-.113.3374l2.9719 3.0465-.6864 4.2092c-.027.1648.148.288.2941.2072L6.5 11.4527l3.5741 1.9762c.1461.0808.321-.0424.2942-.2072l-.6865-4.2092 2.9719-3.0465c.1136-.1166.0479-.3128-.113-.3374L8.448 5.0033z" fill="#333333" />
  </g>
</svg>
