<svg xmlns="http://www.w3.org/2000/svg" viewBox="0 0 20 20">
  <path d="M10.0618 1l-.2086.0456L1 2.9651l.7263 11.2348.0366.5615L9.9877 19l.4506-.2291 7.3077-3.7258.503-.2559.0365-.5645L19 2.9551 10.0618 1z" fill="#333333" />
  <path fill-rule="evenodd" clip-rule="evenodd" d="M10.0618 2.023l7.993 1.742-.67 10.5029-7.395 3.755-7.365-3.781-.68-10.466 8.117-1.753z" fill="#FFFFFF" />
  <g fill="#333333">
    <path d="M4.8777 10.2185l.0853.0724.062.065c.233.179.473.349.714.518l.0515.0384c.1102.0821.2208.1646.3255.2546.162.14.318.286.421.478.1.185.159.378.135.594-.022.184-.182.379-.389.378l-.171-.013c-.282-.061-.524-.197-.727-.399-.219-.219-.372-.48-.455-.78-.051-.166-.081-.336-.101-.507l-.096-.114c-.0582-.0191-.1156-.0395-.173-.0598a7.2701 7.2701 0 00-.162-.0562c-.175-.059-.3492-.119-.5235-.179-.1742-.06-.3485-.12-.5235-.179a6.5899 6.5899 0 01-.0982-.0347c-.0614-.022-.1229-.0441-.1848-.0623l-.068.056.022.206c.024.175.051.35.094.522.05.204.111.405.188.601.0247.0688.0554.135.086.2011.0291.0626.0582.1252.082.1899.0677.1403.151.2714.2342.4024.02.0315.04.063.0598.0946.158.221.341.418.547.595l.068.062c.366.296.768.531 1.196.726.233.114.476.205.722.287.097.031.195.058.296.08.327.072.655.098.981-.008.18-.063.344-.154.478-.292l.116-.133c.0553-.0723.0986-.151.142-.2299.0155-.0281.031-.0563.047-.0841.084-.187.132-.384.161-.587l.017-.25c.006-.234-.012-.467-.061-.697l-.013-.048c-.066-.295-.17-.575-.315-.841l-.076-.109c-.296-.473-.679-.866-1.108-1.218-.3976-.3257-.8183-.6205-1.2384-.9149L5.55 8.721c-.136-.096-.268-.198-.377-.325-.096-.111-.169-.237-.189-.385-.038-.29.143-.501.433-.433.285.067.53.206.73.42.242.259.344.58.396.921l.075.087c.2249.0775.4493.1558.6739.2341l.3871.1349c.21.074.421.147.639.222-.014-.176-.041-.342-.074-.507-.141-.692-.428-1.31-.948-1.798-.747-.701-1.64-1.113-2.647-1.277-.242-.039-.484 0-.711.102-.351.159-.536.453-.63.809-.108.41-.075.821.036 1.226.164.606.512 1.101.949 1.541.1847.1864.3847.356.5847.5256zM13.2719 8.7289a513.207 513.207 0 00-.0879.5061c-.0214.1234-.0438.2464-.0662.3695a67.2338 67.2338 0 00-.0458.2535l-.035.113c-.0293.1775-.0604.3547-.0915.5321-.0518.2954-.1038.5913-.1475.8899l.008-.074c-.0383-.3212-.0843-.6419-.1303-.9624-.014-.0975-.0279-.1951-.0417-.2926l-.022-.051-.009-.026c-.093-.671-.185-1.341-.276-2.012l-.067-.045c-.402.157-.805.311-1.209.463L11 8.481c.0516.3094.1013.6188.1511.9287l.0419.2603c.0198.1231.0385.2463.0571.3696.0116.076.0231.1521.0349.2284l-.011.074c.0282.1217.0466.2448.0651.3678a7.009 7.009 0 00.0399.2462c.042.267.084.533.13.8.0176.1289.0395.2571.0614.3853.0241.1413.0482.2826.0666.4247l.114.674a9.289 9.289 0 00.0577.3629c.0165.0962.0331.1924.0473.2891.0281.1745.0571.3486.086.5225l.04.2405.007.035c.021.115.024.116.129.063l.0403-.0199c.1405-.0692.2807-.1383.4167-.2141l.1427-.0718c.2024-.1017.4043-.2031.6043-.3092l.096-.129c.016-.112.034-.225.057-.336.0209-.112.0397-.2244.0586-.3369.0209-.1245.0418-.2491.0654-.3731.0231-.1403.0473-.2809.0714-.4215.0157-.0909.0313-.1818.0466-.2725.0182-.1018.0353-.2036.0525-.3054.0206-.1222.0411-.2444.0635-.3666a55.376 55.376 0 00.0715-.4088 44.201 44.201 0 01.0835-.4752c.0195-.1411.0459-.2811.0722-.421.0398-.2112.0796-.4223.0958-.637.0386.2192.0862.4372.1338.6552.0252.1152.0504.2304.0742.3458l.012.055c.0177.0878.0374.1753.0571.2628.0326.1448.0652.2897.0889.4362l.0334.1422c.0373.1584.0745.3165.1076.4758.0249.1159.0503.2317.0757.3474.0226.103.0452.2059.0673.3086l.058.264c.008.0336.0147.0677.0214.1019.0151.0767.0302.1538.0606.2271l.078-.005.154-.081.069-.037c.1738-.0839.3453-.1724.5169-.261a21.763 21.763 0 01.4941-.25l.091-.123c.024-.174.05-.348.079-.521l.132-.888c.0157-.1054.0312-.2109.0466-.3165.0299-.2039.0598-.4079.0914-.6115.0122-.081.0239-.1621.0356-.243.0202-.139.0403-.2777.0624-.416.0158-.1176.0337-.2348.0517-.3518.0116-.0761.0233-.1522.0343-.2282l-.001-.104.006-.063c.036-.232.072-.465.107-.697l.252-1.654L17.31 6l-.3391.1303c-.3083.1185-.6131.2357-.9179.3507l-.072.097a16.724 16.724 0 01-.0393.316 30.1502 30.1502 0 00-.0247.193c-.03.232-.0595.4641-.089.6962-.0295.232-.059.4639-.089.6958a28.8362 28.8362 0 01-.0418.3042c-.0095.0676-.019.1352-.0282.2028l-.034.09c-.0165.1908-.0413.381-.066.571-.0157.1206-.0314.2412-.045.362l-.006.146-.013-.101-.192-.876-.033-.077-.011-.033c-.107-.4927-.213-.9855-.3191-1.4786l-.1249-.5804-.055-.038c-.4129.16-.8269.318-1.2408.476l-.0452.055c-.0701.409-.1411.8182-.2121 1.2269z" />
  </g>
</svg>
