<svg xmlns="http://www.w3.org/2000/svg" viewBox="0 0 20 20">
  <path d="M1 3.5C1 2.1193 2.1193 1 3.5 1h13C17.8807 1 19 2.1193 19 3.5v13c0 1.3807-1.1193 2.5-2.5 2.5h-13C2.1193 19 1 17.8807 1 16.5v-13z" fill="#333333" />
  <path d="M2 3.5C2 2.6716 2.6716 2 3.5 2h13c.8284 0 1.5.6716 1.5 1.5v13c0 .8284-.6716 1.5-1.5 1.5h-13c-.8284 0-1.5-.6716-1.5-1.5v-13z" fill="#FFFFFF" />
  <path d="M4 2.9023l13.5 10.2201-8 3.8775L4 2.9023z" fill="#999999" />
  <path d="M2.519 8.984L16.5 7.5l-2.5 3-3.1376-2.3982L9.4999 17 2.519 8.984z" fill="#333333" />
</svg>
