<svg xmlns="http://www.w3.org/2000/svg" viewBox="0 0 20 20">
  <path fill-rule="evenodd" clip-rule="evenodd" d="M9.3343 11.2503c0-1.2717-.7798-1.8835-1.6916-2.1954-.2162-.0778-.906-.2803-1.3778-.4188a58.7323 58.7323 0 01-.4097-.121c-.6838-.192-1.2116-.528-1.2116-1.1997 0-.8518.7917-1.3077 1.6075-1.3077.9117 0 1.5356.336 1.9195 1.1397l1.0197-.4319C8.7344 5.48 7.6307 5 6.263 5c-1.5716 0-2.8072.8758-2.8072 2.4353 0 1.0917.6838 1.7156 1.5116 2.0275.2639.096 1.4396.4438 1.7155.5158.8158.216 1.4516.5639 1.4516 1.3916 0 .9958-.9598 1.4396-1.8715 1.4396-1.1397 0-1.8595-.6238-2.1354-1.5235L3 11.6342c.3599 1.4156 1.5956 2.2074 3.2391 2.2074 1.7155 0 3.0952-.9478 3.0952-2.5913zm7.7378 2.4473l-2.3153-3.4431c1.2836-.3119 1.9794-1.2956 1.9794-2.5313 0-.8517-.3359-1.5715-.9237-2.0154-.5039-.3959-1.1517-.5638-1.9195-.5638h-3.0832v8.5536h1.1877v-3.3351h1.5236l2.2074 3.3351h1.3436zm-3.407-4.3428c1.1996 0 1.8834-.5398 1.8834-1.6315 0-1.1517-.8997-1.5716-1.9074-1.5716h-1.6436v3.2031h1.6676z" fill="#333333" />
</svg>
