<svg xmlns="http://www.w3.org/2000/svg" viewBox="0 0 20 20">
  <path fill-rule="evenodd" clip-rule="evenodd" d="M9.5 14.7071l1.4501-1.4501a4.711 4.711 0 002.973 1.0507c2.6127 0 4.7307-2.1181 4.7307-4.7308a4.711 4.711 0 00-1.0506-2.973l1.5162-1.5162-.7071-.707-1.5162 1.5161a4.7112 4.7112 0 00-2.973-1.0507c-2.6128 0-4.7308 2.118-4.7308 4.7308a4.711 4.711 0 001.0507 2.973L8.7929 14l.7071.7071zm4.4231-1.3994c-.85 0-1.6335-.2843-2.2609-.7629l5.2288-5.2287a3.7143 3.7143 0 01.7628 2.2608c0 2.0604-1.6703 3.7308-3.7307 3.7308zm0-7.4616c.8499 0 1.6335.2843 2.2608.7629l-5.2288 5.2287a3.7143 3.7143 0 01-.7628-2.2608c0-2.0605 1.6703-3.7308 3.7308-3.7308zM5.6427 9.055c.9118.3119 1.6916.9237 1.6916 2.1953 0 1.6436-1.3797 2.5913-3.0952 2.5913-1.6435 0-2.8792-.7918-3.2391-2.2074l1.1277-.3479c.276.8998.9957 1.5236 2.1354 1.5236.9118 0 1.8715-.4439 1.8715-1.4396 0-.8278-.6358-1.1757-1.4516-1.3916-.276-.072-1.4516-.4199-1.7155-.5159-.8278-.3119-1.5116-.9357-1.5116-2.0274C1.4559 5.8757 2.6915 5 4.263 5c1.3676 0 2.4713.4798 2.9272 1.7155l-1.0197.4319c-.384-.8038-1.0078-1.1397-1.9195-1.1397-.8158 0-1.6076.4559-1.6076 1.3076 0 .6719.5279 1.0078 1.2117 1.1997.077.0234.227.0675.4097.121.4717.1385 1.1616.341 1.3778.4189z" fill="#333333" />
</svg>
