<svg xmlns="http://www.w3.org/2000/svg" viewBox="0 0 20 20">
  <path fill-rule="evenodd" clip-rule="evenodd" d="M3 5H2v9h15V5h-1v8H3V5zm6.25 5.4484c0-1.0067-.6155-1.4911-1.3352-1.738-.1707-.0617-.7152-.222-1.0876-.3316a45.084 45.084 0 01-.3234-.0959c-.5398-.152-.9565-.418-.9565-.9498 0-.6743.625-1.0353 1.269-1.0353.7197 0 1.2121.266 1.5151.9023l.805-.3419C8.7765 5.88 7.9053 5.5 6.8258 5.5c-1.2406 0-2.216.6933-2.216 1.928 0 .8644.5398 1.3583 1.1932 1.6052.2084.076 1.1364.3515 1.3542.4085.644.171 1.1458.4464 1.1458 1.1017 0 .7884-.7576 1.1398-1.4772 1.1398-.8997 0-1.4679-.4939-1.6856-1.2063l-.8902.2755C4.534 11.8731 5.5095 12.5 6.8068 12.5c1.3542 0 2.4432-.7503 2.4432-2.0516zm5.71-4.0943V5.5H10.5v7h.99V9.3387h2.84v-.8443h-2.84V6.354h3.47z" fill="#333333" />
</svg>
