<svg xmlns="http://www.w3.org/2000/svg" viewBox="0 0 20 20">
  <g fill="none" fill-rule="evenodd">
    <path d="M6 10L3 8.5v-6L6 1h7l3 1.5v6L13 10v8c-.6667.6667-1.8333 1-3.5 1s-2.8333-.3333-3.5-1v-8z" fill="#DD5228" fill-rule="nonzero" />
    <path d="M7 10h5v7.5c-.3333.3333-1.1667.5-2.5.5s-2.1667-.1667-2.5-.5V10zm1-4h3c.5523 0 1 .4477 1 1v2H7V7c0-.5523.4477-1 1-1zm-3.2764-.6382l.7236.3618A1 1 0 016 6.618V9L4 8V5.809a.5.5 0 01.7236-.4472zm8.8292.3618l.7236-.3618A.5.5 0 0115 5.809V8l-2 1V6.618a1 1 0 01.5528-.8944zM6.236 2h6.5278a1 1 0 01.4472.1056L15 3v1l-1.7889.8944A1 1 0 0112.764 5H6.2361a1 1 0 01-.4472-.1056L4 4V3l1.7889-.8944A1 1 0 016.236 2z" fill="#FFF" />
    <path d="M12 10.8901l.598.1196C15.1337 11.5168 16.5 12.5684 16.5 14c0 1.7767-3.2109 3-7 3s-7-1.2233-7-3c0-1.4356 1.3627-2.4824 3.902-2.9903L7 10.8901v2.4732c.2843.3942 1.105.6367 2.5.6367s2.2157-.2425 2.5-.6367V10.89z" fill="#DD5228" fill-rule="nonzero" />
    <path d="M3.5 14c0 .961 2.727 2 6 2s6-1.039 6-2c0-.7527-.79-1.4354-2.5-1.874v1.492l-.0528.1056C12.5032 14.6118 11.3385 15 9.5 15s-3.0031-.3882-3.4472-1.2764L6 13.618v-1.4922C4.2873 12.5643 3.5 13.244 3.5 14z" fill="#FFF" />
  </g>
</svg>
