<svg xmlns="http://www.w3.org/2000/svg" viewBox="0 0 20 20">
  <path d="M3 8.5L6 10v1.0969C3.7191 11.6321 2.5 12.6422 2.5 14c0 1.1843 1.4265 2.1227 3.5 2.6168V18s1 1 3.5 1 3.5-1 3.5-1v-1.3832c2.0735-.4941 3.5-1.4325 3.5-2.6168 0-1.354-1.2223-2.368-3.5-2.903V10l3-1.5v-6L13 1H6L3 2.5v6z" fill="#333333" />
  <g fill="#FFFFFF">
    <path d="M6.236 2c-.1552 0-.3083.0362-.4471.1056L4 3v1l1.7889.8944c.1388.0694.292.1056.4472.1056h6.5278a.9996.9996 0 00.4472-.1056L15 4V3l-1.7889-.8944A.9997.9997 0 0012.7639 2H6.2361zM4.7236 5.3618C4.3912 5.1956 4 5.4373 4 5.809V8l2 1V6.618a1 1 0 00-.5528-.8944l-.7236-.3618zM8 6c-.5523 0-1 .4477-1 1v2h5V7c0-.5523-.4477-1-1-1H8zM7 10h5v3.3633c-.2843.3942-1.105.6367-2.5.6367s-2.2157-.2425-2.5-.6367V10zM12 16.8126c-.7809.1222-1.625.1874-2.5.1874s-1.7191-.0652-2.5-.1874V17.5s.5.5 2.5.5 2.5-.5 2.5-.5v-.6874zM13 6.618a1 1 0 01.5528-.8944l.7236-.3618c.3324-.1662.7236.0755.7236.4472V8l-2 1V6.618z" />
    <path d="M9.5 15.9999c-3.273 0-6-1.039-6-2 0-.756.7873-1.4357 2.5-1.8742v1.4922l.0528.1056c.444.8882 1.6087 1.2764 3.4472 1.2764s3.0031-.3882 3.4472-1.2764L13 13.6179v-1.492c1.7099.4386 2.5 1.1213 2.5 1.874 0 .961-2.7271 2-6 2z" />
  </g>
</svg>
