<svg xmlns="http://www.w3.org/2000/svg" viewBox="0 0 20 20">
  <g fill-rule="evenodd" clip-rule="evenodd">
    <path d="M12 .9884H1v4h11v-4zm-4 9H1v9h11v-5H8v-4zm11 0v9h-4v-9h4z" fill="#333333" />
    <path d="M7 3.9884H2v-2h5v2zm0 7v4h4v3H2v-7h5zm1-7h3v-2H8v2zm10 14h-2v-3h2v3zm-2-4h2v-3h-2v3z" fill="#FFFFFF" />
    <path d="M2 6.988H1v-1h1v1zm10 0h-1v-1h1v1zm0 2h-1v-1h1v1zm-1 2h1v-1h-1v1zm-1 0H9v-1h1v1zm3 0h1v-1h-1v1zm-12-2h1v-1H1v1zm11 4h-1v-1h1v1zm1 6h1v-1h-1v1z" fill="#1651B0" />
  </g>
</svg>
