<svg xmlns="http://www.w3.org/2000/svg" viewBox="0 0 20 20">
  <path fill-rule="evenodd" clip-rule="evenodd" d="M19.5624 10l-3.7576-7.2942H4.1951L.4375 10l3.7576 7.2943h11.6097L19.5624 10zm-1.1125.0001l-3.2485 6.2942H4.7954l-3.1455-6.2942 3.147-6.3h10.403l3.25 6.3zM8.37 9.88c.76.26 1.41.77 1.41 1.83 0 1.37-1.15 2.16-2.58 2.16-1.37 0-2.4-.66-2.7-1.84l.94-.29c.23.75.83 1.27 1.78 1.27.76 0 1.56-.37 1.56-1.2 0-.69-.53-.98-1.21-1.16-.23-.06-1.21-.35-1.43-.43-.69-.26-1.26-.78-1.26-1.69 0-1.3 1.03-2.03 2.34-2.03 1.14 0 2.06.4 2.44 1.43l-.85.36c-.32-.67-.84-.95-1.6-.95-.68 0-1.34.38-1.34 1.09 0 .56.44.84 1.01 1 .0642.0195.1892.0562.3415.101.3932.1153.9683.2841 1.1485.349zm7.28-3.26v.86H13.6v6.27h-1V7.48h-2.06v-.86h5.11z" fill="#333333" />
</svg>
