<svg xmlns="http://www.w3.org/2000/svg" viewBox="0 0 20 20">
  <path d="M18 10v1h-3.664c.43.601.664 1.292.664 2 0 1.108-.573 2.172-1.571 2.922C12.501 16.617 11.284 17 10 17c-1.284 0-2.501-.383-3.429-1.078C5.573 15.173 5 14.108 5 13h2c0 1.084 1.374 2 3 2s3-.916 3-2-1.374-2-3-2H2v-1h4.68l-.108-.078C5.573 9.173 5 8.108 5 7s.573-2.172 1.571-2.922C7.499 3.383 8.717 3 10 3s2.501.383 3.429 1.078C14.427 4.828 15 5.892 15 7h-2c0-1.084-1.374-2-3-2s-3 .916-3 2 1.374 2 3 2c1.234 0 2.407.354 3.32 1H18z" fill="#333333" />
</svg>
