<svg xmlns="http://www.w3.org/2000/svg" viewBox="0 0 190 190">
  <path fill-rule="evenodd" clip-rule="evenodd" d="M68.4 7.6H50.6667v43.0667H7.6V68.4h60.8V7.6zm-60.8 0h35.4667v35.4667H7.6V7.6zM76 0H0v76h28.5v10.0938H38V76h38V0zm66.5 180.5h-13.656V171H142.5v-19h38v38h-38v-9.5zM120.531 114h2.969v-9.5H152V76h28.5v57h-57v-9.5h-2.969V114zm-.791 66.5H92.4271V171H119.74v9.5zM87.2812 114h24.9378v9.5H87.2812V114zm-3.9583 66.5H56.0104V171h27.3125v9.5zM54.0312 114h24.9376v9.5H54.0312V114zm-7.125 66.5H33.25c-2.6234 0-4.75-2.127-4.75-4.75v-10.688H38V171h8.9062v9.5zM38 114h7.7188v9.5H38v5.938h-9.5V99.1562H38V114zm-9.5 43.938v-21.376H38v21.376h-9.5zM159.6 112.1V83.6h13.3v41.8h-41.8v-13.3h28.5zm-9.5 47.5h22.8v22.8h-22.8v-22.8z" fill="#EEEEEE" />
</svg>
