<svg xmlns="http://www.w3.org/2000/svg" viewBox="0 0 20 20">
  <g fill-rule="evenodd" clip-rule="evenodd">
    <path d="M3.4713 10.149c.1802-.792.5064-1.1946.875-1.4168.913-.5504 2.2264-.2394 3.286-.319 1.4864-.1115 2.1694-.7945 2.281-2.281.0795-1.0595-.2314-2.373.3189-3.2859.2223-.3687.6248-.6948 1.4169-.875.7203-.164 1.734.0732 2.7912.702 1.0454.622 2.0703 1.5918 2.7912 2.783.7183 1.1868 1.131 2.5858.9735 4.0827-.1553 1.4759-.8692 3.0856-2.4623 4.7037-1.6181 1.5931-3.2278 2.307-4.7037 2.4623-1.4969.1575-2.8959-.2553-4.0827-.9736-1.1911-.7209-2.161-1.7458-2.7829-2.7911-.6289-1.0572-.866-2.0709-.7021-2.7913z" fill="#FFFFFF" />
    <path d="M16.4497 14.9497l-.0056.0055c-1.7534 1.7264-3.5658 2.5617-5.3006 2.7442-1.7515.1843-3.3667-.3024-4.7051-1.1125-1.3369-.8091-2.422-1.9545-3.1246-3.1354-.6906-1.161-1.0629-2.4471-.8178-3.5244.2262-.9942.6824-1.6586 1.334-2.0514.7006-.4224 1.49-.4786 2.1024-.4796.2392-.0004.487.0087.7094.0168.0662.0025.1302.0048.191.0068.2817.0092.5168.0119.7245-.0037.616-.0463.8876-.1987 1.0238-.3349.1361-.1361.2886-.4078.3348-1.0238.0156-.2076.013-.4427.0037-.7245-.002-.0608-.0043-.1247-.0067-.191-.0082-.2223-.0173-.4702-.0169-.7093.001-.6125.0573-1.4019.4796-2.1025.3928-.6516 1.0573-1.1077 2.0515-1.3339 1.0773-.2451 2.3634.1272 3.5243.8178 1.181.7025 2.3263 1.7877 3.1354 3.1245.8101 1.3385 1.2969 2.9537 1.1126 4.7052-.1826 1.7347-1.0178 3.5471-2.7443 5.3006l-.0054.0055zM4.3462 8.7321c-.3687.2223-.6949.6248-.875 1.4169-.164.7203.0732 1.734.702 2.7912.6219 1.0454 1.5918 2.0703 2.783 2.7912 1.1868.7183 2.5858 1.131 4.0827.9735 1.4759-.1553 3.0856-.8692 4.7036-2.4623 1.5932-1.6181 2.3071-3.2278 2.4624-4.7037.1575-1.4969-.2553-2.8959-.9736-4.0827-.7209-1.1911-1.7458-2.161-2.7911-2.7829-1.0573-.6289-2.0709-.866-2.7913-.7021-.792.1802-1.1946.5064-1.4168.875-.3795.6296-.3495 1.4495-.3204 2.2453.0132.3583.0261.7117.0014 1.0407-.1115 1.4864-.7946 2.1694-2.281 2.281-.329.0247-.6824.0117-1.0406-.0014-.7958-.0291-1.6158-.0592-2.2453.3203zm9.2043-3.187a.9.9 0 10-1.2728-1.2728.9.9 0 001.2728 1.2729zm.7071.7072c.742-.742.742-1.945 0-2.687-.742-.742-1.945-.742-2.687 0-.742.742-.742 1.945 0 2.687.742.742 1.945.742 2.687 0zm1.6263 2.0506a.9.9 0 010 1.2728.8999.8999 0 01-1.2727 0 .9.9 0 010-1.2728.8999.8999 0 011.2727 0zm.7072-.7071c.742.742.742 1.945 0 2.687-.742.742-1.9451.742-2.6871 0-.7419-.742-.7419-1.945 0-2.687.742-.742 1.9451-.742 2.6871 0zm-9.617 4.3837a.9.9 0 000-1.2728.9.9 0 100 1.2728zm.707.7071c.742-.742.742-1.945 0-2.687-.742-.742-1.945-.742-2.687 0-.742.742-.742 1.945 0 2.687.742.742 1.945.742 2.687 0zm5.8694-.3532a.9.9 0 010 1.2728.9.9 0 01-1.2728 0 .9.9 0 010-1.2728.9.9 0 011.2728 0zm.7071-.7071c.742.742.742 1.945 0 2.687-.742.742-1.945.742-2.687 0-.742-.742-.742-1.945 0-2.687.742-.742 1.945-.742 2.687 0z" fill="#333333" />
    <path d="M13.846 18.9882a1.1246 1.1246 0 001.5479.2395l.0758-.0535c.4974-.3514.6325-1.0349.3063-1.5495L7.1792 4.3279c.0598-.353.0233-.7388-.131-1.1532C6.5829 1.925 4.9053.9277 2.1427 1.5162c-.4938.1052-1.0221.261-1.5844.475 0 0 .6876.1356 1.2745.7729.2217.2409.4292.5534.5796.9575.4542 1.2198 1.06 2.5813 2.0859 2.6968l9.3477 12.5698zM7.475 6.7392l-.928.6556-.6477-.9334.9279-.6556.6477.9334zm-1.4865-3.161c-.1642-.4411-.9834-1.2883-2.9199-1.0678a4.146 4.146 0 01.4034.8077c.278.7466.5513 1.3613.8566 1.7288.1414.1703.2352.2187.2704.2313l.0015.0005c.0127.0048.0606.023.1958-.0286.5936-.226.9609-.5221 1.1358-.7885.142-.216.2076-.4775.0564-.8835z" fill="#333333" />
  </g>
</svg>
