<svg xmlns="http://www.w3.org/2000/svg" viewBox="0 0 18 18">
  <g fill-rule="evenodd" clip-rule="evenodd">
    <path d="M17.858 9c0 1.633-.399 3.139-1.197 4.518s-1.881 2.471-3.249 3.275C12.043 17.598 10.549 18 8.929 18c-1.62 0-3.114-.402-4.482-1.207-1.368-.805-2.451-1.896-3.249-3.275S0 10.633 0 9s.399-3.139 1.197-4.518 1.881-2.471 3.249-3.275C5.814.403 7.309 0 8.929 0c1.62 0 3.114.402 4.482 1.207 1.368.805 2.451 1.896 3.249 3.275.799 1.379 1.198 2.885 1.198 4.518z" fill="#1651B0" />
    <path d="M13.2344 9.5707s-2.6428 3.105-2.9134 3.4002c-.2695.2958-.7562.3156-1.045 0-.2888-.315-.3113-.7554 0-1.1418L10.9288 9.9H4.6499c-.4556 0-.825-.403-.825-.9s.3694-.9.825-.9h6.2789L9.2754 6.1699c-.3112-.3859-.2887-.825 0-1.1413.2894-.315.775-.2946 1.0456 0 .2706.2958 2.9134 3.4008 2.9134 3.4008.1441.1573.2156.3636.2156.5707 0 .2064-.0715.4128-.2156.5706z" fill="#FFFFFF" />
  </g>
</svg>
