<svg xmlns="http://www.w3.org/2000/svg" viewBox="0 0 20 20">
  <path d="M18.5529 11.5814c-.9037-1.7983-1.3514-2.992-2.006-5.123l-.0383-.1248c-.5595-1.8236-.8344-2.6325-1.3642-3.8856l-.0718-.17-.1649-.0825c-3.5486-1.7758-5.413-.7882-8.1102 2.8518l-.294.3977C4.4673 8.1967 3.281 9.1528 1.2487 9.0814l-.8-.0281.3257.7312c.3888.873.7678 1.8563 1.1934 3.0689.2533.7218 1.054 3.1042 1.1256 3.3127.4245 1.2359.7434 2.0745 1.059 2.7464l.1351.2874h.3175c3.8138 0 5.2764-.9524 7.1451-3.6561l.0046-.0066c1.6995-2.459 2.8882-3.2313 6.3514-3.2313h.8109l-.3641-.7245z" fill="#333333" />
  <path fill-rule="evenodd" clip-rule="evenodd" d="M10.9322 14.9684l-.0046.0066c-1.6438 2.3782-2.8024 3.1742-6.0013 3.2223-.2576-.5873-.534-1.3288-.887-2.3563-.0696-.2027-.8718-2.5896-1.1278-3.319-.327-.9314-.6278-1.7326-.9281-2.4568 2.0183-.164 3.344-1.3496 5.324-4.0256.1474-.1994.2328-.315.2937-.3971 2.398-3.2363 3.8128-4.0221 6.6945-2.6338.467 1.119.7334 1.9109 1.2571 3.618l.0384.1251c.5809 1.891 1.0084 3.0762 1.7206 4.5691-3.252.132-4.6439 1.1363-6.3795 3.6475z" fill="#FFFFFF" />
</svg>
