<svg xmlns="http://www.w3.org/2000/svg" viewBox="0 0 20 20">
  <path d="M19.1042 11.2454c-.9037-1.7983-1.3514-2.992-2.006-5.123l-.0383-.1247c-.5595-1.8237-.8345-2.6326-1.3642-3.8857l-.0718-.1698-.165-.0826c-3.5485-1.7758-5.413-.7883-8.1101 2.8518-.0614.0828-.1473.199-.294.3976C5.0185 7.8608 3.8322 8.817 1.8 8.7454l-.8-.028.3257.7312c.3888.873.7677 1.8563 1.1933 3.0688.2534.7219 1.054 3.1043 1.1257 3.3128.4245 1.2358.7434 2.0745 1.059 2.7464l.135.2873h.3176c3.8138 0 5.2763-.9523 7.145-3.656l.0046-.0067c1.6996-2.459 2.8883-3.2313 6.3515-3.2313h.8109l-.3641-.7245z" fill="#333333" />
  <g fill="#FFFFFF">
    <path d="M11.4787 14.6393l.0045-.0066c.8664-1.2535 1.6472-2.1316 2.6164-2.7131L8.7304 6.5504l2.077 9.0002c.2188-.2741.4402-.577.6713-.9113zM9.35 16.9477c-.9503.6301-2.0972.8872-3.8726.9139-.2577-.5873-.534-1.3288-.887-2.3563a215.9973 215.9973 0 01-.1805-.5337c-.2694-.7983-.758-2.2456-.9474-2.7853a62.1017 62.1017 0 00-.4195-1.1611l6.307 5.9225zM3.0522 9.6622l6.8556 6.4376L7.5912 6.0612c-1.666 2.2012-2.887 3.3-4.539 3.601zM8.474 4.8798l6.2992 6.2992-.202-8.634c-2.5719-1.15-3.9641-.444-6.0972 2.3348zM15.6234 4.7652l.1517 6.4835c.6059-.1464 1.2909-.2311 2.0877-.2635-.7122-1.493-1.1397-2.6781-1.7206-4.569l-.0384-.1251c-.1857-.6052-.339-1.0954-.4804-1.5259z" />
  </g>
  <g>
    <path fill="#1651B0" d="M0 0h10v8H0z" />
    <path fill-rule="evenodd" clip-rule="evenodd" d="M9 4H7v1h2V4zM6 4H4v1h2V4zM3.0005 4H1v1h2.0007l-.0002-1zM4 6h2v1H4V6zm5 1H7V6h2v1zM3.0008 6H1v1h2.001l-.0002-1z" fill="#FFFFFF" />
    <path fill-rule="evenodd" clip-rule="evenodd" d="M4 1h2v2H4V1zm3 0v2h2V1H7zM3.0001 1H1v2h2.0004l-.0003-2z" fill="#90CEF1" />
  </g>
</svg>
