<svg xmlns="http://www.w3.org/2000/svg" viewBox="0 0 20 20">
  <path fill-rule="evenodd" clip-rule="evenodd" d="M8.012 17.001l-2.0604-3.6629A3.4838 3.4838 0 008.0002 14a3.4866 3.4866 0 002.3108-.8712L8.012 17.001zM3.936 9.7549l.575 1.0223a3.552 3.552 0 01-.0108-.2772c0-1.933 1.567-3.5 3.5-3.5s3.5 1.567 3.5 3.5c0 .264-.0292.5212-.0846.7684l5.6547-9.5236.8599.5105L7.9885 18.999l-4.924-8.7539.8715-.4903zm6.5642.7451c0 1.3807-1.1192 2.5-2.5 2.5-1.3807 0-2.5-1.1193-2.5-2.5S6.6195 8 8.0002 8c1.3808 0 2.5 1.1193 2.5 2.5z" fill="#333333" />
</svg>
