<svg xmlns="http://www.w3.org/2000/svg" viewBox="0 0 20 20">
  <path d="M8 17.5v-2.0019c0-.827.6693-1.498 1.4963-1.5.3374-.0008.6142-.0019.8307-.0033l.4125-.0022c2.1701-.011 2.8957-.072 3.8733-.4214.3951-.1411.7838-.3275 1.1879-.57C18.3612 11.4649 20 8.6079 20 5.5v-2C20 2.0625 18.5833 1 16.5 1S13 2.0625 13 3.5v2.0019c0 .827-.6693 1.498-1.4963 1.5-.3374.0008-.6142.002-.8307.0033l-.4125.0022c-2.17.011-2.8957.072-3.8733.4214-.3951.1411-.7838.3275-1.188.57C2.6367 9.5364 1 12.3894 1 15.5v2C1 18.9375 2.4167 20 4.5 20S8 18.9375 8 17.5z" fill="#333333" />
  <path fill-rule="evenodd" clip-rule="evenodd" d="M14 5.3113c.6128.4318 1.4759.6886 2.5.6886s1.8872-.2568 2.5-.6886v.1886c0 2.7545-1.4527 5.2871-3.7138 6.6437-.3491.2095-.6785.3674-1.0099.4858-.8325.2975-1.4885.3527-3.5418.3631l-.4138.0022c-.215.0014-.4907.0025-.8268.0033C8.1156 13.0013 7 14.1196 7 15.498v2.0019c0 .8125-.9167 1.5-2.5 1.5s-2.5-.6875-2.5-1.5v-2c0-2.7572 1.4505-5.2858 3.7138-6.6438.349-.2094.6785-.3674 1.0099-.4858.8325-.2974 1.4885-.3526 3.5418-.363l.4138-.0023c.215-.0013.4907-.0024.8268-.0032C12.8844 7.9984 14 6.88 14 5.5018v-.1905z" fill="#999999" />
  <path fill-rule="evenodd" clip-rule="evenodd" d="M19 3.5c0 .8125-.9167 1.5-2.5 1.5S14 4.3125 14 3.5 14.9167 2 16.5 2s2.5.6875 2.5 1.5z" fill="#FFFFFF" />
</svg>
