<svg xmlns="http://www.w3.org/2000/svg" viewBox="0 0 20 20">
  <g fill="#333333">
    <path d="M12 0v2h1c1.6569 0 3 1.3432 3 3v2l4 8h-4v3h-2v-3h-4l4-8V5c0-.5523-.4477-1-1-1h-1v2L8 3l4-3z" />
    <path fill-rule="evenodd" clip-rule="evenodd" d="M7 5.5c0 1.5855-1.0543 2.9248-2.5 3.355v6.087c0 .5523.4477 1 1 1h1v-2.029l4 3.0435L6.5 20v-2.029h-1c-1.6568 0-3-1.3431-3-3V8.855C1.0543 8.4249 0 7.0856 0 5.5 0 3.567 1.567 2 3.5 2S7 3.567 7 5.5zm-1 0C6 6.8807 4.8807 8 3.5 8S1 6.8807 1 5.5 2.1193 3 3.5 3 6 4.1193 6 5.5z" />
  </g>
</svg>
