<svg xmlns="http://www.w3.org/2000/svg" viewBox="0 0 20 20">
  <path fill-rule="evenodd" clip-rule="evenodd" d="M9.981 16.502c-1.063 0-2.033-.213-2.821-.639L6.483 17l-1.007-.498.769-1.279C5.476 14.512 5 13.5 5 12.221V8.01c0-2.896 2.253-4.619 4.981-4.619 1.099 0 2.088.248 2.894.71L13.516 3l.989.497-.751 1.262C14.523 5.505 15 6.535 15 7.815v4.139c0 2.895-2.345 4.548-5.019 4.548zm3.187-8.723c0-.551-.128-1.031-.348-1.421l-4.799 8.048c.532.355 1.209.55 1.997.55 1.758 0 3.15-.977 3.15-2.877v-4.3zm-6.337.142c0-1.937 1.373-2.967 3.114-2.967.842 0 1.538.195 2.069.569l-4.798 8.066c-.256-.391-.385-.889-.385-1.475V7.921z" fill="#333333" />
</svg>
