<svg xmlns="http://www.w3.org/2000/svg" viewBox="0 0 20 20">
  <path fill-rule="evenodd" clip-rule="evenodd" d="M2 3c-.5523 0-1 .4477-1 1v6c0 .5523.4477 1 1 1h3.5061a6.3254 6.3254 0 01-.0061-.2782C5.5 7.2856 8.2856 4.5 11.7218 4.5s6.2217 2.7856 6.2217 6.2218c0 .0932-.002.1859-.0061.2782H18c.5523 0 1-.4477 1-1V4c0-.5523-.4477-1-1-1H2zm14.4435 7.7218C16.4435 8.114 14.3295 6 11.7218 6 9.114 6 7 8.114 7 10.7218c0 2.6077 2.114 4.7217 4.7218 4.7217a4.6995 4.6995 0 002.6039-.7823L17.6645 18 19 16.6645l-3.3388-3.3388a4.6995 4.6995 0 00.7823-2.6039zm-7.5548 0c0 1.5646 1.2684 2.833 2.8331 2.833 1.5646 0 2.833-1.2684 2.833-2.833 0-1.5647-1.2684-2.833-2.833-2.833-1.5647 0-2.833 1.2683-2.833 2.833z" fill="currentColor" />
</svg>
