<svg xmlns="http://www.w3.org/2000/svg" viewBox="0 0 20 20">
  <g fill-rule="evenodd" clip-rule="evenodd">
    <path d="M3 1c-1.1046 0-2 .8954-2 2v12c0 1.1046.8954 2 2 2h7.274l-2-2H4c-.5523 0-1-.4477-1-1V4c0-.5523.4477-1 1-1h10c.5523 0 1 .4477 1 1v4.274l2 1.9999V3c0-1.1046-.8954-2-2-2H3zm2 5c.5523 0 1-.4477 1-1s-.4477-1-1-1-1 .4477-1 1 .4477 1 1 1zm8 0c.5523 0 1-.4477 1-1s-.4477-1-1-1-1 .4477-1 1 .4477 1 1 1zm-7 7c0 .5523-.4477 1-1 1s-1-.4477-1-1 .4477-1 1-1 1 .4477 1 1z" fill="#999999" />
    <path d="M7 11.8976a1 1 0 00.2929.7071l6.5883 6.5883c.3905.3905 1.0237.3905 1.4142 0l3.8976-3.8976c.3905-.3905.3905-1.0237 0-1.4142l-6.5883-6.5883A1 1 0 0011.8976 7H8c-.5523 0-1 .4477-1 1v3.8976zm3.7941-2.2417c0 .6286-.5096 1.1382-1.1382 1.1382s-1.1382-.5096-1.1382-1.1382.5096-1.1382 1.1382-1.1382 1.1382.5096 1.1382 1.1382z" fill="#333333" />
  </g>
</svg>
