<svg xmlns="http://www.w3.org/2000/svg" viewBox="0 0 20 20">
  <g fill="none" fill-rule="evenodd">
    <g opacity=".6" transform="rotate(90 9 10)">
      <path d="M18 8C12.4772 8 8 12.4772 8 18h1c0-4.9706 4.0294-9 9-9V8z" fill="#999" fill-rule="nonzero" />
      <circle stroke="#999" fill="#FFF" cx="7" cy="7" r="5.5" />
      <path d="M2.1196 13.9152C2.4233 11.561 3.3356 9.8859 5.2 7.4l1.6 1.2c-1.59 2.12-2.3656 3.4842-2.6573 5.3152H6L3 18l-3-4.0848h2.1196zM14 4.089c-2.0986.2207-3.5793.9045-5.2929 2.6181L7.293 5.293C9.4483 3.1375 11.3666 2.3146 14 2.0787V0l4.0848 3L14 6V4.089z" fill="#999" />
    </g>
    <path d="M16.6648 2H13V0h7.0026v7H18.002l-.0014-3.6653L13.3352 8 12 6.6648 16.6648 2z" fill="#999" fill-rule="nonzero" />
  </g>
</svg>
