<svg xmlns="http://www.w3.org/2000/svg" viewBox="0 0 20 20">
  <g fill="none" fill-rule="evenodd">
    <path d="M1 9c5.5 0 10 4.5 10 10H1V9z" fill="#FFF" />
    <path d="M6.673 10.7638C6.243 9.9367 6 8.9968 6 8c0-3.3137 2.6863-6 6-6s6 2.6863 6 6-2.6863 6-6 6c-.9967 0-1.9367-.243-2.7638-.673C10.3486 14.9387 11 16.8932 11 19h-1c0-4.9706-4.0294-9-9-9V9c2.1067 0 4.0612.6514 5.673 1.7638z" fill="#DD5228" fill-rule="nonzero" />
    <path d="M7 8c0 2.7614 2.2386 5 5 5s5-2.2386 5-5-2.2386-5-5-5-5 2.2386-5 5z" fill="#FFF" />
    <path d="M14.911 15c-.2207-2.0986-.9045-3.5793-2.6181-5.2929L13.707 8.293c2.1554 2.1554 2.9783 4.0737 3.2142 6.7071H19l-3 4-3-4h1.911zM5 3.109c2.399.2926 4.0844 1.2043 6.6 3.091l-1.2 1.6C8.2475 6.1856 6.874 5.4107 5 5.1296V7L1 4l4-3v2.109z" fill="#DD5228" fill-rule="nonzero" />
  </g>
</svg>
