<svg xmlns="http://www.w3.org/2000/svg" viewBox="0 0 20 20">
  <g fill-rule="evenodd" clip-rule="evenodd">
    <path d="M12 2C8.6863 2 6 4.6863 6 8c0 .9967.243 1.9367.673 2.7638C5.0613 9.6514 3.1068 9 1 9v10h10c0-2.1067-.6514-4.0612-1.7638-5.6731C10.0633 13.757 11.0033 14 12 14c3.3137 0 6-2.6863 6-6s-2.6863-6-6-6z" fill="#888888" />
    <path d="M12 13c-2.7614 0-5-2.2386-5-5s2.2386-5 5-5 5 2.2386 5 5-2.2386 5-5 5zM1 19v-9c4.9706 0 9 4.0294 9 9H1z" fill="#FFFFFF" />
    <path d="M19 15l-3 4-3-4h1.911c-.2207-2.0986-.9045-3.5793-2.6181-5.2929l1.4142-1.4142c2.1554 2.1554 2.9783 4.0737 3.2142 6.7071H19zM5 5.1296c1.874.2811 3.2475 1.056 5.4 2.6704l1.2-1.6C9.0844 4.3133 7.399 3.4016 5 3.109V1L1 4l4 3V5.1296z" fill="#333333" />
  </g>
</svg>
