<svg xmlns="http://www.w3.org/2000/svg" viewBox="0 0 20 20">
  <path fill-rule="evenodd" clip-rule="evenodd" d="M18.3005 1.0618l.0376.0384c.8824.8823.8824 2.3263 0 3.2094L16.907 5.74a3.1853 3.1853 0 00-.2296-1.2408l.9247-.9255c.4792-.4784.4792-1.2584 0-1.7376l-.0376-.0376c-.4791-.4791-1.2591-.4791-1.7383 0l-2.0439 2.044c-.4792.4791-.4792 1.259 0 1.7383l.0376.0376a1.188 1.188 0 00.2448.188l-.7488.7487a2.2862 2.2862 0 01-.232-.2016l-.0376-.0376c-.8823-.8823-.8823-2.3262 0-3.2086l2.0448-2.0455c.8823-.8824 2.3263-.8824 3.2094 0zm-3.2166 2.783a2.28 2.28 0 01.232.2008l.0376.0384c.8831.8824.8831 2.3271 0 3.2095l-2.0448 2.0447c-.8823.8823-2.3263.8823-3.2086 0l-.0384-.0376c-.8824-.8831-.8824-2.327 0-3.2094L11.4928 4.66a3.1893 3.1893 0 00.2296 1.2416l-.9248.9247c-.4791.4792-.4791 1.2584 0 1.7384l.0376.0375c.4792.4792 1.2592.4792 1.7384 0l2.0447-2.0447c.4792-.4791.4792-1.2591 0-1.7383l-.0376-.0376a1.2106 1.2106 0 00-.2448-.188l.748-.7488zM10.6 2.8H1V16l3.6 3.6h13.2v-12h-1.2v10.8H5.4998V7.3h2.7v-.6H5.3241L2.624 4H10.6V2.8zM4.8998 7.1243v10.9755L2.2 15.4V4.4244l2.6998 2.6998z" fill="currentColor" />
</svg>
