<svg xmlns="http://www.w3.org/2000/svg" viewBox="0 0 20 20">
  <path fill-rule="evenodd" clip-rule="evenodd" d="M16 6c0 1.1046-.8954 2-2 2s-2-.8954-2-2 .8954-2 2-2 2 .8954 2 2zm-7.5405 4.177a2.6723 2.6723 0 01-1.0082-1.39c-.4419-.0875-.929-.1203-1.4513-.1203-1.6917 0-4 .6666-4 4 0 1.5025 1.6005 1.8761 3.3334 1.9741.009-2.9107 1.533-4.069 3.1261-4.4638zm4.0656-1.3174a2.6727 2.6727 0 01-.9135 1.2652c1.8544.3392 3.0488 1.4666 3.055 4.5177C16.4758 14.5467 18 14.1759 18 12.6667c0-3.3295-1.6416-4-4-4-.4653 0-.9772.0504-1.4749.1928zM6 8c1.1046 0 2-.8954 2-2s-.8954-2-2-2-2 .8954-2 2 .8954 2 2 2zm4 2c1.1046 0 2-.8954 2-2s-.8954-2-2-2-2 .8954-2 2 .8954 2 2 2zm0 6.6667c2.0849-.0469 4-.3083 4-2 0-3.3295-1.6416-4-4-4-1.6917 0-4 .6666-4 4 0 1.6942 2.0349 1.9531 4 2z" fill="currentColor" />
</svg>
