<svg xmlns="http://www.w3.org/2000/svg" viewBox="0 0 20 20">
  <path d="M1 15V4c8 .5 5-3 14-3l4 4v11c-7 0-7.616 2.5-13 3l-5-4z" fill="#333333" />
  <path fill-rule="evenodd" clip-rule="evenodd" d="M10 9.5H7.5l4.5 5.9999 4.5-6H14V6.2578c.9466-.2073 1.9425-.3466 2.9387-.4296.3819-.0318.7383-.053 1.0613-.0657V15.014c-2.7775.0828-4.4831.5404-7.0509 1.6054l-.1696.0704c-1.773.7354-2.8078 1.0675-4.2795 1.2506V8.183a76.687 76.687 0 00.3464-.0505 60.6105 60.6105 0 001.789-.29c.521-.0932.98-.185 1.3646-.2744v1.9318zm-8 5.0194V5.2056l4 3.111v9.4028l-4-3.2z" fill="#999999" />
  <path fill-rule="evenodd" clip-rule="evenodd" d="M2.6207 5.055l3.45 2.6833c.1664-.0226.4078-.0567.7025-.1003.605-.0895 1.21-.1865 1.7741-.2875.5662-.1014 1.0572-.2008 1.4527-.2962v2.4458H7.5l4.5 6 4.5-6H14V5.7463c.9377-.1996 1.9176-.3346 2.8972-.4163.3403-.0283.6609-.0485.9567-.0617l-3.266-3.2661c-3.0868.0324-4.5559.4408-6.1827 1.3868-.1023.0595-.477.2807-.4522.2662C6.312 4.62 4.9563 5.0506 2.6207 5.055z" fill="#FFFFFF" />
  <path d="M11 10H9l3 4 3-4h-2V6h-2v4z" fill="#333333" />
</svg>
