<svg xmlns="http://www.w3.org/2000/svg" viewBox="0 0 50 22">
  <path fill-rule="evenodd" clip-rule="evenodd" d="M13 1h-1v1.013C7.1513 2.2642 3.2644 6.1512 3.013 11H1v1h2.013c.2513 4.8487 4.1383 8.7356 8.987 8.9871V22h1v-1.0129c4.8487-.2515 8.7356-4.1384 8.9871-8.9871H27v4l21 5v-9h2v-1h-2V2L27 7v4h-5.0129C21.7356 6.1513 17.8487 2.2644 13 2.013V1zM5 12h-.9855c.2492 4.2962 3.6893 7.7363 7.9855 7.9855V19h1v.9855c4.2962-.2492 7.7363-3.6893 7.9855-7.9855H20v-1h.9855C20.7363 6.7038 17.2962 3.2637 13 3.0145V4h-1v-.9855C7.7038 3.2637 4.2637 6.7038 4.0145 11H5v1zm23.0023 0H29v-1h-.9971l.0018-3.2 18.9979-4.5-.0012 7.7H46v1h1.0012L47 19.7l-18.9995-4.5029L28.0023 12zM8.0275 11H7v1h1.0275C8.258 14.0858 9.9142 15.742 12 15.9725V17h1v-1.0275c2.0858-.2305 3.742-1.8867 3.9725-3.9725H18v-1h-1.0275C16.742 8.9142 15.0858 7.258 13 7.0275V6h-1v1.0275C9.9142 7.258 8.258 8.9142 8.0275 11zm1.008 1H10v-1h-.9646C9.2547 9.4672 10.4672 8.2547 12 8.0354V9h1v-.9646c1.5328.2193 2.7453 1.4318 2.9646 2.9646H15v1h.9646c-.2193 1.5328-1.4318 2.7453-2.9646 2.9646V14h-1v.9646C10.4672 14.7453 9.2547 13.5328 9.0354 12zM13 11v-1h-1v1h-1v1h1v1h1v-1h1v-1h-1zm18 0h2v1h-2v-1zm9 0h-5v1h5v-1zm2 0h2v1h-2v-1z" fill="#333333" />
</svg>
