<svg xmlns="http://www.w3.org/2000/svg" viewBox="0 0 20 20">
  <path fill-rule="evenodd" clip-rule="evenodd" d="M7.3503 6L8 6.6497 6.9033 7.7464A3.6593 3.6593 0 017.6752 10c0 2.0298-1.6455 3.6752-3.6752 3.6752a3.6591 3.6591 0 01-2.2536-.7719L.6497 14 0 13.3503l1.0967-1.0967A3.6591 3.6591 0 01.3248 10C.3248 7.9703 1.9703 6.3249 4 6.3249c.8493 0 1.6313.288 2.2536.7718L7.3503 6zM5.5971 7.7532A2.7438 2.7438 0 004 7.2436c-1.5223 0-2.7564 1.234-2.7564 2.7564 0 .5953.1887 1.1465.5096 1.5971l3.844-3.8439zM2.403 12.2468A2.7443 2.7443 0 004 12.7564c1.5223 0 2.7564-1.2341 2.7564-2.7564a2.7438 2.7438 0 00-.5096-1.5971l-3.8439 3.8439zm15.2885-1.467L19.8569 14h-1.2566l-2.0645-3.1192h-1.425V14H14V6h2.8836c.7181 0 1.324.157 1.7952.5274.5498.4151.864 1.0883.864 1.885 0 1.1556-.6508 2.0757-1.8514 2.3674zM14 9.5L11 12v-2H8V9h3V7l3 2.5zm2.6704.4383c1.122 0 1.7616-.5049 1.7616-1.526 0-1.077-.8415-1.4698-1.784-1.4698h-1.5372v2.9958h1.5596z" fill="#333333" />
</svg>
