<svg xmlns="http://www.w3.org/2000/svg" viewBox="0 0 20 20">
  <g fill-rule="evenodd" clip-rule="evenodd">
    <path d="M.4998 7.4885c-.396.396.208 1.292 1 .5.2434-.2434.2938-.3007.3372-.3499.0327-.0371.0613-.0697.1658-.1742v6.024c0 .717.997.613.997 0v-7c0-.565-.765-.598-1-.363l-1.5 1.363zm6.104-1.5c-.417 0-.6.234-.6.571l-.004 2.429c0 .562.417 1 1 1h2v1.9989c0 .751-.354 1.001-1 1.001-.625 0-1.016-.312-1-1h-1s-.141 1.998 2 2c1.333.001 2-.646 2-2.001v-1.999c0-.688-.472-1-1-1h-2v-2h2.5c.471 0 .5-.341.5-.5 0-.158-.029-.5-.5-.5h-2.896zM10.9998 8c0-1.1045.8955-2 2-2 1.1046 0 2 .8955 2 2v4c0 1.1046-.8954 2-2 2-1.1045 0-2-.8954-2-2V8zm1 0c0-.5522.4477-1 1-1s1 .4478 1 1v4c0 .5523-.4477 1-1 1s-1-.4477-1-1V8zm6-2c-1.1045 0-2 .8955-2 2v4c0 1.1046.8955 2 2 2 1.1046 0 2-.8954 2-2V8c0-1.1045-.8954-2-2-2zm-1 2c0-.5522.4477-1 1-1s1 .4478 1 1v4c0 .5523-.4477 1-1 1s-1-.4477-1-1V8zm-13 5.4881c0-.138.048-.255.147-.354.097-.097.215-.146.353-.146.138 0 .256.049.353.146.098.099.147.216.147.354 0 .138-.049.256-.147.354-.097.097-.215.146-.353.146-.138 0-.256-.049-.353-.146-.099-.098-.147-.216-.147-.354z" fill="#1651B0" />
    <path d="M13.941 2.5l-.8882 1.7764a.5.5 0 10.8944.4472L14.5 3.618l.5528 1.1056a.5.5 0 10.8944-.4472L15.059 2.5l.8882-1.7764a.5.5 0 10-.8944-.4472L14.5 1.382 13.9472.2764a.5.5 0 10-.8944.4472L13.941 2.5zM8 2H7v1h1v1h1V3h1V2H9V1H8v1zm3.142 2.1306c-.095.094-.142.208-.142.341 0 .134.047.248.142.342.094.094.208.142.342.142.132 0 .246-.048.342-.142.094-.094.14-.208.14-.342 0-.133-.046-.247-.14-.341-.096-.095-.21-.142-.342-.142-.134 0-.248.047-.342.142zM17.9411 2.5l-.8882 1.7764a.5.5 0 10.8944.4472l.5528-1.1056.5528 1.1056a.5.5 0 10.8944-.4472L19.0591 2.5l.8882-1.7764a.5.5 0 10-.8944-.4472l-.5528 1.1056-.5528-1.1056a.5.5 0 10-.8944.4472l.8882 1.7764zM11 19.4716c0-.133.047-.247.142-.341.094-.095.208-.142.342-.142.132 0 .246.047.342.142.094.094.14.208.14.341 0 .134-.046.248-.14.342-.096.094-.21.142-.342.142-.134 0-.248-.048-.342-.142-.095-.094-.142-.208-.142-.342zM10 17H7v1h3v-1zm3.941.5l-.8882 1.7764a.5.5 0 10.8944.4472L14.5 18.618l.5528 1.1056a.5.5 0 10.8944-.4472L15.059 17.5l.8882-1.7764a.5.5 0 10-.8944-.4472L14.5 16.382l-.5528-1.1056a.5.5 0 10-.8944.4472L13.941 17.5zm4.0001.0001l-.8882 1.7764a.5.5 0 10.8944.4472l.5528-1.1056.5528 1.1056a.5.5 0 10.8944-.4472l-.8882-1.7764.8882-1.7764a.5.5 0 10-.8944-.4472l-.5528 1.1056-.5528-1.1056a.5.5 0 10-.8944.4472l.8882 1.7764z" fill="#333333" />
  </g>
</svg>
