<svg xmlns="http://www.w3.org/2000/svg" viewBox="0 0 20 20">
  <g fill-rule="evenodd" clip-rule="evenodd">
    <path d="M18 .882c0 .5136.5406.8477 1 .618v3a.5.5 0 001 0v-4a.5.5 0 00-.5-.5l-1.4025.7013A.1762.1762 0 0018 .859v.023zM8 16.5c0-.8284.6716-1.5 1.5-1.5s1.5.6716 1.5 1.5v2c0 .8284-.6716 1.5-1.5 1.5S8 19.3284 8 18.5v-2zm7.5-1.5c-.8284 0-1.5.6716-1.5 1.5v2c0 .8284.6716 1.5 1.5 1.5s1.5-.6716 1.5-1.5v-2c0-.8284-.6716-1.5-1.5-1.5zm2.5.882c0 .5136.5406.8477 1 .618v3a.5.5 0 001 0v-4a.5.5 0 00-.5-.5l-1.4025.7013A.1761.1761 0 0018 15.859v.023zm-3 .618a.5.5 0 011 0v2a.5.5 0 01-1 0v-2zm-2.858 2.6306c-.095.094-.142.208-.142.341 0 .134.047.248.142.342.094.094.208.142.342.142.132 0 .246-.048.342-.142.094-.094.14-.208.14-.342 0-.133-.046-.247-.14-.341-.096-.095-.21-.142-.342-.142-.134 0-.248.047-.342.142zM9.5 16a.5.5 0 00-.5.5v2a.5.5 0 001 0v-2a.5.5 0 00-.5-.5zM4 17h3v1H4v-1zM14 1.5c0-.8284.6716-1.5 1.5-1.5S17 .6716 17 1.5v2c0 .8284-.6716 1.5-1.5 1.5S14 4.3284 14 3.5v-2zm1.5-.5a.5.5 0 00-.5.5v2a.5.5 0 001 0v-2a.5.5 0 00-.5-.5zM12 4.4716c0-.133.047-.247.142-.341.094-.095.208-.142.342-.142.132 0 .246.047.342.142.094.094.14.208.14.341 0 .134-.046.248-.14.342-.096.094-.21.142-.342.142-.134 0-.248-.048-.342-.142-.095-.094-.142-.208-.142-.342zM9.5 0C8.6716 0 8 .6716 8 1.5v2C8 4.3284 8.6716 5 9.5 5S11 4.3284 11 3.5v-2C11 .6716 10.3284 0 9.5 0zM9 1.5a.5.5 0 011 0v2a.5.5 0 01-1 0v-2zM5 2H4v1h1v1h1V3h1V2H6V1H5v1z" fill="#1651B0" />
    <path d="M.4998 7.4885c-.396.396.208 1.292 1 .5.2434-.2434.2938-.3007.3372-.3499.0327-.0371.0613-.0697.1658-.1742v6.024c0 .717.997.613.997 0v-7c0-.565-.765-.598-1-.363l-1.5 1.363zm6.104-1.5c-.417 0-.6.234-.6.571l-.004 2.429c0 .562.417 1 1 1h2v1.9989c0 .751-.354 1.001-1 1.001-.625 0-1.016-.312-1-1h-1s-.141 1.998 2 2c1.333.001 2-.646 2-2.001v-1.999c0-.688-.472-1-1-1h-2v-2h2.5c.471 0 .5-.341.5-.5 0-.158-.029-.5-.5-.5h-2.896zM10.9998 8c0-1.1045.8955-2 2-2 1.1046 0 2 .8955 2 2v4c0 1.1046-.8954 2-2 2-1.1045 0-2-.8954-2-2V8zm1 0c0-.5522.4477-1 1-1s1 .4478 1 1v4c0 .5523-.4477 1-1 1s-1-.4477-1-1V8zm6-2c-1.1045 0-2 .8955-2 2v4c0 1.1046.8955 2 2 2 1.1046 0 2-.8954 2-2V8c0-1.1045-.8954-2-2-2zm-1 2c0-.5522.4477-1 1-1s1 .4478 1 1v4c0 .5523-.4477 1-1 1s-1-.4477-1-1V8zm-13 5.4881c0-.138.048-.255.147-.354.097-.097.215-.146.353-.146.138 0 .256.049.353.146.098.099.147.216.147.354 0 .138-.049.256-.147.354-.097.097-.215.146-.353.146-.138 0-.256-.049-.353-.146-.099-.098-.147-.216-.147-.354z" fill="#333333" />
  </g>
</svg>
