<svg xmlns="http://www.w3.org/2000/svg" viewBox="0 0 30 30">
  <g fill-rule="evenodd" clip-rule="evenodd">
    <path d="M24 0c-3.3138 0-6 2.6862-6 6s2.6862 6 6 6 6-2.6862 6-6-2.6862-6-6-6z" fill="#769FCC" />
    <path d="M27.8796 2.1564l-.0353-.036c-.8279-.8272-2.1816-.8272-3.0088 0l-1.917 1.9177c-.8272.8272-.8272 2.1809 0 3.0081l.0353.0353c.069.069.1417.1312.2175.189l.702-.702a1.1116 1.1116 0 01-.2295-.1763l-.0353-.0352c-.4492-.4493-.4492-1.1805 0-1.6297l1.9162-1.9162c.4492-.4492 1.1804-.4492 1.6297 0l.0352.0353c.4492.4492.4492 1.1804 0 1.629l-.8669.8676a2.988 2.988 0 01.2152 1.1632l1.3417-1.341c.8272-.8279.8272-2.1816 0-3.0088zm-2.8334 2.7614a2.1311 2.1311 0 00-.2175-.1883l-.7012.702c.0817.048.159.1058.2295.1763l.0352.0352c.4493.4493.4493 1.1805 0 1.6297l-1.9169 1.917c-.4492.4491-1.1804.4491-1.6297 0l-.0352-.0353c-.4492-.45-.4492-1.1805 0-1.6297l.8669-.867a2.9917 2.9917 0 01-.2152-1.164l-1.3417 1.3418c-.8272.8272-.8272 2.1809 0 3.0088l.036.0353c.8272.8272 2.1809.8272 3.0081 0l1.917-1.917c.8279-.8272.8279-2.1816 0-3.0088l-.0353-.036z" fill="#FFFFFF" />
  </g>
</svg>
