<svg xmlns="http://www.w3.org/2000/svg" viewBox="0 0 20 20">
  <path fill-rule="evenodd" clip-rule="evenodd" d="M13 1h2v13.9999h3l-4 4.0007-4-4.0007h3V1zM4.7867 3.7231v4.486H3.3855v1.2096h4.365V8.209H6.4701V2.1808H5.694c-.5086.1034-1.4448.2806-2.071.399V2.58l-.2879.0545c.0202.3024.0807.8871.111 1.1795.3326-.0202.9979-.0605 1.3406-.0908zm1.167 9.8118a9.8127 9.8127 0 01-.6452.8065h-.0101a429.4087 429.4087 0 01-2.117 2.4597v1.0181H8v-1.4113H5.4193v-.0202c.1714-.1814.5142-.5544.6855-.7459.0583-.0613.1174-.1244.1778-.1889.1382-.1476.2828-.3019.4372-.4563a6.7916 6.7916 0 00.5947-.7157c.1815-.2419.3226-.504.4436-.7863.121-.2722.1814-.5645.1915-.877 0-.3024-.0504-.5847-.1512-.8468s-.252-.4839-.4536-.6754c-.2016-.1814-.4537-.3327-.756-.4435-.3025-.1008-.6452-.1613-1.0384-.1613-.373 0-.7157.0504-1.0282.131-.3125.0907-.5847.2218-.8065.3932-.2218.1814-.4032.3931-.5242.6552-.131.2621-.1915.5544-.1915.8972v.3528h1.623v-.2117c0-.2419.0605-.4536.1814-.6149.121-.1613.3327-.2419.615-.2419.2923 0 .494.0806.6149.2217.121.1412.1814.3125.1814.5041v.1512c0 .2923-.0907.5645-.262.8064z" fill="#333333" />
</svg>
