<svg xmlns="http://www.w3.org/2000/svg" viewBox="0 0 20 20">
  <g fill-rule="evenodd" clip-rule="evenodd">
    <path d="M18.2338 8.3494l-.0226-2.5942L13.489 1.033 8.7064 5.8155l-.0179 2.5342 4.7725 4.7725 4.7728-4.7728zM11 11.1505L8.8007 9.0001H1l.0011 7.8626 2.1172 2.1374H11v-7.8496z" fill="#333333" />
    <path d="M10 1L7 5.5l-.9872-1.4808C4.8443 5.1738 4.158 6.7602 4.158 8.466h-1.5a7.737 7.737 0 012.5103-5.7135L4 1h6zm6.5894 16.1864L18 19h-6l2.5-4.5 1.1659 1.499c1.2722-1.1729 1.9947-2.8499 1.9325-4.6349l1.4991-.0522c.0791 2.2718-.8613 4.4063-2.5081 5.8745z" fill="#333333" />
    <path d="M8.5 10h-6L4 11.568h6L8.5 10zm-6.5.5L3.5 12v6L2 16.5v-6zM4 12h6v6H4v-6z" fill="#FFFFFF" />
    <path d="M17.444 6.035L13.679 2.27l.018 2.041 3.765 3.765-.018-2.041zm-4.203-3.709l-.015 1.985-3.764 3.765.014-1.985 3.765-3.765zm.2208 9.7506L9.6972 8.312l3.7646-3.7646 3.7646 3.7646-3.7646 3.7646z" fill="#999999" />
  </g>
</svg>
