<svg xmlns="http://www.w3.org/2000/svg" viewBox="0 0 20 20">
  <path fill-rule="evenodd" clip-rule="evenodd" d="M13.035 4v-.5047C13.035 2.6695 12.3605 2 11.5431 2H7.4919C6.668 2 6 2.6771 6 3.4953V4H3v1h.5l1 11.5c0 .707.802 1.5 1.5 1.5h7.035c.698 0 1.465-.793 1.465-1.5l1-11.5h.5V4h-2.965zM7 3.5c0-.2761.2164-.5.5012-.5h4.0326c.2768 0 .5012.232.5012.5V4H7v-.5zM5.9528 6c-.268 0-.4778.222-.4504.4959l.9008 9.0082c.0268.2682.2735.4959.5496.4959.268 0 .4778-.222.4504-.4959l-.9008-9.0082C6.4756 6.2276 6.229 6 5.9528 6zM9 6.5096C9 6.2283 9.232 6 9.5 6c.2761 0 .5.2276.5.5096v8.9808c0 .2814-.232.5096-.5.5096-.2761 0-.5-.2277-.5-.5096V6.5096zM11.9528 16c-.268 0-.4778-.222-.4504-.4959l.9008-9.0082c.0269-.2683.2735-.4959.5496-.4959.2681 0 .4778.222.4504.4959l-.9008 9.0082c-.0268.2682-.2734.4959-.5496.4959z" fill="currentColor" />
</svg>
