<svg xmlns="http://www.w3.org/2000/svg" viewBox="0 0 20 20">
  <g fill-rule="evenodd" clip-rule="evenodd">
    <path d="M15.864 13.1025A2.8888 2.8888 0 0015.9254 13h1.6564c-.1036.2895-.2519.5873-.4458.8975-.7826 1.2522-1.9729 2.2075-3.4719 2.9106l-1.6515-.9438c1.7522-.6213 3.0829-1.5322 3.8514-2.7618z" fill="#999999" />
    <path d="M15.0674 2.9458C15.2572 3.5565 15.8268 4 16.5 4c.8284 0 1.5-.6716 1.5-1.5S17.3284 1 16.5 1c-.434 0-.825.1843-1.0989.479-.609-.0961-1.2205-.1316-1.811-.0824-1.5951.133-2.8046.8751-3.3016 2.3662-.3357 1.007.0429 1.9522.9497 2.9337.4974.5384.749.7527 2.2201 1.9483 1.849 1.5028 2.7111 2.4689 2.7395 3.3857C15.5142 12.1703 15 12.7751 15 13.5c0 .8284.6716 1.5 1.5 1.5s1.5-.6716 1.5-1.5c0-.3389-.1124-.6515-.3019-.9027.3601-1.6494-.7911-3.0824-3.2937-5.1165-1.3955-1.1342-1.6384-1.341-2.0645-1.8023-.575-.6224-.7531-1.067-.6284-1.4413.2823-.8468.9527-1.2582 2.0031-1.3457.4276-.0357.8872-.0128 1.3528.0543z" fill="#333333" />
    <path d="M12.3026 16.6759c-.4448.9018-1.6922 1.3043-2.4941.8047l-3.14-1.9548-1.5832.9851-.0813.3192c-.1514.5941-.5431 1.1569-1.1144 1.5138-1.021.6392-2.2312.3793-2.702-.5795-.2075-.4222-.237-.9099-.1176-1.3785.1514-.5941.5423-1.1564 1.1138-1.514.6708-.419 1.4224-.4512 1.9926-.1526l.5981-.3722-.598-.3721c-.5703.2986-1.322.2664-1.9927-.1526-.5715-.3576-.9624-.9199-1.1138-1.514-.1194-.4686-.0899-.9563.1176-1.3785.4708-.9588 1.681-1.2187 2.702-.5795.5713.3569.963.9197 1.1144 1.5138l.0813.3192 1.5831.9851 3.14-1.9548c.802-.4996 2.0494-.0971 2.4942.8047l-3.741 2.3287 3.741 2.3288zM2.6049 12.973c.1829.1141.3747.1865.57.2146.1752.0255.3481.013.4996-.0359.1459-.0471.3427-.1508.4548-.3783.1123-.229.0853-.4753.0431-.6409-.044-.1725-.1265-.3455-.2389-.5006a1.652 1.652 0 00-.4645-.433c-.183-.1141-.3748-.1866-.5708-.2144-.1751-.0255-.3474-.0132-.4989.0357-.1458.0471-.3433.151-.4548.3782-.1129.2293-.0859.4756-.0437.6411.044.1726.1265.3456.239.5006a1.664 1.664 0 00.465.4329zm0 2.7483c.1829-.1141.3747-.1866.57-.2146.1752-.0255.3481-.013.4996.0359.1459.0471.3427.1508.4548.3783.1123.229.0853.4753.0431.6409-.044.1725-.1265.3455-.2389.5006a1.652 1.652 0 01-.4645.433c-.183.1141-.3748.1866-.5708.2144-.1751.0255-.3474.0132-.4989-.0357-.1458-.0471-.3433-.151-.4548-.3782-.1129-.2293-.0859-.4756-.0437-.6412.044-.1725.1265-.3455.239-.5005a1.664 1.664 0 01.465-.4329zm4.481-.5047a.8695.8695 0 100-1.739.8695.8695 0 000 1.739z" fill="#333333" />
  </g>
</svg>
