<svg xmlns="http://www.w3.org/2000/svg" viewBox="0 0 20 20">
  <path fill-rule="evenodd" clip-rule="evenodd" d="M19 4.5C19 3.1193 17.8807 2 16.5 2h-13C2.1193 2 1 3.1193 1 4.5v11C1 16.8807 2.1193 18 3.5 18h13c1.3807 0 2.5-1.1193 2.5-2.5v-11zM3.5 3C2.6716 3 2 3.6716 2 4.5v11c0 .6531.4174 1.2087 1 1.4146V11c0-.5523.4477-1 1-1H8.6908a.9999.9999 0 01.7012.2871L12.1502 13l1.6828-1.6551a.5.5 0 01.7012 0l.0198.0194 2.0121-5.056L17 6.5l-1.9254 5.3764.2717.2671a.5002.5002 0 010 .713L12.1502 16l-3.05-3v4H16.5c.8284 0 1.5-.6716 1.5-1.5v-11c0-.8284-.6716-1.5-1.5-1.5h-13zM6 10c-1.1046 0-2-.8954-2-2s.8954-2 2-2 2 .8954 2 2-.8954 2-2 2z" fill="currentColor" />
</svg>
