<svg xmlns="http://www.w3.org/2000/svg" viewBox="0 0 20 20">
  <path fill-rule="evenodd" clip-rule="evenodd" d="M10 12h1v5h-1v-5zM3 4.5V4h1v.5c0 .1928.0254.5486.1026 1.0115.129.7743.361 1.5478.7196 2.2649C5.8341 9.8 7.634 11 10.5 11c2.8661 0 4.6659-1.1999 5.6778-3.2236.3585-.7171.5906-1.4906.7196-2.2649C16.9746 5.0486 17 4.6928 17 4.5V4h1v.5c0 .2447-.0293.6545-.1162 1.176-.1444.8663-.4045 1.7335-.8116 2.5476C15.8966 10.575 13.7589 12 10.5 12c-3.259 0-5.3966-1.4251-6.5722-3.7764-.407-.8141-.6672-1.6813-.8116-2.5476C3.0292 5.1545 3 4.7447 3 4.5z" fill="#333333" />
</svg>
