<svg xmlns="http://www.w3.org/2000/svg" viewBox="0 0 20 20">
  <path fill-rule="evenodd" clip-rule="evenodd" d="M10.4687 3.2c-.2-.2667-.6-.2667-.8 0l-2 2.6667c-.2472.3296-.012.8.4.8h1v4.4178l-3.826 2.2088-.5-.866c-.206-.3568-.7309-.3253-.8927.0536l-1.3094 3.0654c-.131.3065.069.6529.4.6928l3.3094.3987c.409.0493.6988-.3896.4928-.7464l-.5-.866 3.8259-2.2089 3.8339 2.2135-.5.866c-.206.3569.0838.7957.4929.7464l3.3094-.3987c.3309-.0398.5309-.3863.4-.6928l-1.3094-3.0654c-.1619-.3789-.6869-.4104-.8929-.0536l-.5.8661-3.8339-2.2136V6.6667h1c.412 0 .6472-.4704.4-.8l-2-2.6667z" fill="#333333" />
</svg>
