<svg xmlns="http://www.w3.org/2000/svg" viewBox="0 0 20 20">
  <path d="M19 10v7H2v-7h17z" fill="#333333" />
  <path fill-rule="evenodd" clip-rule="evenodd" d="M3 11v5h15v-5h-1v2h-1v-2h-1v2h-1v-2h-1v2h-1v-2h-1v4h-1v-4H9v2H8v-2H7v2H6v-2H4.9562L5 13H4v-2H3z" fill="#FFFFFF" />
  <path fill-rule="evenodd" clip-rule="evenodd" d="M7.5 2C6.6716 2 6 2.6716 6 3.5v2C6 6.3284 6.6716 7 7.5 7S9 6.3284 9 5.5v-2C9 2.6716 8.3284 2 7.5 2zM12 3.5c0-.8284.6716-1.5 1.5-1.5s1.5.6716 1.5 1.5v2c0 .8284-.6716 1.5-1.5 1.5S12 6.3284 12 5.5v-2zm4.833-.2332c-.399.1596-.833-.1343-.833-.564 0-.062.0378-.118.0955-.141L17.5 2a.5.5 0 01.5.5v4a.5.5 0 01-1 0V3.2l-.167.0668zM13.5 2.8a.5.5 0 00-.5.5v2.2a.5.5 0 001 0V3.3a.5.5 0 00-.5-.5zM10 5.5773c0-.1064.047-.1976.142-.2728.094-.076.208-.1136.342-.1136.132 0 .246.0376.342.1136.094.0752.14.1664.14.2728 0 .1072-.046.1984-.14.2736-.096.0752-.21.1136-.342.1136-.134 0-.248-.0384-.342-.1136-.095-.0752-.142-.1664-.142-.2736zM7 3.5a.5.5 0 011 0v2a.5.5 0 01-1 0v-2zM3 4H2v1h1v1h1V5h1V4H4V3H3v1z" fill="#1651B0" />
</svg>
