<svg xmlns="http://www.w3.org/2000/svg" viewBox="0 0 20 20">
  <path d="M19.6777 2.3223l-.9834.9824C18.8883 3.66 19 4.0667 19 4.5v11c0 1.3807-1.1193 2.5-2.5 2.5H4l-2 2-1.414-1.4141L18.2636.9082l1.414 1.414zm-9.1162 9.1152L12.1504 13l1.6826-1.6553a.5001.5001 0 01.7012 0l.0195.0196 2.0127-5.0557L17 6.5l-1.9258 5.376.2725.2676a.5005.5005 0 010 .7128L12.1504 16l-3.0498-3v4H16.5c.8284 0 1.5-.6716 1.5-1.5v-11c0-.1514-.0247-.2968-.0664-.4346l-7.3721 7.3721zM14.1719 3H3.5C2.6716 3 2 3.6716 2 4.5v10.6719l-.9258.9248A2.502 2.502 0 011 15.5v-11C1 3.1193 2.1193 2 3.5 2h11.6719l-1 1zM3 14.1719V11c0-.5523.4477-1 1-1h3.1719L3 14.1719zM6 6c1.1046 0 2 .8954 2 2s-.8954 2-2 2-2-.8954-2-2 .8954-2 2-2z" fill="#333333" />
</svg>
