<svg xmlns="http://www.w3.org/2000/svg" viewBox="0 0 20 20">
  <g fill="#BD3039">
    <path d="M15.2853 17.2854l1.5074 1.5075c.3906.3905 1.0237.3905 1.4143 0 .3905-.3905.3905-1.0237 0-1.4142L2.6212 1.7929c-.3906-.3905-1.0237-.3905-1.4142 0-.3906.3906-.3906 1.0237 0 1.4142l1.5076 1.5076C1.636 6.1988 1 8.0251 1 10c0 4.9706 4.0294 9 9 9 1.9749 0 3.8012-.6361 5.2853-1.7146zM19 10c0 1.5858-.4102 3.0759-1.1302 4.3698L5.6302 2.1302C6.9242 1.4102 8.4142 1 10 1c4.9706 0 9 4.0294 9 9z" />
  </g>
  <g fill="#FFFFFF">
    <path d="M9.0429 11.0432l-1.0427 1.0427-3-3-1.4143 1.4143 4.4142 4.4142 2.457-2.457-1.4142-1.4142zM11.8713 11.0432l4.5431-4.543-1.4142-1.4143-4.5431 4.543 1.4142 1.4143z" />
  </g>
</svg>
