<svg xmlns="http://www.w3.org/2000/svg" viewBox="0 0 20 20">
  <g fill="#333333">
    <path d="M16.364 16.364c-3.5148 3.5147-9.2132 3.5147-12.728 0-1.6766-1.6766-2.5534-3.8502-2.6304-6.0465-.0845-2.408.7923-4.8434 2.6304-6.6815C7.067.205 12.579.1233 16.1091 3.391L18 1.5V7h-5.5l2.1935-2.1935c-2.7477-2.4873-6.9934-2.406-9.6433.2438-1.3928 1.3928-2.1136 3.2664-2.0459 5.1971.0618 1.7599.775 3.4313 2.046 4.7023 2.7336 2.7337 7.1658 2.7337 9.8994 0l1.4143 1.4143z" />
    <path d="M9 10l4.5 4.5L15 13l-4-4V5H9v5z" />
  </g>
</svg>
