<svg xmlns="http://www.w3.org/2000/svg" viewBox="0 0 200 180">
  <g fill="#EEEEEE">
    <path d="M98.4621 15.6522L71.0121 0 0 40.6957v38.1521l26.2566 15.0653V57.7174l72.2055-42.0652zM142.621 73.1449c-10.834-.6987-20.884 3.8897-27.45 11.553V57.1305L81.9522 37.9566 109.8 22.1088l32.821 18.7826v32.2535zM99.4567 115.542v30.998l-27.649 16.047L0 122.087V92.3477l71.0121 39.9133 28.4446-16.719z" />
    <path d="M49.9273 85.8915l-12.1338-6.8478V63.3915l33.2186-19.1739 11.9348 7.2391L49.9273 70.435v15.4565zM90.1077 55.565L77.974 62.4128l13.9239 8.0218-.1989 36.5874 12.134-6.848V63.3911L90.1077 55.565zM84.7371 111.326V98.0217l-13.9239 8.0213-33.0197-18.9778V100.37l33.2186 18.978 13.725-8.022z" />
    <path fill-rule="evenodd" clip-rule="evenodd" d="M120.453 102.619c0-11.2914 9.306-20.4451 20.786-20.4451h2.631c11.48 0 20.786 9.1537 20.786 20.4451v9.881c0 2.161-1.781 3.913-3.978 3.913h-3.094c-2.197 0-3.978-1.752-3.978-3.913v-8.587c0-6.0035-4.948-10.87-11.051-10.87s-11.051 4.8665-11.051 10.87v21.739h19.339v.006h14.833c5.573.187 10.032 4.689 10.032 10.216v33.903c0 5.646-4.654 10.223-10.393 10.223h-45.52c-5.739 0-10.393-4.577-10.393-10.223v-33.903c0-5.646 4.654-10.222 10.393-10.222h.658v-23.033zm22.102 61.078c6.103 0 11.051-4.867 11.051-10.87 0-6.003-4.948-10.87-11.051-10.87s-11.051 4.867-11.051 10.87c0 6.003 4.948 10.87 11.051 10.87zM181.063 118.401c-.687-1.17-.279-2.665.91-3.341l11.484-6.522c1.19-.675 2.71-.274 3.397.896.687 1.169.279 2.665-.91 3.34l-11.484 6.522c-1.19.676-2.71.275-3.397-.895zM182.715 124.592c.47-1.269 1.897-1.924 3.187-1.462l12.461 4.461c1.291.462 1.956 1.866 1.486 3.135-.469 1.269-1.896 1.924-3.186 1.462l-12.462-4.461c-1.29-.462-1.955-1.866-1.486-3.135zM176.438 113.898c1.353.235 2.642-.653 2.881-1.984l2.302-12.8449c.239-1.3302-.664-2.5987-2.017-2.8332-1.352-.2345-2.641.6536-2.88 1.9838l-2.303 12.8453c-.238 1.33.665 2.599 2.017 2.833z" />
  </g>
</svg>
