<svg xmlns="http://www.w3.org/2000/svg" viewBox="0 0 288 288">
  <path fill="#999" d="M0 0h288v288H0z" />
  <path fill-rule="evenodd" clip-rule="evenodd" d="M119 71l25-30 25 30h-15v35h-20V71h-15zm43 52c0-4.968 4.026-9 9-9s9 4.032 9 9-4.026 9-9 9-9-4.032-9-9zm-54 51l18-54 24 30 12-9 18 33h-72zm-3-84h24v6h-24c-4.962 0-9 4.038-9 9v78c0 4.962 4.038 9 9 9h78c4.962 0 9-4.038 9-9v-78c0-4.962-4.038-9-9-9h-24v-6h24c8.274 0 15 6.732 15 15v78c0 8.274-6.726 15-15 15h-78c-8.274 0-15-6.726-15-15v-78c0-8.268 6.726-15 15-15z" fill="#fff" />
</svg>
