<svg xmlns="http://www.w3.org/2000/svg" viewBox="0 0 20 20">
  <path d="M10 1C6.9624 1 4.5 3.4624 4.5 6.5c0 1.9165.9802 3.604 2.4667 4.5886C4.1454 11.5784 2 14.0386 2 17v1h1.5v-1c0-2.1963 1.5853-4.0623 3.7232-4.4335 1.3371-.2321 1.7032-1.979.5718-2.7284C6.6817 9.1007 6 7.8594 6 6.5c0-2.2091 1.7909-4 4-4 2.2091 0 4 1.7909 4 4 0 1.3594-.6817 2.6007-1.795 3.3381-1.1314.7494-.7653 2.4963.5718 2.7284C14.9147 12.9377 16.5 14.8037 16.5 17v1H18v-1c0-2.9614-2.1454-5.4216-4.9667-5.9114C14.5198 10.104 15.5 8.4165 15.5 6.5 15.5 3.4624 13.0376 1 10 1z" fill="currentColor" />
</svg>
