<svg xmlns="http://www.w3.org/2000/svg" viewBox="0 0 20 20">
  <g fill="#333333">
    <path d="M3.5005 17.4991C1.3863 12.5527 1.2768 7.5814 3.1135 2.5H1.7496c-.0784.0538-.1667.1338-.2127.2275C-.0908 6.0898-.3858 9.687.4654 13.4806c.259 1.1554.725 2.1727 1.1907 3.1892.0982.2144.1964.4287.2926.6443.0336.0763.1046.1847.1593.186l1.3925-.0009zM16.4999 17.4978c2.1235-4.9491 2.2283-9.9094.3928-14.996l1.3828.0087c.0636.0025.1447.1038.1858.1876 1.2906 2.6152 1.7345 5.4706 1.4614 8.5624-.1982 2.2588-.9676 4.1849-1.8691 6.0522-.0424.0888-.1472.1848-.2245.1873l-1.3292-.0022zM11.1125 7.8556a68.173 68.173 0 00.4251-.627c.3216-.4782.6333-.9416.9723-1.3842.2867-.375.62-.7375 1.0014-1.01.7906-.565 1.8427-.3862 2.2747.3263.4733.7774.1293 1.9186-.7147 2.3574-.6387.3312-1.2974.2487-1.9547.0725-.6972-.1873-.7068-.177-1.1436.2867l-.0858.0908c-.4787.5074-.6307 1.0062-.3773 1.6761.168.4457.3004.9043.4328 1.3633.0894.3095.1788.6193.2792.9254.3667 1.1187.9987 1.4499 2.1534 1.1562.1321-.0346.2642-.0723.3981-.1104.0593-.0169.119-.0339.1792-.0508-.0146.6912-.0813.7899-.6907 1.0249-.912.3538-1.84.6212-2.8374.5287-.9973-.0924-1.716-.5612-2.0373-1.5261-.1297-.3907-.2385-.7885-.353-1.2075a60.9784 60.9784 0 00-.1604-.5787l-.049.0666a14.8484 14.8484 0 00-.2043.2809c-.149.2079-.2955.4178-.442.6277-.3416.489-.6831.9782-1.0554 1.4434-.2347.2925-.5667.545-.9067.7125-.7293.3587-1.536.1675-1.9493-.3912-.4174-.5625-.336-1.5212.1773-2.0849.5587-.6125 1.2774-.645 2.0267-.5375.1987.0287.4067.065.584.1512.368.1775.6374.095.8734-.22.0877-.1168.1819-.2292.2761-.3416.1235-.1473.247-.2947.3559-.4521.0667-.095.088-.2625.056-.3762l-.0911-.325c-.2424-.8657-.485-1.7319-.7623-2.5862-.3346-1.0224-.9893-1.3624-2.056-1.12-.1507.0335-.2995.0786-.4486.1238a13.5341 13.5341 0 01-.206.0613c.0092-.7062.056-.785.7053-1.035.936-.36 1.8933-.625 2.9147-.515.9227.0988 1.5867.5663 1.908 1.4312.1415.38.2503.7717.3642 1.1816.0535.1927.1081.3894.1678.5909z" />
  </g>
</svg>
