<svg xmlns="http://www.w3.org/2000/svg" viewBox="0 0 20 20">
  <g fill="#333333" fill-rule="evenodd" clip-rule="evenodd">
    <path d="M11.1125 7.8556c.4827-.7012.912-1.3775 1.3974-2.0112.2866-.375.62-.7375 1.0013-1.01.7907-.565 1.8427-.3862 2.2747.3263.4734.7774.1294 1.9186-.7146 2.3574-.6387.3312-1.2974.2487-1.9547.0725-.7401-.1988-.7054-.175-1.2294.3775-.4787.5074-.6307 1.0062-.3773 1.6761.2813.7463.4626 1.5287.712 2.2887.3666 1.1187.9987 1.4499 2.1533 1.1562.1907-.05.3814-.1062.5774-.1612-.0147.6912-.0813.7899-.6907 1.0249-.912.3538-1.84.6212-2.8374.5287-.9973-.0924-1.716-.5612-2.0374-1.5261-.188-.5663-.332-1.1475-.5133-1.7862-.1013.1375-.1787.2412-.2533.3475-.496.6924-.9654 1.4062-1.4974 2.0711-.2347.2925-.5667.545-.9067.7125-.7293.3587-1.536.1675-1.9494-.3912-.4173-.5625-.336-1.5212.1774-2.0849.5587-.6125 1.2773-.645 2.0267-.5375.1986.0287.4066.065.584.1512.368.1775.6373.095.8733-.22.2027-.27.44-.5162.632-.7937.0667-.095.088-.2625.056-.3762-.2733-.9737-.5413-1.95-.8533-2.9112-.3347-1.0224-.9893-1.3624-2.056-1.12-.22.0488-.436.1226-.6547.185.0093-.7061.056-.7849.7053-1.0349.936-.36 1.8934-.625 2.9148-.515.9227.0988 1.5867.5663 1.908 1.4312.208.5588.3453 1.1425.532 1.7725zM16.4998 17.4978c2.1235-4.9491 2.2283-9.9094.3928-14.996l1.3828.0087c.0636.0025.1447.1038.1858.1876 1.2906 2.6152 1.7345 5.4706 1.4615 8.5624-.1983 2.2588-.9677 4.1849-1.8692 6.0522-.0424.0888-.1471.1848-.2245.1873l-1.3292-.0022zM3.1134 2.5c-1.8367 5.0814-1.7272 10.0527.387 14.9991L2.108 17.5c-.0548-.0013-.1257-.1097-.1593-.186C1.3962 16.0762.779 14.8796.4654 13.4805-.3858 9.687-.091 6.0897 1.5368 2.7275c.046-.0937.1344-.1737.2128-.2275h1.3638z" />
  </g>
  <path fill="#1651B0" d="M0 0h10v8H0z" />
  <path fill-rule="evenodd" clip-rule="evenodd" d="M9 4H7v1h2V4zM6 4H4v1h2V4zM3.0005 4H1v1h2.0007l-.0002-1zM4 6h2v1H4V6zm5 1H7V6h2v1zM3.0008 6H1v1h2.001l-.0002-1z" fill="#FFFFFF" />
  <path fill-rule="evenodd" clip-rule="evenodd" d="M4 1h2v2H4V1zm3 0v2h2V1H7zM3.0001 1H1v2h2.0004l-.0003-2z" fill="#90CEF1" />
</svg>
