<svg xmlns="http://www.w3.org/2000/svg" viewBox="0 0 160 140">
  <path fill-rule="evenodd" clip-rule="evenodd" d="M0 0h80.0007v41.6085c1.9991 1.802 3.5638 4.1486 4.6443 7.057 1.664 4.4697 2.7628 9.1398 4.2561 14.1795 3.8613-5.6096 7.2964-11.0198 11.1789-16.0895 2.294-2.9999 4.96-5.8998 8.011-8.0797 6.326-4.5199 14.742-3.0899 18.198 2.6099 3.787 6.2198 1.035 15.3495-5.718 18.8594-5.109 2.6499-10.379 1.9899-15.637.58-5.5775-1.4978-5.6546-1.416-9.1495 2.2936-.2149.2281-.443.4703-.6859.7263-3.8294 4.0598-5.0454 8.0497-3.0187 13.4095l5.6962 18.3094c2.9329 8.9501 7.9899 11.6001 17.2269 9.2501 1.547-.406 3.08-.858 4.619-1.29-.117 5.53-.651 6.319-5.525 8.199-7.297 2.83-14.7209 4.97-22.6998 4.23-7.9789-.74-13.7284-4.49-16.2991-12.209-1.5618-4.7041-2.7536-9.5235-4.1068-14.2899L56.9855 108.704c-1.8774 2.339-4.5335 4.359-7.2535 5.699-5.8349 2.87-12.2884 1.34-15.5952-3.13-3.3387-4.499-2.688-12.1692 1.4187-16.679 4.4695-4.8999 10.219-5.1599 16.2139-4.2999 1.5893.23 3.2534.52 4.6721 1.21 2.9441 1.4199 5.0988.7599 6.9869-1.76l5.0561-6.3498c.5334-.7599.704-2.0999.448-3.0099l-4.678-16.3839H15.0798c-2.1112 25.5291 2.1566 50.8015 12.9241 75.9935l-11.1398.007c-.438-.01-1.0054-.878-1.2742-1.488C4.9684 114.717-1.8809 90.3568.5294 64.0005H0V0zm48.0004 8.0001H32.0003v16.0001h16.0001V8.0001zm8.0001 16.0001V8.0001h16.0001v16.0001H56.0005zM8.0001 8.0001h16.0012l.0021 16.0001H8.0001V8.0001zm48.0004 24.0001h16.0001v8.0001H56.0005v-8.0001zm-24.0002 0h16.0001v8.0001H32.0003v-8.0001zm-24.0002 0h16.0044l.001 8.0001H8.0001v-8.0001zm40.0003 16.0002H32.0003v8h16.0001v-8zm8.0001 8h16.0001v-8H56.0005v8zm-48.0004-8h16.0065l.001 8H8.0001v-8zM135.142 20.0139C149.826 60.7076 148.988 100.391 132 139.984l10.634.017c.618-.02 1.456-.788 1.795-1.498 7.213-14.939 13.368-30.348 14.954-48.4184 2.185-24.7343-1.367-47.5776-11.692-68.4997-.329-.6704-1.486-1.5009-1.486-1.5009l-11.063-.0701z" fill="#EEEEEE" />
</svg>
