<svg xmlns="http://www.w3.org/2000/svg" viewBox="0 0 20 20">
  <g fill="#CDCDCD" fill-rule="evenodd" clip-rule="evenodd">
    <path d="M11.1126 7.8556c.4827-.7012.912-1.3775 1.3973-2.0112.2867-.375.62-.7375 1.0014-1.01.7907-.565 1.8427-.3862 2.2747.3263.4733.7774.1293 1.9186-.7147 2.3574-.6387.3312-1.2973.2487-1.9547.0725-.74-.1988-.7053-.175-1.2293.3775-.4787.5074-.6307 1.0062-.3774 1.6761.2814.7463.4627 1.5287.712 2.2887.3667 1.1187.9987 1.4499 2.1534 1.1562.1907-.05.3814-.1062.5774-.1612-.0147.6912-.0814.7899-.6907 1.0249-.912.3538-1.8401.6212-2.8374.5287-.9974-.0924-1.716-.5612-2.0374-1.5261-.188-.5663-.332-1.1475-.5133-1.7862-.1014.1375-.1787.2412-.2534.3475-.496.6924-.9653 1.4062-1.4973 2.0711-.2347.2925-.5667.545-.9067.7125-.7294.3587-1.536.1675-1.9494-.3912-.4174-.5625-.336-1.5212.1773-2.0849.5587-.6125 1.2774-.645 2.0267-.5375.1987.0287.4067.065.584.1512.368.1775.6374.095.8734-.22.2027-.27.44-.5162.632-.7937.0667-.095.088-.2625.056-.3762-.2733-.9737-.5413-1.95-.8533-2.9112-.3347-1.0224-.9894-1.3624-2.056-1.12-.22.0488-.436.1226-.6548.185.0094-.7061.056-.7849.7054-1.0349.936-.36 1.8934-.625 2.9147-.515.9227.0988 1.5867.5663 1.9081 1.4312.208.5588.3453 1.1425.532 1.7725zM16.4999 17.4978c2.1235-4.9491 2.2283-9.9094.3927-14.996l1.3829.0087c.0636.0025.1447.1038.1858.1876 1.2906 2.6152 1.7345 5.4706 1.4614 8.5624-.1982 2.2588-.9676 4.1849-1.8691 6.0522-.0424.0888-.1472.1848-.2245.1873l-1.3292-.0022zM3.1135 2.5c-1.8367 5.0814-1.7272 10.0527.387 14.9991L2.108 17.5c-.0547-.0013-.1257-.1097-.1593-.186C1.3962 16.0762.779 14.8796.4654 13.4805-.3857 9.687-.0908 6.0897 1.537 2.7275c.046-.0937.1343-.1737.2127-.2275h1.3639z" />
  </g>
  <path fill="#CDCDCD" d="M0 0h10v8H0z" />
  <path fill-rule="evenodd" clip-rule="evenodd" d="M9 4H7v1h2V4zM6 4H4v1h2V4zM3.0005 4H1v1h2.0007l-.0002-1zM4 6h2v1H4V6zm5 1H7V6h2v1zM3.0008 6H1v1h2.001l-.0002-1z" fill="#FFFFFF" />
  <path fill-rule="evenodd" clip-rule="evenodd" d="M4 1h2v2H4V1zm3 0v2h2V1H7zM3.0001 1H1v2h2.0004l-.0003-2z" fill="#333" />
</svg>
