<svg xmlns="http://www.w3.org/2000/svg" viewBox="0 0 20 20">
  <path fill-rule="evenodd" clip-rule="evenodd" d="M4.965 3c-1.105 0-2 .895-2 2s.895 2 2 2c1.104 0 2-.895 2-2s-.896-2-2-2zm2 13c0 1.105-.896 2-2 2-1.105 0-2-.895-2-2 0-.74.402-1.386 1-1.732L4 8c-1.199-.581-2.035-1.693-2.035-3 0-1.657 1.343-3 3-3s3 1.343 3 3c0 1.306-.835 2.417-1.965 3l-.035 4.538c.588-.343 1.272-.538 2-.538h5.0001c1.102 0 2-.897 2-2v-.27c-.598-.344-1-.99-1-1.73 0-1.105.896-2 2-2s2 .895 2 2c0 .74-.402 1.386-.999 1.732l-.001.268c0 2.206-1.794 4-4 4h-5c-.597 0-1.134.263-1.501.68.313.352.501.814.501 1.32z" fill="#333333" />
</svg>
