<svg xmlns="http://www.w3.org/2000/svg" viewBox="0 0 20 20">
  <path fill-rule="evenodd" clip-rule="evenodd" d="M0 5c0-2.2052 1.7939-4 4-4s4 1.7948 4 4c0 1.8601-1.2764 3.4283-3 3.8735v4.075c.5684-.2972 1.242-.4486 2-.4485h1.5c.8884 0 1.2699-.3439 1.4263-.8121-.5673-.3616-.9386-1.0007-.926-1.7228.0193-1.1047.9299-1.984 2.0346-1.9648 1.1047.0193 1.9841.9299 1.9648 2.0346-.0138.7924-.4862 1.4688-1.1599 1.7809C11.5093 13.402 10.5994 14.5003 8.5 14.5H7c-.5732 0-1.2788.2428-1.6803.997C5.7368 15.8634 6 16.4009 6 17c0 1.1049-.8951 2-2 2s-2-.8951-2-2c0-.7406.4021-1.3869 1-1.7326v-6.394C1.2764 8.4284 0 6.8602 0 5zm4 2.5c1.3811 0 2.5-1.1189 2.5-2.5S5.3811 2.5 4 2.5 1.5 3.6189 1.5 5 2.6189 7.5 4 7.5zM20 2H10v2h10V2zm0 5h-6.0069v2H20V7zm0 5h-6.0069v2H20v-2zm0 5H10v2h10v-2z" fill="currentColor" />
</svg>
