<svg xmlns="http://www.w3.org/2000/svg" viewBox="0 0 20 20">
  <path fill-rule="evenodd" clip-rule="evenodd" d="M2 2h16v16H2V2z" fill="#333333" />
  <g fill="#FFFFFF">
    <path d="M5.004 2H3v1h2l.004-1zM6 2v1h8V2H6zM15 2v1h2V2h-2zM17 18v-1h-2v1h2zM14.002 18L14 17H6v1h8.002zM5 18v-1H3v1h2zM5 13H3v2h2v-2zM3 9h2v2H3V9zM5 5H3v2h2V5z" />
    <path fill-rule="evenodd" clip-rule="evenodd" d="M6 5h8v10H6V5zm2 8l4-3-4-3v6z" />
    <path d="M17 13h-2v2h2v-2zM15 9h2v2h-2V9zM17 5h-2v2h2V5z" />
  </g>
</svg>
