<svg xmlns="http://www.w3.org/2000/svg" viewBox="0 0 20 20">
  <path fill-rule="evenodd" clip-rule="evenodd" d="M19.4637 6.008C19.8212 5.3951 20 4.7258 20 4s-.1788-1.3951-.5363-2.008c-.3575-.6129-.8427-1.0982-1.4555-1.4556C17.3953.1787 16.726 0 16.0002 0c-.7257 0-1.3951.1787-2.0079.5364-.6129.3574-1.0981.8427-1.4556 1.4556C12.1788 2.6049 12 3.2742 12 4s.1788 1.3951.5367 2.008c.3575.6129.8427 1.0982 1.4556 1.4556.3957.231.8149.3873 1.2577.469v1.162A3.0025 3.0025 0 0116 9c.2589 0 .5103.0328.75.0946V7.9328c.4429-.0818.8623-.2382 1.2582-.4692.6128-.3574 1.098-.8427 1.4555-1.4556zM11.5 16.8026V15.283l-4.25 1.9964v-5.276h-.0449l4.4282-2.0129v3.3922c.1856-.4086.5494-.7208.9919-.8353L13 12.4505V8.3034L6.5 5.27 0 8.3034v7.8l6.5 3.03 5-2.3308zm5.2097-10.08v-1c0-.0488-.0157-.0888-.047-.12-.0314-.0315-.0713-.047-.1201-.047h-.9999c-.0489 0-.0887.0155-.1201.047-.0314.0312-.047.0712-.047.12v1c0 .0485.0156.0885.047.12.0314.0312.0712.0467.1201.0467h.9999c.0488 0 .0887-.0155.1201-.0466.0313-.0316.047-.0716.047-.12zm.2988-5.176c.2824.1422.5174.3436.706.604.189.2608.2833.5435.2833.8496 0 .153-.0215.2933-.0636.4218-.0421.1284-.0899.2333-.1425.315-.0531.0814-.129.165-.2272.2498-.0987.0849-.1767.1458-.2346.1822a6.8342 6.8342 0 01-.2495.1484.8736.8736 0 00-.2781.2578c-.0727.1062-.1096.192-.1096.2582 0 .0484-.0153.0884-.0456.1195-.0307.0316-.0702.0471-.1175.0471h-.9793c-.0473 0-.0863-.0156-.117-.0471-.0307-.0311-.0461-.0711-.0461-.1195v-.1876c0-.2328.0895-.4506.268-.6537.1784-.203.3749-.3533.5889-.4506.1631-.0764.2785-.1546.3464-.2346.068-.0796.1022-.1853.1022-.3173 0-.1147-.064-.2173-.1912-.3075-.128-.0903-.2732-.1351-.4363-.1351-.1767 0-.3228.0413-.4386.1248-.1122.0836-.2582.2431-.4385.479-.0302.0419-.0728.0628-.1272.0628-.0407 0-.0732-.0107-.0969-.0316l-.6731-.5208c-.0781-.0622-.0917-.1351-.0408-.2187.4355-.7394 1.0661-1.1092 1.8918-1.1092.2956 0 .5846.0711.8666.2133zM2.2702 8.7536L6.5 10.6761l4.2298-1.9227L6.5 6.7717 2.2702 8.7535zm3.5247 3.2498L1.3667 9.9905v5.2329L5.75 17.2798v-5.2764h.0449z" fill="currentColor" />
  <path d="M19 13h-.5v-1c0-1.38-1.12-2.5-2.5-2.5s-2.5 1.12-2.5 2.5v1H13c-.55 0-1 .45-1 1v5c0 .55.45 1 1 1h6c.55 0 1-.45 1-1v-5c0-.55-.45-1-1-1zm-3 4.5c-.55 0-1-.45-1-1s.45-1 1-1 1 .45 1 1-.45 1-1 1zm1.55-4.5h-3.1v-1c0-.855.695-1.55 1.55-1.55.855 0 1.55.695 1.55 1.55v1z" fill="#333333" />
</svg>
