<svg xmlns="http://www.w3.org/2000/svg" viewBox="0 0 140 130">
  <path fill-rule="evenodd" clip-rule="evenodd" d="M140 27.1777c0 4.9312-1.251 9.479-3.754 13.6432-2.502 4.1642-5.899 7.4618-10.189 9.8897-2.771 1.5701-5.706 2.6325-8.807 3.188v34.4289H91v21.0855L45.5 130 0 109.413V56.4164l45.5-20.6098L91 56.4164v21.7195h15.75V53.898c-3.099-.5557-6.034-1.6179-8.8041-3.1874-4.2901-2.4279-7.6864-5.7255-10.1889-9.8897C85.2513 36.6567 84 32.1089 84 27.1777c0-4.9312 1.2513-9.479 3.757-13.6432 2.5025-4.1642 5.8988-7.4618 10.1889-9.8897C102.236 1.214 106.921 0 112.002 0c5.08 0 9.765 1.214 14.055 3.6448 4.29 2.428 7.687 5.7255 10.189 9.8897 2.503 4.1642 3.754 8.712 3.754 13.6432zm-23.032 11.7045v6.7945c0 .3291-.11.6009-.329.8153-.22.2114-.499.3171-.841.3171h-6.999c-.342 0-.621-.1057-.841-.3171-.219-.2144-.329-.4862-.329-.8153v-6.7945c0-.3321.11-.6039.329-.8153.22-.2144.499-.3201.841-.3201h6.999c.342 0 .621.1057.841.3201.219.2114.329.4832.329.8153zm7.033-24.2703c-1.32-1.7694-2.965-3.1372-4.942-4.1034-1.974-.9662-3.997-1.4493-6.066-1.4493-5.78 0-10.194 2.5122-13.2423 7.5364-.356.5676-.2609 1.0628.2853 1.4855l4.712 3.5388c.166.1419.393.2143.679.2143.38 0 .678-.1419.89-.4257 1.261-1.6033 2.284-2.6873 3.07-3.2549.81-.5676 1.832-.8484 3.069-.8484 1.142 0 2.158.3049 3.055.9179.89.6129 1.338 1.3104 1.338 2.0894 0 .8967-.239 1.6153-.715 2.1558-.476.5435-1.283 1.0749-2.425 1.5942-1.498.6613-2.874 1.6818-4.123 3.0617-1.249 1.3798-1.876 2.8593-1.876 4.4415v1.2742c0 .3291.108.6008.323.8122.215.2144.488.32.819.32h6.855c.332 0 .608-.1056.823-.32.212-.2114.319-.4831.319-.8122 0-.4499.258-1.0327.767-1.7543.513-.7186 1.161-1.3013 1.947-1.7512.761-.4228 1.344-.7609 1.746-1.0085.405-.2476.952-.6613 1.643-1.238.687-.5767 1.218-1.1443 1.59-1.6968.368-.5556.703-1.2682.997-2.1408.295-.8726.445-1.8267.445-2.8654 0-2.0803-.66-4.0007-1.983-5.773zM45.5 72.5383L15.8914 59.4751 45.5 46.0096l29.6086 13.4655L45.5 72.5383zm4.9359 9.0174l30.9974-13.6759v35.5342L50.75 117.403V81.5557h-.3141zM9.5667 67.8798L40.564 81.5557H40.25v35.8503L9.5667 103.434V67.8798z" fill="#EEEEEE" />
</svg>
