<svg xmlns="http://www.w3.org/2000/svg" viewBox="0 0 20 20">
  <path fill-rule="evenodd" clip-rule="evenodd" d="M20 4c0 .7258-.1788 1.3951-.5363 2.008-.3575.6129-.8427 1.0982-1.4555 1.4556-.3959.231-.8153.3874-1.2582.4692V13H13v3.1034l-6.5 3.03-6.5-3.03v-7.8L6.5 5.27 13 8.3034V11.5h2.25V7.9327c-.4428-.0818-.862-.2381-1.2577-.4691-.6129-.3574-1.0981-.8427-1.4556-1.4556C12.1788 5.3951 12 4.7258 12 4s.1788-1.3951.5367-2.008c.3575-.6129.8427-1.0982 1.4556-1.4556C14.6051.1787 15.2745 0 16.0002 0c.7258 0 1.3951.1787 2.008.5364.6128.3574 1.098.8427 1.4555 1.4556C19.8212 2.6049 20 3.2742 20 4zm-3.2903 1.7227v1c0 .0484-.0157.0884-.047.12-.0314.031-.0713.0466-.1201.0466h-.9999c-.0489 0-.0887-.0155-.1201-.0466-.0314-.0316-.047-.0716-.047-.12v-1c0-.049.0156-.089.047-.12.0314-.0316.0712-.0471.1201-.0471h.9999c.0488 0 .0887.0155.1201.047.0313.0312.047.0712.047.12zm1.0048-3.5721c-.1886-.2604-.4236-.4617-.706-.604-.282-.1422-.571-.2133-.8666-.2133-.8257 0-1.4563.3698-1.8918 1.1092-.0509.0836-.0373.1565.0408.2187l.6731.5208c.0237.0209.0562.0316.0969.0316.0544 0 .097-.021.1272-.0627.1803-.236.3263-.3955.4385-.479.1158-.0836.2619-.125.4386-.125.1631 0 .3083.045.4363.1352.1272.0902.1912.1928.1912.3075 0 .132-.0342.2377-.1022.3173-.0679.08-.1833.1582-.3464.2346-.214.0973-.4105.2475-.5889.4506-.1785.2031-.268.4209-.268.6537v.1875c0 .0485.0154.0885.0461.1196.0307.0316.0697.0471.117.0471h.9793c.0473 0 .0868-.0156.1175-.0471.0303-.0311.0456-.0711.0456-.1195 0-.0663.0369-.152.1096-.2582a.8736.8736 0 01.2781-.2578c.1087-.0622.192-.112.2495-.1484.0579-.0364.1359-.0973.2346-.1822.0982-.0849.1741-.1684.2272-.2498.0526-.0817.1004-.1866.1425-.315.0421-.1285.0636-.2689.0636-.4218 0-.3061-.0943-.5888-.2833-.8496zM6.5 10.6762L2.2702 8.7535 6.5 6.7717l4.2298 1.9818L6.5 10.6762zm.7051 1.3272l4.4282-2.0129v5.2299L7.25 17.2794v-5.276h-.0449zM1.3667 9.9905l4.4282 2.0129H5.75v5.2764l-4.3833-2.0564V9.9905z" fill="currentColor" />
</svg>
