<svg xmlns="http://www.w3.org/2000/svg" viewBox="0 0 20 20">
  <g fill="#333333">
    <path fill-rule="evenodd" clip-rule="evenodd" d="M13.5 5.5c0 1.5855-1.0543 2.9248-2.5 3.355V18H9V8.855C7.5543 8.4249 6.5 7.0856 6.5 5.5 6.5 3.567 8.067 2 10 2s3.5 1.567 3.5 3.5zm-1.5 0c0 1.1046-.8954 2-2 2s-2-.8954-2-2 .8954-2 2-2 2 .8954 2 2z" />
    <path d="M15 4h2v4.1707c1.1652.4118 2 1.523 2 2.8293 0 1.3062-.8348 2.4175-2 2.8293V18h-2v-4.1707c-1.1652-.4118-2-1.5231-2-2.8293s.8348-2.4175 2-2.8293V4zM8 15L5 9V4H3v5l-3 6h3v3h2v-3h3z" />
  </g>
</svg>
