<svg xmlns="http://www.w3.org/2000/svg" viewBox="0 0 20 20">
  <g fill="#333333">
    <path fill-rule="evenodd" clip-rule="evenodd" d="M15.5 1c-1.9628 0-3.6642 1.143-4.5 2.8125.8358 1.6697 2.5372 2.8127 4.5 2.8127s3.664-1.143 4.5-2.8127C19.1642 2.143 17.4628 1 15.5 1zm-.8438 2.7598a.8438.8438 0 100-1.6876.8438.8438 0 000 1.6876zm4.3761.0527a4.281 4.281 0 00-1.4176-1.385 2.249 2.249 0 01.1352.7698c0 1.2427-1.0072 2.25-2.25 2.25-1.2427 0-2.25-1.0073-2.25-2.25 0-.2705.048-.5297.1353-.7699a4.2785 4.2785 0 00-1.4176 1.385 4.2794 4.2794 0 001.3136 1.3211 4.1187 4.1187 0 002.2187.648 4.1188 4.1188 0 002.2188-.648 4.2794 4.2794 0 001.3136-1.321z" />
    <path d="M.75 5v9.5c0 2.0711 1.679 3.75 3.75 3.75H10v-1.5H4.5c-1.2426 0-2.25-1.0073-2.25-2.25v-3.9998a3.7336 3.7336 0 002.2501.7498h.5v-1.5h-.5c-1.2426 0-2.25-1.0073-2.25-2.25L2.25 5H.75zM18.799 13.5V15h-1.5v-1.5c0-1.2426-1.0073-2.25-2.25-2.25h-.0488v-1.5h.0488c2.0711 0 3.75 1.679 3.75 3.75z" />
  </g>
  <rect x="5" y="8" width="10" height="5" rx="1" fill="#1651B0" />
  <g fill="#999999">
    <path d="M1 0C.4477 0 0 .4477 0 1v3c0 .5523.4477 1 1 1h8c.5523 0 1-.4477 1-1V1c0-.5523-.4477-1-1-1H1zM11 15c-.5523 0-1 .4477-1 1v3c0 .5523.4477 1 1 1h8c.5523 0 1-.4477 1-1v-3c0-.5523-.4477-1-1-1h-8z" />
  </g>
</svg>
