<svg xmlns="http://www.w3.org/2000/svg" viewBox="0 0 20 20">
  <path d="M16 4.3v11.4c0 1.9107-2.716 3.3-6 3.3s-6-1.3893-6-3.3V4.3C4 2.3893 6.716 1 10 1s6 1.3893 6 3.3z" fill="#333333" />
  <g fill="#FFFFFF">
    <path d="M5 4c0 1.0466 2.2245 2 5 2s5-.9534 5-2c0-1.0467-2.2245-2-5-2s-5 .9533-5 2z" />
    <path d="M10 6.5c2.3403 0 4.3528-.636 5.1429-1.5904V15.7c0 1.2374-2.2728 2.4-5.1429 2.4-2.87 0-5.1428-1.1626-5.1428-2.4V4.9096C5.6472 5.8641 7.6598 6.5 10 6.5z" />
  </g>
  <path d="M17 2.5S19 3 19 4v8c-.4458 1.7337-4.8664 2.3632-9.2147 2.9825C7.222 15.3476 4.684 15.709 3 16.291V19.5S1 19 1 18v-8c.4458-1.7337 4.8664-2.3632 9.2147-2.9825C12.7779 6.6525 15.316 6.291 17 5.709V2.5z" fill="#333333" />
  <path d="M2 10.1636v5.4402c.4136-.1794.887-.3403 1.4161-.4886 1.414-.3962 2.8513-.6416 6.1054-1.1052l.3558-.0507c5.334-.7603 7.7721-1.3945 8.1227-2.1228V6.3962c-.4136.1794-.887.3404-1.4161.4886-1.4141.3962-2.8513.6417-6.1054 1.1052l-.3558.0507C4.7887 8.801 2.3506 9.4353 2 10.1636z" fill="#999999" />
</svg>
