<svg xmlns="http://www.w3.org/2000/svg" viewBox="0 0 20 20">
  <path d="M1 3.5C1 2.1193 2.1193 1 3.5 1h13C17.8807 1 19 2.1193 19 3.5v13c0 1.3807-1.1193 2.5-2.5 2.5h-13C2.1193 19 1 17.8807 1 16.5v-13z" fill="#333333" />
  <path fill-rule="evenodd" clip-rule="evenodd" d="M2 3.5C2 2.6716 2.6716 2 3.5 2h13c.8284 0 1.5.6716 1.5 1.5V8H2V3.5zM2 15h16v1.5c0 .8284-.6716 1.5-1.5 1.5h-13c-.8284 0-1.5-.6716-1.5-1.5V15zM4.75 9H4v.75l1.35 1.75L4 13.25V14h.75L6 12.25 7.25 14H8v-.75L6.75 11.5 8 9.75V9h-.75L6 10.75 4.75 9z" fill="#FFFFFF" />
  <path d="M12 13H9v1h3v-1z" fill="#FFFFFF" />
  <path fill-rule="evenodd" clip-rule="evenodd" d="M16 9h-3v5h3c.5523 0 1-.4477 1-1v-.5029c0-.5507-.4464-.9971-.9971-.9971.5507 0 .9971-.4464.9971-.9971V10c0-.5523-.4477-1-1-1zm-2 3h1.625a.375.375 0 01.375.375v.25a.375.375 0 01-.375.375H14v-1zm1.625-2H14v1h1.625a.375.375 0 00.375-.375v-.25a.375.375 0 00-.375-.375z" fill="#FFFFFF" />
</svg>
