<svg xmlns="http://www.w3.org/2000/svg" viewBox="0 0 20 20">
  <path d="M1 3.5C1 2.1193 2.1193 1 3.5 1h13C17.8807 1 19 2.1193 19 3.5v13c0 1.3807-1.1193 2.5-2.5 2.5h-13C2.1193 19 1 17.8807 1 16.5v-13z" fill="#333333" />
  <g fill="#FFFFFF">
    <path d="M3.5 2C2.6716 2 2 2.6716 2 3.5V8h16V3.5c0-.8284-.6716-1.5-1.5-1.5h-13zM18 15H2v1.5c0 .8284.6716 1.5 1.5 1.5h13c.8284 0 1.5-.6716 1.5-1.5V15z" />
  </g>
  <path fill-rule="evenodd" clip-rule="evenodd" d="M4.75 9H4v.75l1.35 1.75L4 13.25V14h.75L6 12.25 7.25 14H8v-.75L6.75 11.5 8 9.75V9h-.75L6 10.75 4.75 9z" fill="#FFFFFF" />
  <path d="M12 13H9v1h3v-1z" fill="#FFFFFF" />
  <path fill-rule="evenodd" clip-rule="evenodd" d="M14 10h-1.5V9h4v1H15v4h-1v-4z" fill="#FFFFFF" />
</svg>
