<svg xmlns="http://www.w3.org/2000/svg" viewBox="0 0 20 20">
  <path d="M1 3.5C1 2.1193 2.1193 1 3.5 1h13C17.8807 1 19 2.1193 19 3.5v13c0 1.3807-1.1193 2.5-2.5 2.5h-13C2.1193 19 1 17.8807 1 16.5v-13z" fill="#333333" />
  <path fill-rule="evenodd" clip-rule="evenodd" d="M2 3.5C2 2.6716 2.6716 2 3.5 2h13c.8284 0 1.5.6716 1.5 1.5V8H2V3.5zM18 15v1.5c0 .8284-.6716 1.5-1.5 1.5h-13c-.8284 0-1.5-.6716-1.5-1.5V15h16zM4.25 9H3.5v.75l1.35 1.75-1.35 1.75V14h.75l1.25-1.75L6.75 14h.75v-.75L6.25 11.5 7.5 9.75V9h-.75L5.5 10.75 4.25 9zM8.5 9h1l1 2 1-2h1v5h-1v-3l-.5 1.5h-1L9.5 11v3h-1V9zM14.5 10H13V9h4v1h-1.5v4h-1v-4z" fill="#FFFFFF" />
</svg>
