<svg xmlns="http://www.w3.org/2000/svg" viewBox="0 0 20 20">
  <path d="M3 3c0-.5523.4477-1 1-1h8.5858a1 1 0 01.7071.2929l3.4142 3.4142c.1875.1875.2929.4419.2929.7071V17c0 .5523-.4477 1-1 1H4c-.5523 0-1-.4477-1-1V3z" fill="#333333" />
  <path fill-rule="evenodd" clip-rule="evenodd" d="M7 3H4v14h5v-1H7v-1h2v-1H7v-1h2v-1H7v-1h2v-1H7V3zm8.7071 3.2071c.1875.1875.2929.4419.2929.7071V17h-4v-1h-2v-1h2v-1h-2v-1h2v-1h-2v-1h2V3h.0858a1 1 0 01.7071.2929l2.9142 2.9142zM8 3h1v1h1V3h1v6H8V3zm2 2H9v3h1V5z" fill="#FFFFFF" />
</svg>
